<svg width="77mm" height="21mm" viewBox="0 0 77 21" xmlns="http://www.w3.org/2000/svg"><g transform="translate(-160.29 -60.808)" fill="#050505" style="shape-inside:url(#rect841);white-space:pre" aria-label="Determinate Systems" stroke-width=".265"><path d="M160.3 69.529l1.836-7.92h3.132q1.2 0 1.992.408.792.396 1.188 1.128.396.72.396 1.704 0 1.068-.288 1.932t-.864 1.476q-.564.612-1.38.948-.816.324-1.884.324zm3.264-1.992h.66q.492 0 .84-.252.36-.252.576-.66t.312-.888q.108-.492.108-.96 0-.384-.12-.648t-.36-.396-.612-.132h-.504zM172.34 69.637q-.924 0-1.656-.324-.72-.324-1.128-.936-.408-.624-.408-1.476 0-1.056.432-1.836.444-.792 1.236-1.224.804-.432 1.872-.432.972 0 1.656.348.684.336 1.032.936.36.6.36 1.392 0 .228-.024.48t-.096.492h-4.584l-.012-1.02h2.688l-.66.252q.06-.168.06-.276.012-.108.012-.204 0-.228-.072-.348-.06-.132-.168-.18-.108-.06-.24-.06-.312 0-.516.18-.192.18-.3.468-.096.288-.132.612t-.036.6.096.444.264.24q.18.072.396.072.312 0 .48-.156.18-.168.252-.384l2.304.744q-.18.504-.636.864t-1.092.552q-.636.18-1.38.18zM179.02 69.649q-.852 0-1.44-.276-.588-.288-.828-.852-.228-.576-.036-1.44l1.116-4.824 2.94-.768-1.272 5.484q-.12.408.084.648.216.228.696.228.264 0 .396-.024.144-.024.264-.06l-.336 1.656q-.336.12-.756.168-.408.06-.828.06zm-2.952-4.26l.432-1.86h5.292l-.432 1.86zM184.95 69.637q-.924 0-1.656-.324-.72-.324-1.128-.936-.408-.624-.408-1.476 0-1.056.432-1.836.444-.792 1.236-1.224.804-.432 1.872-.432.972 0 1.656.348.684.336 1.032.936.36.6.36 1.392 0 .228-.024.48t-.096.492h-4.584l-.012-1.02h2.688l-.66.252q.06-.168.06-.276.012-.108.012-.204 0-.228-.072-.348-.06-.132-.168-.18-.108-.06-.24-.06-.312 0-.516.18-.192.18-.3.468-.096.288-.132.612t-.036.6.096.444.264.24q.18.072.396.072.312 0 .48-.156.18-.168.252-.384l2.304.744q-.18.504-.636.864t-1.092.552q-.636.18-1.38.18zM188.33 69.529l1.392-6h2.484l-.516 2.712-.06-.276q.192-.756.492-1.332t.768-.9q.48-.324 1.164-.324.204 0 .336.036.132.024.216.072l-.636 2.256q-.12-.06-.288-.096t-.444-.036q-.324 0-.648.144-.312.132-.564.444-.24.312-.372.852l-.564 2.448zM193.76 69.529l1.392-6h2.46l-.36 2.292-.096-.24q.252-1.032.888-1.596.636-.576 1.56-.576.612 0 1.02.276.408.264.564.756t0 1.176l-.912 3.912h-2.76l.816-3.48q.06-.276-.048-.432-.096-.168-.336-.168-.168 0-.3.096-.132.084-.228.264-.084.168-.144.432l-.756 3.288zm7.524 0l.816-3.48q.06-.276-.048-.432-.096-.168-.336-.168-.168 0-.3.096-.132.084-.228.264-.084.168-.144.432l-.12-.66q.252-1.032.876-1.596.624-.576 1.512-.576.636 0 1.056.276.42.264.576.756.168.492.012 1.176l-.912 3.912zM207.93 63.145q-.684 0-1.056-.252-.36-.252-.264-.864.096-.672.468-.924.384-.264 1.116-.264.708 0 1.068.264.372.252.276.816-.096.732-.492.984-.384.24-1.116.24zm1.176.384l-1.392 6h-2.76l1.392-6zM208.64 69.529l1.392-6h2.46l-.36 2.292-.096-.24q.252-1.032.888-1.596.636-.576 1.56-.576.612 0 1.02.276.408.264.564.756t0 1.176l-.912 3.912h-2.76l.816-3.48q.06-.276-.048-.432-.096-.168-.336-.168-.168 0-.3.096-.132.084-.228.264-.084.168-.144.432l-.756 3.288zM218.38 69.649q-.528 0-.972-.24-.432-.252-.684-.744-.252-.504-.252-1.272 0-.708.192-1.416t.564-1.284q.372-.588.912-.936t1.236-.348q.312 0 .636.12t.576.408q.252.276.336.792l.276-1.2h2.76l-1.392 6h-2.52l.204-1.14q-.3.588-.792.924-.48.336-1.08.336zm1.32-1.944q.216 0 .384-.168.168-.18.276-.456.12-.276.168-.564.06-.3.06-.528 0-.204-.06-.336-.048-.144-.156-.216-.096-.072-.252-.072-.252 0-.432.192-.168.18-.276.456-.108.264-.168.552-.048.276-.048.456 0 .204.048.36.06.156.168.24t.288.084zM227.02 69.649q-.852 0-1.44-.276-.588-.288-.828-.852-.228-.576-.036-1.44l1.116-4.824 2.94-.768-1.272 5.484q-.12.408.084.648.216.228.696.228.264 0 .396-.024.144-.024.264-.06l-.336 1.656q-.336.12-.756.168-.408.06-.828.06zm-2.952-4.26l.432-1.86h5.292l-.432 1.86zM232.95 69.637q-.924 0-1.656-.324-.72-.324-1.128-.936-.408-.624-.408-1.476 0-1.056.432-1.836.444-.792 1.236-1.224.804-.432 1.872-.432.972 0 1.656.348.684.336 1.032.936.36.6.36 1.392 0 .228-.024.48t-.096.492h-4.584l-.012-1.02h2.688l-.66.252q.06-.168.06-.276.012-.108.012-.204 0-.228-.072-.348-.06-.132-.168-.18-.108-.06-.24-.06-.312 0-.516.18-.192.18-.3.468-.096.288-.132.612t-.036.6.096.444.264.24q.18.072.396.072.312 0 .48-.156.18-.168.252-.384l2.304.744q-.18.504-.636.864t-1.092.552q-.636.18-1.38.18zM188.98 79.285q-.804 0-1.572-.18-.756-.192-1.416-.576t-1.188-.972l1.392-1.656q.336.384.804.684t.972.48q.504.168.948.168.228 0 .348-.048.132-.06.192-.144t.06-.192q0-.132-.132-.216-.12-.096-.408-.192l-1.116-.396q-.492-.18-.936-.468-.444-.3-.72-.756t-.276-1.092q0-.9.456-1.476.456-.588 1.236-.876t1.752-.288q1.296 0 2.196.42.9.408 1.596 1.08l-1.476 1.608q-.3-.3-.672-.528-.372-.24-.78-.372t-.828-.132q-.192 0-.324.036-.12.036-.18.108t-.06.18q0 .144.18.252.18.096.48.204l1.02.36q.924.324 1.416.852.504.516.504 1.404 0 .864-.456 1.476t-1.236.936q-.78.312-1.776.312zM193.52 81.709q-.564 0-1.056-.12-.504-.12-.78-.3l.684-1.86q.42.348 1.104.348.3 0 .528-.084.24-.084.348-.252l.036-.06-1.056-6.252h2.808l-.072 3.096-.072 1.44.564-1.452 1.236-3.084h2.88l-3.408 6.048q-.516.924-1.056 1.476-.528.564-1.176.804-.648.252-1.512.252zM203.01 79.249q-.612 0-1.26-.156t-1.2-.444q-.552-.3-.924-.732l1.152-1.272q.372.372.888.648.528.276.972.276.204 0 .3-.048.108-.06.108-.156 0-.084-.072-.144-.06-.072-.228-.12l-.504-.168q-.996-.336-1.404-.756t-.408-1.104.36-1.14q.372-.456 1.008-.684.636-.24 1.44-.24.996 0 1.764.3t1.284.792l-1.068 1.32q-.192-.192-.492-.36t-.636-.264q-.336-.108-.672-.108-.156 0-.228.048t-.072.132.06.144q.072.06.228.108l1.08.348q.648.204.996.612.36.408.36 1.02 0 .66-.336 1.14-.324.48-.96.744-.624.264-1.536.264zM209.51 79.249q-.852 0-1.44-.276-.588-.288-.828-.852-.228-.576-.036-1.44l1.116-4.824 2.94-.768-1.272 5.484q-.12.408.084.648.216.228.696.228.264 0 .396-.024.144-.024.264-.06l-.336 1.656q-.336.12-.756.168-.408.06-.828.06zm-2.952-4.26l.432-1.86h5.292l-.432 1.86zM215.44 79.237q-.924 0-1.656-.324-.72-.324-1.128-.936-.408-.624-.408-1.476 0-1.056.432-1.836.444-.792 1.236-1.224.804-.432 1.872-.432.972 0 1.656.348.684.336 1.032.936.36.6.36 1.392 0 .228-.024.48t-.096.492h-4.584l-.012-1.02h2.688l-.66.252q.06-.168.06-.276.012-.108.012-.204 0-.228-.072-.348-.06-.132-.168-.18-.108-.06-.24-.06-.312 0-.516.18-.192.18-.3.468-.096.288-.132.612t-.036.6.096.444.264.24q.18.072.396.072.312 0 .48-.156.18-.168.252-.384l2.304.744q-.18.504-.636.864t-1.092.552q-.636.18-1.38.18zM218.83 79.129l1.392-6h2.46l-.36 2.292-.096-.24q.252-1.032.888-1.596.636-.576 1.56-.576.612 0 1.02.276.408.264.564.756t0 1.176l-.912 3.912h-2.76l.816-3.48q.06-.276-.048-.432-.096-.168-.336-.168-.168 0-.3.096-.132.084-.228.264-.084.168-.144.432l-.756 3.288zm7.524 0l.816-3.48q.06-.276-.048-.432-.096-.168-.336-.168-.168 0-.3.096-.132.084-.228.264-.084.168-.144.432l-.12-.66q.252-1.032.876-1.596.624-.576 1.512-.576.636 0 1.056.276.42.264.576.756.168.492.012 1.176l-.912 3.912zM233.31 79.249q-.612 0-1.26-.156t-1.2-.444q-.552-.3-.924-.732l1.152-1.272q.372.372.888.648.528.276.972.276.204 0 .3-.048.108-.06.108-.156 0-.084-.072-.144-.06-.072-.228-.12l-.504-.168q-.996-.336-1.404-.756t-.408-1.104.36-1.14q.372-.456 1.008-.684.636-.24 1.44-.24.996 0 1.764.3t1.284.792l-1.068 1.32q-.192-.192-.492-.36t-.636-.264q-.336-.108-.672-.108-.156 0-.228.048t-.072.132.06.144q.072.06.228.108l1.08.348q.648.204.996.612.36.408.36 1.02 0 .66-.336 1.14-.324.48-.96.744-.624.264-1.536.264z"/></g></svg>