<svg xmlns="http://www.w3.org/2000/svg" xmlns:xlink="http://www.w3.org/1999/xlink" version="1.1" width="2454.5454545454545" height="3194.805194805195" viewBox="0 0 2454.5454545454545 3194.805194805195">
	<g transform="scale(9.74025974025974) translate(10, 10)">
		<defs id="SvgjsDefs1074"/><g id="SvgjsG1075" featureKey="rootContainer" transform="matrix(1,0,0,1,0,0)" fill="#000"><rect xmlns="http://www.w3.org/2000/svg" width="232" height="308" rx="10" ry="10"/></g><g id="SvgjsG1076" featureKey="monogramFeature-0" transform="matrix(4.611099720001221,0,0,4.611099720001221,24.166702752329716,-74.89643385060116)" fill="#ffffff"><path d="M36.12 20.58 c0.54 0 1.02 0.42 1.02 1.02 l0 35.94 c0 0.54 -0.48 1.02 -1.02 1.02 l-0.36 0 l0 0.42 c0 0.54 -0.48 1.02 -1.02 1.02 l-7.8 0 c-0.54 0 -1.02 -0.48 -1.02 -1.02 l0 -12.66 l-11.7 0 l0 11.22 c0 0.54 -0.48 1.02 -1.02 1.02 l-0.36 0 l0 0.42 c0 0.54 -0.48 1.02 -1.02 1.02 l-7.8 0 c-0.54 0 -1.02 -0.48 -1.02 -1.02 l0 -35.94 c0 -0.6 0.48 -1.02 1.02 -1.02 l0.36 0 l0 -0.42 c0 -0.6 0.48 -1.02 1.02 -1.02 l7.8 0 c0.54 0 1.02 0.42 1.02 1.02 l0 14.52 l11.7 0 l0 -13.08 c0 -0.6 0.48 -1.02 1.02 -1.02 l0.36 0 l0 -0.42 c0 -0.6 0.48 -1.02 1.02 -1.02 l7.8 0 z M4.86 21.6 l0 0.42 l6.96 0 c0.54 0 1.02 0.42 1.02 1.02 l0 14.52 l13.08 0 l0 -0.96 l-12.18 0 l0 -15 c0 -0.3 -0.24 -0.54 -0.54 -0.54 l-7.8 0 c-0.3 0 -0.54 0.24 -0.54 0.54 z M36.66 57.54 l0 -35.94 c0 -0.3 -0.24 -0.54 -0.54 -0.54 l-7.8 0 c-0.3 0 -0.54 0.24 -0.54 0.54 l0 0.42 l6.96 0 c0.54 0 1.02 0.42 1.02 1.02 l0 35.04 l0.36 0 c0.3 0 0.54 -0.24 0.54 -0.54 z M12.36 58.98 l0 -0.42 l-6.96 0 c-0.54 0 -1.02 -0.48 -1.02 -1.02 l0 -35.04 l-0.36 0 c-0.3 0 -0.54 0.24 -0.54 0.54 l0 35.94 c0 0.3 0.24 0.54 0.54 0.54 l7.8 0 c0.3 0 0.54 -0.24 0.54 -0.54 z M35.28 58.08 l0 -35.04 c0 -0.3 -0.24 -0.54 -0.54 -0.54 l-6.96 0 l0 14.1 l-1.38 0 l0 1.44 l-14.04 0 l0 -15 c0 -0.3 -0.24 -0.54 -0.54 -0.54 l-6.96 0 l0 35.04 c0 0.3 0.24 0.54 0.54 0.54 l6.96 0 l0 -12.24 l1.38 0 l0 -1.44 l14.04 0 l0 13.14 c0 0.3 0.24 0.54 0.54 0.54 l6.96 0 z M26.4 23.04 l0 13.08 l0.9 0 l0 -13.62 l-0.36 0 c-0.3 0 -0.54 0.24 -0.54 0.54 z M35.28 58.98 l0 -0.42 l-6.96 0 c-0.54 0 -1.02 -0.48 -1.02 -1.02 l0 -12.66 l-13.08 0 l0 0.96 l12.18 0 l0 13.14 c0 0.3 0.24 0.54 0.54 0.54 l7.8 0 c0.3 0 0.54 -0.24 0.54 -0.54 z M13.74 57.54 l0 -11.22 l-0.9 0 l0 11.76 l0.36 0 c0.3 0 0.54 -0.24 0.54 -0.54 z"/></g><g id="SvgjsG1077" featureKey="nameFeature-0" transform="matrix(1.5508710145950317,0,0,1.5508710145950317,16.89825796327666,199.91560001154772)" fill="#ffffff"><path d="M2.52 40 c-0.28 0 -0.52 -0.24 -0.52 -0.52 l0 -23.96 c0 -0.28 0.24 -0.52 0.52 -0.52 l5.2 0 c0.28 0 0.52 0.24 0.52 0.52 l0 9.84 l9.04 0 l0 -9.84 c0 -0.28 0.24 -0.52 0.52 -0.52 l5.2 0 c0.28 0 0.52 0.24 0.52 0.52 l0 23.96 c0 0.28 -0.24 0.52 -0.52 0.52 l-5.2 0 c-0.28 0 -0.52 -0.24 -0.52 -0.52 l0 -8.6 l-9.04 0 l0 8.6 c0 0.28 -0.24 0.52 -0.52 0.52 l-5.2 0 z M28.256999999999998 40 l0 -23.96 c0 -1 0.2 -1.2 0.52 -1.2 l17.52 0 c0.28 0 0.52 0.2 0.52 0.48 l0 4.52 c0 0.28 -0.24 0.52 -0.52 0.52 l-11.84 0 l0 4.16 l7.48 0 c0.28 0 0.52 0.24 0.52 0.52 l0 4.48 c0 0.28 -0.24 0.52 -0.52 0.52 l-7.48 0 l0 4.28 l11.8 0 c0.28 0 0.52 0.24 0.52 0.52 l0 4.48 c0 0.28 -0.24 0.52 -0.52 0.52 l-17.48 0 c-0.32 0 -0.52 -0.24 -0.52 0.16 z M52.074 40 c-0.28 0 -0.52 -0.24 -0.52 -0.52 l0 -23.96 c0 -0.28 0.24 -0.52 0.52 -0.52 l4.72 0 c0.16 0 0.32 0.08 0.44 0.2 l9.2 14.2 l0 -13.88 c0 -0.28 0.24 -0.52 0.52 -0.52 l4.92 0 c0.28 0 0.52 0.24 0.52 0.52 l0 23.96 c0 0.28 -0.24 0.52 -0.52 0.52 l-4.72 0 c-0.16 0 -0.32 -0.08 -0.44 -0.2 l-9.16 -14.12 l0 13.8 c0 0.28 -0.24 0.52 -0.52 0.52 l-4.96 0 z M89.731 40 c-2.36 0 -4.52 -0.56 -6.44 -1.68 c-1.92 -1.16 -3.44 -2.72 -4.52 -4.68 s-1.64 -4.16 -1.64 -6.6 c0 -2.36 0.56 -4.56 1.68 -6.52 c1.12 -1.92 2.68 -3.48 4.6 -4.6 c1.96 -1.12 4.16 -1.68 6.48 -1.68 c1.76 0 3.48 0.4 5.16 1.12 c1.68 0.76 3.12 1.76 4.32 3.04 c0.16 0.2 0.16 0.48 0 0.68 l-3.8 3.12 c-0.12 0.12 -0.24 0.2 -0.4 0.2 s-0.32 -0.08 -0.4 -0.2 c-2.04 -2.48 -5.32 -3 -8.08 -1.28 c-2.4 1.48 -3.28 4.2 -3.16 6.92 c0.12 2.76 2.12 5.12 4.76 5.92 c2.4 0.72 4.76 0.16 6.48 -1.68 c0.12 -0.08 0.24 -0.16 0.4 -0.12 c0.16 0 0.28 0.04 0.36 0.16 l3.88 2.72 c0.16 0.2 0.16 0.48 0 0.68 c-1.28 1.36 -2.8 2.48 -4.48 3.28 c-1.72 0.8 -3.48 1.2 -5.2 1.2 z M104.788 40 c-0.28 0 -0.52 -0.24 -0.52 -0.52 l0 -23.96 c0 -0.28 0.24 -0.52 0.52 -0.52 l5.2 0 c0.28 0 0.52 0.24 0.52 0.52 l0 9.84 l9.04 0 l0 -9.84 c0 -0.28 0.24 -0.52 0.52 -0.52 l5.2 0 c0.28 0 0.52 0.24 0.52 0.52 l0 23.96 c0 0.28 -0.24 0.52 -0.52 0.52 l-5.2 0 c-0.28 0 -0.52 -0.24 -0.52 -0.52 l0 -8.6 l-9.04 0 l0 8.6 c0 0.28 -0.24 0.52 -0.52 0.52 l-5.2 0 z"/></g><g id="SvgjsG1078" featureKey="sloganFeature-0" transform="matrix(1.1266591548919678,0,0,1.1266591548919678,38.77466838976004,265.46537793071184)" fill="#ffffff"><path d="M6.1 7.300000000000001 l0 12.7 l-1.5 0 l0 -12.7 l-4.4 0 l0 -1.3 l10.3 0 l0 0.9 l-0.4 0.4 l-4 0 z M14.057500000000001 20 l0 -14 l9.1 0 l0 0.9 l-0.4 0.4 l-7.2 0 l0 4.9 l5.7 0 l0 1.3 l-5.7 0 l0 5.2 l7.6 0 l0 1.3 l-9.1 0 z M36.015 18.7 l0 1.3 l-5.8 0 c-2.1 0 -3.5 -1.4 -3.5 -3.3 l0 -7.4 c0 -1.9 1.4 -3.3 3.5 -3.3 l5.8 0 l0 0.9 l-0.4 0.4 l-5.4 0 c-1.1 0 -2 0.9 -2 2 l0 7.4 c0 1.1 0.9 2 2 2 l5.8 0 z M48.472500000000004 6 l1.5 0 l0 14 l-1.5 0 l0 -6.5 l-6.9 0 l0 6.5 l-1.5 0 l0 -14 l1.5 0 l0 6.2 l6.9 0 l0 -6.2 z M63.53 20 l-6.8 -11.5 l-0.1 0 l0.2 2.6 l0 8.9 l-1.5 0 l0 -14 l1.6 0 l6.8 11.5 l0.1 0 l-0.2 -2.6 l0 -8.9 l1.5 0 l0 14 l-1.6 0 z M70.0875 16.9 l0 -7.8 c0 -1.9 1.4 -3.3 3.5 -3.3 l3.5 0 c2.1 0 3.5 1.4 3.5 3.3 l0 7.8 c0 1.9 -1.4 3.3 -3.5 3.3 l-3.5 0 c-2.1 0 -3.5 -1.4 -3.5 -3.3 z M79.0875 16.9 l0 -7.8 c0 -1.1 -0.9 -2 -2 -2 l-3.5 0 c-1.1 0 -2 0.9 -2 2 l0 7.8 c0 1.1 0.9 2 2 2 l3.5 0 c1.1 0 2 -0.9 2 -2 z M85.54500000000002 6 l1.5 0 l0 12.7 l7.5 0 l0 1.3 l-9 0 l0 -14 z M97.70250000000001 16.9 l0 -7.8 c0 -1.9 1.4 -3.3 3.5 -3.3 l3.5 0 c2.1 0 3.5 1.4 3.5 3.3 l0 7.8 c0 1.9 -1.4 3.3 -3.5 3.3 l-3.5 0 c-2.1 0 -3.5 -1.4 -3.5 -3.3 z M106.70250000000001 16.9 l0 -7.8 c0 -1.1 -0.9 -2 -2 -2 l-3.5 0 c-1.1 0 -2 0.9 -2 2 l0 7.8 c0 1.1 0.9 2 2 2 l3.5 0 c1.1 0 2 -0.9 2 -2 z M122.46000000000002 20 l-6.2 0 c-2.1 0 -3.5 -1.4 -3.5 -3.3 l0 -7.4 c0 -1.9 1.4 -3.3 3.5 -3.3 l5.8 0 l0 0.9 l-0.4 0.4 l-5.4 0 c-1.1 0 -2 0.9 -2 2 l0 7.4 c0 1.1 0.9 2 2 2 l4.7 0 l0 -6.3 l1.5 0 l0 7.6 z M131.81750000000002 15.7 l0 4.3 l-1.5 0 l0 -4.3 l-4.7 -9.1 l0 -0.6 l1.5 0 l3.9 8.1 l0.1 0 l3.9 -8.1 l1.5 0 l0 0.6 z"/></g>
		</g>
</svg>
