<?xml version="1.0" encoding="UTF-8" standalone="no"?>
<svg
   xmlns:dc="http://purl.org/dc/elements/1.1/"
   xmlns:cc="http://creativecommons.org/ns#"
   xmlns:rdf="http://www.w3.org/1999/02/22-rdf-syntax-ns#"
   xmlns:svg="http://www.w3.org/2000/svg"
   xmlns="http://www.w3.org/2000/svg"
   id="svg3946"
   version="1.1"
   viewBox="0 0 1058.3333 546.6292"
   height="2066"
   width="4000">
  <defs
     id="defs3940" />
  <metadata
     id="metadata3943">
    <rdf:RDF>
      <cc:Work
         rdf:about="">
        <dc:format>image/svg+xml</dc:format>
        <dc:type
           rdf:resource="http://purl.org/dc/dcmitype/StillImage" />
        <dc:title></dc:title>
      </cc:Work>
    </rdf:RDF>
  </metadata>
  <g
     style="display:inline"
     transform="translate(337.81245,-63.610872)"
     id="layer1">
    <g
       id="g3923"
       transform="matrix(0.0554777,0,0,0.0554777,-20.46673,394.10998)">
      <g
         id="g3471"
         transform="matrix(3.8252342,1.1694915,-1.1694915,3.8252342,160.98926,2736.9883)">
        <path
           id="path3473"
           transform="matrix(0.71722575,-0.21927793,0.21927793,0.71722575,-403.80749,-1382.4507)"
           d="m 124.8418,1965.666 -99.31055,10.4043 263.68024,306.2483 319.20843,7.9373 -60.94531,-83.6465 -232.24023,23.6172 z"
           style="fill:#7ebae4;fill-opacity:1;fill-rule:evenodd;stroke:none;stroke-width:1.33333862" />
      </g>
      <g
         id="g3475"
         transform="matrix(3.9902563,0.27902588,-0.27902588,3.9902563,-15746.739,10343.153)">
        <path
           id="path3477"
           transform="matrix(0.74817306,-0.05231735,0.05231735,0.74817306,3752.1251,-3612.187)"
           d="M -76.771484,1729.8066 V 2306.418 H 2466.793 V 2036.5137 L 298.80078,2264.1602 Z"
           style="fill:#f2f8fd;fill-opacity:1;fill-rule:nonzero;stroke:none;stroke-width:1.33333325" />
      </g>
    </g>
    <rect
       transform="rotate(54.837663)"
       y="312.88446"
       x="-142.42528"
       height="329.67169"
       width="659.86365"
       id="rect2877"
       style="opacity:1;fill:#f2f8fd;fill-opacity:1;stroke-width:0.32801086" />
    <rect
       transform="rotate(84.019957)"
       y="-681.01624"
       x="604.31952"
       height="701.90015"
       width="112.93073"
       id="rect2877-6"
       style="opacity:1;fill:#f2f8fd;fill-opacity:1;stroke-width:0.32801086" />
  </g>
</svg>
