<?xml version="1.0" encoding="UTF-8" standalone="no"?>
<svg
   xmlns:dc="http://purl.org/dc/elements/1.1/"
   xmlns:cc="http://creativecommons.org/ns#"
   xmlns:rdf="http://www.w3.org/1999/02/22-rdf-syntax-ns#"
   xmlns:svg="http://www.w3.org/2000/svg"
   xmlns="http://www.w3.org/2000/svg"
   xmlns:sodipodi="http://sodipodi.sourceforge.net/DTD/sodipodi-0.dtd"
   xmlns:inkscape="http://www.inkscape.org/namespaces/inkscape"
   width="123.11092mm"
   height="128.92155mm"
   viewBox="0 0 123.11092 128.92155"
   version="1.1"
   id="svg5697"
   inkscape:version="1.0.1 (3bc2e813f5, 2020-09-07)"
   sodipodi:docname="gfx-overview-gears.svg">
  <defs
     id="defs5691">
    <linearGradient
       x1="1298.6479"
       y1="138.54234"
       x2="1204.4941"
       y2="232.69592"
       gradientUnits="userSpaceOnUse"
       gradientTransform="matrix(0.25,0,0,-0.25,-281.41188,-899.98962)"
       spreadMethod="pad"
       id="linearGradient1084">
      <stop
         style="stop-opacity:1;stop-color:#699ad7"
         offset="0"
         id="stop1078" />
      <stop
         style="stop-opacity:1;stop-color:#7eb1dd"
         offset="0.24299999"
         id="stop1080" />
      <stop
         style="stop-opacity:1;stop-color:#7ebae4"
         offset="1"
         id="stop1082" />
    </linearGradient>
    <linearGradient
       x1="273.52625"
       y1="249.93224"
       x2="271.70264"
       y2="248.46783"
       gradientUnits="userSpaceOnUse"
       gradientTransform="matrix(0.25,0,0,-0.25,-281.27628,-901.46608)"
       spreadMethod="pad"
       id="linearGradient1100">
      <stop
         style="stop-opacity:1;stop-color:#699ad7"
         offset="0"
         id="stop1094" />
      <stop
         style="stop-opacity:1;stop-color:#7eb1dd"
         offset="0.24299999"
         id="stop1096" />
      <stop
         style="stop-opacity:1;stop-color:#7ebae4"
         offset="1"
         id="stop1098" />
    </linearGradient>
    <linearGradient
       x1="257.38257"
       y1="231.83957"
       x2="259.24567"
       y2="230.70079"
       gradientUnits="userSpaceOnUse"
       gradientTransform="matrix(0.25,0,0,-0.25,-281.02914,-901.66845)"
       spreadMethod="pad"
       id="linearGradient1112">
      <stop
         style="stop-opacity:1;stop-color:#699ad7"
         offset="0"
         id="stop1106" />
      <stop
         style="stop-opacity:1;stop-color:#7eb1dd"
         offset="0.24299999"
         id="stop1108" />
      <stop
         style="stop-opacity:1;stop-color:#7ebae4"
         offset="1"
         id="stop1110" />
    </linearGradient>
    <linearGradient
       x1="287.77856"
       y1="249.22729"
       x2="287.34631"
       y2="251.24826"
       gradientUnits="userSpaceOnUse"
       gradientTransform="matrix(0.25,0,0,-0.25,-281.00516,-901.3036)"
       spreadMethod="pad"
       id="linearGradient1124">
      <stop
         style="stop-opacity:1;stop-color:#699ad7"
         offset="0"
         id="stop1118" />
      <stop
         style="stop-opacity:1;stop-color:#7eb1dd"
         offset="0.24299999"
         id="stop1120" />
      <stop
         style="stop-opacity:1;stop-color:#7ebae4"
         offset="1"
         id="stop1122" />
    </linearGradient>
    <linearGradient
       x1="259.56897"
       y1="233.274"
       x2="257.71576"
       y2="234.76999"
       gradientUnits="userSpaceOnUse"
       gradientTransform="matrix(0.25,0,0,-0.25,-281.21567,-901.3037)"
       spreadMethod="pad"
       id="linearGradient1140">
      <stop
         style="stop-opacity:1;stop-color:#415e9a"
         offset="0"
         id="stop1134" />
      <stop
         style="stop-opacity:1;stop-color:#4a6baf"
         offset="0.27599999"
         id="stop1136" />
      <stop
         style="stop-opacity:1;stop-color:#5277c3"
         offset="1"
         id="stop1138" />
    </linearGradient>
    <linearGradient
       x1="271.38654"
       y1="248.48486"
       x2="273.31274"
       y2="249.81705"
       gradientUnits="userSpaceOnUse"
       gradientTransform="matrix(0.25,0,0,-0.25,-280.91196,-901.40857)"
       spreadMethod="pad"
       id="linearGradient1152">
      <stop
         style="stop-opacity:1;stop-color:#415e9a"
         offset="0"
         id="stop1146" />
      <stop
         style="stop-opacity:1;stop-color:#4a6baf"
         offset="0.23199999"
         id="stop1148" />
      <stop
         style="stop-opacity:1;stop-color:#5277c3"
         offset="1"
         id="stop1150" />
    </linearGradient>
    <linearGradient
       x1="286.80859"
       y1="249.21082"
       x2="287.28625"
       y2="247.05566"
       gradientUnits="userSpaceOnUse"
       gradientTransform="matrix(0.25,0,0,-0.25,-281.14279,-901.5702)"
       spreadMethod="pad"
       id="linearGradient1164">
      <stop
         style="stop-opacity:1;stop-color:#415e9a"
         offset="0"
         id="stop1158" />
      <stop
         style="stop-opacity:1;stop-color:#4a6baf"
         offset="0.27599999"
         id="stop1160" />
      <stop
         style="stop-opacity:1;stop-color:#5277c3"
         offset="1"
         id="stop1162" />
    </linearGradient>
    <clipPath
       clipPathUnits="userSpaceOnUse"
       id="clipPath1174">
      <path
         d="M 0,0 H 7680 V 26592 H 0 Z"
         id="path1172" />
    </clipPath>
    <clipPath
       clipPathUnits="userSpaceOnUse"
       id="clipPath1180">
      <path
         d="m 4880.8916,9149.918 85.9541,148.8886 -39.4717,0.3711 -22.9487,-40.0019 -23.147,39.7803 h -19.625 l -10.0493,-17.3672 32.9282,-56.6114 -23.3755,-40.6718 z"
         id="path1178" />
    </clipPath>
    <clipPath
       clipPathUnits="userSpaceOnUse"
       id="clipPath1188">
      <path
         d="M 0,0 H 116 V 151 H 0 Z"
         id="path1186" />
    </clipPath>
    <linearGradient
       x1="-914.46912"
       y1="-71.962433"
       x2="-913.99152"
       y2="-74.119576"
       gradientUnits="userSpaceOnUse"
       gradientTransform="matrix(4,0,0,4,-4850.396,-9148.082)"
       spreadMethod="pad"
       id="linearGradient1196">
      <stop
         style="stop-opacity:1;stop-color:#415e9a"
         offset="0"
         id="stop1190" />
      <stop
         style="stop-opacity:1;stop-color:#4a6baf"
         offset="0.27599999"
         id="stop1192" />
      <stop
         style="stop-opacity:1;stop-color:#5277c3"
         offset="1"
         id="stop1194" />
    </linearGradient>
    <linearGradient
       x1="1142.4353"
       y1="409.55923"
       x2="1315.6014"
       y2="236.39291"
       gradientUnits="userSpaceOnUse"
       gradientTransform="matrix(0.08819444,0,0,-0.08819444,-102.19275,-60.251221)"
       spreadMethod="pad"
       id="linearGradient1222">
      <stop
         style="stop-opacity:1;stop-color:#415e9a"
         offset="0"
         id="stop1216" />
      <stop
         style="stop-opacity:1;stop-color:#4a6baf"
         offset="0.27599999"
         id="stop1218" />
      <stop
         style="stop-opacity:1;stop-color:#5277c3"
         offset="1"
         id="stop1220" />
    </linearGradient>
    <linearGradient
       x1="1282.5485"
       y1="247.21605"
       x2="1434.2246"
       y2="247.21605"
       gradientUnits="userSpaceOnUse"
       gradientTransform="matrix(0.25,0,0,-0.25,-5.382536,-791.58228)"
       spreadMethod="pad"
       id="linearGradient1234">
      <stop
         style="stop-opacity:1;stop-color:#699ad7"
         offset="0"
         id="stop1228" />
      <stop
         style="stop-opacity:1;stop-color:#7eb1dd"
         offset="0.24299999"
         id="stop1230" />
      <stop
         style="stop-opacity:1;stop-color:#7ebae4"
         offset="1"
         id="stop1232" />
    </linearGradient>
  </defs>
  <sodipodi:namedview
     id="base"
     pagecolor="#ffffff"
     bordercolor="#666666"
     borderopacity="1.0"
     inkscape:pageopacity="0.0"
     inkscape:pageshadow="2"
     inkscape:zoom="0.35"
     inkscape:cx="-707.34946"
     inkscape:cy="-364.94015"
     inkscape:document-units="mm"
     inkscape:current-layer="layer1"
     inkscape:document-rotation="0"
     showgrid="false"
     inkscape:window-width="1917"
     inkscape:window-height="1025"
     inkscape:window-x="0"
     inkscape:window-y="764"
     inkscape:window-maximized="1" />
  <metadata
     id="metadata5694">
    <rdf:RDF>
      <cc:Work
         rdf:about="">
        <dc:format>image/svg+xml</dc:format>
        <dc:type
           rdf:resource="http://purl.org/dc/dcmitype/StillImage" />
        <dc:title></dc:title>
      </cc:Work>
    </rdf:RDF>
  </metadata>
  <g
     inkscape:label="Layer 1"
     inkscape:groupmode="layer"
     id="layer1"
     transform="translate(-292.98621,-244.72375)">
    <g
       id="g1076"
       transform="matrix(0.35277777,0,0,0.35277777,-99.33142,217.99965)">
      <path
         d="m 1285.083,151.248 -3.1609,-15.58208 -11.9743,0.61577 c -2.0422,-4.74307 -4.7862,-9.04824 -8.0735,-12.83018 l 5.9067,-10.22836 -12.4375,-9.90251 -8.8589,8.24543 c -4.4768,-2.22457 -9.3014,-3.78502 -14.3241,-4.56733 l -2.0765,-11.784728 -15.8953,0.409134 -1.5177,12.252454 c -4.931,1.21508 -9.5139,3.14456 -13.6649,5.64977 l -9.3769,-7.8712 -11.9123,10.52543 6.8649,10.59641 c -2.8517,3.92788 -5.1213,8.26592 -6.7273,12.87539 l -12.5053,0.002 -2.3573,15.71774 12.2518,3.76242 c 0.149,2.16904 0.4255,4.3494 0.8706,6.53485 0.5273,2.60488 1.2552,5.11316 2.1567,7.52582 l -9.6661,8.1087 8.2989,13.56104 11.8032,-4.99594 c 3.3348,3.50644 7.1619,6.49786 11.3448,8.88891 l -2.1814,12.36145 15.0731,5.04938 5.7464,-11.24812 c 4.7535,0.56952 9.66,0.44514 14.6056,-0.44409 l 6.1606,10.66735 14.7916,-5.81735 -2.7643,-12.03862 c 4.2161,-2.74164 7.9524,-6.0887 11.1105,-9.90045 l 11.3014,4.1109 7.5949,-13.96509 -9.6508,-7.2863 c 1.4598,-4.77191 2.1938,-9.80589 2.1308,-14.95295 l 11.1128,-4.04511 z m -55.9519,27.1797 c -12.4714,2.52988 -24.6313,-5.53151 -27.1621,-18.00192 -2.5289,-12.47243 5.5303,-24.63238 18.0031,-27.16223 12.4703,-2.53191 24.6323,5.52742 27.1629,17.99989 2.5291,12.47039 -5.5314,24.63236 -18.0039,27.16426 z"
         style="fill:url(#linearGradient1084);fill-opacity:1;fill-rule:nonzero;stroke:none"
         id="path1086" />
    </g>
    <g
       id="g1088"
       transform="matrix(0.35277777,0,0,0.35277777,-98.95177,220.23022)">
      <path
         d="m 1208.769,321.22202 21.4878,37.22198 -9.8676,0.0926 -5.7371,-10.00018 -5.7772,9.94677 h -4.9057 l -2.5123,-4.34222 8.2311,-14.15216 -5.8428,-10.16766 4.9238,-8.59909 z"
         style="fill:#5277c3;fill-opacity:1;fill-rule:evenodd;stroke:none"
         id="path1090" />
    </g>
    <g
       id="g1092"
       transform="matrix(0.35277777,0,0,0.35277777,-99.14007,220.08303)">
      <path
         d="m 1217.0588,306.30597 -21.491,37.22 -5.0164,-8.50552 5.7927,-9.9693 -11.5021,-0.0298 -2.463,-4.24862 2.5041,-4.3422 16.3807,0.0514 5.8853,-10.14407 9.9097,-0.0319 z"
         style="fill:url(#linearGradient1100);fill-opacity:1;fill-rule:evenodd;stroke:none"
         id="path1102" />
    </g>
    <g
       id="g1104"
       transform="matrix(0.35277777,0,0,0.35277777,-98.79135,220.3687)">
      <path
         d="m 1217.718,335.25 h 42.9788 l -4.8562,8.599 -11.5288,-0.0308 5.724,9.97653 -2.4554,4.24655 h -5.0172 l -8.1406,-14.20975 -11.7269,-0.0237 -4.9777,-8.55789 z"
         style="fill:url(#linearGradient1112);fill-opacity:1;fill-rule:evenodd;stroke:none"
         id="path1114" />
    </g>
    <g
       id="g1116"
       transform="matrix(0.35277777,0,0,0.35277777,-98.75751,219.85385)">
      <path
         d="m 1242.6376,320.39957 -21.4865,-37.22199 9.8675,-0.0926 5.7371,10.00012 5.7792,-9.94662 h 4.9064 l 2.5126,4.34213 -8.2321,14.15421 5.8429,10.16775 -4.9271,8.59696 z"
         style="fill:url(#linearGradient1124);fill-opacity:1;fill-rule:evenodd;stroke:none"
         id="path1126" />
    </g>
    <g
       id="g1128"
       transform="matrix(0.35277777,0,0,0.35277777,-98.95177,220.23022)">
      <path
         d="m 1208.769,321.22202 21.4878,37.22198 -9.8676,0.0926 -5.7371,-10.00018 -5.7772,9.94677 h -4.9057 l -2.5123,-4.34222 8.2311,-14.15216 -5.8428,-10.16766 4.9238,-8.59909 z"
         style="fill:#5277c3;fill-opacity:1;fill-rule:evenodd;stroke:none"
         id="path1130" />
    </g>
    <g
       id="g1132"
       transform="matrix(0.35277777,0,0,0.35277777,-99.05456,219.85393)">
      <path
         d="m 1234.0186,305.88635 h -42.9797 l 4.8571,-8.59903 11.53,0.0309 -5.724,-9.97654 2.4561,-4.24868 h 5.0162 l 8.1441,14.20968 11.7268,0.0237 4.9734,8.56 z"
         style="fill:url(#linearGradient1140);fill-opacity:1;fill-rule:evenodd;stroke:none"
         id="path1142" />
    </g>
    <g
       id="g1144"
       transform="matrix(0.35277777,0,0,0.35277777,-98.62599,220.00188)">
      <path
         d="m 1234.4812,335.30502 21.4895,-37.22 5.0177,8.50653 -5.7927,9.96829 11.5021,0.0298 2.4506,4.25076 -2.5019,4.34217 -16.3809,-0.0515 -5.8829,10.14515 z"
         style="fill:url(#linearGradient1152);fill-opacity:1;fill-rule:evenodd;stroke:none"
         id="path1154" />
    </g>
    <g
       id="g1156"
       transform="matrix(0.35277777,0,0,0.35277777,-98.95172,220.23001)">
      <path
         d="m 1208.7944,321.19901 21.488,37.22207 -9.8677,0.0924 -5.7373,-10.00009 -5.7863,9.94467 h -4.9066 l -2.5123,-4.34216 8.232,-14.15216 -5.844,-10.16773 4.9342,-8.59701 z"
         style="fill:url(#linearGradient1164);fill-opacity:1;fill-rule:evenodd;stroke:none"
         id="path1166" />
    </g>
    <g
       id="g1168"
       transform="matrix(0.08819444,0,0,0.08819444,-102.98357,-473.43013)">
      <g
         id="g1170"
         clip-path="url(#clipPath1174)">
        <g
           id="g1176"
           clip-path="url(#clipPath1180)">
          <g
             id="g1182"
             transform="translate(4851,9149)">
            <g
               id="g1184" />
            <g
               id="g1204">
              <g
                 clip-path="url(#clipPath1188)"
                 id="g1202">
                <g
                   transform="matrix(4,0,0,4,0.60400391,0.91796875)"
                   id="g1200">
                  <path
                     d="M 0,0 H 28.80863 V 37.314846 H 0 Z"
                     style="fill:url(#linearGradient1196);fill-opacity:1;fill-rule:nonzero;stroke:none"
                     id="path1198" />
                </g>
              </g>
            </g>
          </g>
        </g>
      </g>
    </g>
    <path
       d="m 373.38511,341.19414 c 0.37751,-1.93688 0.61796,-3.92129 0.70933,-5.94556 l -6.87546,-2.16831 c -0.0159,-1.78966 -0.17149,-3.54666 -0.45579,-5.25945 l 6.33984,-3.58731 c -0.44468,-1.92964 -1.02775,-3.80635 -1.73605,-5.6196 l -7.16305,0.81632 c -0.76221,-1.67395 -1.6588,-3.27434 -2.67452,-4.78802 l 4.32062,-5.839 c -1.17356,-1.54017 -2.45375,-2.99329 -3.83096,-4.34887 l -6.21298,3.65983 c -1.40815,-1.24242 -2.92217,-2.36879 -4.52505,-3.36355 l 1.57064,-7.08578 c -1.67185,-0.90624 -3.41545,-1.69682 -5.21861,-2.36444 l -4.1947,5.88069 c -1.80675,-0.55487 -3.67824,-0.96283 -5.60031,-1.20761 l -1.44223,-7.08613 c -0.94283,-0.0649 -1.89515,-0.10156 -2.85591,-0.10156 -0.96033,0 -1.91219,0.0366 -2.85549,0.10156 l -1.44187,7.08613 c -1.92278,0.24478 -3.79399,0.65274 -5.6007,1.20761 l -4.1947,-5.88069 c -1.80312,0.66762 -3.54637,1.4582 -5.21932,2.36444 l 1.57138,7.08578 c -1.60323,0.99476 -3.11651,2.12113 -4.52512,3.36355 l -6.21322,-3.65983 c -1.377,1.35558 -2.65787,2.8087 -3.83064,4.34887 l 4.32061,5.839 c -1.01614,1.51368 -1.91184,3.11407 -2.67459,4.78802 l -7.16294,-0.81632 c -0.70827,1.81325 -1.29141,3.68996 -1.73609,5.6196 l 6.33988,3.58731 c -0.28508,1.71279 -0.43992,3.46979 -0.45593,5.25945 l -6.87497,2.16831 c 0.0909,2.02427 0.33101,4.00868 0.70852,5.94556 l 7.24687,0.69776 c 0.4301,1.65331 0.98379,3.25658 1.64824,4.80033 l -5.40307,4.78082 c 0.90974,1.82448 1.95245,3.57132 3.1151,5.22682 l 6.90746,-2.31116 c 1.01826,1.27544 2.12757,2.47472 3.31741,3.58876 l -2.99734,6.57773 c 1.57463,1.31603 3.24905,2.51495 5.01283,3.58259 l 5.36247,-4.91351 c 1.40173,0.73615 2.86131,1.37623 4.3711,1.9115 l -0.0635,7.24427 c 1.96624,0.57008 3.99334,0.9969 6.07063,1.26525 l 2.89649,-6.66073 c 0.78002,0.0533 1.56696,0.0834 2.36047,0.0834 0.79385,0 1.58083,-0.0301 2.36079,-0.0834 l 2.89658,6.66073 c 2.07758,-0.26835 4.10468,-0.69517 6.07067,-1.26562 l -0.0635,-7.2439 c 1.51017,-0.53599 2.96983,-1.17535 4.37103,-1.9115 l 5.3625,4.91351 c 1.76315,-1.06764 3.43821,-2.26727 5.01287,-3.58259 l -2.9977,-6.57773 c 1.19024,-1.11404 2.29951,-2.31332 3.31823,-3.58876 l 6.90704,2.31116 c 1.16303,-1.6555 2.20532,-3.40234 3.11404,-5.22682 l -5.40202,-4.78082 c 0.66439,-1.54375 1.21782,-3.14702 1.64829,-4.80033 z m -39.84519,11.24825 c -10.61872,0 -19.22646,-8.60852 -19.22646,-19.22684 0,-10.61831 8.60774,-19.22612 19.22646,-19.22612 10.61798,0 19.22695,8.60781 19.22695,19.22612 0,10.61832 -8.60897,19.22684 -19.22695,19.22684 z"
       style="fill:url(#linearGradient1222);fill-opacity:1;fill-rule:nonzero;stroke:none;stroke-width:0.352777"
       id="path1224" />
    <g
       id="g1226"
       transform="matrix(0.35277777,0,0,0.35277777,-97.92577,218.64298)">
      <path
         d="m 1443.0295,238.27042 14.0433,-4.29593 -2.9063,-19.52335 -14.8911,-0.0134 c -2.2203,-6.01568 -5.3445,-11.53491 -9.1771,-16.43942 l 7.9867,-12.29767 -14.7753,-13.08511 -11.5255,9.64551 c -5.4053,-3.04486 -11.2843,-5.29306 -17.4622,-6.5914 l -1.8122,-14.74735 -19.7333,-0.52632 -2.6779,15.09581 c -6.1934,1.18631 -12.0007,3.28027 -17.3089,6.11649 l -11.1175,-10.37026 -15.458,12.28231 7.8251,13.58471 c -3.7914,4.68344 -6.8906,9.9169 -9.1766,15.52863 l -15.5081,-0.81003 -3.9447,19.33618 14.949,5.46277 c 0.043,2.69836 0.2447,5.41742 0.6517,8.16003 0.4842,3.26279 1.2277,6.41867 2.1863,9.46869 l -12.5111,9.42966 9.4078,17.35117 14.9635,-5.42768 c 3.907,4.56424 8.4572,8.52292 13.4869,11.76114 l -3.5021,15.18524 18.3606,7.24414 7.8556,-13.57547 c 5.8567,1.01358 11.9503,1.17804 18.14,0.39682 l 6.9427,13.62784 18.7227,-6.2521 -2.6472,-15.11127 c 5.408,-3.12512 10.258,-7.0304 14.4215,-11.5524 l 13.7462,5.83273 10.3231,-16.82284 -11.4896,-9.66715 c 2.116,-5.81729 3.357,-12.01187 3.612,-18.40075 z m -56.513,29.74347 c -17.818,2.65426 -34.4177,-9.64551 -37.072,-27.46549 -2.6529,-17.82104 9.6425,-34.41873 27.4646,-37.073 17.8221,-2.6542 34.4207,9.6445 37.0728,27.46347 2.6521,17.81998 -9.6425,34.42078 -27.4654,37.07502 z"
         style="fill:url(#linearGradient1234);fill-opacity:1;fill-rule:nonzero;stroke:none"
         id="path1236" />
    </g>
    <g
       id="g1238"
       transform="matrix(0.35277777,0,0,0.35277777,-98.17223,217.8128)">
      <path
         d="m 1374.6521,151.76118 5.072,-12.12088 -8.4769,-5.13678 c 0.8081,-4.19003 0.9294,-8.4099 0.4357,-12.52178 l 8.7873,-4.25172 -3.9101,-12.54337 -9.8862,1.52242 c -2.0295,-3.5938 -4.6024,-6.899774 -7.6718,-9.766794 l 4.047,-9.021538 -11.0568,-7.097145 -6.722,7.674889 c -3.9372,-1.457688 -7.9668,-2.265686 -11.9685,-2.481552 l -2.7553,-9.733925 -13.0359,1.671493 -0.2237,10.430893 c -3.771,1.361038 -7.339,3.275131 -10.575,5.68058 l -8.5498,-5.800865 -8.9081,9.651673 6.6333,8.261881 c -0.9076,1.55018 -1.728,3.17026 -2.4403,4.87055 -0.8484,2.02511 -1.5144,4.07797 -2.0171,6.14524 l -10.372,1.06188 -0.6181,13.12111 10.3908,2.06006 c 0.651,3.94742 1.8784,7.76945 3.6299,11.34579 l -7.2286,7.44255 7.9617,10.44733 9.1519,-5.02476 c 2.9863,2.59669 6.3993,4.78833 10.1915,6.47523 l -0.7383,10.15436 12.8148,2.88658 3.6989,-9.51599 c 4.1549,0.0822 8.2629,-0.47289 12.1907,-1.61292 l 5.8194,8.05626 11.6737,-6.02497 -3.2137,-9.46355 c 3.2085,-2.58125 6.0488,-5.68265 8.3957,-9.23329 z m -51.9016,-4.91781 c -11.0631,-4.62798 -16.2824,-17.34917 -11.6533,-28.41226 4.6279,-11.06104 17.3481,-16.27905 28.4095,-11.64904 11.0647,4.62486 16.283,17.34607 11.6549,28.40816 -4.6268,11.06307 -17.348,16.28108 -28.4111,11.65314 z"
         style="fill:#f2f8fd;fill-opacity:1;fill-rule:nonzero;stroke:none"
         id="path1240" />
    </g>
  </g>
</svg>
