<?xml version="1.0" encoding="UTF-8" standalone="no"?>
<svg
   xmlns:dc="http://purl.org/dc/elements/1.1/"
   xmlns:cc="http://creativecommons.org/ns#"
   xmlns:rdf="http://www.w3.org/1999/02/22-rdf-syntax-ns#"
   xmlns:svg="http://www.w3.org/2000/svg"
   xmlns="http://www.w3.org/2000/svg"
   xmlns:sodipodi="http://sodipodi.sourceforge.net/DTD/sodipodi-0.dtd"
   xmlns:inkscape="http://www.inkscape.org/namespaces/inkscape"
   width="211.32477mm"
   height="183.80257mm"
   viewBox="0 0 211.32477 183.80257"
   version="1.1"
   id="svg4616"
   inkscape:version="1.0.1 (3bc2e813f5, 2020-09-07)"
   sodipodi:docname="gfx-overview-looking.svg">
  <defs
     id="defs4610">
    <linearGradient
       x1="296.84061"
       y1="299.4465"
       x2="295.28879"
       y2="298.20032"
       gradientUnits="userSpaceOnUse"
       gradientTransform="matrix(0.25,0,0,-0.25,410.52899,1616.0956)"
       spreadMethod="pad"
       id="linearGradient668">
      <stop
         style="stop-opacity:1;stop-color:#699ad7"
         offset="0"
         id="stop662" />
      <stop
         style="stop-opacity:1;stop-color:#7eb1dd"
         offset="0.24299999"
         id="stop664" />
      <stop
         style="stop-opacity:1;stop-color:#7ebae4"
         offset="1"
         id="stop666" />
    </linearGradient>
    <linearGradient
       x1="282.04312"
       y1="273.66611"
       x2="283.62854"
       y2="272.69705"
       gradientUnits="userSpaceOnUse"
       gradientTransform="matrix(0.25,0,0,-0.25,413.13684,1613.9596)"
       spreadMethod="pad"
       id="linearGradient680">
      <stop
         style="stop-opacity:1;stop-color:#699ad7"
         offset="0"
         id="stop674" />
      <stop
         style="stop-opacity:1;stop-color:#7eb1dd"
         offset="0.24299999"
         id="stop676" />
      <stop
         style="stop-opacity:1;stop-color:#7ebae4"
         offset="1"
         id="stop678" />
    </linearGradient>
    <linearGradient
       x1="287.98438"
       y1="304.75537"
       x2="287.61655"
       y2="306.47516"
       gradientUnits="userSpaceOnUse"
       gradientTransform="matrix(0.25,0,0,-0.25,413.39004,1617.8091)"
       spreadMethod="pad"
       id="linearGradient692">
      <stop
         style="stop-opacity:1;stop-color:#699ad7"
         offset="0"
         id="stop686" />
      <stop
         style="stop-opacity:1;stop-color:#7eb1dd"
         offset="0.24299999"
         id="stop688" />
      <stop
         style="stop-opacity:1;stop-color:#7ebae4"
         offset="1"
         id="stop690" />
    </linearGradient>
    <linearGradient
       x1="291.54303"
       y1="287.54858"
       x2="289.96597"
       y2="288.82162"
       gradientUnits="userSpaceOnUse"
       gradientTransform="matrix(0.25,0,0,-0.25,411.16812,1617.8085)"
       spreadMethod="pad"
       id="linearGradient708">
      <stop
         style="stop-opacity:1;stop-color:#415e9a"
         offset="0"
         id="stop702" />
      <stop
         style="stop-opacity:1;stop-color:#4a6baf"
         offset="0.27599999"
         id="stop704" />
      <stop
         style="stop-opacity:1;stop-color:#5277c3"
         offset="1"
         id="stop706" />
    </linearGradient>
    <linearGradient
       x1="279.87842"
       y1="300.30151"
       x2="281.51761"
       y2="301.43518"
       gradientUnits="userSpaceOnUse"
       gradientTransform="matrix(0.25,0,0,-0.25,414.37372,1616.7022)"
       spreadMethod="pad"
       id="linearGradient720">
      <stop
         style="stop-opacity:1;stop-color:#415e9a"
         offset="0"
         id="stop714" />
      <stop
         style="stop-opacity:1;stop-color:#4a6baf"
         offset="0.23199999"
         id="stop716" />
      <stop
         style="stop-opacity:1;stop-color:#5277c3"
         offset="1"
         id="stop718" />
    </linearGradient>
    <linearGradient
       x1="292.96857"
       y1="295.06482"
       x2="293.375"
       y2="293.23083"
       gradientUnits="userSpaceOnUse"
       gradientTransform="matrix(0.25,0,0,-0.25,411.9379,1614.9966)"
       spreadMethod="pad"
       id="linearGradient732">
      <stop
         style="stop-opacity:1;stop-color:#415e9a"
         offset="0"
         id="stop726" />
      <stop
         style="stop-opacity:1;stop-color:#4a6baf"
         offset="0.27599999"
         id="stop728" />
      <stop
         style="stop-opacity:1;stop-color:#5277c3"
         offset="1"
         id="stop730" />
    </linearGradient>
    <clipPath
       clipPathUnits="userSpaceOnUse"
       id="clipPath742">
      <path
         d="M 0,0 H 7680 V 26592 H 0 Z"
         id="path740" />
    </clipPath>
    <clipPath
       clipPathUnits="userSpaceOnUse"
       id="clipPath748">
      <path
         d="m 4567.7539,2401.8672 73.145,126.7002 -33.5893,0.3157 -19.5293,-34.0398 -19.6968,33.8515 h -16.7007 l -8.5522,-14.7793 28.0205,-48.1743 -19.8916,-34.6106 z"
         id="path746" />
    </clipPath>
    <clipPath
       clipPathUnits="userSpaceOnUse"
       id="clipPath756">
      <path
         d="M 0,0 H 99 V 128 H 0 Z"
         id="path754" />
    </clipPath>
    <linearGradient
       x1="162.77316"
       y1="108.98117"
       x2="163.1796"
       y2="107.1455"
       gradientUnits="userSpaceOnUse"
       gradientTransform="matrix(4,0,0,4,-4541.1694,-2400.1328)"
       spreadMethod="pad"
       id="linearGradient764">
      <stop
         style="stop-opacity:1;stop-color:#415e9a"
         offset="0"
         id="stop758" />
      <stop
         style="stop-opacity:1;stop-color:#4a6baf"
         offset="0.27599999"
         id="stop760" />
      <stop
         style="stop-opacity:1;stop-color:#5277c3"
         offset="1"
         id="stop762" />
    </linearGradient>
  </defs>
  <sodipodi:namedview
     id="base"
     pagecolor="#ffffff"
     bordercolor="#666666"
     borderopacity="1.0"
     inkscape:pageopacity="0.0"
     inkscape:pageshadow="2"
     inkscape:zoom="0.35"
     inkscape:cx="-726.36042"
     inkscape:cy="358.77201"
     inkscape:document-units="mm"
     inkscape:current-layer="layer1"
     inkscape:document-rotation="0"
     showgrid="false"
     inkscape:window-width="1917"
     inkscape:window-height="1025"
     inkscape:window-x="0"
     inkscape:window-y="764"
     inkscape:window-maximized="1" />
  <metadata
     id="metadata4613">
    <rdf:RDF>
      <cc:Work
         rdf:about="">
        <dc:format>image/svg+xml</dc:format>
        <dc:type
           rdf:resource="http://purl.org/dc/dcmitype/StillImage" />
        <dc:title></dc:title>
      </cc:Work>
    </rdf:RDF>
  </metadata>
  <g
     inkscape:label="Layer 1"
     inkscape:groupmode="layer"
     id="layer1"
     transform="translate(-298.01619,-53.241572)">
    <g
       id="g436"
       transform="matrix(0.35277777,0,0,0.35277777,300.4881,25.249724)">
      <path
         d="m 146.44083,206.88997 -13.8483,-87.34473 h 36.47926 l -15.32857,87.34473 z"
         style="fill:#e4f6f8;fill-opacity:1;fill-rule:nonzero;stroke:none"
         id="path438" />
    </g>
    <g
       id="g440"
       transform="matrix(0.35277777,0,0,0.35277777,303.95589,34.989442)">
      <path
         d="m 151.89491,187.60631 87.34474,-13.84828 v 36.47926 l -87.34474,-15.32858 z"
         style="fill:#e4f6f8;fill-opacity:1;fill-rule:nonzero;stroke:none"
         id="path442" />
    </g>
    <g
       id="g444"
       transform="matrix(0.35277777,0,0,0.35277777,290.78065,34.989442)">
      <path
         d="M 165.9041,187.60631 78.559372,173.75803 v 36.47926 L 165.9041,194.90871 Z"
         style="fill:#e4f6f8;fill-opacity:1;fill-rule:nonzero;stroke:none"
         id="path446" />
    </g>
    <g
       id="g448"
       transform="matrix(0.35277777,0,0,0.35277777,303.26289,27.225863)">
      <path
         d="m 148.0376,202.099 51.96982,-71.55426 25.79475,25.79475 -72.601,50.92308 z"
         style="fill:#e4f6f8;fill-opacity:1;fill-rule:nonzero;stroke:none"
         id="path450" />
    </g>
    <g
       id="g452"
       transform="matrix(0.35277777,0,0,0.35277777,292.61342,27.225863)">
      <path
         d="m 166.52554,202.099 -51.96981,-71.55426 -25.794736,25.79475 72.600976,50.92308 z"
         style="fill:#e4f6f8;fill-opacity:1;fill-rule:nonzero;stroke:none"
         id="path454" />
    </g>
    <g
       id="g456"
       transform="matrix(0.35277777,0,0,0.35277777,300.4881,38.581187)">
      <path
         d="m 146.44083,193.75015 -13.8483,87.34476 h 36.47926 l -15.32857,-87.34476 z"
         style="fill:#e4f6f8;fill-opacity:1;fill-rule:nonzero;stroke:none"
         id="path458" />
    </g>
    <g
       id="g460"
       transform="matrix(0.35277777,0,0,0.35277777,303.26289,37.870013)">
      <path
         d="m 148.0376,194.95537 51.96982,71.55421 25.79475,-25.79471 -72.601,-50.92308 z"
         style="fill:#e4f6f8;fill-opacity:1;fill-rule:nonzero;stroke:none"
         id="path462" />
    </g>
    <g
       id="g464"
       transform="matrix(0.35277777,0,0,0.35277777,292.61342,37.870013)">
      <path
         d="M 166.52554,194.95537 114.55573,266.50958 88.760994,240.71487 161.36197,189.79179 Z"
         style="fill:#e4f6f8;fill-opacity:1;fill-rule:nonzero;stroke:none"
         id="path466" />
    </g>
    <g
       id="g468"
       transform="matrix(0.35277777,0,0,0.35277777,315.50932,20.464663)">
      <path
         d="m 281.53461,97.597321 c 0,0 -52.48922,11.133839 -63.62308,68.393859 -11.13388,57.26152 33.40155,97.02615 97.02463,95.43536 0,0 89.07229,3.18003 116.11227,60.44156 27.04004,57.26001 95.43393,41.35538 112.93076,-15.90616 C 561.47607,248.70193 537.61768,158.03886 462.85925,124.6358 388.10229,91.234261 330.84232,88.052734 281.53461,97.597321 Z"
         style="fill:#f2f8fd;fill-opacity:1;fill-rule:nonzero;stroke:none"
         id="path470" />
    </g>
    <g
       id="g472"
       transform="matrix(0.35277777,0,0,0.35277777,283.87066,50.740151)">
      <path
         d="m 61.055885,306.0325 c 0,0 33.403046,-58.85074 124.064615,-41.35385 90.6631,17.49542 117.70308,95.4339 192.46001,93.84311 74.75692,-1.59076 167.0108,-31.81076 203.59387,14.3154 36.58307,46.12613 6.36303,138.37997 -104.97849,132.01843 C 364.8559,498.49252 363.26511,455.54788 301.23282,471.45255 239.2005,487.35864 201.02664,520.76025 108.7728,490.54019 16.520475,460.31873 35.606647,344.20639 61.055885,306.0325 Z"
         style="fill:#f2f8fd;fill-opacity:1;fill-rule:nonzero;stroke:none"
         id="path474" />
    </g>
    <g
       id="g476"
       transform="matrix(0.35277777,0,0,0.35277777,317.12889,80.847025)">
      <path
         d="m 225.21802,435.88574 c 0,3.7973 36.67062,6.87775 81.90628,6.87775 45.23572,0 81.90637,-3.08045 81.90637,-6.87775 0,-3.79883 -36.67065,-6.87774 -81.90637,-6.87774 -45.23566,0 -81.90628,3.07891 -81.90628,6.87774 z"
         style="fill:#5277c3;fill-opacity:1;fill-rule:nonzero;stroke:none"
         id="path478" />
    </g>
    <g
       id="g480"
       transform="matrix(0.35277777,0,0,0.35277777,323.05936,37.725455)">
      <path
         d="m 292.02798,197.43739 h -29.5755 c -2.3334,0 -4.22445,-1.89259 -4.22445,-4.22593 0,-2.33332 1.89105,-4.22443 4.22445,-4.22443 h 29.5755 z"
         style="fill:#2b6398;fill-opacity:1;fill-rule:nonzero;stroke:none"
         id="path482" />
    </g>
    <g
       id="g484"
       transform="matrix(0.35277777,0,0,0.35277777,404.1967,105.81623)">
      <path
         d="M 0,7.9773836 V 3.9519999 C 0,3.427932 0.10027599,2.9238102 0.30082801,2.4396346 0.50138003,1.9554591 0.78694195,1.5280857 1.1575139,1.1575139 1.5280857,0.78694195 1.9554591,0.50138003 2.4396346,0.30082801 2.9238102,0.10027599 3.427932,0 3.9519999,0 H 47.717232 V 11.929383 H 3.9519999 C 3.427932,11.929382 2.9238102,11.829105 2.4396346,11.628553 1.9554591,11.428002 1.5280857,11.142441 1.1575139,10.771869 0.78694195,10.401297 0.50138003,9.9739227 0.30082801,9.489747 0.10027599,9.0055723 0,8.5014515 0,7.9773836 Z"
         style="fill:#2b4177;fill-opacity:1;fill-rule:nonzero;stroke:none"
         id="path486" />
    </g>
    <g
       id="g488"
       transform="matrix(0.35277777,0,0,0.35277777,417.47656,105.81623)">
      <path
         d="M 0,7.9773836 V 3.9519999 C 0,3.427932 0.10027599,2.9238102 0.30082801,2.4396346 0.50138003,1.9554591 0.78694195,1.5280857 1.1575139,1.1575139 1.5280857,0.78694195 1.9554591,0.50138003 2.4396346,0.30082801 2.9238102,0.10027599 3.427932,0 3.9519999,0 H 47.717232 V 11.929383 H 3.9519999 C 3.427932,11.929382 2.9238102,11.829105 2.4396346,11.628553 1.9554591,11.428002 1.5280857,11.142441 1.1575139,10.771869 0.78694195,10.401297 0.50138003,9.9739227 0.30082801,9.489747 0.10027599,9.0055723 0,8.5014515 0,7.9773836 Z"
         style="fill:#9be0ef;fill-opacity:1;fill-rule:nonzero;stroke:none"
         id="path490" />
    </g>
    <g
       id="g492"
       transform="matrix(0.35277777,0,0,0.35277777,324.47941,38.441399)">
      <path
         d="m 273.88666,196.8493 c 0,2.14167 -1.73572,3.87731 -3.87735,3.87731 -2.14163,0 -3.87729,-1.73564 -3.87729,-3.87731 0,-2.14166 1.73566,-3.8773 3.87729,-3.8773 2.14163,0 3.87735,1.73564 3.87735,3.8773 z"
         style="fill:#4295ef;fill-opacity:1;fill-rule:nonzero;stroke:none"
         id="path494" />
    </g>
    <g
       id="g496"
       transform="matrix(0.35277777,0,0,0.35277777,320.36247,37.873331)">
      <path
         d="m 247.0508,211.81358 1.8564,-6.36305 -4.75418,-4.7527 c -0.96291,-0.96289 -1.21045,-2.4299 -0.61579,-3.65541 l 3.24945,-6.70114 13.78409,-0.53128 3.44714,3.44716 -4.50659,1.05952 -1.85644,7.68819 c 0,0 1.061,2.38614 1.061,3.18153 0,0.79538 -2.12051,9.27745 -2.12051,9.27745 z"
         style="fill:#ff8d68;fill-opacity:1;fill-rule:nonzero;stroke:none"
         id="path498" />
    </g>
    <g
       id="g500"
       transform="matrix(0.35277777,0,0,0.35277777,320.3772,38.946296)">
      <path
         d="m 243.29828,195.78238 12.19444,2.91601 5.03688,-1.5906 1.85562,4.24164 -3.71142,0.79525 -8.21796,0.53019 z"
         style="fill:#ff7759;fill-opacity:1;fill-rule:nonzero;stroke:none"
         id="path502" />
    </g>
    <g
       id="g504"
       transform="matrix(0.35277777,0,0,0.35277777,321.9234,37.873392)">
      <path
         d="m 259.5928,193.25662 -3.44625,-3.44627 -4.24164,2.386"
         style="fill:none;stroke:#e66657;stroke-width:1;stroke-linecap:butt;stroke-linejoin:miter;stroke-miterlimit:10;stroke-dasharray:none;stroke-opacity:1"
         id="path506" />
    </g>
    <g
       id="g508"
       transform="matrix(0.35277777,0,0,0.35277777,321.26073,37.873392)">
      <path
         d="m 258.02496,189.81035 -8.48311,0.5302 -1.32545,1.06044"
         style="fill:none;stroke:#e66657;stroke-width:1;stroke-linecap:butt;stroke-linejoin:miter;stroke-miterlimit:10;stroke-dasharray:none;stroke-opacity:1"
         id="path510" />
    </g>
    <g
       id="g512"
       transform="matrix(0.35277777,0,0,0.35277777,321.82873,38.781434)">
      <path
         d="m 251.37801,199.16513 5.03642,-1.58929 c 0,0 2.91592,-3.18152 4.77234,-2.65177 1.85483,0.52977 2.12048,1.8564 2.12048,1.8564 l -5.03644,5.03641 -6.62718,2.12054 z"
         style="fill:#ff8d68;fill-opacity:1;fill-rule:nonzero;stroke:none"
         id="path514" />
    </g>
    <g
       id="g516"
       transform="matrix(0.35277777,0,0,0.35277777,320.3772,37.936503)">
      <path
         d="m 257.87857,192.01744 -11.13402,-1.85579 -3.44627,8.48314 5.56709,6.62734"
         style="fill:none;stroke:#e66657;stroke-width:1;stroke-linecap:butt;stroke-linejoin:miter;stroke-miterlimit:10;stroke-dasharray:none;stroke-opacity:1"
         id="path518" />
    </g>
    <g
       id="g520"
       transform="matrix(0.35277777,0,0,0.35277777,322.0181,38.785032)">
      <path
         d="m 262.77048,196.77026 c 0,0 -1.9877,-2.38617 -3.77768,-1.78999 -1.79001,0.59615 -3.11511,2.58536 -3.11511,2.58536 l -3.44565,0.59617"
         style="fill:none;stroke:#e66657;stroke-width:1;stroke-linecap:butt;stroke-linejoin:miter;stroke-miterlimit:10;stroke-dasharray:none;stroke-opacity:1"
         id="path522" />
    </g>
    <g
       id="g524"
       transform="matrix(0.35277777,0,0,0.35277777,320.40871,40.207856)">
      <path
         d="m 243.474,210.23239 3.18155,-7.42255 c 0,0 6.09591,-0.26412 11.13385,2.9159 l -2.38614,7.42258 z"
         style="fill:#dee0e8;fill-opacity:1;fill-rule:nonzero;stroke:none"
         id="path526" />
    </g>
    <g
       id="g528"
       transform="matrix(0.35277777,0,0,0.35277777,326.10517,78.671073)">
      <path
         d="m 311.6055,419.7951 c 0,0 -1.73868,-3.72335 -8.19232,-2.73028 -6.45362,0.99307 -7.19916,2.23376 -7.94327,5.46054 -0.74402,3.22684 -2.97928,6.70267 -4.4689,7.44672 -1.48816,0.7456 -6.95017,4.46893 -11.41761,5.21301 -4.46893,0.74557 -4.96545,3.4758 -3.97235,4.71649 0.99308,1.2421 17.87271,2.23517 21.59604,1.73862 0,0 12.65973,-0.249 15.63901,-1.24213 2.97928,-0.99307 -0.9931,-19.36236 -1.2406,-20.60297 z"
         style="fill:#16142a;fill-opacity:1;fill-rule:nonzero;stroke:none"
         id="path530" />
    </g>
    <g
       id="g532"
       transform="matrix(0.35277777,0,0,0.35277777,322.25529,78.671073)">
      <path
         d="m 290.17648,419.7951 c 0,0 -1.73715,-3.72335 -8.19226,-2.73028 -6.45364,0.99307 -7.19769,2.23376 -7.9433,5.46054 -0.74404,3.22684 -2.97921,6.70267 -4.46743,7.44672 -1.4896,0.7456 -6.95163,4.46893 -11.41904,5.21301 -4.46896,0.74557 -4.9655,3.4758 -3.9724,4.71649 0.99312,1.2421 17.87273,2.23517 21.59609,1.73862 0,0 12.66119,-0.249 15.639,-1.24213 2.97931,-0.99307 -0.99313,-19.36236 -1.24066,-20.60297 z"
         style="fill:#16142a;fill-opacity:1;fill-rule:nonzero;stroke:none"
         id="path534" />
    </g>
    <g
       id="g536"
       transform="matrix(0.35277777,0,0,0.35277777,328.04038,66.249558)">
      <path
         d="m 312.09512,362.57983 c 0,0 1.88806,-10.28118 -8.96808,-13.73132 -10.8576,-3.45013 -12.91171,1.56659 -16.19738,10.9422 -3.2872,9.37701 2.77551,97.91962 2.77551,97.91962 0,0 13.23022,0.30182 16.43591,-1.59076 0,0 8.84275,-58.75421 8.18024,-73.0636 -0.6626,-14.30927 -2.2262,-20.47614 -2.2262,-20.47614 z"
         style="fill:#2b233b;fill-opacity:1;fill-rule:nonzero;stroke:none"
         id="path538" />
    </g>
    <g
       id="g540"
       transform="matrix(0.35277777,0,0,0.35277777,324.93547,36.344868)">
      <path
         d="m 282.29678,183.90981 c 0,0 -7.34408,1.88053 -11.50515,13.15777 -4.15949,11.27722 -1.38547,35.24135 1.38705,38.06064 2.77402,2.81931 11.19876,1.7417 22.88348,-2.11446 12.34427,-4.07502 16.51438,-16.90832 18.72092,-25.37376 4.22592,-16.21106 -9.8706,-32.89294 -31.4863,-23.73019 z"
         style="fill:#ff8d68;fill-opacity:1;fill-rule:nonzero;stroke:none"
         id="path542" />
    </g>
    <g
       id="g544"
       transform="matrix(0.35277777,0,0,0.35277777,326.38375,41.43366)">
      <path
         d="m 304.53421,231.733 -5.95859,-21.34857 c 0,0 -11.91412,-3.47583 -19.36239,4.46893 l -2.48124,3.47434 v 13.90185 c 0,0 12.41071,2.48273 27.80222,-0.49655 z"
         style="fill:#ff8d68;fill-opacity:1;fill-rule:nonzero;stroke:none"
         id="path546" />
    </g>
    <g
       id="g548"
       transform="matrix(0.35277777,0,0,0.35277777,327.33611,56.981169)">
      <path
         d="m 318.46518,302.59338 c 0,0 4.4689,26.0651 0,55.85346 -4.46741,29.78683 -13.40381,32.76611 -21.59607,32.76611 -8.19232,0 -10.42606,-23.8298 -11.91568,-34.25577 -1.48813,-10.42605 -7.44669,-46.17147 3.72336,-54.3638 11.1716,-8.19223 23.83133,-8.93631 29.78839,0 z"
         style="fill:#2b233b;fill-opacity:1;fill-rule:nonzero;stroke:none"
         id="path550" />
    </g>
    <g
       id="g552"
       transform="matrix(0.35277777,0,0,0.35277777,323.07423,57.054089)">
      <path
         d="m 299.26965,337.38803 c 0,0 8.93637,-23.8313 -6.70263,-34.25726 -15.63904,-10.4245 -27.55463,-8.93634 -31.27805,8.19232 -3.72333,17.12866 -4.46741,75.95975 0.74561,87.87546 5.21301,11.91412 23.82977,-6.70267 37.23507,-61.81052 z"
         style="fill:#2b233b;fill-opacity:1;fill-rule:nonzero;stroke:none"
         id="path554" />
    </g>
    <g
       id="g556"
       transform="matrix(0.35277777,0,0,0.35277777,325.67252,43.21144)">
      <path
         d="m 309.70166,226.58046 c 0,0 -1.66318,-5.84538 -3.15131,-6.34044 -1.48968,-0.49654 -19.85897,-2.48273 -29.78842,3.47432 -4.46896,3.47585 -3.97238,5.95857 -3.97238,5.95857 0,0 29.63898,-5.68838 36.91211,-3.09245 z"
         style="fill:#dee0e8;fill-opacity:1;fill-rule:nonzero;stroke:none"
         id="path558" />
    </g>
    <g
       id="g560"
       transform="matrix(0.35277777,0,0,0.35277777,318.27681,40.709725)">
      <path
         d="m 272.97885,277.60211 c 0,0 -5.33377,67.10047 -3.84415,92.91641 1.98472,4.96552 43.41712,6.32834 50.36725,5.83185 6.95169,-0.49658 29.72498,-5.40323 30.22153,-6.89132 0.49652,-1.48966 -4.33612,-67.65738 -3.34299,-74.60904 0.99155,-6.9502 3.97086,-41.20595 2.97776,-46.17145 -0.99314,-4.96398 -5.46054,-14.39687 -14.89347,-16.38306 0,0 -30.78143,-1.98619 -52.62655,7.4467 0,0 -16.41477,2.86763 -26.75476,6.44609 0,0 5.56768,-28.23234 8.3508,-36.58307 0,0 -7.55539,-5.5662 -15.11078,-3.57849 0,0 -13.89884,31.62213 -16.68644,59.45902 -0.31997,3.20718 1.98014,6.08838 5.16773,6.56378 11.896,1.7764 36.17407,5.55258 36.17407,5.55258 z"
         style="fill:#2b233b;fill-opacity:1;fill-rule:nonzero;stroke:none"
         id="path562" />
    </g>
    <g
       id="g564"
       transform="matrix(0.35277777,0,0,0.35277777,323.22124,66.638283)">
      <path
         d="m 284.70361,363.09433 c 0,0 0.74405,-10.426 -10.42602,-12.66119 -11.17154,-2.23371 -12.6597,2.97931 -14.89496,12.66119 -2.2337,9.68042 11.0116,94.11029 11.0116,94.11029 0,0 14.61728,0.84219 17.59658,-1.39157 0,0 3.41394,-58.46289 1.18021,-72.61224 -2.2337,-14.14936 -4.46741,-20.10648 -4.46741,-20.10648 z"
         style="fill:#2b233b;fill-opacity:1;fill-rule:nonzero;stroke:none"
         id="path566" />
    </g>
    <g
       id="g568"
       transform="matrix(0.35277777,0,0,0.35277777,326.1326,61.247644)">
      <path
         d="m 293.57803,319.91504 c 0,0 -10.42599,33.51169 -18.24398,49.8948"
         style="fill:none;stroke:#2a2e59;stroke-width:1;stroke-linecap:butt;stroke-linejoin:miter;stroke-miterlimit:10;stroke-dasharray:none;stroke-opacity:1"
         id="path570" />
    </g>
    <g
       id="g572"
       transform="matrix(0.35277777,0,0,0.35277777,324.27102,67.787827)">
      <path
         d="m 277.63171,357.97339 c 0,0 -6.32983,-3.72333 -12.65969,0"
         style="fill:none;stroke:#2a2e59;stroke-width:1;stroke-linecap:butt;stroke-linejoin:miter;stroke-miterlimit:10;stroke-dasharray:none;stroke-opacity:1"
         id="path574" />
    </g>
    <g
       id="g576"
       transform="matrix(0.35277777,0,0,0.35277777,324.2266,68.388994)">
      <path
         d="m 278.87439,360.36542 c 0,0 -5.21301,-2.97931 -14.14938,3.35052"
         style="fill:none;stroke:#2a2e59;stroke-width:1;stroke-linecap:butt;stroke-linejoin:miter;stroke-miterlimit:10;stroke-dasharray:none;stroke-opacity:1"
         id="path578" />
    </g>
    <g
       id="g580"
       transform="matrix(0.35277777,0,0,0.35277777,328.96923,67.268431)">
      <path
         d="m 304.52835,354.97821 c 0,0 -4.09619,-3.72482 -13.40536,0.37131"
         style="fill:none;stroke:#2a2e59;stroke-width:1;stroke-linecap:butt;stroke-linejoin:miter;stroke-miterlimit:10;stroke-dasharray:none;stroke-opacity:1"
         id="path582" />
    </g>
    <g
       id="g584"
       transform="matrix(0.35277777,0,0,0.35277777,328.83627,67.7804)">
      <path
         d="m 301.92587,357.25034 c 0,0 -5.95706,-2.97925 -11.54287,1.48815"
         style="fill:none;stroke:#2a2e59;stroke-width:1;stroke-linecap:butt;stroke-linejoin:miter;stroke-miterlimit:10;stroke-dasharray:none;stroke-opacity:1"
         id="path586" />
    </g>
    <g
       id="g588"
       transform="matrix(0.35277777,0,0,0.35277777,430.48872,195.91189)">
      <path
         d="M 0,0 2.2341652,75.959656"
         style="fill:none;stroke:#2a2e59;stroke-width:1;stroke-linecap:butt;stroke-linejoin:miter;stroke-miterlimit:10;stroke-dasharray:none;stroke-opacity:1"
         id="path590" />
    </g>
    <g
       id="g592"
       transform="matrix(0.35277777,0,0,0.35277777,323.48786,60.671488)">
      <path
         d="m 272.52863,319.68735 c 0,0 -8.43982,4.96396 -11.91559,-2.97931"
         style="fill:none;stroke:#2a2e59;stroke-width:1;stroke-linecap:butt;stroke-linejoin:miter;stroke-miterlimit:10;stroke-dasharray:none;stroke-opacity:1"
         id="path594" />
    </g>
    <g
       id="g596"
       transform="matrix(0.35277777,0,0,0.35277777,323.52802,61.144158)">
      <path
         d="m 263.97507,319.33902 c 0,0 -3.97238,30.78149 -2.97931,51.13693"
         style="fill:none;stroke:#2a2e59;stroke-width:1;stroke-linecap:butt;stroke-linejoin:miter;stroke-miterlimit:10;stroke-dasharray:none;stroke-opacity:1"
         id="path598" />
    </g>
    <g
       id="g600"
       transform="matrix(0.35277777,0,0,0.35277777,324.31518,45.114051)">
      <path
         d="m 265.21802,230.11302 c 0,0 15.63897,8.19077 5.21301,27.18035"
         style="fill:none;stroke:#524b81;stroke-width:1;stroke-linecap:butt;stroke-linejoin:miter;stroke-miterlimit:10;stroke-dasharray:none;stroke-opacity:1"
         id="path602" />
    </g>
    <g
       id="g604"
       transform="matrix(0.35277777,0,0,0.35277777,325.60063,42.166415)">
      <path
         d="m 283.73029,213.70601 c 0,0 -2.60657,6.70267 -11.3573,5.58581"
         style="fill:none;stroke:#e66657;stroke-width:1;stroke-linecap:butt;stroke-linejoin:miter;stroke-miterlimit:10;stroke-dasharray:none;stroke-opacity:1"
         id="path606" />
    </g>
    <g
       id="g608"
       transform="matrix(0.35277777,0,0,0.35277777,325.07782,36.252308)">
      <path
         d="m 273.97876,189.10292 c 0,0 -4.24106,5.83334 -4.50668,9.27901 -0.26407,3.44562 5.30206,6.89277 6.09744,9.0133 0.79538,2.12052 -0.52976,6.6272 0.26562,7.95232 0.79541,1.32663 1.06104,2.91742 1.06104,2.91742 l 0.2641,4.50514 2.91592,0.53127 c 0,0 2.9159,-8.21794 5.03791,-8.74923 2.12054,-0.52972 4.24105,3.18154 5.03643,5.03794 0.79538,1.85487 3.18155,6.8928 3.18155,6.8928 0,0 9.27741,2.38465 11.13382,1.85491 1.85492,-0.52976 10.33847,-17.23128 10.6041,-25.71486 0.2641,-8.4821 -5.56766,-16.96565 -11.6651,-19.61592 -6.09748,-2.65176 -18.02668,-5.03793 -29.42615,6.0959 z"
         style="fill:#7e3636;fill-opacity:1;fill-rule:nonzero;stroke:none"
         id="path610" />
    </g>
    <g
       id="g612"
       transform="matrix(0.35277777,0,0,0.35277777,325.99968,40.234129)">
      <path
         d="m 275.52219,205.97427 c 0,0 1.05648,-4.58059 4.93377,-2.46611 3.87577,2.11446 -0.70483,13.03853 -3.87729,12.33371 -3.17092,-0.70483 -1.76132,-8.10476 -1.05648,-9.8676 z"
         style="fill:#ff7759;fill-opacity:1;fill-rule:nonzero;stroke:none"
         id="path614" />
    </g>
    <g
       id="g616"
       transform="matrix(0.35277777,0,0,0.35277777,325.77319,35.391592)">
      <path
         d="m 273.33432,190.21761 c 0,0 -0.26566,-7.15691 8.21793,-12.45897 8.48211,-5.30207 22.26773,2.65027 24.12262,6.8928 1.85641,4.24105 7.68817,9.8087 8.74917,15.37488 1.05951,5.56769 -2.65173,19.35182 -6.62716,23.0631 -1.3266,1.06099 -1.3266,-1.85488 -1.3266,-1.85488 0,0 -2.6503,2.91587 -4.24109,3.71126 -1.59076,0.79538 -4.241,-4.77231 -4.241,-4.77231 0,0 -1.32663,2.12055 -3.18152,3.18155 -1.85641,1.06102 -2.6503,-6.36307 -2.6503,-6.36307 0,0 -1.59076,-7.9523 -4.77225,-11.66359 -3.18157,-3.71128 -12.45901,-11.39949 -14.0498,-15.11077 z"
         style="fill:#713336;fill-opacity:1;fill-rule:nonzero;stroke:none"
         id="path618" />
    </g>
    <g
       id="g620"
       transform="matrix(0.35277777,0,0,0.35277777,329.75964,46.01486)">
      <path
         d="m 303.65369,235.12701 c 0,2.38614 -9.54303,50.10309 -7.95234,56.46616 1.59076,6.36154 8.74775,51.69232 8.74775,51.69232"
         style="fill:none;stroke:#524b81;stroke-width:1;stroke-linecap:butt;stroke-linejoin:miter;stroke-miterlimit:10;stroke-dasharray:none;stroke-opacity:1"
         id="path622" />
    </g>
    <g
       id="g624"
       transform="matrix(0.35277777,0,0,0.35277777,320.21935,45.872929)">
      <path
         d="m 242.42001,245.07242 c 6.36306,-5.16924 6.36306,-10.7354 6.36306,-10.7354 0,0 2.38464,4.37384 1.19232,8.34926"
         style="fill:none;stroke:#524b81;stroke-width:1;stroke-linecap:butt;stroke-linejoin:miter;stroke-miterlimit:10;stroke-dasharray:none;stroke-opacity:1"
         id="path626" />
    </g>
    <g
       id="g628"
       transform="matrix(0.35277777,0,0,0.35277777,336.53964,29.731959)">
      <path
         d="m 343.86511,149.79605 c 0,2.92798 -2.37408,5.30206 -5.30203,5.30206 -2.92792,0 -5.30206,-2.37408 -5.30206,-5.30206 0,-2.92796 2.37414,-5.30205 5.30206,-5.30205 2.92795,0 5.30203,2.37409 5.30203,5.30205 z"
         style="fill:#7ebae4;fill-opacity:1;fill-rule:nonzero;stroke:none"
         id="path630" />
    </g>
    <g
       id="g632"
       transform="matrix(0.35277777,0,0,0.35277777,348.53085,54.219438)">
      <path
         d="m 410.61011,286.09708 c 0,2.92794 -2.37403,5.30203 -5.30204,5.30203 -2.92797,0 -5.30203,-2.37409 -5.30203,-5.30203 0,-2.92798 2.37406,-5.30204 5.30203,-5.30204 2.92801,0 5.30204,2.37406 5.30204,5.30204 z"
         style="fill:#7ebae4;fill-opacity:1;fill-rule:nonzero;stroke:none"
         id="path634" />
    </g>
    <g
       id="g636"
       transform="matrix(0.35277777,0,0,0.35277777,304.25773,71.196533)">
      <path
         d="m 164.17911,380.59402 c 0,2.92801 -2.37407,5.3021 -5.30207,5.3021 -2.92796,0 -5.30206,-2.37409 -5.30206,-5.3021 0,-2.92794 2.3741,-5.30203 5.30206,-5.30203 2.928,0 5.30207,2.37409 5.30207,5.30203 z"
         style="fill:#7ebae4;fill-opacity:1;fill-rule:nonzero;stroke:none"
         id="path638" />
    </g>
    <g
       id="g640"
       transform="matrix(0.35277777,0,0,0.35277777,305.93032,74.06817)">
      <path
         d="m 166.5963,393.13245 c 0,1.02478 -0.83159,1.85479 -1.8564,1.85479 -1.0248,0 -1.85489,-0.83001 -1.85489,-1.85479 0,-1.02485 0.83009,-1.85645 1.85489,-1.85645 1.02481,0 1.8564,0.8316 1.8564,1.85645 z"
         style="fill:#5277c3;fill-opacity:1;fill-rule:nonzero;stroke:none"
         id="path642" />
    </g>
    <g
       id="g644"
       transform="matrix(0.35277777,0,0,0.35277777,335.43509,32.792775)">
      <path
         d="m 336.12631,179.55768 c -4.97754,0 -9.01327,-4.03427 -9.01327,-9.01332 0,-4.97756 4.03573,-9.01332 9.01327,-9.01332 4.97913,0 9.01337,4.03576 9.01337,9.01332 0,4.97905 -4.03424,9.01332 -9.01337,9.01332 z"
         style="fill:#5277c3;fill-opacity:1;fill-rule:nonzero;stroke:none"
         id="path646" />
    </g>
    <g
       id="g648"
       transform="matrix(0.35277777,0,0,0.35277777,394.62799,63.872522)">
      <path
         d="m 1.5808099,0 c -1e-7,0.2096284 -0.040111,0.41127831 -0.1203322,0.60494977 C 1.3802565,0.79862112 1.2660311,0.96957165 1.1178014,1.1178014 0.96957165,1.2660311 0.79862112,1.3802565 0.60494977,1.4604778 0.41127831,1.5406991 0.2096284,1.5808098 0,1.5808099 -0.2096284,1.5808098 -0.41127831,1.5406991 -0.60494977,1.4604777 -0.79862112,1.3802565 -0.96957165,1.2660311 -1.1178014,1.1178014 -1.2660311,0.96957165 -1.3802565,0.79862112 -1.4604778,0.60494977 -1.5406991,0.41127831 -1.5808098,0.2096284 -1.5808099,0 c 1e-7,-0.2096284 0.040111,-0.41127831 0.1203322,-0.60494977 0.080221,-0.19367135 0.1944466,-0.36462188 0.3426763,-0.51285163 0.14822975,-0.1482297 0.31918028,-0.2624551 0.51285163,-0.3426764 C -0.41127831,-1.5406991 -0.2096284,-1.5808098 0,-1.5808099 c 0.2096284,1e-7 0.41127831,0.040111 0.60494977,0.1203322 0.19367135,0.080221 0.36462188,0.1944466 0.51285163,0.3426763 0.1482297,0.14822975 0.2624551,0.31918028 0.3426764,0.51285163 C 1.5406991,-0.41127831 1.5808098,-0.2096284 1.5808099,0 Z m 6.32325,0 c -5e-7,0.2096284 -0.040111,0.41127831 -0.1203327,0.60494977 C 7.7035055,0.79862112 7.5892801,0.96957165 7.441051,1.1178014 7.2928209,1.2660311 7.12187,1.3802565 6.9281983,1.4604778 6.7345276,1.5406991 6.5328779,1.5808098 6.3232498,1.5808099 6.1136208,1.5808098 5.9119706,1.5406991 5.7182994,1.4604777 5.5246277,1.3802565 5.3536773,1.2660311 5.2054482,1.1178014 5.0572181,0.96957165 4.9429927,0.79862112 4.862771,0.60494977 4.7825499,0.41127831 4.7424393,0.2096284 4.7424397,0 c -4e-7,-0.2096284 0.04011,-0.41127831 0.1203313,-0.60494977 0.080222,-0.19367135 0.1944471,-0.36462188 0.3426772,-0.51285163 0.1482291,-0.1482297 0.3191795,-0.2624551 0.5128512,-0.3426764 0.1936712,-0.080221 0.3953214,-0.120332 0.6049504,-0.1203321 0.2096281,1e-7 0.4112778,0.040111 0.604949,0.1203322 0.1936712,0.080221 0.3646221,0.1944466 0.5128522,0.3426763 0.1482291,0.14822975 0.2624545,0.31918028 0.3426762,0.51285163 C 7.8639488,-0.41127831 7.9040594,-0.2096284 7.9040599,0 Z m 6.3232491,0 c -10e-7,0.2096284 -0.04011,0.41127831 -0.120332,0.60494977 -0.08022,0.19367135 -0.194448,0.36462188 -0.342677,0.51285163 -0.14823,0.1482297 -0.31918,0.2624551 -0.512851,0.3426764 -0.193672,0.080221 -0.395321,0.120332 -0.604949,0.1203321 -0.209629,-1e-7 -0.41128,-0.040111 -0.604951,-0.1203322 C 11.847877,1.3802565 11.676927,1.2660311 11.528698,1.1178014 11.380467,0.96957165 11.266242,0.79862112 11.18602,0.60494977 11.1058,0.41127831 11.065689,0.2096284 11.06569,0 c -10e-7,-0.2096284 0.04011,-0.41127831 0.12033,-0.60494977 0.08022,-0.19367135 0.194447,-0.36462188 0.342678,-0.51285163 0.148229,-0.1482297 0.319179,-0.2624551 0.512852,-0.3426764 0.193671,-0.080221 0.395321,-0.120332 0.60495,-0.1203321 0.209628,1e-7 0.411277,0.040111 0.604949,0.1203322 0.193671,0.080221 0.364621,0.1944466 0.512851,0.3426763 0.148229,0.14822975 0.262454,0.31918028 0.342677,0.51285163 C 14.187197,-0.41127831 14.227308,-0.2096284 14.227309,0 Z m 6.323251,0 c -2e-6,0.2096284 -0.04011,0.41127831 -0.120333,0.60494977 -0.08022,0.19367135 -0.194448,0.36462188 -0.342676,0.51285163 -0.148229,0.1482297 -0.319181,0.2624551 -0.512854,0.3426764 -0.19367,0.080221 -0.39532,0.120332 -0.604948,0.1203321 -0.209629,-1e-7 -0.411279,-0.040111 -0.604951,-0.1203322 C 18.171125,1.3802565 18.000175,1.2660311 17.851948,1.1178014 17.703718,0.96957165 17.589491,0.79862112 17.50927,0.60494977 17.429049,0.41127831 17.388937,0.2096284 17.388939,0 c -2e-6,-0.2096284 0.04011,-0.41127831 0.120331,-0.60494977 0.08022,-0.19367135 0.194448,-0.36462188 0.342678,-0.51285163 0.148227,-0.1482297 0.319177,-0.2624551 0.51285,-0.3426764 0.193672,-0.080221 0.395322,-0.120332 0.604951,-0.1203321 0.209628,1e-7 0.411278,0.040111 0.604948,0.1203322 0.193673,0.080221 0.364625,0.1944466 0.512854,0.3426763 0.148228,0.14822975 0.262453,0.31918028 0.342676,0.51285163 C 20.510448,-0.41127831 20.550558,-0.2096284 20.55056,0 Z m 6.32325,0 c -2e-6,0.2096284 -0.04011,0.41127831 -0.120335,0.60494977 -0.08022,0.19367135 -0.194444,0.36462188 -0.342674,0.51285163 -0.14823,0.1482297 -0.319182,0.2624551 -0.512854,0.3426764 -0.193672,0.080221 -0.395321,0.120332 -0.604948,0.1203321 -0.209631,-1e-7 -0.411281,-0.040111 -0.604952,-0.1203322 C 24.494377,1.3802565 24.323427,1.2660311 24.175198,1.1178014 24.026968,0.96957165 23.912741,0.79862112 23.83252,0.60494977 23.752298,0.41127831 23.712187,0.2096284 23.712189,0 c -2e-6,-0.2096284 0.04011,-0.41127831 0.120331,-0.60494977 0.08022,-0.19367135 0.194448,-0.36462188 0.342678,-0.51285163 0.148229,-0.1482297 0.319179,-0.2624551 0.512849,-0.3426764 0.193671,-0.080221 0.395321,-0.120332 0.604952,-0.1203321 0.209627,1e-7 0.411276,0.040111 0.604946,0.1203322 0.193674,0.080221 0.364626,0.1944466 0.512856,0.3426763 0.14823,0.14822975 0.262453,0.31918028 0.342674,0.51285163 C 26.833696,-0.41127831 26.873808,-0.2096284 26.87381,0 Z m 6.32325,0 c -4e-6,0.2096284 -0.04012,0.41127831 -0.120339,0.60494977 -0.08022,0.19367135 -0.194446,0.36462188 -0.342674,0.51285163 -0.148228,0.1482297 -0.31918,0.2624551 -0.512852,0.3426764 -0.193672,0.080221 -0.395319,0.120332 -0.604946,0.1203321 -0.209631,-1e-7 -0.411283,-0.040111 -0.604954,-0.1203322 C 30.817623,1.3802565 30.646673,1.2660311 30.498446,1.1178014 30.350216,0.96957165 30.235989,0.79862112 30.155767,0.60494977 30.075546,0.41127831 30.035437,0.2096284 30.035439,0 c -2e-6,-0.2096284 0.04011,-0.41127831 0.120328,-0.60494977 0.08022,-0.19367135 0.194449,-0.36462188 0.342679,-0.51285163 0.148227,-0.1482297 0.319177,-0.2624551 0.512849,-0.3426764 0.193671,-0.080221 0.395323,-0.120332 0.604954,-0.1203321 0.209627,1e-7 0.411274,0.040111 0.604946,0.1203322 0.193672,0.080221 0.364624,0.1944466 0.512852,0.3426763 0.148228,0.14822975 0.262455,0.31918028 0.342674,0.51285163 C 33.156944,-0.41127831 33.197056,-0.2096284 33.19706,0 Z m 6.323249,0 c -3e-6,0.2096284 -0.04012,0.41127831 -0.120338,0.60494977 -0.08022,0.19367135 -0.194447,0.36462188 -0.342674,0.51285163 -0.148228,0.1482297 -0.31918,0.2624551 -0.512852,0.3426764 -0.193668,0.080221 -0.395317,0.120332 -0.604946,0.1203321 -0.209629,-1e-7 -0.411282,-0.040111 -0.604954,-0.1203322 C 37.140869,1.3802565 36.969921,1.2660311 36.821693,1.1178014 36.673458,0.96957165 36.559235,0.79862112 36.479015,0.60494977 36.398796,0.41127831 36.358685,0.2096284 36.358688,0 c -3e-6,-0.2096284 0.04011,-0.41127831 0.120327,-0.60494977 0.08022,-0.19367135 0.194443,-0.36462188 0.342678,-0.51285163 0.148228,-0.1482297 0.319176,-0.2624551 0.512852,-0.3426764 0.193672,-0.080221 0.395325,-0.120332 0.604954,-0.1203321 0.209629,1e-7 0.411278,0.040111 0.604946,0.1203322 0.193672,0.080221 0.364624,0.1944466 0.512852,0.3426763 0.148227,0.14822975 0.262451,0.31918028 0.342674,0.51285163 C 39.480194,-0.41127831 39.520306,-0.2096284 39.520309,0 Z m 6.32325,0 c -4e-6,0.2096284 -0.04012,0.41127831 -0.120338,0.60494977 -0.08022,0.19367135 -0.194447,0.36462188 -0.342674,0.51285163 -0.148236,0.1482297 -0.319188,0.2624551 -0.512856,0.3426764 -0.193672,0.080221 -0.395321,0.120332 -0.604942,0.1203321 -0.209633,-1e-7 -0.411286,-0.040111 -0.604958,-0.1203322 C 43.464123,1.3802565 43.293171,1.2660311 43.144943,1.1178014 42.996712,0.96957165 42.882484,0.79862112 42.802261,0.60494977 42.722042,0.41127831 42.681934,0.2096284 42.681938,0 c -4e-6,-0.2096284 0.0401,-0.41127831 0.120323,-0.60494977 0.08022,-0.19367135 0.194451,-0.36462188 0.342682,-0.51285163 0.148228,-0.1482297 0.31918,-0.2624551 0.512848,-0.3426764 0.193672,-0.080221 0.395325,-0.120332 0.604958,-0.1203321 0.209621,1e-7 0.41127,0.040111 0.604942,0.1203322 0.193668,0.080221 0.36462,0.1944466 0.512856,0.3426763 0.148227,0.14822975 0.262451,0.31918028 0.342674,0.51285163 C 45.80344,-0.41127831 45.843555,-0.2096284 45.843559,0 Z m 6.32325,0 c -4e-6,0.2096284 -0.04012,0.41127831 -0.120338,0.60494977 -0.08022,0.19367135 -0.194447,0.36462188 -0.342675,0.51285163 -0.148231,0.1482297 -0.319183,0.2624551 -0.512855,0.3426764 -0.193669,0.080221 -0.395317,0.120332 -0.604942,0.1203321 -0.209633,-1e-7 -0.411286,-0.040111 -0.604954,-0.1203322 C 49.787369,1.3802565 49.616421,1.2660311 49.468193,1.1178014 49.319962,0.96957165 49.205734,0.79862112 49.125515,0.60494977 49.045292,0.41127831 49.005184,0.2096284 49.005188,0 c -4e-6,-0.2096284 0.0401,-0.41127831 0.120327,-0.60494977 0.08022,-0.19367135 0.194447,-0.36462188 0.342678,-0.51285163 0.148228,-0.1482297 0.319176,-0.2624551 0.512852,-0.3426764 0.193668,-0.080221 0.395321,-0.120332 0.604954,-0.1203321 0.209625,1e-7 0.411273,0.040111 0.604942,0.1203322 0.193672,0.080221 0.364624,0.1944466 0.512855,0.3426763 0.148228,0.14822975 0.262455,0.31918028 0.342675,0.51285163 C 52.126694,-0.41127831 52.166805,-0.2096284 52.166809,0 Z m 6.32325,0 c -8e-6,0.2096284 -0.04012,0.41127831 -0.120342,0.60494977 -0.08022,0.19367135 -0.194447,0.36462188 -0.342675,0.51285163 -0.148235,0.1482297 -0.319187,0.2624551 -0.512855,0.3426764 -0.193669,0.080221 -0.395317,0.120332 -0.604939,0.1203321 -0.209629,-1e-7 -0.411281,-0.040111 -0.604957,-0.1203322 C 56.110619,1.3802565 55.939671,1.2660311 55.791443,1.1178014 55.643208,0.96957165 55.52898,0.79862112 55.448761,0.60494977 55.368542,0.41127831 55.328434,0.2096284 55.328438,0 c -4e-6,-0.2096284 0.04011,-0.41127831 0.120327,-0.60494977 0.08022,-0.19367135 0.194443,-0.36462188 0.342678,-0.51285163 0.148228,-0.1482297 0.319176,-0.2624551 0.512844,-0.3426764 0.193676,-0.080221 0.395332,-0.120332 0.604961,-0.1203321 0.209622,1e-7 0.41127,0.040111 0.604939,0.1203322 0.193668,0.080221 0.36462,0.1944466 0.512855,0.3426763 0.148228,0.14822975 0.262452,0.31918028 0.342675,0.51285163 C 58.449936,-0.41127831 58.490051,-0.2096284 58.490059,0 Z"
         style="fill:#415e9a;fill-opacity:1;fill-rule:nonzero;stroke:none"
         id="path650" />
    </g>
    <g
       id="g652"
       transform="matrix(0.35277777,0,0,0.35277777,446.49389,207.79975)">
      <path
         d="m 1.5808099,0 c -1e-7,0.2096284 -0.040111,0.41127831 -0.1203322,0.60494977 C 1.3802565,0.79862112 1.2660311,0.96957165 1.1178014,1.1178014 0.96957165,1.2660311 0.79862112,1.3802565 0.60494977,1.4604778 0.41127831,1.5406991 0.2096284,1.5808098 0,1.5808099 -0.2096284,1.5808098 -0.41127831,1.5406991 -0.60494977,1.4604777 -0.79862112,1.3802565 -0.96957165,1.2660311 -1.1178014,1.1178014 -1.2660311,0.96957165 -1.3802565,0.79862112 -1.4604778,0.60494977 -1.5406991,0.41127831 -1.5808098,0.2096284 -1.5808099,0 c 1e-7,-0.2096284 0.040111,-0.41127831 0.1203322,-0.60494977 0.080221,-0.19367135 0.1944466,-0.36462188 0.3426763,-0.51285163 0.14822975,-0.1482297 0.31918028,-0.2624551 0.51285163,-0.3426764 C -0.41127831,-1.5406991 -0.2096284,-1.5808098 0,-1.5808099 c 0.2096284,1e-7 0.41127831,0.040111 0.60494977,0.1203322 0.19367135,0.080221 0.36462188,0.1944466 0.51285163,0.3426763 0.1482297,0.14822975 0.2624551,0.31918028 0.3426764,0.51285163 C 1.5406991,-0.41127831 1.5808098,-0.2096284 1.5808099,0 Z m 6.3232495,0 c -5e-7,0.2096284 -0.040111,0.41127831 -0.1203322,0.60494977 C 7.7035055,0.79862112 7.5892801,0.96957165 7.441051,1.1178014 7.2928209,1.2660311 7.12187,1.3802565 6.9281983,1.4604778 6.7345271,1.5406991 6.5328774,1.5808098 6.3232493,1.5808099 6.1136208,1.5808098 5.9119706,1.5406991 5.7182994,1.4604777 5.5246277,1.3802565 5.3536773,1.2660311 5.2054477,1.1178014 5.0572176,0.96957165 4.9429917,0.79862112 4.8627706,0.60494977 4.7825494,0.41127831 4.7424388,0.2096284 4.7424393,0 c -5e-7,-0.2096284 0.04011,-0.41127831 0.1203313,-0.60494977 0.080221,-0.19367135 0.194447,-0.36462188 0.3426771,-0.51285163 0.1482296,-0.1482297 0.31918,-0.2624551 0.5128517,-0.3426764 0.1936712,-0.080221 0.3953214,-0.120332 0.6049499,-0.1203321 0.2096281,1e-7 0.4112778,0.040111 0.604949,0.1203322 0.1936717,0.080221 0.3646226,0.1944466 0.5128527,0.3426763 0.1482291,0.14822975 0.2624545,0.31918028 0.3426762,0.51285163 C 7.8639483,-0.41127831 7.9040589,-0.2096284 7.9040594,0 Z m 6.3232486,0 c -1e-6,0.2096284 -0.04011,0.41127831 -0.120332,0.60494977 -0.08022,0.19367135 -0.194447,0.36462188 -0.342676,0.51285163 -0.14823,0.1482297 -0.31918,0.2624551 -0.512851,0.3426764 -0.193672,0.080221 -0.395322,0.120332 -0.60495,0.1203321 -0.20963,-1e-7 -0.41128,-0.040111 -0.604951,-0.1203322 C 11.847877,1.3802565 11.676926,1.2660311 11.528697,1.1178014 11.380467,0.96957165 11.266241,0.79862112 11.186019,0.60494977 11.105798,0.41127831 11.065688,0.2096284 11.065689,0 c -1e-6,-0.2096284 0.04011,-0.41127831 0.12033,-0.60494977 0.08022,-0.19367135 0.194448,-0.36462188 0.342678,-0.51285163 0.148229,-0.1482297 0.31918,-0.2624551 0.512851,-0.3426764 0.193671,-0.080221 0.395321,-0.120332 0.604951,-0.1203321 0.209628,1e-7 0.411278,0.040111 0.60495,0.1203322 0.193671,0.080221 0.364621,0.1944466 0.512851,0.3426763 0.148229,0.14822975 0.262453,0.31918028 0.342675,0.51285163 C 14.187197,-0.41127831 14.227307,-0.2096284 14.227308,0 Z m 6.323252,0 c -2e-6,0.2096284 -0.04011,0.41127831 -0.120333,0.60494977 -0.08022,0.19367135 -0.194448,0.36462188 -0.342676,0.51285163 -0.148229,0.1482297 -0.319181,0.2624551 -0.512854,0.3426764 -0.19367,0.080221 -0.39532,0.120332 -0.604948,0.1203321 -0.209629,-1e-7 -0.411279,-0.040111 -0.604951,-0.1203322 C 18.171125,1.3802565 18.000175,1.2660311 17.851948,1.1178014 17.703718,0.96957165 17.589491,0.79862112 17.50927,0.60494977 17.429049,0.41127831 17.388937,0.2096284 17.388939,0 c -2e-6,-0.2096284 0.04011,-0.41127831 0.120331,-0.60494977 0.08022,-0.19367135 0.194448,-0.36462188 0.342678,-0.51285163 0.148227,-0.1482297 0.319177,-0.2624551 0.51285,-0.3426764 0.193672,-0.080221 0.395322,-0.120332 0.604951,-0.1203321 0.209628,1e-7 0.411278,0.040111 0.604948,0.1203322 0.193673,0.080221 0.364625,0.1944466 0.512854,0.3426763 0.148228,0.14822975 0.262453,0.31918028 0.342676,0.51285163 C 20.510448,-0.41127831 20.550558,-0.2096284 20.55056,0 Z m 6.323248,0 c -2e-6,0.2096284 -0.04011,0.41127831 -0.120335,0.60494977 -0.08022,0.19367135 -0.194446,0.36462188 -0.342674,0.51285163 -0.148231,0.1482297 -0.319183,0.2624551 -0.512854,0.3426764 -0.193672,0.080221 -0.39532,0.120332 -0.604948,0.1203321 -0.209631,-1e-7 -0.411283,-0.040111 -0.604953,-0.1203322 C 24.494373,1.3802565 24.323423,1.2660311 24.175196,1.1178014 24.026964,0.96957165 23.912737,0.79862112 23.832516,0.60494977 23.752295,0.41127831 23.712185,0.2096284 23.712187,0 c -2e-6,-0.2096284 0.04011,-0.41127831 0.120329,-0.60494977 0.08022,-0.19367135 0.194448,-0.36462188 0.34268,-0.51285163 0.148227,-0.1482297 0.319177,-0.2624551 0.512848,-0.3426764 0.19367,-0.080221 0.395322,-0.120332 0.604953,-0.1203321 0.209628,1e-7 0.411276,0.040111 0.604946,0.1203322 0.193673,0.080221 0.364625,0.1944466 0.512856,0.3426763 0.148228,0.14822975 0.262453,0.31918028 0.342674,0.51285163 C 26.833694,-0.41127831 26.873806,-0.2096284 26.873808,0 Z m 6.323252,0 c -4e-6,0.2096284 -0.04012,0.41127831 -0.120339,0.60494977 -0.08022,0.19367135 -0.194446,0.36462188 -0.342674,0.51285163 -0.148228,0.1482297 -0.31918,0.2624551 -0.512852,0.3426764 -0.193672,0.080221 -0.395319,0.120332 -0.604946,0.1203321 -0.209631,-1e-7 -0.411283,-0.040111 -0.604954,-0.1203322 C 30.817623,1.3802565 30.646673,1.2660311 30.498446,1.1178014 30.350216,0.96957165 30.235989,0.79862112 30.155767,0.60494977 30.075546,0.41127831 30.035437,0.2096284 30.035439,0 c -2e-6,-0.2096284 0.04011,-0.41127831 0.120328,-0.60494977 0.08022,-0.19367135 0.194449,-0.36462188 0.342679,-0.51285163 0.148227,-0.1482297 0.319177,-0.2624551 0.512849,-0.3426764 0.193671,-0.080221 0.395323,-0.120332 0.604954,-0.1203321 0.209627,1e-7 0.411274,0.040111 0.604946,0.1203322 0.193672,0.080221 0.364624,0.1944466 0.512852,0.3426763 0.148228,0.14822975 0.262455,0.31918028 0.342674,0.51285163 C 33.156944,-0.41127831 33.197056,-0.2096284 33.19706,0 Z m 6.323249,0 c -3e-6,0.2096284 -0.04012,0.41127831 -0.120338,0.60494977 -0.08022,0.19367135 -0.194447,0.36462188 -0.342674,0.51285163 -0.148228,0.1482297 -0.31918,0.2624551 -0.512852,0.3426764 -0.193668,0.080221 -0.395317,0.120332 -0.604946,0.1203321 -0.209629,-1e-7 -0.411282,-0.040111 -0.604954,-0.1203322 C 37.140869,1.3802565 36.969921,1.2660311 36.821693,1.1178014 36.673458,0.96957165 36.559235,0.79862112 36.479015,0.60494977 36.398796,0.41127831 36.358685,0.2096284 36.358688,0 c -3e-6,-0.2096284 0.04011,-0.41127831 0.120327,-0.60494977 0.08022,-0.19367135 0.194443,-0.36462188 0.342678,-0.51285163 0.148228,-0.1482297 0.319176,-0.2624551 0.512852,-0.3426764 0.193672,-0.080221 0.395325,-0.120332 0.604954,-0.1203321 0.209629,1e-7 0.411278,0.040111 0.604946,0.1203322 0.193672,0.080221 0.364624,0.1944466 0.512852,0.3426763 0.148227,0.14822975 0.262451,0.31918028 0.342674,0.51285163 C 39.480194,-0.41127831 39.520306,-0.2096284 39.520309,0 Z m 6.32325,0 c -4e-6,0.2096284 -0.04012,0.41127831 -0.120338,0.60494977 -0.08022,0.19367135 -0.194447,0.36462188 -0.342674,0.51285163 -0.148236,0.1482297 -0.319188,0.2624551 -0.512856,0.3426764 -0.193672,0.080221 -0.395321,0.120332 -0.604942,0.1203321 -0.209633,-1e-7 -0.411286,-0.040111 -0.604958,-0.1203322 C 43.464123,1.3802565 43.293171,1.2660311 43.144943,1.1178014 42.996712,0.96957165 42.882484,0.79862112 42.802261,0.60494977 42.722042,0.41127831 42.681934,0.2096284 42.681938,0 c -4e-6,-0.2096284 0.0401,-0.41127831 0.120323,-0.60494977 0.08022,-0.19367135 0.194451,-0.36462188 0.342682,-0.51285163 0.148228,-0.1482297 0.31918,-0.2624551 0.512848,-0.3426764 0.193672,-0.080221 0.395325,-0.120332 0.604958,-0.1203321 0.209621,1e-7 0.41127,0.040111 0.604942,0.1203322 0.193668,0.080221 0.36462,0.1944466 0.512856,0.3426763 0.148227,0.14822975 0.262451,0.31918028 0.342674,0.51285163 C 45.80344,-0.41127831 45.843555,-0.2096284 45.843559,0 Z"
         style="fill:#5277c3;fill-opacity:1;fill-rule:nonzero;stroke:none"
         id="path654" />
    </g>
    <g
       id="g656"
       transform="matrix(0.35277777,0,0,0.35277777,300.08445,37.210206)">
      <path
         d="m 136.56871,186.119 18.28627,31.67496 -8.39757,0.0785 -4.88096,-8.51076 -4.91716,8.4655 h -4.17466 l -2.13864,-3.69472 7.00605,-12.04393 -4.97306,-8.65262 4.18973,-7.31691 z"
         style="fill:#5277c3;fill-opacity:1;fill-rule:evenodd;stroke:none"
         id="path658" />
    </g>
    <g
       id="g660"
       transform="matrix(0.35277777,0,0,0.35277777,298.09796,35.65689)">
      <path
         d="m 148.80118,177.47299 -18.28928,31.67345 -4.26819,-7.23845 4.92925,-8.48206 -9.78758,-0.0257 -2.09637,-3.6162 2.13107,-3.69467 13.93958,0.0437 5.00776,-8.63298 8.43376,-0.0272 z"
         style="fill:url(#linearGradient668);fill-opacity:1;fill-rule:evenodd;stroke:none"
         id="path670" />
    </g>
    <g
       id="g672"
       transform="matrix(0.35277777,0,0,0.35277777,301.77795,38.670997)">
      <path
         d="m 139.772,194.25 h 36.57404 l -4.13388,7.31696 -9.81024,-0.0272 4.87039,8.48961 -2.08884,3.61468 h -4.26968 l -6.92752,-12.09222 -9.97925,-0.0196 z"
         style="fill:url(#linearGradient680);fill-opacity:1;fill-rule:evenodd;stroke:none"
         id="path682" />
    </g>
    <g
       id="g684"
       transform="matrix(0.35277777,0,0,0.35277777,302.13524,33.238879)">
      <path
         d="m 160.04578,195.76894 -18.28475,-31.67493 8.39754,-0.08 4.88248,8.51072 4.91717,-8.46543 h 4.17615 l 2.13713,3.69465 -7.0045,12.04549 4.97302,8.65259 z"
         style="fill:url(#linearGradient692);fill-opacity:1;fill-rule:evenodd;stroke:none"
         id="path694" />
    </g>
    <g
       id="g696"
       transform="matrix(0.35277777,0,0,0.35277777,300.08445,37.210206)">
      <path
         d="m 136.56871,186.119 18.28627,31.67496 -8.39757,0.0785 -4.88096,-8.51076 -4.91716,8.4655 h -4.17466 l -2.13864,-3.69472 7.00605,-12.04393 -4.97306,-8.65262 4.18973,-7.31691 z"
         style="fill:#5277c3;fill-opacity:1;fill-rule:evenodd;stroke:none"
         id="path698" />
    </g>
    <g
       id="g700"
       transform="matrix(0.35277777,0,0,0.35277777,298.99985,33.239763)">
      <path
         d="m 160.88304,183.41457 h -36.57403 l 4.13237,-7.3169 9.81173,0.0272 -4.8704,-8.48963 2.08883,-3.61618 h 4.2697 l 6.92905,12.09226 9.97925,0.0196 4.2335,7.2837 z"
         style="fill:url(#linearGradient708);fill-opacity:1;fill-rule:evenodd;stroke:none"
         id="path710" />
    </g>
    <g
       id="g712"
       transform="matrix(0.35277777,0,0,0.35277777,303.5233,34.800812)">
      <path
         d="m 149.487,204.38144 18.28777,-31.67343 4.26971,7.23996 -4.92928,8.48205 9.78759,0.0257 2.08732,3.61774 -2.12959,3.69464 -13.94107,-0.0438 -5.00623,8.63303 -8.42622,0.0241 z"
         style="fill:url(#linearGradient720);fill-opacity:1;fill-rule:evenodd;stroke:none"
         id="path722" />
    </g>
    <g
       id="g724"
       transform="matrix(0.35277777,0,0,0.35277777,300.0861,37.207682)">
      <path
         d="m 136.58676,186.10501 18.28627,31.67493 -8.39757,0.08 -4.88247,-8.51076 -4.92473,8.46247 h -4.17462 l -2.13864,-3.69472 7.00602,-12.04242 -4.97303,-8.65413 4.19877,-7.3154 z"
         style="fill:url(#linearGradient732);fill-opacity:1;fill-rule:evenodd;stroke:none"
         id="path734" />
    </g>
    <g
       id="g736"
       transform="matrix(0.08819444,0,0,0.08819444,-54.57976,-108.96984)">
      <g
         id="g738"
         clip-path="url(#clipPath742)">
        <g
           id="g744"
           clip-path="url(#clipPath748)">
          <g
             id="g750"
             transform="translate(4542,2401)">
            <g
               id="g752" />
            <g
               id="g772">
              <g
                 clip-path="url(#clipPath756)"
                 id="g770">
                <g
                   transform="matrix(4,0,0,4,0.83056641,0.8671875)"
                   id="g768">
                  <path
                     d="M 0,0 H 24.515392 V 31.753956 H 0 Z"
                     style="fill:url(#linearGradient764);fill-opacity:1;fill-rule:nonzero;stroke:none"
                     id="path766" />
                </g>
              </g>
            </g>
          </g>
        </g>
      </g>
    </g>
  </g>
</svg>
