<?xml version="1.0" encoding="UTF-8" standalone="no"?>
<svg
   xmlns:dc="http://purl.org/dc/elements/1.1/"
   xmlns:cc="http://creativecommons.org/ns#"
   xmlns:rdf="http://www.w3.org/1999/02/22-rdf-syntax-ns#"
   xmlns:svg="http://www.w3.org/2000/svg"
   xmlns="http://www.w3.org/2000/svg"
   xmlns:sodipodi="http://sodipodi.sourceforge.net/DTD/sodipodi-0.dtd"
   xmlns:inkscape="http://www.inkscape.org/namespaces/inkscape"
   width="206.88138mm"
   height="158.31888mm"
   viewBox="0 0 206.88138 158.31888"
   version="1.1"
   id="svg4186"
   inkscape:version="1.0.1 (3bc2e813f5, 2020-09-07)"
   sodipodi:docname="gfx-overview-cloud.svg">
  <defs
     id="defs4180">
    <clipPath
       clipPathUnits="userSpaceOnUse"
       id="clipPath828">
      <path
         d="M 0,0 H 7680 V 26592 H 0 Z"
         id="path826" />
    </clipPath>
    <clipPath
       clipPathUnits="userSpaceOnUse"
       id="clipPath834">
      <path
         d="M 3129.4177,5138.7388 C 2693.533,4943.98 2359.6606,4925.4321 2072.1616,4981.0767 c 0,0 -292.143,62.0239 -366.093,376.3037 -158.0261,-12.084 -324.7644,101.2573 -385.6804,300.6225 -102.0178,333.8726 37.0964,862.5034 472.9809,1057.2617 435.8899,194.7583 769.7622,213.3067 1057.2618,157.6622 0,0 292.1374,-62.0245 366.0874,-376.3091 158.0312,12.0893 324.77,-101.2525 385.6865,-300.6226 102.0166,-333.8672 -37.0972,-862.498 -472.9871,-1057.2563 z"
         id="path832" />
    </clipPath>
    <clipPath
       clipPathUnits="userSpaceOnUse"
       id="clipPath842">
      <path
         d="M 0,0 H 2487 V 2004 H 0 Z"
         id="path840" />
    </clipPath>
    <linearGradient
       x1="862.52112"
       y1="151.84204"
       x2="840.14001"
       y2="582.35016"
       gradientUnits="userSpaceOnUse"
       gradientTransform="matrix(4,0,0,4,-3366.6296,-5223.0444)"
       spreadMethod="pad"
       id="linearGradient854">
      <stop
         style="stop-opacity:1;stop-color:#e8f7fb"
         offset="0"
         id="stop844" />
      <stop
         style="stop-opacity:1;stop-color:#e8f7fb"
         offset="0.0306122"
         id="stop846" />
      <stop
         style="stop-opacity:1;stop-color:#cdf0f8"
         offset="0.46938801"
         id="stop848" />
      <stop
         style="stop-opacity:1;stop-color:#64cfe8"
         offset="0.64795899"
         id="stop850" />
      <stop
         style="stop-opacity:1;stop-color:#64cfe8"
         offset="1"
         id="stop852" />
    </linearGradient>
    <linearGradient
       x1="135.31158"
       y1="249.80966"
       x2="131.52002"
       y2="246.76495"
       gradientUnits="userSpaceOnUse"
       gradientTransform="matrix(4,0,0,4,-3136.1943,-5036.522)"
       spreadMethod="pad"
       id="linearGradient862">
      <stop
         style="stop-opacity:1;stop-color:#699ad7"
         offset="0"
         id="stop856" />
      <stop
         style="stop-opacity:1;stop-color:#7eb1dd"
         offset="0.24299999"
         id="stop858" />
      <stop
         style="stop-opacity:1;stop-color:#7ebae4"
         offset="1"
         id="stop860" />
    </linearGradient>
    <linearGradient
       x1="104.25269"
       y1="212.38661"
       x2="108.12628"
       y2="210.01895"
       gradientUnits="userSpaceOnUse"
       gradientTransform="matrix(4,0,0,4,-3063.0889,-4976.646)"
       spreadMethod="pad"
       id="linearGradient870">
      <stop
         style="stop-opacity:1;stop-color:#699ad7"
         offset="0"
         id="stop864" />
      <stop
         style="stop-opacity:1;stop-color:#7eb1dd"
         offset="0.24299999"
         id="stop866" />
      <stop
         style="stop-opacity:1;stop-color:#7ebae4"
         offset="1"
         id="stop868" />
    </linearGradient>
    <linearGradient
       x1="129.20868"
       y1="259.46753"
       x2="128.31"
       y2="263.6694"
       gradientUnits="userSpaceOnUse"
       gradientTransform="matrix(4,0,0,4,-3055.9871,-5084.5601)"
       spreadMethod="pad"
       id="linearGradient878">
      <stop
         style="stop-opacity:1;stop-color:#699ad7"
         offset="0"
         id="stop872" />
      <stop
         style="stop-opacity:1;stop-color:#7eb1dd"
         offset="0.24299999"
         id="stop874" />
      <stop
         style="stop-opacity:1;stop-color:#7ebae4"
         offset="1"
         id="stop876" />
    </linearGradient>
    <linearGradient
       x1="120.50928"
       y1="241.23038"
       x2="116.65613"
       y2="244.34076"
       gradientUnits="userSpaceOnUse"
       gradientTransform="matrix(4,0,0,4,-3118.2788,-5084.5435)"
       spreadMethod="pad"
       id="linearGradient886">
      <stop
         style="stop-opacity:1;stop-color:#415e9a"
         offset="0"
         id="stop880" />
      <stop
         style="stop-opacity:1;stop-color:#4a6baf"
         offset="0.27599999"
         id="stop882" />
      <stop
         style="stop-opacity:1;stop-color:#5277c3"
         offset="1"
         id="stop884" />
    </linearGradient>
    <linearGradient
       x1="108.16449"
       y1="250.75967"
       x2="112.16937"
       y2="253.52946"
       gradientUnits="userSpaceOnUse"
       gradientTransform="matrix(4,0,0,4,-3028.4121,-5053.5298)"
       spreadMethod="pad"
       id="linearGradient894">
      <stop
         style="stop-opacity:1;stop-color:#415e9a"
         offset="0"
         id="stop888" />
      <stop
         style="stop-opacity:1;stop-color:#4a6baf"
         offset="0.23199999"
         id="stop890" />
      <stop
         style="stop-opacity:1;stop-color:#5277c3"
         offset="1"
         id="stop892" />
    </linearGradient>
    <linearGradient
       x1="135.70111"
       y1="241.07964"
       x2="136.69415"
       y2="236.59872"
       gradientUnits="userSpaceOnUse"
       gradientTransform="matrix(4,0,0,4,-3096.6956,-5005.7139)"
       spreadMethod="pad"
       id="linearGradient902">
      <stop
         style="stop-opacity:1;stop-color:#415e9a"
         offset="0"
         id="stop896" />
      <stop
         style="stop-opacity:1;stop-color:#4a6baf"
         offset="0.27599999"
         id="stop898" />
      <stop
         style="stop-opacity:1;stop-color:#5277c3"
         offset="1"
         id="stop900" />
    </linearGradient>
    <clipPath
       clipPathUnits="userSpaceOnUse"
       id="clipPath906">
      <path
         d="m 1107.8123,1078.2919 178.7109,309.5604 -82.0676,0.7715 -47.7144,-83.1679 -48.1245,82.7082 h -40.804 l -20.8947,-36.1098 68.4609,-117.702 -48.6006,-84.5627 z"
         id="path904" />
    </clipPath>
    <clipPath
       clipPathUnits="userSpaceOnUse"
       id="clipPath910">
      <path
         d="M 0,0 H 241 V 311 H 0 Z"
         id="path908" />
    </clipPath>
    <linearGradient
       x1="-595.30841"
       y1="-48.618656"
       x2="-594.31543"
       y2="-53.103672"
       gradientUnits="userSpaceOnUse"
       gradientTransform="matrix(4,0,0,4,-1217.082,-4924.708)"
       spreadMethod="pad"
       id="linearGradient918">
      <stop
         style="stop-opacity:1;stop-color:#415e9a"
         offset="0"
         id="stop912" />
      <stop
         style="stop-opacity:1;stop-color:#4a6baf"
         offset="0.27599999"
         id="stop914" />
      <stop
         style="stop-opacity:1;stop-color:#5277c3"
         offset="1"
         id="stop916" />
    </linearGradient>
    <linearGradient
       x1="849.69513"
       y1="347.69257"
       x2="850.38196"
       y2="621.34888"
       gradientUnits="userSpaceOnUse"
       gradientTransform="matrix(4,0,0,4,-3366.6296,-5154.7324)"
       spreadMethod="pad"
       id="linearGradient930">
      <stop
         style="stop-opacity:1;stop-color:#e8f7fb"
         offset="0"
         id="stop920" />
      <stop
         style="stop-opacity:1;stop-color:#e8f7fb"
         offset="0.0306122"
         id="stop922" />
      <stop
         style="stop-opacity:1;stop-color:#cdf0f8"
         offset="0.46938801"
         id="stop924" />
      <stop
         style="stop-opacity:1;stop-color:#99e1f0"
         offset="0.84183699"
         id="stop926" />
      <stop
         style="stop-opacity:1;stop-color:#99e1f0"
         offset="1"
         id="stop928" />
    </linearGradient>
    <linearGradient
       x1="849.80389"
       y1="506.75793"
       x2="849.80389"
       y2="694.2179"
       gradientUnits="userSpaceOnUse"
       gradientTransform="matrix(4,0,0,4,-3366.6296,-4993.7202)"
       spreadMethod="pad"
       id="linearGradient942">
      <stop
         style="stop-opacity:1;stop-color:#e8f7fb"
         offset="0"
         id="stop932" />
      <stop
         style="stop-opacity:1;stop-color:#e8f7fb"
         offset="0.0306122"
         id="stop934" />
      <stop
         style="stop-opacity:1;stop-color:#cdf0f8"
         offset="0.46938801"
         id="stop936" />
      <stop
         style="stop-opacity:1;stop-color:#99e1f0"
         offset="0.84183699"
         id="stop938" />
      <stop
         style="stop-opacity:1;stop-color:#99e1f0"
         offset="1"
         id="stop940" />
    </linearGradient>
  </defs>
  <sodipodi:namedview
     id="base"
     pagecolor="#ffffff"
     bordercolor="#666666"
     borderopacity="1.0"
     inkscape:pageopacity="0.0"
     inkscape:pageshadow="2"
     inkscape:zoom="0.35"
     inkscape:cx="435.24267"
     inkscape:cy="-23.67186"
     inkscape:document-units="mm"
     inkscape:current-layer="layer1"
     inkscape:document-rotation="0"
     showgrid="false"
     inkscape:window-width="1917"
     inkscape:window-height="1025"
     inkscape:window-x="0"
     inkscape:window-y="764"
     inkscape:window-maximized="1" />
  <metadata
     id="metadata4183">
    <rdf:RDF>
      <cc:Work
         rdf:about="">
        <dc:format>image/svg+xml</dc:format>
        <dc:type
           rdf:resource="http://purl.org/dc/dcmitype/StillImage" />
        <dc:title></dc:title>
      </cc:Work>
    </rdf:RDF>
  </metadata>
  <g
     inkscape:label="Layer 1"
     inkscape:groupmode="layer"
     id="layer1"
     transform="translate(111.75617,-154.42985)">
    <g
       id="g822"
       transform="matrix(0.08819444,0,0,0.08819444,-225.39694,-295.81473)">
      <g
         id="g824"
         clip-path="url(#clipPath828)">
        <g
           id="g830"
           clip-path="url(#clipPath834)">
          <g
             id="g836"
             transform="translate(1218,4925)">
            <g
               id="g838" />
            <g
               id="g1018">
              <g
                 clip-path="url(#clipPath842)"
                 id="g1016">
                <g
                   transform="matrix(4,0,0,4,-2148.6296,-298.04443)"
                   id="g946">
                  <path
                     d="m 1152.3792,119.54501 c -23.0599,0 -41.7664,18.69329 -41.7664,41.76638 0,9.65664 3.2849,18.54817 8.786,25.61917 -0.5277,0.43535 -1.0421,0.87068 -1.5434,1.33241 -8.1132,-4.52492 -17.4401,-7.1106 -27.3869,-7.1106 -31.2126,0 -56.5284,25.30259 -56.5284,56.51523 0,15.17099 5.9891,28.93036 15.7118,39.07517 -4.1819,0.4617 -8.1263,1.68857 -11.7146,3.52224 -10.923,5.63309 -18.4031,17.01789 -18.4031,30.17051 0,5.89691 1.5172,11.45077 4.1688,16.27908 -0.7784,-0.0264 -1.5435,-0.0527 -2.335,-0.0527 -7.0446,0 -13.8255,1.1213 -20.1972,3.16613 -2.66482,-12.53259 -10.52743,-23.13907 -21.2394,-29.44491 -6.68842,-3.94449 -14.47181,-6.20032 -22.80927,-6.20032 -24.88043,0 -45.03802,20.17081 -45.03802,45.05121 0,6.10797 1.22686,11.9389 3.42999,17.26855 -11.16058,-10.19757 -26.01489,-16.41104 -42.3205,-16.41104 -8.65411,0 -16.89904,1.75452 -24.39227,4.92066 0,-0.22428 0.0131,-0.44852 0.0131,-0.68601 0,-18.11282 -14.68286,-32.79568 -32.79559,-32.79568 -7.07105,0 -13.62756,2.25586 -18.98358,6.06839 -7.65143,-13.95731 -22.46625,-23.41608 -39.51056,-23.41608 -18.77228,0 -34.86688,11.50357 -41.62116,27.83545 1.31916,-3.61463 2.0315,-7.5195 2.0315,-11.5827 0,-17.45322 -13.1789,-31.80628 -30.11762,-33.69275 9.7226,-10.14481 15.71192,-23.90418 15.71192,-39.07517 0,-31.21264 -25.30261,-56.51523 -56.51526,-56.51523 -20.96234,0 -39.24652,11.41123 -49.00885,28.36315 -1.56995,-0.15828 -3.16614,-0.23746 -4.77557,-0.25066 -5.73853,-23.97014 -27.2945,-41.79274 -53.01929,-41.79274 -7.13696,0 -13.95728,1.372 -20.21039,3.8785 v 156.47213 c 0.98944,2.18988 -0.44855,5.79139 0.81799,7.80976 -1.26654,2.28228 0.17145,3.15292 -0.81799,5.59347 V 621.57248 H 1179.6078 V 129.63704 c -7.3084,-6.29266 -16.8331,-10.092 -27.2286,-10.092 z"
                     style="fill:url(#linearGradient854);fill-opacity:0.502;fill-rule:nonzero;stroke:none"
                     id="path944" />
                </g>
                <g
                   transform="matrix(4,0,0,4,-1831.1542,-236.41699)"
                   id="g950">
                  <path
                     d="m 775.56024,185.00076 c 0,0 -2.43793,-0.95117 -3.62256,0.81394 -1.5,0.23086 -2.17144,0.83772 -2.53698,1.15168 1.06732,-0.17677 3.38116,-0.26251 4.45764,0.61609 1.07519,0.87726 2.0581,1.46433 3.8244,1.85216 -0.62122,1.44983 -0.0856,2.67406 1.05676,3.53945 2.08313,1.58041 2.89563,5.41671 2.8653,6.3982 2.34039,-0.42477 1.63055,-4.6687 1.57257,-5.04335 0.30603,0.47886 1.5,-1.21104 1.07904,-2.06854 0.4895,0.3219 0.51459,-0.90233 0.25329,-1.34955 0.53296,0.75196 0.51716,-0.70051 0.30347,-1.0303 0.38123,0.11345 0.51575,-0.73216 0.27435,-1.03558 0.48682,-0.1359 2.46833,0.63848 3.96296,2.37455 1.44586,1.26119 0.11077,-1.48803 0.11077,-1.48803 0,0 2.90632,0.60023 1.00934,-0.90894 1.12122,-0.13061 0.49854,-1.5448 -1.14386,-1.8799 0.87336,-0.23483 -2.55664,-1.27832 -5.10669,-1.47885 0.23621,-1.44849 -0.94189,-1.70706 -0.94189,-1.70706 0.8139,-0.0251 0.14111,-1.49994 -0.29822,-1.7321 0.28504,-0.37734 -0.1239,-1.20711 -1.31524,-1.29549 0.61743,-0.25329 -0.19782,-0.78496 -1.08167,-0.97887 0.58185,-0.34167 -0.20331,-1.29676 -1.44861,-1.21894 0.38129,-0.52768 -0.35882,-0.92479 -1.28479,-1.12133 -0.58453,-0.77043 -3.93268,-4.61067 -5.56055,-6.86915 -1.62792,-2.25852 -2.41552,-3.17273 -2.97613,-2.53026 -0.56061,0.64246 -0.59638,4.57371 0.60937,7.91266 1.20588,3.33891 3.10157,3.13707 4.84687,4.97738 1.74395,1.84032 1.09106,4.10013 1.09106,4.10013 z"
                     style="fill:#e4f6f8;fill-opacity:1;fill-rule:nonzero;stroke:none"
                     id="path948" />
                </g>
                <g
                   transform="matrix(4,0,0,4,-1933.6621,-275.99414)"
                   id="g954">
                  <path
                     d="m 703.53357,149.76732 c 0,0 -2.79413,0.40106 -2.97083,2.68724 -1.28497,1.01315 -1.59375,1.93796 -1.77044,2.42735 0.90887,-0.73215 3.03674,-2.04211 4.513,-1.78753 1.47491,0.25329 2.70843,0.28233 4.57245,-0.29152 0.18731,1.69123 1.34027,2.55661 2.87054,2.76374 2.79535,0.37731 5.59479,3.54869 6.08679,4.48534 1.97242,-1.63979 -0.94714,-5.24783 -1.20044,-5.56842 0.54224,0.28627 0.76654,-1.93396 -0.0845,-2.51442 0.63068,0.0409 0.005,-1.12134 -0.47876,-1.401 0.8996,0.42215 0.1134,-0.93402 -0.26129,-1.13059 0.41827,-0.095 0.095,-0.96038 -0.2915,-1.11738 0.38513,-0.38518 2.65551,-0.70972 4.98132,0.12535 2.02637,0.41817 -0.68604,-1.45509 -0.68604,-1.45509 0,0 3.04615,-0.97887 0.46448,-1.38784 0.98407,-0.71765 -0.35089,-1.71629 -2.07117,-1.15957 0.69391,-0.68337 -3.07782,0.157 -5.58038,1.32184 -0.54608,-1.48542 -1.7901,-1.10286 -1.7901,-1.10286 0.75189,-0.45644 -0.66357,-1.48279 -1.19916,-1.46697 0.0673,-0.50657 -0.75714,-1.06856 -1.92212,-0.51845 0.44587,-0.56594 -0.60156,-0.63189 -1.5343,-0.34564 0.3642,-0.62926 -0.87982,-1.11076 -2.00775,-0.37596 0.0778,-0.69655 -0.82715,-0.67677 -1.80072,-0.37071 -0.95776,-0.41292 -6.13977,-2.24135 -8.86645,-3.49855 -2.72809,-1.25591 -3.95246,-1.69651 -4.13837,-0.79549 -0.18482,0.90103 1.86804,4.61066 4.77154,7.10529 2.90485,2.49597 4.57776,1.29945 7.19239,2.10153 2.61474,0.80205 3.20178,3.27031 3.20178,3.27031 z"
                     style="fill:#e4f6f8;fill-opacity:1;fill-rule:nonzero;stroke:none"
                     id="path952" />
                </g>
                <g
                   transform="matrix(4,0,0,4,-1709.9933,-263.55127)"
                   id="g958">
                  <path
                     d="m 870.24573,165.24437 c 0,0 -3.08167,-2.53687 -4.43512,-0.9195 -1.26392,-0.42349 -1.90497,0.21373 -2.28357,0.40894 1.8562,0.56859 2.77301,0.72955 3.09759,2.30864 0.32312,1.5791 2.34815,3.36662 3.23066,3.79407 -1.91419,1.01448 -2.99726,1.38914 -3.18195,3.4326 -0.18604,2.04347 0.62262,5.84676 -0.10687,7.05647 1.27038,0.99602 2.58697,-0.54481 2.58697,-0.54481 0,0 1.44055,0.84031 2.10285,-1.20842 0.71643,0.96566 1.27038,-0.56725 1.33368,-1.67408 0.67419,0.56331 1.01983,-0.87992 1.07922,-1.46696 1.01965,-0.0277 1.06323,-1.66353 1.06323,-1.66353 0.51984,0.86672 0.94324,-1.39178 0.94324,-1.39178 0,0 2.43005,1.74795 3.2215,4.12254 0.81665,1.3443 1.781,-0.93663 1.21771,-1.82579 0.84295,0.31265 0.7467,-1.3443 0.0118,-2.17538 1.01581,0.44589 2.00122,-1.68203 0.0119,-2.26905 -1.99072,-0.58574 -4.17938,-1.74269 -4.4339,-2.38778 -0.25592,-0.6451 0.38251,-1.47356 -0.4248,-1.95903 1.13324,-0.967 0.58569,-2.0857 0.14514,-2.25191 0.46954,-0.57781 0.23218,-1.26117 -0.32324,-1.48412 0.73883,-0.44722 -0.95502,-1.74267 -1.06983,-1.79811 0.81916,-0.029 0.10156,-1.08833 -0.20593,-1.23741 0.39844,-0.23349 -0.39294,-0.94852 -0.66077,-1.07912 0.60938,-0.0831 0.46302,-1.14904 -0.037,-1.48675 0.12133,-1.03162 -0.45783,-1.59626 -0.62928,-1.6332 0.38398,-1.37725 0.31659,-2.11998 -0.2915,-1.94055 0.0645,-1.01184 -0.0252,-2.19255 -0.51984,-2.05403 0.33374,-0.78494 -0.033,-2.76375 -0.88385,-2.18198 0.10157,-1.08834 -0.7467,-1.87855 -1.21637,-1.20576 0.33124,-1.07251 -0.89965,-1.85877 -1.12921,-1.96957 -0.85217,2.14636 -1.69647,4.86393 -2.40753,7.50367 -0.71368,2.63976 1.51575,4.10146 2.80334,6.43119 1.2862,2.32972 1.62653,3.68061 1.39167,4.7505 z"
                     style="fill:#e4f6f8;fill-opacity:1;fill-rule:nonzero;stroke:none"
                     id="path956" />
                </g>
                <g
                   transform="matrix(4,0,0,4,-1878.7275,-80.666504)"
                   id="g962">
                  <path
                     d="m 746.58167,289.789 44.67791,77.39044 -20.51648,0.19266 -11.92968,-20.79214 -12.0102,20.68133 h -10.20141 l -5.22278,-9.02746 17.11413,-29.42643 -12.14996,-21.14038 z"
                     style="fill:#5277c3;fill-opacity:1;fill-rule:evenodd;stroke:none"
                     id="path960" />
                </g>
                <g
                   transform="matrix(4,0,0,4,-1918.1943,-111.52197)"
                   id="g966">
                  <path
                     d="m 772.57434,265.62402 -44.68176,77.3852 -10.43103,-17.68546 12.04443,-20.72616 -23.91479,-0.062 -5.12122,-8.83471 5.20703,-9.02744 34.05823,0.10687 12.23566,-21.09161 20.60345,-0.0646 z"
                     style="fill:url(#linearGradient862);fill-opacity:1;fill-rule:evenodd;stroke:none"
                     id="path964" />
                </g>
                <g
                   transform="matrix(4,0,0,4,-1845.0889,-51.645996)"
                   id="g970">
                  <path
                     d="m 757.724,312.517 h 89.35968 l -10.09717,17.87936 -23.96893,-0.066 11.90069,20.74204 -5.10534,8.83084 H 809.3819 l -16.9256,-29.54382 -24.38312,-0.0501 z"
                     style="fill:url(#linearGradient870);fill-opacity:1;fill-rule:evenodd;stroke:none"
                     id="path968" />
                </g>
                <g
                   transform="matrix(4,0,0,4,-1837.9871,-159.56006)"
                   id="g974">
                  <path
                     d="m 807.95996,305.58511 -44.67395,-77.3905 20.51648,-0.1926 11.92969,20.79216 12.01404,-20.68135 h 10.20153 l 5.22278,9.02739 -17.11548,29.43041 12.15113,21.14041 z"
                     style="fill:url(#linearGradient878);fill-opacity:1;fill-rule:evenodd;stroke:none"
                     id="path972" />
                </g>
                <g
                   transform="matrix(4,0,0,4,-1878.7275,-80.666504)"
                   id="g978">
                  <path
                     d="m 746.58167,289.789 44.67791,77.39044 -20.51648,0.19266 -11.92968,-20.79214 -12.0102,20.68133 h -10.20141 l -5.22278,-9.02746 17.11413,-29.42643 -12.14996,-21.14038 z"
                     style="fill:#5277c3;fill-opacity:1;fill-rule:evenodd;stroke:none"
                     id="path976" />
                </g>
                <g
                   transform="matrix(4,0,0,4,-1900.2788,-159.54346)"
                   id="g982">
                  <path
                     d="m 803.86078,275.40515 h -89.35974 l 10.09863,-17.8793 23.97284,0.066 -11.9007,-20.74205 5.10541,-8.83478 h 10.42969 l 16.93072,29.54387 24.38318,0.0488 10.33997,17.79748 z"
                     style="fill:url(#linearGradient886);fill-opacity:1;fill-rule:evenodd;stroke:none"
                     id="path980" />
                </g>
                <g
                   transform="matrix(4,0,0,4,-1810.4121,-128.52978)"
                   id="g986">
                  <path
                     d="m 784.88208,329.69049 44.68182,-77.3865 10.43085,17.68673 -12.04297,20.7262 23.91474,0.0607 5.096,8.83874 -5.20288,9.02741 -34.05822,-0.10684 -12.23304,21.09161 -20.5863,0.062 z"
                     style="fill:url(#linearGradient894);fill-opacity:1;fill-rule:evenodd;stroke:none"
                     id="path984" />
                </g>
                <g
                   transform="matrix(4,0,0,4,-1878.6956,-80.713867)"
                   id="g990">
                  <path
                     d="m 746.62646,289.75201 44.67786,77.38913 -20.51636,0.19266 -11.92846,-20.79089 -12.03113,20.67611 h -10.20166 l -5.22272,-9.02737 17.11426,-29.42517 -12.14996,-21.14041 z"
                     style="fill:url(#linearGradient902);fill-opacity:1;fill-rule:evenodd;stroke:none"
                     id="path988" />
                </g>
                <g
                   id="g1006">
                  <g
                     clip-path="url(#clipPath906)"
                     id="g1004">
                    <g
                       transform="translate(1046,1078)"
                       id="g1002">
                      <g
                         id="g992" />
                      <g
                         id="g1000">
                        <g
                           clip-path="url(#clipPath910)"
                           id="g998">
                          <g
                             transform="matrix(4,0,0,4,0.91796875,0.29199219)"
                             id="g996">
                            <path
                               d="M 0,0 H 59.897301 V 77.582947 H 0 Z"
                               style="fill:url(#linearGradient918);fill-opacity:1;fill-rule:nonzero;stroke:none"
                               id="path994" />
                          </g>
                        </g>
                      </g>
                    </g>
                  </g>
                </g>
                <g
                   transform="matrix(4,0,0,4,-2148.6296,-229.73242)"
                   id="g1010">
                  <path
                     d="m 1158.0122,173.045 c -29.735,0 -53.824,24.10209 -53.824,53.82399 0,7.36125 1.4777,14.36627 4.1425,20.75126 -5.8311,-4.30061 -13.0339,-6.83352 -20.8305,-6.83352 -18.8912,0 -34.2996,14.88078 -35.1308,33.57402 -3.9443,-4.67005 -8.865,-8.49573 -14.4321,-11.17377 -5.7121,-2.74396 -12.0972,-4.27426 -18.8515,-4.27426 -17.1895,0 -32.05705,9.9469 -39.1544,24.39233 -2.86274,5.80454 -4.45899,12.32145 -4.45899,19.22098 0,16.19995 8.83881,30.32874 21.95191,37.86148 -21.50336,7.05777 -37.03052,27.26816 -37.03052,51.13278 0,3.69379 0.36938,7.28205 1.08185,10.76481 -1.71509,-0.14515 -3.4433,-0.22428 -5.19782,-0.22428 -16.66156,0 -31.79303,6.49057 -43.03277,17.08386 -0.47498,-29.32617 -24.37909,-52.95333 -53.81079,-52.95333 -21.67475,0 -40.34168,12.82278 -48.87696,31.29177 -9.815,-6.35858 -21.51642,-10.06555 -34.08862,-10.06555 -4.66998,0 -9.2345,0.52765 -13.6142,1.49066 0.9762,-3.23205 1.51697,-6.67526 1.51697,-10.23706 0,-19.41888 -15.75146,-35.1571 -35.17023,-35.1571 -13.23169,0 -24.76159,7.32162 -30.76404,18.12601 -5.26373,-2.08442 -10.87042,-3.50913 -16.72772,-4.10279 1.04224,-4.51172 1.59626,-9.2081 1.59626,-14.02322 0,-34.69544 -28.12568,-62.82108 -62.80787,-62.82108 -2.84942,0 -5.65948,0.21106 -8.40338,0.58045 2.57251,-5.97605 4.01044,-12.55893 4.01044,-19.48484 0,-27.24177 -22.08374,-49.32543 -49.3255,-49.32543 -21.76703,0 -40.23609,14.10243 -46.77942,33.66641 v 358.36487 h 659.6078 V 177.56993 c -6.6093,-2.91547 -13.9177,-4.52493 -21.5956,-4.52493 z"
                     style="fill:url(#linearGradient930);fill-opacity:0.702;fill-rule:nonzero;stroke:none"
                     id="path1008" />
                </g>
                <g
                   transform="matrix(4,0,0,4,-2148.6296,-68.720215)"
                   id="g1014">
                  <path
                     d="m 1167.26,299.14499 c -25.7246,0 -47.2807,17.82263 -53.0193,41.79278 -1.6095,0.0264 -3.2057,0.1055 -4.7756,0.2638 -9.7621,-16.95191 -28.0465,-28.37631 -49.0088,-28.37631 -31.2125,0 -56.5152,25.30255 -56.5152,56.51522 0,15.17096 5.9893,28.93039 15.7119,39.08829 -16.9387,1.87335 -30.11772,16.2396 -30.11772,33.67966 0,5.89685 1.5039,11.45077 4.1687,16.27911 -0.77826,-0.0264 -1.55664,-0.0528 -2.3349,-0.0528 -7.05786,0 -13.83856,1.12134 -20.19727,3.1661 -4.32702,-20.36871 -22.41351,-35.64517 -44.06182,-35.64517 -24.86719,0 -45.03803,20.17078 -45.03803,45.05124 0,6.1211 1.22687,11.95203 3.44318,17.26846 -11.17383,-10.18435 -26.01502,-16.39779 -42.3205,-16.39779 -8.65399,0 -16.89917,1.74133 -24.40546,4.90747 0,-0.22431 0.0131,-0.44852 0.0131,-0.68607 0,-18.11279 -14.6828,-32.79568 -32.78241,-32.79568 -7.08417,0 -13.62744,2.25586 -18.98352,6.06845 -7.65143,-13.95737 -22.4795,-23.41608 -39.51056,-23.41608 -18.78559,0 -34.86682,11.50354 -41.6344,27.83545 1.31915,-3.61471 2.03149,-7.51956 2.03149,-11.5827 0,-17.44006 -13.16565,-31.80631 -30.11761,-33.67966 9.73584,-10.1579 15.71185,-23.91733 15.71185,-39.08829 0,-31.21267 -25.30249,-56.51522 -56.51507,-56.51522 -20.96241,0 -39.24671,11.4244 -49.00898,28.37631 -1.56976,-0.1583 -3.16613,-0.2374 -4.77557,-0.2638 C 558.23083,320.08099 541.26581,303.88095 520,300.04205 v 264.19934 h 659.6078 V 300.54337 c -3.9708,-0.91022 -8.1,-1.39838 -12.3478,-1.39838 z"
                     style="fill:url(#linearGradient942);fill-opacity:0.702;fill-rule:nonzero;stroke:none"
                     id="path1012" />
                </g>
              </g>
            </g>
          </g>
        </g>
      </g>
    </g>
  </g>
</svg>
