<?xml version="1.0" encoding="UTF-8" standalone="no"?>
<svg
   xmlns:dc="http://purl.org/dc/elements/1.1/"
   xmlns:cc="http://creativecommons.org/ns#"
   xmlns:rdf="http://www.w3.org/1999/02/22-rdf-syntax-ns#"
   xmlns:svg="http://www.w3.org/2000/svg"
   xmlns="http://www.w3.org/2000/svg"
   xmlns:sodipodi="http://sodipodi.sourceforge.net/DTD/sodipodi-0.dtd"
   xmlns:inkscape="http://www.inkscape.org/namespaces/inkscape"
   version="1.1"
   id="svg19397"
   xml:space="preserve"
   width="544.29291"
   height="614.84601"
   viewBox="0 0 544.29291 614.84601"
   sodipodi:docname="gfx-explore-cloud.svg"
   inkscape:version="1.0.1 (3bc2e813f5, 2020-09-07)"><metadata
     id="metadata19403"><rdf:RDF><cc:Work
         rdf:about=""><dc:format>image/svg+xml</dc:format><dc:type
           rdf:resource="http://purl.org/dc/dcmitype/StillImage" /><dc:title></dc:title></cc:Work></rdf:RDF></metadata><defs
     id="defs19401"><clipPath
       clipPathUnits="userSpaceOnUse"
       id="clipPath19413"><path
         d="M 0,500 H 500 V 0 H 0 Z"
         id="path19411" /></clipPath><clipPath
       clipPathUnits="userSpaceOnUse"
       id="clipPath19425"><path
         d="m 202.331,488.398 c 0,0 -39.52,-8.391 -49.524,-50.906 v 0 c -21.377,1.635 -43.934,-13.697 -52.174,-40.668 v 0 c -13.801,-45.165 5.018,-116.677 63.984,-143.023 v 0 c 58.966,-26.346 104.131,-28.856 143.023,-21.327 v 0 c 0,0 39.52,8.39 49.524,50.904 v 0 c 21.378,-1.635 43.934,13.698 52.174,40.669 v 0 c 13.801,45.164 -5.018,116.676 -63.985,143.022 v 0 c -40.728,18.199 -74.876,25.024 -104.918,25.025 v 0 c -13.45,0 -26.076,-1.368 -38.104,-3.696"
         id="path19423" /></clipPath><clipPath
       clipPathUnits="userSpaceOnUse"
       id="clipPath19433"><path
         d="M 77.4981,471.615 H 434.418 V 199.963 H 77.4981 Z"
         id="path19431" /></clipPath><linearGradient
       x1="0"
       y1="0"
       x2="1"
       y2="0"
       gradientUnits="userSpaceOnUse"
       gradientTransform="matrix(-12.110657,-232.95209,-232.95209,12.110657,262.83954,454.13904)"
       spreadMethod="pad"
       id="linearGradient19449"><stop
         style="stop-opacity:1;stop-color:#e8f7fb"
         offset="0"
         id="stop19439" /><stop
         style="stop-opacity:1;stop-color:#e8f7fb"
         offset="0.0306122"
         id="stop19441" /><stop
         style="stop-opacity:1;stop-color:#cdf0f8"
         offset="0.469388"
         id="stop19443" /><stop
         style="stop-opacity:1;stop-color:#64cfe8"
         offset="0.647959"
         id="stop19445" /><stop
         style="stop-opacity:1;stop-color:#64cfe8"
         offset="1"
         id="stop19447" /></linearGradient><linearGradient
       x1="0"
       y1="0"
       x2="1"
       y2="0"
       gradientUnits="userSpaceOnUse"
       gradientTransform="matrix(-36.051392,-31.070717,28.950357,-38.691837,246.56581,367.77917)"
       spreadMethod="pad"
       id="linearGradient19499"><stop
         style="stop-opacity:1;stop-color:#699ad7"
         offset="0"
         id="stop19493" /><stop
         style="stop-opacity:1;stop-color:#7eb1dd"
         offset="0.243"
         id="stop19495" /><stop
         style="stop-opacity:1;stop-color:#7ebae4"
         offset="1"
         id="stop19497" /></linearGradient><linearGradient
       x1="0"
       y1="0"
       x2="1"
       y2="0"
       gradientUnits="userSpaceOnUse"
       gradientTransform="matrix(45.645615,-14.794887,27.899918,24.205151,246.27446,333.70825)"
       spreadMethod="pad"
       id="linearGradient19521"><stop
         style="stop-opacity:1;stop-color:#699ad7"
         offset="0"
         id="stop19515" /><stop
         style="stop-opacity:1;stop-color:#7eb1dd"
         offset="0.243"
         id="stop19517" /><stop
         style="stop-opacity:1;stop-color:#7ebae4"
         offset="1"
         id="stop19519" /></linearGradient><linearGradient
       x1="0"
       y1="0"
       x2="1"
       y2="0"
       gradientUnits="userSpaceOnUse"
       gradientTransform="matrix(-7.0965414,42.988415,-33.181995,-9.1938133,273.98465,351.58542)"
       spreadMethod="pad"
       id="linearGradient19543"><stop
         style="stop-opacity:1;stop-color:#699ad7"
         offset="0"
         id="stop19537" /><stop
         style="stop-opacity:1;stop-color:#7eb1dd"
         offset="0.243"
         id="stop19539" /><stop
         style="stop-opacity:1;stop-color:#7ebae4"
         offset="1"
         id="stop19541" /></linearGradient><clipPath
       clipPathUnits="userSpaceOnUse"
       id="clipPath19553"><path
         d="m 202.331,488.398 c 0,0 -39.52,-8.391 -49.524,-50.906 v 0 c -21.377,1.635 -43.934,-13.697 -52.174,-40.668 v 0 c -13.801,-45.165 5.018,-116.677 63.984,-143.023 v 0 c 58.966,-26.346 104.131,-28.856 143.023,-21.327 v 0 c 0,0 39.52,8.39 49.524,50.904 v 0 c 21.378,-1.635 43.934,13.698 52.174,40.669 v 0 c 13.801,45.164 -5.018,116.676 -63.985,143.022 v 0 c -40.728,18.199 -74.876,25.024 -104.918,25.025 v 0 c -13.45,0 -26.076,-1.368 -38.104,-3.696"
         id="path19551" /></clipPath><linearGradient
       x1="0"
       y1="0"
       x2="1"
       y2="0"
       gradientUnits="userSpaceOnUse"
       gradientTransform="matrix(-45.403839,19.43759,-36.651867,-24.079025,265.33643,364.75574)"
       spreadMethod="pad"
       id="linearGradient19577"><stop
         style="stop-opacity:1;stop-color:#415e9a"
         offset="0"
         id="stop19571" /><stop
         style="stop-opacity:1;stop-color:#4a6baf"
         offset="0.276"
         id="stop19573" /><stop
         style="stop-opacity:1;stop-color:#5277c3"
         offset="1"
         id="stop19575" /></linearGradient><linearGradient
       x1="0"
       y1="0"
       x2="1"
       y2="0"
       gradientUnits="userSpaceOnUse"
       gradientTransform="matrix(38.067276,28.26515,-26.327265,40.869316,263.81808,337.14047)"
       spreadMethod="pad"
       id="linearGradient19599"><stop
         style="stop-opacity:1;stop-color:#415e9a"
         offset="0"
         id="stop19593" /><stop
         style="stop-opacity:1;stop-color:#4a6baf"
         offset="0.232"
         id="stop19595" /><stop
         style="stop-opacity:1;stop-color:#5277c3"
         offset="1"
         id="stop19597" /></linearGradient><linearGradient
       x1="0"
       y1="0"
       x2="1"
       y2="0"
       gradientUnits="userSpaceOnUse"
       gradientTransform="matrix(7.843998,-45.843109,35.395237,10.159368,237.71794,350.95718)"
       spreadMethod="pad"
       id="linearGradient19621"><stop
         style="stop-opacity:1;stop-color:#415e9a"
         offset="0"
         id="stop19615" /><stop
         style="stop-opacity:1;stop-color:#4a6baf"
         offset="0.276"
         id="stop19617" /><stop
         style="stop-opacity:1;stop-color:#5277c3"
         offset="1"
         id="stop19619" /></linearGradient><linearGradient
       x1="0"
       y1="0"
       x2="1"
       y2="0"
       gradientUnits="userSpaceOnUse"
       gradientTransform="matrix(7.8434629,-45.885094,35.425224,10.159371,240.78709,351.50027)"
       spreadMethod="pad"
       id="linearGradient19643"><stop
         style="stop-opacity:1;stop-color:#415e9a"
         offset="0"
         id="stop19637" /><stop
         style="stop-opacity:1;stop-color:#4a6baf"
         offset="0.276"
         id="stop19639" /><stop
         style="stop-opacity:1;stop-color:#5277c3"
         offset="1"
         id="stop19641" /></linearGradient><clipPath
       clipPathUnits="userSpaceOnUse"
       id="clipPath19653"><path
         d="m 202.331,488.398 c 0,0 -39.52,-8.391 -49.524,-50.906 v 0 c -21.377,1.635 -43.934,-13.697 -52.174,-40.668 v 0 c -13.801,-45.165 5.018,-116.677 63.984,-143.023 v 0 c 58.966,-26.346 104.131,-28.856 143.023,-21.327 v 0 c 0,0 39.52,8.39 49.524,50.904 v 0 c 21.378,-1.635 43.934,13.698 52.174,40.669 v 0 c 13.801,45.164 -5.018,116.676 -63.985,143.022 v 0 c -40.728,18.199 -74.876,25.024 -104.918,25.025 v 0 c -13.45,0 -26.076,-1.368 -38.104,-3.696"
         id="path19651" /></clipPath><clipPath
       clipPathUnits="userSpaceOnUse"
       id="clipPath19665"><path
         d="M 77.4981,343.409 H 434.418 V 199.963 H 77.4981 Z"
         id="path19663" /></clipPath><linearGradient
       x1="0"
       y1="0"
       x2="1"
       y2="0"
       gradientUnits="userSpaceOnUse"
       gradientTransform="matrix(0,-101.43639,-101.43639,0,255.95813,231.06825)"
       spreadMethod="pad"
       id="linearGradient19681"><stop
         style="stop-opacity:1;stop-color:#e8f7fb"
         offset="0"
         id="stop19671" /><stop
         style="stop-opacity:1;stop-color:#e8f7fb"
         offset="0.0306122"
         id="stop19673" /><stop
         style="stop-opacity:1;stop-color:#cdf0f8"
         offset="0.469388"
         id="stop19675" /><stop
         style="stop-opacity:1;stop-color:#99e1f0"
         offset="0.841837"
         id="stop19677" /><stop
         style="stop-opacity:1;stop-color:#99e1f0"
         offset="1"
         id="stop19679" /></linearGradient><clipPath
       clipPathUnits="userSpaceOnUse"
       id="clipPath19703"><path
         d="M 0,500 H 500 V 0 H 0 Z"
         id="path19701" /></clipPath><linearGradient
       x1="0"
       y1="0"
       x2="1"
       y2="0"
       gradientUnits="userSpaceOnUse"
       gradientTransform="matrix(39.81316,42.813152,42.813152,-39.81316,202.37833,143.58569)"
       spreadMethod="pad"
       id="linearGradient19731"><stop
         style="stop-opacity:1;stop-color:#415e9a"
         offset="0"
         id="stop19725" /><stop
         style="stop-opacity:1;stop-color:#4a6baf"
         offset="0.276"
         id="stop19727" /><stop
         style="stop-opacity:1;stop-color:#5277c3"
         offset="1"
         id="stop19729" /></linearGradient><clipPath
       clipPathUnits="userSpaceOnUse"
       id="clipPath19741"><path
         d="M 0,500 H 500 V 0 H 0 Z"
         id="path19739" /></clipPath><linearGradient
       x1="0"
       y1="0"
       x2="1"
       y2="0"
       gradientUnits="userSpaceOnUse"
       gradientTransform="matrix(-0.7832557,0.5732386,-0.5293041,-0.8365551,320.79581,167.88399)"
       spreadMethod="pad"
       id="linearGradient19769"><stop
         style="stop-opacity:1;stop-color:#699ad7"
         offset="0"
         id="stop19763" /><stop
         style="stop-opacity:1;stop-color:#7eb1dd"
         offset="0.243"
         id="stop19765" /><stop
         style="stop-opacity:1;stop-color:#7ebae4"
         offset="1"
         id="stop19767" /></linearGradient><linearGradient
       x1="0"
       y1="0"
       x2="1"
       y2="0"
       gradientUnits="userSpaceOnUse"
       gradientTransform="matrix(0.7520704,0.5127836,-0.9188152,0.3691214,252.36224,211.0432)"
       spreadMethod="pad"
       id="linearGradient19791"><stop
         style="stop-opacity:1;stop-color:#699ad7"
         offset="0"
         id="stop19785" /><stop
         style="stop-opacity:1;stop-color:#7eb1dd"
         offset="0.243"
         id="stop19787" /><stop
         style="stop-opacity:1;stop-color:#7ebae4"
         offset="1"
         id="stop19789" /></linearGradient><linearGradient
       x1="0"
       y1="0"
       x2="1"
       y2="0"
       gradientUnits="userSpaceOnUse"
       gradientTransform="matrix(-0.1422057,-0.8522136,0.6621809,-0.2045109,250.73627,198.64368)"
       spreadMethod="pad"
       id="linearGradient19813"><stop
         style="stop-opacity:1;stop-color:#699ad7"
         offset="0"
         id="stop19807" /><stop
         style="stop-opacity:1;stop-color:#7eb1dd"
         offset="0.243"
         id="stop19809" /><stop
         style="stop-opacity:1;stop-color:#7ebae4"
         offset="1"
         id="stop19811" /></linearGradient><clipPath
       clipPathUnits="userSpaceOnUse"
       id="clipPath19823"><path
         d="M 0,500 H 500 V 0 H 0 Z"
         id="path19821" /></clipPath><linearGradient
       x1="0"
       y1="0"
       x2="1"
       y2="0"
       gradientUnits="userSpaceOnUse"
       gradientTransform="matrix(-0.7450616,-0.6655399,1.2068137,-0.355923,223.80678,212.98482)"
       spreadMethod="pad"
       id="linearGradient19847"><stop
         style="stop-opacity:1;stop-color:#415e9a"
         offset="0"
         id="stop19841" /><stop
         style="stop-opacity:1;stop-color:#4a6baf"
         offset="0.276"
         id="stop19843" /><stop
         style="stop-opacity:1;stop-color:#5277c3"
         offset="1"
         id="stop19845" /></linearGradient><linearGradient
       x1="0"
       y1="0"
       x2="1"
       y2="0"
       gradientUnits="userSpaceOnUse"
       gradientTransform="matrix(0.8243658,-0.5244935,0.4833695,0.8813115,329.3288,184.65038)"
       spreadMethod="pad"
       id="linearGradient19869"><stop
         style="stop-opacity:1;stop-color:#415e9a"
         offset="0"
         id="stop19863" /><stop
         style="stop-opacity:1;stop-color:#4a6baf"
         offset="0.232"
         id="stop19865" /><stop
         style="stop-opacity:1;stop-color:#5277c3"
         offset="1"
         id="stop19867" /></linearGradient><linearGradient
       x1="0"
       y1="0"
       x2="1"
       y2="0"
       gradientUnits="userSpaceOnUse"
       gradientTransform="matrix(0.1642596,0.900209,-0.7000597,0.2340989,247.68468,200.68431)"
       spreadMethod="pad"
       id="linearGradient19891"><stop
         style="stop-opacity:1;stop-color:#415e9a"
         offset="0"
         id="stop19885" /><stop
         style="stop-opacity:1;stop-color:#4a6baf"
         offset="0.276"
         id="stop19887" /><stop
         style="stop-opacity:1;stop-color:#5277c3"
         offset="1"
         id="stop19889" /></linearGradient><linearGradient
       x1="0"
       y1="0"
       x2="1"
       y2="0"
       gradientUnits="userSpaceOnUse"
       gradientTransform="matrix(0.1514292,0.915251,-0.7112373,0.217918,246.74698,198.79652)"
       spreadMethod="pad"
       id="linearGradient19913"><stop
         style="stop-opacity:1;stop-color:#415e9a"
         offset="0"
         id="stop19907" /><stop
         style="stop-opacity:1;stop-color:#4a6baf"
         offset="0.276"
         id="stop19909" /><stop
         style="stop-opacity:1;stop-color:#5277c3"
         offset="1"
         id="stop19911" /></linearGradient><linearGradient
       x1="0"
       y1="0"
       x2="1"
       y2="0"
       gradientUnits="userSpaceOnUse"
       gradientTransform="matrix(35.974495,38.685234,38.685234,-35.974495,236.20241,93.423904)"
       spreadMethod="pad"
       id="linearGradient19935"><stop
         style="stop-opacity:1;stop-color:#415e9a"
         offset="0"
         id="stop19929" /><stop
         style="stop-opacity:1;stop-color:#4a6baf"
         offset="0.276"
         id="stop19931" /><stop
         style="stop-opacity:1;stop-color:#5277c3"
         offset="1"
         id="stop19933" /></linearGradient><clipPath
       clipPathUnits="userSpaceOnUse"
       id="clipPath19945"><path
         d="M 0,500 H 500 V 0 H 0 Z"
         id="path19943" /></clipPath><clipPath
       clipPathUnits="userSpaceOnUse"
       id="clipPath19953"><path
         d="m 244.784,135.651 h 19.374 V 96.4427 h -19.374 z"
         id="path19951" /></clipPath><linearGradient
       x1="0"
       y1="0"
       x2="1"
       y2="0"
       gradientUnits="userSpaceOnUse"
       gradientTransform="matrix(23.366293,25.126984,25.126984,-23.366293,242.48042,107.76358)"
       spreadMethod="pad"
       id="linearGradient19965"><stop
         style="stop-opacity:1;stop-color:#699ad7"
         offset="0"
         id="stop19959" /><stop
         style="stop-opacity:1;stop-color:#7eb1dd"
         offset="0.243"
         id="stop19961" /><stop
         style="stop-opacity:1;stop-color:#7ebae4"
         offset="1"
         id="stop19963" /></linearGradient><linearGradient
       x1="0"
       y1="0"
       x2="1"
       y2="0"
       gradientUnits="userSpaceOnUse"
       gradientTransform="matrix(17.991335,19.347013,19.347013,-17.991335,245.35786,132.15819)"
       spreadMethod="pad"
       id="linearGradient20007"><stop
         style="stop-opacity:1;stop-color:#415e9a"
         offset="0"
         id="stop20001" /><stop
         style="stop-opacity:1;stop-color:#4a6baf"
         offset="0.276"
         id="stop20003" /><stop
         style="stop-opacity:1;stop-color:#5277c3"
         offset="1"
         id="stop20005" /></linearGradient><clipPath
       clipPathUnits="userSpaceOnUse"
       id="clipPath20017"><path
         d="M 0,500 H 500 V 0 H 0 Z"
         id="path20015" /></clipPath><clipPath
       clipPathUnits="userSpaceOnUse"
       id="clipPath20025"><path
         d="m 225.247,265.457 h 26.24 V 133.78 h -26.24 z"
         id="path20023" /></clipPath><linearGradient
       x1="0"
       y1="0"
       x2="1"
       y2="0"
       gradientUnits="userSpaceOnUse"
       gradientTransform="matrix(66.202599,71.191078,71.191078,-66.202599,212.97485,162.27206)"
       spreadMethod="pad"
       id="linearGradient20037"><stop
         style="stop-opacity:1;stop-color:#699ad7"
         offset="0"
         id="stop20031" /><stop
         style="stop-opacity:1;stop-color:#7eb1dd"
         offset="0.243"
         id="stop20033" /><stop
         style="stop-opacity:1;stop-color:#7ebae4"
         offset="1"
         id="stop20035" /></linearGradient><linearGradient
       x1="0"
       y1="0"
       x2="1"
       y2="0"
       gradientUnits="userSpaceOnUse"
       gradientTransform="matrix(40.820816,43.896732,43.896732,-40.820816,233.9995,140.63118)"
       spreadMethod="pad"
       id="linearGradient20071"><stop
         style="stop-opacity:1;stop-color:#415e9a"
         offset="0"
         id="stop20065" /><stop
         style="stop-opacity:1;stop-color:#4a6baf"
         offset="0.276"
         id="stop20067" /><stop
         style="stop-opacity:1;stop-color:#5277c3"
         offset="1"
         id="stop20069" /></linearGradient><linearGradient
       x1="0"
       y1="0"
       x2="1"
       y2="0"
       gradientUnits="userSpaceOnUse"
       gradientTransform="matrix(19.334871,20.791788,20.791788,-19.334871,244.95158,246.85341)"
       spreadMethod="pad"
       id="linearGradient20093"><stop
         style="stop-opacity:1;stop-color:#415e9a"
         offset="0"
         id="stop20087" /><stop
         style="stop-opacity:1;stop-color:#4a6baf"
         offset="0.276"
         id="stop20089" /><stop
         style="stop-opacity:1;stop-color:#5277c3"
         offset="1"
         id="stop20091" /></linearGradient><linearGradient
       x1="0"
       y1="0"
       x2="1"
       y2="0"
       gradientUnits="userSpaceOnUse"
       gradientTransform="matrix(4.3703609,4.6996751,4.6996751,-4.3703609,257.64642,262.62048)"
       spreadMethod="pad"
       id="linearGradient20115"><stop
         style="stop-opacity:1;stop-color:#415e9a"
         offset="0"
         id="stop20109" /><stop
         style="stop-opacity:1;stop-color:#4a6baf"
         offset="0.276"
         id="stop20111" /><stop
         style="stop-opacity:1;stop-color:#5277c3"
         offset="1"
         id="stop20113" /></linearGradient><clipPath
       clipPathUnits="userSpaceOnUse"
       id="clipPath20125"><path
         d="M 0,500 H 500 V 0 H 0 Z"
         id="path20123" /></clipPath><clipPath
       clipPathUnits="userSpaceOnUse"
       id="clipPath20133"><path
         d="m 237.157,275.43 h 34.022 v -22.762 h -34.022 z"
         id="path20131" /></clipPath><linearGradient
       x1="0"
       y1="0"
       x2="1"
       y2="0"
       gradientUnits="userSpaceOnUse"
       gradientTransform="matrix(18.838882,20.258425,20.258425,-18.838882,244.95158,246.85341)"
       spreadMethod="pad"
       id="linearGradient20145"><stop
         style="stop-opacity:1;stop-color:#415e9a"
         offset="0"
         id="stop20139" /><stop
         style="stop-opacity:1;stop-color:#4a6baf"
         offset="0.276"
         id="stop20141" /><stop
         style="stop-opacity:1;stop-color:#5277c3"
         offset="1"
         id="stop20143" /></linearGradient><linearGradient
       x1="0"
       y1="0"
       x2="1"
       y2="0"
       gradientUnits="userSpaceOnUse"
       gradientTransform="matrix(34.022907,36.58659,36.58659,-34.022907,269.992,146.65216)"
       spreadMethod="pad"
       id="linearGradient20179"><stop
         style="stop-opacity:1;stop-color:#415e9a"
         offset="0"
         id="stop20173" /><stop
         style="stop-opacity:1;stop-color:#4a6baf"
         offset="0.276"
         id="stop20175" /><stop
         style="stop-opacity:1;stop-color:#5277c3"
         offset="1"
         id="stop20177" /></linearGradient><clipPath
       clipPathUnits="userSpaceOnUse"
       id="clipPath20189"><path
         d="M 0,500 H 500 V 0 H 0 Z"
         id="path20187" /></clipPath><linearGradient
       x1="0"
       y1="0"
       x2="1"
       y2="0"
       gradientUnits="userSpaceOnUse"
       gradientTransform="matrix(30.118164,0,0,-30.118164,309.9722,33.283989)"
       spreadMethod="pad"
       id="linearGradient20257"><stop
         style="stop-opacity:1;stop-color:#415e9a"
         offset="0"
         id="stop20251" /><stop
         style="stop-opacity:1;stop-color:#4a6baf"
         offset="0.276"
         id="stop20253" /><stop
         style="stop-opacity:1;stop-color:#5277c3"
         offset="1"
         id="stop20255" /></linearGradient><linearGradient
       x1="0"
       y1="0"
       x2="1"
       y2="0"
       gradientUnits="userSpaceOnUse"
       gradientTransform="matrix(31.344727,0,0,-31.344727,341.95169,33.239067)"
       spreadMethod="pad"
       id="linearGradient20279"><stop
         style="stop-opacity:1;stop-color:#415e9a"
         offset="0"
         id="stop20273" /><stop
         style="stop-opacity:1;stop-color:#4a6baf"
         offset="0.276"
         id="stop20275" /><stop
         style="stop-opacity:1;stop-color:#5277c3"
         offset="1"
         id="stop20277" /></linearGradient><clipPath
       clipPathUnits="userSpaceOnUse"
       id="clipPath20289"><path
         d="M 0,500 H 500 V 0 H 0 Z"
         id="path20287" /></clipPath></defs><sodipodi:namedview
     pagecolor="#ffffff"
     bordercolor="#666666"
     borderopacity="1"
     objecttolerance="10"
     gridtolerance="10"
     guidetolerance="10"
     inkscape:pageopacity="0"
     inkscape:pageshadow="2"
     inkscape:window-width="1917"
     inkscape:window-height="1025"
     id="namedview19399"
     showgrid="false"
     inkscape:zoom="1.3245"
     inkscape:cx="257.76601"
     inkscape:cy="477.70279"
     inkscape:window-x="0"
     inkscape:window-y="24"
     inkscape:window-maximized="0"
     inkscape:current-layer="g19405" /><g
     id="g19405"
     inkscape:groupmode="layer"
     inkscape:label="Grafika_explore(1)"
     transform="matrix(1.3333333,0,0,-1.3333333,-75.567331,628.81998)"><g
       id="g19407"><g
         id="g19409"
         clip-path="url(#clipPath19413)"><g
           id="g19415"
           transform="translate(304.3174,69.7529)"><path
             d="m 0,0 c 0,0 22.075,5.681 25.089,17.47 3.014,11.788 -17.212,16.456 -44.332,11.866 0,0 -38.132,-5.385 -51.419,3.834 -13.287,9.22 -42.009,1.548 -47.739,-10.669 -5.732,-12.218 7.213,-28.09 40.151,-29.496 C -45.313,-8.401 -20.765,-5.16 0,0"
             style="fill:#f2f8fd;fill-opacity:1;fill-rule:nonzero;stroke:none"
             id="path19417" /></g></g></g><g
       id="g19419"><g
         id="g19421"
         clip-path="url(#clipPath19425)"><g
           id="g19427"><g
             id="g19429" /><g
             id="g19463"><g
               clip-path="url(#clipPath19433)"
               opacity="0.5"
               id="g19461"><g
                 id="g19459"><g
                   id="g19457"><g
                     id="g19455"><g
                       id="g19453"><path
                         d="m 419.685,471.615 c -12.478,0 -22.601,-10.115 -22.601,-22.6 0,-5.225 1.777,-10.036 4.755,-13.863 -0.286,-0.235 -0.565,-0.471 -0.836,-0.721 -4.39,2.449 -9.437,3.848 -14.819,3.848 -16.889,0 -30.588,-13.692 -30.588,-30.581 0,-8.209 3.241,-15.655 8.502,-21.144 -2.263,-0.25 -4.398,-0.914 -6.339,-1.906 -5.91,-3.048 -9.958,-9.209 -9.958,-16.326 0,-3.191 0.821,-6.196 2.256,-8.808 -0.421,0.014 -0.835,0.028 -1.264,0.028 -3.812,0 -7.481,-0.606 -10.929,-1.713 -1.442,6.781 -5.696,12.521 -11.493,15.933 -3.619,2.134 -7.831,3.355 -12.342,3.355 -13.463,0 -24.371,-10.915 -24.371,-24.378 0,-3.305 0.664,-6.46 1.857,-9.344 -6.039,5.518 -14.078,8.88 -22.901,8.88 -4.682,0 -9.143,-0.949 -13.198,-2.662 0,0.121 0.007,0.242 0.007,0.371 0,9.801 -7.945,17.746 -17.746,17.746 -3.826,0 -7.374,-1.221 -10.273,-3.284 -4.139,7.553 -12.156,12.671 -21.379,12.671 -10.158,0 -18.867,-6.225 -22.522,-15.062 0.714,1.956 1.1,4.069 1.1,6.267 0,9.445 -7.131,17.211 -16.297,18.232 5.26,5.489 8.502,12.935 8.502,21.144 0,16.889 -13.692,30.581 -30.581,30.581 -11.343,0 -21.237,-6.175 -26.52,-15.348 -0.849,0.086 -1.713,0.129 -2.584,0.136 -3.104,12.97 -14.769,22.614 -28.688,22.614 -3.863,0 -7.553,-0.742 -10.937,-2.098 v -84.669 c 0.535,-1.185 -0.242,-3.134 0.442,-4.226 -0.684,-1.235 0.093,-1.706 -0.442,-3.026 V 199.963 h 356.92 v 266.191 c -3.954,3.405 -9.108,5.461 -14.733,5.461"
                         style="fill:url(#linearGradient19449);stroke:none"
                         id="path19451" /></g></g></g></g></g></g></g><g
           id="g19465"
           transform="translate(258.7314,427.8599)"><path
             d="m 0,0 c 0,0 -1.319,0.514 -1.961,-0.441 -0.81,-0.124 -1.175,-0.453 -1.372,-0.623 0.577,0.096 1.83,0.143 2.412,-0.333 0.581,-0.475 1.113,-0.792 2.069,-1.002 -0.336,-0.785 -0.045,-1.447 0.572,-1.915 1.128,-0.856 1.567,-2.932 1.551,-3.463 1.266,0.23 0.881,2.527 0.85,2.729 0.166,-0.259 0.813,0.656 0.585,1.119 0.265,-0.173 0.278,0.489 0.137,0.731 0.288,-0.407 0.279,0.379 0.164,0.558 0.206,-0.062 0.279,0.395 0.148,0.56 0.264,0.073 1.335,-0.346 2.145,-1.285 0.782,-0.683 0.059,0.805 0.059,0.805 0,0 1.574,-0.325 0.546,0.492 0.608,0.07 0.271,0.836 -0.618,1.017 C 7.759,-0.924 5.903,-0.359 4.523,-0.25 4.651,0.533 4.014,0.673 4.014,0.673 4.454,0.687 4.09,1.484 3.853,1.61 4.007,1.815 3.785,2.263 3.141,2.312 3.475,2.449 3.034,2.736 2.556,2.841 2.87,3.025 2.446,3.543 1.771,3.5 1.979,3.786 1.578,4 1.077,4.107 0.761,4.524 -1.052,6.602 -1.933,7.824 -2.813,9.046 -3.239,9.541 -3.543,9.193 -3.847,8.846 -3.865,6.719 -3.213,4.912 -2.561,3.105 -1.535,3.214 -0.591,2.218 0.354,1.223 0,0 0,0"
             style="fill:#e4f6f8;fill-opacity:1;fill-rule:nonzero;stroke:none"
             id="path19467" /></g><g
           id="g19469"
           transform="translate(205.8896,452.2788)"><path
             d="m 0,0 c 0,0 -1.512,-0.217 -1.607,-1.454 -0.696,-0.548 -0.863,-1.049 -0.958,-1.314 0.492,0.397 1.643,1.105 2.442,0.967 0.798,-0.136 1.465,-0.152 2.475,0.158 0.1,-0.915 0.724,-1.383 1.552,-1.495 1.513,-0.204 3.028,-1.92 3.294,-2.427 1.068,0.887 -0.512,2.839 -0.649,3.013 0.293,-0.155 0.414,1.047 -0.046,1.361 0.341,-0.022 0.002,0.606 -0.259,0.758 C 6.73,-0.662 6.306,0.072 6.103,0.179 6.329,0.23 6.154,0.698 5.944,0.783 6.153,0.992 7.381,1.167 8.64,0.715 9.736,0.489 8.269,1.503 8.269,1.503 c 0,0 1.648,0.529 0.251,0.751 C 9.053,2.642 8.33,3.182 7.399,2.881 7.775,3.25 5.733,2.796 4.38,2.166 4.084,2.97 3.411,2.763 3.411,2.763 3.818,3.009 3.052,3.564 2.763,3.556 2.799,3.83 2.353,4.134 1.722,3.837 1.963,4.144 1.396,4.179 0.893,4.023 1.089,4.364 0.416,4.625 -0.194,4.227 -0.152,4.604 -0.642,4.594 -1.169,4.428 -1.687,4.651 -4.491,5.641 -5.967,6.321 -7.443,7.001 -8.104,7.239 -8.205,6.751 -8.306,6.264 -7.195,4.257 -5.624,2.907 -4.053,1.557 -3.146,2.203 -1.732,1.77 -0.317,1.336 0,0 0,0"
             style="fill:#e4f6f8;fill-opacity:1;fill-rule:nonzero;stroke:none"
             id="path19471" /></g><g
           id="g19473"
           transform="translate(326.3564,442.2207)"><path
             d="M 0,0 C 0,0 -1.667,1.373 -2.399,0.498 -3.083,0.727 -3.43,0.382 -3.636,0.276 c 1.005,-0.307 1.502,-0.395 1.677,-1.249 0.175,-0.854 1.271,-1.821 1.748,-2.053 -1.036,-0.549 -1.621,-0.752 -1.722,-1.857 -0.1,-1.106 0.337,-3.164 -0.057,-3.819 0.687,-0.539 1.399,0.295 1.399,0.295 0,0 0.78,-0.455 1.138,0.654 0.389,-0.522 0.688,0.307 0.722,0.906 0.365,-0.305 0.552,0.476 0.584,0.794 0.552,0.014 0.576,0.9 0.576,0.9 0.28,-0.469 0.509,0.753 0.509,0.753 0,0 1.316,-0.946 1.744,-2.23 0.442,-0.728 0.964,0.506 0.659,0.987 0.456,-0.169 0.404,0.728 0.007,1.177 0.549,-0.241 1.082,0.911 0.006,1.228 -1.078,0.318 -2.261,0.943 -2.4,1.292 -0.139,0.349 0.207,0.797 -0.229,1.06 0.613,0.524 0.317,1.129 0.078,1.219 C 3.058,0.646 2.929,1.015 2.628,1.136 3.028,1.377 2.111,2.079 2.049,2.109 2.493,2.125 2.104,2.698 1.938,2.778 2.153,2.905 1.726,3.292 1.58,3.362 1.91,3.407 1.83,3.984 1.561,4.167 1.626,4.725 1.312,5.03 1.22,5.05 1.428,5.796 1.392,6.197 1.062,6.101 1.097,6.648 1.048,7.287 0.781,7.212 0.962,7.637 0.763,8.708 0.303,8.393 0.357,8.981 -0.102,9.41 -0.355,9.045 -0.177,9.625 -0.842,10.051 -0.967,10.111 -1.428,8.95 -1.885,7.479 -2.27,6.05 -2.655,4.622 -1.449,3.832 -0.753,2.571 -0.057,1.31 0.128,0.579 0,0"
             style="fill:#e4f6f8;fill-opacity:1;fill-rule:nonzero;stroke:none"
             id="path19475" /></g><g
           id="g19477"
           transform="translate(236.6152,350.0884)"><path
             d="M 0,0 24.176,-41.876 13.073,-41.981 6.619,-30.73 0.12,-41.921 H -5.4 l -2.827,4.885 9.261,15.922 -6.574,11.44 z"
             style="fill:#5277c3;fill-opacity:1;fill-rule:evenodd;stroke:none"
             id="path19479" /></g></g></g><g
       id="g19481"><g
         id="g19483"><g
           id="g19489"><g
             id="g19491"><path
               d="m 234.193,367.303 -6.622,-11.413 -18.428,0.057 -2.819,-4.884 2.772,-4.78 12.94,-0.033 -6.517,-11.216 5.644,-9.57 24.179,41.875 z"
               style="fill:url(#linearGradient19499);stroke:none"
               id="path19501" /></g></g></g></g><g
       id="g19503"><g
         id="g19505"><g
           id="g19511"><g
             id="g19513"><path
               d="m 247.195,333.864 5.6,-9.627 13.194,-0.027 9.158,-15.987 h 5.645 l 2.763,4.778 -6.44,11.224 12.969,-0.035 5.465,9.674 z"
               style="fill:url(#linearGradient19521);stroke:none"
               id="path19523" /></g></g></g></g><g
       id="g19525"><g
         id="g19527"><g
           id="g19533"><g
             id="g19535"><path
               d="m 251.165,394.09 24.174,-41.877 5.544,9.672 -6.575,11.439 9.261,15.925 -2.826,4.885 h -5.519 l -6.502,-11.19 -6.455,11.251 z"
               style="fill:url(#linearGradient19543);stroke:none"
               id="path19545" /></g></g></g></g><g
       id="g19547"><g
         id="g19549"
         clip-path="url(#clipPath19553)"><g
           id="g19555"
           transform="translate(236.6152,350.0884)"><path
             d="M 0,0 24.176,-41.876 13.073,-41.981 6.619,-30.73 0.12,-41.921 H -5.4 l -2.827,4.885 9.261,15.922 -6.574,11.44 z"
             style="fill:#5277c3;fill-opacity:1;fill-rule:evenodd;stroke:none"
             id="path19557" /></g></g></g><g
       id="g19559"><g
         id="g19561"><g
           id="g19567"><g
             id="g19569"><path
               d="m 231.099,394.185 -2.761,-4.78 6.439,-11.224 -12.971,0.035 -5.465,-9.674 h 48.353 l -5.596,9.63 -13.193,0.026 -9.161,15.987 z"
               style="fill:url(#linearGradient19577);stroke:none"
               id="path19579" /></g></g></g></g><g
       id="g19581"><g
         id="g19583"><g
           id="g19589"><g
             id="g19591"><path
               d="m 266.582,334.972 11.14,0.033 6.618,11.413 18.43,-0.057 2.815,4.884 -2.758,4.782 -12.941,0.034 6.517,11.215 -5.644,9.57 z"
               style="fill:url(#linearGradient19599);stroke:none"
               id="path19601" /></g></g></g></g><g
       id="g19603"><g
         id="g19605"><g
           id="g19611"><g
             id="g19613"><path
               d="m 231.093,340.443 6.575,-11.44 -9.262,-15.922 2.827,-4.885 h 5.52 l 6.51,11.189 6.455,-11.251 11.101,0.104 -24.175,41.877 z"
               style="fill:url(#linearGradient19621);stroke:none"
               id="path19623" /></g></g></g></g><g
       id="g19625"><g
         id="g19627"><g
           id="g19633"><g
             id="g19635"><path
               d="m 231.093,340.443 6.575,-11.44 -9.262,-15.922 2.827,-4.885 h 5.52 l 6.51,11.189 6.455,-11.251 11.099,0.104 v 0.003 l -24.173,41.874 z"
               style="fill:url(#linearGradient19643);stroke:none"
               id="path19645" /></g></g></g></g><g
       id="g19647"><g
         id="g19649"
         clip-path="url(#clipPath19653)"><g
           id="g19655"
           transform="translate(422.7324,433.4248)"><path
             d="m 0,0 c -16.09,0 -29.124,-13.042 -29.124,-29.125 0,-3.983 0.799,-7.773 2.241,-11.229 -3.155,2.328 -7.053,3.698 -11.271,3.698 -10.223,0 -18.561,-8.052 -19.01,-18.167 -2.135,2.527 -4.797,4.597 -7.81,6.046 -3.09,1.485 -6.546,2.313 -10.201,2.313 -9.301,0 -17.346,-5.382 -21.186,-13.199 -1.549,-3.141 -2.412,-6.667 -2.412,-10.4 0,-8.767 4.782,-16.412 11.877,-20.488 -11.635,-3.819 -20.037,-14.755 -20.037,-27.668 0,-1.999 0.2,-3.941 0.585,-5.825 -0.927,0.078 -1.863,0.121 -2.812,0.121 -9.016,0 -17.204,-3.512 -23.285,-9.244 -0.258,15.869 -13.193,28.653 -29.118,28.653 -11.729,0 -21.83,-6.938 -26.448,-16.932 -5.311,3.441 -11.642,5.447 -18.446,5.447 -2.526,0 -4.996,-0.286 -7.366,-0.807 0.528,1.749 0.82,3.612 0.82,5.539 0,10.508 -8.522,19.024 -19.03,19.024 -7.16,0 -13.4,-3.962 -16.648,-9.808 -2.847,1.128 -5.881,1.899 -9.05,2.22 0.563,2.442 0.863,4.983 0.863,7.588 0,18.774 -15.219,33.993 -33.986,33.993 -1.542,0 -3.062,-0.114 -4.547,-0.313 1.392,3.233 2.17,6.795 2.17,10.543 0,14.741 -11.95,26.69 -26.691,26.69 -11.778,0 -21.771,-7.63 -25.312,-18.217 V -233.462 H 11.686 V -2.449 C 8.109,-0.871 4.154,0 0,0"
             style="fill:#f2f8fd;fill-opacity:1;fill-rule:nonzero;stroke:none"
             id="path19657" /></g><g
           id="g19659"><g
             id="g19661" /><g
             id="g19695"><g
               clip-path="url(#clipPath19665)"
               opacity="0.699997"
               id="g19693"><g
                 id="g19691"><g
                   id="g19689"><g
                     id="g19687"><g
                       id="g19685"><path
                         d="m 427.736,343.409 c -13.92,0 -25.584,-9.643 -28.688,-22.614 -0.871,-0.014 -1.736,-0.057 -2.585,-0.143 -5.282,9.173 -15.176,15.355 -26.519,15.355 -16.889,0 -30.581,-13.692 -30.581,-30.581 0,-8.209 3.241,-15.655 8.502,-21.151 -9.166,-1.014 -16.297,-8.788 -16.297,-18.224 0,-3.191 0.814,-6.197 2.256,-8.809 -0.422,0.014 -0.843,0.029 -1.263,0.029 -3.82,0 -7.489,-0.607 -10.929,-1.714 -2.342,11.022 -12.129,19.288 -23.843,19.288 -13.456,0 -24.37,-10.914 -24.37,-24.378 0,-3.312 0.664,-6.467 1.863,-9.344 -6.047,5.511 -14.077,8.873 -22.9,8.873 -4.683,0 -9.145,-0.942 -13.206,-2.655 0,0.121 0.007,0.243 0.007,0.371 0,9.801 -7.945,17.746 -17.739,17.746 -3.834,0 -7.374,-1.221 -10.272,-3.284 -4.141,7.553 -12.164,12.671 -21.38,12.671 -10.165,0 -18.866,-6.224 -22.528,-15.062 0.714,1.956 1.099,4.069 1.099,6.268 0,9.436 -7.125,17.21 -16.298,18.224 5.269,5.496 8.502,12.942 8.502,21.151 0,16.889 -13.691,30.581 -30.581,30.581 -11.342,0 -21.236,-6.182 -26.518,-15.355 -0.85,0.086 -1.714,0.129 -2.584,0.143 -2.698,11.286 -11.879,20.052 -23.386,22.129 V 199.963 h 356.92 v 142.69 c -2.148,0.493 -4.383,0.756 -6.682,0.756"
                         style="fill:url(#linearGradient19681);stroke:none"
                         id="path19683" /></g></g></g></g></g></g></g></g></g><g
       id="g19697"><g
         id="g19699"
         clip-path="url(#clipPath19703)"><g
           id="g19705"
           transform="translate(246.6064,95.4863)"><path
             d="m 0,0 c 0.767,-0.714 0.811,-1.914 0.097,-2.682 -0.713,-0.766 -1.913,-0.81 -2.681,-0.096 -0.767,0.713 -0.811,1.913 -0.098,2.68 C -1.968,0.669 -0.768,0.713 0,0"
             style="fill:#7ebae4;fill-opacity:1;fill-rule:nonzero;stroke:none"
             id="path19707" /></g><g
           id="g19709"
           transform="translate(271.0332,90.6572)"><path
             d="m 0,0 c -1.213,-1.305 -3.254,-1.379 -4.559,-0.165 -1.304,1.213 -1.378,3.254 -0.166,4.559 1.214,1.304 3.255,1.378 4.56,0.165 C 1.14,3.346 1.213,1.305 0,0"
             style="fill:#5277c3;fill-opacity:1;fill-rule:nonzero;stroke:none"
             id="path19711" /></g></g></g><g
       id="g19713"><g
         id="g19715"><g
           id="g19721"><g
             id="g19723"><path
               d="m 225.241,202.154 -6.798,-12.225 -9.08,-16.326 c -0.003,0.786 -0.298,1.415 -0.747,1.865 v 0 c -0.514,0.512 -1.231,0.787 -1.947,0.785 v 0 c -0.987,-0.003 -1.968,-0.527 -2.424,-1.676 v 0 c -2.498,-6.321 -4.478,-15.049 -1.945,-24.05 v 0 c 4.83,-17.157 18.246,-20.945 18.571,-21.034 v 0 c 0.003,-0.002 0.005,-0.002 0.005,-0.002 v 0 c 0,0 -0.165,17.904 5.971,28.959 v 0 c 1.238,2.232 2.731,4.184 4.536,5.653 v 0 c 0,0 -0.115,22.686 -6.14,38.056 v 0 c 0,0 0,-0.002 -0.002,-0.005"
               style="fill:url(#linearGradient19731);stroke:none"
               id="path19733" /></g></g></g></g><g
       id="g19735"><g
         id="g19737"
         clip-path="url(#clipPath19741)"><g
           id="g19743"
           transform="translate(283.3721,200.5186)"><path
             d="m 0,0 c 0.016,-5.766 -0.073,-10.363 -0.542,-14.856 -0.473,-4.491 -1.323,-8.873 -2.833,-14.211 -0.047,-0.171 -0.1,-0.341 -0.16,-0.506 l -2.996,-8.403 -3.312,-9.283 -6.298,-17.662 -25.5,-0.067 -0.725,2.002 -5.666,15.627 -3.361,9.264 c -4.264,11.681 -6.596,24.192 -6.724,36.855 -0.003,0.358 -0.006,0.723 -0.007,1.086 -0.046,17.355 3.029,31.58 7.186,42.867 0.296,0.804 0.598,1.593 0.904,2.367 0.736,1.858 1.499,3.63 2.279,5.317 0.336,0.729 0.674,1.44 1.017,2.135 0.174,0.355 0.347,0.705 0.523,1.051 2.244,4.444 4.577,8.223 6.765,11.355 2.556,3.662 4.916,6.443 6.72,8.38 1.969,2.118 4.966,2.126 6.948,0.018 3.366,-3.575 8.668,-10.056 13.589,-19.663 0.194,-0.379 0.387,-0.764 0.58,-1.153 0.344,-0.69 0.684,-1.396 1.022,-2.119 0.785,-1.681 1.554,-3.448 2.296,-5.299 0.302,-0.75 0.598,-1.515 0.889,-2.295 C -3.193,31.546 -0.046,17.343 0,0"
             style="fill:#f2f8fd;fill-opacity:1;fill-rule:nonzero;stroke:none"
             id="path19745" /></g><g
           id="g19747"
           transform="translate(246.416,224.6201)"><path
             d="m 0,0 9.715,-15.176 -4.133,-0.227 -2.594,4.078 -2.229,-4.278 -2.055,-0.093 -1.136,1.769 3.176,6.086 -2.642,4.147 z"
             style="fill:#5277c3;fill-opacity:1;fill-rule:evenodd;stroke:none"
             id="path19749" /></g></g></g><g
       id="g19751"><g
         id="g19753"><g
           id="g19759"><g
             id="g19761"><path
               d="m 245.218,230.988 -2.271,-4.363 -6.861,-0.293 -0.965,-1.867 1.115,-1.731 4.817,0.208 -2.233,-4.286 2.264,-3.466 8.285,16.001 z"
               style="fill:url(#linearGradient19769);stroke:none"
               id="path19771" /></g></g></g></g><g
       id="g19773"><g
         id="g19775"><g
           id="g19781"><g
             id="g19783"><path
               d="m 250.632,218.762 2.248,-3.489 4.911,0.215 3.682,-5.793 2.102,0.095 0.947,1.827 -2.589,4.068 4.829,0.209 1.869,3.694 z"
               style="fill:url(#linearGradient19791);stroke:none"
               id="path19793" /></g></g></g></g><g
       id="g19795"><g
         id="g19797"><g
           id="g19803"><g
             id="g19805"><path
               d="m 260.035,241.676 -2.228,-4.277 -2.595,4.078 -4.132,-0.229 9.714,-15.176 1.902,3.696 -2.644,4.147 3.174,6.085 -1.135,1.771 z"
               style="fill:url(#linearGradient19813);stroke:none"
               id="path19815" /></g></g></g></g><g
       id="g19817"><g
         id="g19819"
         clip-path="url(#clipPath19823)"><g
           id="g19825"
           transform="translate(246.416,224.6201)"><path
             d="m 0,0 9.715,-15.176 -4.133,-0.227 -2.594,4.078 -2.229,-4.278 -2.055,-0.093 -1.136,1.769 3.176,6.086 -2.642,4.147 z"
             style="fill:#5277c3;fill-opacity:1;fill-rule:evenodd;stroke:none"
             id="path19827" /></g></g></g><g
       id="g19829"><g
         id="g19831"><g
           id="g19837"><g
             id="g19839"><path
               d="m 243.609,240.941 -0.946,-1.826 2.588,-4.069 -4.83,-0.209 -1.867,-3.694 18,0.827 -2.248,3.488 -4.912,-0.215 -3.683,5.794 z"
               style="fill:url(#linearGradient19847);stroke:none"
               id="path19849" /></g></g></g></g><g
       id="g19851"><g
         id="g19853"><g
           id="g19859"><g
             id="g19861"><path
               d="m 257.829,219.505 4.147,0.202 2.268,4.362 6.862,0.293 0.965,1.867 -1.109,1.733 -4.818,-0.208 2.235,4.286 -2.266,3.466 z"
               style="fill:url(#linearGradient19869);stroke:none"
               id="path19871" /></g></g></g></g><g
       id="g19873"><g
         id="g19875"><g
           id="g19881"><g
             id="g19883"><path
               d="m 244.524,220.936 2.643,-4.147 -3.176,-6.084 1.136,-1.77 2.054,0.094 2.233,4.276 2.595,-4.078 4.133,0.228 -9.715,15.176 z"
               style="fill:url(#linearGradient19891);stroke:none"
               id="path19893" /></g></g></g></g><g
       id="g19895"><g
         id="g19897"><g
           id="g19903"><g
             id="g19905"><path
               d="m 244.525,220.936 2.642,-4.146 -3.174,-6.084 v -0.003 l 1.135,-1.768 2.054,0.094 2.232,4.276 2.595,-4.078 0.059,0.003 4.073,0.225 v 0.002 l -9.714,15.174 z"
               style="fill:url(#linearGradient19913);stroke:none"
               id="path19915" /></g></g></g></g><g
       id="g19917"><g
         id="g19919"><g
           id="g19925"><g
             id="g19927"><path
               d="M 254.516,137.776 242.031,136.8 c 0,0 -4.412,-12.243 0.059,-22.279 v 0 c 4.451,-9.995 8.419,-15.823 12.588,-38.158 v 0 c 0.01,-0.048 0.02,-0.096 0.03,-0.148 v 0 c 0.006,0.052 0.015,0.1 0.025,0.148 v 0 c 4.052,22.355 7.989,28.206 12.387,38.223 v 0 c 4.418,10.061 -0.059,22.281 -0.059,22.281 v 0 l -12.491,0.909 z"
               style="fill:url(#linearGradient19935);stroke:none"
               id="path19937" /></g></g></g></g><g
       id="g19939"><g
         id="g19941"
         clip-path="url(#clipPath19945)"><g
           id="g19947"><g
             id="g19949" /><g
             id="g19979"><g
               clip-path="url(#clipPath19953)"
               opacity="0.399994"
               id="g19977"><g
                 id="g19975"><g
                   id="g19973"><g
                     id="g19971"><g
                       id="g19969"><path
                         d="m 254.654,96.442 c -2.055,6.509 -4.123,10.913 -6.257,15.458 -0.694,1.48 -1.412,3.009 -2.126,4.612 -2.347,5.27 -1.41,15.398 -0.601,19.093 l 8.485,0.023 8.723,0.023 c 0.831,-3.685 2.38,-13.796 0.053,-19.095 -0.705,-1.606 -1.415,-3.14 -2.102,-4.622 -2.11,-4.557 -4.153,-8.971 -6.175,-15.492"
                         style="fill:url(#linearGradient19965);stroke:none"
                         id="path19967" /></g></g></g></g></g></g></g><g
           id="g19981"
           transform="translate(254.624,107.9375)"><path
             d="m 0,0 c -0.906,2.475 -1.81,4.749 -2.7,6.991 l -0.011,0.027 c -0.683,1.719 -1.388,3.497 -2.081,5.336 -1.304,3.46 -1.267,10.349 -0.821,15.323 L 4.999,27.705 C 5.679,22.322 5.929,15.623 4.726,12.378 4.041,10.532 3.344,8.748 2.669,7.022 L 2.661,7.002 C 1.783,4.756 0.893,2.479 0,0"
             style="fill:#f2f8fd;fill-opacity:1;fill-rule:nonzero;stroke:none"
             id="path19983" /></g><g
           id="g19985"
           transform="translate(280.04,197.4775)"><path
             d="M 0,0 C -0.654,33.671 -10.806,52.11 -10.964,52.396 1.677,1.72 -8.026,-36.063 -14.77,-53.802 c 0.808,0.143 1.615,0.303 2.421,0.478 C -7.338,-40.094 0.33,-16.949 0,0"
             style="fill:#f4f6f7;fill-opacity:1;fill-rule:nonzero;stroke:none"
             id="path19987" /></g></g></g><g
       id="g19989"><g
         id="g19991"><g
           id="g19997"><g
             id="g19999"><path
               d="m 267.691,144.153 c -0.806,-0.175 -1.613,-0.335 -2.421,-0.477 v 0 c -4.848,-0.862 -9.698,-1.153 -14.548,-0.871 v 0 c -4.109,0.238 -8.22,0.886 -12.332,1.943 v 0 l 3.341,-9.218 c 3.209,-0.986 6.463,-1.561 9.756,-1.749 v 0 c 3.196,-0.186 6.43,-0.009 9.701,0.505 v 0 c 0.919,0.143 1.841,0.313 2.763,0.509 v 0 c 1.09,0.233 2.183,0.5 3.281,0.803 v 0 l 3.293,9.235 c -0.944,-0.247 -1.89,-0.476 -2.834,-0.68"
               style="fill:url(#linearGradient20007);stroke:none"
               id="path20009" /></g></g></g></g><g
       id="g20011"><g
         id="g20013"
         clip-path="url(#clipPath20017)"><g
           id="g20019"><g
             id="g20021" /><g
             id="g20051"><g
               clip-path="url(#clipPath20025)"
               opacity="0.399994"
               id="g20049"><g
                 id="g20047"><g
                   id="g20045"><g
                     id="g20043"><g
                       id="g20041"><path
                         d="m 251.487,133.78 c -3.293,0.189 -6.547,0.764 -9.756,1.75 l -3.34,9.218 -3.051,8.411 -3.361,9.265 c -4.264,11.68 -6.596,24.191 -6.724,36.854 -0.003,0.359 -0.006,0.724 -0.007,1.086 -0.062,23.486 5.592,41.24 11.909,53.738 2.244,4.443 4.577,8.222 6.765,11.355 2.794,-1.972 4.078,-1.243 5.034,-8.166 0,0 -19.704,-33.942 -14.3,-66.013 C 239.606,161.9 248.54,168.6 248.54,168.6 l 2.182,-25.795 z"
                         style="fill:url(#linearGradient20037);stroke:none"
                         id="path20039" /></g></g></g></g></g></g></g></g></g><g
       id="g20053"><g
         id="g20055"><g
           id="g20061"><g
             id="g20063"><path
               d="m 254.303,203.04 c -0.658,-0.002 -1.315,-0.41 -1.47,-1.221 v 0 c -3.026,-15.863 -8.994,-54.984 0.28,-78.753 v 0 c 0.252,-0.638 0.828,-0.959 1.404,-0.957 v 0 c 0.575,0.002 1.151,0.324 1.4,0.965 v 0 c 9.147,23.818 2.972,62.906 -0.138,78.751 v 0 c -0.159,0.81 -0.815,1.215 -1.472,1.215 v 0 c -10e-4,0 -0.002,0 -0.004,0"
               style="fill:url(#linearGradient20071);stroke:none"
               id="path20073" /></g></g></g></g><g
       id="g20075"><g
         id="g20077"><g
           id="g20083"><g
             id="g20085"><path
               d="m 250.642,273.837 c -3.348,-3.594 -8.616,-10.103 -13.485,-19.735 v 0 c 11.346,-1.942 22.687,-1.911 34.022,0.089 v 0 c -4.921,9.608 -10.223,16.088 -13.589,19.664 v 0 c -0.773,0.822 -1.701,1.324 -2.665,1.502 v 0 c -0.266,0.049 -0.533,0.073 -0.801,0.073 v 0 c -1.248,0 -2.494,-0.53 -3.482,-1.593"
               style="fill:url(#linearGradient20093);stroke:none"
               id="path20095" /></g></g></g></g><g
       id="g20097"><g
         id="g20099"><g
           id="g20105"><g
             id="g20107"><path
               d="m 254.832,271.75 c -2.04,-1.965 3.702,-12.481 8.98,-13.461 v 0 c 4.103,-0.763 -1.18,6.485 -3.732,9.743 v 0 c -0.587,0.749 -0.917,1.328 -1.794,2.523 v 0 c -0.868,1.186 -1.576,1.783 -2.264,1.783 v 0 c -0.394,0 -0.782,-0.195 -1.19,-0.588"
               style="fill:url(#linearGradient20115);stroke:none"
               id="path20117" /></g></g></g></g><g
       id="g20119"><g
         id="g20121"
         clip-path="url(#clipPath20125)"><g
           id="g20127"><g
             id="g20129" /><g
             id="g20159"><g
               clip-path="url(#clipPath20133)"
               opacity="0.199997"
               id="g20157"><g
                 id="g20155"><g
                   id="g20153"><g
                     id="g20151"><g
                       id="g20149"><path
                         d="m 271.179,254.192 c -11.335,-2.002 -22.676,-2.032 -34.022,-0.09 4.869,9.632 10.137,16.141 13.485,19.734 1.2,1.292 2.781,1.797 4.283,1.52 -0.743,-0.661 -5.977,-5.532 -5.962,-11.32 0.016,-6.233 8.062,-11.652 22.216,-9.844"
                         style="fill:url(#linearGradient20145);stroke:none"
                         id="path20147" /></g></g></g></g></g></g></g></g></g><g
       id="g20161"><g
         id="g20163"><g
           id="g20169"><g
             id="g20171"><path
               d="m 277.564,164.226 c 1.813,-1.459 3.317,-3.405 4.567,-5.629 v 0 c 6.193,-11.023 6.123,-28.927 6.123,-28.927 v 0 c 0,0 0.002,0 0.006,0.002 v 0 c 0.324,0.09 13.72,3.949 18.46,21.131 v 0 c 2.485,9.014 0.458,17.732 -2.075,24.04 v 0 c -0.46,1.146 -1.446,1.666 -2.431,1.663 v 0 c -0.716,-0.003 -1.432,-0.281 -1.943,-0.796 v 0 c -0.448,-0.451 -0.738,-1.083 -0.737,-1.87 v 0 l -9.166,16.279 -6.864,12.189 c -0.001,0.004 -0.001,0.006 -0.001,0.006 v 0 c -5.943,-15.403 -5.939,-38.088 -5.939,-38.088"
               style="fill:url(#linearGradient20179);stroke:none"
               id="path20181" /></g></g></g></g><g
       id="g20183"><g
         id="g20185"
         clip-path="url(#clipPath20189)"><g
           id="g20191"
           transform="translate(146.124,10.4805)"><path
             d="m 0,0 c -4.331,0 -7.48,1.348 -9.449,4.043 l 4.951,5.179 c 0.605,-0.849 1.341,-1.493 2.204,-1.931 0.862,-0.439 1.976,-0.659 3.338,-0.659 1.969,0 3.399,0.401 4.293,1.204 0.893,0.802 1.341,1.945 1.341,3.43 0,1.059 -0.409,1.87 -1.227,2.43 -0.818,0.56 -2.12,0.84 -3.907,0.84 H 0.272 l 1.09,5.225 h 1.454 c 1.726,0 3.134,0.416 4.225,1.249 1.09,0.833 1.635,1.9 1.635,3.202 0,0.787 -0.25,1.386 -0.749,1.795 -0.5,0.408 -1.19,0.613 -2.068,0.613 -1.12,0 -2.218,-0.296 -3.293,-0.886 -1.075,-0.59 -2.067,-1.431 -2.975,-2.521 l -3.452,5.269 c 0.635,0.636 1.392,1.227 2.271,1.772 0.878,0.545 1.839,1.007 2.884,1.386 1.045,0.378 2.136,0.673 3.271,0.885 1.135,0.212 2.279,0.319 3.43,0.319 2.755,0 4.921,-0.614 6.495,-1.84 1.575,-1.227 2.363,-2.84 2.363,-4.838 0,-1.03 -0.198,-2.029 -0.59,-2.998 -0.395,-0.97 -0.925,-1.848 -1.591,-2.635 -0.666,-0.788 -1.446,-1.454 -2.339,-1.999 -0.894,-0.545 -1.825,-0.908 -2.794,-1.091 1.423,-0.272 2.536,-0.999 3.339,-2.179 0.802,-1.182 1.204,-2.606 1.204,-4.271 0,-1.636 -0.341,-3.135 -1.022,-4.497 C 12.378,5.133 11.417,3.975 10.175,3.021 8.933,2.067 7.449,1.325 5.724,0.795 3.997,0.266 2.089,0 0,0"
             style="fill:#7fb9e3;fill-opacity:1;fill-rule:nonzero;stroke:none"
             id="path20193" /></g><g
           id="g20195"
           transform="translate(163.5664,17.1582)"><path
             d="M 0,0 1.545,7.404 H 7.496 L 5.906,0 Z"
             style="fill:#7fb9e3;fill-opacity:1;fill-rule:nonzero;stroke:none"
             id="path20197" /></g><g
           id="g20199"
           transform="translate(174.3779,17.1582)"><path
             d="M 0,0 1.545,7.404 H 7.496 L 5.906,0 Z"
             style="fill:#7fb9e3;fill-opacity:1;fill-rule:nonzero;stroke:none"
             id="path20201" /></g><g
           id="g20203"
           transform="translate(185.1895,17.1582)"><path
             d="M 0,0 1.545,7.404 H 7.496 L 5.906,0 Z"
             style="fill:#7fb9e3;fill-opacity:1;fill-rule:nonzero;stroke:none"
             id="path20205" /></g><g
           id="g20207"
           transform="translate(196.2725,20.9971)"><path
             d="m 0,0 c 0.455,1.136 1.037,2.172 1.749,3.111 0.712,0.939 1.574,1.794 2.59,2.567 1.014,0.772 2.232,1.507 3.656,2.203 1.606,0.787 2.938,1.446 3.998,1.976 1.06,0.53 1.901,1.014 2.522,1.454 0.62,0.438 1.059,0.863 1.317,1.272 0.257,0.408 0.386,0.87 0.386,1.386 0,0.696 -0.22,1.249 -0.659,1.657 -0.439,0.409 -1.098,0.613 -1.976,0.613 -1.09,0 -2.15,-0.31 -3.18,-0.93 -1.03,-0.621 -2.075,-1.432 -3.134,-2.431 l -3.453,5.36 c 0.606,0.545 1.355,1.075 2.248,1.59 0.894,0.515 1.886,0.977 2.976,1.386 1.091,0.409 2.241,0.733 3.453,0.976 1.21,0.243 2.452,0.364 3.725,0.364 2.755,0 4.83,-0.575 6.223,-1.726 1.393,-1.151 2.089,-2.711 2.089,-4.68 0,-1.21 -0.189,-2.271 -0.567,-3.179 C 23.584,12.061 23.077,11.243 22.441,10.516 21.805,9.789 21.078,9.138 20.261,8.563 19.443,7.987 18.595,7.441 17.717,6.927 16.777,6.412 15.748,5.799 14.628,5.088 13.507,4.376 12.522,3.58 11.675,2.702 H 22.214 L 20.852,-3.839 H -1.135 C -0.832,-2.416 -0.454,-1.136 0,0"
             style="fill:#7fb9e3;fill-opacity:1;fill-rule:nonzero;stroke:none"
             id="path20209" /></g><g
           id="g20211"
           transform="translate(221.5742,17.1582)"><path
             d="M 0,0 1.545,7.404 H 7.496 L 5.906,0 Z"
             style="fill:#7fb9e3;fill-opacity:1;fill-rule:nonzero;stroke:none"
             id="path20213" /></g><g
           id="g20215"
           transform="translate(232.3857,17.1582)"><path
             d="M 0,0 1.545,7.404 H 7.496 L 5.906,0 Z"
             style="fill:#7fb9e3;fill-opacity:1;fill-rule:nonzero;stroke:none"
             id="path20217" /></g><g
           id="g20219"
           transform="translate(243.1973,17.1582)"><path
             d="M 0,0 1.545,7.404 H 7.496 L 5.906,0 Z"
             style="fill:#7fb9e3;fill-opacity:1;fill-rule:nonzero;stroke:none"
             id="path20221" /></g><g
           id="g20223"
           transform="translate(255.6885,23.6992)"><path
             d="M 0,0 H 6.133 L 8.632,11.584 C 8.298,11.221 7.813,10.85 7.178,10.471 6.542,10.092 5.86,9.744 5.134,9.427 4.407,9.108 3.664,8.851 2.908,8.654 2.15,8.457 1.5,8.358 0.954,8.358 l 1.408,6.724 c 0.454,0 1.083,0.166 1.886,0.5 0.802,0.332 1.612,0.733 2.43,1.203 0.818,0.47 1.567,0.946 2.249,1.432 0.681,0.483 1.128,0.878 1.34,1.18 h 7.404 L 13.583,0 h 5.496 L 17.671,-6.541 H -1.362 Z"
             style="fill:#7fb9e3;fill-opacity:1;fill-rule:nonzero;stroke:none"
             id="path20225" /></g><g
           id="g20227"
           transform="translate(276.8574,17.1582)"><path
             d="M 0,0 1.545,7.404 H 7.496 L 5.906,0 Z"
             style="fill:#7fb9e3;fill-opacity:1;fill-rule:nonzero;stroke:none"
             id="path20229" /></g><g
           id="g20231"
           transform="translate(287.668,17.1582)"><path
             d="M 0,0 1.545,7.404 H 7.496 L 5.906,0 Z"
             style="fill:#7fb9e3;fill-opacity:1;fill-rule:nonzero;stroke:none"
             id="path20233" /></g><g
           id="g20235"
           transform="translate(298.4795,17.1582)"><path
             d="M 0,0 1.545,7.404 H 7.496 L 5.906,0 Z"
             style="fill:#7fb9e3;fill-opacity:1;fill-rule:nonzero;stroke:none"
             id="path20237" /></g></g></g><g
       id="g20239"><g
         id="g20241"><g
           id="g20247"><g
             id="g20249"><path
               d="m 322.079,48.093 c -2.317,-1.029 -4.377,-2.43 -6.179,-4.202 v 0 c -1.802,-1.771 -3.24,-3.846 -4.315,-6.223 v 0 c -1.075,-2.378 -1.612,-4.898 -1.612,-7.564 v 0 c 0,-1.968 0.287,-3.762 0.863,-5.382 v 0 c 0.575,-1.621 1.386,-3.006 2.431,-4.157 v 0 c 1.044,-1.151 2.277,-2.045 3.701,-2.68 v 0 c 1.423,-0.636 2.999,-0.954 4.724,-0.954 v 0 c 1.546,0 3.006,0.28 4.384,0.84 v 0 c 1.378,0.56 2.794,1.415 4.248,2.567 v 0 l -0.681,-3.18 h 6.178 l 3.588,16.854 h -12.038 l -1.135,-5.406 h 5.859 l -0.227,-1.045 c -2.725,-2.665 -5.436,-3.997 -8.131,-3.997 v 0 c -0.969,0 -1.825,0.181 -2.568,0.544 v 0 c -0.741,0.364 -1.377,0.879 -1.907,1.546 v 0 c -0.53,0.665 -0.931,1.452 -1.204,2.36 v 0 c -0.272,0.91 -0.408,1.893 -0.408,2.954 v 0 c 0,1.604 0.272,3.135 0.818,4.587 v 0 c 0.545,1.455 1.271,2.734 2.179,3.84 v 0 c 0.909,1.105 1.962,1.983 3.158,2.634 v 0 c 1.196,0.651 2.46,0.977 3.793,0.977 v 0 c 1.454,0 2.733,-0.402 3.839,-1.205 v 0 c 1.105,-0.802 1.854,-1.93 2.249,-3.383 v 0 l 6.405,4.179 c -0.607,2.181 -1.856,3.899 -3.748,5.156 v 0 c -1.893,1.256 -4.248,1.885 -7.064,1.885 v 0 c -2.485,0 -4.884,-0.515 -7.2,-1.545"
               style="fill:url(#linearGradient20257);stroke:none"
               id="path20259" /></g></g></g></g><g
       id="g20261"><g
         id="g20263"><g
           id="g20269"><g
             id="g20271"><path
               d="m 356.261,48.843 c -1.605,-0.499 -3.127,-1.189 -4.564,-2.066 v 0 c -1.439,-0.88 -2.749,-1.925 -3.931,-3.135 v 0 c -1.181,-1.212 -2.203,-2.529 -3.066,-3.953 v 0 c -0.863,-1.424 -1.537,-2.922 -2.021,-4.496 v 0 c -0.485,-1.576 -0.727,-3.18 -0.727,-4.816 v 0 c 0,-1.757 0.265,-3.445 0.795,-5.065 v 0 c 0.529,-1.62 1.309,-3.059 2.34,-4.315 v 0 c 1.03,-1.257 2.3,-2.257 3.815,-2.998 v 0 c 1.514,-0.743 3.255,-1.113 5.225,-1.113 v 0 c 2.543,0 4.966,0.544 7.267,1.634 v 0 c 2.302,1.091 4.339,2.536 6.111,4.339 v 0 c 1.771,1.802 3.18,3.854 4.225,6.155 v 0 c 1.045,2.302 1.567,4.664 1.567,7.087 v 0 c 0,1.726 -0.266,3.407 -0.795,5.042 v 0 c -0.53,1.635 -1.302,3.074 -2.318,4.316 v 0 c -1.014,1.241 -2.278,2.24 -3.792,2.998 v 0 c -1.515,0.757 -3.242,1.136 -5.179,1.136 v 0 c -1.696,0 -3.347,-0.251 -4.952,-0.75 m -3.36,-24.712 c -0.758,0.409 -1.38,0.954 -1.864,1.636 v 0 c -0.484,0.681 -0.848,1.469 -1.09,2.362 v 0 c -0.243,0.892 -0.363,1.84 -0.363,2.839 v 0 c 0,1.363 0.234,2.756 0.704,4.18 v 0 c 0.469,1.423 1.136,2.71 1.999,3.861 v 0 c 0.862,1.15 1.923,2.097 3.18,2.838 v 0 c 1.255,0.742 2.657,1.113 4.202,1.113 v 0 c 1.028,0 1.923,-0.197 2.68,-0.59 v 0 c 0.757,-0.394 1.378,-0.931 1.862,-1.613 v 0 c 0.484,-0.681 0.848,-1.461 1.091,-2.339 v 0 c 0.241,-0.879 0.363,-1.818 0.363,-2.817 v 0 c 0,-1.362 -0.235,-2.755 -0.704,-4.179 v 0 c -0.47,-1.424 -1.136,-2.719 -1.999,-3.884 v 0 c -0.863,-1.166 -1.916,-2.127 -3.157,-2.884 v 0 c -1.242,-0.757 -2.651,-1.136 -4.225,-1.136 v 0 c -1.03,0 -1.924,0.205 -2.679,0.613"
               style="fill:url(#linearGradient20279);stroke:none"
               id="path20281" /></g></g></g></g><g
       id="g20283"><g
         id="g20285"
         clip-path="url(#clipPath20289)"><g
           id="g20291"
           transform="translate(456.6416,289.6011)"><path
             d="m 0,0 c 0,0 -1.319,0.515 -1.96,-0.44 -0.811,-0.125 -1.176,-0.454 -1.373,-0.624 0.578,0.096 1.83,0.143 2.412,-0.333 0.582,-0.475 1.113,-0.792 2.069,-1.002 -0.336,-0.785 -0.045,-1.447 0.573,-1.915 1.127,-0.855 1.566,-2.932 1.55,-3.462 1.266,0.229 0.882,2.526 0.85,2.728 0.166,-0.259 0.813,0.656 0.585,1.12 0.265,-0.174 0.278,0.488 0.137,0.73 0.288,-0.407 0.28,0.38 0.164,0.558 0.207,-0.062 0.279,0.396 0.148,0.56 0.264,0.073 1.336,-0.346 2.145,-1.285 0.782,-0.683 0.06,0.805 0.06,0.805 0,0 1.573,-0.325 0.545,0.492 0.608,0.07 0.271,0.836 -0.618,1.018 0.473,0.127 -1.383,0.691 -2.764,0.8 C 4.651,0.534 4.014,0.673 4.014,0.673 4.455,0.687 4.09,1.485 3.853,1.61 4.007,1.815 3.785,2.264 3.141,2.312 3.476,2.449 3.034,2.736 2.556,2.841 2.87,3.026 2.446,3.543 1.771,3.5 1.979,3.786 1.578,4.001 1.077,4.107 0.761,4.524 -1.052,6.603 -1.933,7.824 -2.813,9.047 -3.239,9.541 -3.543,9.193 -3.847,8.846 -3.865,6.719 -3.213,4.912 -2.561,3.105 -1.535,3.214 -0.591,2.219 0.354,1.223 0,0 0,0"
             style="fill:#e4f6f8;fill-opacity:1;fill-rule:nonzero;stroke:none"
             id="path20293" /></g><g
           id="g20295"
           transform="translate(149.3906,151.3906)"><path
             d="m 0,0 c 0,0 -1.512,-0.217 -1.607,-1.454 -0.696,-0.548 -0.863,-1.049 -0.958,-1.314 0.491,0.397 1.643,1.105 2.441,0.967 0.798,-0.136 1.466,-0.152 2.475,0.158 0.101,-0.915 0.725,-1.382 1.553,-1.495 1.513,-0.205 3.028,-1.921 3.294,-2.427 1.067,0.887 -0.513,2.839 -0.65,3.013 0.294,-0.155 0.415,1.046 -0.045,1.361 0.341,-0.023 0.002,0.606 -0.26,0.758 C 6.729,-0.662 6.305,0.072 6.102,0.179 6.328,0.23 6.153,0.698 5.944,0.783 6.152,0.991 7.381,1.167 8.64,0.715 9.736,0.489 8.269,1.503 8.269,1.503 c 0,0 1.648,0.529 0.251,0.751 C 9.052,2.643 8.33,3.183 7.398,2.881 7.774,3.251 5.733,2.796 4.38,2.166 4.084,2.97 3.411,2.763 3.411,2.763 3.817,3.009 3.052,3.564 2.762,3.557 2.798,3.83 2.353,4.134 1.722,3.837 1.963,4.144 1.396,4.179 0.892,4.023 1.089,4.364 0.415,4.625 -0.194,4.228 -0.152,4.604 -0.643,4.594 -1.17,4.428 -1.687,4.651 -4.492,5.641 -5.968,6.321 -7.443,7.001 -8.105,7.239 -8.206,6.751 -8.307,6.265 -7.195,4.257 -5.624,2.907 -4.053,1.557 -3.147,2.203 -1.732,1.77 -0.317,1.336 0,0 0,0"
             style="fill:#e4f6f8;fill-opacity:1;fill-rule:nonzero;stroke:none"
             id="path20297" /></g><g
           id="g20299"
           transform="translate(62.9053,110.7861)"><path
             d="m 0,0 c 0,0 -0.907,1.229 -2.042,0.727 -0.812,0.353 -1.332,0.262 -1.61,0.221 0.582,-0.245 1.751,-0.924 2.007,-1.692 0.258,-0.768 0.561,-1.362 1.312,-2.105 -0.758,-0.522 -0.874,-1.293 -0.581,-2.076 0.537,-1.429 -0.257,-3.576 -0.577,-4.051 1.287,-0.519 2.258,1.797 2.345,2 0.003,-0.332 1.119,0.131 1.177,0.685 0.142,-0.311 0.535,0.285 0.545,0.588 0.029,-0.537 0.475,0.184 0.472,0.414 0.152,-0.175 0.482,0.2 0.458,0.426 0.282,-0.085 1.018,-1.084 1.217,-2.407 0.32,-1.073 0.517,0.701 0.517,0.701 0,0 1.247,-1.202 0.781,0.133 0.594,-0.284 0.728,0.608 0.022,1.285 0.503,-0.156 -0.864,1.426 -2.061,2.32 0.568,0.642 0.067,1.136 0.067,1.136 0.41,-0.242 0.536,0.696 0.391,0.947 0.259,0.099 0.315,0.635 -0.245,1.05 C 4.579,0.234 4.342,0.75 3.966,1.121 4.359,1.108 4.27,1.825 3.631,2.174 3.982,2.315 3.741,2.742 3.346,3.128 3.297,3.689 2.84,6.628 2.74,8.25 2.64,9.872 2.536,10.567 2.059,10.425 1.582,10.283 0.341,8.354 -0.104,6.33 -0.549,4.307 0.449,3.815 0.737,2.364 1.026,0.913 0,0 0,0"
             style="fill:#e4f6f8;fill-opacity:1;fill-rule:nonzero;stroke:none"
             id="path20301" /></g><g
           id="g20303"
           transform="translate(442.6738,388.4683)"><path
             d="m 0,0 c 0,0 -1.512,-0.217 -1.607,-1.454 -0.696,-0.548 -0.863,-1.049 -0.958,-1.314 0.491,0.397 1.643,1.105 2.441,0.967 0.798,-0.136 1.466,-0.152 2.475,0.158 0.101,-0.915 0.725,-1.382 1.553,-1.495 1.513,-0.204 3.028,-1.92 3.294,-2.427 1.067,0.887 -0.513,2.839 -0.65,3.013 0.294,-0.155 0.415,1.047 -0.045,1.361 0.341,-0.022 0.002,0.607 -0.26,0.758 C 6.729,-0.662 6.305,0.072 6.102,0.179 6.328,0.23 6.153,0.698 5.944,0.783 6.152,0.992 7.381,1.167 8.64,0.715 9.736,0.489 8.269,1.503 8.269,1.503 c 0,0 1.648,0.529 0.251,0.751 C 9.052,2.642 8.33,3.182 7.398,2.881 7.774,3.251 5.733,2.796 4.38,2.166 4.084,2.97 3.411,2.763 3.411,2.763 3.817,3.009 3.052,3.565 2.762,3.557 2.798,3.83 2.353,4.134 1.722,3.837 1.963,4.144 1.396,4.179 0.892,4.024 1.089,4.364 0.416,4.625 -0.194,4.227 -0.152,4.604 -0.643,4.594 -1.17,4.428 -1.687,4.652 -4.492,5.641 -5.967,6.321 -7.443,7.001 -8.105,7.239 -8.206,6.751 -8.307,6.264 -7.195,4.257 -5.624,2.907 -4.053,1.557 -3.147,2.204 -1.732,1.77 -0.317,1.336 0,0 0,0"
             style="fill:#e4f6f8;fill-opacity:1;fill-rule:nonzero;stroke:none"
             id="path20305" /></g><g
           id="g20307"
           transform="translate(390.9111,118.3887)"><path
             d="m 0,0 c 0,0 -1.512,-0.217 -1.607,-1.454 -0.696,-0.548 -0.863,-1.049 -0.958,-1.314 0.492,0.397 1.643,1.105 2.442,0.967 0.798,-0.136 1.465,-0.152 2.475,0.158 0.1,-0.915 0.724,-1.382 1.552,-1.495 1.513,-0.205 3.028,-1.921 3.294,-2.427 1.068,0.887 -0.512,2.839 -0.649,3.013 0.293,-0.155 0.414,1.047 -0.046,1.361 0.341,-0.023 0.002,0.606 -0.259,0.758 C 6.73,-0.662 6.306,0.072 6.102,0.179 6.328,0.23 6.154,0.698 5.944,0.783 6.153,0.991 7.381,1.167 8.64,0.715 9.736,0.489 8.269,1.503 8.269,1.503 c 0,0 1.648,0.529 0.251,0.751 C 9.053,2.643 8.33,3.183 7.399,2.881 7.775,3.251 5.733,2.796 4.38,2.166 4.084,2.97 3.411,2.763 3.411,2.763 3.817,3.009 3.052,3.564 2.763,3.557 2.799,3.83 2.353,4.135 1.722,3.837 1.963,4.144 1.396,4.179 0.892,4.023 1.089,4.364 0.416,4.625 -0.194,4.228 -0.152,4.604 -0.643,4.594 -1.169,4.428 -1.687,4.651 -4.491,5.641 -5.967,6.321 -7.443,7.001 -8.105,7.239 -8.206,6.752 -8.307,6.265 -7.195,4.257 -5.624,2.907 -4.053,1.557 -3.147,2.203 -1.732,1.77 -0.317,1.336 0,0 0,0"
             style="fill:#e4f6f8;fill-opacity:1;fill-rule:nonzero;stroke:none"
             id="path20309" /></g><g
           id="g20311"
           transform="translate(445.3164,178.1348)"><path
             d="m 0,0 c 0,0 -1.512,-0.218 -1.607,-1.455 -0.696,-0.547 -0.863,-1.048 -0.958,-1.314 0.491,0.397 1.642,1.106 2.441,0.968 0.798,-0.136 1.466,-0.153 2.475,0.157 0.101,-0.915 0.724,-1.382 1.553,-1.495 1.513,-0.204 3.028,-1.92 3.294,-2.426 1.067,0.887 -0.513,2.838 -0.65,3.012 0.293,-0.155 0.415,1.047 -0.045,1.362 0.34,-0.023 0.002,0.606 -0.26,0.757 C 6.729,-0.662 6.305,0.072 6.102,0.178 6.328,0.229 6.153,0.697 5.943,0.783 6.152,0.991 7.381,1.167 8.64,0.715 9.736,0.488 8.268,1.502 8.268,1.502 c 0,0 1.649,0.529 0.252,0.751 C 9.052,2.642 8.33,3.182 7.398,2.881 7.774,3.25 5.733,2.796 4.38,2.166 4.084,2.97 3.411,2.762 3.411,2.762 3.817,3.009 3.052,3.564 2.762,3.556 2.798,3.83 2.352,4.134 1.722,3.837 1.963,4.143 1.396,4.179 0.892,4.023 1.088,4.363 0.415,4.624 -0.195,4.227 -0.152,4.604 -0.643,4.593 -1.17,4.428 -1.687,4.651 -4.492,5.641 -5.968,6.32 -7.443,7 -8.105,7.238 -8.206,6.751 -8.307,6.264 -7.195,4.257 -5.624,2.906 -4.053,1.556 -3.147,2.203 -1.732,1.77 -0.317,1.335 0,0 0,0"
             style="fill:#e4f6f8;fill-opacity:1;fill-rule:nonzero;stroke:none"
             id="path20313" /></g><g
           id="g20315"
           transform="translate(65.9922,244.5586)"><path
             d="M 0,0 C 0,0 -1.026,-0.147 -1.092,-0.988 -1.563,-1.36 -1.678,-1.7 -1.742,-1.88 c 0.334,0.27 1.116,0.75 1.658,0.656 0.542,-0.092 0.995,-0.103 1.681,0.108 0.069,-0.621 0.492,-0.94 1.055,-1.016 C 3.68,-2.271 4.708,-3.436 4.889,-3.78 5.614,-3.178 4.541,-1.852 4.448,-1.733 4.646,-1.839 4.729,-1.022 4.417,-0.81 4.648,-0.824 4.418,-0.397 4.241,-0.294 4.571,-0.45 4.282,0.049 4.145,0.121 4.299,0.156 4.18,0.474 4.037,0.532 4.179,0.673 5.014,0.793 5.868,0.485 6.613,0.332 5.616,1.021 5.616,1.021 c 0,0 1.119,0.359 0.171,0.509 C 6.148,1.794 5.658,2.161 5.025,1.957 5.281,2.208 3.895,1.899 2.975,1.471 2.774,2.017 2.317,1.876 2.317,1.876 2.593,2.044 2.073,2.421 1.876,2.415 1.9,2.602 1.598,2.808 1.17,2.606 1.333,2.814 0.948,2.838 0.605,2.732 0.739,2.964 0.282,3.141 -0.132,2.871 -0.104,3.127 -0.437,3.12 -0.794,3.007 -1.146,3.159 -3.051,3.831 -4.053,4.293 -5.056,4.755 -5.505,4.917 -5.573,4.585 -5.642,4.255 -4.887,2.892 -3.819,1.975 -2.752,1.057 -2.138,1.496 -1.177,1.202 -0.216,0.907 0,0 0,0"
             style="fill:#e4f6f8;fill-opacity:1;fill-rule:nonzero;stroke:none"
             id="path20317" /></g><g
           id="g20319"
           transform="translate(140.7441,229.0049)"><path
             d="m 0,0 c 0,0 -1.513,-0.217 -1.607,-1.454 -0.697,-0.548 -0.864,-1.049 -0.958,-1.314 0.491,0.397 1.642,1.105 2.441,0.967 0.798,-0.136 1.466,-0.152 2.475,0.158 0.101,-0.915 0.724,-1.382 1.553,-1.495 1.512,-0.205 3.028,-1.921 3.293,-2.427 1.068,0.887 -0.512,2.839 -0.649,3.013 0.293,-0.155 0.415,1.047 -0.046,1.361 0.341,-0.023 0.003,0.606 -0.259,0.758 C 6.729,-0.662 6.305,0.072 6.102,0.179 6.328,0.23 6.153,0.698 5.943,0.783 6.152,0.991 7.381,1.167 8.64,0.715 9.735,0.489 8.268,1.503 8.268,1.503 c 0,0 1.648,0.529 0.252,0.751 C 9.052,2.643 8.329,3.183 7.398,2.881 7.774,3.251 5.733,2.796 4.379,2.166 4.083,2.97 3.411,2.763 3.411,2.763 3.817,3.009 3.052,3.564 2.762,3.557 2.798,3.83 2.352,4.135 1.722,3.837 1.963,4.144 1.396,4.179 0.892,4.023 1.088,4.364 0.415,4.625 -0.195,4.228 -0.152,4.604 -0.643,4.594 -1.17,4.428 -1.687,4.651 -4.492,5.641 -5.968,6.321 -7.443,7.001 -8.105,7.239 -8.206,6.752 -8.307,6.265 -7.196,4.257 -5.624,2.907 -4.053,1.557 -3.147,2.203 -1.732,1.77 -0.318,1.336 0,0 0,0"
             style="fill:#e4f6f8;fill-opacity:1;fill-rule:nonzero;stroke:none"
             id="path20321" /></g><g
           id="g20323"
           transform="translate(390.1758,238.0771)"><path
             d="M 0,0 C 0,0 -1.667,1.373 -2.399,0.498 -3.084,0.727 -3.43,0.382 -3.636,0.276 c 1.005,-0.307 1.501,-0.394 1.677,-1.249 0.175,-0.854 1.271,-1.821 1.748,-2.052 -1.036,-0.55 -1.622,-0.752 -1.722,-1.858 -0.1,-1.105 0.337,-3.164 -0.057,-3.819 0.687,-0.538 1.399,0.296 1.399,0.296 0,0 0.779,-0.455 1.138,0.653 0.388,-0.522 0.687,0.307 0.722,0.906 0.365,-0.305 0.552,0.476 0.584,0.794 0.551,0.015 0.576,0.901 0.576,0.901 0.28,-0.47 0.509,0.752 0.509,0.752 0,0 1.316,-0.946 1.744,-2.23 0.441,-0.727 0.964,0.507 0.659,0.987 0.456,-0.169 0.403,0.728 0.006,1.177 0.549,-0.241 1.083,0.911 0.007,1.228 -1.078,0.317 -2.262,0.943 -2.4,1.293 -0.139,0.348 0.207,0.797 -0.229,1.059 0.612,0.524 0.317,1.129 0.078,1.219 C 3.057,0.646 2.929,1.016 2.628,1.136 3.028,1.378 2.111,2.079 2.049,2.109 2.492,2.125 2.104,2.698 1.937,2.778 2.153,2.905 1.725,3.292 1.58,3.362 1.909,3.407 1.83,3.984 1.561,4.167 1.626,4.725 1.312,5.03 1.22,5.051 1.427,5.796 1.392,6.197 1.062,6.101 1.097,6.648 1.048,7.287 0.781,7.212 0.961,7.638 0.763,8.708 0.302,8.393 0.356,8.981 -0.102,9.409 -0.355,9.046 -0.177,9.625 -0.843,10.051 -0.967,10.111 -1.428,8.95 -1.885,7.479 -2.271,6.051 -2.655,4.622 -1.449,3.832 -0.753,2.571 -0.057,1.31 0.127,0.579 0,0"
             style="fill:#e4f6f8;fill-opacity:1;fill-rule:nonzero;stroke:none"
             id="path20325" /></g><g
           id="g20327"
           transform="translate(60.3115,371.79)"><path
             d="M 0,0 C 0,0 -1.667,1.373 -2.399,0.498 -3.084,0.727 -3.43,0.382 -3.636,0.276 c 1.005,-0.308 1.501,-0.395 1.677,-1.249 0.175,-0.855 1.271,-1.821 1.748,-2.053 -1.036,-0.549 -1.622,-0.752 -1.722,-1.857 -0.1,-1.106 0.337,-3.164 -0.057,-3.819 0.687,-0.539 1.399,0.295 1.399,0.295 0,0 0.78,-0.455 1.138,0.654 0.388,-0.522 0.688,0.307 0.722,0.906 0.365,-0.305 0.552,0.476 0.584,0.794 0.551,0.014 0.576,0.9 0.576,0.9 0.28,-0.47 0.509,0.753 0.509,0.753 0,0 1.316,-0.946 1.744,-2.231 0.441,-0.727 0.964,0.507 0.659,0.988 0.456,-0.169 0.404,0.727 0.006,1.177 0.549,-0.241 1.083,0.91 0.007,1.228 -1.078,0.317 -2.262,0.943 -2.4,1.292 -0.139,0.349 0.207,0.797 -0.229,1.06 0.612,0.523 0.317,1.128 0.078,1.219 C 3.058,0.645 2.929,1.015 2.628,1.135 3.028,1.377 2.111,2.079 2.049,2.109 2.492,2.125 2.104,2.698 1.937,2.778 2.153,2.904 1.726,3.292 1.58,3.362 1.91,3.407 1.83,3.984 1.561,4.167 1.626,4.725 1.312,5.03 1.22,5.05 1.428,5.795 1.392,6.197 1.062,6.101 1.097,6.648 1.048,7.287 0.781,7.212 0.961,7.637 0.763,8.708 0.302,8.393 0.357,8.981 -0.102,9.409 -0.355,9.045 -0.177,9.625 -0.843,10.05 -0.967,10.111 -1.428,8.95 -1.885,7.479 -2.27,6.05 -2.655,4.622 -1.449,3.832 -0.753,2.57 -0.057,1.31 0.127,0.579 0,0"
             style="fill:#e4f6f8;fill-opacity:1;fill-rule:nonzero;stroke:none"
             id="path20329" /></g></g></g></g></svg>
