<svg width="535.032" height="464.094" viewBox="0 0 141.56 122.792" xml:space="preserve" xmlns:xlink="http://www.w3.org/1999/xlink" xmlns="http://www.w3.org/2000/svg"><defs><linearGradient id="d"><stop style="stop-color:#699ad7;stop-opacity:1" offset="0"/><stop offset=".243" style="stop-color:#7eb1dd;stop-opacity:1"/><stop style="stop-color:#7ebae4;stop-opacity:1" offset="1"/></linearGradient><linearGradient id="c"><stop style="stop-color:#415e9a;stop-opacity:1" offset="0"/><stop offset=".232" style="stop-color:#4a6baf;stop-opacity:1"/><stop style="stop-color:#5277c3;stop-opacity:1" offset="1"/></linearGradient><linearGradient id="a"><stop offset="0" style="stop-color:#637ddf;stop-opacity:1"/><stop style="stop-color:#649afa;stop-opacity:1" offset=".232"/><stop offset="1" style="stop-color:#719efa;stop-opacity:1"/></linearGradient><linearGradient id="b"><stop style="stop-color:#7363df;stop-opacity:1" offset="0"/><stop offset=".232" style="stop-color:#6478fa;stop-opacity:1"/><stop style="stop-color:#719efa;stop-opacity:1" offset="1"/></linearGradient><linearGradient y2="515.971" x2="282.261" y1="338.624" x1="213.956" gradientTransform="translate(983.36 601.389)" gradientUnits="userSpaceOnUse" id="e" xlink:href="#a"/><linearGradient xlink:href="#d" id="g" gradientUnits="userSpaceOnUse" gradientTransform="translate(70.65 -1055.151)" x1="200.597" y1="351.411" x2="290.087" y2="506.188"/><linearGradient xlink:href="#c" id="i" gradientUnits="userSpaceOnUse" gradientTransform="translate(864.696 -1491.34)" x1="-584.199" y1="782.336" x2="-496.297" y2="937.714"/></defs><path style="display:inline;fill:#fff;fill-opacity:1;stroke:none;stroke-width:.264583px;stroke-linecap:butt;stroke-linejoin:miter;stroke-opacity:1" d="m83.643 157.186 9.469-21.853 4.534-21.867 1.39-10.706-.759-25.893 11.562 2.67-.282 22.72 4.81 30.033 8.642 20.522 3.166 9.075 5.533 35.345-4.339-3.106-11.424-10.258-10.744-3.941-9.813-.023-12.6 6.455z" transform="translate(-33.16 -75.209)"/><g style="display:inline"><g style="display:inline;opacity:1" transform="translate(-44.163 263.39) scale(.28222)"><path id="h" d="m309.549-710.388 122.197 211.675-56.157.527-32.624-56.87-32.856 56.566-27.903-.011-14.29-24.69 46.81-80.49-33.23-57.826z" style="opacity:1;fill:url(#g);fill-opacity:1;fill-rule:evenodd;stroke:none;stroke-width:3;stroke-linecap:butt;stroke-linejoin:round;stroke-miterlimit:4;stroke-dasharray:none;stroke-opacity:1"/><use height="100%" width="100%" transform="rotate(60 407.112 -715.787)" xlink:href="#h"/><use height="100%" width="100%" transform="rotate(-60 407.312 -715.7)" xlink:href="#h"/><path style="color:#000;clip-rule:nonzero;display:inline;overflow:visible;visibility:visible;opacity:1;isolation:auto;mix-blend-mode:normal;color-interpolation:sRGB;color-interpolation-filters:linearRGB;solid-color:#000;solid-opacity:1;fill:url(#i);fill-opacity:1;fill-rule:evenodd;stroke:none;stroke-width:3;stroke-linecap:butt;stroke-linejoin:round;stroke-miterlimit:4;stroke-dasharray:none;stroke-dashoffset:0;stroke-opacity:1;color-rendering:auto;image-rendering:auto;shape-rendering:auto;text-rendering:auto;enable-background:accumulate" d="m309.549-710.388 122.197 211.675-56.157.527-32.624-56.87-32.856 56.566-27.903-.011-14.29-24.69 46.81-80.49-33.23-57.826z" id="j"/><use height="100%" width="100%" transform="rotate(120 407.34 -716.084)" xlink:href="#j" style="display:inline"/><use height="100%" width="100%" transform="rotate(-120 407.288 -715.87)" xlink:href="#j" style="display:inline"/><use xlink:href="#h" transform="rotate(180 407.346 -715.688)"/></g></g><path style="fill:#c35277;fill-opacity:1;stroke:none;stroke-width:.264583px;stroke-linecap:butt;stroke-linejoin:miter;stroke-opacity:1" d="M100.605 76.786c2.246 1.24 2.047 2.52 7.963 2.43l3.07 41.473 3.804 17.682 5.172 14.336c-7.036-15.576-12.996-28.04-23.28-37.359z" transform="translate(-33.16 -75.209)"/><path style="fill:#000;fill-opacity:1;stroke:none;stroke-width:2.64583;stop-color:#000" d="M80.552 194.1c4.235-6.43 6.654-10.062 11.847-12.525 4.166-1.976 9.31-2.07 13.796-1.004 5.657 1.343 10.596 5.121 14.968 8.953 2.053 1.8 3.783 4.681 5.09 6.416l3.186-.207c-3.06-3.804-7.435-8.859-12.325-11.732-4.967-2.917-10.746-4.932-16.503-5.13-4.269-.149-8.79.78-12.47 2.949-4.717 2.778-7.585 7.074-11.055 12.145l3.466.135zM81.224 165.387c3.365-7.993 11.428-22.09 14.426-34.045 4.44-17.712 4.778-42.34 4.955-54.556h-2.44c.073 12.36-.64 36.57-5.232 54.094C89.758 143 81.69 157.487 77.744 165.26l3.48.128zM107.196 79.216c1.01 6.27 1.995 36.296 6.072 53.915 1.576 6.807 6.048 17.204 7.042 19.742l2.759-.101c-2.553-6.587-6.028-13.191-7.689-20.202-4.121-17.395-5.321-44.56-5.44-53.354z" transform="translate(-33.16 -75.209)"/><path style="fill:#000;fill-opacity:1;stroke:none;stroke-width:2.64583;stop-color:#000" d="M105.7 153.195c-1.988-.077-3.977-.158-5.965-.23.193-.749.817-1.278 1.114-1.98.758-1.31 1.554-3.096 1.965-4.076.41-.979.392-.97.392-.97s.165.339.246.51c.538 1.13 1.166 2.223 1.916 3.223.578.395 1.307-.024 1.953.06.35-.088 1.226.059 1.227-.184-1.696-2.159-2.768-4.78-3.183-7.486-.587-.619-1.544-.353-2.298-.506-.524-.015-1.208-.366-1.6.14-.998 2.742-1.91 5.545-3.334 8.11-.554 1.027-1.214 1.993-1.91 2.927-.354.783.691.898 1.216.786 3.295.21 4.323.184 6.22.209 1.15-.183 3.009-.444 2.89-.531-.46.023-.622.016-.848-.002z" class="UnoptimicedTransforms" transform="translate(-33.16 -75.209)"/></svg>