<?xml version="1.0" encoding="UTF-8" standalone="no"?>
<svg
   xmlns:dc="http://purl.org/dc/elements/1.1/"
   xmlns:cc="http://creativecommons.org/ns#"
   xmlns:rdf="http://www.w3.org/1999/02/22-rdf-syntax-ns#"
   xmlns:svg="http://www.w3.org/2000/svg"
   xmlns="http://www.w3.org/2000/svg"
   id="svg5748"
   version="1.1"
   viewBox="0 0 195.78986 105.83267"
   height="400.00253"
   width="740.0025">
  <defs
     id="defs5742" />
  <metadata
     id="metadata5745">
    <rdf:RDF>
      <cc:Work
         rdf:about="">
        <dc:format>image/svg+xml</dc:format>
        <dc:type
           rdf:resource="http://purl.org/dc/dcmitype/StillImage" />
        <dc:title></dc:title>
      </cc:Work>
    </rdf:RDF>
  </metadata>
  <g
     transform="translate(-29.114796,-123.12133)"
     id="layer1">
    <g
       transform="matrix(1.2026515,0,0,1.2026515,-20.376896,-41.036126)"
       id="g1375">
      <path
         id="path1946"
         d="m 122.5514,158.496 a 21.999888,22.000144 0 0 0 -22,21.99974 21.999888,22.000144 0 0 0 22,22.00026 21.999888,22.000144 0 0 0 22,-22.00026 21.999888,22.000144 0 0 0 -22,-21.99974 z m 0,3.66238 a 18.337153,18.337366 0 0 1 18.33716,18.33736 18.337153,18.337366 0 0 1 -18.33716,18.33735 18.337153,18.337366 0 0 1 -18.33712,-18.33735 18.337153,18.337366 0 0 1 18.33712,-18.33736 z"
         style="opacity:1;fill:#ffffff;fill-opacity:1;stroke-width:0.28124496" />
      <path
         id="path3463-2"
         style="opacity:1;fill:#ffffff;fill-opacity:1;fill-rule:nonzero;stroke:none;stroke-width:0.236191"
         d="m 115.48548,174.58249 c -7e-5,-2.54556 2.75557,-4.13655 4.96005,-2.86371 l 10.2422,5.91372 c 2.20438,1.27278 2.20435,4.45459 -7e-5,5.72732 l -10.24193,5.91325 c -2.20441,1.27273 -4.95993,-0.31814 -4.95998,-2.8636 z" />
    </g>
  </g>
</svg>
