<?xml version="1.0" encoding="UTF-8" standalone="no"?>
<!-- Created with Inkscape (http://www.inkscape.org/) -->

<svg
   xmlns:dc="http://purl.org/dc/elements/1.1/"
   xmlns:cc="http://creativecommons.org/ns#"
   xmlns:rdf="http://www.w3.org/1999/02/22-rdf-syntax-ns#"
   xmlns:svg="http://www.w3.org/2000/svg"
   xmlns="http://www.w3.org/2000/svg"
   xmlns:sodipodi="http://sodipodi.sourceforge.net/DTD/sodipodi-0.dtd"
   xmlns:inkscape="http://www.inkscape.org/namespaces/inkscape"
   width="44mm"
   height="44mm"
   viewBox="0 0 44 44"
   version="1.1"
   id="svg5748"
   inkscape:version="0.92.4 (5da689c313, 2019-01-14)"
   sodipodi:docname="play.src.svg">
  <defs
     id="defs5742" />
  <sodipodi:namedview
     id="base"
     pagecolor="#ffffff"
     bordercolor="#666666"
     borderopacity="1.0"
     inkscape:pageopacity="0.0"
     inkscape:pageshadow="2"
     inkscape:zoom="5.0346003"
     inkscape:cx="65.212459"
     inkscape:cy="100.84186"
     inkscape:document-units="mm"
     inkscape:current-layer="layer1"
     showgrid="false"
     inkscape:pagecheckerboard="true"
     fit-margin-top="0"
     fit-margin-left="0"
     fit-margin-right="0"
     fit-margin-bottom="0"
     inkscape:window-width="2560"
     inkscape:window-height="1411"
     inkscape:window-x="1680"
     inkscape:window-y="605"
     inkscape:window-maximized="0" />
  <metadata
     id="metadata5745">
    <rdf:RDF>
      <cc:Work
         rdf:about="">
        <dc:format>image/svg+xml</dc:format>
        <dc:type
           rdf:resource="http://purl.org/dc/dcmitype/StillImage" />
        <dc:title />
      </cc:Work>
    </rdf:RDF>
  </metadata>
  <g
     inkscape:label="Layer 1"
     inkscape:groupmode="layer"
     id="layer1"
     transform="translate(-100.5514,-158.496)">
    <path
       id="path1946"
       d="m 122.5514,158.496 a 21.999888,22.000144 0 0 0 -22,21.99974 21.999888,22.000144 0 0 0 22,22.00026 21.999888,22.000144 0 0 0 22,-22.00026 21.999888,22.000144 0 0 0 -22,-21.99974 z m 0,3.66238 a 18.337153,18.337366 0 0 1 18.33716,18.33736 18.337153,18.337366 0 0 1 -18.33716,18.33735 18.337153,18.337366 0 0 1 -18.33712,-18.33735 18.337153,18.337366 0 0 1 18.33712,-18.33736 z"
       style="opacity:1;fill:#ffffff;fill-opacity:1;stroke-width:0.28124496"
       inkscape:connector-curvature="0" />
    <path
       inkscape:connector-curvature="0"
       id="path3463-2"
       style="opacity:1;fill:#ffffff;fill-opacity:1;fill-rule:nonzero;stroke:none;stroke-width:0.236191"
       d="m 115.48548,174.58249 c -7e-5,-2.54556 2.75557,-4.13655 4.96005,-2.86371 l 10.2422,5.91372 c 2.20438,1.27278 2.20435,4.45459 -7e-5,5.72732 l -10.24193,5.91325 c -2.20441,1.27273 -4.95993,-0.31814 -4.95998,-2.8636 z" />
  </g>
</svg>
