<?xml version="1.0" encoding="UTF-8" standalone="no"?>
<!-- Created with Inkscape (http://www.inkscape.org/) -->

<svg
   xmlns:dc="http://purl.org/dc/elements/1.1/"
   xmlns:cc="http://creativecommons.org/ns#"
   xmlns:rdf="http://www.w3.org/1999/02/22-rdf-syntax-ns#"
   xmlns:svg="http://www.w3.org/2000/svg"
   xmlns="http://www.w3.org/2000/svg"
   xmlns:sodipodi="http://sodipodi.sourceforge.net/DTD/sodipodi-0.dtd"
   xmlns:inkscape="http://www.inkscape.org/namespaces/inkscape"
   width="22.000137"
   height="22.000261"
   viewBox="0 0 5.8208697 5.8209026"
   version="1.1"
   id="svg13306"
   inkscape:version="0.92.4 (5da689c313, 2019-01-14)"
   sodipodi:docname="search.src.svg">
  <defs
     id="defs13300" />
  <sodipodi:namedview
     id="base"
     pagecolor="#ffffff"
     bordercolor="#666666"
     borderopacity="1.0"
     inkscape:pageopacity="0.0"
     inkscape:pageshadow="2"
     inkscape:zoom="11.2"
     inkscape:cx="30.470328"
     inkscape:cy="-6.0735077"
     inkscape:document-units="px"
     inkscape:current-layer="layer1"
     showgrid="false"
     fit-margin-top="0"
     fit-margin-left="0"
     fit-margin-right="0"
     fit-margin-bottom="0"
     units="px" />
  <metadata
     id="metadata13303">
    <rdf:RDF>
      <cc:Work
         rdf:about="">
        <dc:format>image/svg+xml</dc:format>
        <dc:type
           rdf:resource="http://purl.org/dc/dcmitype/StillImage" />
        <dc:title></dc:title>
      </cc:Work>
    </rdf:RDF>
  </metadata>
  <g
     inkscape:label="Layer 1"
     inkscape:groupmode="layer"
     id="layer1"
     transform="translate(-119.60315,-154.18907)">
    <path
       d="m 124.58801,155.02506 c -0.93822,-0.93823 -2.46492,-0.93823 -3.40315,0 -0.73604,0.73605 -0.89193,1.83342 -0.47272,2.72571 l -0.75559,0.75557 c -0.29477,0.29478 -0.29477,0.77439 0,1.06881 l 0.0814,0.0817 c 0.29478,0.29441 0.77438,0.29441 1.0688,0 l 0.75558,-0.75558 c 0.89229,0.41883 1.98966,0.26296 2.7257,-0.4731 0.93823,-0.93821 0.93823,-2.46491 0,-3.40315 z m -2.10359,3.25415 c -0.26947,-0.0694 -0.5259,-0.20292 -0.73677,-0.41379 -0.2105,-0.21049 -0.34432,-0.46694 -0.41378,-0.73676 -0.13708,-0.53385 -0.004,-1.12341 0.41378,-1.54081 0.62789,-0.62789 1.64967,-0.62789 2.27758,0 0.62826,0.6279 0.62826,1.64968 3.4e-4,2.27757 -0.41739,0.4174 -1.00731,0.55123 -1.54117,0.41379 z"
       style="fill:#face12;fill-opacity:1;fill-rule:nonzero;stroke:none;stroke-width:0.35277775"
       id="path3595"
       inkscape:connector-curvature="0" />
  </g>
</svg>
