<?xml version="1.0" encoding="UTF-8" standalone="no"?>
<svg
   xmlns:dc="http://purl.org/dc/elements/1.1/"
   xmlns:cc="http://creativecommons.org/ns#"
   xmlns:rdf="http://www.w3.org/1999/02/22-rdf-syntax-ns#"
   xmlns:svg="http://www.w3.org/2000/svg"
   xmlns="http://www.w3.org/2000/svg"
   id="svg1908"
   version="1.1"
   viewBox="0 0 9.3802138 8.9896088"
   height="8.9896088mm"
   width="9.3802137mm">
  <defs
     id="defs1902" />
  <metadata
     id="metadata1905">
    <rdf:RDF>
      <cc:Work
         rdf:about="">
        <dc:format>image/svg+xml</dc:format>
        <dc:type
           rdf:resource="http://purl.org/dc/dcmitype/StillImage" />
        <dc:title></dc:title>
      </cc:Work>
    </rdf:RDF>
  </metadata>
  <g
     transform="translate(-55.062552,-95.501942)"
     id="layer1">
    <path
       id="path4956"
       style="fill:#face12;fill-opacity:1;fill-rule:nonzero;stroke:none;stroke-width:0.35277775"
       d="m 59.752735,95.501942 c -2.591365,0 -4.690183,2.063645 -4.690183,4.608798 0,2.03669 1.343757,3.76388 3.20689,4.37286 0.234401,0.0434 0.320407,-0.0994 0.320407,-0.22169 0,-0.10937 -0.0039,-0.39936 -0.0058,-0.78369 -1.304605,0.27792 -1.579826,-0.61835 -1.579826,-0.61835 -0.213348,-0.53183 -0.521816,-0.67406 -0.521816,-0.67406 -0.424898,-0.28575 0.03286,-0.27997 0.03286,-0.27997 0.470982,0.0321 0.718348,0.47496 0.718348,0.47496 0.418223,0.70474 1.097931,0.50102 1.366093,0.38344 0.0421,-0.2982 0.162898,-0.50102 0.297043,-0.61643 -1.041706,-0.11527 -2.136429,-0.51154 -2.136429,-2.277375 0,-0.503075 0.181769,-0.914237 0.482792,-1.236698 -0.05289,-0.11643 -0.211165,-0.585102 0.04095,-1.219753 0,0 0.392807,-0.123618 1.289714,0.472523 0.375348,-0.102438 0.774059,-0.153271 1.172513,-0.155711 0.398712,0.0024 0.797423,0.05327 1.172643,0.155711 0.891131,-0.596141 1.283936,-0.472523 1.283936,-0.472523 0.252116,0.634651 0.09384,1.103323 0.04685,1.219753 0.299097,0.322461 0.480739,0.733623 0.480739,1.236698 0,1.770455 -1.096263,2.160175 -2.139766,2.273395 0.164053,0.13838 0.316554,0.42105 0.316554,0.85288 0,0.61681 -0.0059,1.11244 -0.0059,1.26212 0,0.12079 0.08203,0.26495 0.322461,0.21886 1.876355,-0.605 3.218958,-2.33334 3.218958,-4.36695 0,-2.545153 -2.099973,-4.608798 -4.690055,-4.608798 z" />
  </g>
</svg>
