<?xml version="1.0" encoding="UTF-8" standalone="no"?>
<svg
   xmlns:dc="http://purl.org/dc/elements/1.1/"
   xmlns:cc="http://creativecommons.org/ns#"
   xmlns:rdf="http://www.w3.org/1999/02/22-rdf-syntax-ns#"
   xmlns:svg="http://www.w3.org/2000/svg"
   xmlns="http://www.w3.org/2000/svg"
   id="svg1908"
   version="1.1"
   viewBox="0 0 9.4922133 6.6459971"
   height="6.645997mm"
   width="9.4922132mm">
  <defs
     id="defs1902" />
  <metadata
     id="metadata1905">
    <rdf:RDF>
      <cc:Work
         rdf:about="">
        <dc:format>image/svg+xml</dc:format>
        <dc:type
           rdf:resource="http://purl.org/dc/dcmitype/StillImage" />
        <dc:title></dc:title>
      </cc:Work>
    </rdf:RDF>
  </metadata>
  <g
     transform="translate(-65.838076,-56.573664)"
     id="layer1">
    <path
       id="path4952"
       style="fill:#face12;fill-opacity:1;fill-rule:nonzero;stroke:none;stroke-width:0.35277775"
       d="m 75.134617,57.613573 c -0.109368,-0.406669 -0.430034,-0.727205 -0.836574,-0.836702 -0.742738,-0.203207 -3.713945,-0.203207 -3.713945,-0.203207 0,0 -2.971206,0 -3.713944,0.195505 -0.39884,0.109369 -0.727206,0.437863 -0.836574,0.844404 -0.195504,0.742738 -0.195504,2.283154 -0.195504,2.283154 0,0 0,1.547994 0.195504,2.283024 0.109497,0.40654 0.429904,0.72708 0.836574,0.83658 0.750568,0.20333 3.714074,0.20333 3.714074,0.20333 0,0 2.971077,0 3.713815,-0.1955 0.406669,-0.1095 0.727206,-0.43004 0.836704,-0.83658 0.195503,-0.74286 0.195503,-2.283152 0.195503,-2.283152 0,0 0.0078,-1.548118 -0.195633,-2.290856 z m -5.49659,3.706118 V 58.47364 l 2.470699,1.423087 z" />
  </g>
</svg>
