<?xml version="1.0" encoding="UTF-8" standalone="no"?>
<svg
   xmlns:dc="http://purl.org/dc/elements/1.1/"
   xmlns:cc="http://creativecommons.org/ns#"
   xmlns:rdf="http://www.w3.org/1999/02/22-rdf-syntax-ns#"
   xmlns:svg="http://www.w3.org/2000/svg"
   xmlns="http://www.w3.org/2000/svg"
   id="svg1908"
   version="1.1"
   viewBox="0 0 9.4929438 7.7129798"
   height="7.7129798mm"
   width="9.4929438mm">
  <defs
     id="defs1902" />
  <metadata
     id="metadata1905">
    <rdf:RDF>
      <cc:Work
         rdf:about="">
        <dc:format>image/svg+xml</dc:format>
        <dc:type
           rdf:resource="http://purl.org/dc/dcmitype/StillImage" />
        <dc:title></dc:title>
      </cc:Work>
    </rdf:RDF>
  </metadata>
  <g
     transform="translate(-28.515433,-95.839933)"
     id="layer1">
    <path
       id="path4948"
       style="fill:#face12;fill-opacity:1;fill-rule:nonzero;stroke:none;stroke-width:0.35277775"
       d="m 38.008377,96.753015 c -0.353011,0.154812 -0.729128,0.257506 -1.121294,0.307313 0.403458,-0.240947 0.711412,-0.619376 0.856086,-1.075724 -0.376118,0.224259 -0.791386,0.382793 -1.234003,0.47111 -0.357243,-0.380226 -0.866355,-0.615781 -1.421677,-0.615781 -1.07739,0 -1.944902,0.874443 -1.944902,1.946573 0,0.154298 0.01309,0.302692 0.04519,0.443897 -1.617951,-0.07895 -3.049644,-0.854418 -4.011503,-2.035661 -0.167904,0.291268 -0.266361,0.624639 -0.266361,0.983685 0,0.673932 0.347105,1.271485 0.864429,1.617309 -0.312575,-0.0059 -0.619372,-0.09666 -0.879193,-0.239663 v 0.02131 c 0,0.945815 0.674578,1.731297 1.559158,1.912297 -0.158408,0.0434 -0.331061,0.064 -0.510261,0.064 -0.12452,0 -0.250317,-0.007 -0.36842,-0.0332 0.252116,0.77072 0.967641,1.33734 1.81846,1.35582 -0.662118,0.51797 -1.502805,0.83003 -2.412933,0.83003 -0.159685,0 -0.312702,-0.007 -0.46572,-0.0267 0.861992,0.55596 1.883678,0.87328 2.985456,0.87328 3.581344,0 5.539214,-2.96645 5.539214,-5.537918 0,-0.08601 -0.0028,-0.169061 -0.0071,-0.251602 0.38626,-0.274066 0.71077,-0.616423 0.975339,-1.010385 z" />
  </g>
</svg>
