<?xml version="1.0" encoding="UTF-8" standalone="no"?>
<svg
   xmlns:dc="http://purl.org/dc/elements/1.1/"
   xmlns:cc="http://creativecommons.org/ns#"
   xmlns:rdf="http://www.w3.org/1999/02/22-rdf-syntax-ns#"
   xmlns:svg="http://www.w3.org/2000/svg"
   xmlns="http://www.w3.org/2000/svg"
   version="1.1"
   id="svg2"
   viewBox="0 0 595.1346 483.74392"
   height="136.52328mm"
   width="167.96021mm">
  <defs
     id="defs4" />
  <metadata
     id="metadata7">
    <rdf:RDF>
      <cc:Work
         rdf:about="">
        <dc:format>image/svg+xml</dc:format>
        <dc:type
           rdf:resource="http://purl.org/dc/dcmitype/StillImage" />
        <dc:title></dc:title>
      </cc:Work>
    </rdf:RDF>
  </metadata>
  <g
     transform="translate(-683.06732,957.77832)"
     id="g5329"
     style="display:inline">
    <g
       id="text5407"
       style="font-style:normal;font-variant:normal;font-weight:normal;font-stretch:normal;font-size:395.09683228px;line-height:125%;font-family:Carlito;-inkscape-font-specification:Carlito;letter-spacing:0px;word-spacing:0px;display:inline;opacity:1;fill:#000000;fill-opacity:1;stroke:none;stroke-width:1px;stroke-linecap:butt;stroke-linejoin:miter;stroke-opacity:1"
       aria-label="Nix">
      <path
         id="path4683"
         style="font-style:normal;font-variant:normal;font-weight:normal;font-stretch:normal;font-family:Vegur;-inkscape-font-specification:Vegur"
         d="m 969.15319,-847.11833 h -30.81755 v 139.86428 c 0,19.75484 0.79019,50.96749 1.97548,85.73601 h -1.18529 c -15.40877,-28.84207 -32.79303,-56.49884 -45.04104,-75.46349 l -96.79872,-150.1368 h -42.27536 v 267.87565 h 30.81755 v -139.86427 c 0,-19.75485 -0.79019,-56.89395 -1.97548,-91.26737 h 1.18529 c 22.91561,39.90478 36.34891,62.0302 48.99201,80.99485 l 96.79872,150.13679 h 38.32439 z" />
      <path
         id="path4685"
         style="font-style:normal;font-variant:normal;font-weight:normal;font-stretch:normal;font-family:Vegur;-inkscape-font-specification:Vegur"
         d="m 1027.8251,-579.24268 h 33.1881 v -191.22686 h -33.1881 z m 16.594,-219.27874 c 11.4578,0 20.5451,-9.08722 20.5451,-20.54503 0,-11.45781 -9.0873,-20.54504 -20.5451,-20.54504 -11.4578,0 -20.545,9.08723 -20.545,20.54504 0,11.45781 9.0872,20.54503 20.545,20.54503 z" />
      <path
         id="path4687"
         style="font-style:normal;font-variant:normal;font-weight:normal;font-stretch:normal;font-family:Vegur;-inkscape-font-specification:Vegur"
         d="m 1267.7785,-770.46954 h -37.9293 l -46.6214,70.32723 h -1.1853 l -45.0411,-70.32723 h -41.09 l 68.3517,93.24285 v 1.18529 l -70.7223,96.79872 h 37.9293 l 49.7822,-75.85859 h 1.1853 l 49.7822,75.85859 h 41.09 l -72.3027,-98.37911 v -1.18529 z" />
    </g>
  </g>
</svg>
