<?xml version="1.0" encoding="UTF-8" standalone="no"?>
<!-- Created with Inkscape (http://www.inkscape.org/) -->

<svg
   xmlns:dc="http://purl.org/dc/elements/1.1/"
   xmlns:cc="http://creativecommons.org/ns#"
   xmlns:rdf="http://www.w3.org/1999/02/22-rdf-syntax-ns#"
   xmlns:svg="http://www.w3.org/2000/svg"
   xmlns="http://www.w3.org/2000/svg"
   xmlns:sodipodi="http://sodipodi.sourceforge.net/DTD/sodipodi-0.dtd"
   xmlns:inkscape="http://www.inkscape.org/namespaces/inkscape"
   width="280.23065mm"
   height="136.52328mm"
   viewBox="0 0 992.94328 483.74392"
   id="svg2"
   version="1.1"
   inkscape:version="0.92.4 (5da689c313, 2019-01-14)"
   sodipodi:docname="text-nixos.src.svg">
  <defs
     id="defs4" />
  <sodipodi:namedview
     id="base"
     pagecolor="#ffffff"
     bordercolor="#666666"
     borderopacity="1.0"
     inkscape:pageopacity="0.0"
     inkscape:pageshadow="2"
     inkscape:zoom="0.69521484"
     inkscape:cx="721.64668"
     inkscape:cy="57.15052"
     inkscape:document-units="px"
     inkscape:current-layer="g5329"
     showgrid="false"
     inkscape:window-width="1366"
     inkscape:window-height="706"
     inkscape:window-x="0"
     inkscape:window-y="0"
     inkscape:window-maximized="1"
     inkscape:snap-global="true"
     fit-margin-top="0"
     fit-margin-left="0"
     fit-margin-right="0"
     fit-margin-bottom="0"
     showguides="true"
     inkscape:guide-bbox="true">
    <sodipodi:guide
       position="8.222656e-06,483.99315"
       orientation="1,0"
       id="guide869"
       inkscape:locked="false" />
    <sodipodi:guide
       position="24.939648,483.99315"
       orientation="1,0"
       id="guide927"
       inkscape:locked="false" />
    <sodipodi:guide
       position="71.943396,105.20825"
       orientation="1,0"
       id="guide929"
       inkscape:locked="false" />
  </sodipodi:namedview>
  <metadata
     id="metadata7">
    <rdf:RDF>
      <cc:Work
         rdf:about="">
        <dc:format>image/svg+xml</dc:format>
        <dc:type
           rdf:resource="http://purl.org/dc/dcmitype/StillImage" />
        <dc:title></dc:title>
      </cc:Work>
    </rdf:RDF>
  </metadata>
  <g
     inkscape:groupmode="layer"
     id="layer5"
     inkscape:label="guide"
     style="display:inline;opacity:0.51599995"
     transform="translate(-683.06732,957.77832)">
    <rect
       y="-957.77832"
       x="683.06732"
       height="483.7439"
       width="992.94324"
       id="rect5350"
       style="color:#000000;clip-rule:nonzero;display:inline;overflow:visible;visibility:visible;opacity:1;isolation:auto;mix-blend-mode:normal;color-interpolation:sRGB;color-interpolation-filters:linearRGB;solid-color:#000000;solid-opacity:1;fill:#d4d4d4;fill-opacity:1;fill-rule:evenodd;stroke:none;stroke-width:3;stroke-linecap:butt;stroke-linejoin:round;stroke-miterlimit:4;stroke-dasharray:none;stroke-dashoffset:0;stroke-opacity:1;marker:none;color-rendering:auto;image-rendering:auto;shape-rendering:auto;text-rendering:auto;enable-background:accumulate" />
    <rect
       style="color:#000000;clip-rule:nonzero;display:inline;overflow:visible;visibility:visible;opacity:1;isolation:auto;mix-blend-mode:normal;color-interpolation:sRGB;color-interpolation-filters:linearRGB;solid-color:#000000;solid-opacity:1;fill:#9b9b9b;fill-opacity:1;fill-rule:evenodd;stroke:none;stroke-width:3;stroke-linecap:butt;stroke-linejoin:round;stroke-miterlimit:4;stroke-dasharray:none;stroke-dashoffset:0;stroke-opacity:1;marker:none;color-rendering:auto;image-rendering:auto;shape-rendering:auto;text-rendering:auto;enable-background:accumulate"
       id="rect5346"
       width="944.21246"
       height="435.68069"
       x="708.00696"
       y="-933.38721"
       inkscape:export-xdpi="17.971878"
       inkscape:export-ydpi="17.971878" />
    <rect
       y="-851.65918"
       x="708.00696"
       height="272.58423"
       width="943.59308"
       id="rect5348"
       style="color:#000000;clip-rule:nonzero;display:inline;overflow:visible;visibility:visible;opacity:1;isolation:auto;mix-blend-mode:normal;color-interpolation:sRGB;color-interpolation-filters:linearRGB;solid-color:#000000;solid-opacity:1;fill:#848484;fill-opacity:1;fill-rule:evenodd;stroke:none;stroke-width:3;stroke-linecap:butt;stroke-linejoin:round;stroke-miterlimit:4;stroke-dasharray:none;stroke-dashoffset:0;stroke-opacity:1;marker:none;color-rendering:auto;image-rendering:auto;shape-rendering:auto;text-rendering:auto;enable-background:accumulate" />
  </g>
  <g
     style="display:inline"
     inkscape:label="text-vegur"
     id="g5329"
     inkscape:groupmode="layer"
     transform="translate(-683.06732,957.77832)">
    <g
       aria-label="Nix"
       style="font-style:normal;font-variant:normal;font-weight:normal;font-stretch:normal;font-size:395.09683228px;line-height:125%;font-family:Carlito;-inkscape-font-specification:Carlito;letter-spacing:0px;word-spacing:0px;display:inline;opacity:1;fill:#000000;fill-opacity:1;stroke:none;stroke-width:1px;stroke-linecap:butt;stroke-linejoin:miter;stroke-opacity:1"
       id="text5407">
      <path
         d="m 969.15319,-847.11833 h -30.81755 v 139.86428 c 0,19.75484 0.79019,50.96749 1.97548,85.73601 h -1.18529 c -15.40877,-28.84207 -32.79303,-56.49884 -45.04104,-75.46349 l -96.79872,-150.1368 h -42.27536 v 267.87565 h 30.81755 v -139.86427 c 0,-19.75485 -0.79019,-56.89395 -1.97548,-91.26737 h 1.18529 c 22.91561,39.90478 36.34891,62.0302 48.99201,80.99485 l 96.79872,150.13679 h 38.32439 z"
         style="font-style:normal;font-variant:normal;font-weight:normal;font-stretch:normal;font-family:Vegur;-inkscape-font-specification:Vegur"
         id="path4683"
         inkscape:connector-curvature="0" />
      <path
         d="m 1027.8251,-579.24268 h 33.1881 v -191.22686 h -33.1881 z m 16.594,-219.27874 c 11.4578,0 20.5451,-9.08722 20.5451,-20.54503 0,-11.45781 -9.0873,-20.54504 -20.5451,-20.54504 -11.4578,0 -20.545,9.08723 -20.545,20.54504 0,11.45781 9.0872,20.54503 20.545,20.54503 z"
         style="font-style:normal;font-variant:normal;font-weight:normal;font-stretch:normal;font-family:Vegur;-inkscape-font-specification:Vegur"
         id="path4685"
         inkscape:connector-curvature="0" />
      <path
         d="m 1267.7785,-770.46954 h -37.9293 l -46.6214,70.32723 h -1.1853 l -45.0411,-70.32723 h -41.09 l 68.3517,93.24285 v 1.18529 l -70.7223,96.79872 h 37.9293 l 49.7822,-75.85859 h 1.1853 l 49.7822,75.85859 h 41.09 l -72.3027,-98.37911 v -1.18529 z"
         style="font-style:normal;font-variant:normal;font-weight:normal;font-stretch:normal;font-family:Vegur;-inkscape-font-specification:Vegur"
         id="path4687"
         inkscape:connector-curvature="0" />
    </g>
    <g
       aria-label="O"
       transform="scale(0.95067318,1.0518862)"
       style="font-style:normal;font-variant:normal;font-weight:normal;font-stretch:normal;font-size:367.48727417px;line-height:125%;font-family:Carlito;-inkscape-font-specification:Carlito;letter-spacing:0px;word-spacing:0px;display:inline;opacity:1;fill:#000000;fill-opacity:1;stroke:none;stroke-width:1px;stroke-linecap:butt;stroke-linejoin:miter;stroke-opacity:1"
       id="text5356">
      <path
         d="m 1468.5915,-800.79725 c -66.1477,0 -120.5358,48.14083 -120.5358,128.25306 0,80.11223 54.3881,128.25306 120.5358,128.25306 66.1477,0 120.5359,-48.14083 120.5359,-128.25306 0,-80.11223 -54.3882,-128.25306 -120.5359,-128.25306 z m 0,24.98914 c 49.2433,0 86.727,36.74872 86.727,103.26392 0,66.5152 -37.4837,103.26392 -86.727,103.26392 -49.2433,0 -86.727,-36.74872 -86.727,-103.26392 0,-66.5152 37.4837,-103.26392 86.727,-103.26392 z"
         style="font-style:normal;font-variant:normal;font-weight:normal;font-stretch:normal;font-family:Vegur;-inkscape-font-specification:Vegur"
         id="path4680"
         inkscape:connector-curvature="0" />
    </g>
    <g
       aria-label="S"
       style="font-style:normal;font-variant:normal;font-weight:normal;font-stretch:normal;font-size:386.55480957px;line-height:125%;font-family:Carlito;-inkscape-font-specification:Carlito;letter-spacing:0px;word-spacing:0px;display:inline;opacity:1;fill:#000000;fill-opacity:1;stroke:none;stroke-width:1px;stroke-linecap:butt;stroke-linejoin:miter;stroke-opacity:1"
       id="text5364">
      <path
         d="m 1523.761,-773.88643 c 0,37.10927 19.3277,57.21012 64.1681,75.37819 34.4034,13.91598 48.3193,26.28573 48.3193,51.79835 0,30.92438 -25.126,46.38657 -58.3697,46.38657 -17.395,0 -37.1093,-2.70588 -58.7564,-10.05042 l -3.479,26.67228 c 18.9412,6.95799 39.8152,9.66387 60.6891,9.66387 51.7984,0 95.0925,-26.28573 95.0925,-79.24374 0,-36.7227 -22.4202,-54.50422 -67.6471,-72.6723 -30.1512,-11.9832 -44.8403,-24.73951 -44.8403,-51.41179 0,-25.89917 22.4202,-40.2017 50.6387,-40.2017 16.6218,0 34.7899,4.2521 47.5462,9.27732 l 3.479,-26.28573 c -14.6891,-6.18488 -32.8572,-9.27732 -52.958,-9.27732 -47.5463,0 -83.8824,27.4454 -83.8824,69.96642 z"
         style="font-style:normal;font-variant:normal;font-weight:normal;font-stretch:normal;font-family:Vegur;-inkscape-font-specification:Vegur"
         id="path4677"
         inkscape:connector-curvature="0" />
    </g>
  </g>
</svg>
