<?xml version="1.0" encoding="UTF-8" standalone="no"?>
<svg
   xmlns:dc="http://purl.org/dc/elements/1.1/"
   xmlns:cc="http://creativecommons.org/ns#"
   xmlns:rdf="http://www.w3.org/1999/02/22-rdf-syntax-ns#"
   xmlns:svg="http://www.w3.org/2000/svg"
   xmlns="http://www.w3.org/2000/svg"
   version="1.1"
   id="svg2"
   viewBox="0 0 1389.4034 483.74392"
   height="136.52328mm"
   width="392.12051mm">
  <defs
     id="defs4" />
  <metadata
     id="metadata7">
    <rdf:RDF>
      <cc:Work
         rdf:about="">
        <dc:format>image/svg+xml</dc:format>
        <dc:type
           rdf:resource="http://purl.org/dc/dcmitype/StillImage" />
        <dc:title></dc:title>
      </cc:Work>
    </rdf:RDF>
  </metadata>
  <g
     transform="translate(-683.06732,957.77832)"
     id="g5329"
     style="display:inline">
    <g
       id="text1114"
       style="font-style:normal;font-weight:normal;font-size:395.09680176px;line-height:1.25;font-family:sans-serif;letter-spacing:0px;word-spacing:0px;fill:#000000;fill-opacity:1;stroke:none;stroke-width:0.9375"
       aria-label="Nixpkgs">
      <path
         id="path1206"
         style="font-style:normal;font-variant:normal;font-weight:normal;font-stretch:normal;font-family:Vegur602;-inkscape-font-specification:Vegur602;stroke-width:0.9375"
         d="m 969.19779,-847.18801 h -30.81755 v 139.86427 c 0,19.75484 0.79019,50.96749 1.97548,85.736 h -1.18529 c -15.40877,-28.84206 -32.79303,-56.49884 -45.04103,-75.46348 l -96.79872,-150.13679 h -42.27536 v 267.87563 h 30.81755 v -139.86427 c 0,-19.75484 -0.79019,-56.89394 -1.97548,-91.26736 h 1.18529 c 22.91561,39.90478 36.34891,62.0302 48.992,80.99485 l 96.79872,150.13678 h 38.32439 z" />
      <path
         id="path1208"
         style="font-style:normal;font-variant:normal;font-weight:normal;font-stretch:normal;font-family:Vegur602;-inkscape-font-specification:Vegur602;stroke-width:0.9375"
         d="m 1027.8697,-579.31238 h 33.1881 v -191.22685 h -33.1881 z m 16.594,-219.27872 c 11.4578,0 20.5451,-9.08723 20.5451,-20.54504 0,-11.4578 -9.0873,-20.54503 -20.5451,-20.54503 -11.4578,0 -20.545,9.08723 -20.545,20.54503 0,11.45781 9.0872,20.54504 20.545,20.54504 z" />
      <path
         id="path1210"
         style="font-style:normal;font-variant:normal;font-weight:normal;font-stretch:normal;font-family:Vegur602;-inkscape-font-specification:Vegur602;stroke-width:0.9375"
         d="m 1267.8231,-770.53923 h -37.9293 l -46.6214,70.32723 h -1.1853 l -45.0411,-70.32723 h -41.09 l 68.3517,93.24285 v 1.18529 l -70.7223,96.79871 h 37.9293 l 49.7822,-75.85858 h 1.1853 l 49.7822,75.85858 h 41.09 l -72.3027,-98.3791 v -1.18529 z" />
      <path
         id="path1212"
         style="font-style:normal;font-variant:normal;font-weight:normal;font-stretch:normal;font-family:Vegur602;-inkscape-font-specification:Vegur602;stroke-width:0.9375"
         d="m 1341.1938,-608.94464 c 14.2235,23.31071 34.3734,33.58323 61.6351,33.58323 51.3626,0 86.1311,-42.67045 86.1311,-103.12027 0,-57.68413 -31.2127,-96.00852 -83.7605,-96.00852 -28.0519,0 -48.992,12.6431 -64.0057,33.58323 h -0.7902 l -1.1853,-29.63226 h -32.0028 v 268.66583 h 33.1881 v -107.07124 z m -0.7902,-77.43897 c 0,-33.18813 20.545,-62.82039 54.5234,-62.82039 37.9293,0 59.2645,30.02735 59.2645,73.8831 0,45.43613 -20.5451,74.67329 -58.4743,74.67329 -30.8176,0 -55.3136,-26.07638 -55.3136,-62.82039 z" />
      <path
         id="path1214"
         style="font-style:normal;font-variant:normal;font-weight:normal;font-stretch:normal;font-family:Vegur602;-inkscape-font-specification:Vegur602;stroke-width:0.9375"
         d="m 1692.1077,-770.53923 h -43.0656 l -79.8095,90.47717 h -1.1853 v -183.72002 h -33.1882 v 284.4697 h 33.1882 v -64.00568 l 22.1254,-23.70581 h 1.1853 l 67.1664,87.71149 h 42.6705 l -87.7115,-111.4173 z" />
      <path
         id="path1216"
         style="font-style:normal;font-variant:normal;font-weight:normal;font-stretch:normal;font-family:Vegur602;-inkscape-font-specification:Vegur602;stroke-width:0.9375"
         d="m 1894.1318,-770.53923 h -32.0029 l -1.1853,29.63226 h -0.7902 c -14.2235,-23.31071 -34.7685,-33.58323 -61.6351,-33.58323 -50.1773,0 -85.3409,41.09007 -85.3409,101.53988 0,57.68413 31.6078,95.21833 82.9704,95.21833 27.6567,0 48.992,-12.6431 64.0056,-33.58323 h 0.7902 v 13.82839 c 0,53.73316 -30.8175,74.2782 -71.9076,74.2782 -16.9892,0 -35.1636,-3.95097 -56.8939,-14.61858 l -3.1608,26.07639 c 17.7794,9.87742 39.5097,13.82838 61.6351,13.82838 59.6596,0 103.5154,-32.39793 103.5154,-111.0222 z m -88.5017,21.33523 c 30.4224,0 55.3135,26.07639 55.3135,62.82039 v 20.54503 c 0,33.18813 -20.545,62.82039 -54.5233,62.82039 -37.5342,0 -58.4744,-29.23716 -58.4744,-73.0929 0,-45.04104 20.9402,-73.09291 57.6842,-73.09291 z" />
      <path
         id="path1218"
         style="font-style:normal;font-variant:normal;font-weight:normal;font-stretch:normal;font-family:Vegur602;-inkscape-font-specification:Vegur602;stroke-width:0.9375"
         d="m 1995.363,-662.28271 c 22.9156,7.90194 33.5832,16.98917 33.5832,33.58323 0,17.77936 -17.3842,28.05187 -39.5097,28.05187 -14.6185,0 -30.0273,-3.16077 -46.6214,-10.66761 l -3.1608,25.68129 c 15.0137,7.50684 33.9784,10.27252 50.9675,10.27252 40.2999,0 72.3027,-21.33523 72.3027,-59.26452 0,-26.07639 -16.1989,-41.48516 -48.992,-53.33807 -23.7058,-8.29703 -32.0028,-18.96464 -32.0028,-35.16361 0,-15.80388 13.8284,-26.07639 32.3979,-26.07639 13.8284,0 27.2617,3.55587 38.3244,8.69213 l 3.1608,-25.2862 c -9.8774,-5.13626 -23.3107,-8.69213 -42.6705,-8.69213 -41.8802,0 -65.1909,23.70581 -65.1909,56.89394 0,29.23716 20.1499,46.22633 47.4116,55.31355 z" />
    </g>
  </g>
</svg>
