<?xml version="1.0" encoding="UTF-8" standalone="no"?>
<svg
   xmlns:dc="http://purl.org/dc/elements/1.1/"
   xmlns:cc="http://creativecommons.org/ns#"
   xmlns:rdf="http://www.w3.org/1999/02/22-rdf-syntax-ns#"
   xmlns:svg="http://www.w3.org/2000/svg"
   xmlns="http://www.w3.org/2000/svg"
   id="svg1068"
   version="1.1"
   viewBox="0 0 620.00104 107.96289"
   height="107.96289"
   width="620.00104">
  <defs
     id="defs1062" />
  <metadata
     id="metadata1065">
    <rdf:RDF>
      <cc:Work
         rdf:about="">
        <dc:format>image/svg+xml</dc:format>
        <dc:type
           rdf:resource="http://purl.org/dc/dcmitype/StillImage" />
        <dc:title></dc:title>
      </cc:Work>
    </rdf:RDF>
  </metadata>
  <g
     id="layer2"
     style="display:inline"
     transform="translate(-18.473557,-12.743077)">
    <path
       id="path873"
       style="font-style:normal;font-variant:normal;font-weight:300;font-stretch:normal;font-size:118.071px;line-height:1.25;font-family:Vegur;letter-spacing:11.4359px;word-spacing:0px;stroke-width:1;stroke:none;fill:#face12;fill-opacity:1"
       d="M 64.367141,32.542969 V 28.764698 H 28.473557 v 80.760562 h 4.014414 V 74.458174 H 60.588869 V 70.679902 H 32.487971 V 32.542969 Z" />
    <path
       id="path875"
       style="font-style:normal;font-variant:normal;font-weight:300;font-stretch:normal;font-size:118.071px;line-height:1.25;font-family:Vegur;letter-spacing:11.4359px;word-spacing:0px;stroke-width:1;stroke:none;fill:#face12;fill-opacity:1"
       d="m 107.44586,52.378897 c -14.758876,0 -23.259988,12.751668 -23.259988,29.163537 0,16.293798 8.501112,29.163536 23.259988,29.163536 14.75887,0 23.25999,-12.869738 23.25999,-29.163536 0,-16.411869 -8.50112,-29.163537 -23.25999,-29.163537 z m 0,3.660201 c 10.50832,0 19.00943,8.973396 19.00943,25.503336 0,16.52994 -8.50111,25.503336 -19.00943,25.503336 -10.50832,0 -19.009432,-8.973396 -19.009432,-25.503336 0,-16.52994 8.501112,-25.503336 19.009432,-25.503336 z" />
    <path
       id="path877"
       style="font-style:normal;font-variant:normal;font-weight:300;font-stretch:normal;font-size:118.071px;line-height:1.25;font-family:Vegur;letter-spacing:11.4359px;word-spacing:0px;stroke-width:1;stroke:none;fill:#face12;fill-opacity:1"
       d="m 197.04469,53.559607 h -4.01442 v 33.296022 c 0,9.091467 -6.96619,20.072071 -16.88415,20.072071 -9.32761,0 -14.6408,-6.61198 -14.6408,-17.238367 V 53.559607 h -4.01442 v 37.78272 c 0,10.862533 6.25777,19.363643 18.18294,19.363643 8.1469,0 15.11308,-5.78548 17.35643,-13.223951 l 0.59036,12.043241 h 3.42406 z" />
    <path
       id="path879"
       style="font-style:normal;font-variant:normal;font-weight:300;font-stretch:normal;font-size:118.071px;line-height:1.25;font-family:Vegur;letter-spacing:11.4359px;word-spacing:0px;stroke-width:1;stroke:none;fill:#face12;fill-opacity:1"
       d="m 231.74043,53.559607 h -3.42406 v 55.965653 h 4.01441 V 76.229239 c 0,-9.091467 6.96619,-20.07207 16.88415,-20.07207 9.32761,0 14.64081,6.611976 14.64081,17.238366 v 36.129725 h 4.01441 V 71.742541 c 0,-10.862532 -6.25776,-19.363644 -18.18293,-19.363644 -8.1469,0 -15.11309,5.785479 -17.35644,13.223952 z" />
    <path
       id="path881"
       style="font-style:normal;font-variant:normal;font-weight:300;font-stretch:normal;font-size:118.071px;line-height:1.25;font-family:Vegur;letter-spacing:11.4359px;word-spacing:0px;stroke-width:1;stroke:none;fill:#face12;fill-opacity:1"
       d="m 340.58472,22.743077 h -4.01441 v 42.62363 c -2.71564,-8.501112 -10.50832,-12.98781 -17.71065,-12.98781 -12.04324,0 -23.85034,10.390248 -23.85034,29.753892 0,16.293798 8.38304,28.573181 22.55156,28.573181 9.20953,0 16.64801,-6.61198 19.1275,-14.168519 l 0.47228,12.987809 h 3.42406 z m -4.01441,63.87641 c 0,9.799893 -8.02883,20.426283 -18.06487,20.426283 -13.93237,0 -19.24557,-12.98781 -19.24557,-25.385265 0,-18.064863 10.86253,-25.621407 19.954,-25.621407 9.09147,0 17.35644,8.737254 17.35644,20.07207 z" />
    <path
       id="path883"
       style="font-style:normal;font-variant:normal;font-weight:300;font-stretch:normal;font-size:118.071px;line-height:1.25;font-family:Vegur;letter-spacing:11.4359px;word-spacing:0px;stroke-width:1;stroke:none;fill:#face12;fill-opacity:1"
       d="m 373.62747,60.289654 c 4.72284,-2.833704 9.44568,-4.250556 13.57817,-4.250556 8.26497,0 14.28659,3.896343 14.28659,13.578165 v 7.438473 c -2.71564,-0.590355 -5.19513,-0.826497 -8.73726,-0.826497 -12.16131,0 -23.85034,6.021621 -23.85034,19.127502 0,9.681819 7.3204,15.349229 14.99502,15.349229 7.20233,0 14.40466,-3.89634 17.71065,-12.397454 l 0.47228,11.216744 h 3.42406 V 68.908837 c 0,-10.744461 -7.20233,-16.52994 -17.12029,-16.52994 -6.02162,0 -10.62639,1.298781 -14.99502,4.014414 z m 27.86476,26.211762 c 0,13.460094 -8.26497,20.544354 -16.05766,20.544354 -6.84812,0 -12.27938,-4.60477 -12.27938,-12.397455 0,-8.028828 7.67461,-14.758875 19.24557,-14.758875 3.30599,0 6.37583,0.236142 9.09147,0.708426 z" />
    <path
       id="path885"
       style="font-style:normal;font-variant:normal;font-weight:300;font-stretch:normal;font-size:118.071px;line-height:1.25;font-family:Vegur;letter-spacing:11.4359px;word-spacing:0px;stroke-width:1;stroke:none;fill:#face12;fill-opacity:1"
       d="m 444.33497,54.031891 v -15.34923 h -4.01441 v 15.34923 h -8.9734 v 3.424059 h 8.9734 v 39.907998 c 0,9.563752 5.31319,13.342022 11.68903,13.342022 2.95177,0 5.54933,-0.59035 7.08426,-1.53492 l -0.23615,-3.42406 c -1.65299,0.94457 -3.42405,1.41685 -6.13969,1.41685 -4.72284,0 -8.38304,-3.06985 -8.38304,-10.390247 V 57.45595 h 14.05045 v -3.424059 z" />
    <path
       id="path887"
       style="font-style:normal;font-variant:normal;font-weight:300;font-stretch:normal;font-size:118.071px;line-height:1.25;font-family:Vegur;letter-spacing:11.4359px;word-spacing:0px;stroke-width:1;stroke:none;fill:#face12;fill-opacity:1"
       d="m 485.87893,35.258602 c -1.77106,0 -3.18791,1.416852 -3.18791,3.187917 0,1.771065 1.41685,3.187917 3.18791,3.187917 1.77107,0 3.18792,-1.416852 3.18792,-3.187917 0,-1.771065 -1.41685,-3.187917 -3.18792,-3.187917 z m -2.0072,74.266658 h 4.01441 V 53.559607 h -4.01441 z" />
    <path
       id="path889"
       style="font-style:normal;font-variant:normal;font-weight:300;font-stretch:normal;font-size:118.071px;line-height:1.25;font-family:Vegur;letter-spacing:11.4359px;word-spacing:0px;stroke-width:1;stroke:none;fill:#face12;fill-opacity:1"
       d="m 538.40349,52.378897 c -14.75887,0 -23.25998,12.751668 -23.25998,29.163537 0,16.293798 8.50111,29.163536 23.25998,29.163536 14.75888,0 23.25999,-12.869738 23.25999,-29.163536 0,-16.411869 -8.50111,-29.163537 -23.25999,-29.163537 z m 0,3.660201 c 10.50832,0 19.00943,8.973396 19.00943,25.503336 0,16.52994 -8.50111,25.503336 -19.00943,25.503336 -10.50832,0 -19.00943,-8.973396 -19.00943,-25.503336 0,-16.52994 8.50111,-25.503336 19.00943,-25.503336 z" />
    <path
       id="path891"
       style="font-style:normal;font-variant:normal;font-weight:300;font-stretch:normal;font-size:118.071px;line-height:1.25;font-family:Vegur;letter-spacing:11.4359px;word-spacing:0px;stroke-width:1;stroke:none;fill:#face12;fill-opacity:1"
       d="m 592.34489,53.559607 h -3.42406 v 55.965653 h 4.01441 V 76.229239 c 0,-9.091467 6.96619,-20.07207 16.88416,-20.07207 9.3276,0 14.6408,6.611976 14.6408,17.238366 v 36.129725 h 4.01441 V 71.742541 c 0,-10.862532 -6.25776,-19.363644 -18.18293,-19.363644 -8.1469,0 -15.11309,5.785479 -17.35644,13.223952 z" />
  </g>
</svg>
