<svg xmlns:dc="http://purl.org/dc/elements/1.1/" xmlns:cc="http://creativecommons.org/ns#" xmlns:rdf="http://www.w3.org/1999/02/22-rdf-syntax-ns#" xmlns:svg="http://www.w3.org/2000/svg" xmlns="http://www.w3.org/2000/svg" xmlns:sodipodi="http://sodipodi.sourceforge.net/DTD/sodipodi-0.dtd" xmlns:inkscape="http://www.inkscape.org/namespaces/inkscape" width="34.011589mm" height="27.377918mm" viewBox="0 0 34.011589 27.377918" version="1.1" id="svg1117" inkscape:version="1.0.1 (3bc2e813f5, 2020-09-07)" sodipodi:docname="gfx-landing-declarative.svg">
    <defs id="defs1111"></defs>
    <sodipodi:namedview id="base" pagecolor="#ffffff" bordercolor="#666666" borderopacity="1.0" inkscape:pageopacity="0.0" inkscape:pageshadow="2" inkscape:zoom="0.35" inkscape:cx="-495.72613" inkscape:cy="-191.11936" inkscape:document-units="mm" inkscape:current-layer="layer1" inkscape:document-rotation="0" showgrid="false" inkscape:window-width="1917" inkscape:window-height="1025" inkscape:window-x="0" inkscape:window-y="24" inkscape:window-maximized="1"></sodipodi:namedview>
    <metadata id="metadata1114">
      <rdf:rdf>
        <cc:work rdf:about="">
          <dc:format>image/svg+xml</dc:format>
          <dc:type rdf:resource="http://purl.org/dc/dcmitype/StillImage"></dc:type>
          <dc:title></dc:title>
        </cc:work>
      </rdf:rdf>
    </metadata>
    <g inkscape:label="Layer 1" inkscape:groupmode="layer" id="layer1" transform="translate(-236.99421,-198.73366)">
      <g id="g153" transform="matrix(0.35277777,0,0,-0.35277777,245.92965,208.62858)">
        <path d="m 0,0 c -1.947,0 -3.531,-1.583 -3.531,-3.53 v -24.721 c 0,-1.947 1.584,-3.53 3.531,-3.53 h 45.562 c 1.947,0 3.531,1.583 3.531,3.53 V -3.53 C 49.093,-1.583 47.509,0 45.562,0 Z M 45.562,-33.781 H 0 c -3.05,0 -5.531,2.481 -5.531,5.53 V -3.53 C -5.531,-0.481 -3.05,2 0,2 h 45.562 c 3.05,0 5.531,-2.481 5.531,-5.53 v -24.721 c 0,-3.049 -2.481,-5.53 -5.531,-5.53" style="fill:#3167ae;fill-opacity:1;fill-rule:nonzero;stroke:none" id="path155"></path>
      </g>
      <g id="g157" transform="matrix(0.35277777,0,0,-0.35277777,245.92965,221.82639)">
        <path d="m 0,0 c -1.947,0 -3.531,-1.584 -3.531,-3.531 v -3.086 c 0,-1.946 1.584,-3.53 3.531,-3.53 h 45.562 c 1.947,0 3.531,1.584 3.531,3.53 v 3.086 C 49.093,-1.584 47.509,0 45.562,0 Z M 45.562,-12.147 H 0 c -3.05,0 -5.531,2.481 -5.531,5.53 v 3.086 C -5.531,-0.481 -3.05,2 0,2 h 45.562 c 3.05,0 5.531,-2.481 5.531,-5.531 v -3.086 c 0,-3.049 -2.481,-5.53 -5.531,-5.53" style="fill:#3167ae;fill-opacity:1;fill-rule:nonzero;stroke:none" id="path159"></path>
      </g>
      <g id="g161" transform="matrix(0.35277777,0,0,-0.35277777,251.35448,202.46376)">
        <path d="M 0,0 H 2.842 C 3.146,0 3.434,-0.138 3.623,-0.375 3.813,-0.613 3.884,-0.924 3.817,-1.221 3.798,-1.307 3.788,-1.379 3.788,-1.441 v -7.798 c 0,-0.533 0.434,-0.967 0.967,-0.967 h 4.433 c 0.533,0 0.966,0.434 0.966,0.967 v 7.798 c 0,0.064 -0.008,0.134 -0.027,0.214 -0.069,0.297 10e-4,0.61 0.19,0.849 C 10.507,-0.139 10.796,0 11.101,0 h 2.842 L 6.972,8.062 Z M 9.188,-12.206 H 4.755 c -1.636,0 -2.967,1.331 -2.967,2.967 V -2 h -3.975 c -0.391,0 -0.747,0.229 -0.91,0.584 -0.162,0.356 -0.102,0.774 0.154,1.07 l 9.158,10.591 c 0.381,0.438 1.133,0.438 1.514,0 l 9.158,-10.591 c 0.256,-0.296 0.315,-0.714 0.152,-1.07 C 16.877,-1.772 16.521,-2 16.13,-2 h -3.976 v -7.239 c 0,-1.636 -1.331,-2.967 -2.966,-2.967" style="fill:#66abde;fill-opacity:1;fill-rule:nonzero;stroke:none" id="path163"></path>
      </g>
      <g id="g165" transform="matrix(0.35277777,0,0,-0.35277777,237.88638,214.10232)">
        <path d="m 0,0 4.64,-4.013 v 1.218 c 0,0.305 0.139,0.594 0.379,0.783 0.239,0.19 0.552,0.26 0.849,0.191 l 5.349,-0.011 c 0.182,0 0.331,0.149 0.331,0.332 v 3 c 0,0.183 -0.149,0.332 -0.331,0.332 H 5.939 C 5.641,1.762 5.293,1.827 5.054,2.017 4.815,2.207 4.64,2.49 4.64,2.795 v 1.218 z m 5.64,-7.199 c -0.236,0 -0.469,0.083 -0.654,0.243 l -7.169,6.2 c -0.219,0.19 -0.346,0.465 -0.346,0.756 0,0.291 0.127,0.566 0.346,0.756 l 7.169,6.2 C 5.283,7.212 5.7,7.272 6.056,7.108 6.412,6.946 6.64,6.59 6.64,6.199 V 3.832 h 4.577 c 1.285,0 2.331,-1.046 2.331,-2.332 v -3 c 0,-1.286 -1.046,-2.332 -2.331,-2.332 H 6.64 V -6.199 C 6.64,-6.59 6.412,-6.946 6.056,-7.108 5.923,-7.169 5.781,-7.199 5.64,-7.199" style="fill:#66abde;fill-opacity:1;fill-rule:nonzero;stroke:none" id="path167"></path>
      </g>
      <g id="g169" transform="matrix(0.35277777,0,0,-0.35277777,268.10314,214.73898)">
        <path d="M 0,0 C 0.231,0 0.469,-0.072 0.646,-0.212 0.884,-0.402 1.06,-0.685 1.06,-0.99 V -2.208 L 5.699,1.805 1.06,5.817 V 4.6 C 1.06,4.294 0.92,4.006 0.682,3.816 0.442,3.627 0.131,3.555 -0.167,3.625 l -5.351,0.011 c -0.182,0 -0.331,-0.149 -0.331,-0.331 v -3 c 0,-0.183 0.149,-0.332 0.331,-0.332 h 5.279 C -0.162,-0.009 -0.081,0 0,0 m 0.06,-5.395 c -0.141,0 -0.284,0.03 -0.416,0.091 -0.356,0.163 -0.584,0.518 -0.584,0.909 v 2.368 h -4.578 c -1.285,0 -2.331,1.046 -2.331,2.332 v 3 c 0,1.285 1.046,2.331 2.331,2.331 h 4.578 v 2.368 c 0,0.391 0.228,0.746 0.584,0.91 0.354,0.163 0.773,0.102 1.07,-0.154 L 7.882,2.561 C 8.102,2.371 8.228,2.095 8.228,1.805 8.228,1.514 8.102,1.238 7.882,1.048 L 0.714,-5.151 C 0.528,-5.311 0.295,-5.395 0.06,-5.395" style="fill:#66abde;fill-opacity:1;fill-rule:nonzero;stroke:none" id="path171"></path>
      </g>
      <g id="g173" transform="matrix(0.35277777,0,0,-0.35277777,247.25549,224.13496)">
        <path d="m 0,0 h -2.643 c -0.594,0 -1.076,0.482 -1.076,1.076 v 2.138 c 0,0.595 0.482,1.076 1.076,1.076 H 0 c 0.594,0 1.076,-0.481 1.076,-1.076 V 1.076 C 1.076,0.482 0.594,0 0,0" style="fill:#66abde;fill-opacity:1;fill-rule:nonzero;stroke:none" id="path175"></path>
      </g>
      <g id="g177" transform="matrix(0.35277777,0,0,-0.35277777,249.31945,224.13496)">
        <path d="m 0,0 h -2.643 c -0.594,0 -1.076,0.482 -1.076,1.076 v 2.138 c 0,0.595 0.482,1.076 1.076,1.076 H 0 c 0.594,0 1.076,-0.481 1.076,-1.076 V 1.076 C 1.076,0.482 0.594,0 0,0" style="fill:#66abde;fill-opacity:1;fill-rule:nonzero;stroke:none" id="path179"></path>
      </g>
      <g id="g181" transform="matrix(0.35277777,0,0,-0.35277777,251.37308,224.13496)">
        <path d="m 0,0 h -2.644 c -0.593,0 -1.075,0.482 -1.075,1.076 v 2.138 c 0,0.595 0.482,1.076 1.075,1.076 H 0 c 0.594,0 1.076,-0.481 1.076,-1.076 V 1.076 C 1.076,0.482 0.594,0 0,0" style="fill:#66abde;fill-opacity:1;fill-rule:nonzero;stroke:none" id="path183"></path>
      </g>
      <g id="g185" transform="matrix(0.35277777,0,0,-0.35277777,251.40338,210.40507)">
        <path d="m 0,0 h -13.718 c -0.641,0 -1.16,0.519 -1.16,1.16 v 0.472 c 0,0.64 0.519,1.16 1.16,1.16 H 0 c 0.641,0 1.16,-0.52 1.16,-1.16 V 1.16 C 1.16,0.519 0.641,0 0,0" style="fill:#66abde;fill-opacity:1;fill-rule:evenodd;stroke:none" id="path187"></path>
      </g>
      <g id="g189" transform="matrix(0.35277777,0,0,-0.35277777,247.76088,212.12331)">
        <path d="m 0,0 h -3.393 c -0.641,0 -1.16,0.519 -1.16,1.16 v 0.472 c 0,0.64 0.519,1.16 1.16,1.16 H 0 c 0.64,0 1.159,-0.52 1.159,-1.16 V 1.16 C 1.159,0.519 0.64,0 0,0" style="fill:#3167ae;fill-opacity:1;fill-rule:evenodd;stroke:none" id="path191"></path>
      </g>
      <g id="g193" transform="matrix(0.35277777,0,0,-0.35277777,253.71196,212.12331)">
        <path d="m 0,0 h -13.422 c -0.641,0 -1.16,0.519 -1.16,1.16 v 0.472 c 0,0.64 0.519,1.16 1.16,1.16 H 0 c 0.641,0 1.159,-0.52 1.159,-1.16 V 1.16 C 1.159,0.519 0.641,0 0,0" style="fill:#66abde;fill-opacity:1;fill-rule:evenodd;stroke:none" id="path195"></path>
      </g>
      <g id="g197" transform="matrix(0.35277777,0,0,-0.35277777,261.30804,212.12331)">
        <path d="m 0,0 h -18.085 c -0.641,0 -1.16,0.519 -1.16,1.16 v 0.472 c 0,0.64 0.519,1.16 1.16,1.16 H 0 c 0.64,0 1.159,-0.52 1.159,-1.16 V 1.16 C 1.159,0.519 0.64,0 0,0" style="fill:#3167ae;fill-opacity:1;fill-rule:evenodd;stroke:none" id="path199"></path>
      </g>
      <g id="g201" transform="matrix(0.35277777,0,0,-0.35277777,247.76088,213.90095)">
        <path d="m 0,0 h -3.393 c -0.641,0 -1.16,0.519 -1.16,1.16 v 0.472 c 0,0.64 0.519,1.16 1.16,1.16 H 0 c 0.64,0 1.159,-0.52 1.159,-1.16 V 1.16 C 1.159,0.519 0.64,0 0,0" style="fill:#3167ae;fill-opacity:1;fill-rule:evenodd;stroke:none" id="path203"></path>
      </g>
      <g id="g205" transform="matrix(0.35277777,0,0,-0.35277777,251.76667,213.90095)">
        <path d="m 0,0 h -7.908 c -0.64,0 -1.159,0.519 -1.159,1.16 v 0.472 c 0,0.64 0.519,1.16 1.159,1.16 H 0 c 0.64,0 1.16,-0.52 1.16,-1.16 V 1.16 C 1.16,0.519 0.64,0 0,0" style="fill:#66abde;fill-opacity:1;fill-rule:evenodd;stroke:none" id="path207"></path>
      </g>
      <g id="g209" transform="matrix(0.35277777,0,0,-0.35277777,247.76088,215.65073)">
        <path d="m 0,0 h -3.393 c -0.641,0 -1.16,0.52 -1.16,1.16 v 0.472 c 0,0.641 0.519,1.16 1.16,1.16 H 0 c 0.64,0 1.159,-0.519 1.159,-1.16 V 1.16 C 1.159,0.52 0.64,0 0,0" style="fill:#3167ae;fill-opacity:1;fill-rule:evenodd;stroke:none" id="path211"></path>
      </g>
      <g id="g213" transform="matrix(0.35277777,0,0,-0.35277777,253.2193,215.65073)">
        <path d="m 0,0 h -12.025 c -0.641,0 -1.16,0.52 -1.16,1.16 v 0.472 c 0,0.641 0.519,1.16 1.16,1.16 H 0 c 0.641,0 1.16,-0.519 1.16,-1.16 V 1.16 C 1.16,0.52 0.641,0 0,0" style="fill:#66abde;fill-opacity:1;fill-rule:evenodd;stroke:none" id="path215"></path>
      </g>
      <g id="g217" transform="matrix(0.35277777,0,0,-0.35277777,247.76088,217.44217)">
        <path d="m 0,0 h -3.393 c -0.641,0 -1.16,0.519 -1.16,1.159 v 0.473 c 0,0.64 0.519,1.16 1.16,1.16 H 0 c 0.64,0 1.159,-0.52 1.159,-1.16 V 1.159 C 1.159,0.519 0.64,0 0,0" style="fill:#3167ae;fill-opacity:1;fill-rule:evenodd;stroke:none" id="path219"></path>
      </g>
      <g id="g221" transform="matrix(0.35277777,0,0,-0.35277777,246.73063,219.04534)">
        <path d="m 0,0 h -0.473 c -0.64,0 -1.159,0.52 -1.159,1.16 v 0.472 c 0,0.641 0.519,1.16 1.159,1.16 H 0 c 0.64,0 1.159,-0.519 1.159,-1.16 V 1.16 C 1.159,0.52 0.64,0 0,0" style="fill:#66abde;fill-opacity:1;fill-rule:evenodd;stroke:none" id="path223"></path>
      </g>
      <g id="g225" transform="matrix(0.35277777,0,0,-0.35277777,256.98065,217.44217)">
        <path d="m 0,0 h -22.687 c -0.641,0 -1.16,0.519 -1.16,1.159 v 0.473 c 0,0.64 0.519,1.16 1.16,1.16 H 0 c 0.641,0 1.16,-0.52 1.16,-1.16 V 1.159 C 1.16,0.519 0.641,0 0,0" style="fill:#66abde;fill-opacity:1;fill-rule:evenodd;stroke:none" id="path227"></path>
      </g>
    </g>
  </svg>