<?xml version="1.0" encoding="UTF-8" standalone="no"?>
<svg
   xmlns:dc="http://purl.org/dc/elements/1.1/"
   xmlns:cc="http://creativecommons.org/ns#"
   xmlns:rdf="http://www.w3.org/1999/02/22-rdf-syntax-ns#"
   xmlns:svg="http://www.w3.org/2000/svg"
   xmlns="http://www.w3.org/2000/svg"
   id="svg5105"
   version="1.1"
   viewBox="0 0 138 138"
   height="138"
   width="138">
  <defs
     id="defs5099" />
  <metadata
     id="metadata5102">
    <rdf:RDF>
      <cc:Work
         rdf:about="">
        <dc:format>image/svg+xml</dc:format>
        <dc:type
           rdf:resource="http://purl.org/dc/dcmitype/StillImage" />
        <dc:title></dc:title>
      </cc:Work>
    </rdf:RDF>
  </metadata>
  <g
     transform="translate(-12.345221,-28.872129)"
     id="layer1">
    <g
       style="stroke-width:0.264579"
       transform="matrix(3.779582,0,0,3.779582,-37.126646,-83.064569)"
       id="g834">
      <path
         d="m 38.13226,46.634153 c 1.533175,-1.533172 1.533532,-4.015317 0,-5.548842 -1.533165,-1.533175 -4.015666,-1.533525 -5.548842,0 -1.529644,1.529292 -1.529644,4.018492 0,5.549195 1.529997,1.528938 4.019197,1.529291 5.548842,-3.53e-4 z M 33.693254,42.19515 c 0.919702,-0.920044 2.409122,-0.920044 3.32917,0 0.920045,0.919692 0.920045,2.409119 0,3.329164 -0.917571,0.917575 -2.411232,0.917575 -3.32917,3.53e-4 -0.917568,-0.918281 -0.917921,-2.411942 0,-3.329517 z"
         style="fill:#ffffff;fill-opacity:1;fill-rule:nonzero;stroke:none;stroke-width:0.0933379"
         id="path2225" />
      <path
         d="m 17.029094,50.533758 c 0.08749,0.03634 0.17992,0.05398 0.271289,0.05398 0.184507,0 0.365827,-0.07232 0.501647,-0.207786 1.424516,-1.424869 3.181709,-1.335616 3.756028,-1.260122 l 0.248359,0.248355 c -0.488957,1.163462 -0.88301,2.32022 -1.171582,3.44558 -0.104419,0.407108 -0.06914,0.837847 0.08573,1.231901 -0.682981,0.31503 -1.341973,0.777171 -1.915583,1.350787 -1.825985,1.825976 -2.196754,6.276269 -2.211567,6.464652 -0.01658,0.20708 0.05856,0.410633 0.205316,0.557389 0.133703,0.133702 0.314322,0.207785 0.50165,0.207785 0.01835,0 0.03704,-7.05e-4 0.05574,-0.0021 0.188736,-0.01482 4.639034,-0.385587 6.465012,-2.211566 0.573617,-0.573616 1.035399,-1.232251 1.350433,-1.915231 0.416977,0.164043 0.846663,0.184152 1.232602,0.08537 1.124652,-0.288925 2.281418,-0.682624 3.444879,-1.171574 l 0.248705,0.248353 c 0.07514,0.574324 0.164394,2.331509 -1.260119,3.756026 -0.202851,0.202846 -0.263529,0.508001 -0.153815,0.772937 0.109718,0.264936 0.368304,0.437796 0.655461,0.437796 2.807409,0 6.732764,-1.672166 8.178444,-4.373384 0.627944,-1.172988 1.055511,-3.028952 -0.307972,-5.344937 0.578207,-0.488598 1.13489,-0.999067 1.659816,-1.524352 2.342438,-2.342444 4.181129,-5.374217 5.46559,-9.011708 1.604423,-4.539897 1.757881,-8.358713 1.763889,-8.519231 0.0071,-0.19685 -0.06808,-0.387702 -0.207437,-0.52705 -0.139333,-0.139347 -0.329481,-0.214838 -0.527036,-0.207084 -0.160521,0.0056 -3.979344,0.159107 -8.518892,1.76354 -3.637837,1.28446 -6.669609,3.123498 -9.012057,5.465586 -0.524937,0.524937 -1.035759,1.081613 -1.524356,1.659819 -2.315979,-1.363133 -4.171594,-0.935919 -5.344929,-0.307975 -2.70158,1.445684 -4.373386,5.371042 -4.373386,8.1788 0,0.286808 0.172857,0.545395 0.438143,0.655461 z m 5.788737,8.875537 c -0.975434,0.97543 -3.263547,1.489781 -4.709583,1.700036 0.210255,-1.446391 0.724598,-3.734507 1.700036,-4.709585 0.5461,-0.546451 1.179329,-0.960614 1.816093,-1.193798 l 2.387258,2.387246 c -0.233546,0.636764 -0.647358,1.27 -1.193804,1.816101 z m 3.23391,-2.200982 c -0.20496,0.05256 -0.442736,-0.02469 -0.619834,-0.201084 -3.443104,-3.443109 0.976845,0.976844 -3.22121,-3.221212 -0.177098,-0.177447 -0.254,-0.41522 -0.201785,-0.620185 0.227185,-0.884765 0.52458,-1.792463 0.885821,-2.709332 l 5.865985,5.866343 c -0.916513,0.361242 -1.82421,0.658282 -2.708977,0.88547 z m 10.21539,0.375004 c -0.92922,1.736723 -3.269548,3.016603 -5.402093,3.457223 0.680159,-1.279527 0.830093,-2.908301 0.581381,-3.89608 -0.0575,-0.229304 -0.207084,-0.344663 -0.215547,-0.358069 1.719082,-0.832556 3.346802,-1.831623 4.858102,-2.980619 0.738361,1.349022 0.799049,2.617611 0.178157,3.777545 z m 7.088004,-16.762589 -4.958292,-4.958295 c 2.701216,-0.838902 5.051436,-1.153227 6.224404,-1.266113 -0.112868,1.173332 -0.42721,3.523189 -1.266112,6.224408 z m -14.51786,0.530221 c 2.101497,-2.10149 4.813649,-3.774016 8.063441,-4.978043 l 5.94396,5.943952 c -1.204038,3.249789 -2.876557,5.961945 -4.978054,8.063442 -0.639237,0.639233 -1.327503,1.256947 -2.046108,1.835502 -1.726498,1.390297 -3.627264,2.567871 -5.654682,3.505554 l -6.669616,-6.669264 c 0.937334,-2.02812 2.115255,-3.928534 3.505556,-5.655028 0.578905,-0.718961 1.196266,-1.407231 1.835503,-2.046115 z m -7.203373,1.599498 c 1.160642,-0.621241 2.428878,-0.560211 3.777548,0.178153 -1.148994,1.510947 -2.147715,3.139017 -2.980267,4.858103 -0.01058,-0.0063 -0.138285,-0.166864 -0.375352,-0.220486 -0.09772,-0.02222 -1.974504,-0.425803 -3.878792,0.586316 0.44062,-2.132541 1.720494,-4.472869 3.456863,-5.402086 z"
         style="fill:#ffffff;fill-opacity:1;fill-rule:nonzero;stroke:none;stroke-width:0.0933379"
         id="path2227" />
    </g>
  </g>
</svg>
