<?xml version="1.0" encoding="UTF-8" standalone="no"?>
<svg
   xmlns:dc="http://purl.org/dc/elements/1.1/"
   xmlns:cc="http://creativecommons.org/ns#"
   xmlns:rdf="http://www.w3.org/1999/02/22-rdf-syntax-ns#"
   xmlns:svg="http://www.w3.org/2000/svg"
   xmlns="http://www.w3.org/2000/svg"
   id="svg5105"
   version="1.1"
   viewBox="0 0 138 138"
   height="138"
   width="138">
  <defs
     id="defs5099" />
  <metadata
     id="metadata5102">
    <rdf:RDF>
      <cc:Work
         rdf:about="">
        <dc:format>image/svg+xml</dc:format>
        <dc:type
           rdf:resource="http://purl.org/dc/dcmitype/StillImage" />
        <dc:title></dc:title>
      </cc:Work>
    </rdf:RDF>
  </metadata>
  <g
     transform="translate(-26.038429,-10.000418)"
     id="layer1">
    <path
       d="M 153.38377,19.654415 H 36.693108 c -4.93867,0 -8.956004,4.017333 -8.956004,8.956 v 84.865335 c 0,4.93867 4.017334,8.95733 8.956004,8.95733 h 14.911996 v 12.26 c 0,1.348 0.738668,2.58133 1.929332,3.22133 0.539998,0.28934 1.131999,0.432 1.721334,0.432 0.70933,0 1.414673,-0.20666 2.026668,-0.61466 l 22.942666,-15.29867 h 73.158666 c 4.93865,0 8.95599,-4.01866 8.95599,-8.95733 V 28.610415 c 0,-4.938667 -4.01734,-8.956 -8.95599,-8.956 z M 55.257102,115.12908 H 36.693108 c -0.910666,0 -1.651999,-0.74267 -1.651999,-1.65333 V 28.610415 c 0,-0.910667 0.741333,-1.652 1.651999,-1.652 H 153.38377 c 0.91067,0 1.652,0.741333 1.652,1.652 v 84.865335 c 0,0.91066 -0.74133,1.65333 -1.652,1.65333 H 79.126437 c -0.722667,0 -1.424,0.212 -2.025333,0.61333 l -18.190666,12.128 v -9.09067 c 0,-2.01332 -1.638667,-3.65066 -3.653336,-3.65066 z"
       style="fill:#ffffff;fill-opacity:1;fill-rule:nonzero;stroke:none;stroke-width:1.33333"
       id="path2183" />
    <path
       d="m 77.165104,67.69708 c -1.342667,-1.154666 -3.128,-2.206666 -5.186667,-3.058666 0.434667,-1.249333 0.653334,-2.546667 0.653334,-3.865333 V 45.162414 c 0,-1.244 -1.012,-2.254653 -2.254667,-2.254653 H 56.597108 c -2.021341,0 -3.932006,0.791987 -5.380004,2.233307 -1.43867,1.44536 -2.230662,3.35468 -2.230662,5.376013 v 10.256 c 0,1.413333 0.246664,2.792 0.73466,4.102666 -1.905335,0.846667 -3.561331,1.874667 -4.812001,2.989333 -1.954662,1.745334 -2.987996,3.750667 -2.987996,5.798667 v 24.050667 c 0,1.241332 1.009337,2.250662 2.25067,2.250662 1.241334,0 2.250662,-1.00933 2.250662,-2.250662 V 73.663747 c 0,-0.748 0.509338,-1.596 1.477336,-2.453333 1.016001,-0.910667 2.463998,-1.76 4.198669,-2.464 0.117333,0.128 0.237325,0.252 0.358662,0.374666 2.230662,2.238667 5.196,3.472 8.348,3.472 3.149333,0 6.116,-1.233333 8.354667,-3.472 0.178666,-0.178666 0.356,-0.368 0.526666,-0.564 1.856,0.705334 3.426667,1.584 4.557334,2.553334 1.04,0.892 1.589333,1.776 1.589333,2.553333 v 24.050667 c 0,1.241332 1.009333,2.250662 2.250666,2.250662 1.24,0 2.249334,-1.00933 2.249334,-2.250662 V 73.663747 c 0,-2.121333 -1.094667,-4.184 -3.168,-5.966667 z M 68.123771,55.855747 v 4.917334 c 0,1.942666 -0.765334,3.777333 -2.153334,5.165333 -1.381333,1.389333 -3.215999,2.153333 -5.165333,2.153333 -1.944,0 -3.777332,-0.764 -5.165332,-2.153333 -1.388,-1.388 -2.151997,-3.222667 -2.151997,-5.165333 v -4.917334 z m 0,-8.446666 v 3.945333 H 53.487775 v -0.837333 c 0,-0.822667 0.323995,-1.6 0.913329,-2.18932 0.592,-0.593347 1.370667,-0.91868 2.196004,-0.91868 z"
       style="fill:#ffffff;fill-opacity:1;fill-rule:nonzero;stroke:none;stroke-width:1.33333"
       id="path2185" />
    <path
       d="m 111.0851,67.318414 c -1.34133,-1.156 -3.12798,-2.208 -5.18666,-3.058667 0.43466,-1.249333 0.65466,-2.548 0.65466,-3.866666 V 44.782414 c 0,-1.242666 -1.012,-2.254666 -2.256,-2.254666 H 90.517104 c -2.021334,0 -3.930667,0.793333 -5.38,2.233333 -1.437334,1.445333 -2.230667,3.356 -2.230667,5.377333 v 10.254667 c 0,1.413333 0.246667,2.792 0.736,4.104 -1.906667,0.846666 -3.562667,1.874666 -4.813333,2.987999 -1.954667,1.745334 -2.988,3.752 -2.988,5.8 v 24.050661 c 0,1.240001 1.009333,2.249339 2.250666,2.249339 1.241334,0 2.250667,-1.009338 2.250667,-2.249339 V 73.283747 c 0,-0.748 0.510667,-1.594667 1.477333,-2.452 1.017334,-0.912 2.464,-1.76 4.2,-2.464 0.116,0.126667 0.236,0.252 0.357334,0.373333 2.232,2.238667 5.197333,3.472 8.349333,3.472 3.148,0 6.114663,-1.232 8.353333,-3.470666 0.18,-0.18 0.356,-0.369334 0.52668,-0.564 1.85599,0.705333 3.42665,1.584 4.55733,2.552 1.03999,0.893333 1.58931,1.776 1.58931,2.553333 v 24.051994 c 0,1.240001 1.00935,2.249339 2.25068,2.249339 1.24133,0 2.25067,-1.009338 2.25067,-2.249339 V 73.283747 c 0,-2.12 -1.09602,-4.184 -3.16934,-5.965333 z m -9.04134,-11.842667 v 4.917334 c 0,1.942666 -0.76399,3.777333 -2.15199,5.166666 -1.381333,1.388 -3.216013,2.152 -5.166667,2.152 -1.942666,0 -3.777333,-0.764 -5.165333,-2.153333 -1.386666,-1.388 -2.152,-3.222667 -2.152,-5.165333 v -4.917334 z m 10e-4,-8.446679 v 3.945346 H 87.407757 v -0.836 c 0,-0.824 0.324,-1.60132 0.914667,-2.190666 0.590666,-0.592 1.370666,-0.91868 2.194666,-0.91868 z"
       style="fill:#ffffff;fill-opacity:1;fill-rule:nonzero;stroke:none;stroke-width:1.33333"
       id="path2187" />
    <path
       d="m 144.98642,67.318414 c -1.34132,-1.156 -3.12798,-2.208 -5.18665,-3.058667 0.43467,-1.249333 0.65465,-2.548 0.65465,-3.866666 V 44.782414 c 0,-1.242666 -1.01197,-2.254666 -2.25597,-2.254666 h -13.78001 c -2.02135,0 -3.93067,0.793333 -5.38,2.233333 -1.43735,1.445333 -2.23068,3.356 -2.23068,5.377333 v 10.254667 c 0,1.413333 0.24801,2.792 0.736,4.104 -1.90534,0.846666 -3.56266,1.874666 -4.81334,2.987999 -1.95464,1.745334 -2.98798,3.752 -2.98798,5.8 v 24.050661 c 0,1.240001 1.00933,2.249339 2.25066,2.249339 1.24134,0 2.25067,-1.009338 2.25067,-2.249339 V 73.283747 c 0,-0.748 0.51067,-1.594667 1.47735,-2.452 1.01733,-0.912 2.46398,-1.76 4.19998,-2.464 0.11734,0.126667 0.236,0.252 0.35867,0.373333 2.23067,2.238667 5.196,3.472 8.348,3.472 3.14801,0 6.11467,-1.232 8.35467,-3.470666 0.17868,-0.18 0.35466,-0.369334 0.52533,-0.564 1.856,0.705333 3.42665,1.584 4.55733,2.552 1.04,0.893333 1.58934,1.776 1.58934,2.553333 v 24.051994 c 0,1.240001 1.00934,2.249339 2.25068,2.249339 1.24133,0 2.25064,-1.009338 2.25064,-2.249339 V 73.283747 c 0,-2.12 -1.09599,-4.184 -3.16934,-5.965333 z M 135.9451,55.475747 v 4.917334 c 0,1.942666 -0.76398,3.777333 -2.15198,5.166666 -1.38135,1.388 -3.21602,2.152 -5.16667,2.152 -1.94267,0 -3.77735,-0.764 -5.16535,-2.153333 -1.38666,-1.388 -2.152,-3.222667 -2.152,-5.165333 v -4.917334 z m 0.001,-8.446679 v 3.945346 h -14.637 v -0.836 c 0,-0.824 0.324,-1.60132 0.91467,-2.190666 0.59067,-0.592 1.37067,-0.91868 2.19467,-0.91868 z"
       style="fill:#ffffff;fill-opacity:1;fill-rule:nonzero;stroke:none;stroke-width:1.33333"
       id="path2189" />
  </g>
</svg>
