<svg xmlns:dc="http://purl.org/dc/elements/1.1/" xmlns:cc="http://creativecommons.org/ns#"
    xmlns:rdf="http://www.w3.org/1999/02/22-rdf-syntax-ns#" xmlns:svg="http://www.w3.org/2000/svg"
    xmlns="http://www.w3.org/2000/svg" id="svg5776" version="1.1" viewBox="0 0 106.00007 135.99987" height="135.99986"
    width="106.00007">
    <defs id="defs5770"></defs>
    <metadata id="metadata5773">
        <rdf:rdf>
            <cc:work rdf:about="">
                <dc:format>image/svg+xml</dc:format>
                <dc:type rdf:resource="http://purl.org/dc/dcmitype/StillImage"></dc:type>
                <dc:title></dc:title>
            </cc:work>
        </rdf:rdf>
    </metadata>
    <g style="display:inline" transform="translate(-340.957,-212.0026)" id="layer1">
        <g style="stroke-width:1.01757" transform="matrix(0.97798654,0,0,0.98751451,8.3509132,4.203835)" id="g6493">
            <path
                d="m 341.61905,329.28571 v -99.99999 c 0,-1.13813 0.11102,-2.26532 0.33306,-3.38157 0.22204,-1.11626 0.55082,-2.20013 0.98636,-3.25161 0.43554,-1.05149 0.96947,-2.05039 1.60178,-2.99671 0.6323,-0.94631 1.35084,-1.82186 2.15562,-2.62663 0.80477,-0.80478 1.68032,-1.52332 2.62663,-2.15562 0.94632,-0.63231 1.94522,-1.16624 2.99671,-1.60178 1.05148,-0.43554 2.13535,-0.76432 3.25161,-0.98636 1.11625,-0.22204 2.24344,-0.33306 3.38157,-0.33306 h 70.66666 c 1.13811,0 2.2653,0.11102 3.38156,0.33306 1.11625,0.22204 2.20013,0.55082 3.25161,0.98636 1.05148,0.43554 2.05038,0.96947 2.9967,1.60178 0.94632,0.6323 1.82186,1.35084 2.62664,2.15562 0.80477,0.80477 1.52331,1.68032 2.15561,2.62663 0.63231,0.94632 1.16624,1.94522 1.60178,2.99671 0.43553,1.05148 0.76433,2.13535 0.98636,3.25161 0.22204,1.11625 0.33306,2.24344 0.33307,3.38157 v 99.99999 c -1e-5,1.13812 -0.11104,2.2653 -0.33307,3.38155 -0.22203,1.11627 -0.55083,2.20014 -0.98636,3.25162 -0.43554,1.05149 -0.96947,2.0504 -1.60178,2.99671 -0.6323,0.94632 -1.35084,1.82186 -2.15561,2.62663 -0.80478,0.80478 -1.68032,1.52332 -2.62664,2.15563 -0.94632,0.6323 -1.94522,1.16624 -2.9967,1.60177 -1.05148,0.43553 -2.13536,0.76432 -3.25161,0.98636 -1.11626,0.22204 -2.24345,0.33307 -3.38156,0.33307 h -70.66666 c -1.13813,0 -2.26532,-0.11107 -3.38157,-0.33306 -1.11626,-0.22204 -2.20013,-0.55084 -3.25161,-0.98637 -1.05149,-0.43553 -2.05039,-0.96947 -2.99671,-1.60178 -0.94631,-0.6323 -1.82186,-1.35084 -2.62663,-2.15562 -0.80478,-0.80477 -1.52332,-1.68031 -2.15562,-2.62663 -0.63231,-0.94631 -1.16624,-1.94522 -1.60178,-2.99671 -0.43554,-1.05148 -0.76432,-2.13535 -0.98636,-3.25162 -0.22204,-1.11625 -0.33306,-2.24343 -0.33306,-3.38155 z"
                style="fill:#ffffff;fill-opacity:1;fill-rule:nonzero;stroke:none;stroke-width:1.35676" id="path2202">
            </path>
            <path
                d="M 341.61905,330.61905 V 227.95238 c 0,-1.05057 0.10248,-2.09105 0.30744,-3.12144 0.20496,-1.03039 0.50845,-2.03089 0.91049,-3.00149 0.40204,-0.97061 0.89489,-1.89267 1.47856,-2.76619 0.58367,-0.87352 1.24694,-1.68172 1.9898,-2.42459 0.74287,-0.74286 1.55107,-1.40613 2.42459,-1.9898 0.87352,-0.58367 1.79558,-1.07652 2.76619,-1.47856 0.9706,-0.40204 1.9711,-0.70553 3.00149,-0.91049 1.03039,-0.20496 2.07087,-0.30744 3.12144,-0.30744 h 73.33333 c 1.05058,0 2.09106,0.10248 3.12144,0.30744 1.03039,0.20496 2.03089,0.50845 3.00149,0.91049 0.9706,0.40204 1.89266,0.89489 2.76617,1.47856 0.87353,0.58367 1.68173,1.24694 2.4246,1.9898 0.74287,0.74287 1.40613,1.55107 1.9898,2.42459 0.58367,0.87352 1.07652,1.79558 1.47856,2.76619 0.40204,0.9706 0.70553,1.9711 0.9105,3.00149 0.20496,1.03039 0.30743,2.07087 0.30744,3.12144 v 34.93836 67.72831 c -1e-5,1.05056 -0.10249,2.09105 -0.30744,3.12144 -0.20497,1.03038 -0.50846,2.03088 -0.9105,3.00149 -0.40204,0.9706 -0.89489,1.89266 -1.47855,2.76619 -0.58367,0.87352 -1.24694,1.68171 -1.98981,2.42458 -0.74287,0.74286 -1.55107,1.40612 -2.4246,1.98979 -0.87351,0.58367 -1.79557,1.07652 -2.76617,1.47856 -0.9706,0.40204 -1.9711,0.70553 -3.00149,0.91049 -1.03038,0.20496 -2.07086,0.30746 -3.12144,0.30746 h -73.33333 c -1.05057,0 -2.09105,-0.10254 -3.12144,-0.30744 -1.03039,-0.20496 -2.03089,-0.50846 -3.00149,-0.9105 -0.97061,-0.40205 -1.89267,-0.8949 -2.76619,-1.47857 -0.87352,-0.58367 -1.68172,-1.24693 -2.42459,-1.98979 -0.74286,-0.74287 -1.40613,-1.55107 -1.9898,-2.42459 -0.58367,-0.87353 -1.07652,-1.79559 -1.47856,-2.7662 -0.40204,-0.97059 -0.70553,-1.97109 -0.91049,-3.00147 -0.20496,-1.03039 -0.30744,-2.07088 -0.30744,-3.12144 z"
                style="fill:none;stroke:#5277c3;stroke-width:3.05269;stroke-linecap:butt;stroke-linejoin:miter;stroke-miterlimit:10;stroke-dasharray:none;stroke-opacity:1"
                id="path2204"></path>
            <g style="stroke-width:1.01757" transform="matrix(1.3333333,0,0,1.3333333,365.67276,253.18275)" id="g2206">
                <path id="path2208"
                    style="fill:none;stroke:#6ad542;stroke-width:3.05269;stroke-linecap:round;stroke-linejoin:miter;stroke-miterlimit:10;stroke-dasharray:none;stroke-opacity:1"
                    d="M 0,0 H 43.672405"></path>
            </g>
            <g style="stroke-width:1.01757" transform="matrix(1.3333333,0,0,1.3333333,365.67276,279.28575)" id="g2210">
                <path id="path2212"
                    style="fill:none;stroke:#7ebae4;stroke-width:3.05269;stroke-linecap:round;stroke-linejoin:miter;stroke-miterlimit:10;stroke-dasharray:none;stroke-opacity:1"
                    d="M 0,0 H 43.672405"></path>
            </g>
            <g style="stroke-width:1.01757" transform="matrix(1.3333333,0,0,1.3333333,365.67276,305.38905)" id="g2214">
                <path id="path2216"
                    style="fill:none;stroke:#7ebae4;stroke-width:3.05269;stroke-linecap:round;stroke-linejoin:miter;stroke-miterlimit:10;stroke-dasharray:none;stroke-opacity:1"
                    d="M 0,0 H 43.672405"></path>
            </g>
            <g style="stroke-width:1.01757" transform="matrix(1.3333333,0,0,1.3333333,365.67276,332.49605)" id="g2218">
                <path id="path2220"
                    style="fill:none;stroke:#7ebae4;stroke-width:3.05269;stroke-linecap:round;stroke-linejoin:miter;stroke-miterlimit:10;stroke-dasharray:none;stroke-opacity:1"
                    d="M 0,0 H 43.672405"></path>
            </g>
            <g style="stroke-width:1.01757" transform="matrix(1.3333333,0,0,1.3333333,374.70859,292.33745)" id="g2222">
                <path id="path2224"
                    style="fill:none;stroke:#7ebae4;stroke-width:3.05269;stroke-linecap:round;stroke-linejoin:miter;stroke-miterlimit:10;stroke-dasharray:none;stroke-opacity:1"
                    d="M 0,0 H 36.895649"></path>
            </g>
            <g style="stroke-width:1.01757" transform="matrix(1.3333333,0,0,1.3333333,374.70859,318.44045)" id="g2226">
                <path id="path2228"
                    style="fill:none;stroke:#7ebae4;stroke-width:3.05269;stroke-linecap:round;stroke-linejoin:miter;stroke-miterlimit:10;stroke-dasharray:none;stroke-opacity:1"
                    d="M 0,0 H 36.895649"></path>
            </g>
            <g style="stroke-width:1.01757" transform="matrix(1.3333333,0,0,1.3333333,374.70859,266.23445)" id="g2230">
                <path id="path2232"
                    style="fill:none;stroke:#7ebae4;stroke-width:3.05269;stroke-linecap:round;stroke-linejoin:miter;stroke-miterlimit:10;stroke-dasharray:none;stroke-opacity:1"
                    d="M 0,0 H 36.895649"></path>
            </g>
            <g style="stroke-width:1.01757" transform="matrix(1.3333333,0,0,1.3333333,340.28572,210.61905)" id="g2234">
                <path id="path2236"
                    style="fill:#ffffff;fill-opacity:1;fill-rule:nonzero;stroke:none;stroke-width:1.01757"
                    d="m 1,11 c -6e-8,-0.656609 0.064049,-1.3069115 0.192147,-1.9509039 C 1.3202452,8.4051027 1.5099308,7.7797923 1.7612045,7.1731648 2.0124779,6.5665369 2.3205109,5.9902477 2.6853034,5.4442973 3.050096,4.8983464 3.4646389,4.3932247 3.928932,3.928932 4.3932247,3.4646389 4.8983464,3.050096 5.4442973,2.6853034 5.9902477,2.3205109 6.5665369,2.0124779 7.1731648,1.7612045 7.7797923,1.509931 8.4051027,1.3202453 9.0490961,1.1921471 9.6930885,1.064049 10.343391,1 11,1 h 59 c 0.656609,0 1.306908,0.064049 1.950897,0.1921473 0.64399,0.128098 1.269303,0.3177838 1.875931,0.5690573 0.606628,0.2512733 1.182915,0.5593063 1.728867,0.9240988 0.545951,0.3647926 1.051071,0.7793355 1.515365,1.2436286 0.464287,0.4642927 0.87883,0.9694144 1.243622,1.5153653 0.364792,0.5459504 0.672829,1.1222396 0.924103,1.7288675 0.251274,0.6066275 0.440956,1.2319379 0.569061,1.8759313 C 79.935944,9.6930885 79.999992,10.343391 80,11 c -8e-6,0.656609 -0.06406,1.30691 -0.192154,1.950903 -0.128105,0.643992 -0.317787,1.269302 -0.569061,1.875931 -0.251274,0.606627 -0.559311,1.182916 -0.924103,1.728866 -0.364792,0.54595 -0.779335,1.051073 -1.243622,1.515368 -0.464294,0.464292 -0.969414,0.878834 -1.515365,1.243625 -0.545952,0.364794 -1.122239,0.672827 -1.728867,0.924101 C 73.2202,20.490067 72.594887,20.679752 71.950897,20.80785 71.306908,20.935949 70.656609,20.999998 70,21 H 11 C 10.343391,20.999998 9.6930885,20.93595 9.0490961,20.80785 8.4051027,20.679752 7.7797923,20.490067 7.1731648,20.238794 6.5665369,19.98752 5.9902477,19.679487 5.4442973,19.314693 4.8983464,18.949902 4.3932247,18.53536 3.928932,18.071068 3.4646389,17.606773 3.050096,17.10165 2.6853034,16.5557 2.3205109,16.00975 2.0124779,15.433461 1.7612045,14.826834 1.5099308,14.220205 1.3202452,13.594895 1.1921471,12.950903 1.064049,12.30691 0.99999994,11.656609 1,11 Z">
                </path>
                <path id="path2238"
                    style="fill:none;stroke:#5277c3;stroke-width:2.28951;stroke-linecap:butt;stroke-linejoin:miter;stroke-miterlimit:10;stroke-dasharray:none;stroke-opacity:1"
                    d="m 1,11 c -6e-8,-0.656609 0.064049,-1.3069115 0.192147,-1.9509039 C 1.3202452,8.4051027 1.5099308,7.7797923 1.7612045,7.1731648 2.0124779,6.5665369 2.3205109,5.9902477 2.6853034,5.4442973 3.050096,4.8983464 3.4646389,4.3932247 3.928932,3.928932 4.3932247,3.4646389 4.8983464,3.050096 5.4442973,2.6853034 5.9902477,2.3205109 6.5665369,2.0124779 7.1731648,1.7612045 7.7797923,1.509931 8.4051027,1.3202453 9.0490961,1.1921471 9.6930885,1.064049 10.343391,1 11,1 h 59 c 0.656609,0 1.306908,0.064049 1.950897,0.1921473 0.64399,0.128098 1.269303,0.3177838 1.875931,0.5690573 0.606628,0.2512733 1.182915,0.5593063 1.728867,0.9240988 0.545951,0.3647926 1.051071,0.7793355 1.515365,1.2436286 0.464287,0.4642927 0.87883,0.9694144 1.243622,1.5153653 0.364792,0.5459504 0.672829,1.1222396 0.924103,1.7288675 0.251274,0.6066275 0.440956,1.2319379 0.569061,1.8759313 C 79.935944,9.6930885 79.999992,10.343391 80,11 c -8e-6,0.656609 -0.06406,1.30691 -0.192154,1.950903 -0.128105,0.643992 -0.317787,1.269302 -0.569061,1.875931 -0.251274,0.606627 -0.559311,1.182916 -0.924103,1.728866 -0.364792,0.54595 -0.779335,1.051073 -1.243622,1.515368 -0.464294,0.464292 -0.969414,0.878834 -1.515365,1.243625 -0.545952,0.364794 -1.122239,0.672827 -1.728867,0.924101 C 73.2202,20.490067 72.594887,20.679752 71.950897,20.80785 71.306908,20.935949 70.656609,20.999998 70,21 H 11 C 10.343391,20.999998 9.6930885,20.93595 9.0490961,20.80785 8.4051027,20.679752 7.7797923,20.490067 7.1731648,20.238794 6.5665369,19.98752 5.9902477,19.679487 5.4442973,19.314693 4.8983464,18.949902 4.3932247,18.53536 3.928932,18.071068 3.4646389,17.606773 3.050096,17.10165 2.6853034,16.5557 2.3205109,16.00975 2.0124779,15.433461 1.7612045,14.826834 1.5099308,14.220205 1.3202452,13.594895 1.1921471,12.950903 1.064049,12.30691 0.99999994,11.656609 1,11 Z">
                </path>
            </g>
        </g>
    </g>
</svg>