<svg xmlns="http://www.w3.org/2000/svg" viewBox="0 0 677.333 276.126" height="1043.626" width="2560" style="background-color: #3b5487; opacity: 0.3">
    <path style="fill:none;stroke:#ffffff;stroke-width:.35277781;stroke-linecap:butt;stroke-linejoin:miter;stroke-miterlimit:10;stroke-dasharray:none;stroke-opacity:1"
          d="M-168.492 276.313-11.65.19" transform="translate(226.786 -.187)"/>
    <path style="fill:none;stroke:#ffffff;stroke-width:.35277775;stroke-linecap:butt;stroke-linejoin:miter;stroke-miterlimit:10;stroke-dasharray:none;stroke-opacity:1"
          d="M-122.622 276.313 34.213.19" transform="translate(226.786 -.187)"/>
    <path style="fill:none;stroke:#ffffff;stroke-width:.35277781;stroke-linecap:butt;stroke-linejoin:miter;stroke-miterlimit:10;stroke-dasharray:none;stroke-opacity:1"
          d="M-37.97 276.313 118.874.19" transform="translate(226.786 -.187)"/>
    <path style="fill:none;stroke:#ffffff;stroke-width:.35277778;stroke-linecap:butt;stroke-linejoin:miter;stroke-miterlimit:10;stroke-dasharray:none;stroke-opacity:1"
          d="M70.342 276.313 227.19.19M196.98 276.313 353.832.19" transform="translate(226.786 -.187)"/>
    <path d="m-181.787 72.292 39.425 68.294-18.118.17-10.526-18.348-10.6 18.25-9.003-.005-4.61-7.965 15.102-25.97-10.72-18.656zM-167.557 44.161l-39.431 68.29-9.207-15.606 10.628-18.29-21.106-.055-4.498-7.798 4.593-7.976 30.041.095 10.797-18.613ZM-164.532 98.75l78.857.005-8.912 15.775-21.153-.058 10.505 18.305-4.505 7.794-9.203.01-14.938-26.063-21.518-.044zM-118.635 68.828-158.059.534l18.118-.17 10.525 18.348 10.6-18.25 9.003.004 4.61 7.965-15.102 25.97 10.721 18.656-9.05 15.77z"
          style="fill:none;stroke:#ffffff;stroke-width:.35277775;stroke-linecap:butt;stroke-linejoin:miter;stroke-miterlimit:10;stroke-dasharray:none;stroke-opacity:1"
          transform="translate(226.786 -.187)"/>
    <path d="m-136.052 42.212-78.857-.004 8.912-15.776 21.153.059-10.505-18.305 4.504-7.795 9.204-.01 14.938 26.064 21.518.043 9.133 15.724z"
          style="fill:none;stroke:#ffffff;stroke-width:.35268956;stroke-linecap:butt;stroke-linejoin:miter;stroke-miterlimit:10;stroke-dasharray:none;stroke-opacity:1"
          transform="translate(226.786 -.187)"/>
    <path d="m-132.954 96.948 39.431-68.29 9.207 15.606-10.627 18.29 21.105.055 4.498 7.798-4.593 7.976-30.041-.095-10.797 18.613z"
          style="fill:none;stroke:#ffffff;stroke-width:.35277775;stroke-linecap:butt;stroke-linejoin:miter;stroke-miterlimit:10;stroke-dasharray:none;stroke-opacity:1"
          transform="translate(226.786 -.187)"/>
    <g style="stroke-width:.82525498">
        <path d="m-181.787 72.292 39.425 68.294-18.118.17-10.526-18.348-10.6 18.25-9.003-.005-4.61-7.965 15.102-25.97-10.72-18.656zM-167.557 44.161l-39.431 68.29-9.207-15.606 10.628-18.29-21.106-.055-4.498-7.798 4.593-7.976 30.041.095 10.797-18.613ZM-164.532 98.75l78.857.005-8.912 15.775-21.153-.058 10.505 18.305-4.505 7.794-9.203.01-14.938-26.063-21.518-.044zM-118.635 68.828-158.059.534l18.118-.17 10.525 18.348 10.6-18.25 9.003.004 4.61 7.965-15.102 25.97 10.721 18.656-9.05 15.77z"
              style="fill:none;stroke:#ffffff;stroke-width:.29113159;stroke-linecap:butt;stroke-linejoin:miter;stroke-miterlimit:10;stroke-dasharray:none;stroke-opacity:1"
              transform="matrix(1.21171 0 0 1.21178 859.4 25.485)"/>
        <path d="m-136.052 42.212-78.857-.004 8.912-15.776 21.153.059-10.505-18.305 4.504-7.795 9.204-.01 14.938 26.064 21.518.043 9.133 15.724z"
              style="fill:none;stroke:#ffffff;stroke-width:.29105881;stroke-linecap:butt;stroke-linejoin:miter;stroke-miterlimit:10;stroke-dasharray:none;stroke-opacity:1"
              transform="matrix(1.21171 0 0 1.21178 859.4 25.485)"/>
        <path d="m-132.954 96.948 39.431-68.29 9.207 15.606-10.627 18.29 21.105.055 4.498 7.798-4.593 7.976-30.041-.095-10.797 18.613z"
              style="fill:none;stroke:#ffffff;stroke-width:.29113159;stroke-linecap:butt;stroke-linejoin:miter;stroke-miterlimit:10;stroke-dasharray:none;stroke-opacity:1"
              transform="matrix(1.21171 0 0 1.21178 859.4 25.485)"/>
    </g>
</svg>
