<svg xmlns="http://www.w3.org/2000/svg" viewBox="-1152.0 -997.6612651596732 2304.0 1995.3225303193465"><defs><linearGradient gradientUnits="userSpaceOnUse" id="linear-gradient-fe8007f03960d653a0f88aaeb7699e30" x1="-319.9999999999999" x2="127.99999999999996" y1="-554.2562584220408" y2="221.70250336881628"><stop offset="0%" stop-color="#43609e"></stop><stop offset="25%" stop-color="#4b6bb0"></stop><stop offset="100%" stop-color="#5377c3"></stop></linearGradient><linearGradient gradientUnits="userSpaceOnUse" id="linear-gradient-97cf99ea51a28ee27df23cfd5a6fad51" x1="-319.9999999999999" x2="127.99999999999996" y1="-554.2562584220408" y2="221.70250336881628"><stop offset="0%" stop-color="#739fbf"></stop><stop offset="25%" stop-color="#79add1"></stop><stop offset="100%" stop-color="#7ebae4"></stop></linearGradient></defs><polygon fill="url(#linear-gradient-fe8007f03960d653a0f88aaeb7699e30)" points="-303.9999999999999 -304.8409421321224 -175.9999999999999 -526.5434455009388 384.00000000000006 443.40500673763256 128.00000000000006 443.40500673763256 -4.072608916703642e-14 221.70250336881628 -128.00000000000023 443.40500673763245 -256.0000000000002 443.40500673763245 -320.0000000000002 332.55375505322434 -128.0 0.0" transform="translate(-319.9999999999999 554.2562584220408) rotate(0 319.9999999999999 -554.2562584220408)"></polygon> <polygon fill="url(#linear-gradient-97cf99ea51a28ee27df23cfd5a6fad51)" points="-303.9999999999999 -304.8409421321224 -175.9999999999999 -526.5434455009388 384.00000000000006 443.40500673763256 128.00000000000006 443.40500673763256 -4.072608916703642e-14 221.70250336881628 -128.00000000000023 443.40500673763245 -256.0000000000002 443.40500673763245 -320.0000000000002 332.55375505322434 -128.0 0.0" transform="translate(-319.9999999999999 554.2562584220408) rotate(60 319.9999999999999 -554.2562584220408)"></polygon> <polygon fill="url(#linear-gradient-fe8007f03960d653a0f88aaeb7699e30)" points="-303.9999999999999 -304.8409421321224 -175.9999999999999 -526.5434455009388 384.00000000000006 443.40500673763256 128.00000000000006 443.40500673763256 -4.072608916703642e-14 221.70250336881628 -128.00000000000023 443.40500673763245 -256.0000000000002 443.40500673763245 -320.0000000000002 332.55375505322434 -128.0 0.0" transform="translate(-319.9999999999999 554.2562584220408) rotate(120 319.9999999999999 -554.2562584220408)"></polygon> <polygon fill="url(#linear-gradient-97cf99ea51a28ee27df23cfd5a6fad51)" points="-303.9999999999999 -304.8409421321224 -175.9999999999999 -526.5434455009388 384.00000000000006 443.40500673763256 128.00000000000006 443.40500673763256 -4.072608916703642e-14 221.70250336881628 -128.00000000000023 443.40500673763245 -256.0000000000002 443.40500673763245 -320.0000000000002 332.55375505322434 -128.0 0.0" transform="translate(-319.9999999999999 554.2562584220408) rotate(180 319.9999999999999 -554.2562584220408)"></polygon> <polygon fill="url(#linear-gradient-fe8007f03960d653a0f88aaeb7699e30)" points="-303.9999999999999 -304.8409421321224 -175.9999999999999 -526.5434455009388 384.00000000000006 443.40500673763256 128.00000000000006 443.40500673763256 -4.072608916703642e-14 221.70250336881628 -128.00000000000023 443.40500673763245 -256.0000000000002 443.40500673763245 -320.0000000000002 332.55375505322434 -128.0 0.0" transform="translate(-319.9999999999999 554.2562584220408) rotate(240 319.9999999999999 -554.2562584220408)"></polygon> <polygon fill="url(#linear-gradient-97cf99ea51a28ee27df23cfd5a6fad51)" points="-303.9999999999999 -304.8409421321224 -175.9999999999999 -526.5434455009388 384.00000000000006 443.40500673763256 128.00000000000006 443.40500673763256 -4.072608916703642e-14 221.70250336881628 -128.00000000000023 443.40500673763245 -256.0000000000002 443.40500673763245 -320.0000000000002 332.55375505322434 -128.0 0.0" transform="translate(-319.9999999999999 554.2562584220408) rotate(300 319.9999999999999 -554.2562584220408)"></polygon></svg>