<svg xmlns="http://www.w3.org/2000/svg" viewBox="-1152.0 -997.6612651596732 2304.0 1995.3225303193465"><defs><linearGradient gradientUnits="userSpaceOnUse" id="linear-gradient-44584babfef90c4cb32c8ee42b1193ba" x1="-319.9999999999999" x2="127.99999999999996" y1="-554.2562584220408" y2="221.70250336881628"><stop offset="0%" stop-color="#9e0000"></stop><stop offset="25%" stop-color="#af0000"></stop><stop offset="100%" stop-color="#c10100"></stop></linearGradient><linearGradient gradientUnits="userSpaceOnUse" id="linear-gradient-96af2d924a4fbf5b015c244addc578a8" x1="-319.9999999999999" x2="127.99999999999996" y1="-554.2562584220408" y2="221.70250336881628"><stop offset="0%" stop-color="#dc5500"></stop><stop offset="25%" stop-color="#ee5e00"></stop><stop offset="100%" stop-color="#ff6705"></stop></linearGradient><linearGradient gradientUnits="userSpaceOnUse" id="linear-gradient-33ff75d118a188d564af252422e7cc92" x1="-319.9999999999999" x2="127.99999999999996" y1="-554.2562584220408" y2="221.70250336881628"><stop offset="0%" stop-color="#db9917"></stop><stop offset="25%" stop-color="#eca412"></stop><stop offset="100%" stop-color="#fdb00b"></stop></linearGradient><linearGradient gradientUnits="userSpaceOnUse" id="linear-gradient-2a0b6b52f041088f95dc76196e6b4d88" x1="-319.9999999999999" x2="127.99999999999996" y1="-554.2562584220408" y2="221.70250336881628"><stop offset="0%" stop-color="#007f2d"></stop><stop offset="25%" stop-color="#008d34"></stop><stop offset="100%" stop-color="#029b3b"></stop></linearGradient><linearGradient gradientUnits="userSpaceOnUse" id="linear-gradient-c6751d2115edfa2506ed6789e247b928" x1="-319.9999999999999" x2="127.99999999999996" y1="-554.2562584220408" y2="221.70250336881628"><stop offset="0%" stop-color="#0270a8"></stop><stop offset="25%" stop-color="#007cba"></stop><stop offset="100%" stop-color="#0088cc"></stop></linearGradient><linearGradient gradientUnits="userSpaceOnUse" id="linear-gradient-6b2d1737e4a2ebfe17f3769056568c22" x1="-319.9999999999999" x2="127.99999999999996" y1="-554.2562584220408" y2="221.70250336881628"><stop offset="0%" stop-color="#452397"></stop><stop offset="25%" stop-color="#4f2da8"></stop><stop offset="100%" stop-color="#5a37bb"></stop></linearGradient></defs><polygon fill="url(#linear-gradient-44584babfef90c4cb32c8ee42b1193ba)" points="-303.9999999999999 -304.8409421321224 -175.9999999999999 -526.5434455009388 384.00000000000006 443.40500673763256 128.00000000000006 443.40500673763256 -4.072608916703642e-14 221.70250336881628 -128.00000000000023 443.40500673763245 -256.0000000000002 443.40500673763245 -320.0000000000002 332.55375505322434 -128.0 0.0" transform="translate(-319.9999999999999 554.2562584220408) rotate(0 319.9999999999999 -554.2562584220408)"></polygon> <polygon fill="url(#linear-gradient-96af2d924a4fbf5b015c244addc578a8)" points="-303.9999999999999 -304.8409421321224 -175.9999999999999 -526.5434455009388 384.00000000000006 443.40500673763256 128.00000000000006 443.40500673763256 -4.072608916703642e-14 221.70250336881628 -128.00000000000023 443.40500673763245 -256.0000000000002 443.40500673763245 -320.0000000000002 332.55375505322434 -128.0 0.0" transform="translate(-319.9999999999999 554.2562584220408) rotate(60 319.9999999999999 -554.2562584220408)"></polygon> <polygon fill="url(#linear-gradient-33ff75d118a188d564af252422e7cc92)" points="-303.9999999999999 -304.8409421321224 -175.9999999999999 -526.5434455009388 384.00000000000006 443.40500673763256 128.00000000000006 443.40500673763256 -4.072608916703642e-14 221.70250336881628 -128.00000000000023 443.40500673763245 -256.0000000000002 443.40500673763245 -320.0000000000002 332.55375505322434 -128.0 0.0" transform="translate(-319.9999999999999 554.2562584220408) rotate(120 319.9999999999999 -554.2562584220408)"></polygon> <polygon fill="url(#linear-gradient-2a0b6b52f041088f95dc76196e6b4d88)" points="-303.9999999999999 -304.8409421321224 -175.9999999999999 -526.5434455009388 384.00000000000006 443.40500673763256 128.00000000000006 443.40500673763256 -4.072608916703642e-14 221.70250336881628 -128.00000000000023 443.40500673763245 -256.0000000000002 443.40500673763245 -320.0000000000002 332.55375505322434 -128.0 0.0" transform="translate(-319.9999999999999 554.2562584220408) rotate(180 319.9999999999999 -554.2562584220408)"></polygon> <polygon fill="url(#linear-gradient-c6751d2115edfa2506ed6789e247b928)" points="-303.9999999999999 -304.8409421321224 -175.9999999999999 -526.5434455009388 384.00000000000006 443.40500673763256 128.00000000000006 443.40500673763256 -4.072608916703642e-14 221.70250336881628 -128.00000000000023 443.40500673763245 -256.0000000000002 443.40500673763245 -320.0000000000002 332.55375505322434 -128.0 0.0" transform="translate(-319.9999999999999 554.2562584220408) rotate(240 319.9999999999999 -554.2562584220408)"></polygon> <polygon fill="url(#linear-gradient-6b2d1737e4a2ebfe17f3769056568c22)" points="-303.9999999999999 -304.8409421321224 -175.9999999999999 -526.5434455009388 384.00000000000006 443.40500673763256 128.00000000000006 443.40500673763256 -4.072608916703642e-14 221.70250336881628 -128.00000000000023 443.40500673763245 -256.0000000000002 443.40500673763245 -320.0000000000002 332.55375505322434 -128.0 0.0" transform="translate(-319.9999999999999 554.2562584220408) rotate(300 319.9999999999999 -554.2562584220408)"></polygon></svg>