<svg xmlns="http://www.w3.org/2000/svg" viewBox="-1152.0 -997.6612651596732 7128.9873046875 1995.3225303193465"><polygon fill="#000000" points="-624.0 249.4153162899184 -496.0 27.712812921102 63.99999999999994 997.6612651596733 -192.00000000000006 997.6612651596733 -320.00000000000017 775.9587617908571 -448.00000000000034 997.6612651596732 -576.0000000000003 997.6612651596732 -640.0000000000003 886.8100134752651 -448.0000000000001 554.2562584220408"></polygon> <polygon fill="#000000" points="-528.0000000000001 -415.6921938165305 -272.0 -415.69219381653056 -832.0 554.2562584220408 -960.0 332.55375505322456 -832.0000000000001 110.85125168440817 -1088.0 110.85125168440794 -1152.0 -1.7053025658242404e-13 -1088.0 -110.85125168440834 -704.0000000000001 -110.85125168440811"></polygon> <polygon fill="#000000" points="95.99999999999983 -665.1075101064489 223.99999999999991 -443.4050067376326 -896.0000000000001 -443.40500673763245 -768.0000000000001 -665.1075101064487 -512.0000000000001 -665.1075101064489 -640.0 -886.8100134752652 -576.0 -997.6612651596733 -448.0 -997.6612651596733 -256.0000000000001 -665.1075101064489"></polygon> <polygon fill="#000000" points="624.0 -249.41531628991848 496.0 -27.71281292110206 -64.00000000000007 -997.6612651596733 191.99999999999994 -997.6612651596733 320.00000000000006 -775.9587617908571 448.0000000000002 -997.6612651596732 576.0000000000002 -997.6612651596733 640.0000000000002 -886.8100134752652 448.00000000000006 -554.2562584220408"></polygon> <polygon fill="#000000" points="528.0000000000002 415.6921938165302 272.00000000000017 415.69219381653045 831.9999999999998 -554.2562584220411 959.9999999999999 -332.5537550532249 832.0000000000001 -110.85125168440845 1088.0 -110.8512516844084 1152.0 -2.8421709430404007e-13 1088.0 110.85125168440794 704.0000000000001 110.85125168440788"></polygon> <polygon fill="#000000" points="-96.0 665.1075101064489 -224.00000000000009 443.40500673763256 896.0 443.4050067376328 768.0 665.107510106449 511.9999999999999 665.1075101064491 639.9999999999997 886.8100134752656 575.9999999999997 997.6612651596736 447.99999999999966 997.6612651596737 255.9999999999999 665.107510106449"></polygon><g transform="translate(1152.0 665.1075101064489)"><path d="M 1251.517578125 -1331.0 L 1406.517578125 -1331.0 L 1406.517578125 0.0 L 1258.517578125 0.0 L 514.517578125 -1055.0 L 514.517578125 0.0 L 359.517578125 0.0 L 359.517578125 -1331.0 L 507.517578125 -1331.0 L 1251.517578125 -275.0" fill="black"></path><path d="M 1726.30078125 -1144.0 L 1726.30078125 -1289.0 C 1686.30078125 -1300.0 1608.30078125 -1300.0 1568.30078125 -1289.0 L 1568.30078125 -1144.0 C 1608.30078125 -1133.0 1686.30078125 -1133.0 1726.30078125 -1144.0 M 1726.30078125 0.0 L 1726.30078125 -935.0 L 1568.30078125 -953.0 L 1568.30078125 0.0" fill="black"></path><path d="M 2688.1318359375 -935.0 L 2351.1318359375 -480.0 L 2686.1318359375 0.0 L 2493.1318359375 0.0 L 2263.1318359375 -370.0 L 2035.1318359375 0.0 L 1852.1318359375 0.0 L 2186.1318359375 -467.0 L 1868.1318359375 -935.0 L 2062.1318359375 -935.0 L 2270.1318359375 -574.0 L 2497.1318359375 -935.0" fill="black"></path><path d="M 3389.0107421875 -1356.0 C 3722.0107421875 -1356.0 4000.0107421875 -1113.0 4000.0107421875 -665.0 C 4000.0107421875 -217.0 3722.0107421875 25.0 3389.0107421875 25.0 C 3056.0107421875 25.0 2778.0107421875 -217.0 2778.0107421875 -665.0 C 2778.0107421875 -1113.0 3056.0107421875 -1356.0 3389.0107421875 -1356.0 M 3389.0107421875 -111.0 C 3655.0107421875 -111.0 3824.0107421875 -332.0 3824.0107421875 -665.0 C 3824.0107421875 -998.0 3655.0107421875 -1219.0 3389.0107421875 -1219.0 C 3123.0107421875 -1219.0 2954.0107421875 -998.0 2954.0107421875 -665.0 C 2954.0107421875 -332.0 3123.0107421875 -111.0 3389.0107421875 -111.0" fill="black"></path><path d="M 4371.9873046875 25.0 C 4240.9873046875 25.0 4098.9873046875 -9.0 4017.9873046875 -88.0 L 4089.9873046875 -203.0 C 4174.9873046875 -147.0 4276.9873046875 -119.0 4377.9873046875 -119.0 C 4530.9873046875 -119.0 4648.9873046875 -185.0 4648.9873046875 -325.0 C 4648.9873046875 -447.0 4560.9873046875 -519.0 4357.9873046875 -638.0 C 4202.9873046875 -728.0 4082.9873046875 -823.0 4082.9873046875 -1012.0 C 4082.9873046875 -1228.0 4256.9873046875 -1356.0 4506.9873046875 -1356.0 C 4610.9873046875 -1356.0 4702.9873046875 -1336.0 4785.9873046875 -1287.0 L 4731.9873046875 -1167.0 C 4666.9873046875 -1201.0 4571.9873046875 -1212.0 4494.9873046875 -1212.0 C 4338.9873046875 -1212.0 4251.9873046875 -1147.0 4251.9873046875 -1034.0 C 4251.9873046875 -923.0 4330.9873046875 -840.0 4459.9873046875 -764.0 C 4698.9873046875 -624.0 4824.9873046875 -531.0 4824.9873046875 -340.0 C 4824.9873046875 -99.0 4621.9873046875 25.0 4371.9873046875 25.0" fill="black"></path></g></svg>