<?xml version="1.0" encoding="UTF-8" standalone="no"?>
<!-- Generator: Adobe Illustrator 17.0.0, SVG Export Plug-In . SVG Version: 6.00 Build 0)  -->

<svg
   xmlns:dc="http://purl.org/dc/elements/1.1/"
   xmlns:cc="http://creativecommons.org/ns#"
   xmlns:rdf="http://www.w3.org/1999/02/22-rdf-syntax-ns#"
   xmlns:svg="http://www.w3.org/2000/svg"
   xmlns="http://www.w3.org/2000/svg"
   xmlns:sodipodi="http://sodipodi.sourceforge.net/DTD/sodipodi-0.dtd"
   xmlns:inkscape="http://www.inkscape.org/namespaces/inkscape"
   version="1.1"
   id="Layer_1"
   x="0px"
   y="0px"
   width="515"
   height="195"
   viewBox="0 0 515 195"
   enable-background="new 0 0 612 792"
   xml:space="preserve"
   sodipodi:docname="packet.net.svg"
   inkscape:version="0.92.2 (5c3e80d, 2017-08-06)"><metadata
     id="metadata3777"><rdf:RDF><cc:Work
         rdf:about=""><dc:format>image/svg+xml</dc:format><dc:type
           rdf:resource="http://purl.org/dc/dcmitype/StillImage" /><dc:title></dc:title></cc:Work></rdf:RDF></metadata><defs
     id="defs3775" /><sodipodi:namedview
     pagecolor="#ffffff"
     bordercolor="#666666"
     borderopacity="1"
     objecttolerance="10"
     gridtolerance="10"
     guidetolerance="10"
     inkscape:pageopacity="0"
     inkscape:pageshadow="2"
     inkscape:window-width="3830"
     inkscape:window-height="1843"
     id="namedview3773"
     showgrid="false"
     inkscape:zoom="1.9242424"
     inkscape:cx="285.2126"
     inkscape:cy="312.85039"
     inkscape:window-x="0"
     inkscape:window-y="250"
     inkscape:window-maximized="0"
     inkscape:current-layer="Layer_1" /><g
     id="g3770"
     transform="translate(-49.057,-297.288)"><path
       d="m 118.719,347.692 c -7.89,0 -14.662,2.071 -20.537,6.378 -3.51,2.566 -6.983,7.258 -9.916,11.409 -1.741,-7.258 -4.005,-16.66 -4.005,-16.66 l -22.351,0.027 c -1.237,0 -2.236,1.008 -2.236,2.254 v 8.458 c 0,1.265 0.999,2.255 2.264,2.255 l 12.427,-0.028 c 0,0 3.061,10.979 4.994,18.713 -2.603,4.701 -5.132,8.752 -7.304,12.94 -12.353,23.845 -17.998,40.313 -17.998,58.321 0,21.554 9.467,35.529 23.57,35.529 16.34,0 26.081,-14.644 26.081,-39.992 0,-0.486 -0.037,-2.144 -0.082,-3.107 3.922,1.961 9.375,3.592 14.076,3.592 18.117,0 33.101,-11.977 36.271,-28.482 1.31,-6.8 1.842,-12.986 1.842,-21.371 0,-8.972 -0.962,-16.761 -2.813,-23.139 -5.049,-17.218 -17.53,-27.097 -34.283,-27.097 z M 77.628,474.789 c -6.937,0 -10.566,-11.593 -10.566,-23.029 0,-14.525 4.188,-30.608 16.834,-55.003 3.702,16.954 6.791,37.921 6.791,50.54 0,8.275 -1.256,27.492 -13.059,27.492 z m 63.562,-57.954 c -1.989,10.383 -12.051,18.356 -23.918,18.356 -4.976,0 -10.099,-1.723 -14.58,-3.226 -1.851,-15.936 -5.984,-35.465 -9.696,-50.696 2.374,-4.243 4.087,-7.35 8.22,-12.317 5.984,-7.249 11.904,-8.669 17.503,-8.669 13.719,0 19.41,10.071 21.792,18.172 1.045,3.574 2.291,9.833 2.291,19.474 0.001,7.598 -0.457,12.913 -1.612,18.906 z"
       id="path3766"
       inkscape:connector-curvature="0"
       style="fill:#394c63" /><path
       d="m 558.872,428.384 -6.607,-5.352 c -0.385,-0.33 -0.88,-0.568 -1.457,-0.568 -0.642,0 -1.2,0.266 -1.604,0.696 h -0.009 c -2.126,2.575 -6.167,6.79 -6.653,7.276 -2.364,2.3 -5.603,4.16 -9.149,4.16 -6.241,0 -10.361,-1.878 -10.361,-12.976 V 361.833 H 544.3 c 1.237,0 2.264,-1.017 2.264,-2.273 v -8.486 c 0,-1.237 -1.026,-2.254 -2.264,-2.254 h -16.647 v -0.017 h -4.62 l -0.037,-24.451 c -0.018,-1.228 -1.017,-2.236 -2.254,-2.236 h -8.468 c -1.246,0 -2.254,1.008 -2.254,2.273 v 24.414 h -10.266 c -1.237,0 -2.264,1.017 -2.264,2.254 v 8.486 c 0,1.255 1.026,2.273 2.264,2.273 h 10.266 v 0.017 44.712 c -2.951,3.372 -11.28,12.243 -15.202,16.156 -0.798,0.796 -1.604,1.521 -2.416,2.214 -4.345,3.667 -8.961,5.981 -14.551,7.729 -6.717,2.117 -12.472,2.691 -21.197,2.678 -13.201,-0.019 -19.648,-8.871 -19.648,-8.871 1.125,-1.16 16.156,-16.259 16.156,-16.259 12.447,-12.843 22.402,-25.061 24.457,-27.427 0,0 2.614,-2.68 4.718,-6.603 4.609,-8.596 4.678,-17.646 -3.193,-23.928 -3.754,-2.997 -10.503,-4.953 -22.168,-4.669 -17.404,0.424 -34.518,10.526 -38.018,28.323 -0.969,4.928 -1.884,10.492 -1.884,21.04 0,2.612 0.015,5.856 0.154,8.068 0.249,4.938 0.767,9.389 1.638,14 0.394,2.071 1.112,3.529 1.868,6.184 -1.812,2.288 -3.715,4.425 -6.376,6.605 -2.023,1.657 -5.311,2.241 -7.015,2.241 l -0.587,0.019 c -4.71,0 -7.676,-2.638 -11.415,-6.615 L 394.7,426.761 C 392.858,424.8 379.487,407.69 369.572,394.888 l 22.104,-23.436 12.306,-13.02 c 0.85,-0.899 0.816,-2.344 -0.083,-3.194 l -6.167,-5.829 c -0.912,-0.862 -2.357,-0.815 -3.207,0.084 l -1.635,1.729 -0.012,-0.016 -33.007,34.971 -7.449,7.88 v -87.962 c 0,-1.246 -0.999,-2.264 -2.255,-2.264 h -6.318 v 0.006 h -2.167 c -1.256,0 -2.254,1.017 -2.254,2.264 v 28.949 h -10e-4 v 72.754 c -1.109,1.182 -7.001,7.542 -11.299,12.243 -3.739,4.051 -8.761,9.1 -14.525,12.106 -4.444,2.309 -7.023,3.061 -18.212,3.061 -11.666,0 -21.706,-8.065 -23.677,-18.375 -1.164,-6.003 -1.603,-11.318 -1.603,-18.915 0,-8.101 0.586,-14.791 1.714,-19.868 2.254,-10.053 12.032,-17.778 23.57,-17.778 8.972,0 16.367,3.977 19.969,9.824 0.275,0.468 0.889,1.164 1.512,1.347 0.715,0.22 1.265,0.028 1.769,-0.202 l 7.542,-4.042 c 0.641,-0.33 1.054,-0.953 1.054,-1.851 0,-0.376 -0.11,-0.696 -0.266,-0.999 l -0.467,-0.962 c -5.911,-9.824 -17.54,-15.707 -31.112,-15.707 -17.595,0 -32.945,11.574 -36.51,27.511 -1.338,6.03 -2.044,13.682 -2.044,22.727 0,8.376 0.541,14.58 1.842,21.371 0.33,1.741 1.238,4.296 1.834,5.945 0,0 -1.731,2.335 -5.144,5.527 -4.504,4.187 -9.201,3.665 -11.427,3.203 -3.742,-0.776 -5.258,-4.288 -5.361,-8.114 0,0 0.028,-42.27 0.028,-45.184 0,-19.382 -15.066,-32.917 -36.73,-32.917 -11.345,0 -22.388,4.784 -29.527,12.793 -1.164,1.302 -2.181,2.758 -3.042,4.335 0,0 -0.293,0.697 -0.293,1.081 0,0.907 0.532,1.659 1.292,2.035 v 0.027 l 7.276,3.867 h 0.009 c 0.321,0.183 0.678,0.302 1.063,0.302 0.779,0 1.42,-0.412 1.824,-0.999 0,0 0.541,-0.834 1.558,-1.97 4.729,-5.297 12.142,-8.88 19.84,-8.88 14.452,0 23.268,8.248 23.268,20.326 0,0.916 -0.009,1.517 -0.009,2.938 l -12.463,0.027 c -43.759,0 -47.158,27.95 -47.158,36.519 0,6.736 2.318,12.967 6.699,18.044 6.873,7.973 15.473,9.614 23.318,9.614 7.056,0 15.529,-3.098 21.925,-7.112 3.189,-2.016 6.167,-4.93 8.853,-8.064 2.044,8.889 9.375,15.127 17.806,15.177 6.573,0.038 10.383,-1.191 15.782,-4.821 1.707,-1.148 5.117,-4.031 7.601,-7.082 6.891,7.67 16.564,11.875 27.946,11.875 11.556,0 16.753,-0.412 24.13,-4.252 3.473,-1.796 8.055,-4.939 11.739,-8.697 2.685,-2.74 5.553,-6.012 8.11,-9.072 l -0.037,19.149 c 0,1.256 1.017,2.264 2.282,2.264 h 8.495 c 1.256,0 2.255,-1.008 2.255,-2.264 v -32.34 l 8.062,-8.314 c 8.977,11.467 22.571,28.797 24.786,31.436 l 0.605,0.651 c 3.922,4.188 9.959,11.469 20.644,11.469 0.44,0 4.075,0.05 6.658,-1.069 7.565,-3.274 12.921,-9.136 14.533,-10.877 1.115,1.1 3.07,3.117 4.355,4.088 7.148,5.557 15.766,7.895 26.13,7.882 9.686,-0.012 16.447,-0.397 23.363,-2.742 5.745,-1.947 15.597,-7.67 21.215,-13.288 1.842,-1.851 4.874,-4.729 7.321,-7.68 0.788,15.57 8.268,23.709 23.728,23.709 8.825,0 13.64,-4.923 16.526,-7.709 0.385,-0.376 8.701,-8.697 8.701,-8.697 0.321,-0.403 0.531,-0.861 0.531,-1.402 -0.006,-0.64 -0.281,-1.209 -0.712,-1.648 z M 224.945,407.805 c 0,13.453 -14.525,26.53 -27.63,26.53 -9.604,0 -13.343,-2.419 -15.249,-4.619 -2.383,-2.768 -3.537,-5.883 -3.537,-9.558 0,-15.158 12.133,-23.506 34.145,-23.506 l 12.271,-0.018 z m 206.482,5.907 c 0,0 -0.896,-5.376 -1.04,-12.861 -0.056,-2.89 0.018,-5.992 0.116,-9.538 0.087,-3.15 0.595,-7.701 1.049,-10.784 1.118,-7.598 4.661,-11.833 8.806,-15.17 4.591,-3.695 11.23,-5.801 21.246,-5.766 9.604,0.034 11.05,5.976 9.396,9.258 -4.214,8.359 -14.811,17.936 -25.493,29.569 z"
       id="path3768"
       inkscape:connector-curvature="0"
       style="fill:#394c63" /></g></svg>