<?xml version="1.0" encoding="utf-8"?>
<!-- Generator: Adobe Illustrator 26.3.1, SVG Export Plug-In . SVG Version: 6.00 Build 0)  -->
<svg version="1.1" id="logo" xmlns="http://www.w3.org/2000/svg" xmlns:xlink="http://www.w3.org/1999/xlink" x="0px" y="0px"
	 viewBox="0 0 841.89 595.28" style="enable-background:new 0 0 841.89 595.28;" xml:space="preserve">
<style type="text/css">
	.st0{fill:none;}
	.st1{fill:#00A6D6;}
</style>
<g>
	<rect x="66.17" y="175.17" class="st0" width="162.64" height="76.54"/>
	<g>
		<path class="st1" d="M104.55,219.69c2.49,0,3.85-1.65,3.85-3.98v-11.84h5.3v12.11c-0.05,5.33-4.32,7.42-9.15,7.42
			c-4.83,0-9.09-2.09-9.15-7.42v-12.11h5.3v11.84C100.71,218.03,102.06,219.69,104.55,219.69z"/>
		<path d="M139.67,215.08c0.02-2.08,1.27-3.95,3.37-3.95c2.44,0,3.39,1.67,3.39,3.95H139.67z M149.09,216.83v-1.25
			c0-3.68-2.09-6.28-5.86-6.28c-4.21,0-6.18,3.26-6.18,7.16c0,3.92,1.7,6.95,5.97,6.95c3.18,0,5.51-1.51,5.91-4.53h-2.65
			c-0.29,1.93-1.27,2.7-3.23,2.7c-2.57,0-3.43-2.29-3.43-4.74H149.09z"/>
		<rect x="152.14" y="203.87" width="2.52" height="19.13"/>
		<polygon points="81.67,223 86.97,223 86.97,207.58 92.91,207.58 92.91,203.87 75.73,203.87 75.73,207.58 81.67,207.58 		"/>
		<path d="M94.41,194.55c-1.29,0.41-2.63,0.08-2.62-1.65c0-2.64,6.19-4.85,7.05-7.15c0.21-0.57,0.23-1.05-0.05-1.03
			c-0.2,0.01-0.04,0.3-0.48,0.73c-2.56,2.57-6.86,2.56-10.16,4.04c-2.16,0.97-8.5,3.95-7.04,10.6c0.07,0.32,0.26,1.37,0.45,1.37
			c0.22,0,0.22-0.63,0.22-1.39c-0.05-3.96,4.64-5.06,6.17-7.65c0.18-0.31,0.5-0.74,0.57-0.54c0.04,0.1,0.01,0.24-0.05,0.52
			c-0.48,2.13-2.7,3.49-2.07,5.01c0.82,1.97,3.17,0.5,3.9-0.77c0.19-0.35,0.3-0.57,0.43-0.53c0.1,0.03,0.09,0.43,0.03,0.79
			c-0.39,2.29-0.91,3.57-2.59,4.88c-0.54,0.42-1.38,0.5-1.27,0.82c0.03,0.08,0.39,0.07,0.68,0.04c4.46-0.29,8.19-5.54,9.18-8.98
			c0.1-0.24,0.13-0.47,0.03-0.55c-0.13-0.1-0.33,0.13-0.53,0.31C95.75,193.88,95.05,194.35,94.41,194.55z"/>
		<g>
			<path d="M182.31,203.87c1.63,0,2.56,0.84,2.56,2.48c0,1.64-0.93,2.48-2.56,2.48h-1.34v-4.96H182.31z M182.42,208.42
				c1.39,0,1.96-0.82,1.96-2.07c0-1.46-0.86-2.11-2.27-2.07h-0.7v4.14H182.42z"/>
			<path d="M185.9,207.2c0.01,0.73,0.35,1.35,1.2,1.35c0.49,0,0.89-0.35,1-0.83h0.43c-0.21,0.83-0.73,1.2-1.56,1.2
				c-1.03,0-1.51-0.89-1.51-1.83c0-0.93,0.52-1.83,1.54-1.83c1.15,0,1.57,0.85,1.57,1.92H185.9z M188.12,206.82
				c-0.05-0.67-0.41-1.17-1.12-1.17c-0.67,0-1.03,0.56-1.09,1.17H188.12z"/>
		</g>
		<g>
			<path d="M189.72,208.83h-0.41v-4.96h0.41V208.83z"/>
			<path d="M191.03,208.83v-3.07h-0.69v-0.38h0.69v-0.74c0-0.59,0.24-0.86,0.83-0.86c0.13,0,0.27,0.05,0.39,0.08v0.33
				c-0.08-0.01-0.17-0.03-0.25-0.03c-0.56,0-0.58,0.28-0.56,0.78v0.44h0.78v0.38h-0.78v3.07H191.03z"/>
		</g>
		<g>
			<path d="M193.2,205.76h-0.69v-0.38h0.69v-0.74l0.41-0.18v0.91h0.78v0.38h-0.78v2.31c-0.01,0.32,0.16,0.49,0.47,0.49
				c0.12,0,0.25-0.01,0.36-0.04v0.36c-0.13,0.03-0.28,0.06-0.42,0.06c-0.87,0-0.82-0.56-0.82-1.02V205.76z"/>
		</g>
		<g>
			<path d="M181.42,210.95v3.21c0.03,0.9,0.55,1.44,1.37,1.44c0.82,0,1.33-0.54,1.37-1.44v-3.21h0.45v3.22
				c-0.01,1.07-0.61,1.85-1.81,1.85c-1.2,0-1.8-0.78-1.81-1.85v-3.22H181.42z"/>
			<path d="M185.89,215.91h-0.41v-2.67c0-0.27-0.02-0.54-0.03-0.78h0.43l0.02,0.51l0.01,0.01c0.24-0.43,0.63-0.62,1.08-0.62
				c1.13,0,1.22,1,1.22,1.39v2.16h-0.41v-2.23c0-0.6-0.34-0.95-0.91-0.95c-0.68,0-0.99,0.57-0.99,1.19V215.91z"/>
		</g>
		<g>
			<path d="M189.57,211.47h-0.48v-0.52h0.48V211.47z M189.54,212.47v3.45h-0.41v-3.45H189.54z"/>
			<path d="M190.64,212.47l1.19,2.88l1.15-2.88h0.45l-1.37,3.45h-0.47l-1.41-3.45H190.64z"/>
		</g>
		<g>
			<path d="M194.15,214.29c0.01,0.74,0.35,1.35,1.2,1.35c0.49,0,0.89-0.35,1-0.82h0.43c-0.21,0.82-0.73,1.2-1.56,1.2
				c-1.03,0-1.51-0.89-1.51-1.83c0-0.93,0.52-1.83,1.54-1.83c1.16,0,1.57,0.85,1.57,1.92H194.15z M196.37,213.91
				c-0.05-0.67-0.41-1.17-1.12-1.17c-0.67,0-1.03,0.56-1.09,1.17H196.37z"/>
			<path d="M198,215.91h-0.41v-2.67c0.01-0.27-0.02-0.54-0.04-0.78h0.43l0.02,0.51h0.01c0.12-0.35,0.43-0.6,0.78-0.61
				c0.14-0.01,0.27,0,0.41,0.01v0.4c-0.08-0.01-0.17-0.03-0.25-0.03c-0.61,0-0.93,0.44-0.95,1.1V215.91z"/>
			<path d="M200.89,212.36c0.65,0,1.2,0.23,1.26,0.95h-0.45c-0.04-0.43-0.43-0.58-0.85-0.58c-0.39,0-0.78,0.15-0.78,0.56
				c0,0.51,0.67,0.46,1.6,0.79c0.36,0.12,0.58,0.43,0.58,0.8c0,0.78-0.72,1.13-1.45,1.13c-0.6,0-1.29-0.28-1.3-1.04h0.45
				c0.03,0.52,0.49,0.67,0.96,0.67c0.44,0,0.9-0.21,0.9-0.69c0-0.49-0.54-0.58-1.09-0.7c-0.54-0.13-1.09-0.29-1.09-0.93
				C199.62,212.61,200.28,212.36,200.89,212.36z"/>
			<path d="M203.5,211.47h-0.48v-0.52h0.48V211.47z M203.46,212.47v3.45h-0.41v-3.45H203.46z"/>
		</g>
		<g>
			<path d="M204.87,212.84h-0.69v-0.38h0.69v-0.74l0.41-0.18v0.91h0.78v0.38h-0.78v2.31c-0.01,0.32,0.16,0.49,0.47,0.49
				c0.12,0,0.25-0.01,0.36-0.04v0.36c-0.13,0.03-0.28,0.06-0.42,0.06c-0.87,0-0.82-0.56-0.82-1.02V212.84z"/>
			<path d="M207.07,212.47l1.16,2.89l1.15-2.89h0.45l-1.9,4.77h-0.45l0.52-1.32l-1.43-3.45H207.07z"/>
		</g>
		<g>
			<path d="M215.32,214.19c0,0.91-0.51,1.83-1.61,1.83c-1.1,0-1.61-0.92-1.61-1.83c0-0.91,0.51-1.83,1.61-1.83
				C214.81,212.36,215.32,213.28,215.32,214.19z M213.71,212.74c-0.83,0-1.16,0.81-1.16,1.45c0,0.64,0.33,1.45,1.16,1.45
				c0.83,0,1.16-0.81,1.16-1.45C214.87,213.55,214.54,212.74,213.71,212.74z"/>
		</g>
		<g>
			<path d="M216.28,215.91v-3.07h-0.69v-0.38h0.69v-0.74c0-0.59,0.24-0.86,0.83-0.86c0.13,0,0.27,0.05,0.39,0.08v0.33
				c-0.08-0.01-0.17-0.03-0.25-0.03c-0.56,0-0.58,0.28-0.56,0.78v0.44h0.78v0.38h-0.78v3.07H216.28z"/>
		</g>
		<g>
			<path d="M182.57,218.45h-1.6v-0.41h3.63v0.41h-1.57V223h-0.45V218.45z"/>
			<path d="M184.56,221.37c0.01,0.74,0.35,1.35,1.2,1.35c0.49,0,0.89-0.35,1-0.82h0.43c-0.21,0.82-0.73,1.2-1.56,1.2
				c-1.03,0-1.51-0.89-1.51-1.83c0-0.93,0.52-1.83,1.54-1.83c1.15,0,1.57,0.85,1.57,1.92H184.56z M186.78,221
				c-0.05-0.67-0.41-1.17-1.12-1.17c-0.67,0-1.03,0.56-1.09,1.17H186.78z"/>
		</g>
		<g>
			<path d="M190.24,220.61c-0.03-0.53-0.37-0.78-0.94-0.78c-0.63,0-1.02,0.66-1.02,1.44c0,0.79,0.39,1.46,1.02,1.46
				c0.54,0,0.91-0.33,0.94-0.8h0.45c-0.11,0.79-0.56,1.18-1.35,1.18c-1.03,0-1.51-0.89-1.51-1.83c0-0.93,0.52-1.83,1.54-1.83
				c0.71,0,1.29,0.43,1.32,1.16H190.24z"/>
			<path d="M191.78,220.08h0.01c0.24-0.43,0.63-0.63,1.08-0.63c1.13,0,1.22,1,1.22,1.39V223h-0.41v-2.23c0-0.6-0.34-0.95-0.91-0.95
				c-0.68,0-0.99,0.57-0.99,1.19V223h-0.41v-4.96h0.41V220.08z"/>
		</g>
		<g>
			<path d="M195.32,223h-0.41v-2.67c0-0.27-0.02-0.54-0.03-0.78h0.43l0.02,0.51l0.01,0.01c0.24-0.43,0.63-0.63,1.08-0.63
				c1.13,0,1.22,1,1.22,1.39V223h-0.41v-2.23c0-0.6-0.34-0.95-0.91-0.95c-0.68,0-0.99,0.57-0.99,1.19V223z"/>
			<path d="M201.6,221.28c0,0.91-0.51,1.83-1.61,1.83s-1.61-0.92-1.61-1.83c0-0.91,0.51-1.83,1.61-1.83S201.6,220.37,201.6,221.28z
				 M199.99,219.83c-0.83,0-1.16,0.81-1.16,1.45c0,0.64,0.33,1.45,1.16,1.45c0.83,0,1.16-0.81,1.16-1.45
				C201.16,220.64,200.83,219.83,199.99,219.83z"/>
		</g>
		<g>
			<path d="M202.72,223h-0.41v-4.96h0.41V223z"/>
			<path d="M206.66,221.28c0,0.91-0.51,1.83-1.61,1.83c-1.1,0-1.61-0.92-1.61-1.83c0-0.91,0.51-1.83,1.61-1.83
				C206.15,219.45,206.66,220.37,206.66,221.28z M205.05,219.83c-0.83,0-1.16,0.81-1.16,1.45c0,0.64,0.33,1.45,1.16,1.45
				c0.83,0,1.16-0.81,1.16-1.45C206.21,220.64,205.88,219.83,205.05,219.83z"/>
		</g>
		<g>
			<path d="M209.9,219.55h0.43c-0.01,0.23-0.03,0.51-0.03,0.78v2.07c0,0.69,0.03,1.41-0.73,1.77c-0.27,0.13-0.46,0.16-0.78,0.16
				c-0.62,0-1.37-0.21-1.37-0.93h0.45c0.05,0.41,0.54,0.55,0.98,0.55c0.54,0,1.03-0.38,1.04-0.95v-0.65h-0.01
				c-0.2,0.41-0.67,0.65-1.12,0.65c-1.04,0-1.48-0.79-1.48-1.74c0-0.93,0.42-1.8,1.47-1.8c0.5,0,0.86,0.24,1.13,0.64l0.01-0.03
				L209.9,219.55z M208.77,219.83c-0.75,0-1.07,0.76-1.07,1.39c0,0.63,0.32,1.39,1.08,1.39c0.79,0,1.09-0.74,1.09-1.41
				C209.88,220.54,209.51,219.83,208.77,219.83z"/>
			<path d="M211.34,219.55l1.16,2.89l1.15-2.89h0.45l-1.9,4.77h-0.45l0.52-1.32l-1.43-3.45H211.34z"/>
		</g>
	</g>
	<path d="M162.56,223v-11.55h3.07v-1.75h-3.07v-2.15c0-1.54,0.74-1.8,2.17-1.8c0.42,0,0.85,0.05,1.27,0.08v-2.09
		c-0.59-0.13-1.19-0.27-1.8-0.27c-2.38,0-4.16,1.2-4.16,3.74v2.49h-2.6v1.75h2.6V223H162.56z"/>
	<path d="M167.07,209.7v1.75h2.28v8.48c0,1.77,0.03,3.47,3.77,3.47c0.58,0,1.13-0.05,1.72-0.16v-1.93c-0.41,0.1-0.93,0.16-1.33,0.16
		c-0.9,0-1.64-0.45-1.64-1.4v-8.61h3.07v-1.75h-3.07v-3.63l-2.52,0.79v2.84L167.07,209.7z"/>
	<path d="M119,223h6.57c8.18,0,9.04-6.93,9.04-9.57c0-2.64-0.86-9.57-9.04-9.57H119V223z M121.65,206.15h3.92
		c4.42,0,6.26,3.34,6.26,7.29c0,3.95-1.84,7.29-6.26,7.29h-3.92V206.15z"/>
</g>
</svg>
