<?xml version="1.0" encoding="UTF-8" standalone="no"?>
<!-- Created with Inkscape (http://www.inkscape.org/) -->
<svg width="150mm" height="150mm" viewBox="0 0 150 150" version="1.1" id="svg1" xml:space="preserve" sodipodi:docname="impossibru-export.svg" inkscape:version="1.3.2 (091e20ef0f, 2023-11-25)" inkscape:export-filename="impossibru-export-plain.svg" inkscape:export-xdpi="96" inkscape:export-ydpi="96" xmlns:inkscape="http://www.inkscape.org/namespaces/inkscape" xmlns:sodipodi="http://sodipodi.sourceforge.net/DTD/sodipodi-0.dtd" xmlns:xlink="http://www.w3.org/1999/xlink" xmlns="http://www.w3.org/2000/svg" xmlns:svg="http://www.w3.org/2000/svg"><sodipodi:namedview id="namedview1" pagecolor="#ffffff" bordercolor="#a50e0e" borderopacity="0.38039216" inkscape:showpageshadow="false" inkscape:pageopacity="0" inkscape:pagecheckerboard="false" inkscape:deskcolor="#d1d1d1" inkscape:document-units="mm" inkscape:zoom="2" inkscape:cx="209.5" inkscape:cy="341.25" inkscape:window-width="852" inkscape:window-height="1396" inkscape:window-x="0" inkscape:window-y="0" inkscape:window-maximized="0" inkscape:current-layer="layer1" showgrid="true"><inkscape:grid type="axonomgrid" id="grid112" units="mm" originx="0" originy="0" spacingx="0" spacingy="0.99999999" empcolor="#0099e5" empopacity="0.30196078" color="#0099e5" opacity="0.14901961" empspacing="5" dotted="false" gridanglex="30" gridanglez="30" visible="true"/></sodipodi:namedview><defs id="defs1"><rect x="535.73047" y="-33.847572" width="122.97265" height="87.124916" id="rect388"/><rect x="-32.667969" y="-64.684975" width="162.41795" height="117.9506" id="rect387"/><linearGradient id="linearGradient5562"><stop style="stop-color:#699ad7;stop-opacity:1" offset="0" id="stop5564"/><stop id="stop5566" offset="0.24345198" style="stop-color:#7eb1dd;stop-opacity:1"/><stop style="stop-color:#7ebae4;stop-opacity:1" offset="1" id="stop5568"/></linearGradient><linearGradient id="linearGradient5053"><stop style="stop-color:#415e9a;stop-opacity:1" offset="0" id="stop5055"/><stop id="stop5057" offset="0.23168644" style="stop-color:#4a6baf;stop-opacity:1"/><stop style="stop-color:#5277c3;stop-opacity:1" offset="1" id="stop5059"/></linearGradient><linearGradient xlink:href="#linearGradient5562" id="linearGradient4328" gradientUnits="userSpaceOnUse" gradientTransform="translate(70.650339,-1055.1511)" x1="200.59668" y1="351.41116" x2="290.08701" y2="506.18814"/><linearGradient xlink:href="#linearGradient5053" id="linearGradient4330" gradientUnits="userSpaceOnUse" gradientTransform="translate(864.69589,-1491.3405)" x1="-584.19934" y1="782.33563" x2="-496.29703" y2="937.71399"/></defs><g id="layer1"><path style="fill:none;stroke:#010101;stroke-width:0.264583px;stroke-linecap:butt;stroke-linejoin:round;stroke-opacity:1;paint-order:fill markers stroke" d="m 64.087177,67.002196 -1.73205,1 L 62.35383,52 58.889728,50 v 4 L 57.157677,49 53.693575,47 55.426917,46.002196 58.889728,48 l 0.607439,1.587966 m -7.534389,42.414238 -13.85639,7.999996 13.937959,8.00925" id="path34-7-4-7-5-8" sodipodi:nodetypes="ccccccccccccc"/><path style="fill:none;stroke:#010101;stroke-width:0.264583px;stroke-linecap:butt;stroke-linejoin:round;stroke-opacity:1;paint-order:fill markers stroke" d="M 57.158967,71.002196 57.157677,55 l 1.732051,5 0.0423,10.025996" id="path37-2-03-7-5-04" sodipodi:nodetypes="cccc"/><path style="fill:none;stroke:#010101;stroke-width:0.264583px;stroke-linecap:butt;stroke-linejoin:round;stroke-opacity:1;paint-order:fill markers stroke" d="m 86.603827,66.002196 -6.9282,-4 v 15.999998 l 6.9282,4 v -4" id="path39-3-5-5-3"/><path style="fill:none;stroke:#010101;stroke-width:0.264583px;stroke-linecap:butt;stroke-linejoin:round;stroke-opacity:1;paint-order:fill markers stroke" d="m 86.603827,78.002194 -3.45949,-1.999988 5.19154,-3.00001" id="path40-8-0-6-78" sodipodi:nodetypes="ccc"/><path style="fill:none;stroke:#010101;stroke-width:0.264583px;stroke-linecap:butt;stroke-linejoin:round;stroke-opacity:1;paint-order:fill markers stroke" d="m 86.603827,66.002196 v 4 l -3.4641,-2 v 8" id="path46-0-9-2-0"/><path style="fill:none;stroke:#010101;stroke-width:0.264583px;stroke-linecap:butt;stroke-linejoin:round;stroke-opacity:1;paint-order:fill markers stroke" d="m 96.996147,72.002196 -8.66026,-5 v 15.999998 l 8.66026,5 -10e-6,-15.999998" id="path39-4-5-0-5-9"/><path style="fill:none;stroke:#010101;stroke-width:0.264583px;stroke-linecap:butt;stroke-linejoin:round;stroke-opacity:1;paint-order:fill markers stroke" d="m 93.532037,74.002196 v 7.999998 l -1.73205,-1 v -7.999998 z" id="path48-6-4-2-5" sodipodi:nodetypes="ccccc"/><path style="fill:none;stroke:#010101;stroke-width:0.264583px;stroke-linecap:butt;stroke-linejoin:round;stroke-opacity:1;paint-order:fill markers stroke" d="m 79.674338,94.000001 0.0013,14.002209 3.46411,-2 -1e-5,-10.000006 1.73206,5.000006 v 4" id="path56-5-40-1-9-1" sodipodi:nodetypes="cccccc"/><path style="fill:none;stroke:#010101;stroke-width:0.264583px;stroke-linecap:butt;stroke-linejoin:round;stroke-opacity:1;paint-order:fill markers stroke" d="m 85.009217,85.081549 3.32667,1.920645 v 12.00001 l 10.3923,-6 v -4.00002 -15.999998 l 3.464103,2.00001 1.73205,4.999988 v -3.999998 l 3.4641,1.999998 v 16.00001 l -3.4641,-2 v -5.95486 l -1.73205,-5.04515 v 14.00002 l -17.320493,10.000006 -1.73206,-1" id="path74-1-0-3-1-3" sodipodi:nodetypes="ccccccccccccccccc"/><path style="fill:none;stroke:#010101;stroke-width:0.264583px;stroke-linecap:butt;stroke-linejoin:round;stroke-opacity:1;paint-order:fill markers stroke" d="m 46.765372,111 -3.462805,2.00221 -1e-5,16 8.66025,-5 v -4 l -5.19615,3 v -3 l 1.73205,-1 v -2 l -1.73205,1 -0.0013,-7.00221 -8.658965,-4.99779 -3.4641,2 v 4" id="path57-4-7-3-2" sodipodi:nodetypes="cccccccccccccc"/><path style="fill:none;stroke:#010101;stroke-width:0.264583px;stroke-linecap:butt;stroke-linejoin:round;stroke-opacity:1;paint-order:fill markers stroke" d="M 41.56922,124 40.704497,122.50221 41.56922,121 l 0.0013,-2.99779 -1.732047,-3 -6.92823,4 -0.0013,15.99779 6.930003,-3.99779 1.731815,-3 z" id="path71-7-3-2-2" sodipodi:nodetypes="cccccccccc"/><path style="fill:none;stroke:#010101;stroke-width:0.264583px;stroke-linecap:butt;stroke-linejoin:round;stroke-opacity:1;paint-order:fill markers stroke" d="M 38.106417,128.00221 38.105118,125 l -1.730741,1.00221 0,3 1.73204,-1 -1.73205,-1" id="path76-6-3-9-8" sodipodi:nodetypes="cccccc"/><path style="fill:none;stroke:#010101;stroke-width:0.264583px;stroke-linecap:butt;stroke-linejoin:round;stroke-opacity:1;paint-order:fill markers stroke" d="m 38.105118,123 v -3 l -1.732051,1 0,3 z" id="path75-2-7-7-6-6" sodipodi:nodetypes="ccccc"/><path style="fill:none;stroke:#010101;stroke-width:0.264583px;stroke-linecap:butt;stroke-linejoin:round;stroke-opacity:1;paint-order:fill markers stroke" d="M 57.158967,110.00221 58.889728,111 l -1.732051,1 0,-3 1.732051,-1 v 3" id="path75-2-0-32-1-6-6" sodipodi:nodetypes="cccccc"/><path style="fill:none;stroke:#010101;stroke-width:0.264583px;stroke-linecap:butt;stroke-linejoin:round;stroke-opacity:1;paint-order:fill markers stroke" d="m 67.551277,95.002204 v 16.000006 l 5.19615,-3 v 4 l -8.66025,5 v -16 l -0.0013,-8.002209 3.465397,2.002203 m -3.4654,-6.002203 3.465397,-1.997807 2.59807,1.42979" id="path92-9-8-5-6" sodipodi:nodetypes="ccccccccccc"/><path style="fill:none;stroke:#010101;stroke-width:0.264583px;stroke-linecap:butt;stroke-linejoin:round;stroke-opacity:1;paint-order:fill markers stroke" d="m 74.478185,113 3.464102,2" id="path111-1-5-5-5" sodipodi:nodetypes="cc"/><path style="fill:none;stroke:#010101;stroke-width:0.264583px;stroke-linecap:butt;stroke-linejoin:round;stroke-opacity:1;paint-order:fill markers stroke" d="m 76.211527,94.002204 -1.73205,1" id="path98-0-1-7-1-7"/><path style="fill:none;stroke:#010101;stroke-width:0.264583px;stroke-linecap:butt;stroke-linejoin:round;stroke-opacity:1;paint-order:fill markers stroke" d="M 77.943577,95.002204 77.942287,109 l -3.464102,2 -1.730758,-0.99779" id="path102-0-3-7-4" sodipodi:nodetypes="cccc"/><path style="fill:none;stroke:#010101;stroke-width:0.264583px;stroke-linecap:butt;stroke-linejoin:round;stroke-opacity:1;paint-order:fill markers stroke" d="M 74.479477,95.002204 V 111.00221" id="path103-7-6-0-7"/><path style="fill:none;stroke:#010101;stroke-width:0.264583px;stroke-linecap:butt;stroke-linejoin:round;stroke-opacity:1;paint-order:fill markers stroke" d="m 57.158962,119.00221 1.73205,1 3.464105,-2 L 62.35383,112 61.489097,110.50221 62.35383,109 l 0.0013,-2.99779 -1.732045,-3 -6.92823,4 -0.0013,15.99779 3.464102,-2 0.0013,-6.99779 1.730816,-1.00221 0.0013,7.00221" id="path73-8-7-0-4" sodipodi:nodetypes="cccccccccccccc"/><path style="fill:none;stroke:#010101;stroke-width:0.264583px;stroke-linecap:butt;stroke-linejoin:round;stroke-opacity:1;paint-order:fill markers stroke" d="m 72.747427,40.002204 0.83295,4.639472 0.8991,-3.639482 3.4641,2 v 16.000012" id="path28-5-3-6-0-0-7-1-4" sodipodi:nodetypes="ccccc"/><path style="fill:none;stroke:#010101;stroke-width:0.264583px;stroke-linecap:butt;stroke-linejoin:round;stroke-opacity:1;paint-order:fill markers stroke" d="m 72.747427,56.002196 v -10 L 73.61216,50.5 74.478185,47 l 9.32e-4,10.002196 3.4641,2.00001 8.66061,-5.00001 V 38.002198 l -1.73205,-0.999999" id="path31-2-5-8-4-4-2-3-8" sodipodi:nodetypes="ccccccccc"/><path style="fill:none;stroke:#010101;stroke-width:0.264583px;stroke-linecap:butt;stroke-linejoin:round;stroke-opacity:1;paint-order:fill markers stroke" d="m 71.015377,37.002198 -1.73205,0.999986 v 16.000012 l 3.4641,1.99999 1.73205,-0.99999" id="path62-2-2-9-4-0-1-2-3" sodipodi:nodetypes="ccccc"/><path style="fill:none;stroke:#010101;stroke-width:0.264583px;stroke-linecap:butt;stroke-linejoin:round;stroke-opacity:1;paint-order:fill markers stroke" d="m 77.943577,43.002204 8.66025,-5.000006" id="path64-0-2-2-4-4-6-9-4"/><path style="fill:none;stroke:#010101;stroke-width:0.264583px;stroke-linecap:butt;stroke-linejoin:round;stroke-opacity:1;paint-order:fill markers stroke" d="m 74.291777,72.112736 -2.41038,1.38946 -2.599364,-1.502195 3.028744,-6.259475 L 69.282033,56 71.015377,55.002196" id="path3-7-5-7-2-3-6-6" sodipodi:nodetypes="cccccc"/><path style="fill:none;stroke:#010101;stroke-width:0.264583px;stroke-linecap:butt;stroke-linejoin:round;stroke-opacity:1;paint-order:fill markers stroke" d="m 69.283327,56.002196 2.59807,1.5 1.72998,5.56476 L 75.344211,59.5 77.077557,58.502196" id="path7-6-2-3-61-2-9-5" sodipodi:nodetypes="ccccc"/><path style="fill:none;stroke:#010101;stroke-width:0.264583px;stroke-linecap:butt;stroke-linejoin:round;stroke-opacity:1;paint-order:fill markers stroke" d="m 75.344211,59.5 2.599366,1.502196 -3.03109,6.25 3.03109,9.749998" id="path16-8-2-1-0-1-3-5" sodipodi:nodetypes="cccc"/><path style="fill:none;stroke:#010101;stroke-width:0.264583px;stroke-linecap:butt;stroke-linejoin:round;stroke-opacity:1;paint-order:fill markers stroke" d="m 69.283317,38.002204 3.4641,2" id="path35-7-4-5-5-4"/><path style="fill:none;stroke:#010101;stroke-width:0.264583px;stroke-linecap:butt;stroke-linejoin:round;stroke-opacity:1;paint-order:fill markers stroke" d="m 72.747607,38.002198 v -10 L 73.61216,32.5 74.478185,29 l 0.0011,10.002199 3.46409,2 8.660433,-5.000001 2e-6,-16.000003 -3.4641,-1.99999 -8.66025,4.99999" id="path31-2-5-8-4-3-2-5-3-9" sodipodi:nodetypes="cccccccccc"/><path style="fill:none;stroke:#010101;stroke-width:0.265;stroke-linecap:butt;stroke-linejoin:round;stroke-dasharray:none;stroke-opacity:1;paint-order:fill markers stroke" d="m 74.479657,37.002198 -1.73205,0.99999 -3.4641,-1.99999 V 20.002185 l 0.183932,-0.106193 8.476228,-4.893797 3.46401,2 0.32535,1.81217" id="path62-2-2-9-4-8-0-0-4-7" sodipodi:nodetypes="cccccccc"/><path style="fill:none;stroke:#010101;stroke-width:0.264583px;stroke-linecap:butt;stroke-linejoin:round;stroke-opacity:1;paint-order:fill markers stroke" d="m 77.943757,25.002205 8.66007,-5.00001" id="path64-0-2-2-4-6-5-3-3-5"/><path style="fill:none;stroke:#010101;stroke-width:0.264583px;stroke-linecap:butt;stroke-linejoin:round;stroke-opacity:1;paint-order:fill markers stroke" d="m 69.283497,20.002205 3.464105,2 0.832955,4.63946 0.8991,-3.63947 3.4641,2 v 16.000003" id="path35-7-0-5-4-1-6" sodipodi:nodetypes="cccccc"/><path style="fill:none;stroke:#010101;stroke-width:0.264583px;stroke-linecap:butt;stroke-linejoin:round;stroke-opacity:1;paint-order:fill markers stroke" d="m 71.451447,112.75045 1.29598,5.25176 1.730758,-5.00221 8.661542,-4.99779 3.4641,2 -5.19615,13 -8.66025,5 5.19486,-13.00221 8.66154,-4.99779" id="path139-2-6-9-4" sodipodi:nodetypes="ccccccccc"/><path style="fill:none;stroke:#010101;stroke-width:0.264583px;stroke-linecap:butt;stroke-linejoin:round;stroke-opacity:1;paint-order:fill markers stroke" d="m 107.38844,78.002194 8.65896,-5.002193" id="path141-46-8-2-9-0" sodipodi:nodetypes="cc"/><path style="fill:none;stroke:#010101;stroke-width:0.264583px;stroke-linecap:butt;stroke-linejoin:round;stroke-opacity:1;paint-order:fill markers stroke" d="m 77.943577,95.002204 8.66025,-5 -3.18922,-9.84131" id="path141-47-8-4-0-9-6-3" sodipodi:nodetypes="ccc"/><path style="fill:none;stroke:#010101;stroke-width:0.264583px;stroke-linecap:butt;stroke-linejoin:round;stroke-opacity:1;paint-order:fill markers stroke" d="m 98.728187,73.002196 8.660253,-5 3.4641,2 v 2" id="path141-8-4-5-2-8" sodipodi:nodetypes="cccc"/><path style="fill:none;stroke:#010101;stroke-width:0.264583px;stroke-linecap:butt;stroke-linejoin:round;stroke-opacity:1;paint-order:fill markers stroke" d="m 71.881397,73.502196 1.73205,-3.57143 1.73206,5.57143 2.59807,1.499998 1.73205,-0.999998" id="path145-6-8-7-6" sodipodi:nodetypes="ccccc"/><path style="fill:none;stroke:#010101;stroke-width:0.264583px;stroke-linecap:butt;stroke-linejoin:round;stroke-opacity:1;paint-order:fill markers stroke" d="m 69.283327,74.002196 2.59807,1.5" id="path7-6-2-3-6-4-2-1-4"/><path style="fill:none;stroke:#010101;stroke-width:0.264583px;stroke-linecap:butt;stroke-linejoin:round;stroke-opacity:1;paint-order:fill markers stroke" d="m 75.345497,77.502194 2.59808,1.5" id="path16-8-2-1-8-9-1-9-08"/><path style="fill:none;stroke:#010101;stroke-width:0.264583px;stroke-linecap:butt;stroke-linejoin:round;stroke-opacity:1;paint-order:fill markers stroke" d="m 71.881397,75.502196 1.72998,5.564758 1.734125,-3.56476 1.732055,-0.999998" id="path142-0-9-0-1-0" sodipodi:nodetypes="cccc"/><path style="fill:none;stroke:#010101;stroke-width:0.264583px;stroke-linecap:butt;stroke-linejoin:round;stroke-opacity:1;paint-order:fill markers stroke" d="m 77.943577,79.002194 -3.03109,6.25 3.03109,9.75001" id="path144-1-6-8-8-1"/><path style="fill:none;stroke:#010101;stroke-width:0.264583px;stroke-linecap:butt;stroke-linejoin:round;stroke-opacity:1;paint-order:fill markers stroke" d="m 71.881397,91.502204 1.73205,-3.57144 1.73205,5.57144 2.59808,1.5" id="path145-0-0-5-7-5" sodipodi:nodetypes="cccc"/><path style="fill:none;stroke:#010101;stroke-width:0.264583px;stroke-linecap:butt;stroke-linejoin:round;stroke-opacity:1;paint-order:fill markers stroke" d="m 69.283317,74.002196 3.02746,9.738328 -3.028744,6.259477 2.599364,1.502203 2.40981,-1.3913" id="path146-5-5-5-4-35" sodipodi:nodetypes="ccccc"/><path style="fill:none;stroke:#010101;stroke-width:0.264583px;stroke-linecap:butt;stroke-linejoin:round;stroke-opacity:1;paint-order:fill markers stroke" d="m 77.943577,79.002194 1.73205,-1" id="path148-2-7-3-4"/><path style="fill:none;stroke:#010101;stroke-width:0.264583px;stroke-linecap:butt;stroke-linejoin:round;stroke-opacity:1;paint-order:fill markers stroke" d="m 96.996137,72.002196 8.660253,-5" id="path141-0-94-3-1-0"/><path style="fill:none;stroke:#010101;stroke-width:0.264583px;stroke-linecap:butt;stroke-linejoin:round;stroke-opacity:1;paint-order:fill markers stroke" d="M 77.928197,61.003266 88.334592,55 100.45895,62 m 1.73329,1.001479 15.58722,8.998522 0.001,12.002193" id="path141-0-9-1-2-8-1" sodipodi:nodetypes="cccccc"/><path style="fill:none;stroke:#010101;stroke-width:0.264583px;stroke-linecap:butt;stroke-linejoin:round;stroke-opacity:1;paint-order:fill markers stroke" d="m 62.35383,52 6.929497,-3.997804" id="path141-0-2-4-0-9-5" sodipodi:nodetypes="cc"/><path style="fill:none;stroke:#010101;stroke-width:0.264583px;stroke-linecap:butt;stroke-linejoin:round;stroke-opacity:1;paint-order:fill markers stroke" d="m 79.675627,62.002196 8.66026,-5" id="path141-6-2-1-7-8-8"/><path style="fill:none;stroke:#010101;stroke-width:0.264583px;stroke-linecap:butt;stroke-linejoin:round;stroke-opacity:1;paint-order:fill markers stroke" d="m 86.603827,66.002196 8.66026,-5" id="path141-6-3-4-7-8-5"/><path style="fill:none;stroke:#010101;stroke-width:0.264583px;stroke-linecap:butt;stroke-linejoin:round;stroke-opacity:1;paint-order:fill markers stroke" d="m 103.92434,76.002196 8.65896,-5.002195 3.4654,2.002195 v 11.999998 l 1.73205,-1 -1.73335,-1.002193" id="path155-6-6-4-1" sodipodi:nodetypes="cccccc"/><path style="fill:none;stroke:#010101;stroke-width:0.264583px;stroke-linecap:butt;stroke-linejoin:round;stroke-opacity:1;paint-order:fill markers stroke" d="m 88.335887,67.002196 8.66025,-5 8.660253,5 v 2" id="path156-9-9-0-6" sodipodi:nodetypes="cccc"/><path style="fill:none;stroke:#010101;stroke-width:0.264583px;stroke-linecap:butt;stroke-linejoin:round;stroke-opacity:1;paint-order:fill markers stroke" d="m 102.19229,75.002196 8.66025,-5" id="path170-4-8-2-9"/><path style="fill:none;stroke:#010101;stroke-width:0.264583px;stroke-linecap:butt;stroke-linejoin:round;stroke-opacity:1;paint-order:fill markers stroke" d="m 86.603827,70.002196 1.73205,-1" id="path173-8-8-5-4"/><path style="fill:none;stroke:#010101;stroke-width:0.264583px;stroke-linecap:butt;stroke-linejoin:round;stroke-opacity:1;paint-order:fill markers stroke" d="m 86.603827,78.002194 1.73205,-1" id="path174-8-0-0-3"/><path style="fill:none;stroke:#010101;stroke-width:0.264583px;stroke-linecap:butt;stroke-linejoin:round;stroke-opacity:1;paint-order:fill markers stroke" d="m 86.603827,82.002194 1.73205,-1" id="path175-9-3-5-2"/><path style="fill:none;stroke:#010101;stroke-width:0.264583px;stroke-linecap:butt;stroke-linejoin:round;stroke-opacity:1;paint-order:fill markers stroke" d="m 96.996137,88.002194 v 4.00001" id="path176-2-7-9-51"/><path style="fill:none;stroke:#010101;stroke-width:0.264583px;stroke-linecap:butt;stroke-linejoin:round;stroke-opacity:1;paint-order:fill markers stroke" d="m 57.158967,49.002196 1.73205,-1" id="path177-8-0-2-3"/><path style="fill:none;stroke:#010101;stroke-width:0.264583px;stroke-linecap:butt;stroke-linejoin:round;stroke-opacity:1;paint-order:fill markers stroke" d="m 58.889728,50 8.660254,-5 1.733345,1.002196" id="path177-5-8-6-6-2" sodipodi:nodetypes="ccc"/><path style="fill:none;stroke:#010101;stroke-width:0.264583px;stroke-linecap:butt;stroke-linejoin:round;stroke-opacity:1;paint-order:fill markers stroke" d="M 69.283327,50.002196 64.08588,53 l 3.464102,2" id="path180-8-1-2-9" sodipodi:nodetypes="ccc"/><path style="fill:none;stroke:#010101;stroke-width:0.264583px;stroke-linecap:butt;stroke-linejoin:round;stroke-opacity:1;paint-order:fill markers stroke" d="M 69.283327,54.002196 67.549982,55 l 0.0013,4.002196" id="path181-3-7-8-6" sodipodi:nodetypes="ccc"/><path style="fill:none;stroke:#010101;stroke-width:0.264583px;stroke-linecap:butt;stroke-linejoin:round;stroke-opacity:1;paint-order:fill markers stroke" d="m 71.881397,57.502196 2.59808,-1.5" id="path182-8-7-3-8"/><path style="fill:none;stroke:#010101;stroke-width:0.264583px;stroke-linecap:butt;stroke-linejoin:round;stroke-opacity:1;paint-order:fill markers stroke" d="m 83.717087,91.668864 1.15469,3.33334 1e-5,-4.00001" id="path183-3-9-6-0" sodipodi:nodetypes="ccc"/><path style="fill:none;stroke:#010101;stroke-width:0.264583px;stroke-linecap:butt;stroke-linejoin:round;stroke-opacity:1;paint-order:fill markers stroke" d="m 88.335877,87.002194 -2.27803,1.31522" id="path185-3-6-8-67"/><path style="fill:none;stroke:#010101;stroke-width:0.264583px;stroke-linecap:butt;stroke-linejoin:round;stroke-opacity:1;paint-order:fill markers stroke" d="m 91.799987,81.002194 1.73205,-1" id="path187-0-7-2-4"/><path style="fill:none;stroke:#010101;stroke-width:0.264583px;stroke-linecap:butt;stroke-linejoin:round;stroke-opacity:1;paint-order:fill markers stroke" d="m 88.335887,55.002196 v 2" id="path194-7-5-6-6"/><path style="fill:none;stroke:#010101;stroke-width:0.264583px;stroke-linecap:butt;stroke-linejoin:round;stroke-opacity:1;paint-order:fill markers stroke" d="m 74.912487,67.252196 4.76314,-2.74571" id="path197-9-4-7-5"/><path style="fill:none;stroke:#010101;stroke-width:0.264583px;stroke-linecap:butt;stroke-linejoin:round;stroke-opacity:1;paint-order:fill markers stroke" d="m 74.912487,85.252194 8.67563,-5.00107" id="path141-0-9-3-0-5-0-3"/><path style="fill:none;stroke:#010101;stroke-width:0.264583px;stroke-linecap:butt;stroke-linejoin:round;stroke-opacity:1;paint-order:fill markers stroke" d="m 71.881397,75.502196 2.93696,-1.69565" id="path201-7-6-2-5"/><path style="fill:none;stroke:#010101;stroke-width:0.264583px;stroke-linecap:butt;stroke-linejoin:round;stroke-opacity:1;paint-order:fill markers stroke" d="m 72.747427,22.002195 8.66025,-5" id="path204-0-4-5-4" sodipodi:nodetypes="cc"/><path style="fill:none;stroke:#010101;stroke-width:0.264583px;stroke-linecap:butt;stroke-linejoin:round;stroke-opacity:1;paint-order:fill markers stroke" d="m 32.910257,119.00221 -8.66025,-5 v 16 L 32.908966,135" id="path211-2-5-1-0" sodipodi:nodetypes="cccc"/><path style="fill:none;stroke:#010101;stroke-width:0.264583px;stroke-linecap:butt;stroke-linejoin:round;stroke-opacity:1;paint-order:fill markers stroke" d="m 95.264087,63.002196 v -2 l -6.9282,-4" id="path227-5-4-4-6" sodipodi:nodetypes="ccc"/><path style="fill:none;stroke:#010101;stroke-width:0.264583px;stroke-linecap:butt;stroke-linejoin:round;stroke-opacity:1;paint-order:fill markers stroke" d="m 60.623067,103.00221 -8.66025,-5.000006 -6.9282,4.000006 -10e-4,1.96155" id="path232-5-5-4-8" sodipodi:nodetypes="cccc"/><path style="fill:none;stroke:#010101;stroke-width:0.264583px;stroke-linecap:butt;stroke-linejoin:round;stroke-opacity:1;paint-order:fill markers stroke" d="m 34.642307,108.00221 8.66026,5" id="path235-7-3-7-8"/><path style="fill:none;stroke:#010101;stroke-width:0.264583px;stroke-linecap:butt;stroke-linejoin:round;stroke-opacity:1;paint-order:fill markers stroke" d="m 45.034617,102.00221 8.66876,5.00924" id="path237-6-7-3-8"/><path style="fill:none;stroke:#010101;stroke-width:0.264583px;stroke-linecap:butt;stroke-linejoin:round;stroke-opacity:1;paint-order:fill markers stroke" d="m 43.302557,129.00221 -1.73204,-1" id="path244-1-3-1-4" sodipodi:nodetypes="cc"/><path style="fill:none;stroke:#010101;stroke-width:0.264583px;stroke-linecap:butt;stroke-linejoin:round;stroke-opacity:1;paint-order:fill markers stroke" d="m 53.693575,123 -1.730758,-0.99779" id="path245-0-4-4-01" sodipodi:nodetypes="cc"/><path style="fill:none;stroke:#010101;stroke-width:0.264583px;stroke-linecap:butt;stroke-linejoin:round;stroke-opacity:1;paint-order:fill markers stroke" d="m 51.962817,120.00221 -3.4641,-2" id="path246-4-9-5-7"/><path style="fill:none;stroke:#010101;stroke-width:0.264583px;stroke-linecap:butt;stroke-linejoin:round;stroke-opacity:1;paint-order:fill markers stroke" d="m 48.498717,117.00221 -1.73205,-1" id="path247-8-4-7-7"/><path style="fill:none;stroke:#010101;stroke-width:0.264583px;stroke-linecap:butt;stroke-linejoin:round;stroke-opacity:1;paint-order:fill markers stroke" d="m 38.105118,123 -1.730751,-0.99779" id="path250-8-5-8-9" sodipodi:nodetypes="cc"/><path style="fill:none;stroke:#010101;stroke-width:0.264583px;stroke-linecap:butt;stroke-linejoin:round;stroke-opacity:1;paint-order:fill markers stroke" d="m 64.087177,117.00221 -1.66591,-1.11457" id="path252-2-4-9-8"/><path style="fill:none;stroke:#010101;stroke-width:0.264583px;stroke-linecap:butt;stroke-linejoin:round;stroke-opacity:1;paint-order:fill markers stroke" d="m 72.747427,108.00221 -5.19615,-3" id="path253-4-1-3-3"/><path style="fill:none;stroke:#010101;stroke-width:0.264583px;stroke-linecap:butt;stroke-linejoin:round;stroke-opacity:1;paint-order:fill markers stroke" d="m 72.747427,40.002198 1.73205,-1.000001" id="path255-9-2-4-2"/><path style="fill:none;stroke:#010101;stroke-width:0.264583px;stroke-linecap:butt;stroke-linejoin:round;stroke-opacity:1;paint-order:fill markers stroke" d="m 74.479477,41.002199 1.73205,-1.000001" id="path256-3-1-6-5"/><path style="fill:none;stroke:#010101;stroke-width:0.264583px;stroke-linecap:butt;stroke-linejoin:round;stroke-opacity:1;paint-order:fill markers stroke" d="M 79.675627,108.00221 77.942287,107" id="path259-9-6-4-0" sodipodi:nodetypes="cc"/><path style="fill:none;stroke:#010101;stroke-width:0.264583px;stroke-linecap:butt;stroke-linejoin:round;stroke-opacity:1;paint-order:fill markers stroke" d="m 72.747427,128.00221 -3.77902,-13.81818" id="path260-2-2-5-2"/><path style="fill:none;stroke:#010101;stroke-width:0.264583px;stroke-linecap:butt;stroke-linejoin:round;stroke-opacity:1;paint-order:fill markers stroke" d="m 80.099097,107.75772 0.44256,1.74449" id="path263-0-2-6-06"/><path style="fill:none;stroke:#010101;stroke-width:0.264583px;stroke-linecap:butt;stroke-linejoin:round;stroke-opacity:1;paint-order:fill markers stroke" d="m 67.551277,61.002196 v 14 l -8.66025,-5" id="path85-8-4-2-5"/><path style="fill:none;stroke:#010101;stroke-width:0.264583px;stroke-linecap:butt;stroke-linejoin:round;stroke-opacity:1;paint-order:fill markers stroke" d="m 41.570517,102.00221 10.3923,-6.000006 v -4 L 48.497423,90.000001 31.176915,100 l 0,4 5.197442,3.00221" id="path108-1-5-9-63" sodipodi:nodetypes="ccccccc"/><path style="fill:none;stroke:#010101;stroke-width:0.264583px;stroke-linecap:butt;stroke-linejoin:round;stroke-opacity:1;paint-order:fill markers stroke" d="m 60.621779,101 -5.194862,-2.997796 -1.73205,1" id="path126-4-1-2-7" sodipodi:nodetypes="ccc"/><path style="fill:none;stroke:#010101;stroke-width:0.264583px;stroke-linecap:butt;stroke-linejoin:round;stroke-opacity:1;paint-order:fill markers stroke" d="m 67.551277,95.002204 3.4641,2 v 10.000006" id="path192-5-3-5-0" sodipodi:nodetypes="ccc"/><path style="fill:none;stroke:#010101;stroke-width:0.264583px;stroke-linecap:butt;stroke-linejoin:round;stroke-opacity:1;paint-order:fill markers stroke" d="M 48.498717,110.00221 48.497423,114" id="path224-7-1-5-8" sodipodi:nodetypes="cc"/><path style="fill:none;stroke:#010101;stroke-width:0.264583px;stroke-linecap:butt;stroke-linejoin:round;stroke-opacity:1;paint-order:fill markers stroke" d="m 48.498717,110.00221 3.52923,-1.99938 -0.06511,3.99938 L 48.497423,114 46.766667,113.00221" id="path230-4-2-3-29" sodipodi:nodetypes="ccccc"/><path style="fill:none;stroke:#010101;stroke-width:0.264583px;stroke-linecap:butt;stroke-linejoin:round;stroke-opacity:1;paint-order:fill markers stroke" d="M 48.498717,110.00221 31.176915,100" id="path238-9-7-6-1" sodipodi:nodetypes="cc"/><path style="fill:none;stroke:#010101;stroke-width:0.264583px;stroke-linecap:butt;stroke-linejoin:round;stroke-opacity:1;paint-order:fill markers stroke" d="m 24.250007,114.00221 6.9282,-4 8.66025,5" id="path266-5-7-2-7" sodipodi:nodetypes="ccc"/><path style="fill:none;stroke:#010101;stroke-width:0.264583px;stroke-linecap:butt;stroke-linejoin:round;stroke-opacity:1;paint-order:fill markers stroke" d="m 71.015377,61.587306 v 6.82978" id="path268-7-6-6-8"/><path style="fill:none;stroke:#010101;stroke-width:0.264583px;stroke-linecap:butt;stroke-linejoin:round;stroke-opacity:1;paint-order:fill markers stroke" d="m 53.694867,87.002194 3.4641,2" id="path270-0-0-9-8"/><path style="fill:none;stroke:#010101;stroke-width:0.264583px;stroke-linecap:butt;stroke-linejoin:round;stroke-opacity:1;paint-order:fill markers stroke" d="m 73.613447,90.502204 0.971272,0.559304" id="path271-8-1-3-2" sodipodi:nodetypes="cc"/><path style="fill:none;stroke:#010101;stroke-width:0.264583px;stroke-linecap:butt;stroke-linejoin:round;stroke-opacity:1;paint-order:fill markers stroke" d="m 62.355117,68.002196 1.732055,1 L 64.08588,59 l 3.465447,2.002196" id="path272-1-0-0-1" sodipodi:nodetypes="cccc"/><path style="fill:none;stroke:#010101;stroke-width:0.264583px;stroke-linecap:butt;stroke-linejoin:round;stroke-opacity:1;paint-order:fill markers stroke" d="m 67.551277,75.002196 3.462807,-2.002195" id="path273-9-2-8-3" sodipodi:nodetypes="cc"/><path style="fill:none;stroke:#010101;stroke-width:0.264583px;stroke-linecap:butt;stroke-linejoin:round;stroke-opacity:1;paint-order:fill markers stroke" d="m 88.269737,97.002204 8.7264,-5" id="path275-9-5-7-8"/><path style="fill:none;stroke:#010101;stroke-width:0.264583px;stroke-linecap:butt;stroke-linejoin:round;stroke-opacity:1;paint-order:fill markers stroke" d="m 96.997757,92.002204 1.73043,1" id="path276-7-1-6-93"/><path style="fill:none;stroke:#010101;stroke-width:0.264583px;stroke-linecap:butt;stroke-linejoin:round;stroke-opacity:1;paint-order:fill markers stroke" d="m 58.932247,70.025996 -1.77328,0.9762" id="path277-8-9-5-5"/><path style="fill:none;stroke:#010101;stroke-width:0.264583px;stroke-linecap:butt;stroke-linejoin:round;stroke-opacity:1;paint-order:fill markers stroke" d="m 53.693575,47 0.0013,22.002196 3.4641,2" id="path278-2-7-2-4" sodipodi:nodetypes="ccc"/><path style="fill:none;stroke:#010101;stroke-width:0.264583px;stroke-linecap:butt;stroke-linejoin:round;stroke-opacity:1;paint-order:fill markers stroke" d="m 53.694867,71.002196 3.4641,2 v 15.999998 l -3.4641,2.00001" id="path279-5-1-4-1" sodipodi:nodetypes="cccc"/><path style="fill:none;stroke:#010101;stroke-width:0.264583px;stroke-linecap:butt;stroke-linejoin:round;stroke-opacity:1;paint-order:fill markers stroke" d="M 53.694867,87.002194 V 71.002196 l 1.73205,-1" id="path280-3-3-0-2"/><path style="fill:none;stroke:#010101;stroke-width:0.264583px;stroke-linecap:butt;stroke-linejoin:round;stroke-opacity:1;paint-order:fill markers stroke" d="M 58.889728,72.000001 57.158967,71.002196" id="path281-4-1-0-2" sodipodi:nodetypes="cc"/><path style="fill:none;stroke:#010101;stroke-width:0.264583px;stroke-linecap:butt;stroke-linejoin:round;stroke-opacity:1;paint-order:fill markers stroke" d="m 57.158967,45.002196 3.4641,2" id="path282-9-2-6-7"/><path style="fill:none;stroke:#010101;stroke-width:0.264583px;stroke-linecap:butt;stroke-linejoin:round;stroke-opacity:1;paint-order:fill markers stroke" d="m 69.282033,40 -1.732051,-1 -10.391015,6.002196 v 2" id="path283-0-0-8-7" sodipodi:nodetypes="cccc"/><path style="fill:none;stroke:#010101;stroke-width:0.264583px;stroke-linecap:butt;stroke-linejoin:round;stroke-opacity:1;paint-order:fill markers stroke" d="m 60.623067,47.002196 6.92821,-3.999999 1.73205,0.999999" id="path284-2-6-5-91"/><path style="fill:none;stroke:#010101;stroke-width:0.264583px;stroke-linecap:butt;stroke-linejoin:round;stroke-opacity:1;paint-order:fill markers stroke" d="m 60.623067,47.002196 v 2" id="path287-9-4-4-4"/><path style="fill:none;stroke:#010101;stroke-width:0.264583px;stroke-linecap:butt;stroke-linejoin:round;stroke-opacity:1;paint-order:fill markers stroke" d="M 67.551277,43.002197 67.549982,45" id="path288-6-9-6-7" sodipodi:nodetypes="cc"/><path style="fill:none;stroke:#010101;stroke-width:0.264583px;stroke-linecap:butt;stroke-linejoin:round;stroke-opacity:1;paint-order:fill markers stroke" d="m 60.623067,77.002194 1.73205,-0.999998" id="path292-2-2-8-8"/><path style="fill:none;stroke:#010101;stroke-width:0.264583px;stroke-linecap:butt;stroke-linejoin:round;stroke-opacity:1;paint-order:fill markers stroke" d="m 60.623067,77.002194 -1.73205,-0.999998" id="path295-0-5-3-8"/><path style="fill:none;stroke:#010101;stroke-width:0.264583px;stroke-linecap:butt;stroke-linejoin:round;stroke-opacity:1;paint-order:fill markers stroke" d="m 58.889728,74.000001 3.465389,2.002195 5e-6,14.000008 -1.732055,1 v -14.00001" id="path296-7-9-6-0" sodipodi:nodetypes="ccccc"/><path style="fill:none;stroke:#010101;stroke-width:0.264583px;stroke-linecap:butt;stroke-linejoin:round;stroke-opacity:1;paint-order:fill markers stroke" d="M 60.623067,91.002204 58.889728,90.000001" id="path297-3-1-2-8" sodipodi:nodetypes="cc"/><path style="fill:none;stroke:#010101;stroke-width:0.264583px;stroke-linecap:butt;stroke-linejoin:round;stroke-opacity:1;paint-order:fill markers stroke" d="m 62.355117,80.002194 1.73205,1" id="path298-1-2-2-6"/><path style="fill:none;stroke:#010101;stroke-width:0.264583px;stroke-linecap:butt;stroke-linejoin:round;stroke-opacity:1;paint-order:fill markers stroke" d="m 64.087167,81.002194 1.73206,-1" id="path299-1-8-4-14"/><path style="fill:none;stroke:#010101;stroke-width:0.264583px;stroke-linecap:butt;stroke-linejoin:round;stroke-opacity:1;paint-order:fill markers stroke" d="m 62.421267,77.992814 3.39796,2.00938 -6.5e-4,3.998903 1.7327,1.001097 v 2" id="path300-9-9-7-5" sodipodi:nodetypes="ccccc"/><path style="fill:none;stroke:#010101;stroke-width:0.264583px;stroke-linecap:butt;stroke-linejoin:round;stroke-opacity:1;paint-order:fill markers stroke" d="m 64.087167,81.002194 5e-6,8 10.392305,6.00001" id="path301-0-6-0-2" sodipodi:nodetypes="ccc"/><path style="fill:none;stroke:#010101;stroke-width:0.264583px;stroke-linecap:butt;stroke-linejoin:round;stroke-opacity:1;paint-order:fill markers stroke" d="m 50.230767,89.002194 3.4641,2.00001 v 4" id="path309-4-4-2-5"/><path style="fill:none;stroke:#010101;stroke-width:0.264583px;stroke-linecap:butt;stroke-linejoin:round;stroke-opacity:1;paint-order:fill markers stroke" d="m 53.694867,87.002194 -3.4641,2 v 2.00001" id="path312-8-3-6-9" sodipodi:nodetypes="ccc"/><path style="fill:none;stroke:#010101;stroke-width:0.264583px;stroke-linecap:butt;stroke-linejoin:round;stroke-opacity:1;paint-order:fill markers stroke" d="m 51.962817,94.002204 1.73205,1 5.19615,-3 -0.0013,-20.002203 -1.730761,1.002195" id="path316-6-2-7-2" sodipodi:nodetypes="ccccc"/><path style="fill:none;stroke:#010101;stroke-width:0.264583px;stroke-linecap:butt;stroke-linejoin:round;stroke-opacity:1;paint-order:fill markers stroke" d="m 64.08588,53 0.0013,4.002196 3.464103,2 2.26447,-1.30739" id="path324-6-3-2-32" sodipodi:nodetypes="cccc"/><path style="fill:none;stroke:#010101;stroke-width:0.264583px;stroke-linecap:butt;stroke-linejoin:round;stroke-opacity:1;paint-order:fill markers stroke" d="m 64.087167,59.002196 1.73206,-1" id="path326-4-9-0-0"/><path style="fill:none;stroke:#010101;stroke-width:0.264583px;stroke-linecap:butt;stroke-linejoin:round;stroke-opacity:1;paint-order:fill markers stroke" d="M 67.551277,61.002196 70.34445,59.386614" id="path329-8-3-0-8" sodipodi:nodetypes="cc"/><path style="fill:none;stroke:#010101;stroke-width:0.264583px;stroke-linecap:butt;stroke-linejoin:round;stroke-opacity:1;paint-order:fill markers stroke" d="M 86.603827,53.002196 89.200617,51.5 l 14.721173,8.500727 0.001,2.000371" id="path365-1-5-44" sodipodi:nodetypes="cccc"/><path style="fill:none;stroke:#010101;stroke-width:0.264583px;stroke-linecap:butt;stroke-linejoin:round;stroke-opacity:1;paint-order:fill markers stroke" d="m 107.38844,94.002194 3.46281,-2.002193 0.0124,-11.997327 2.53185,-1.50048 0.0538,11.997807" id="path404" sodipodi:nodetypes="ccccc"/><path style="fill:none;stroke:#010101;stroke-width:0.264583px;stroke-linecap:butt;stroke-linejoin:miter;stroke-opacity:1" d="m 60.621779,91.000001 0,11.999999" id="path112" sodipodi:nodetypes="cc"/><path style="fill:none;stroke:#000000;stroke-width:0.264583px;stroke-linecap:butt;stroke-linejoin:miter;stroke-opacity:1" d="m 100.45895,62 3.4641,-1.999999" id="path127"/><path style="fill:none;stroke:#000000;stroke-width:0.264583px;stroke-linecap:butt;stroke-linejoin:miter;stroke-opacity:1" d="m 100.45895,62 v 2.000001" id="path130"/><path style="fill:none;stroke:#000000;stroke-width:0.264583px;stroke-linecap:butt;stroke-linejoin:round;stroke-opacity:1" d="m 102.19124,65.042605 3.8e-4,-2.040767 L 105.6551,61 l 15.58846,9.000001 0.001,16.002193 -7.79552,4.497807 -2.58568,-1.497337" id="path131" sodipodi:nodetypes="ccccccc"/><g id="g1316" inkscape:label="group_letterfill" style="display:inline" transform="translate(6.485e-4,0.001098)"><path style="fill:#000000;fill-opacity:1;stroke:none;stroke-width:0.264999;stroke-linecap:butt;stroke-linejoin:round;stroke-dasharray:none;stroke-opacity:1;paint-order:fill markers stroke" d="M 53.693575,68.999999 V 47.000001 L 57.158966,49.002195 58.889727,54 v -4 l 3.464103,1.999999 v 16.000002 l 1.732049,0.999998 V 59 L 67.551302,61.002182 67.549979,75 58.932024,70.025868 58.889725,60.000001 57.157675,55 v 16 z" id="path154"/><path style="fill:#000000;fill-opacity:1;stroke:none;stroke-width:0.264999;stroke-linecap:butt;stroke-linejoin:round;stroke-dasharray:none;stroke-opacity:1;paint-order:fill markers stroke" d="M 64.085879,52.999999 67.549982,55 l 0.0013,4.002194 -3.464102,-1.999999 z" id="path155"/><path style="fill:#000000;fill-opacity:1;stroke:none;stroke-width:0.264999;stroke-linecap:butt;stroke-linejoin:round;stroke-dasharray:none;stroke-opacity:1;paint-order:fill markers stroke" d="m 69.283325,56.002194 2.596782,1.497807 1.73127,5.566955 1.732833,-3.566957 2.583986,1.503268 -3.01571,6.248929 3.0298,9.747802 L 75.34421,75.499999 73.613446,69.930766 71.880107,73.5 69.282031,72.000001 72.310775,65.740525 Z" id="path156"/><path style="fill:#000000;fill-opacity:1;stroke:none;stroke-width:0.264999;stroke-linecap:butt;stroke-linejoin:round;stroke-dasharray:none;stroke-opacity:1;paint-order:fill markers stroke" d="m 79.675627,62.002196 6.926913,3.997803 v 4 l -3.464102,-1.999998 v 8 l 3.465388,2.002192 -0.0013,3.997806 -6.926914,-3.997806 z" id="path157"/><path style="fill:#000000;fill-opacity:1;stroke:none;stroke-width:0.264999;stroke-linecap:butt;stroke-linejoin:round;stroke-dasharray:none;stroke-opacity:1;paint-order:fill markers stroke" d="m 98.726896,72.999999 3.465394,2.002197 1.73076,4.997804 10e-4,-3.997806 3.46281,1.997805 v 16 l -3.46281,-1.997806 -10e-4,-6.002194 -1.73205,-5.000001 V 94.999999 L 84.87049,105 v -4 l -1.732052,-5 v 10 l -3.4641,2 V 94.002946 l 4.042749,-2.334083 1.154689,3.33334 1e-5,-4.000005 1.73204,-0.999995 -0.545981,-1.68479 2.27803,-1.31522 -0.0013,11.997806 10.392306,-5.999998 z" id="path159"/><path style="fill:#000000;fill-opacity:1;stroke:none;stroke-width:0.264999;stroke-linecap:butt;stroke-linejoin:round;stroke-dasharray:none;stroke-opacity:1;paint-order:fill markers stroke" d="m 74.479477,95.002203 1.732047,-1 1.730762,0.997796 V 109 l -3.464103,2 z" id="path160"/><path style="fill:#000000;fill-opacity:1;stroke:none;stroke-width:0.264999;stroke-linecap:butt;stroke-linejoin:round;stroke-dasharray:none;stroke-opacity:1;paint-order:fill markers stroke" d="m 67.551275,111.00221 5.196152,-3 v 4 l -8.660251,5 -0.0013,-24.002209 3.465396,2.002202 z" id="path161"/><path style="fill:#000000;fill-opacity:1;stroke:none;stroke-width:0.264999;stroke-linecap:butt;stroke-linejoin:round;stroke-dasharray:none;stroke-opacity:1;paint-order:fill markers stroke" d="m 48.497423,110 v 4 l 3.465412,-1.99779 0.08151,-3.99076 z" id="path162"/><path style="fill:#000000;fill-opacity:1;stroke:none;stroke-width:0.264999;stroke-linecap:butt;stroke-linejoin:round;stroke-dasharray:none;stroke-opacity:1;paint-order:fill markers stroke" d="m 43.302568,113.00221 3.46279,-2.0022 1.3e-5,6.99999 1.733335,-0.99779 -0.0013,1.99779 -1.732053,1 v 3 l 5.196152,-3 v 4 l -8.660251,5 z" id="path163"/><path id="path164" style="fill:#000000;fill-opacity:1;stroke:none;stroke-width:0.264999;stroke-linecap:butt;stroke-linejoin:round;stroke-dasharray:none;stroke-opacity:1;paint-order:fill markers stroke" d="m 60.621623,102.99991 -6.918441,4.01165 -0.0098,15.98868 3.464388,-2.00039 v -7.00009 l 1.732194,-0.99994 v 7.00009 l 3.465422,-1.99781 -0.0016,-6.00222 -0.866097,-1.49965 0.866097,-1.50016 v -2.99982 z m -1.731678,5.00022 v 2.99981 l -1.732194,0.99994 v -2.99981 z"/><path id="path165" style="fill:#000000;fill-opacity:1;stroke:none;stroke-width:0.264999;stroke-linecap:butt;stroke-linejoin:round;stroke-dasharray:none;stroke-opacity:1;paint-order:fill markers stroke" d="m 39.837362,115.00022 -6.92826,3.99975 v 16.00006 l 6.92826,-4.00027 1.733227,-2.99775 -0.0016,-4.00183 -0.866097,-1.50016 0.866097,-1.50017 v -2.99982 z m -1.732194,4.99969 v 3.00033 l -1.732194,0.99994 v -3.00033 z m 0,5.00021 10e-4,3.00189 -1.733227,0.99787 0.0016,-2.99775 z"/><path id="path167" style="fill:#000000;fill-opacity:1;stroke:none;stroke-width:0.264999;stroke-linecap:butt;stroke-linejoin:round;stroke-dasharray:none;stroke-opacity:1;paint-order:fill markers stroke" d="m 88.33466,67.000045 v 16.000057 l 8.659936,4.999695 V 72.000256 Z m 3.463871,6.00015 1.733744,1.002006 -0.0015,7.997962 -1.732194,-0.999939 z"/></g></g></svg>