<svg xmlns="http://www.w3.org/2000/svg" preserveAspectRatio="xMidYMid" viewBox="0 0 67 70"><path d="M33 0v1h1V0Zm1 1v1h1V1Zm1 1v1h1V2Zm1 1v1h1V3Zm1 1v2h1V4Zm1 0h1V3h-1zm1-1h1v3h1V2h-2zm1 3h-1v2h1V7Zm-1 2H28v1h11zM28 8V6h-1v2Zm-1-2V3h1V2h-2v4zm1-3v1h1V3Zm1 1v2h1V4Zm1 0h1V3h-1zm1-1h1V2h-1zm1-1h1V1h-1zm-1 2v2h1V4Zm0 2h-1v1h1zm6 0h-1v1h1zm-1 0V4h-1v2ZM2 8v2h1V9h8V8H3Zm9 1v1h5V9h-4zm5 1v1h2v-1h-1zm2 1v1h1v-1zm1 1v1h1v-1zm1 1v3h1v-3zm0 3h-1v2h1v-1zm-1 2h-1v2h1v-1zm-1 2h-1v3h1v-2zm0 3v3h1v-3zm1 3v1h2v-1h-1zm2 1v1h2v-1h-1zm2 1v1h1v-1zm0 1h-1v1h1zm-1 1h-1v1h1zm-1 1h-1v1h1zm-1 1h-1v1h1zm-1 1h-1v1h1zm-1 1h-1v2h1v-1zm-1 2h-2v1h2zm-2 0v-1h-1v1zm-1-1v-1h-2v1h1zm-2-1v-1h-1v1zm-1-1v-2h-1v2zm-1-2v-3H9v3zm-1-3v-8H8v8zm0-8h1v-3H9v2zm1-3h1v-2h-1v1zm0-2v-1H8v1h1Zm-2-1v-1H5v1h2Zm-3-1v-1H4v1zm-1-1v-2H3v2zm52-4v1h8v1h1V8h-8zm8 2h-1v2h1v-1zm-1 2h-1v1h1zm-1 1h-3v1h3zm-3 1h-2v1h2zm-2 1h-1v2h1v-1zm0 2v3h1v-3zm1 3v8h1v-8zm0 8h-1v3h1v-2zm-1 3h-1v2h1v-1zm-1 2h-1v1h1zm-1 1h-2v1h2zm-2 1h-1v1h1zm-1 1h-2v1h2zm-2 0v-2h-1v2zm-1-2v-1h-1v1zm-1-1v-1h-1v1zm-1-1v-1h-1v1zm-1-1v-1h-1v1zm-1-1v-1h-1v1zm-1-1v-1h-1v1zm0-1h2v-1h-2zm2-1h2v-1h-2zm2-1h1v-3h-1v2zm1-3h1v-3h-1v2zm0-3v-2h-1v2zm-1-2v-2h-1v2zm-1-2v-3h-1v3zm0-3h1v-1h-1zm1-1h1v-1h-1zm1-1h2v-1h-2zm2-1h5V9h-5zm-21 0v1h1v1h1v-1h6v-1h-7zm8 1v1h1v-1zm1 1v3h1v-3zm1 3v5h1v-5zm0 5h-1v2h1v-1zm-1 2h-1v3h1v-2zm-1 3h-1v1h1zm-1 1h-2v1h2zm-2 1h-3v1h3zm-3 0v-1h-2v1h1zm-2-1v-1h-1v1zm-1-1v-1h-1v1zm0-1h2v-1h-2zm2-1h1v-2h-1v1zm1-2h1v-2h-1v1zm0-2v-2h-1v2zm-1 0h-4v-1h-2v1h1v1h5zm-6-1v-1h-1v1zm2 0h2v-1h-1v-1h-1v1zm0-2v-1h-1v1zm-1-1v-2h-1v2zm0-2h2v-1h-2zm2-1h1v-1h-1zm1 0v1h2v-1h-1zm2 1v1h-1v1h2v-2zm1 2v2h1v-2zm1 2v2h1v-2zm-3-2h-2v1h2zM1 15v4h1v-3h5v-1H2Zm6 1v3h1v-3zm0 3H6v1h1Zm-1 1H5v1h1Zm-1 0v-1H2v1h2zm55-5v1h5v3h1v-4h-5zm5 4h-3v1h3zm-3 1h-1v1h1zm-1 0v-1h-1v1zm-1-1v-3h-1v3zM3 22v1h3v-1H4Zm3 1v5h1v-5zm0 5H3v1h3Zm-3 0v-1H2v1zm-1-1v-1H1v1zm-1-1v-2H0v2zm0-2h2v-1H1Zm60-2v1h3v-1h-2zm3 1v1h2v-1h-1zm2 1v2h1v-2zm0 2h-1v1h1zm-1 1h-1v1h1zm-1 1h-3v1h3zm-3 0v-5h-1v5zm-36 1v1h1v3h1v-4h-1zm2 4v3h1v-3zm1 3v4h1v-4zm1 4v3h1v-3zm1 3v3h1v-3zm1 3v2h-1v1h2v-3zm-1 2v-1h-1v1zm-1-1v-1h-1v1zm-1-1v-1h-1v1zm-1-1v-3h-1v3zm-1-3v-2h-1v2zm-1-2v-1h-3v1h2zm-3-1v-1h-2v1h1zm-2-1v-2h-1v2zm0-2h3v-1h-3zm3 0v1h2v-3h-1v2zm1-2v-3h-1v3zm0-3h1v-1h-1zm4-2v3h1v-2h4v-1h-4zm5 1v1h1v-1zm1 0h4v2h1v-3h-5zm4 2h-1v3h1v-2zm-1 3h-1v4h1v-3zm-1 4h-1v3h1v-2zm-1 3h-1v3h1v-2zm-1 3h-1v2h1v-1zm-1 0v-3h-1v3zm-1-3v-3h-1v3zm-1-3v-4h-1v4zm-1-4v-3h-1v3zm10-6v4h1v-3h1v-1h-1zm2 1v1h1v-1zm1 1v3h1v-3zm0 3h-1v3h2v-1h-1v-1zm1 2h3v-1h-3zm3 0v2h1v-2zm0 2h-2v1h2zm-2 1h-3v1h3zm-3 1h-1v2h1v-1zm-1 2h-1v3h1v-2zm-1 3h-1v1h1zm-1 1h-1v1h1zm-1 1h-1v1h1zm-1 1h-1v-2h-1v3h2zm-1-2h1v-3h-1v2zm1-3h1v-3h-1v2zm1-3h1v-4h-1v3zm1-4h1v-3h-1v2zM6 30v1h1v1h1v-2H7Zm2 2v2h1v-2zm1 2v1h1v-1zm1 1v1h1v-1zm1 1v1h1v-1zm1 1v1h1v-1zm1 1v2h1v-2zm0 2h-1v1h1zm-1 1h-1v1h1zm-1 1h-1v1h1zm-1 1H6v1h4zm-4 0v-3H5v3zm0-3h1v-1H6Zm1-1h1v-1H7Zm1-1h1v-1H8Zm1-1h1v-1H9Zm0-1v-1H7v1h1Zm-2 0H5v1h2Zm-2 0v-1H3v1h1Zm-2-1v-1H2v1zm-1-1v-1H1v1zm0-1h1v-1H2Zm1-1h3v-1H3Zm56-2v2h1v-1h1v-1h-1zm2 1v1h3v-1h-2zm3 1v1h1v-1zm1 1v1h1v-1zm0 1h-1v1h1zm-1 1h-2v1h2zm-2 1h-2v1h2zm-2 0v-1h-2v1h1zm-2 0h-1v1h1zm0 1v1h1v-1zm1 1v1h1v-1zm1 1v1h1v-1zm1 1v3h1v-3zm0 3h-4v1h4zm-4 0v-1h-1v1zm-1-1v-1h-1v1zm-1-1v-1h-1v1zm-1-1v-2h-1v2zm0-2h1v-1h-1zm1-1h1v-1h-1zm1-1h1v-1h-1zm1-1h1v-1h-1zm1-1h1v-2h-1v1zm-43 5v2h1v-1h2v-1h-2zm3 1v1h2v-1h-1zm2 1v2h1v-2zm0 2h-1v1h1zm-1 1h-1v1h1zm-1 1h-4v-2h-1v3h5zm-4-2h1v-2h-1v1zm35-4v1h2v1h1v-2h-2zm3 2v2h1v-2zm1 2v2h-4v1h5v-3zm-4 2v-1h-1v1zm-1-1v-1h-1v1zm-1-1v-2h-1v2zm0-2h2v-1h-2zm-24 2v1h1v-1zm1 1v2h1v-2zm1 2v1h1v-1zm1 1v3h1v-3zm0 3h-1v1h-2v1h3v-1zm-3 2h-1v-1h-1v1h-1v1h3zm-3 1h-1v1h1zm-1 1h-1v3h1v-2zm0 3v2h1v-2zm1 2v2h1v-2zm0 2h-1v1h1zm-1 1h-1v-1h-1v2h2zm-2-1v-3h-1v3zm-1-3v-1h-1v1zm-1 0h-1v1h1zm-1 1h-1v1h1zm-1 1h-3v1h3zm-3 0v-1H9v1zm0-1h1v-1h-1zm1-1h1v-1h-1zm1-1h1v-1h-1zm1-1h1v-1h-1zm1-1h1v-1h-1zm1-1h1v-1h-1zm1-1h1v-1h-1zm1-1h1v-1h-1zm1-1h1v-1h-1zm1-1h1v1h1v-5h-1v3h-1zm2-4h1v-1h-1zm1-1h1v-1h-1zm21-2v1h1v-1zm1 1v1h1v-1zm1 1v1h1v-1zm1 1v5h1v-1h1v-1h-1v-3zm2 4v1h1v-1zm1 1v1h1v-1zm1 1v1h1v-1zm1 1v1h1v-1zm1 1v1h1v-1zm1 1v1h1v-1zm1 1v1h1v-1zm1 1v1h1v-1zm1 1v1h1v-1zm1 1v1h1v-1zm0 1h-3v1h3zm-3 0v-1h-1v1zm-1-1v-1h-1v1zm-1-1v-1h-1v1zm-1 0h-1v3h1v-2zm-1 3h-1v1h-1v1h2v-1zm-2 1v-1h-1v1zm-1-1v-2h-1v2zm0-2h1v-2h-1v1zm1-2h1v-3h-1v2zm0-3v-1h-1v1zm-1-1v-1h-1v-1h-1v1h-1v1h2zm-3-1v-1h-2v-1h-1v2h2zm-3-2v-3h-1v3zm0-3h1v-1h-1zm1-1h1v-2h-1v1zm-9 3v1h1v-1zm1 1v1h1v-1zm1 1v2h2v-1h-1v-1zm2 1h2v1h1v-2h-3zm2 1h-1v1h1zm-1 1h-2v1h2zm-2 1h-1v2h1v-1zm0 2v1h2v-1h-1zm2 0h2v1h1v-2h-3zm2 1h-1v1h1zm-1 1h-3v2h1v-1h2zm-3 2h-1v2h4v-1h-3zm3 1h2v1h1v-2h-3zm2 1h-1v1h1zm-1 1h-2v1h2zm-2 1h-2v1h2zm-2 1h-1v1h1zm-1 1h-1v1h1zm-1 1h-1v2h1v-1zm-1 0v-1h-1v1zm-1-1v-1h-1v1zm-1-1v-1h-2v1h1zm-2-1v-1h-2v1h1zm-2-1v-1h-1v1zm-1-1v-1h2v-1h-3v2zm2-1v1h4v-2h-1v1h-2zm3-1v-2h-3v1h2v1zm-3-2v-1h-1v1zm-1-1v-1h2v-1h-3v2zm2-1v1h2v-1h-1zm2 0h1v-2h-1v1zm0-2v-1h-2v1h1zm-2-1v-1h-1v1zm-1-1v-1h2v-1h-3v2zm2-1v1h2v-2h-1v1zm2-1h1v-1h-1z"/><path fill="#606fce" d="M33 1v1h-1v1h-1v1h1v3h1v1h1V7h1V6h-1V4h1V2h-1V1Zm-6 3v2h1V4Zm1 2v1h1V6Zm10-2v2h1V4Zm0 2h-1v1h1zm-10 6v1h-2v2h2v-1h2v-1h-1v-1zm1 5v1h2v-1h-1ZM19 50v1h-1v1h-1v1h-1v1h-1v1h-1v1h-1v1h-1v1h3v-1h2v-1h1v-2h1v-1h1v-1h1v-1h-1v-1zm-7 8h-1v1h1zm35-8v1h-1v1h1v1h1v1h1v3h-1v2h-1v1h2v-1h1v-2h2v-1h1v-1h-1v-1h-1v-1h-1v-1h-1v-1h-1v-1z"/><path fill="#40477e" d="M27 3v1h1V3Zm1 1v2h1V4Zm1 2v1h-1v1h5V7h-1V6h-1v1h-1V6Zm6-3v1h1V3Zm0 1h-1v2h1V5Zm0 2v1h-1v1h5V6h-1v1h-2V6Zm4 0h1V3h-1v2zm-9 7v1h1v-1zm0 1h-2v1h2zm-2 1h-1v1h1zm-1 3v1h4v-1h-3ZM17 56v1h-1v1h1v3h1v1h1v-1h1v-2h-1v-2h-1v-1zm35 0v2h1v1h1v1h3v-1h-1v-1h-1v-1h-1v-1h-1zm-2 1v1h1v-1zm-38 1v1h-2v1h3v-1h1v-1h-1zm37 1v1h-2v1h1v1h1v-1h1v-2z"/><path fill="#fff" d="M3 9v1h1v2h1v1h3v1h2v1h1v2h-1v3H9v8h1v3h1v1h1v1h3v-1h2v-1h1v-1h2v-1h-1v-3h-1v-3h-1v-3h1v-2h1v-2h1v-3h-1v-1h-1v-1h-2v-1h-5V9H4Zm53 0v1h-5v1h-2v1h-1v1h-1v3h1v2h1v2h1v3h-1v3h-1v1h-2v1h-2v1h1v1h2v1h2v1h1v1h2v-1h2v-1h1v-1h1v-1h1v-1h1v-8h-1v-3h-1v-2h-1v-1h1v-1h2v-1h2v-1h2V9h-5zm-21 2v1h-3v3h1v2h1v2h-1v2h-1v2h-1v1h-1v1h2v1h3v-1h2v-1h1v-2h1v-2h1v-5h-1v-3h-1v-1h-2ZM2 16v2h3v1h1v-1h1v-2H3Zm58 0v3h2v-1h2v-1h1v-1h-4ZM3 23v1H1v2h1v1h3v-1h1v-3H4Zm58 0v4h2v-1h1v-1h1v-1h-1v-1h-2zm-36 7v1h-1v3h1v3h-2v-1h-3v2h2v1h3v1h1v2h1v3h1v1h1v1h2v-1h-1v-3h-1v-3h-1v-4h-1v-3h-1v-3zm4 0v2h1v3h1v4h1v3h1v-3h1v-3h1v-3h1v-2h-3v-1h-3zm12 0v3h-1v3h-1v4h1v-1h1v-1h1v-4h1v-3h-1v-1ZM6 31v1H3v1H2v1h2v1h3v-2h1v-1H7v-1zm54 0v1h-1v2h-1v1h3v-1h2v-1h1v-1h-3v-1zm-50 5v1H9v1H8v1H7v1H6v2h4v-1h1v-1h1v-3h-1v-1zm46 0v1h-1v1h-1v2h1v1h1v1h3v-1h1v-2h-1v-1h-1v-1h-1v-1zm-40 4v1h-1v2h-1v2h1v-1h3v-1h1v-1h1v-1h-2v-1h-1zm33 0v1h-2v2h1v1h4v-2h-1v-2h-1zm-26 4v1h-1v1h-1v4h3v-1h1v-3h-1v-2zm20 0v2h-1v1h-1v3h2v-1h2v-2h1v-1h-1v-1h-1v-1zm-10 6v1h-1v2h-2v-1h-2v1h1v1h2v1h1v2h-1v1h-2v-1h-2v1h1v1h3v2h1v2h-4v-1h-2v1h1v1h2v1h4v1h1v-1h1v-1h-1v-5h1v-1h1v-1h-2v-3h1v-2h-1v-2zm2 14h2v-1h-2zm2-12v2h1v-2zm1 5v1h1v-1z"/><path fill="#dde5ea" d="M62 9v2h-2v1h-2v1h-2v1h-1v1h2v-1h2v-1h3v-1h1v-2h1V9h-1zm-30 2v1h3v-1h-2zm0 1h-1v1h1zm32 5v1h-2v1h3v-2zm-2 2h-1v1h1zM2 18v1h3v-1H3Zm3 1v1h1v-1zm1 0h1v-1H6Zm23 5v1h1v-1zm1 1v1h2v-1h-1zm2 1v1h3v-1h-2zm3 0h2v-1h-2zm2-1h1v-1h-1zm28-1v1h-1v1h-1v1h-2v1h3v-1h1v-1h1v-2ZM5 26v1H3v1h3v-2zm14 1v2h1v1h-2v1h-1v1h-2v1h-3v1h2v1h1v1h2v-2h1v-1h1v-1h1v-1h1v-1h1v-1h1v-1h-2v-1h-1zm-7 6v-1h-1v1zm44-4v1h-1v1h-1v1h-2v1h-2v-1h-1v-1h-2v1h1v1h1v1h1v2h2v-1h1v-1h2v-1h1v-2h1v-2zm-9 2v-1h-1v1zm-13-1v1h2v2h-1v3h-1v3h-1v6h1v-3h1v-3h1v-4h1v-3h1v-2h-3ZM7 33v2h2v-1H8v-1zm0 2H5v1h2zm56-2v1h-2v1h-1v1h2v-1h2v-1h1v-1h-1ZM3 34v1h1v-1zm41 2v1h-2v1h-1v1h-1v1h-2v3h-1v3h-1v2h1v-1h1v-1h1v-1h1v-3h1v-2h1v-1h3v-1h2v-2h-2zm-32 2v2h1v-2zm0 2h-1v1h1zm-1 1h-1v1h1zm-1 1H6v1h4zm50-2v1h-1v1h-2v1h4v-3zm-9 1v1h1v-1zm-32 1v1h1v-1zm0 1h-1v1h1zm-1 1h-3v1h3zm34-1v1h-3v1h4v-2zm-27 4v2h-1v1h-3v1h1v1h1v-1h2v-1h1v-3zm5 0v1h1v-1zm15 0v2h-2v1h-1v1h2v1h1v-1h1v-4zm-11 4v1h1v-1zm4 1v1h1v-1zm-3 1v1h-1v3h1v-2h1v-1h1v-1h-1zm4 4v1h1v-1zm0 1h-4v1h-1v5h1v-3h1v-2h3zm-4 6v1h-1v1h-1v-1h-2v1h1v1h1v1h1v-1h1v-1h1v-1h2v-1h2v-1h1v-1h-2v1h-2v1h-1z"/></svg>
