<?xml version="1.0" encoding="UTF-8" standalone="no"?>
<!-- Created with Inkscape (http://www.inkscape.org/) -->

<svg
   width="150mm"
   height="150mm"
   viewBox="0 0 150 150"
   version="1.1"
   id="svg1"
   xml:space="preserve"
   xmlns:xlink="http://www.w3.org/1999/xlink"
   xmlns="http://www.w3.org/2000/svg"
   xmlns:svg="http://www.w3.org/2000/svg"><defs
     id="defs1"><rect
       x="535.73047"
       y="-33.847572"
       width="122.97265"
       height="87.124916"
       id="rect388" /><rect
       x="-32.667969"
       y="-64.684975"
       width="162.41795"
       height="117.9506"
       id="rect387" /><linearGradient
       id="linearGradient5562"><stop
         style="stop-color:#699ad7;stop-opacity:1"
         offset="0"
         id="stop5564" /><stop
         id="stop5566"
         offset="0.24345198"
         style="stop-color:#7eb1dd;stop-opacity:1" /><stop
         style="stop-color:#7ebae4;stop-opacity:1"
         offset="1"
         id="stop5568" /></linearGradient><linearGradient
       id="linearGradient5053"><stop
         style="stop-color:#415e9a;stop-opacity:1"
         offset="0"
         id="stop5055" /><stop
         id="stop5057"
         offset="0.23168644"
         style="stop-color:#4a6baf;stop-opacity:1" /><stop
         style="stop-color:#5277c3;stop-opacity:1"
         offset="1"
         id="stop5059" /></linearGradient><linearGradient
       xlink:href="#linearGradient5562"
       id="linearGradient4328"
       gradientUnits="userSpaceOnUse"
       gradientTransform="translate(70.650339,-1055.1511)"
       x1="200.59668"
       y1="351.41116"
       x2="290.08701"
       y2="506.18814" /><linearGradient
       xlink:href="#linearGradient5053"
       id="linearGradient4330"
       gradientUnits="userSpaceOnUse"
       gradientTransform="translate(864.69589,-1491.3405)"
       x1="-584.19934"
       y1="782.33563"
       x2="-496.29703"
       y2="937.71399" /></defs><g
     id="layer1"><path
       d="m 51.848549,48.544872 c 0.0329,1.833675 0.490574,3.825887 0.668557,5.8525 0.329046,3.743627 -1.594368,4.802551 -4.304496,5.152534 -1.144176,0.148072 -2.32425,0.140593 -3.465435,-0.255755 -2.228527,-0.771759 -3.302407,-2.327242 -3.221643,-4.678412 0.05833,-1.684109 0.511515,-3.271 1.189047,-4.784603 2.080458,-4.648498 3.260529,-9.54378 4.104081,-14.540764 0.257251,-1.522578 0.351477,-3.081052 1.142679,-4.489959 1.069394,-1.905466 3.179765,-2.901571 5.79118,-2.620389 1.826194,0.197427 3.282965,1.501638 3.800461,3.570131 0.604244,2.416979 1.102298,4.860881 1.661673,7.289826 0.161532,0.698471 0.39934,1.376003 0.794194,1.983238 0.197427,0.305113 0.448696,0.545913 0.855514,0.477115 0.367932,-0.06281 0.507028,-0.332036 0.623689,-0.66108 0.09572,-0.267723 0.109176,-0.529463 0.118158,-0.801671 0.05384,-1.721499 -0.189948,-3.425051 -0.36195,-5.128604 -0.146574,-1.455273 -0.04787,-2.883623 0.242297,-4.292531 0.297635,-1.447796 1.703552,-2.500736 3.248563,-2.58599 0.04935,-0.003 0.100213,0 0.149565,-0.0015 2.668251,-0.06281 3.459452,0.776247 3.172287,3.437018 -0.27221,2.514197 -0.650611,5.019421 -0.861499,7.538105 -0.228835,2.726579 -0.299131,5.459142 0.03888,8.194695 0.285671,2.312285 0.477114,4.639526 0.641638,6.965269 0.212382,2.98533 -1.519588,4.639526 -3.941053,5.029892 -2.174682,0.351452 -4.246166,0.182443 -6.097788,-1.151682 -1.160629,-0.836071 -1.636248,-2.068491 -1.912944,-3.401121 -0.445705,-2.150752 -0.338017,-4.353853 -0.596766,-6.52405 -0.155548,-1.301219 -0.266225,-2.608424 -0.741845,-3.846827 -0.03439,-0.09122 -0.05983,-0.186957 -0.100211,-0.275201 -0.230331,-0.510018 -0.501045,-1.015549 -1.147168,-1.000593 -0.659584,0.01495 -0.906367,0.571341 -1.087342,1.076872 -0.412801,1.159133 -0.430748,2.38258 -0.459166,3.597052 -0.006,0.222852 0.02693,0.447202 0.05683,0.876455 z M 86.3623,63.601636 c -0.405323,1.030509 -0.305113,2.111868 -0.172,3.166305 0.327547,2.575519 1.069392,5.079246 1.332627,7.672712 0.284174,2.790895 0.22734,5.551877 -0.266226,8.309865 -0.318574,1.773846 -0.972175,3.46693 -1.208488,5.263212 -0.215375,1.628768 0.406817,2.725085 1.945847,3.312877 1.045463,0.39934 2.13729,0.523481 3.220149,0.382888 3.667346,-0.475619 5.994587,-3.151346 4.144459,-7.110347 -0.786714,-1.681117 -1.361047,-3.438513 -1.685601,-5.269196 -0.186957,-1.055932 -0.300631,-2.123831 -0.198924,-3.191728 0.04788,-0.505532 0.137601,-1.118751 0.719413,-1.280283 0.602748,-0.167511 0.84953,0.399341 1.108278,0.80616 0.581811,0.913846 1.023029,1.902475 1.46275,2.892599 1.227935,2.77145 2.052042,5.698447 3.272496,8.472888 0.38738,0.880941 0.81214,1.740943 1.35955,2.536633 1.26981,1.845638 3.09601,2.41698 5.2019,2.14477 2.40501,-0.311097 4.14446,-1.996701 4.53183,-4.077159 0.21538,-1.159132 0.11663,-2.282369 -0.0912,-3.399624 -0.52348,-2.816318 -1.15614,-5.613195 -1.66019,-8.432508 -0.39635,-2.212073 -0.41429,-4.437608 0.0344,-6.664642 0.25874,-1.281776 0.69098,-2.521675 0.86149,-3.825886 0.2423,-1.844144 -0.61472,-3.296426 -2.37959,-3.855799 -1.40142,-0.444211 -2.83875,-0.495064 -4.26859,-0.176489 -1.51361,0.33802 -1.99521,1.018543 -1.95782,2.584493 0.015,0.602749 0.14209,1.181568 0.37242,1.730475 0.71642,1.711029 1.28477,3.472911 1.66466,5.28415 0.22435,1.067899 0.58181,2.138788 0.10616,3.276982 -0.53394,1.277291 -1.41788,1.5495 -2.3392,0.547411 -1.45976,-1.586891 -2.330235,-3.540218 -3.220146,-5.468118 -0.774751,-1.679622 -1.41938,-3.417574 -2.482793,-4.955108 -1.320664,-1.911448 -3.110962,-2.918022 -6.232394,-2.938963 -1.24289,-0.01795 -2.574025,0.725395 -3.178269,2.26143 z M 62.004052,80.219868 c 0.125639,0.726889 0.197426,1.465744 0.336523,2.195624 0.951234,4.967071 4.406201,9.056194 9.839917,9.651464 2.597954,0.284176 5.065785,-0.07328 7.252436,-1.512108 3.933573,-2.588979 5.469611,-6.531528 5.949718,-11.018494 0.213878,-1.995204 0.02992,-3.969471 -0.293149,-5.937755 -0.471132,-2.87764 -1.296733,-5.620673 -3.013746,-8.030173 -2.512702,-3.523764 -5.963178,-4.750203 -10.142044,-4.051731 -2.820804,0.471131 -4.805539,2.249465 -6.414864,4.469018 -2.605432,3.595556 -3.565644,7.705617 -3.631453,12.011611 0.07628,0.782228 -0.0075,1.497152 0.116659,2.221048 z m 9.095082,-11.325104 c 1.220454,-2.274893 3.988914,-1.838162 5.230308,-0.285672 0.975167,1.220456 1.373011,2.686198 1.501637,4.196811 0.167513,1.95183 0.233323,3.909644 -0.517496,5.798657 -1.032003,2.59945 -3.716704,2.855207 -5.25424,1.880039 -1.226436,-0.779236 -1.663169,-2.055031 -1.914437,-3.390651 -0.173497,-0.927307 -0.227341,-1.875552 -0.167515,-2.729572 -0.04188,-1.972769 0.209392,-3.773539 1.120246,-5.471109 z M 90.568086,59.13561 c 1.199511,-0.399339 1.977256,-1.145672 2.207587,-2.4439 0.182468,-1.033499 -0.03289,-2.032597 -0.139099,-3.039174 -0.131617,-1.25336 -0.382886,-2.494754 -0.511511,-3.748113 -0.06731,-0.649114 -0.0075,-1.398437 0.818122,-1.530055 0.843549,-0.134609 0.924312,0.644627 1.117257,1.208489 0.489075,1.431342 0.655092,2.94046 1.049947,4.394236 0.432246,1.592874 1.012558,3.139382 2.343691,4.196811 2.19563,1.743935 4.65448,1.621291 7.0939,0.649115 4.3389,-1.730475 4.39424,-7.072957 1.08435,-9.346353 -1.40293,-0.964699 -2.91353,-1.66317 -4.46901,-2.294336 -1.223455,-0.496558 -2.397551,-1.090333 -3.38169,-1.960805 -1.301223,-1.150159 -2.198616,-2.728076 -1.196525,-4.756185 0.372423,-0.75381 0.788213,-1.474717 1.299729,-2.140282 1.341593,-1.746927 2.699656,-3.481887 3.279976,-5.670032 0.42477,-1.603342 -0.0733,-3.287451 -1.323665,-4.122027 -1.308696,-0.871967 -2.762471,-0.931794 -4.20578,-0.423271 -1.072384,0.3784 -1.766369,1.166611 -1.91444,2.349675 -0.08675,0.688002 -0.177982,1.374509 -0.260242,2.064004 -0.100212,0.834577 -0.182468,1.672145 -0.569849,2.442408 -0.174989,0.349982 -0.384379,0.679027 -0.803166,0.67454 -0.387374,-0.0044 -0.486085,-0.384383 -0.59527,-0.67454 -0.357459,-0.940767 -0.693986,-1.890509 -1.034995,-2.837259 -1.057427,-2.944947 -2.901572,-4.56175 -6.006551,-4.409193 -2.016144,0.09871 -3.291939,1.727482 -2.873155,3.706235 0.321567,1.521081 1.082856,2.802858 2.013153,4.000878 0.973671,1.256351 1.999692,2.47232 2.96738,3.731662 1.509118,1.965291 1.832178,4.044252 0.547409,6.271284 -0.421774,0.731375 -0.891408,1.423863 -1.398436,2.096908 -1.398438,1.8591 -2.880633,3.682305 -3.250061,6.084329 -0.364939,2.381083 0.411305,4.869853 3.250061,5.628152 0.752314,0.200418 1.519585,0.225844 2.289848,0.200418 0.873463,0.04038 1.733466,-0.02544 2.571035,-0.305115 z M 39.177354,80.851035 c 0.541428,3.116947 1.639237,5.940743 4.102582,8.095984 3.930584,3.437017 10.255714,3.918618 14.579654,0.997601 2.672735,-1.806752 4.122027,-4.65747 2.708632,-7.898556 -1.423863,-3.263521 -4.056219,-3.959 -6.757373,-1.736457 -2.271901,1.86957 -5.21236,0.53395 -5.789683,-1.7215 -0.882436,-3.450476 -0.195932,-6.634729 2.0311,-9.425621 0.631167,-0.791203 1.510614,-1.326647 2.599449,-1.178577 1.079865,0.146574 1.634752,1.227933 1.404422,2.617397 -0.231826,1.399935 0.460662,2.497746 1.824699,2.892598 1.797779,0.520489 3.797471,-0.593775 4.615594,-2.574023 1.389465,-3.362234 -0.336521,-7.572503 -3.722686,-8.933551 -3.680808,-1.479204 -7.265896,-1.048455 -10.448652,1.196525 -5.05382,3.56265 -7.111842,8.743603 -7.378067,14.751651 0.05833,0.984141 0.06133,1.956318 0.227338,2.915033 z m 11.776792,43.601355 c -4.901263,0.62221 -7.010137,5.03139 -6.245857,8.87522 0.59527,2.99431 3.697261,5.08972 6.679598,4.53932 1.589883,-0.29315 2.962893,-1.08286 4.391246,-1.74692 1.977256,-0.91984 4.009853,-1.43136 6.178553,-0.86748 1.717012,0.4472 3.033188,1.51659 4.163905,2.84622 1.238403,1.45826 2.212074,3.11695 3.46992,4.56325 2.373606,2.72808 5.094204,4.9222 8.736127,5.68798 2.013151,0.42327 3.990408,0.36495 5.8525,-0.64163 2.689189,-1.45229 2.85371,-4.51689 0.342506,-6.26531 -1.459761,-1.01555 -3.139382,-1.40742 -4.847422,-1.70805 -2.666754,-0.46962 -5.137576,-1.36103 -7.267391,-3.10795 -1.331132,-1.09184 -2.61291,-2.23003 -3.813921,-3.45947 -2.019135,-2.06699 -4.131002,-4.0248 -6.543493,-5.63412 -2.847728,-1.89949 -5.901858,-3.19323 -9.391222,-3.21268 -0.572837,0.0209 -1.135203,0.0568 -1.706544,0.12864 z m 4.527351,-11.79474 c 0.456174,2.53514 1.410403,4.81152 3.363729,6.60481 3.80794,3.49686 10.088198,2.86719 13.142326,-1.28476 1.648214,-2.24049 2.517189,-4.72477 2.801364,-7.45583 0.505531,-4.87736 -0.587793,-9.32842 -3.76307,-13.112428 -3.459452,-4.12203 -10.164475,-4.663457 -13.386118,0.987131 -1.839656,3.226127 -2.454371,6.745397 -2.481293,10.880897 -0.05683,0.8241 0.09573,2.10737 0.324558,3.38018 z m 6.869546,-10.41874 c 0.532453,-1.04995 1.280281,-1.80824 2.550092,-1.84115 1.35357,-0.0358 2.267415,0.67154 2.828286,1.81274 0.958714,1.95183 1.042471,4.04425 0.827097,6.16509 -0.08975,0.88393 -0.269217,1.74992 -0.677532,2.55158 -0.617705,1.21597 -1.601847,1.88903 -2.973363,1.85461 -1.402926,-0.0344 -2.36164,-0.74334 -2.858197,-2.07745 -0.46515,-1.24888 -0.640141,-2.53664 -0.601254,-3.59108 -0.0075,-1.86508 0.170504,-3.42504 0.904871,-4.87434 z m -11.489627,18.94845 c 2.016144,-0.0343 3.000285,-0.81512 3.510304,-2.746 0.290157,-1.09782 0.305115,-2.23004 0.163027,-3.33681 -0.246783,-1.93839 -1.070889,-2.48279 -3.05712,-2.32425 -1.043968,0.0838 -2.032597,0.42028 -3.069086,0.52498 -0.438229,0.0448 -0.882437,0.16003 -1.144176,-0.26474 -0.270715,-0.43823 0.07628,-0.80317 0.324558,-1.12772 0.726887,-0.95573 1.649706,-1.726 2.488769,-2.57702 1.920423,-1.94585 3.632948,-4.02331 3.981436,-6.86805 0.333532,-2.72359 -0.441219,-5.007463 -2.814825,-6.582388 -3.191728,-2.119341 -7.864156,-2.017636 -10.870424,0.360457 -2.111867,1.670645 -3.422061,3.791491 -2.843242,6.654181 0.29315,1.44929 1.503134,2.52316 2.861189,2.58897 1.579412,0.0762 2.660771,-0.67753 3.188738,-2.21208 0.207896,-0.60424 0.339514,-1.23541 0.698471,-1.78432 0.620697,-0.94525 1.785813,-1.25484 2.804354,-0.72987 0.768768,0.39634 1.026021,1.38498 0.638646,2.411 -0.655098,1.72897 -2.064004,2.83875 -3.374199,4.00238 -1.939866,1.72448 -3.834861,3.48188 -5.185437,5.72685 -1.060421,1.7619 -1.661675,3.64342 -1.189049,5.73285 0.302124,1.33862 1.230926,2.18666 2.584493,2.41699 1.857605,0.31559 3.730166,0.0658 4.920709,0.13909 2.241986,0 3.812425,0.0209 5.382864,-0.007 z m 33.007626,-0.29463 c 1.868073,0 3.737643,0.0225 5.605715,-0.008 1.468736,-0.0225 2.550096,-0.86748 2.780427,-2.1029 0.212381,-1.13371 0.221357,-2.28237 0.124141,-3.42206 -0.170508,-2.02662 -1.18157,-2.83576 -3.169295,-2.58747 -1.178577,0.14806 -2.352666,0.34848 -3.531243,0.49356 -0.33054,0.0402 -0.737357,0.0987 -0.921324,-0.30214 -0.163027,-0.35446 0.04787,-0.67303 0.227341,-0.9602 0.480105,-0.76877 1.160628,-1.35805 1.820212,-1.96529 1.869568,-1.7215 3.658376,-3.50133 4.772635,-5.84502 1.875555,-3.94256 -0.01793,-8.247047 -4.193816,-9.470502 -1.966787,-0.575824 -3.947035,-0.590779 -5.957197,-0.179474 -1.911448,0.390364 -3.5462,1.229429 -4.804046,2.731067 -1.17409,1.402926 -1.702056,2.995799 -1.256351,4.826479 0.30362,1.25187 1.516596,2.37809 2.660772,2.49027 1.571934,0.15405 2.455866,-0.37542 3.170789,-1.87406 0.233324,-0.48907 0.468142,-0.98263 0.770263,-1.42984 0.574333,-0.84954 1.923415,-1.14567 2.798373,-0.66108 0.774749,0.42775 1.064907,1.49714 0.677532,2.48877 -0.387374,0.99162 -1.061916,1.77833 -1.793291,2.52467 -1.518091,1.5465 -3.26053,2.8537 -4.726273,4.45405 -1.655691,1.80826 -3.134894,3.72867 -3.49086,6.25035 -0.312592,2.20759 0.263235,4.79058 3.653886,4.58121 1.588388,-0.0987 3.187244,-0.0165 4.781613,-0.0165 v -0.015 z M 103.20039,94.798019 c -1.54351,0 -3.08852,0.0043 -4.632042,0 -1.202513,-0.0043 -2.286859,0.179483 -2.753504,1.522579 -0.155551,0.450192 -0.236313,0.900386 -0.276697,1.373021 -0.125638,1.512103 -0.09123,3.030191 -0.260247,4.543791 -0.161529,1.45228 -0.432241,2.89859 -0.329042,4.3763 0.103193,1.48968 1.392455,2.44988 2.705636,2.07148 0.897394,-0.25876 1.844156,-0.40532 2.777436,-0.45618 1.15615,-0.0628 2.39604,-0.15554 3.25754,0.85851 0.83607,0.98564 0.83158,2.12981 0.33354,3.27399 -0.47414,1.08883 -1.3132,1.57942 -2.55608,1.52109 -1.15165,-0.0539 -1.962307,-0.58631 -2.364636,-1.70805 -0.264727,-0.73884 -0.67454,-1.36405 -1.494164,-1.62129 -1.44031,-0.4502 -2.904562,0.38289 -3.401115,1.95783 -0.69249,2.20011 0.345497,5.3694 2.247972,6.90992 1.337119,1.08135 2.886611,1.58987 4.572213,1.73346 3.03468,0.26024 5.64013,-0.67006 7.69217,-2.93448 2.42296,-2.67274 3.13188,-5.8211 2.37808,-9.31943 -0.70445,-3.2695 -3.73914,-5.88989 -7.30925,-5.24975 -0.63267,0.11368 -1.28329,0.18397 -1.92643,0.18397 -1.029,0 -1.53753,-0.49356 -1.53453,-1.38498 0.003,-1.02752 0.5534,-1.57343 1.7215,-1.58689 1.94285,-0.0225 3.8872,0 5.83006,0.0164 0.58779,0.007 1.13371,-0.0957 1.61382,-0.4487 1.00358,-0.738862 1.47621,-2.457358 1.04546,-3.785506 -0.47413,-1.464249 -1.09032,-1.894992 -2.78341,-1.908459 -1.51809,-0.01199 -3.03768,-0.0032 -4.55577,-0.0032 v 0.06577 z M 73.970791,28.180024 c -1.558471,0.08226 -2.461848,1.012559 -2.500735,2.560563 -0.01048,0.42327 -0.02842,0.848036 0,1.269812 0.139094,1.983239 0.317079,3.963488 0.436731,5.946727 0.231826,3.854304 -0.369427,7.59793 -1.55249,11.26079 -0.562366,1.73945 -1.03649,3.49834 -1.192038,5.337996 -0.183964,2.183657 0.702959,3.882722 2.71611,4.72328 1.912945,0.800177 3.864775,0.686508 5.756779,-0.151061 1.162125,-0.514504 1.826197,-1.488176 2.194128,-2.660771 0.326053,-1.039481 0.3096,-2.125327 0.125638,-3.178269 -0.575827,-3.288946 -1.371517,-6.541997 -1.555481,-9.892266 -0.13461,-2.463344 -0.05983,-4.926688 0.146574,-7.382556 0.154052,-1.829187 0.477113,-3.644913 0.405323,-5.492047 -0.04487,-1.166613 -0.542923,-1.83517 -1.646718,-2.197119 -0.674541,-0.221357 -1.376003,-0.155548 -2.066996,-0.151061 -0.423271,0 -0.846541,-0.01945 -1.268316,0.003 z M 87.385327,138.0838 c 0.320071,-0.0225 0.638645,-0.0838 0.955726,-0.13163 3.309886,-0.50253 6.190516,-1.86955 8.466905,-4.35534 1.284763,-1.40441 2.046058,-3.04965 1.651202,-5.01493 -0.510013,-2.53065 -2.282368,-3.84534 -4.606615,-4.53034 -2.194129,-0.64761 -4.433124,-0.4846 -6.6452,-0.11071 -2.098404,0.35447 -4.119036,0.94823 -5.939248,2.13879 -3.785505,2.47231 -3.954514,7.80881 -0.297636,10.43518 1.627274,1.16812 3.460948,1.62728 5.44269,1.57493 0.324558,0 0.649115,0.018 0.970682,-0.006 z M 80.840339,26.23268 c 1.390959,-0.203409 2.777432,-0.408314 4.009853,-1.178575 1.595864,-0.997604 1.894994,-3.08554 0.670054,-4.901265 -0.877951,-1.299725 -2.624875,-1.48369 -4.057713,-0.391862 -0.572837,0.435235 -1.052943,0.996107 -1.634752,1.41489 -3.306896,2.372111 -6.818696,1.975761 -10.317035,0.578819 -1.854613,-0.740349 -3.054128,-2.35117 -4.297018,-3.840843 -1.148663,-1.376003 -2.527657,-2.307796 -4.325436,-2.659276 -3.441503,-0.671549 -6.865059,1.589882 -7.458834,5.049333 -0.269219,1.568943 0.207895,2.886616 1.583899,3.810932 1.609326,1.081358 3.471416,1.058923 5.285647,1.214471 2.277884,0.194436 4.566236,0.275201 6.842624,0.493567 3.096007,0.296139 6.187527,0.613218 9.302979,0.571341 1.467237,-0.01645 2.937468,0.05234 4.395732,-0.160036 z M 77.703949,8.5794565 c 0.532452,2.3646315 2.087935,3.8767405 4.045748,5.0717685 1.60783,0.981149 3.434026,1.483691 5.128603,2.27938 2.093919,0.982645 3.383174,2.485779 3.457956,4.920705 0.05534,1.818719 1.153151,2.901574 2.901574,3.081052 1.486682,0.152556 2.870161,-0.652105 3.148355,-1.909952 0.260242,-1.177081 -0.278194,-2.12084 -1.054441,-2.949433 C 93.616228,17.240799 92.439147,15.107993 91.624014,12.73738 90.940502,10.746662 90.642868,8.6617182 90.010204,6.665017 88.931837,3.2549228 86.576177,1.4077872 83.375475,1.4092829 79.923502,1.2238219 76.769165,4.4260213 77.705444,8.5779608 Z M 36.733453,94.244632 c 2.140283,-0.921325 3.100495,-3.345783 1.006576,-5.071769 -1.405916,-1.159133 -1.518091,-2.680215 -1.006576,-4.326931 0.270714,-0.868977 0.52647,-1.745431 0.729881,-2.632354 0.393356,-1.709534 -0.439724,-3.190235 -1.932388,-3.47441 -1.29823,-0.248279 -2.476806,-0.01795 -3.564147,0.798681 -3.046653,2.288353 -4.388254,7.853688 -2.743033,11.498602 1.032002,2.286856 2.796876,3.50432 5.276672,3.703238 0.797186,0.03586 1.531553,-0.192935 2.233015,-0.495057 z m 83.400757,-5.562344 c -1.05594,-1.694578 -3.10648,-2.240492 -4.86238,-1.302717 -2.32276,1.241396 -2.60544,3.251556 -2.3093,5.533926 0.2109,1.622787 0.90639,3.11695 1.47922,4.632045 0.62817,1.663171 0.41877,3.134898 -0.64614,4.522868 -0.28567,0.37241 -0.50852,0.77474 -0.64313,1.23541 -0.38886,1.32815 0.44422,2.49177 1.82171,2.47531 1.30271,-0.015 2.15974,-0.84205 2.85222,-1.78731 2.33471,-3.18723 3.14386,-6.863564 3.30839,-10.094181 -0.0239,-2.817815 -0.30063,-4.092114 -1.00209,-5.215351 z M 71.46856,5.1947886 C 70.596593,2.6357212 68.022569,1.243266 65.010318,1.6994413 c -3.131902,0.4741215 -5.30509,3.6852946 -4.558758,6.7379276 0.58181,2.3810841 2.705641,3.8961841 5.463631,3.8946891 4.122026,-0.003 6.808224,-3.4534695 5.553369,-7.1357747 z M 98.705938,137.06076 c -1.727473,0.47414 -2.941947,1.54951 -3.408592,3.28747 -0.459166,1.71102 -0.04036,3.24556 1.323654,4.4436 1.649713,1.44629 4.62008,1.3386 6.43132,-0.21241 1.19951,-1.02751 1.9249,-2.29432 1.69757,-3.90365 -0.32755,-2.31377 -2.16571,-3.78999 -4.65747,-3.78251 -0.417284,-0.0659 -0.910855,0.0389 -1.384981,0.169 z m -60.289873,7.4723 c 0.551898,1.63028 2.487275,2.88512 4.781612,2.40502 2.083447,-0.43674 3.631451,-2.21507 3.450477,-4.16989 -0.191444,-2.05652 -1.869569,-3.48637 -4.087627,-3.48038 -2.997293,0.008 -5.037368,2.60393 -4.144462,5.24675 z m 21.969688,-4.87284 c -1.957814,0.0298 -3.426548,1.545 -3.420566,3.52974 0.0044,1.74543 1.408909,3.18127 3.128911,3.19922 2.029606,0.0225 3.62547,-1.4837 3.617992,-3.41309 -0.0075,-1.92341 -1.432838,-3.34578 -3.326337,-3.31737 z M 40.66553,65.312666 c 0.0075,-1.384975 -1.099305,-2.463343 -2.514195,-2.449881 -1.533047,0.01346 -2.720598,1.206992 -2.714615,2.723587 0.006,1.414892 1.090332,2.400528 2.62637,2.390058 1.437327,-0.01047 2.594963,-1.195029 2.60244,-2.663764 z m -8.194695,34.491315 c -1.483691,-0.0079 -2.571034,1.084349 -2.571034,2.582999 0,1.4463 1.040977,2.50523 2.460355,2.50523 1.413395,0 2.47232,-1.10828 2.476805,-2.58898 0.0045,-1.44032 -0.990123,-2.491762 -2.366126,-2.499249 z M 73.525087,18.892004 c 1.18456,-0.01945 2.244979,-1.058925 2.267414,-2.224041 0.02393,-1.283273 -0.996108,-2.373606 -2.240493,-2.391554 -1.284768,-0.01945 -2.233014,0.930299 -2.237499,2.241989 -0.006,1.341601 0.973671,2.394543 2.210578,2.3751 z M 70.740176,129.27138 c 1.35656,0.002 2.240493,-0.93028 2.247972,-2.37509 0.006,-1.22494 -0.816628,-2.07448 -2.013155,-2.07897 -1.289254,-0.006 -2.191135,0.9303 -2.194126,2.27491 -0.003,1.34309 0.744837,2.17618 1.957813,2.17915 z m 35.340854,-2.8507 c 0.0194,-1.31618 -0.81364,-2.23152 -2.03559,-2.239 -1.2429,-0.008 -2.22554,0.97518 -2.20609,2.2046 0.0194,1.23541 0.89739,2.14925 2.067,2.15225 1.27131,0.002 2.15523,-0.85851 2.17468,-2.11785 z m -1.24887,-84.372937 c 0.004,-1.199516 -0.8256,-2.068491 -1.95483,-2.047551 -1.19503,0.02093 -2.21356,1.024523 -2.19861,2.165708 0.0164,1.220455 0.84654,2.035589 2.06699,2.0311 1.31169,-0.0045 2.08196,-0.798679 2.08645,-2.149257 z m 10.3619,38.173621 c 1.2369,0.01495 2.10887,-0.845046 2.11635,-2.081952 0.007,-1.198021 -0.85403,-2.092424 -2.02662,-2.105885 -1.22044,-0.01346 -2.08344,0.809151 -2.09691,1.998197 -0.0135,1.245881 0.83907,2.176179 2.00718,2.18964 z"
       style="fill:#000000;stroke-width:0px"
       id="path1" /></g></svg>
