<svg xmlns="http://www.w3.org/2000/svg" xml:space="preserve" viewBox="0 0 632.42 525.31"><defs><path id="a" d="M111.54 389.4h621.83v243.98H111.54z"/></defs><path d="M439.95 269.99v253.99h192.47v-254zm9.16 7.92h174.14v238.14H449.12zm169.56 3.98H453.7v230.18l164.98.01zm-41.14 7.45c.01 37.42.85 75.8.02 112.78-40.1-56.73-81.44-74.95-81.29-111.91zm-89.57.33c0 13.99 3.72 26.08 10.61 36 26.28 37.34 65.21 60.97 84.97 103.07 1.68 3.22 2.17 4.16 3.06 0v-138.9h22.9l.01 214.3H495.14L495 371.72c43.24 40.6 73.03 77.61 78.73 132.16l-17.6.27h25.89c-2.6-18.95-6.67-38.34-16.17-56.05-17.87-33.5-44.73-63.59-75.86-90.33-.53-.24-1-.37-1.4-.4l-.4.01c-2.16.22-2.53 3.61-2.4 7.87l.17 139.48-23.85-.57c.43-71.07 1.9-140 .76-214.32zm86.75 2.74-75.53.09c2.76 36.44 44.77 57.79 75.69 101.65 1.14-32.88-.15-84.79-.16-101.74zm-43.27 4.5s1.97.18 2.89.5c2.4.82 1.98 4.25 1.98 4.25s-4.02 8.16-6.43 12.33c-1.88 4.76-2.91 4.95-1.16 8.63l-.13-.17.14.2.53.51 4.1 5.34c.4.45.73.8 1.1 1.23 5.63-9.36 10.58-18.32 14.38-32.62 1.76 1.72 5.3 3.22 3.4 9.7-1.53 3.06-3.38 8.75-5.05 11.78 5.5-.78 5.6-1.37 12.28-.92 1.44.1 10.34 1.3 10.78 2.22-.14 4.76-1.66 3.79-3.39 4.01-5.13-.5-8.56-1.58-13.7-.49-3.7.49-7.75 1.26-9.7 3.73-.72.7-1.82 2.72-1.99 2.87-.96 1.58-1.35 2.03-2.61 4.05 5.7 6.07 10.17 9.14 18.53 10.45l5.82-.34c4.81 0 7.03-.15 7.03-.15l1.72 2.97-1.73 2.98-14.67.7c7 12.5 19.66 20.95 15.27 28.61-26.9-29.13-34.3-37.74-43-48.49-11.34-12.76-15.88-22.7-20.72-31.01l-1.55-3.77c8.96-.02 8.87 5.02 17.52 17.85zm41.07-1.92.2 10.9s-2.26-.8-3.56-2.5c-1.44-1.7-4.05-4.07-4.76-5.6-.17-1.27-.2-2.73-.2-2.73zm-12.85 10.32c1.64-.07 3.42 1.6 4.79 4.63 0 0 .04 2.25-.66 3.09a.79.79 0 0 1-.62.3c-1.33 0-5.71-.07-6.94-1.14-1.22-1.06-.11-4.49 1.86-6.2a2.56 2.56 0 0 1 1.57-.68zm12.2 25.15-1.6 3.9s-4.25 1.46-5.18 1.27c-.93-.2-4.48.45-5.3.24-.81-.2-4.94-.94-6.87-1.14-3.72-.32-5.7 1.22-7.18.89.07-1.25 1.74-3.47 3.23-4.15 1.5-.67 5.61-.98 6.85-.98 1.24 0 10.12 1.5 11.97.98a38.6 38.6 0 0 0 3.9-1.4zm-74.48 47.64.55 123.44 72.96.26c-5.03-49.69-34.41-87.04-71.56-121.91zm4.37 9.44c1.62.03 4.54 1.5 6.75 10.55.77 3.13-6.38-2.21-6.38-2.21l-1.56-8.07s.46-.29 1.2-.27zm.26 12.9c10.94 4.84 1.32 7.21 11.58 16.8 2.11-3.95 4.1-6.44 5.19-11.45l4.1 1.8 1.72 2.96s-2.18 3.64-4.69 7.98l.11-.13c-3.44 5.97-2.09 8.38.33 12.51l-.07-.07 2.76 4.78c7.32-12.32 4.38-11.35 13.22-11.38-6.04 8.06-11.02 17.75-16.35 28.7l.11-.14c-3.44 5.96-2.09 8.38.33 12.51l-.2-.29 3.27 5.66 3.43 5.95 2.76-4.78-.07.08c2.42-4.14 3.77-6.55.33-12.51l.08.08c-1.8-3.12-2.33-3.39-2.48-3.3l1.65-2.84h3.44l4.22 6.08c7.33-12.32 4.39-11.36 13.22-11.38-8.68 12.32-12.45 17.8-16.33 28.66l.1-.1c-3.44 5.95-2.09 8.37.33 12.5l-.14-.2 3.2 5.57c6.54-9.21 11.46-17.46 17.2-29.76 4.39 7.66 3.56 5.35-3.45 17.86 7.01 7.97-.62 1.52-7.2 12.51a50.57 50.57 0 0 1-3.6 5.07l-5.22-.5-1.53-.44-2.8-4.29.06.16c-2.35-4.17-3.08-5.65-10.67-6.54l.15-.02h-6.72s-1.6-1.9-1.72-2.98c-.12-1.08-1.96-2.24.94-2.97 2.91-.74 10.84.06 10.82 0-5.87-14.91-12.36-23.46-21.79-38.76 8.79.19 3.32-.1 11.48 8.99l2.84-4.93-.16.22c2.42-4.13 3.77-6.55.33-12.5l.11.13c-7.45-17.93-15.64-17.49-14.22-35.3Zm3.05 30.6c1.62-.02 3.38 1.66 4.72 4.64 0 0 .04 2.24-.66 3.08a.79.79 0 0 1-.61.31c-1.34 0-5.72-.08-6.95-1.14-1.22-1.07-.11-4.5 1.86-6.21a2.54 2.54 0 0 1 1.64-.68zm33.71 6.73s2.45.69 3.13 1.72c.16.24.23.5.14.77-.43 1.45-1.94 6.18-3.5 7.17-1.55.98-4.9-1.34-6.13-4.04-1.23-2.7 1.39-4.95 6.36-5.62zm-31 30.02c1.61-.02 3.36 1.66 4.7 4.64 0 0 .05 2.24-.65 3.08a.79.79 0 0 1-.62.31c-1.33 0-5.71-.08-6.94-1.14-1.22-1.07-.11-4.5 1.86-6.21a2.54 2.54 0 0 1 1.64-.68zm57.46 18.58c1 4.52 1.55 8.94 1.43 13.2-5.31-.07-13.74 1.15-14.45-1.21 0 0 5.67-2.88 10.55-6.16zm-64.42 3.45s2.01 1.95 1.97 2.69c-.06 1.28 1.49 5 5.29 4.94 1.37-.03 5.17 2.09 5.17 2.09l-12.72-.24z"/><path d="M412.22 269.99H219.97l-.76 254h193.23l-.22-254zm-183.1 7.91h173.95l.01 237.87H229.13zm9.84 7.92-2.06 221.43c29.78.35 59.53.97 89.3.28 23.08-.17 46.16-.14 69.24-.13-.09-73.6.94-147.21 1.15-220.82l-157.63-.76zm6.57 7.55 34.68.1c-13.22 9.28-24.58 20.85-34.65 33.41.1-11.17.27-22.34-.03-33.51zm114.1 1.2c2.96.01 8.4.8 11.33.71 6.08.4 12.16.22 18.24.26.4 12.1.5 28.47.22 40.58-9.44-13.02-20.83-32.38-34.83-41.09a23.42 23.42 0 0 1 5.05-.45zm-47.58 1.48h.35c18.08.55 36.5 6.15 51.02 17.08 17.86 18.6 22.26 45.5 24.03 70.24 1.45 30.81-5.27 62.79-22.3 88.78-9.29 14.1-25 23.56-41.98 24.09-16.1.98-33.37-2.07-45.26-13.84-14.76-13.65-23.2-32.63-29.1-51.5-3.32-32.94-6.95-68.3 7.63-99.22 7.41-13.9 19.89-25.16 34.08-31.79a60.6 60.6 0 0 1 21.53-3.84zm-43.6.22-19.27.37-.15 19.89c4.39-6.93 19.18-17.11 19.41-20.26zm96.17.63c-.93 0-1.86.02-2.8.06 9.59 4.39 21.87 27.55 25.52 29.58-.06-8.11-.69-20.46-.74-28.57-6.52.25-15.47-1.06-21.98-1.07zm-110.14 1.56h.08c.85.09 1.6 1.39 2.33 1.74A6.35 6.35 0 0 1 259 302l-1.1 3.53s-7 1.65-6.24-1.47c1.07-4.39 2-5.6 2.82-5.6zm124.88 2.56c1.55 0 3.4 1.03 4.85 6.97.76 3.12-6.37-.22-6.37-.22l-1.78-6.23s.46-.28 1.2-.27c.5.01 1.15-.21 1.88-.25a3.73 3.73 0 0 1 .22 0zm-63.54 20.1c-19.94 0-38.34 14.74-42.96 34.14-6.71 22.86-3.97 47.36.68 70.36 4.22 16.56 10.23 36.41 27.84 43.03 13.3 8.63 30.98 1.27 40.1-10.17 21.03-23.52 24.93-57.32 21.89-87.55-1.21-13.3-3.82-27.38-14.64-36.4-8.6-8.34-20.39-13.5-32.44-13.4h-.47zm-4.22 10.42a28.24 28.24 0 0 1 2.17.08c20.07-.6 40.97 14.73 41.57 35.78 2.61 26.36 2.11 55.46-13.72 77.96-7.5 10.3-19.71 19-33.03 15.74-13.03-3.5-19.08-17.9-24.56-29-8.86-22.86-9.47-48.47-4.36-72.25 4.59-14.3 15.93-28.25 31.93-28.3zm2.63 3.4c-16.39.11-28.13 14.96-31.32 29.91-8.02 30.25-2.52 66.6 21.37 88.43 7.64 8.24 20.9 4.76 27.57-2.94 8.87-5.7 12.65-15.62 15.64-25.3 7.74-24.75 8.39-53.07-3.75-76.53-8.44-6.9-18.19-13.5-29.51-13.56zm-1.06 3.69c1.87-.05 2.73-.27 3.87.81 1.26 1.21 1.72.46-.2 3.53-2.12 3.36-2.9 3.57-5.06 1.38-2.12-2.14-1.72-3.4-.97-4.76.4-.72 1-.92 2.36-.96zm13.66 6.45c-1.15 3.03-3.84 8.63-4.17 14.1.57 3.73.83 4.75 2.69 7.7a35.53 35.53 0 0 1 4.66-8.73c1.29-.2 4.29-.33 5.16-.54 1.24 1.01.6 1.2 1.06 2.32-2.58 3.2-5.44 9.15-7.39 13.5.6 3.82 3.48 6.63 5.5 9.81-1.1 2.98-4.55 6.49-5.81 8.56-.72-4.06-2.95-10.6-5.85-17.66-1.9-4.64-4.04-8.81-7.27-12.22-6.24-6.56-11.17-10-15.58-11.58.86-1.5 4.36-4.5 6.19-3.47 3.24 1.83 11.31 5.23 11.27 7.59 0 .29 1.5-3.3 2.68-6.61.65-1.8 3.43-2.83 6.86-2.77zm8.4 2.74c.52 0 .71.25.6.54-.14.35-.4.31.16 1.02.45.58.7 1.12.71 1.5.02.94-.63 3.17-.96 3.31-.17.07-.59-.08-.94-.34s-1.2-.78-1.87-1.17c-1.77-1.02-2.03-1.34-1.74-2.18.33-.98 1.71-2.06 3.24-2.54a2.95 2.95 0 0 1 .8-.14zm-40.52 7.42 3.57.15c1.4 4.28 7.6 12.55 9.76 16.67 3.53-.14 8.44.4 12.05.8 1.24 2.21 2.77 6.73 3.69 9.06-6.7-4.61-28.14-3.5-37.83-4.04 1-2.37 1.4-5.83 3.31-7.56 3.23.82 8.5 1.76 11.64 1.45-1.89-3.02-6.94-10.27-8.1-13.28.38-1.54 1.2-2.3 1.91-3.25zm50.91 10.3c1.35 2 2.17 6.73 2.71 9.22-1.67 2.57-7.13 10.34-8.42 13.68l8.8-.34.75 3.42a7.24 7.24 0 0 1-1.28 3.23c-4.2-.23-7.32-.59-11.51.55-2.66 2.84-4.05 6.5-5.77 9.5-2.35 1.36-7.15-.01-9.53-.21l.15-.37c6.37-3.9 18.68-27.27 24.1-38.67zm-40.18 14.63c1.78 0 4.48.12 8.62.44-6.32 3.6-8.33 5.88-10.52 9.03-5.98 8.57-11.88 18.53-15.57 26.25a12.98 12.98 0 0 1-2.62-9c1.5-2.63 5.16-7.03 6.78-10.3-3.4-.42-5.37-.3-8.27 0a5.06 5.06 0 0 1-.8-3.07l.44-4.75c4.25-.32 7.73.9 11.79 1.24 2.56-2.9 3.88-5.92 5.74-9.19 1.3.07-.15-.66 4.4-.65zm-.65 11.69c1.01 10.8 11.6 29.52 19.33 40.28-2.17.86-6.87.37-9.37-1.9-1.45-3.06-5.99-7.83-7.95-10.84-2.46 2.96-3.62 5.35-5 8.43-1.32 1.79-3.33 4.33-4.65 6.75-.88-1.11-3.24-3.38-3.48-4.5 2.03-4.03 7.32-12.8 9.18-17.74.02-3.77-1.5-9.18-3.33-12.5.9-2.48 2.6-4.58 4.11-6.66zm4.88 8.76 2.12 1.09c6.99 5.75 15.85 6.26 25.44 6.54 2.72.07 8.7.68 11.21.55-.94 2.49-.73 4.06-2.49 6.07-2.94.74-10.23-.86-13.38-1.2l7.12 12.9c0 1.26-1.26 3.35-2.14 4.12l-2.48 1.22c-1.72-4.42-6.31-14.26-9.5-18.46-3.44-.04-7.14-1.45-11.26-2.59a49.64 49.64 0 0 1-4.64-10.24zm25.78 36.3c.26 0 .42.03.43.07.03.14-.55 1.44-1.3 2.89-1.7 3.3-4.3 6.5-5.53 6.83-.84.22-1.06-.2-1.96-3.59l.24-3.46 3.62-1.65c1.89-.86 3.7-1.09 4.5-1.09zm-36.44.52a27.5 27.5 0 0 1 2.84 1.6c2.8 1.77 3.7 1.74 7.44 3.03 3.7 1.27 4.14 1.53 4.12 2.45a9.81 9.81 0 0 1-1.72 4.2c-.54.66-1.17.8-2.75.65a8.08 8.08 0 0 1-6.54-4.73c-.88-1.9-4-7.14-3.39-7.2zm22.45 8.98c.51.2 1.32 1.33 1.65 1.74 1.35 4.96-2.07 4.96-4.88 3.43-1.76-1.01-1.1-1.65-.83-2.5.33-.97 1.72-2.05 3.25-2.53a2.95 2.95 0 0 1 .8-.14zm65.97 2.4s.23 14.6.51 18.68c.53.61.23 30.52.23 30.52l-42.66 1.7c12.9-.33 43.68-42.52 41.92-50.9zm-141.37 3.31c5.23 10.2 9.89 21.02 17.79 29.73 3.34 6.37 22.56 18.53 24.14 16.82 0 0-31.62.58-42.07.31-1.02-15.54.02-31.27.14-46.86zm139.52 6.74c1.09 3.74-23.66 38.25-30.15 38.58l29.9-1.52c.47-8.99.25-36.1.25-37.06zm-137.05 3.57.4 33.4c6.92-.3 23.9-.14 23.9-.14-11.07-9.78-18.81-20.5-24.3-33.26zm130.56 17.72h.14c.8 0 1.48.08 1.84.1.74.02 1.2.26 1.2.26l-1.56 8.07c1.42 1.73-5.18 5.62-6.39 2.22-3.22-9.07 1.18-10.5 4.34-10.64h.43zm-123.6.24c1.3-.02 2.8 1.06 4.1 5.96.4 1.45-.95 2.93-.5 5.14.76 3.68-6.6-1.38-6.38-2.22l-1.1-7.82s.47-.28 1.2-.26c.6 0 1.52-.72 2.56-.8h.12zm-63.25-210.41H0v253.99h192.48l-.23-254zM9.15 277.9h173.94l.01 237.87H9.16zm7.94 7.58c-.73 32.71-.79 65.42-.37 98.13-.65 41.07 1.15 82.12.99 123.19 52.75.03 105.48 2.55 158.24 1.94.9-74.3 1.54-148.61.97-222.91l-159.83-.35zm84.74 8.35c25.71-.01 50.32 15.8 62.45 38.23-5.26 7.32-16.12 22.77-22.6 9.13-16.02-16.54-42.17-24.98-63.78-14.73-15.23 8.98-27.57 24.14-31.2 41.62-3.1 20.73 3.57 41.94 14.2 59.58 20.7 30.95 59.09 45.41 95.27 45.01-4.07 10.3-9.18 27.97-21.96 27.58-38.8-1.27-77.45-22.61-95.25-57.8-16.57-27.31-23-61.59-12.63-92.32 6.37-22.76 25.32-40.32 46.15-50.24a72.59 72.59 0 0 1 29.35-6.06zm35.89 0 31.5.2c-.53 8.87 2.02 24.37.15 29.22-8.07-12.14-19.84-21.17-31.65-29.42zm-77.13.26c-16.17 10.66-28.88 25.93-38.92 42.33v-42.08l38.92-.25zm85.28 2.3c7.48 3.52 18.2 17.23 21.35 17.34l-.84-17.08-20.5-.26zm-93.44.52-27.73.25c.72 7.97-.9 24.95 1.07 27.81 6.08-11.75 16.46-20.05 26.66-28.06zm107.47 2.2c.78-.06 2.88 1.4 3.56 2.45 1.3 2.06-2.56 4.48-4.5 2.82-.86-.74-.87-1.27-.1-3.47.33-.98.8-1.79 1.04-1.8zm-119.28 1c.74 0 1.22.05 1.27.17.05.12-.74.84-1.76 1.6a51.99 51.99 0 0 0-4.95 4.66c-1.71 1.8-3.4 3.4-3.77 3.54-1.52.58-4.5-3.57-3.72-5.16.15-.3.78-1.12 1.4-1.83a8.9 8.9 0 0 1 2.8-1.97c1.17-.48 6.1-.99 8.58-1h.15zm61.25 31.13c13.02 0 25.18 6.73 33.08 16.98 5.65 4.28 10.22 18.82 16.62 8.04 5.5-3.84 15.38-16.85 19.47-14.06.46 34.76 1.15 69.51.97 104.27.55 17.98-.37 35.95-.41 53.93-5.84-.1-11.69-.18-17.53-.27 4.43-11.92 14.16-22.2 13.48-35.64-20 1.15-40.98 1.74-59.34-7.64-19.93-9.96-40.54-24.3-48.09-46.27-6.74-19.2-9.39-42.22 2.6-59.95 7.9-12.8 22.46-19.53 37.25-19.34a37.63 37.63 0 0 1 1.9-.05zm-2.14 3.89c-19.78 0-38.83 15.4-40.46 35.63-2.41 22.48 4.14 47.06 21.38 62.47 22.45 21.78 56.23 31.53 86.8 25 .84-36.56-.96-73.13.33-109.69-6.2-.66-16.61 17.57-23.98 15.56-10.22-12.05-20.43-27.22-37.7-28.64a44.53 44.53 0 0 0-6.37-.33zm8.46 5.26c.26 0 .54.02.82.1 2.19.53 2.28-.69 4.1 2.49 1.79 3.11 1.5 4.09-1.54 5.12-3.16 1.08-6.08 1.05-6.78-.22-1.42-2.6.29-7.45 3.4-7.5zm11.35 9.18h.1c3.06.28 5.31.99-1.34 9.46-2.3 4.72-4.83 10.95-5.63 13.84l-1.46 5.26 2.48.33c1.36.19 4.37-.27 6.67-1.02l4.2-1.35 3.17-6.5c3.4-7 4.82-8.22 7.07-6.08 1.07 1.02.9 1.65-1.92 7.46-1.7 3.5-2.9 6.44-2.67 6.55.23.11 3.33.29 6.9.4 6.85.19 7.73.61 9.56 4.6l1.14 2.48-3.45-.62c-1.9-.35-9.61-2.03-17.07-1.4-7.27-.66-17.36-.52-21.25 3.96-2.65 2.14-6.71 6.54-9.49 8.6 5.31 1.58 5.65 1.09 11.54 4.28 1.27.7 8.86 5.5 8.87 6.51-2.1 4.28-3.08 2.76-4.75 2.24-4.45-2.6-7.12-5-12.25-6.16-3.56-1.1-11.53-.52-14.33.91-.95.34-2.8 1.72-3.01 1.78-1.53 1.03-1.72 1.98-3.71 3.29 9.62 16.9 9.8 11.56 20.12 14.24 4 .24 6.73.7 9.56 1.07 2.36-.73 4.97-2.44 8.3-5.42a39.78 39.78 0 0 1 4.4-3.52c1.02-.55 1.06-.48.73 1.31-.21 1.13 2.52 1.84 2.87 2.26.45.55-2.64 1.41-4.68 2.74-2.45 1.58-5.04 4.2-4.6 4.64.5.5 9.22 3.33 10.3 3.34 3.21.03 9.95-4.59 18.86-12.93 8.07-7.55 10.06-8.72 16.52-9.74 3.08-.48 3.19-.36 2.1 2.2-.93 2.2-2.1 3.15-5.36 4.33-2.73.98-7.67 5.4-7.67 6.84 0 .74 4.35 3.9 7.07 5.14l1.42.65-1.87 1.54c-1.06.87-1.86 2.01-1.86 2.65 0 1.07-.06 1.06-1.45-.27-1.9-1.81-6.85-4.1-8.87-4.08-2.35.01-5.14 1.51-8.2 4.4-1.5 1.41-2.64 2.63-2.55 2.7.1.08 1.77.9 3.72 1.82 1.95.92 4.28 2.3 5.18 3.04 1.35 1.14 1.5 1.5.95 2.17-.37.45-.67 2.15-.67 3.8v3l-5.56-3.76c-7.85-5.3-18.92-10.4-28.28-13.1-4.2-.18-7.63.31-14.71-1.31 5.33 10.85 20.82 6.68 11.98 15.38a78.38 78.38 0 0 1-27.27-21.42 78.05 78.05 0 0 1-14.3-26.88c-2.1-7.06-2.47-18.93.73-29.38 3.83-12.5 13.57-24.07 21.54-25.03l-3.59 7.76s-7.3 8.8-7.78 10.47c-1.31 4.66-8.2 11.54-5.78 23.36 4.37.97 16.62-8.07 22.88-13.19 0 0 .27 2.67.97 3.34 1 2.3-.58 4.08-.58 4.08s-6.81 4.71-10.74 7.5c-3.42 2.34-11.56 5.37-11.08 8.88-1.42 4.1 1.29 6.81 3.22 8.93 8.43-5.75 21.2-12.9 30.26-23.06l.48-1.46c3.23-9.5 3.06-11.43-1.55-18.38-1.46-2.2-6.62-5.19-5.44-6.02 2.88-2.03 2.3-2.77 4.2-2.85 1.25-.06 2.3 1 4.94 4.94a98.33 98.33 0 0 0 4.03 5.73c.51.56 1.4-.74 3.62-5.31 2.24-4.6 3.09-5.88 4.02-5.95h.1zm-32.68 4.4c.67 0 1.55.55 3.36 1.73 3.25 2.12 3.52 3.1 1.42 5.15-2.18 2.13-4.7 3.09-6.06 2.3-2.13-1.25-2.31-6.08-.3-8.16.64-.67 1.04-1.03 1.58-1.03zm71.77 9.75c.34 0 .6.05.71.15.73.64.82 5.74.14 6.86-1.63 2.65-10.41 5.24-11.26 3.32-.46-1.06 1.73-5.77 3.83-7.94 1.21-1.26 4.93-2.4 6.58-2.4zm-41.59 24.37c.18 0 .3.26.3.84 0 .26.54.03.82.1 2.19.53 2.12-.58 4.1 2.5 2.38 3.69.54 2.41-2.5 3.45-3.16 1.08-3.66 1.06-4.36-.2-1.15-2.12.85-6.7 1.64-6.69zm38.32 3.2c.9 0 1.42.37 1.9 1.11.94 1.44 1.99 5.89 1.62 6.85-.15.38-1.3 1.35-2.57 2.15-2.55 1.62-5.19 1.85-8.33.72-3.06-1.09-5.54-2.83-8.12-5.7-3.2-3.57-.33-5.28 2.76-3.69 2.58 1.34 3.06 2 7.63.14 2.56-1.05 4.09-1.56 5.11-1.57zm-23.94 10.95c.23 0 .37.27.37.9 3.65 4.23 3.48.1 4.93 2.59 1.78 3.12 1.49 4.09-1.55 5.13-3.16 1.08-4.86-1.2-5.55-2.47-1.14-2.08.92-6.15 1.8-6.15zm-31.81 5.41c.23 0 .46.01.68.03 1.98.2 6.45 2.81 6.3 3.68-.17.88-4.33 4.63-5.6 4.77-2.98.34-9.47-4.53-8.3-6.22.59-.86 4.15-2.26 6.92-2.26zm62.87 28.25c.32.02.43 2.45.44 9.03l.01 9.92-6.17 2-12.37-.97 7.01-4.4c2.95-1.84 3.78-4.68 5.43-7.4a62 62 0 0 1 3.36-5 34.87 34.87 0 0 0 2.12-3.02c.05-.1.1-.15.15-.16h.02zm-43.36 1.35c.7-.01 1.1.72 2.11 2.9 1.46 3.12 1.48 5.23-1 6.27-2.59 1.08-5.16-.15-5.8-1.36-1.03-1.92 1.01-6.3 3.45-7.4.53-.25.92-.4 1.24-.41zm-94.74.3C34.74 450.8 43.08 465.7 54.6 478c10.62 9.59 23.5 16.29 36.57 21.87l-65.54-1.28c-.45-20.41-.28-40.91-1.25-61.04zm.73 3.83.46 14.82zm2.18 6.22c-.06.06.13 10.54.42 23.3l.53 24.18.01.98 18.05.36c9.93.2 21.26.38 25.17.41l7.1.07-4.38-2.42c-10.27-5.64-18.31-11.45-24.62-17.76-4.56-4.58-7.23-8-16.44-21.07-3.16-4.48-5.78-8.1-5.84-8.05zm2.63 7.66 14.4 20.26c6.8 7.12 14.3 13.74 22.1 19.43l-1.84.33c-3.07.55-3.66-.1-6.81-.27-1.35-.82-4.38-3.53-6.01-4.8-4.35-3.4-6.83-6.2-8.12-6.87-1.04-.54-1.36-.62-1.58.36a31.95 31.95 0 0 1-2.09 6.8c-1.68 4.22-1.86 3.97-3.98 3.97-.99 0-4.45-.16-4.45-.35 0-.2.3-1.13.68-2.09 1.04-2.66 4.55-11.57 4.56-14.43 0-2.29-.14-2.78-1.4-5.03-.78-1.37-1.39-3.44-2.38-4.56-3.23-3.66-2.61-4.05-2.87-8.94zm139.23 20.5-10.65 21.8c3.12-1.03 10.08 1.75 10.21-2.24zM632.42.11H440.16v253.7l192.26.02V.1zm-183.1 7.92h173.94l.01 237.87-173.94-.01zm4.76 4.57 1.83 227.02 163.41.27-1.4-227.22-163.84-.07zm153.82 7.42s-.03 10.52-.15 10.9c-.42 32.34-15.65 63.38-37.76 86.47-2.06 3.12-6.71 6.53-6.71 6.53s-2.96-2.93-4.33-7.17l-8.18-14.38c20.23-21.24 30.6-38.8 32.28-64.79.36-5 .6-12.32.42-17.31zm-34.27.37c.79 14.42-1.17 29.13-5.22 42.98-3.96 11.21-12.33 25.56-22.86 29.81-15.46-21.96-27.13-47.45-38.67-71.58Zm-77.12 1.07s7.75 16.42 11.95 26.13c13.91 29.51 31.86 56.88 47.4 85.42l55.7 98.38h-31.99c-15.64-27.53-29.95-55.82-46.23-82.99-12.25 2.9-18.96 14.78-27.17 23.25-13.03 17.38-18.62 39.52-19.04 60.99l-22.78-.3c-.17-42.07 20.86-83.61 54.58-108.69C501.5 89.05 480.68 56.26 463 21.78c9.29-.11 33.5-.32 33.5-.32zm75.26 1.46-60.53.99c9.57 23.1 21 45.56 35.57 65.94 20.84-15.01 24.23-43.17 24.96-66.93zm-3.05 2c-1.65 17.54-9.65 15.7-20.05 31.8l.13-.1c-4.41 5.19-3.5 7.77-1.82 12.2l-.12-.24 1.95 5.28c5.56-4.3 6.07-9.18 6.36-7.88.56 2.5 1.77 1.4 5.52.86-1.2 4-10.25 9.9-10.14 16.04.04 2.64-4.11 3.08-4.04 4.36-3.79-16.61-10.57-30.91-20.1-42.36 3.27 2.17 8.44 1.52 9.06-.47.91 1.11 3.16 2.33 6.52 11.02l3.53-4.16-.08.06c4.2-3.1 3.75-8.46 2.09-10.91-1.73-4.66-5.1-6.05-5.1-6.05 3.25.16 3 .17 6.47-4.26 1.96 4.8 3.84 6.99 5.54 9.12 11.74-7.54 2.68-11.51 14.28-14.3zm-33.55.05s-9.45 3.32-13.14 7.9l-2.8 4.98a54.06 54.06 0 0 1-5.27-12.19c6.73.34 18.24-.29 21.2-.7zm7.33.73c1.04-.02 2.6.9 3.4 2.08.25.37.35.76.32 1.14-.1 1.14-1.41 2.22-3.62 2.9 0 0-1.56-.17-2.07-.73-.12-.13-2.25-1.34-2.22-1.5.12-.93.42-4.27 3.46-3.64.24.05.44-.25.73-.25zm-10.31 10.43s.02 1.25.46 1.92c.1.15.14.32.09.5-.28.93-1.26 3.99-2.26 4.62-1 .64-4.1-.8-4.89-2.54-.79-1.75 1.03-4 4.24-4.43zm-70.44 4.86c15.79 26.3 31.4 52.72 46 79.7-19.62 18.1-33.23 41.83-45.84 67.13zm2.42 8.42c.27 39.58.06 88.28.33 127.86 7.64-14 16.47-33.9 40.14-57.37-13.9-23.18-27.22-50.21-40.47-70.49zm1.66 6.24s2.42 4.5 4.43 8.46C477.08 75.23 484 90.1 491.5 102.9c-2.66-.12-8.28-4.9-8.28-4.9-2.2-3.14-3.53-5.73-5.62-8.94-2.21 4-4.07 10.1-4.07 10.1-1.32 1.97-6 5.88-6.05 5.67.59-7.42 4.11-14.8 4.66-22.14 0 0 .58-2.37.02-3.57-.3-.95-1.7-3.09-1.75-3.3a229.5 229.5 0 0 0-4.58-6.88c-.4-6.3-.02-11.4-.02-11.4zm92.57 1.84c.44 0 1.5.48 1.92.6a7.99 7.99 0 0 1 1.97 1.67c.68.92-.86 2.95-2.1 4.9 0 0-1.29.88-2.04.8a.55.55 0 0 1-.42-.24c-.5-.78-2.14-3.35-2-4.47.12-.86 1.21-3.24 2.67-3.26zm52.87 16.33c.31 46.11.6 92.24.98 138.37-13.17-22.97-27-45.58-39.58-68.87-2.84-3-4.58-8.95-4.58-8.95s11.84-9.96 15.51-15.76c12.28-12.79 21.21-28.35 27.67-44.79zm-2.33 11.6c-6.64 20.26-23.46 34.42-37.37 49.71 11.2 22.98 24.58 44.77 38.1 66.43zm-2.65 13.6c.67 1.98.7 5.04.29 7.08-.38 1.92-1.75 3.37-3.03 4.84-.08.82-1.2 2.22-1.63 3.03-1.72 2.46-.71 12.45.23 15.1 1.5 2.6 5.05 11.86 5.05 11.86s-3.83-.5-4.7-1.65c-2.22-2.18-4.03-5.8-4.03-5.8-2.22-4.13-1.63-6.82-2.98-10.77-2.94 2.73-7.68 9.53-10.62 10.83l-7.8.38c10.14-6.98 21.6-21.93 28.31-33.3zm-116.5 7.18c.93.02 1.71.31 2.19 1.08 0 0 2.87 5.24.78 5.98.47.56-4.26 3.2-4.69 3.1-1.25-.26-6.7-.73-8.12-1.8-7.26-4.26-9.16-8.12-7.8-7.35 3.82 2.15 6.71 2.2 9.6.41h.08c1.13 0 5.2-1.46 7.97-1.42zm-22.54 3.91s3.47 2.93 4.42 4.2c2.44 2.39 3.67 6.88 3.67 6.88 1.47 4.88 1.71 8.36 3.19 12.69 1.91-3.78 8.42-11.1 12.35-12.1l9.12-2c-10.42 5.93-23.62 25.97-31.48 36.93-.74-2.17-1.18-4.7-.74-6.94.42-2.1 1.34-2.78 2.75-4.39.09-.2 1.84-2.05 2.3-2.94 1.9-2.7 1.3-6.2.27-9.09-.1-.48-5.85-23.24-5.85-23.24zm118.98 27.7c1.5 0 5.37 0 6.58.91 6.63 3.89 8.84 9.17 7.6 8.47-3.5-1.97-6.6-2.8-9.25-1.17h-.06c-1.04.01-2.77 1.11-5.3 1.08l-1.1-.2c-.84 0-1.68-.98-2.11-1.68 0 0-3.39-4.64-1.48-5.3 2.61-2.79 3.62-1.65 5.12-2.12zM606 149.1l.02.01c-.54 6.81-3.13 13.53-3.64 20.27 0 0-.53 2.17-.02 3.27.28.88.92 2.9.97 3.1 1.01 1.68 4.2 6.31 4.2 6.31.36 5.8-.2 10.06-.2 10.06s-2.86-4.04-4.7-7.66c-6.09-10.25-12.15-22.62-20.9-34-1.5-1.95 9.83 4.92 9.83 4.92 2.02 2.88 3.25 5.26 5.16 8.21 2.04-3.67 3.74-9.27 3.74-9.27 1.18-1.76 5.25-5.18 5.54-5.21zm-77.62 13.32c14.11 22.68 27.45 45.83 39.5 69.68l-68.5 1c-2-10.65.81-21.45 2.58-31.92 5.05-15 13.75-29.04 26.42-38.76zm.47 6.25c-17.95 11.79-24.72 34.42-25.75 54.82-.77 2.62.79 5.14 2.19 5.25 19.22.69 40.13.4 57.34.4a7244.57 7244.57 0 0 1-33.78-60.47zm-3.34 8.47c1.99 3.16 19.54 38.47 29.35 48.25-5.48.45-6.48 1.5-9.39-.74-3.03-4.9-8.25-15.05-12.15-16.18-1.76 3.93-5.5 16.23-9.4 19.08-1 .15-6.68-.97-8.38-.93 5.46-5.66 13.62-24.3 10.98-32.38-3.7-6.56-4.78-8.47-5.37-10.14-.84-3.64.43-3.92 4.36-6.96zm-9.2 14.41c3.25.04 4.1 8.95 4 10.54-2.98 7.35-6.37 6.7-10.43 18.3-.09-17.34 2.66-22.14 6.43-28.84zM412.22.11H219.97v253.7l192.26.02zm-183.1 7.92h173.95V245.9l-173.94-.01zm4.59 3.98.1 229.4 164.69.52 1.06-229.67zm70.83 7.48 22.96.45v213.52c-15.26 0-22.9.55-22.9.55zm-66.26.21 62.34.23-.42 161.35s-23.69-19.7-37.86-36.05C233.7 112.2 238.28 19.7 238.28 19.7Zm93.78.2 62.46.08s.05 9.8-.6 21.62c-7.04 2.43-17.9 8.82-23.92 12.16-8.77 4.87-38.36 35.93-38.36 35.93zm-90.8 1.9s-3.24 88.76 21.84 119.1c11.8 14.27 34.41 34.58 34.41 34.58l.55-153.23zm93.66 1.53-.3 58.51S362.19 55 366.69 51.07c2.02-1.76 15.85-9.06 23.88-11.7 1.06-10.67.38-15.9.38-15.9zm-72.62 1c-1.3 3.12-4.87 1.99-6.82 5.77-2.4 4.68-5.52 8.47-8.07 18-.76 1.76-1.38 6.45-2.25 8.5l-1.03-31.77c.8-.3 2.51-.4 4.52-.4h.2c4.6 0 13.45-.1 13.45-.1zm22.52.07h.27l2.45.16-.04 4.35c.2 6.2 5.25 20.75 4.29 41.94l.24.1-.21.17.01.13-.12-.05c-.37 3.38.96 5.65-.77 6.95-1.97-.84-8.34-4.73-10.3-5.57a7.92 7.92 0 0 0-9.78 1.07c-2.84 1.6-14.12 10.85-17.47 12.05-1.21-.67-2.75-3.83-2.39-5.69 0-1.83 2.97-4.17 4.4-4.94 3.03-2.28 10.13-6.83 13.16-9.1-2.93-3.9-10.03-10.06-13.5-12.7-1.5-1.86 2.42-5.92 2-8.15 8.87 5.69 8.43 8.35 18.06 14.51 2.49.99 9.85 4.55 9.6 2.56.53-3.15-.12-12.4-7.42-13-2.81-1.67-10.6-6.53-13.3-8.84.5-3.5 3.39-3.13 5.9-3.58 3.48 1.48 8.56 5.08 12.04 6.56-.24-4.32-2.15-10.02-1.6-14.34.83-2.17 1.66-4.62 4.48-4.6zm52.5.63 36.63 18.86c-2.33 1.3-4.85 3.89-7.75 2.66-3.52-1.51-6.77-3.6-10.24-5.23.22 4.57 1.48 8.4.05 13.83a3.76 3.76 0 0 1-2.54 2.6c-.85.2-2.12-.1-2.47-.86-.7-1.52-.52-5.94-.63-8.12-.07-1.1-.12-3.21-.2-3.7-.1-3.07-.84-6.54-3.59-8.36-.76-.65-3.07-1.73-3.23-1.88-1.9-.98-3.78-1.25-4.94-3.04-1.23-1.93-.98-4.47-1.09-6.76zm29.05 1.73s16.23.23 19.9.2c.53 0 .86.02.94.05.61.25 0 7.94 0 7.94-10.4 2.17-12.2-3.4-20.84-8.2zm-27.55 22.69s9.26 12.27 4.93 17.75c-1.7 2.16-4.88 6.13-4.88 6.13zm56.32 2.02L393.92 234l-62.21.16S330.69 121.9 346.33 95.1c8.73-14.94 22.45-28.1 48.81-43.63zm-9.16.12-11.5 5.64-12.1 9.56 2.67-3.76c-.2.14-.39.24-.55.3l.55-.3c2.14-1.44 6.76-6.82 12.5-8.93 6.31-2.32 8.43-2.5 8.43-2.5zm6.78 5.64c-19.83 13.47-33.92 19.75-43.25 39.08-9.13 18.92-12 49.62-13.52 76.78-1.75 31.2-1.4 57.83-1.4 57.83l56.74.81zm-139.58 2.7c1.51-.02 3.5 1.67 5.4 4.73 0 0 .58 2.5.11 3.49-.11.23-.27.38-.51.4-1.27.12-5.46.44-6.88-.63s-1.18-4.99.28-7.08c.41-.59.93-.88 1.53-.91h.07zm133.38 12.6c.2 0 .36.08.46.31.55 1.25 2.18 6.2 1.91 8.22-.26 2.02-4.25 5.84-6.3 5.4-2.06-.43-3.16-6.25-1-11.27 0 0 4.02-2.64 4.91-2.67h.02zm-11.08 3.38a87.03 87.03 0 0 0-5.94 10.6c-3.4 6.81-4.86 15.43-.24 22.05 1.5 4.06 2.95 3.78 4.43-.38 1.87-4.93 5.56-9.35 11.4-7.85-6.54 11.48-13.29 22.93-19.78 34.37-2.27 4.6-6.5 8.7-4.56 14.3 1.25 2.75 2.17 4.07 3.7 6.81 2.95 7.08 5.09-4.17 7.53-6.7 3.1-5.82 7.8-13.12 15.43-12.23-9.74 13.6-17.6 28.4-25.94 42.85-2.27 4.43-5.82 8.02-6.3 13.23.65 3.83 3 6.3 4.7 9.67 2.58-.46 6.3-11.99 9.03-15.16 1.24-3.78 5.1 1.36 4.93 4.63-1.35 5.9-7.7 13-10.3 18.34 4.03 0 12.61 1.34 16.65 1.34 2.14-.73 2.87 2.5 2.78 3.9-.33 1.17-.23 2.98-1.02 3.36-2.21 1.06-9.78-1.01-13.23-1.44-4.63-.66-10.86.56-12.66 5.82-.73 1.14-2.13 3.67-3.1 5.33h-6.87l8.06-14c-3.03 4.14 2.84-4.1.94-6.27-4.17-10.78-10.45-20.66-16.62-30.4-2.9-2.86-1.17-3.31 1.99-2.85 5.9.47 6.58 8.07 9.81 11.84 2.67-4.57 5.28-9.26 8.02-13.7 1.68-3.17 4.3-6.04 3.16-10.56-4.45-8.34-9.81-16.24-14.38-24.55-.69-3.22-9.04-11.37-2.01-10.08 6.52-.45 7.39 7.71 10.3 11.87 2.97-5.05 5.78-10.1 8.69-15.15 2.82-3.21 3.23-9.36.52-12.56-4.65-7.27-7.09-16.47-4.48-24.9 3.37-5.64 9.64-8.75 15.36-11.53zm-103.73 5.44h.04a1 1 0 0 1 .18.03h.02c.19.05.33.15.38.34.31 1.06 1.26 4.53.64 5.95-1.01 4.16-8.33 5.76-10.24 4.95-1.9-.8.72-6.18 3.71-9.36 0 0 4.25-1.89 5.27-1.9zm11.97 3.54h.12c.81.01 1.5.23 1.73 1.27 1.28 1.27.83 2.54-.19 3.8l-5.68 9.85c4.32.28 8.76-.65 12.98.41 2.12 1.13.42 4.98 1.67 6.88-10.91-3.7-18.52-1.86-30.04-.57l2.31 6.66c4.49 3.7 9.5 4.08 13.66 4.51 4.03-.6 6.56-.4 10.09-.53.56 1.27.92 1.34.76 3.8-.46 1.74-.72 3.42-1.23 3.18-3.78 0-13.21-.88-17-.88 1.91 3.88 5.55 9.34 6.73 13.53 1.06 2.8-3.43 6.15-4.45 8.18-2.18-13.42-17.87-27.1-20.9-43.22 2.14 0 8.55-1.41 10.7-1.43 2.96-.02 9-1.52 10.64-5.47 2-2.59 3.66-7.52 6.28-9.93.56.05 1.22-.04 1.82-.04zm60.22 2.05c.07.1-9.8 12.9-10.65 35.32l.34-23.82s4.57-7.22 9.53-11.1c.34-.27.6-.4.77-.39h.01zm11.68 24.73c-.72-1.94 2.17-.4 2.3-.2.71 1.07 3.25 6.97 2.9 8.68-.34 1.71-4.14 3.22-6.8 2.85-2.67-.37-4.54-6.03-1.74-10.28 0 0 2.18-1.03 3.34-1.05zm-115.8 3.88s3.44 16.16 6.75 21.2c4.13 6.27 25.7 28.21 31.46 33.18 6.8 5.86 15.87 20.06 17.54 21.85 2.86 3.33 3.7 6.96 3.33 7.95-2-3.67-18.55-23.63-23.81-27.28-5.27-3.66-26.67-26.06-29.82-29.9-3.14-3.82-5.63-12.57-5.63-12.57zm144.29 2.65c1.51-.01 2-1.04 3.91 2.01 0 0-.95 6.87-1.41 7.87-.11.23-.27.38-.51.4-1.28.12-5.46.44-6.88-.63s-1.19-4.99.28-7.08c.41-.59 2.46-5.26 3.05-5.29.03 0 1.88 1.4 1.56 2.72zm-91.08 15.52c1.17-.04.52 11.52.42 12.57.04.07.05.4.05.94-.02 3.69-.52 15.21-.52 15.21l-1.99-1.78c-6.46-6.96-1.17-.41-8.33-8.82 2.53-3 4.6-3.12 7.58-9.51 1.41-6.34 2.28-8.59 2.8-8.6zm-54.97 15.4s26.57 23.11 38.57 36.14c11.24 12.2 23.99 18.24 23.99 48.74h-62.34zm149.82 5.26-.34 31.74s-9.3-4.78-9.57-7.81c-.49-5.37 4.68-15.47 9.91-23.93zm-146.79 1.03v75.55l56.06-.2c0-27.05-12.1-31.44-22.19-42.25-10.77-11.55-33.87-33.1-33.87-33.1zm105.8-1.4c3.66 1.6 5.62 7.11 7.65 10.2 0 0 .64 2.79.12 3.9-.12.25-.3.42-.57.45-1.42.13-6.08.49-7.66-.7-1.59-1.2-5.24-9.09-3.61-11.42 2.94-1.44 9.36-3.75 4.07-2.44zm-99.44 18.15c3.29 3.68 34.82 35.43 41.74 52.37-5.48.46-7.46 2.39-9.4-.74-1.47-2.4-2.66-6.9-5.3-10.23-2.76-3.49-6.24-6.47-8.16-7.25-.6-.24-2.4 5.25-3.5 9.5-.83 3.24-1.2 4.92-2.06 7.06-.76 1.9-1.12 3.6-2.52 3.82-1 .15-3.87.07-5.57.1.28-2.07 2.06-4.81 2.66-8.53.29-1.87 1.25-5.48 1.32-6.31.9-5.23 2.72-11.8.26-15.47-.62-1.27-3.3-5.64-3.41-5.94-1.8-2.06-5.49-5.92-6.49-7.87-.74-3.52-.85-.63.43-10.5zm.43 21.43c.55.1 1.34 1.31 2.5 3.13.49.77 1.56 3.25 1.78 5.72.24 2.6 1.64 3.4-1.16 6.88-.75.93-2 2.83-2.77 4.23l-1.4 2.53.2-4.43c.1-2.44-.5-5.24-.47-6.61.17-8.6.4-11.6 1.32-11.45zm134.4 2.53s2.02.46 2.58 1.15c.13.16 3.02 3.37 1.77 4.08-.68.4-1.16 4.4-2.44 5.05-1.28.65-5.86-2.7-6.87-4.5-1-1.8.88-5.34 4.97-5.78zm-36.16 7.28h.13c1.85.1 3.1 2.9 3.22 7.4 0 0-2.76 4.98-2.76 3.83-.23.15-.45.2-.68.1-1.21-.57-5.16-2.5-5.87-4.23-.72-1.72 2.58-5.76 5-6.87.34-.15.66-.23.96-.23zm-78.22 14.82c.82.03 2.82 1.43 3.47 2.45 1.31 2.06-2.55 4.49-4.5 2.82-.85-.74-.87-1.26-.1-3.47.34-.97.8-1.78 1.05-1.8h.08z" font-family="Kramer" font-size="21.33" font-weight="700" letter-spacing="0" style="line-height:.85;-inkscape-font-specification:&quot;Kramer Bold&quot;;text-align:center;white-space:pre;shape-inside:url(#a)" word-spacing="0"/><path d="M0 .11v254h192.47V.11zm9.17 7.93H183.3v238.14l-174.14-.01Zm169.56 3.98H13.75V242.2h164.98zm-41.15 7.44c.01 37.42.85 75.8.02 112.78C97.5 75.51 56.16 57.3 56.31 20.34Zm-89.56.33c0 14 3.7 26.08 10.6 36 26.29 37.34 65.22 60.97 84.97 103.07 1.69 3.22 2.18 4.17 3.06.01V19.96h22.91v214.31H55.2l-.14-132.44c43.24 40.6 73.03 77.62 78.72 132.17l-17.6.27h25.9c-2.61-18.95-6.68-38.35-16.18-56.06-17.86-33.5-44.73-63.58-75.85-90.32-.53-.24-1-.37-1.41-.4h-.4c-2.16.22-2.52 3.62-2.4 7.87L46 234.84l-23.86-.57c.44-71.06 1.9-140 .76-214.31Zm86.75 2.74-75.54.1C62 59.06 104 80.4 134.93 124.26c1.14-32.88-.15-84.78-.16-101.74zm-43.27 4.5s1.96.18 2.88.5c2.4.82 1.99 4.26 1.99 4.26s-4.03 8.15-6.44 12.32c-1.87 4.76-2.9 4.96-1.15 8.64l-.14-.17.15.2.52.5 4.1 5.34 1.1 1.24c5.64-9.36 10.58-18.32 14.38-32.63 1.77 1.72 5.3 3.23 3.4 9.71-1.52 3.06-3.38 8.75-5.05 11.77 5.5-.77 5.6-1.36 12.28-.91 1.44.1 10.34 1.3 10.78 2.21-.13 4.76-1.65 3.8-3.38 4.02-5.13-.51-8.56-1.58-13.7-.5-3.7.5-7.75 1.27-9.7 3.74-.73.7-1.82 2.72-2 2.86-.96 1.59-1.35 2.04-2.61 4.05 5.71 6.07 10.17 9.14 18.53 10.45l5.82-.34c4.81 0 7.03-.14 7.03-.14l1.72 2.97-1.72 2.97-14.68.7c7 12.5 17.04 17.13 12.65 24.8-26.9-29.14-31.68-33.93-40.37-44.67C76.54 48.15 72 38.21 67.16 29.9l-1.55-3.77c8.96-.02 8.87 5.03 17.52 17.86zm41.07-1.91.2 10.89s-2.26-.8-3.56-2.5c-1.44-1.7-4.06-4.07-4.77-5.59-.17-1.27-.2-2.74-.2-2.74zM119.7 35.44c1.64-.08 3.43 1.6 4.8 4.63 0 0 .03 2.24-.67 3.08a.79.79 0 0 1-.61.31c-1.34 0-5.72-.07-6.94-1.14-1.23-1.07-.12-4.5 1.85-6.2.5-.44 1.02-.66 1.57-.68zm12.21 25.15-1.6 3.89s-4.26 1.46-5.19 1.27c-.93-.19-4.48.45-5.3.25-.8-.2-4.94-.95-6.86-1.14-3.73-.33-5.7 1.21-7.18.88.06-1.25 1.74-3.47 3.23-4.14 1.48-.68 5.6-.98 6.85-.98 1.24 0 10.12 1.5 11.97.97a38.6 38.6 0 0 0 3.89-1.4zm-74.5 47.63.56 123.44 72.96.27c-5.03-49.7-34.4-87.05-71.56-121.92zm4.39 9.44c1.6.04 4.53 1.5 6.75 10.56.76 3.12-6.39-2.22-6.39-2.22l-1.56-8.07s.46-.28 1.2-.27zm.25 12.9c10.95 4.84 1.33 7.22 11.58 16.81 2.12-3.96 4.1-6.45 5.2-11.45l4.1 1.79 1.72 2.97s-2.19 3.63-4.7 7.98l.11-.13c-3.44 5.96-2.08 8.38.33 12.5l-.07-.07 2.76 4.79c7.32-12.32 4.39-11.36 13.22-11.38-6.03 8.05-11.02 17.74-16.35 28.7l.12-.15c-3.44 5.97-2.1 8.38.33 12.52l-.2-.3 3.26 5.66 3.44 5.95 2.76-4.78-.08.08c2.42-4.13 3.77-6.55.33-12.5l.08.08c-1.8-3.13-2.32-3.4-2.48-3.3l1.65-2.85h3.44l4.22 6.08c7.33-12.32 4.4-11.35 13.22-11.38-8.68 12.32-12.45 17.81-16.32 28.67l.1-.11c-3.44 5.96-2.1 8.38.32 12.5l-.14-.19 3.21 5.56c6.54-9.2 11.45-17.46 17.19-29.76 4.39 7.66 3.56 5.36-3.44 17.86 7 7.97-.62 1.53-7.2 12.52a50.57 50.57 0 0 1-3.6 5.07l-5.23-.51-1.53-.43-2.8-4.3.06.17c-2.35-4.17-3.08-5.66-10.67-6.54l.15-.03h-6.72s-1.6-1.89-1.71-2.97c-.12-1.09-1.97-2.24.94-2.98 2.9-.74 10.83.06 10.81 0-5.86-14.9-12.36-23.46-21.78-38.76 8.78.2 3.32-.1 11.47 9l2.85-4.93-.16.22c2.42-4.13 3.77-6.55.33-12.51l.1.13c-7.44-17.92-15.64-17.48-14.22-35.3zm3.06 30.6c1.62-.01 3.37 1.66 4.71 4.64 0 0 .05 2.25-.66 3.08a.79.79 0 0 1-.61.32c-1.34 0-5.72-.08-6.94-1.15-1.23-1.06-.12-4.49 1.85-6.2a2.54 2.54 0 0 1 1.65-.68zm33.7 6.74s2.46.68 3.14 1.72c.15.24.22.5.14.77-.44 1.45-1.95 6.18-3.5 7.16-1.56.98-4.91-1.33-6.14-4.03-1.22-2.7 1.4-4.96 6.37-5.62zm-31 30.02c1.62-.02 3.37 1.65 4.71 4.63 0 0 .04 2.24-.66 3.08a.79.79 0 0 1-.61.32c-1.34 0-5.72-.08-6.94-1.15-1.23-1.06-.12-4.49 1.85-6.2a2.54 2.54 0 0 1 1.65-.68zm57.46 18.58c1 4.52 1.55 8.93 1.43 13.2-5.31-.07-13.73 1.14-14.45-1.22 0 0 5.68-2.87 10.55-6.16zm-64.41 3.45s2 1.95 1.97 2.68c-.07 1.29 1.48 5.01 5.28 4.94 1.37-.02 5.17 2.1 5.17 2.1l-12.72-.24z"/></svg>