<svg xmlns="http://www.w3.org/2000/svg" xmlns:xlink="http://www.w3.org/1999/xlink" viewBox="0 0 550.416 484.317" height="516.604" width="587.11"><defs><linearGradient id="a"><stop offset="0" style="stop-color:#699ad7;stop-opacity:1"/><stop style="stop-color:#7eb1dd;stop-opacity:1" offset=".243"/><stop offset="1" style="stop-color:#7ebae4;stop-opacity:1"/></linearGradient><linearGradient id="b"><stop offset="0" style="stop-color:#415e9a;stop-opacity:1"/><stop style="stop-color:#4a6baf;stop-opacity:1" offset=".232"/><stop offset="1" style="stop-color:#5277c3;stop-opacity:1"/></linearGradient><linearGradient y2="506.188" x2="290.087" y1="351.411" x1="200.597" gradientTransform="translate(70.65 -1055.151)" gradientUnits="userSpaceOnUse" id="c" xlink:href="#a"/><linearGradient y2="937.714" x2="-496.297" y1="782.336" x1="-584.199" gradientTransform="translate(864.696 -1491.34)" gradientUnits="userSpaceOnUse" id="e" xlink:href="#b"/></defs><g transform="translate(-132.651 958.04)" style="display:inline;opacity:1"><path style="opacity:1;fill:url(#c);fill-opacity:1;fill-rule:evenodd;stroke:none;stroke-width:3;stroke-linecap:butt;stroke-linejoin:round;stroke-miterlimit:4;stroke-dasharray:none;stroke-opacity:1" d="m309.549-710.388 122.197 211.675-56.157.527-32.624-56.87-32.856 56.566-27.903-.011-14.29-24.69 46.81-80.49-33.23-57.826z" id="d"/><use xlink:href="#d" transform="rotate(60 407.112 -715.787)" width="100%" height="100%"/><use xlink:href="#d" transform="rotate(-60 407.312 -715.7)" width="100%" height="100%"/><use xlink:href="#d" transform="rotate(180 407.419 -715.756)" width="100%" height="100%"/><path id="f" d="m309.549-710.388 122.197 211.675-56.157.527-32.624-56.87-32.856 56.566-27.903-.011-14.29-24.69 46.81-80.49-33.23-57.826z" style="color:#000;clip-rule:nonzero;display:inline;overflow:visible;visibility:visible;opacity:1;isolation:auto;mix-blend-mode:normal;color-interpolation:sRGB;color-interpolation-filters:linearRGB;solid-color:#000;solid-opacity:1;fill:url(#e);fill-opacity:1;fill-rule:evenodd;stroke:none;stroke-width:3;stroke-linecap:butt;stroke-linejoin:round;stroke-miterlimit:4;stroke-dasharray:none;stroke-dashoffset:0;stroke-opacity:1;color-rendering:auto;image-rendering:auto;shape-rendering:auto;text-rendering:auto;enable-background:accumulate"/><use style="display:inline" xlink:href="#f" transform="rotate(120 407.34 -716.084)" width="100%" height="100%"/><use style="display:inline" xlink:href="#f" transform="rotate(-120 407.288 -715.87)" width="100%" height="100%"/></g></svg>