<svg xmlns="http://www.w3.org/2000/svg" xmlns:xlink="http://www.w3.org/1999/xlink" width="512" height="512" viewBox="0 0 136 136"><defs><linearGradient id="a"><stop offset="0" stop-color="#699ad7"/><stop offset=".2" stop-color="#7eb1dd"/><stop offset="1" stop-color="#7ebae4"/></linearGradient><linearGradient id="b"><stop offset="0" stop-color="#415e9a"/><stop offset=".2" stop-color="#4a6baf"/><stop offset="1" stop-color="#5277c3"/></linearGradient><linearGradient xlink:href="#a" id="c" x1="200.6" x2="290.1" y1="351.4" y2="506.2" gradientTransform="translate(71 -1055)" gradientUnits="userSpaceOnUse"/><linearGradient xlink:href="#b" id="e" x1="-584.2" x2="-496.3" y1="782.3" y2="937.7" gradientTransform="translate(865 -1491)" gradientUnits="userSpaceOnUse"/></defs><g font-family="Carlito" font-weight="400" letter-spacing="0" word-spacing="0"><path d="M286 111h-31v140l2 85h-1c-15-29-33-56-45-75l-97-150H72v268h31V239l-2-92h1c23 40 36 62 49 81l97 151h38zm59 268h33V187h-33zm16-220c12 0 21-9 21-20 0-12-9-21-21-21-11 0-20 9-20 21 0 11 9 20 20 20zm224 28h-38l-47 71h-1l-45-71h-41l68 94v1l-71 97h38l50-76h1l50 76h41l-72-99v-1z" aria-label="Nix" font-size="395.1" style="line-height:125%;-inkscape-font-specification:Carlito" transform="translate(12 61) scale(.1052)"/><path d="M1469-801c-67 0-121 48-121 128 0 81 54 129 121 129 66 0 120-48 120-129 0-80-54-128-120-128zm0 25c49 0 86 37 86 103 0 67-37 104-86 104-50 0-87-37-87-104 0-66 37-103 87-103z" aria-label="O" font-size="367.5" style="line-height:125%;-inkscape-font-specification:Carlito" transform="matrix(.1 0 0 .1107 -60 162)"/><path d="M1524-774c0 37 19 57 64 75 34 14 48 27 48 52 0 31-25 47-58 47-18 0-37-3-59-10l-3 26c19 7 39 10 60 10 52 0 95-26 95-79 0-37-22-55-67-73-30-12-45-25-45-51s22-41 51-41c16 0 34 5 47 10l4-27c-15-6-33-9-53-9-48 0-84 28-84 70z" aria-label="S" font-size="386.6" style="line-height:125%;-inkscape-font-specification:Carlito" transform="translate(-60 162) scale(.1052)"/></g><path d="M64 33v-4H28v81h4V74h29v-3H32V33Zm43 19c-14 0-23 13-23 30 0 16 9 29 23 29 15 0 24-13 24-29 0-17-9-30-24-30zm0 4c11 0 19 9 19 26 0 16-8 25-19 25-10 0-19-9-19-25 0-17 9-26 19-26zm90-2h-4v33c0 9-7 20-17 20-9 0-14-7-14-17V54h-5v37c0 11 7 20 19 20 8 0 15-6 17-14l1 13h3zm35 0h-4v56h4V76c0-9 7-20 17-20s15 7 15 17v37h4V72c0-11-6-20-18-20-8 0-15 6-18 14zm109-31h-4v42c-3-8-11-13-18-13-12 0-24 11-24 30 0 16 8 29 23 29 9 0 16-7 19-14v13h4zm-4 64c0 9-8 20-18 20-14 0-20-13-20-25 0-18 11-26 20-26s18 9 18 20zm37-27c4-3 9-4 13-4 8 0 14 4 14 14v7l-8-1c-12 0-24 6-24 19 0 10 7 16 15 16 7 0 14-4 18-13v12h4V69c0-11-8-17-18-17-6 0-10 2-15 4zm27 27c0 13-8 20-16 20-6 0-12-5-12-12 0-8 8-15 19-15l9 1zm43-33V39h-4v15h-9v3h9v40c0 10 6 14 12 14l7-2v-3l-6 1c-5 0-9-3-9-10V57h14v-3zm42-19a3 3 0 0 0-3 3 3 3 0 0 0 3 4 3 3 0 0 0 3-4 3 3 0 0 0-3-3zm-2 75h4V54h-4zm54-58c-14 0-23 13-23 30 0 16 9 29 23 29 15 0 24-13 24-29 0-17-9-30-24-30zm0 4c11 0 19 9 19 26 0 16-8 25-19 25-10 0-19-9-19-25 0-17 9-26 19-26zm54-2h-3v56h4V76c0-9 7-20 17-20 9 0 14 7 14 17v37h4V72c0-11-6-20-18-20-8 0-15 6-17 14z" font-family="Vegur" font-size="118.1" font-weight="300" letter-spacing="11.4" style="line-height:1.25" transform="translate(2 104) scale(.2015)" word-spacing="0"/><g transform="translate(17 124) scale(.1238)"><path id="d" fill="url(#c)" fill-opacity="1" fill-rule="evenodd" stroke="none" stroke-dasharray="none" stroke-linecap="butt" stroke-linejoin="round" stroke-miterlimit="4" stroke-opacity="1" stroke-width="3" d="m310-710 122 211-56 1-33-57-33 57-28-1-14-24 47-81-34-58z" opacity="1"/><use xlink:href="#d" width="100%" height="100%" transform="rotate(60 407 -716)"/><use xlink:href="#d" width="100%" height="100%" transform="rotate(-60 407 -716)"/><use xlink:href="#d" width="100%" height="100%" transform="rotate(180 407 -716)"/><path id="f" fill="url(#e)" fill-opacity="1" fill-rule="evenodd" stroke="none" stroke-dasharray="none" stroke-dashoffset="0" stroke-linecap="butt" stroke-linejoin="round" stroke-miterlimit="4" stroke-opacity="1" stroke-width="3" d="m310-710 122 211-56 1-33-57-33 57-28-1-14-24 47-81-34-58z" clip-rule="nonzero" color="#000" color-interpolation="sRGB" color-interpolation-filters="linearRGB" color-rendering="auto" display="inline" image-rendering="auto" opacity="1" overflow="visible" shape-rendering="auto" style="isolation:auto;mix-blend-mode:normal;solid-color:#000;solid-opacity:1" text-rendering="auto" visibility="visible"/><use xlink:href="#f" width="100%" height="100%" transform="rotate(120 407 -716)"/><use xlink:href="#f" width="100%" height="100%" transform="rotate(-120 407 -716)"/></g></svg>