<svg xmlns="http://www.w3.org/2000/svg" xml:space="preserve" viewbox="0 0 222.987 66.853" alt="Cyberus Technology Logo">
      <path d="M279.531 154.199v-3.894c0-1.953-.648-2.61-2.82-2.61h-47.055V5.871c0-2.18-.648-2.832-2.609-2.832h-4.551c-2.172 0-2.82.652-2.82 2.832v141.824h-47.063c-2.168 0-2.816.657-2.816 2.61v3.894c0 2.16.648 2.813 2.816 2.813h104.098c2.172 0 2.82-.653 2.82-2.813m114.66 0v-3.894c0-1.953-.656-2.61-2.824-2.61h-81.324v-62.03h72c1.949 0 2.598-.653 2.598-2.599V79.16c0-2.176-.649-2.82-2.598-2.82h-72V12.363h84.359c1.957 0 2.817-.644 2.817-2.597V5.87c0-2.18-.86-2.832-2.817-2.832h-91.519c-2.168 0-2.817.652-2.817 2.832V154.2c0 2.16.649 2.813 2.817 2.813h88.484c2.168 0 2.824-.653 2.824-2.813m82.125 5.851c33.614 0 49.664-13.02 57.039-37.735.653-2.16 0-2.812-1.953-3.691l-3.906-1.301c-2.172-.418-3.031-.215-3.691 1.739-6.496 21.476-19.297 31.66-47.489 31.66-32.093 0-48.359-16.485-48.359-43.797V53.359c0-27.109 16.914-44.03 48.359-44.03 29.063 0 41.418 11.277 47.93 32.753.867 1.941 1.734 2.383 3.68 1.738l4.129-1.535c1.953-.644 2.383-1.512 1.73-3.457C526.414 14.102 510.797 0 476.316 0c-37.734 0-58.336 20.39-58.336 53.566v53.145c0 32.957 19.954 53.34 58.336 53.34m195.321-5.852V5.871c0-2.18-.653-2.832-2.813-2.832h-4.558c-1.95 0-2.606.652-2.606 2.832V76.34h-91.73V5.87c0-2.18-.653-2.832-2.606-2.832h-4.554c-2.172 0-2.821.652-2.821 2.832V154.2c0 2.16.649 2.813 2.821 2.813h4.554c1.953 0 2.606-.653 2.606-2.813V85.664h91.73V154.2c0 2.16.656 2.813 2.606 2.813h4.558c2.16 0 2.813-.653 2.813-2.813m149.129-.001V5.871c0-2.18-.653-2.832-2.61-2.832h-4.551c-1.519 0-2.167.223-3.035 1.738l-76.988 109.735c-7.152 10.195-13.012 21.906-17.562 28.195h-.442c0-8.234 1.305-22.121 1.305-35.781V5.871c0-2.18-.649-2.832-2.606-2.832h-4.339c-2.168 0-2.817.652-2.817 2.832V154.2c0 2.16.649 2.813 2.817 2.813h4.339c1.743 0 2.606-.86 3.039-1.512l74.821-106.926c8.019-11.484 14.75-23.633 19.949-31.004h.43c0 9.54-1.512 24.07-1.512 39.032v97.812c0 1.945.652 2.598 2.82 2.598h4.332c1.957 0 2.61-.653 2.61-2.813m89.48-3.477c-31.66 0-48.574-16.485-48.574-44.239V53.566c0-27.754 16.914-44.238 48.574-44.238 31.242 0 48.145 16.485 48.145 44.238v52.918c0 27.754-16.903 44.239-48.145 44.239m0 9.328c37.742 0 58.125-20.383 58.125-53.567V53.566C968.371 20.391 947.988 0 910.246 0c-38.152 0-58.555 20.39-58.555 53.566v52.918c0 33.184 20.403 53.567 58.555 53.567m99.034-5.852V12.363h78.94c1.95 0 2.6-.644 2.6-2.597V5.87c0-2.18-.65-2.832-2.6-2.832h-86.11c-2.157 0-2.809.652-2.809 2.832V154.2c0 2.16.652 2.813 2.809 2.813h4.57c1.95 0 2.6-.653 2.6-2.813m153.48-3.477c-31.66 0-48.58-16.485-48.58-44.239V53.566c0-27.754 16.92-44.238 48.58-44.238 31.24 0 48.13 16.485 48.13 44.238v52.918c0 27.754-16.89 44.239-48.13 44.239m0 9.328c37.73 0 58.11-20.383 58.11-53.567V53.566c0-33.175-20.38-53.566-58.11-53.566-38.17 0-58.56 20.39-58.56 53.566v52.918c0 33.184 20.39 53.567 58.56 53.567m201.17-82.414V52.266c0-31.66-20.38-52.266-58.12-52.266-38.16 0-58.55 20.606-58.55 53.79v52.921c0 32.957 19.96 53.34 58.34 53.34 33.61 0 49.66-13.02 57.03-37.735.65-2.16 0-2.812-1.94-3.691l-3.91-1.301c-1.95-.652-3.04-.215-3.69 1.739-6.5 21.476-19.31 31.66-47.49 31.66-32.33 0-48.36-16.485-48.36-43.797V53.789c0-27.754 16.91-44.46 48.57-44.46 31.24 0 48.37 16.706 48.37 42.937v18.867h-46.41c-2.17 0-2.82.879-2.82 2.832v3.898c0 1.953.65 2.813 2.82 2.813h53.35c2.16 0 2.81-.86 2.81-3.04m136.35 76.563-58.78-87.82V5.87c0-2.18-.66-2.832-2.61-2.832h-4.55c-2.16 0-2.8.652-2.8 2.832v60.711l-58.57 87.617c-.88 1.516-.44 2.813 1.51 2.813h5.85c3.04 0 3.92-.215 4.99-2.371l51.41-77.864 51.39 77.864c1.31 2.156 2.18 2.371 5.22 2.371h5.41c1.96 0 2.38-1.297 1.53-2.813M114.453 501.355c57.223 0 92.902-23.406 108.512-65.027 3.711-10.781 1.109-16.348-10.031-20.062l-39.766-14.125c-11.52-3.34-15.977-1.496-20.059 10.023-6.695 16.723-17.843 24.164-38.656 24.164-29.351 0-40.875-12.64-40.875-38.644v-67.629c0-26.02 11.524-38.66 40.875-38.66 20.813 0 32.703 8.175 38.656 24.16 4.446 11.519 8.911 14.121 20.059 10.039l39.766-14.121c11.14-3.723 13.742-9.297 10.031-20.078-15.61-41.61-51.289-65.028-108.512-65.028-73.207 0-114.45 39.762-114.45 104.051v66.887c0 64.289 41.243 104.05 114.45 104.05m356.344-21.183-85.828-146.035v-86.586c0-11.524-3.723-15.606-15.621-15.606h-41.989c-11.886 0-15.98 4.082-15.98 15.606v86.586L225.91 480.172c-5.199 8.547-3.711 15.605 7.813 15.605h44.586c18.582 0 23.785-.742 30.843-13.746l39.754-75.804 40.887 75.804c7.059 13.004 12.262 13.746 30.465 13.746h42.738c11.149 0 12.641-7.058 7.801-15.605m138.211-144.555h-43.106v-43.469h43.106c15.98 0 23.777 6.305 23.777 21.926 0 14.864-7.797 21.543-23.777 21.543m-7.063 100.711h-36.043v-40.883h36.043c14.875 0 22.676 5.578 22.676 20.078 0 14.485-7.801 20.805-22.676 20.805m97.368-10.781c0-24.902-7.801-41.625-26.762-54.629v-1.477c23.785-10.402 37.539-31.589 37.539-63.925 0-47.926-39.024-73.571-91.426-73.571H508.309c-11.895 0-15.977 4.082-15.977 15.606v232.621c0 11.898 4.082 15.98 15.977 15.98h108.875c51.285 0 82.129-25.261 82.129-70.605m225.179 54.625V446.73c0-11.886-4.082-15.98-15.984-15.98h-98.113v-33.066h78.418c11.89 0 15.972-4.098 15.972-15.602v-33.449c0-11.899-4.082-15.981-15.972-15.981h-78.418v-35.679h101.453c11.523 0 15.605-3.719 15.605-15.606v-33.816c0-11.524-4.082-15.606-15.605-15.606H752.805c-11.899 0-15.981 4.082-15.981 15.606v232.621c0 11.523 4.082 15.605 15.981 15.605h155.703c11.902 0 15.984-4.082 15.984-15.605m144.528-49.422h-40.15v-49.051h40.15c15.6 0 24.52 9.664 24.52 24.903 0 14.863-8.55 24.148-24.52 24.148zm100.69-24.523c0-36.426-14.86-62.43-40.13-76.551a97.14 97.14 0 0 0 10.04-15.985l33.45-63.543c5.19-10.027 2.6-18.203-9.67-18.203h-40.14c-19.68 0-28.24 4.832-34.19 17.84l-23.77 50.906c-6.32 12.641-12.64 18.946-27.87 18.946h-8.56v-72.086c0-11.524-3.7-15.606-15.6-15.606h-41.989c-11.894 0-15.976 4.082-15.976 15.606v232.621c0 11.523 4.082 15.605 15.976 15.605H1077.2c56.1 0 92.51-31.949 92.51-89.55m141.2-114.832c25.64 0 38.64 12.273 38.64 34.199v154.578c0 11.523 3.72 15.605 15.61 15.605h42c11.89 0 15.98-4.082 15.98-15.605V328.938c0-62.434-38.67-102.571-112.23-102.571-73.21 0-111.86 40.137-111.86 102.571v151.234c0 11.523 3.73 15.605 15.61 15.605h42c11.89 0 15.97-4.082 15.97-15.605V325.594c0-21.926 12.64-34.199 38.28-34.199m249.32 209.96c54.99 0 86.21-16.343 103.67-52.027 5.2-10.777 2.23-16.344-8.92-20.801l-37.15-15.98c-10.03-4.465-14.12-2.981-20.07 7.801-7.06 14.121-20.45 19.32-37.53 19.32-25.27 0-35.31-6.316-35.31-19.32 0-15.981 21.93-19.325 48.69-22.664 43.1-5.946 98.83-16.36 98.83-86.59 0-54.629-49.41-84.727-115.19-84.727-55.37 0-94.02 18.957-108.14 57.606-4.08 11.14-.74 16.34 10.04 20.437l34.92 12.625c11.15 3.719 16.35 2.602 21.93-8.164 6.7-13.016 21.18-19.699 41.99-19.699 24.9 0 39.77 5.199 39.77 21.18 0 14.503-18.95 18.586-43.48 21.925-43.48 5.942-104.42 13.746-104.42 85.844 0 49.047 39.38 83.234 110.37 83.234" 
      style="stroke:none;fill:#231f20;fill-opacity:1;fill-rule:nonzero;" 
      transform="matrix(.13333 0 0 -.13333 0 66.853)" 
      />
</svg>
