<?xml version="1.0" encoding="UTF-8" standalone="no"?>
<svg
   xml:space="preserve"
   viewbox="0 0 222.987 66.853"
   alt="Cyberus Technology Logo"
   version="1.1"
   id="svg1"
   sodipodi:docname="cyberus-technology.svg"
   width="222.98602"
   height="66.845665"
   inkscape:version="1.3.2 (091e20ef0f, 2023-11-25)"
   xmlns:inkscape="http://www.inkscape.org/namespaces/inkscape"
   xmlns:sodipodi="http://sodipodi.sourceforge.net/DTD/sodipodi-0.dtd"
   xmlns="http://www.w3.org/2000/svg"
   xmlns:svg="http://www.w3.org/2000/svg"><defs
   id="defs1" /><sodipodi:namedview
   id="namedview1"
   pagecolor="#ffffff"
   bordercolor="#666666"
   borderopacity="1.0"
   inkscape:showpageshadow="2"
   inkscape:pageopacity="0.0"
   inkscape:pagecheckerboard="0"
   inkscape:deskcolor="#d1d1d1"
   inkscape:zoom="0.94333333"
   inkscape:cx="150"
   inkscape:cy="74.734982"
   inkscape:window-width="956"
   inkscape:window-height="1053"
   inkscape:window-x="960"
   inkscape:window-y="23"
   inkscape:window-maximized="1"
   inkscape:current-layer="svg1" />
      <path
   d="m 37.269468,46.286309 v 0.519188 c 0,0.260393 -0.0864,0.347991 -0.37599,0.347991 h -6.273844 v 18.909394 c 0,0.290659 -0.0864,0.37759 -0.347857,0.37759 h -0.606785 c -0.289593,0 -0.375991,-0.08693 -0.375991,-0.37759 V 47.153488 h -6.27491 c -0.289059,0 -0.375457,-0.0876 -0.375457,-0.347991 v -0.519188 c 0,-0.287992 0.0864,-0.375057 0.375457,-0.375057 h 13.879387 c 0.289592,0 0.37599,0.08707 0.37599,0.375057 m 15.287618,0 v 0.519188 c 0,0.260393 -0.08746,0.347991 -0.376524,0.347991 H 41.337633 v 8.27046 h 9.59976 c 0.25986,0 0.346392,0.08706 0.346392,0.346524 v 0.520787 c 0,0.290126 -0.08653,0.375991 -0.346392,0.375991 h -9.59976 v 8.530053 h 11.247586 c 0.260926,0 0.37559,0.08586 0.37559,0.346258 v 0.519454 c 0,0.290659 -0.114664,0.377591 -0.37559,0.377591 H 40.38299 c -0.289059,0 -0.37559,-0.08693 -0.37559,-0.377591 V 46.286176 c 0,-0.287993 0.08653,-0.375057 0.37559,-0.375057 h 11.797572 c 0.28906,0 0.376524,0.08706 0.376524,0.375057 m 10.949726,-0.780114 c 4.481755,0 6.621701,1.735957 7.60501,5.031208 0.08706,0.287993 0,0.374924 -0.260393,0.492121 l -0.520787,0.173462 c -0.289593,0.05573 -0.404124,0.02867 -0.492121,-0.231861 -0.866112,-2.863395 -2.572869,-4.221227 -6.331709,-4.221227 -4.278959,0 -6.447705,2.197945 -6.447705,5.839454 v 7.142088 c 0,3.614443 2.255143,5.87052 6.447705,5.87052 3.87497,0 5.522262,-1.503563 6.390507,-4.366958 0.115597,-0.258793 0.231194,-0.317725 0.490655,-0.231727 l 0.550519,0.204661 c 0.260394,0.08586 0.317726,0.201595 0.230661,0.460922 -0.982775,3.296717 -3.06499,5.176937 -7.662342,5.176937 -5.031074,0 -7.777939,-2.718599 -7.777939,-7.141955 v -7.085822 c 0,-4.394157 2.660467,-7.111823 7.777939,-7.111823 m 26.042149,0.780247 v 19.776573 c 0,0.290659 -0.08706,0.37759 -0.375057,0.37759 h -0.607718 c -0.259994,0 -0.347458,-0.08693 -0.347458,-0.37759 V 56.66725 H 75.988367 v 9.395765 c 0,0.290659 -0.08706,0.377591 -0.347458,0.377591 h -0.607185 c -0.289593,0 -0.376124,-0.08693 -0.376124,-0.377591 V 46.286176 c 0,-0.287993 0.08653,-0.375057 0.376124,-0.375057 h 0.607185 c 0.260393,0 0.347458,0.08706 0.347458,0.375057 v 9.137905 h 12.230361 v -9.137905 c 0,-0.287993 0.08746,-0.375057 0.347458,-0.375057 h 0.607718 c 0.287993,0 0.375057,0.08706 0.375057,0.375057 m 19.883369,1.33e-4 v 19.776573 c 0,0.290659 -0.0871,0.37759 -0.34799,0.37759 h -0.60679 c -0.20252,0 -0.28892,-0.02973 -0.40465,-0.231727 L 97.808088,51.577777 c -0.953576,-1.359299 -1.73489,-2.920727 -2.341541,-3.759239 h -0.05893 c 0,1.097839 0.173995,2.949393 0.173995,4.770681 v 13.473663 c 0,0.290659 -0.08653,0.37759 -0.347458,0.37759 h -0.578518 c -0.28906,0 -0.375591,-0.08693 -0.375591,-0.37759 V 46.286176 c 0,-0.287993 0.08653,-0.375057 0.375591,-0.375057 h 0.578518 c 0.232395,0 0.347458,0.114664 0.40519,0.201595 l 9.975886,14.256443 c 1.06917,1.531162 1.96661,3.150988 2.6598,4.133764 h 0.0573 c 0,-1.271968 -0.2016,-3.209253 -0.2016,-5.204137 V 46.25751 c 0,-0.259327 0.0869,-0.346391 0.37599,-0.346391 h 0.57759 c 0.26093,0 0.34799,0.08706 0.34799,0.375057 m 11.93037,0.463589 c -4.22123,0 -6.47637,2.197945 -6.47637,5.898385 v 7.055557 c 0,3.700441 2.25514,5.898253 6.47637,5.898253 4.1655,0 6.41917,-2.197945 6.41917,-5.898253 V 52.64815 c 0,-3.70044 -2.25367,-5.898385 -6.41917,-5.898385 m 0,-1.243703 c 5.03214,0 7.74981,2.717666 7.74981,7.142088 v 7.055557 c 0,4.423223 -2.71767,7.141955 -7.74981,7.141955 -5.08681,0 -7.80714,-2.718599 -7.80714,-7.141955 V 52.64815 c 0,-4.424422 2.72033,-7.142088 7.80714,-7.142088 m 13.2042,0.780247 v 18.910994 h 10.52507 c 0.26,0 0.34666,0.08586 0.34666,0.346258 v 0.519454 c 0,0.290659 -0.0867,0.377591 -0.34666,0.377591 H 133.6109 c -0.2876,0 -0.37453,-0.08693 -0.37453,-0.377591 V 46.286176 c 0,-0.287993 0.0869,-0.375057 0.37453,-0.375057 h 0.60931 c 0.26,0 0.34666,0.08706 0.34666,0.375057 m 20.46349,0.463589 c -4.22123,0 -6.47717,2.197945 -6.47717,5.898385 v 7.055557 c 0,3.700441 2.25594,5.898253 6.47717,5.898253 4.16523,0 6.41717,-2.197945 6.41717,-5.898253 V 52.64815 c 0,-3.70044 -2.25194,-5.898385 -6.41717,-5.898385 m 0,-1.243703 c 5.03054,0 7.74781,2.717666 7.74781,7.142088 v 7.055557 c 0,4.423223 -2.71727,7.141955 -7.74781,7.141955 -5.08921,0 -7.8078,-2.718599 -7.8078,-7.141955 V 52.64815 c 0,-4.424422 2.71859,-7.142088 7.8078,-7.142088 m 26.822,10.988259 v 3.382715 c 0,4.221228 -2.71727,6.968626 -7.74914,6.968626 -5.08788,0 -7.80647,-2.747398 -7.80647,-7.171821 v -7.055956 c 0,-4.394157 2.66126,-7.111823 7.77847,-7.111823 4.48122,0 6.62117,1.735957 7.60381,5.031208 0.0867,0.287993 0,0.374924 -0.25866,0.492121 l -0.52132,0.173462 c -0.26,0.08693 -0.40533,0.02867 -0.49199,-0.231861 -0.86665,-2.863395 -2.5746,-4.221227 -6.33184,-4.221227 -4.31056,0 -6.44784,2.197945 -6.44784,5.839454 v 7.084756 c 0,3.700441 2.25461,5.927852 6.47584,5.927852 4.16523,0 6.44917,-2.227411 6.44917,-5.724791 v -2.515537 h -6.18785 c -0.28932,0 -0.37599,-0.117197 -0.37599,-0.37759 v -0.519721 c 0,-0.260393 0.0867,-0.375057 0.37599,-0.375057 h 7.11316 c 0.28799,0 0.37466,0.114664 0.37466,0.405323 M 200.03193,46.286309 192.1948,57.99535 v 8.067665 c 0,0.290659 -0.088,0.377591 -0.348,0.377591 h -0.60665 c -0.28799,0 -0.37332,-0.08693 -0.37332,-0.377591 v -8.094598 l -7.80914,-11.681974 c -0.11733,-0.202128 -0.0587,-0.375057 0.20133,-0.375057 h 0.77998 c 0.40532,0 0.52265,0.02866 0.66532,0.316125 l 6.85449,10.381607 6.85183,-10.381607 c 0.17466,-0.28746 0.29066,-0.316125 0.69598,-0.316125 h 0.72132 c 0.26132,0 0.31732,0.172929 0.20399,0.375057 M 15.259619,0 c 7.629542,0 12.386623,3.120722 14.467904,8.6700499 0.494788,1.4374311 0.147863,2.1796791 -1.337433,2.6748661 l -5.302001,1.883287 c -1.535961,0.445322 -2.130213,0.199461 -2.674466,-1.336367 -0.892644,-2.2296776 -2.379007,-3.2217861 -5.154004,-3.2217861 -3.913369,0 -5.4498642,1.6852911 -5.4498642,5.1524041 v 9.016975 c 0,3.469247 1.5364952,5.154538 5.4498642,5.154538 2.774997,0 4.36029,-1.089973 5.154004,-3.221253 0.592785,-1.535828 1.188104,-1.882753 2.674466,-1.3385 l 5.302001,1.882753 c 1.485296,0.496388 1.832221,1.239569 1.337433,2.677 C 27.646242,33.541828 22.889161,36.66415 15.259619,36.66415 5.4989292,36.66415 0,31.362683 0,22.79103 V 13.872987 C 0,5.3013341 5.4989292,0 15.259619,0 M 62.770964,2.8243294 51.327517,22.295176 v 11.544511 c 0,1.536495 -0.496388,2.080748 -2.082748,2.080748 h -5.598394 c -1.58476,0 -2.130613,-0.544253 -2.130613,-2.080748 V 22.295176 L 30.12018,2.8243294 C 29.426998,1.6847579 29.625393,0.74371474 31.161888,0.74371474 h 5.944651 c 2.477538,0 3.171254,0.0989309 4.112297,1.83275416 L 46.519237,12.683416 51.970701,2.5764689 c 0.941176,-1.7338233 1.634892,-1.83275416 4.061898,-1.83275416 h 5.698258 c 1.486496,0 1.685424,0.94104316 1.040107,2.08061466 M 81.198637,22.097848 h -5.747323 v 5.795721 h 5.747323 c 2.130613,0 3.170187,-0.840645 3.170187,-2.923393 0,-1.981817 -1.039574,-2.872328 -3.170187,-2.872328 M 80.256927,8.6700499 H 75.451314 V 14.12098 h 4.805613 c 1.983284,0 3.023391,-0.743714 3.023391,-2.676999 0,-1.9312855 -1.040107,-2.7739311 -3.023391,-2.7739311 m 12.982075,1.4374311 c 0,3.320183 -1.040107,5.549861 -3.568177,7.283684 v 0.196929 c 3.171254,1.386898 5.005075,4.211761 5.005075,8.52312 0,6.389973 -5.20307,9.809221 -12.189829,9.809221 H 67.772439 c -1.58596,0 -2.130213,-0.544253 -2.130213,-2.080748 V 2.8243294 c 0,-1.5863603 0.544253,-2.13061341 2.130213,-2.13061341 h 14.516304 c 6.837829,0 10.950259,3.36804911 10.950259,9.41376501 M 123.26212,2.8243294 v 4.4588219 c 0,1.5847603 -0.54425,2.1306134 -2.13115,2.1306134 h -13.0814 v 4.4086893 h 10.45547 c 1.58529,0 2.12954,0.546387 2.12954,2.080215 v 4.459755 c 0,1.586494 -0.54425,2.130747 -2.12954,2.130747 h -10.45547 v 4.757081 h 13.52672 c 1.53637,0 2.08062,0.495854 2.08062,2.080748 v 4.508687 c 0,1.536495 -0.54425,2.080748 -2.08062,2.080748 h -21.2052 c -1.586493,0 -2.130746,-0.544253 -2.130746,-2.080748 V 2.8243294 c 0,-1.5363616 0.544253,-2.08061466 2.130746,-2.08061466 h 20.75988 c 1.5869,0 2.13115,0.54425306 2.13115,2.08061466 m 19.26992,6.5894353 h -5.3532 v 6.5399693 h 5.3532 c 2.07994,0 3.26925,-1.288501 3.26925,-3.320317 0,-1.981683 -1.13997,-3.2196524 -3.26925,-3.2196523 z m 13.42499,3.2696513 c 0,4.856679 -1.98128,8.323792 -5.35053,10.206545 a 12.951676,12.951676 0 0 1 1.33863,2.13128 l 4.45989,8.472188 c 0.69199,1.3369 0.34666,2.427006 -1.2893,2.427006 h -5.35186 c -2.62394,0 -3.76524,-0.64425 -4.55856,-2.378607 l -3.16925,-6.787297 c -0.84265,-1.685424 -1.68529,-2.52607 -3.71591,-2.52607 h -1.1413 v 9.611226 c 0,1.536495 -0.49332,2.080748 -2.07995,2.080748 h -5.59839 c -1.58583,0 -2.13008,-0.544253 -2.13008,-2.080748 V 2.8243294 c 0,-1.5363616 0.54425,-2.08061466 2.13008,-2.08061466 h 14.12218 c 7.47981,0 12.33435,4.25976016 12.33435,11.93970126 m 18.8262,15.310551 c 3.41858,0 5.15187,-1.636359 5.15187,-4.559753 V 2.8243294 c 0,-1.5363616 0.49599,-2.08061466 2.08128,-2.08061466 h 5.59986 c 1.5853,0 2.13062,0.54425306 2.13062,2.08061466 V 22.988359 c 0,8.324325 -5.15587,13.675791 -14.96363,13.675791 -9.76109,0 -14.91429,-5.351466 -14.91429,-13.675791 V 2.8243294 c 0,-1.5363616 0.49732,-2.08061466 2.08128,-2.08061466 h 5.59986 c 1.58529,0 2.12928,0.54425306 2.12928,2.08061466 V 23.434214 c 0,2.923394 1.68529,4.559753 5.10387,4.559753 M 208.02507,0 c 7.33181,0 11.49438,2.1790122 13.82232,6.9367599 0.69331,1.4368974 0.29732,2.1791455 -1.18931,2.7733973 l -4.95321,2.1306138 c -1.3373,0.595318 -1.88262,0.397456 -2.67593,-1.040108 -0.94131,-1.8827526 -2.7266,-2.5759353 -5.00387,-2.5759353 -3.36925,0 -4.70789,0.8421123 -4.70789,2.5759353 0,2.130747 2.92393,2.576603 6.49184,3.021791 5.74652,0.792781 13.17701,2.181279 13.17701,11.545045 0,7.283685 -6.58784,11.296651 -15.35829,11.296651 -7.38248,0 -12.53568,-2.527537 -14.4183,-7.680608 -0.54399,-1.485296 -0.0987,-2.178612 1.33863,-2.724865 l 4.65588,-1.683291 c 1.48663,-0.495855 2.17995,-0.346925 2.92393,1.088506 0.89331,1.735423 2.82393,2.626467 5.59853,2.626467 3.31991,0 5.30253,-0.693182 5.30253,-2.823929 0,-1.933685 -2.5266,-2.478071 -5.79719,-2.92326 C 201.43456,21.750923 193.30943,20.710416 193.30943,11.097589 193.30943,4.5581527 198.55997,0 208.02507,0"
   style="fill:#231f20;fill-opacity:1;fill-rule:nonzero;stroke:none;stroke-width:0.13333"
   id="path1" />
</svg>
