<svg id="Layer_1" data-name="Layer 1" xmlns="http://www.w3.org/2000/svg" xmlns:xlink="http://www.w3.org/1999/xlink" viewBox="0 0 123 115"><defs><linearGradient id="linear-gradient" x1="-36.78" y1="439.27" x2="-35.05" y2="439.4" gradientTransform="matrix(51, 0, 0, -23.9, 1844.15, 10560.12)" gradientUnits="userSpaceOnUse"><stop offset="0" stop-color="#49d395"/><stop offset="1" stop-color="#1f59f4"/></linearGradient><linearGradient id="linear-gradient-2" x1="-35.74" y1="446.02" x2="-34.77" y2="444.45" gradientTransform="matrix(31.5, 0, 0, -40.32, 1150.39, 17973.88)" xlink:href="#linear-gradient"/><linearGradient id="linear-gradient-3" x1="-34.27" y1="446.48" x2="-34.45" y2="445.48" gradientTransform="matrix(18, 0, 0, -44.81, 695.94, 20003.56)" gradientUnits="userSpaceOnUse"><stop offset="0" stop-color="#4292fa"/><stop offset="1" stop-color="#1f59f4"/></linearGradient><linearGradient id="linear-gradient-4" x1="-34.84" y1="445.28" x2="-34.53" y2="446.93" gradientTransform="matrix(21, 0, 0, -47.79, 776.59, 21426.87)" xlink:href="#linear-gradient"/><linearGradient id="linear-gradient-5" x1="-35.49" y1="445.57" x2="-35.13" y2="444.34" gradientTransform="matrix(33, 0, 0, -38.83, 1252.22, 17358.56)" xlink:href="#linear-gradient"/><linearGradient id="linear-gradient-6" x1="-34.91" y1="446.44" x2="-35.8" y2="445.53" gradientTransform="matrix(36, 0, 0, -44.81, 1362.87, 20018.49)" xlink:href="#linear-gradient"/></defs><g id="Platonic-Logo"><g id="Group-42"><polygon id="Fill-1" points="56.93 91.1 30.02 82.28 28.5 53.77 57 62.38 56.93 91.1" style="fill:#1f59f4;fill-rule:evenodd"/><polygon id="Fill-2" points="0 63.45 30.24 73.18 51 57.83 22.24 49.29 0 63.45" style="fill-rule:evenodd;fill:url(#linear-gradient)"/><polygon id="Fill-3" points="61.4 50.78 33 42.89 51.03 31.36 78 38.39 61.4 50.78" style="fill:#1f59f4;fill-rule:evenodd"/><polygon id="Fill-4" points="57 44.8 27.13 36.99 25.5 4.48 56.92 11.37 57 44.8" style="fill-rule:evenodd;fill:url(#linear-gradient-2)"/><polygon id="Fill-5" points="49.5 59.98 28.5 53.77 29.53 72.66 31.19 73.18 49.5 59.98" style="fill:#1c51af;fill-rule:evenodd"/><polygon id="Fill-6" points="69.45 10.54 69 44.8 85.59 32.4 87 0 69.45 10.54" style="fill-rule:evenodd;fill:url(#linear-gradient-3)"/><polygon id="Fill-7" points="37.5 29.65 38.72 67.21 59.87 51.59 60 16.43 37.5 29.65" style="fill:#1f59f4;fill-rule:evenodd"/><polygon id="Fill-8" points="69.66 60.52 69 89.61 84.62 75.23 85.5 47.79 69.66 60.52" style="fill:#1f59f4;fill-rule:evenodd"/><polygon id="Fill-9" points="39 83.66 40.37 115 60 96.98 60 67.21 39 83.66" style="fill-rule:evenodd;fill:url(#linear-gradient-4)"/><polygon id="Fill-10" points="76.5 54.11 108.48 62.73 123 49.28 92.56 41.82 76.5 54.11" style="fill:#1f59f4;fill-rule:evenodd"/><polygon id="Fill-11" points="72.66 67.21 72 96.06 102.59 106.04 105 76.4 72.66 67.21" style="fill-rule:evenodd;fill:url(#linear-gradient-5)"/><polygon id="Fill-12" points="72.87 14.94 108 22.95 105.24 59.74 72 50.32 72.87 14.94" style="fill-rule:evenodd;fill:url(#linear-gradient-6)"/><polygon id="Fill-13" points="69 44.8 78 38.11 69.12 35.84 69 44.8 69 44.8" style="fill:#1c51af;fill-rule:evenodd"/><polygon id="Fill-14" points="57 70.19 39 84.04 39 86.22 56.95 91.1 57 70.19" style="fill:#1944a3;fill-rule:evenodd"/><polygon id="Fill-16" points="85.19 56.75 85.5 47.79 76.5 54.48 85.19 56.75" style="fill:#1c51af;fill-rule:evenodd"/><polygon id="Fill-17" points="46.5 77.94 66.84 61.23 100.5 71.25 82.12 89.61 46.5 77.94" style="fill:#1f59f4;fill-rule:evenodd"/><polygon id="Fill-18" points="37.87 39.68 57 44.8 56.94 17.92 37.5 29.25 37.87 39.68" style="fill:#1c51af;fill-rule:evenodd"/><polygon id="Fill-19" points="37.5 43.38 60 49.29 60 32.31 51.02 29.87 37.5 38.59 37.5 43.38" style="fill:#1944a3;fill-rule:evenodd"/><polygon id="Fill-21" points="84.91 31.92 85.5 17.86 72.66 14.94 72 41.82 84.91 31.92" style="fill:#1c51af;fill-rule:evenodd"/><polygon id="Fill-22" points="105.42 59.74 106.5 45.45 92.55 41.82 79.5 52.43 105.42 59.74" style="fill:#1c51af;fill-rule:evenodd"/><polygon id="Fill-23" points="37.5 53.77 37.94 67.21 51 57.68 37.5 53.77" style="fill:#1c51af;fill-rule:evenodd"/><polygon id="Fill-24" points="37.81 67.21 48 59.86 37.5 56.75 37.81 67.21" style="fill:#11327c;fill-rule:evenodd"/><polygon id="Fill-25" points="60 82.14 60 67.21 46.5 77.69 60 82.14" style="fill:#1c51af;fill-rule:evenodd"/><g id="Group-30"><polygon id="Fill-26" points="81.9 89.39 97.31 73.46 71.38 65.55 70.95 85.67 81.9 89.39" style="fill:#1944a3;fill-rule:evenodd"/><polygon id="Fill-28" points="67.64 84.55 71.23 85.77 83.31 74.49 83.57 65.87 68.15 61.32 67.64 84.55" style="fill:#1944a3;fill-rule:evenodd"/></g><polygon id="Fill-31" points="57 82.14 57 70.19 46.5 78.44 57 82.14" style="fill:#11327c;fill-rule:evenodd"/><polygon id="Fill-32" points="85.21 53.77 85.5 47.79 79.5 52.34 85.21 53.77" style="fill:#11327c;fill-rule:evenodd"/><polygon id="Fill-33" points="72 41.82 78 37.34 72 35.84 72 41.82" style="fill:#11327c;fill-rule:evenodd"/><line id="Fill-34" x1="82.5" y1="89.61" x2="97.5" y2="74.68" style="fill:none"/><polygon id="Fill-40" points="70.8 86.62 70.5 86.53 70.95 67.21 84 70.76 83.82 75.39 70.8 86.62" style="fill:#11327c;fill-rule:evenodd"/><polygon id="Fill-41" points="56.97 32.91 57 46.3 37.55 41.04 37.5 39.61 50.81 31.36 56.97 32.91" style="fill:#11327c;fill-rule:evenodd"/></g></g></svg>