<?xml version="1.0" encoding="UTF-8" standalone="no"?>
<!-- Created with Inkscape (http://www.inkscape.org/) -->

<svg
   width="1080"
   height="922"
   viewBox="0 0 1080 922"
   version="1.1"
   id="svg1"
   xml:space="preserve"
   inkscape:version="1.4.2 (ebf0e940d0, 2025-05-08)"
   sodipodi:docname="bg0.svg"
   xmlns:inkscape="http://www.inkscape.org/namespaces/inkscape"
   xmlns:sodipodi="http://sodipodi.sourceforge.net/DTD/sodipodi-0.dtd"
   xmlns="http://www.w3.org/2000/svg"
   xmlns:svg="http://www.w3.org/2000/svg"><sodipodi:namedview
     id="namedview1"
     pagecolor="#505050"
     bordercolor="#eeeeee"
     borderopacity="1"
     inkscape:showpageshadow="0"
     inkscape:pageopacity="0"
     inkscape:pagecheckerboard="0"
     inkscape:deskcolor="#505050"
     inkscape:document-units="px"
     inkscape:zoom="0.624611"
     inkscape:cx="843.72514"
     inkscape:cy="502.71289"
     inkscape:window-width="2867"
     inkscape:window-height="1172"
     inkscape:window-x="0"
     inkscape:window-y="0"
     inkscape:window-maximized="1"
     inkscape:current-layer="g2" /><defs
     id="defs1"><rect
       x="507.5159"
       y="693.23151"
       width="281.77539"
       height="196.92258"
       id="rect1" /></defs><g
     inkscape:label="Layer 1"
     inkscape:groupmode="layer"
     id="layer1"><g
       id="g1"
       transform="matrix(0.48724256,0,0,0.48724256,560.47142,752.57095)"><g
         id="g4"
         transform="matrix(0.84697111,0,0,0.84697111,-213.5345,-330.21379)"><path
           style="font-weight:900;font-size:64px;font-family:'Noto Sans';-inkscape-font-specification:'Noto Sans Heavy';text-align:center;text-anchor:middle;white-space:pre;fill:#b7cefd;fill-opacity:1;stroke-width:3.60886"
           d="m 64.934664,-248.16529 q 2.690033,10.03935 0.646976,18.47754 -2.20634,8.72108 -11.834669,19.19176 -6.106844,6.65771 -8.779718,10.96063 -2.613084,4.526 -2.728343,7.66537 -0.33838,3.19914 0.438747,6.09941 1.195581,4.46193 6.151755,6.0033 4.733078,1.60115 11.425975,-0.19222 16.286062,-4.36384 35.264141,-21.88293 l 23.121102,25.6069 q -10.3574,10.42692 -23.336459,18.2087 -12.919293,8.0049 -29.205343,12.36872 -24.763733,6.63542 -41.30177,-0.64982 -16.53805,-7.28524 -21.320325,-25.13298 -3.46716006,-12.9396 -0.014093,-24.14677 3.4531489,-11.20718 14.893985,-23.83731 8.142455,-8.87697 10.918856,-13.68584 2.553316,-4.7491 1.178399,-9.88032 l -1.494452,-5.57742 33.464493,-8.96679 z m -8.047807,-48.77493 q 3.108486,11.60102 -2.329052,18.07941 -5.437554,6.47839 -15.030702,9.04886 -9.146966,2.45092 -17.095204,-0.44074 -7.94825,-2.89169 -11.056748,-14.49272 -2.9291603,-10.93171 2.448627,-17.6332 5.377775,-6.70149 14.524729,-9.1524 9.593148,-2.57049 17.601177,0.54429 8.008029,3.11477 10.937173,14.0465 z"
           id="text1"
           aria-label="?" /><path
           style="font-weight:900;font-size:64px;font-family:'Noto Sans';-inkscape-font-specification:'Noto Sans Heavy';text-align:center;text-anchor:middle;white-space:pre;fill:#e8effc;fill-opacity:1;stroke-width:2.22614"
           d="m -16.657653,-443.64721 q 1.705616,6.18026 0.484292,11.3947 -1.320752,5.38967 -7.211594,11.89278 -3.736236,4.1349 -5.365126,6.80142 -1.59098,2.80387 -1.647599,4.74088 -0.193971,1.97493 0.298766,3.76033 0.758054,2.74678 3.822322,3.6747 2.926929,0.96582 7.04709,-0.17125 10.025753,-2.76688 21.6513877,-13.66085 l 14.3800733,15.68872 q -6.340769,6.47949 -14.3108753,11.33944 -7.9322187,4.99729 -17.9579597,7.76418 -15.244638,4.20717 -25.479524,-0.21039 -10.234909,-4.41755 -13.267103,-15.40469 -2.198342,-7.96566 -0.120028,-14.8946 2.07836,-6.92894 9.077275,-14.77245 4.981648,-5.5132 6.672067,-8.49231 1.553092,-2.9412 0.681328,-6.09999 l -0.947562,-3.43348 20.600851,-5.68537 z m -5.189102,-30.04915 q 1.970923,7.14163 -1.353296,11.16282 -3.324207,4.02119 -9.229776,5.651 -5.630902,1.554 -10.547028,-0.19304 -4.916114,-1.74705 -6.887061,-8.88868 -1.857225,-6.72961 1.429107,-10.88814 3.286319,-4.15853 8.91721,-5.71254 5.90558,-1.62979 10.859606,0.25459 4.954013,1.88437 6.811238,8.61399 z"
           id="text1-7"
           aria-label="?" /><path
           style="font-weight:900;font-size:64px;font-family:'Noto Sans';-inkscape-font-specification:'Noto Sans Heavy';text-align:center;text-anchor:middle;white-space:pre;fill:#87adfa;fill-opacity:1;stroke-width:5.07896"
           d="m 287.51106,-96.21159 q 11.62928,8.872476 16.60843,20.030636 5.04043,11.613785 3.31595,31.558499 -1.07948,12.668632 -0.3577,19.760973 0.98022,7.289506 3.55112,10.886371 2.37374,3.855289 5.73331,6.4184469 5.16855,3.9433017 12.01585,1.399158 6.65013,-2.2857197 12.56509,-10.0385659 14.39309,-18.865298 20.47422,-54.702307 l 47.77823,8.649908 q -2.57442,20.522867 -10.34411,40.352815 -7.51132,20.0271482 -21.9044,38.89241 -21.88538,28.685559 -46.57547,34.788551 -24.69011,6.103028 -45.36437,-9.670226 -14.98885,-11.435598 -20.77784,-26.891237 -5.78895,-15.45569636 -3.90183,-39.364876 1.4393,-16.891497 0.39782,-24.63658 -1.23862,-7.486695 -7.18249,-12.021492 l -6.46069,-4.929127 29.57484,-38.764267 z m -50.90476,-47.42325 q 13.43827,10.25262 12.95029,22.14593 -0.48798,11.89334 -8.96607,23.005752 -8.08381,10.595556 -19.42576,14.207924 -11.34197,3.612392 -24.78026,-6.640216 -12.66299,-9.66111 -12.43343,-21.75163 0.22955,-12.0905 8.31334,-22.68605 8.47811,-11.11241 20.07852,-14.52762 11.60038,-3.41521 24.26337,6.24591 z"
           id="text1-8"
           aria-label="?" /><path
           style="font-weight:900;font-size:64px;font-family:'Noto Sans';-inkscape-font-specification:'Noto Sans Heavy';text-align:center;text-anchor:middle;white-space:pre;fill:#698dd8;fill-opacity:1;stroke-width:7.74432"
           d="m 681.47882,-70.085866 q 22.28009,1.023173 38.20958,10.685554 16.40188,10.180204 31.55825,36.676394 9.64706,16.8162507 16.70992,25.0791214 7.55803,8.2856076 13.90353,10.5616506 6.3228,2.771127 12.75928,3.066722 9.90223,0.454744 16.27563,-8.6795501 6.35061,-8.6391967 7.03276,-23.4925699 1.65975,-36.143292 -21.83507,-86.341846 l 67.39619,-30.64364 q 14.59308,27.95887 22.07262,59.560215 7.97473,31.624185 6.31489,67.7674182 Q 889.35263,49.111186 863.70507,78.198944 838.0575,107.28674 798.44851,105.46774 769.73193,104.14901 749.05599,89.803333 728.37995,75.457576 709.98511,43.851067 697.12244,21.429422 689.09201,12.625992 681.03888,4.3176114 669.6513,3.7946917 l -12.3778,-0.568441 3.41059,-74.2670067 z m -104.9816,-15.240422 q 25.74592,1.182357 35.46109,16.513234 9.71526,15.330889 8.73757,36.620725 -0.93221,20.299665 -12.01169,34.6755346 Q 597.60473,16.859145 571.8588,15.676836 547.59824,14.562703 537.38789,-0.79093506 527.17754,-16.144573 528.10975,-36.444191 q 0.97769,-21.28986 12.55234,-35.643062 11.57457,-14.353156 35.83513,-13.239035 z"
           id="text1-8-7"
           aria-label="?" /><path
           style="font-weight:900;font-size:64px;font-family:'Noto Sans';-inkscape-font-specification:'Noto Sans Heavy';text-align:center;text-anchor:middle;white-space:pre;fill:#506fb2;fill-opacity:1;stroke-width:12.7231"
           d="m 1129.4055,-356.53514 q 25.856,-25.96418 55.2027,-34.66228 30.4983,-8.70063 79.4624,2.13692 31.1067,6.84439 48.957,7.3829 18.4249,-0.0384 28.2021,-5.24086 10.3544,-4.62803 17.8241,-12.12886 11.4914,-11.53954 7.4235,-29.38028 -3.4907,-17.26616 -20.7999,-34.5035 -42.12,-41.94404 -129.1192,-68.82407 l 37.1839,-115.80986 q 50.1205,13.13827 96.8126,38.95085 47.267,25.23566 89.3867,67.17968 64.0452,63.77789 71.0868,127.09926 7.0418,63.32134 -38.9243,109.47985 -33.3253,33.46513 -73.6106,42.76192 -40.2854,9.29675 -99.0414,-3.24755 -41.4753,-9.12595 -61.0518,-9.08501 -18.9996,0.61548 -32.2148,13.88614 l -14.3644,14.42455 -86.5474,-86.18649 z m -134.50122,110.83119 q 29.87812,-30.0031 59.25352,-24.88242 29.3756,5.1206 54.1858,29.82733 23.6564,23.5577 28.8997,52.91156 5.2435,29.35391 -24.6345,59.35711 -28.1541,28.27209 -58.1045,23.72845 -29.95,-4.54371 -53.6064,-28.10128 -24.81026,-24.70675 -29.47903,-54.63775 -4.66788,-29.93104 23.48558,-58.20308 z"
           id="text1-8-7-0"
           aria-label="?" /><path
           style="font-weight:900;font-size:64px;font-family:'Noto Sans';-inkscape-font-specification:'Noto Sans Heavy';text-align:center;text-anchor:middle;white-space:pre;fill:#3b5487;fill-opacity:1;stroke-width:14.8645"
           d="m 1171.826,-988.75229 q -8.443,-41.96891 2.1531,-76.12341 11.3409,-35.2746 53.6467,-75.808 26.8371,-25.7773 38.9452,-42.7688 11.9203,-17.924 13.2116,-30.7986 2.2243,-13.0626 -0.2148,-25.1871 -3.7525,-18.6525 -23.7242,-26.2795 -19.039,-7.8145 -47.0181,-2.1861 -68.0828,13.6966 -150.6581,80.7683 l -88.37326,-111.283 q 45.29136,-40.1638 100.67076,-68.7713 55.1914,-29.5405 123.2743,-43.2368 103.5231,-20.8261 169.6076,13.4287 66.0846,34.2544 81.0943,108.8655 10.8822,54.0933 -6.2312,99.2626 -17.1136,45.1694 -67.4324,94.1078 -35.7828,34.3691 -48.4482,53.4136 -11.7328,18.8569 -7.4173,40.3076 l 4.6905,23.31615 -139.8963,28.143 z m 20.378,202.59243 q -9.7563,-48.49747 14.2828,-73.71142 24.0392,-25.21418 64.1427,-33.28188 38.2382,-7.69247 70.1575,6.26435 31.9193,13.9567 41.6758,62.45417 9.1935,45.69924 -14.6583,71.8462 -23.8515,26.14662 -62.0898,33.83919 -40.1035,8.06777 -72.2105,-6.82178 -32.1065,-14.89044 -41.3002,-60.58907 z"
           id="text1-8-7-0-4"
           aria-label="?" /></g><g
         id="g3"
         transform="matrix(0.38646271,0,0,0.38646271,324.46362,-74.306887)"><g
           id="g2"
           transform="matrix(2.0523659,0,0,2.0523659,-1132.049,-740.74001)"><polygon
             fill="#4d6fb7"
             points="-640,886.81001 -448,554.25626 -624,249.41532 -496,27.712813 64,997.66127 -192,997.66127 -320,775.95876 -448,997.66127 -576,997.66127 "
             id="polygon1"
             transform="matrix(1.099209,0,0,1.099209,-41.464483,-217.85283)" /><polygon
             fill="#77b6e1"
             points="-1088,-110.85125 -704,-110.85125 -528,-415.69219 -272,-415.69219 -832,554.25626 -960,332.55376 -832,110.85125 -1088,110.85125 -1152,-1.7053026e-13 "
             id="polygon2"
             transform="matrix(1.099209,0,0,1.099209,-41.464483,-217.85283)" /><polygon
             fill="#4d6fb7"
             points="-448,-997.66127 -256,-665.10751 96,-665.10751 224,-443.40501 -896,-443.40501 -768,-665.10751 -512,-665.10751 -640,-886.81001 -576,-997.66127 "
             id="polygon3"
             transform="matrix(1.099209,0,0,1.099209,-41.464483,-217.85283)" /><polygon
             fill="#77b6e1"
             points="640,-886.81001 448,-554.25626 624,-249.41532 496,-27.712813 -64,-997.66127 192,-997.66127 320,-775.95876 448,-997.66127 576,-997.66127 "
             id="polygon4"
             transform="matrix(1.099209,0,0,1.099209,-41.464483,-217.85283)" /><polygon
             fill="#77b6e1"
             points="448,997.66127 256,665.10751 -96,665.10751 -224,443.40501 896,443.40501 768,665.10751 512,665.10751 640,886.81001 576,997.66127 "
             id="polygon6"
             transform="matrix(1.099209,0,0,1.099209,-41.464483,-217.85283)" /></g></g></g></g></svg>
