<?xml version="1.0" encoding="UTF-8" standalone="no"?>
<!-- Created with Inkscape (http://www.inkscape.org/) -->

<svg
   width="1148"
   height="837"
   version="1.1"
   viewBox="0 0 1148 837"
   id="svg1"
   sodipodi:docname="Garuga-Emblem.svg"
   xml:space="preserve"
   inkscape:version="1.4.2 (ebf0e940d0, 2025-05-08)"
   xmlns:inkscape="http://www.inkscape.org/namespaces/inkscape"
   xmlns:sodipodi="http://sodipodi.sourceforge.net/DTD/sodipodi-0.dtd"
   xmlns="http://www.w3.org/2000/svg"
   xmlns:svg="http://www.w3.org/2000/svg"
   xmlns:rdf="http://www.w3.org/1999/02/22-rdf-syntax-ns#"
   xmlns:cc="http://creativecommons.org/ns#"
   xmlns:dc="http://purl.org/dc/elements/1.1/"><defs
     id="defs1" /><sodipodi:namedview
     id="namedview1"
     pagecolor="#ffffff"
     bordercolor="#666666"
     borderopacity="1.0"
     inkscape:showpageshadow="2"
     inkscape:pageopacity="0.0"
     inkscape:pagecheckerboard="0"
     inkscape:deskcolor="#d1d1d1"
     showgrid="false"
     showguides="true"
     inkscape:zoom="0.43966547"
     inkscape:cx="-105.76223"
     inkscape:cy="498.10598"
     inkscape:window-width="2558"
     inkscape:window-height="1392"
     inkscape:window-x="0"
     inkscape:window-y="0"
     inkscape:window-maximized="1"
     inkscape:current-layer="svg1"><inkscape:grid
       id="grid1"
       units="px"
       originx="0"
       originy="0"
       spacingx="1"
       spacingy="1"
       empcolor="#3f3fff"
       empopacity="0.25098039"
       color="#3f3fff"
       opacity="0.1254902"
       empspacing="5"
       enabled="true"
       visible="false" /><sodipodi:guide
       position="800,12"
       orientation="0,-1"
       id="guide2"
       inkscape:locked="false" /></sodipodi:namedview><metadata
     id="metadata1"><rdf:RDF><cc:Work
         rdf:about=""><dc:format>image/svg+xml</dc:format><dc:type
           rdf:resource="http://purl.org/dc/dcmitype/StillImage" /><dc:title /></cc:Work></rdf:RDF></metadata><path
     d="m 89.15,820.67 -3.1295,-1.3669 -3.4533,-9.0424 3.507,-10.655 8.4422,-8.5 h 9.1953 l 7.0678,3.3704 v 1.6296 h -6.0909 l -2.4545,2.4546 -2.4546,2.4545 0.0153,2.7955 0.0153,2.7954 1.8999,3 17.57,-0.0766 15.253,-5.5952 6.2965,-3.8292 1.9502,-5.1293 v -6.4248 l 3.1134,-4.445 h 3.747 l 12.64,5.8066 12,4.9832 16.631,4.4648 14.369,-1.0034 11.454,-4.3777 4.2467,-5.9639 0.1944,-6.8603 -4.7436,-5.0493 h -7.9763 l -9.522,6.1102 -8.4356,9.1516 0.70917,-2.8809 0.70916,-2.8809 6.3642,-12.599 9.5531,-12.76 9.4469,-7.869 12.044,-6.238 10.729,-2.0348 h 13.409 l 9.2821,2.7935 16.467,15.299 10.927,7.2526 14.066,5.9101 12.075,0.0878 6.3786,-3.3312 3.1214,-4.4564 v -3.8189 l -4.3349,-7.2361 -2.5826,-2.608 -2.5825,-2.608 -14.5,-9.2709 v -0.85005 l 13.5,-4.6062 18,0.0276 17.706,5.5427 0.95846,-0.95845 -22.665,-16.078 -20,-10.383 -13,-8.6412 -13.02,-12.566 -11.043,-13 -8.2473,-12.048 -10.876,-21.022 -6.2676,-16.93 -4.5454,-18 0.0636,-37 2.7614,-9.5 2.7614,-9.5 13.846,-28 1.9715,-6.186 1.9716,-6.186 1.0691,-9.5879 1.0691,-9.5878 -2.0764,-18.452 -5.6108,-12 -9.3837,-9.6352 -11,-4.8648 h -11.63 l -11.39,3.9189 -5.7816,4.1169 -4.141,6.7003 v 11.324 l 5,11.879 -0.0294,8.5603 -2.4705,4.8037 -1.5,0.81259 -1.5,0.81258 -31,14.924 -12.112,7.8525 -13.61,12.732 -7.7325,11.387 -5.0449,15.028 v 3.7651 l -2.7836,3.8068 -1.4098,-1.17 -1.4098,-1.17 -14.286,-2.3593 -9.172,-13.793 -5.9387,-10.977 0.008,-7.4549 4.2642,-7 12.395,-14 6.0641,-9 5.3443,-10.582 -0.57528,-28.627 7.5661,-14.515 11.333,-13.776 h 1.335 l 9.1221,-13.596 11.092,-22.067 5.0465,-18.837 0.003,-5.2125 0.003,-5.2125 -4.0855,-10.92 -7.8426,-7.0854 -5.2859,-2.785 -5.2874,-2.785 7.9198,-0.64576 12.08,3.376 7.7841,3.9553 9.5969,8.9767 6.5814,15.338 0.0376,23.349 5.8524,-7.3491 11.21,-11.146 17.044,-11.109 17.893,-8.3224 3.4713,-1.9213 19.529,-5.1514 16,-0.93289 -4.8612,3.5834 -19.139,8.0144 -12.437,6.7306 -15.063,12.904 v 2.0842 l 4.5,-1.313 13,-2.1684 20,1.0408 18.006,5.0988 11.975,5.296 16.405,10.693 17.536,17.031 -1.3596,1.3596 -4.5624,-2.9479 -10,-3.6674 -2,-1.4227 -19.985,-6.2994 -14.515,-1.2269 v 3.067 l 13.5,2.4924 12.948,4.8131 10.052,6.3679 11.754,11.053 11.407,15 7.6094,11.962 8.7292,15.781 v 1.1308 l -5.5,-5.0525 -12,-8.9937 -13.802,-7.6692 1.4067,5.8413 11.554,21 4.1365,10 1.0338,5.5 1.0338,5.5 0.60293,7 0.60292,7 -2.2102,20 -5.0658,15 -3.5181,6.3806 -3.5181,6.3806 -5.8624,8.6865 -0.94679,0.58515 -0.94679,0.58514 v -3.0204 l 3.1453,-11.598 0.57091,-15.25 0.5709,-15.25 h -4.3143 l -4.6854,10.5 -5.264,17 -0.99197,7 -0.99196,7 -0.0396,15.133 2.1897,11.867 4.7656,11.333 5.8511,8.6666 12.753,12.243 11.208,7.1694 13.733,6.6666 15,5.2793 18,4.9799 26,5.0793 31,4.2232 17.869,1.9566 7.8808,-0.59696 5.25,-10 v -21 l -6.7595,-11.93 -7.0289,-8.4089 -13.212,-10.74 -22,-15.827 -27.12,-27.095 -14.079,-19 -9.4596,-14.768 -9.775,-19.232 -4.2557,-10 -2.8326,-8 -2.8326,-8 -6.0591,-24 -0.99193,-8 -0.99192,-8 -2.3023,-25.668 1.1444,-13.666 1.1444,-13.666 2.0698,-17 2.8977,-12 2.8977,-12 8.171,-22 8.045,-24 5.9241,-26 1.0262,-10.923 1.0262,-10.923 -2.1442,-19.155 -4.7037,-15 -5.0941,-10.029 -9.5536,-12.709 -14.69,-12.534 -13.461,-7.0092 -17,-5.0909 -16.402,-2.2093 -10.35,1.373 -17.248,13.933 -5,1.9312 -11.689,3.0086 -5.8784,-2.4349 -4.0849,-5.2293 -25.255,-26 -14.359,-12.01 -15.289,-8.7475 -17.445,-6.1423 -30.5,0.27983 -0.009,-6.1901 -0.009,-6.1901 -0.5842,-5 -0.58421,-5 4.6858,-6.3816 11.949,-14.618 4.0506,-3.5454 7.8899,-4.1942 10.452,1.0787 22.658,9.9891 15,4.6222 18,-0.0256 17,-8.9245 21,-3.5e-4 17,5.8099 16.687,7.7222 8.3126,1.9191 15,0.0412 17,-2.7813 14,-4.5194 5.9955,-3.0959 5.9961,-3.0958 15.509,-14.765 v 6.8452 l -2.9833,11.454 -2.4545,4.8437 -2.4545,4.8437 -10.351,11.326 -12.071,7.0745 -9.6855,2.4787 2.3999,2.3999 h 2.6797 l 8.4203,4.2961 18,4.5642 15.278,4.1092 27.722,9.2597 21.137,8.5997 19.416,9.4472 1.0654,1.7239 -2.618,-0.0308 -15.837,-3.9903 -18.163,-2.1011 -19,0.62209 0.16603,1 0.16604,1 25.738,13.064 15.93,11.887 18.101,18.049 4.6261,6.5243 4.6261,6.5243 7.2304,12.792 5.7543,14.159 1.3761,4.7505 -2.18,-1.3473 -8.694,-13.403 -10.399,-11.344 -11.016,-7.312 -12,-4.0524 -6.8556,1.2861 -0.92256,1.4927 14.077,10.93 12.71,13.849 6.9753,14.151 3.2176,12 0.54703,14 0.54702,14 -1.6272,12.298 -1.6272,12.298 -1.1199,4.7022 -1.1199,4.7022 -0.51371,1.5 -0.5137,1.5 -2.4483,-20 -5.2084,-21.495 -4.2687,-8.5046 -4.065,-4.4384 -1.3263,0.81968 5.9225,32.619 0.166,35 -4.5501,19.828 -6.231,14.968 -9.6475,14.424 -3.3424,2.7739 0.76035,-3.4967 0.76036,-3.4967 0.45935,-22.38 0.45936,-22.38 -1.7626,-1.7626 -4.2911,10.523 -5.9241,19 -4.1011,17 -1.0562,6.5 -1.0562,6.5 -0.61319,13.5 -0.61318,13.5 2.3977,20.552 6.0893,20.448 9.8532,19.67 11.695,17.33 15.008,17 13.63,12 11.446,9 11.615,8 13.948,8.7438 11.094,6.0165 19,9.5412 20.96,9.3997 26.625,13.047 1.3561,-1.3561 -4.6549,-18.392 -9.4742,-19 -4.8493,-7 -25.775,-34.5 h -1.6885 l 0.008,15.5 2.4276,14.5 2.4276,14.5 2.215,5.7702 2.215,5.7702 -0.50337,0.50338 -0.50337,0.50337 -2.7863,-1.1203 -11.377,-15.717 -8.9959,-16.709 -6.0638,-16.708 -3.9777,-26.292 0.0364,-9 2.9764,-23 2.0786,-7 17.75,-37 0.67234,-2.8606 0.67234,-2.8606 -4.7723,1.4353 -10,6.1744 -12.993,10.111 -11.49,10.5 h -2.1947 l 12.415,-23.5 10.49,-16.152 11.569,-15.848 21.231,-21 15.55,-10.674 17.483,-8.6871 15.939,-5.7874 12.232,-2.5684 2.7678,-1.756 -6,-5.0615 -6,-3.3311 -23.558,-0.88349 -21.123,4.4542 -15.319,5.6984 -14.707,6.0959 h -0.79277 v -1.7156 l 14.136,-11.263 12.959,-7.2472 16.404,-6.9576 12.5,-3.8972 -0.125,-1.4196 -13.375,-11.53 -8,-7.5573 -17,-18 -9.967,-12.346 -1.4138,1.433 1.4738,11.5 1.4738,11.5 5.0846,20 5.615,14 -0.96832,1 -14.619,-15.461 -8.9842,-13.539 -5.3613,-10 -5.7187,-14.263 -2.3075,-9.3687 -2.3077,-9.3686 0.0706,-41 4.5164,-34 4.8765,-19.87 -0.89938,-0.89937 -6.5641,2.6307 -18,10.017 -10,6.5477 -9.5,7.0937 v -2.4035 l 10.432,-16.116 15.058,-20 23.01,-23.105 17.534,-12.403 16.466,-8.8861 17,-5.9846 22,-5.2131 22,-2.1826 3,-1.5909 -1.5,-0.42819 -1.5,-0.4282 -13,-3.4888 -21,-5.7165 -26.686,-0.0728 -20.314,4.0642 -22.653,7.1163 -0.49387,-0.49386 -0.49386,-0.49387 8.6406,-5.8476 11,-6.1906 10.709,-4.2079 18.291,-4.8535 23,-2.3363 31,1.2762 12,1.8415 22.87,4.2164 19.601,5.8232 1.9488,1.0429 1.9488,1.0429 h 3.1315 v -9.057 l -6.2038,-12.29 -16.296,-16.23 -22.361,-15.923 -3.6394,-2.3824 5,-0.0828 13.578,2.8772 18.913,9.2616 3.7965,4.8265 h 2.6107 l 41.101,40.517 17,9.7704 18,11.084 7.5,5.7968 v -1.8756 l -10.747,-22.793 -6.1625,-19 -4.1584,-17 -2.2296,-19 0.72596,-6.7267 0.72595,-6.7267 5.3458,-10.458 1,-0.29483 1,-0.29482 -0.67274,17.501 5.0299,19 4.9389,13 11.341,22.538 15.749,23.835 14.093,14.836 12.521,6.6153 16.87,11.044 15.355,15.355 5.3944,11.403 3.7339,19.373 3.46,7 10.55,12.151 10.638,8.1679 26,16.267 8.2533,8.5374 1.1242,5.2421 1.1242,5.2422 -4.1613,20.393 -2.6377,8 -1.0842,4.0429 -1.0842,4.0429 -6.5481,2.3678 -14.986,9.0131 -2.1015,0.0334 -4.5994,-9.5 -8.7463,-12.284 -15.021,-13.841 -15.257,-8.7292 -16.558,-6.5741 -23.718,-5.8777 -29,-4.29 -13.502,-2.0853 -3.8822,-3.319 -3.3079,-6.5 -3.3079,-6.5 v -33 l -4.5025,-8.4252 -8.1722,-8.091 -14.325,-9.3034 -14,-7.5192 -17,-5.1206 -16,-2.2573 -16.591,1.2352 -14.206,4.9631 -9.7814,6.2767 -6.9044,8.426 -6.4943,13.816 -0.0234,29 3.314,9 3.314,9 8.7892,16.156 11.583,16.17 17.833,20.298 8.6123,7.5808 14.554,4.4861 18,6.1691 16,5.7569 8.7231,2.8549 16.277,1.9845 27.376,2.1482 6.2567,1.7944 -0.31642,-0.79969 -0.31641,-0.7997 -20.451,-16.401 -13.058,-14.972 -6.2166,-12.315 -0.49268,-5.5558 -0.49268,-5.5558 1.8374,-7 h 2.8482 l 1.3667,9.5547 5.4361,9.2761 8.2789,8.2789 11.728,8.6638 20.699,9.7636 14.41,5.198 15.106,2.6952 13,0.1364 23.241,4.6882 14.457,7.5969 6.1535,6.1483 10.58,14.301 5.4129,4.2578 9.1556,4.1272 9,2.6226 19,3.1339 22.677,1.879 9.3054,5.7531 5.364,10.925 2.2283,12 2.2284,12 0.4438,3.6472 0.4439,3.6472 -8.6905,10.711 -4.9966,9.4943 h -1.2033 l -8.5921,-6.224 -9.208,-5.4083 -15,-5.3431 -13,-2.0094 -19.355,-0.016 -15.645,2.1106 -22,6.0039 -22,7.7856 -11.798,3.3284 -6.7222,-3.2056 -9.1591,-8.4426 -4.8332,-9.5379 -1.9905,-5.32 -1.9905,-5.32 -6.039,-9.5224 -12.468,-5.7917 -13,-2.0731 -6.25,-0.008 -6.25,-0.006 v 1.226 l 9.7102,17.274 2.2275,5 2.2275,5 6.7572,19 2.4724,10.5 2.4724,10.5 2.4124,24 -0.63305,12.5 -0.63304,12.5 -1.4475,22.5 -1.4475,22.5 -1.0954,14.5 -1.0954,14.5 -2.9034,22 -2.0155,11.377 -2.0155,11.377 -1.4966,4.4082 -1.4966,4.4082 -0.002,1.7151 -0.002,1.715 -5.5192,16.308 -5.5192,16.308 -11.58,24.383 -10.62,18 -12.615,18.5 5.3593,-0.0398 26,-2.8901 27,-4.905 14.303,-3.9151 14.697,-5.6113 11.185,-6.5498 10.254,-9.2193 6.5612,-13.328 -0.0375,-10.521 -0.0375,-10.521 -5.6966,-16 -5.3695,-10 -3.2749,-5.75 -3.2749,-5.75 -2.0748,-1.2823 1.4581,11.67 4.5732,20.112 1.7166,5.2019 1.7166,5.2019 -0.38018,1.1406 -0.38018,1.1405 -7.5989,-7.8296 -9.7815,-14.664 -6.3697,-15.191 -2.6181,-12 -0.0702,-18.324 1.4663,-7.6636 1.4663,-7.6636 6.1608,-18.089 -0.71602,-0.71602 -7.1711,9.456 -14.341,21.698 -0.53209,-0.53209 -0.53209,-0.5321 2.5002,-7.634 11.786,-26 8.3058,-14 5.9991,-8 9.0864,-10 8.8768,-7.4107 11.645,-6.2066 v -2.1613 l -9.5,1.1412 -12,5.4587 -18,9.9759 -3.5,3.0128 v -3.09 l 8.6694,-11.72 14.093,-13.24 8.7378,-5.9325 10,-5.2751 14,-4.9148 16,-2.1571 12,-0.48025 -11.763,-7.6434 -12.237,-5.5293 -16,-4.3346 -8.5,-2.0698 v -1.6729 l 6.25,-1.25 h 11.534 l 20.559,4.1215 12.157,4.1036 16,7.1005 6,4.1342 11.605,9.7687 0.81168,-0.81167 -2.8453,-11.917 -0.0356,-4.6447 -0.0356,-4.6447 1.9893,-6.4405 1.9893,-6.4405 5.9077,-8.1554 9.4328,-6.4899 14.681,-4.5296 v 1.7491 l -8.7698,6.0338 -5.0816,6.0392 -1.218,5.4426 -1.218,5.4426 2.3805,12.1 5.2177,11.538 9.9513,15 5.0158,6.2157 5.0157,6.2157 7.7184,5.3489 7.1018,7.4762 7.1017,7.4763 2.0124,4.5493 2.0123,4.5493 0.7605,9.6768 0.7604,9.6768 1.2563,2.4075 1.2562,2.4075 6.83415,9.4148 18.869,16.14 1.5116,2.9231 1.5116,2.9231 v 5.9482 l -2.9511,7.3256 -2.951,7.3256 -4.031,8.2649 -6.7594,1.2681 -8.2109,3.9671 h -0.8643 l -4.53435,-11.5 -6.6867,-10.322 -6.142,-5.5582 -6.1419,-5.5582 -8.6137,-4.4156 -8.6136,-4.4156 -12,-4.0928 -21,-6.3288 -2.393,-2.3089 -2.5134,-9.4686 3.4163,-9.5314 -0.01,-7.5993 -2.9282,-5.6624 -5.9928,-5.0426 -9.0835,-3.469 -12.768,1.0249 -10.656,5.7486 -6.3358,8.347 -2.1176,6.2707 -2.1176,6.2707 0.04,15.112 4.7292,18 2.6988,6 2.6988,6 11.914,16.45 5.955,12.726 1.5939,6.9124 1.5939,6.9124 0.9716,15.152 -4.3878,21.676 -5.7734,14.418 -7.0238,12.426 -9.5109,14.274 -20.889,21.685 -12.57,9.368 -25.123,13 -6.4188,3.4039 1.1193,0.096 31.467,-10.991 18.897,-2.2287 3.016,1.1574 v 2.1491 l -10.196,9.3923 -4.8038,8.1971 v 6.2782 l 4.7882,3.1374 5.7118,-1.3719 6,-3.0238 10.603,-8.6299 6.5806,-1.817 9.8166,1.5687 21,9.9164 10,4.0441 26,10.096 11,4.0172 25,6.5479 21.99995,0.061 5.7237,-2.6827 5.7238,-2.6826 4.045,-6.6347 v -5.3466 l -2.6303,-3.1259 -2.6302,-3.1259 -9.84,-4.9863 -12.4,-1.1548 -7.49995,3.1373 v 4.8063 l 2.2898,3.3979 2.2899,3.3979 h 6.84055 l 2.3587,-3.5 2.3586,-3.5 h 2.3624 l 0.2968,4.0317 0.2969,4.0317 -4.5937,4.2352 -4.7849,1.6007 -4.78495,1.6007 h -7.9943 l -6.8142,-2.8472 -2.6694,-4.2286 -2.6695,-4.2286 -0.5273,-5.8158 -0.5274,-5.8158 3.4414,-5.2522 11.331,-5.3118 23.99995,0.0886 15.867,6.5364 6.1331,4.1923 6.6753,6.1827 2.1503,4 2.1504,4 0.024,17 -4.6206,9.3806 -6.1642,6.0267 -7.2152,3.5927 -938.99995,0.43164 -3.1295,-1.3669 z m 601.4,-273.98 5.1928,-10.418 4.3308,-10.663 6.6753,-22 4.4291,-35.615 -3.5404,-24.385 -5.1027,-15 -7.8331,-16 -11.424,-16.881 -3.309,-1.988 -17.691,11.708 -11,8.53 -9.1873,8.6315 -8.3214,10.691 -6.8548,12.309 -3.1364,13.624 v 6.0215 l 4.2184,17.354 3.3977,6.5 3.3977,6.5 9.8047,13 26.36,29 12.846,19.5 h 1.5552 z m 291.81,-0.93315 0.5186,-1.3515 -2.1865,-6.3985 -2.1866,-6.3985 -6.7298,-9.2719 -4.8923,-3.2056 -2.8339,1.0875 -2.2709,4.9841 v 4.9059 h 2.8466 l 6.2099,5.2253 9.0604,11.775 h 1.9459 z m -833.38,-53.398 1.5094,-1.75 5.7911,-11 9.5,-9.5952 v -2.4405 l -4.9532,-7.2893 -4.1419,1.0831 -4.8253,6.3262 -4.972,10.916 -0.69174,7.75 -0.69173,7.75 h 1.9659 z m 731.75,-144.31 -3.101,-3.9153 -7.3481,-6.1203 -14.641,-6.9941 -10.359,-1.8913 -6,1.6176 -0.5942,6.9226 2.6139,7.9451 12.98,-0.64845 8,2.0604 20,5.862 0.77503,-0.46145 0.77504,-0.46145 z m -40.814,-165.51 -3.9922,-8.32 -13.255,-13.255 -6.8241,-2.8513 h -3.6938 l -3.2065,6.7241 -0.69551,4.6379 -0.6955,4.6379 h 4.8344 l 9.8927,4.9598 21,19.773 0.31371,-3.9936 0.3137,-3.9936 z m -552.24,-50.961 3.1036,-3.5348 v -3.7852 l -5.0509,-3.973 -14.42,-2.4322 -15.424,1.1894 -7.2811,3.0422 0.82178,2.4653 24.892,6.0631 6.9619,4.4663 1.6464,0.0168 1.6464,0.0169 3.1036,-3.5348 z"
     id="path1"
     style="display:inline;fill:#000000;fill-opacity:0;stroke:#ffffff;stroke-width:15;stroke-dasharray:none;stroke-opacity:1" /></svg>
