<?xml version="1.0" encoding="UTF-8" standalone="no"?>
<svg
   xmlns:dc="http://purl.org/dc/elements/1.1/"
   xmlns:cc="http://creativecommons.org/ns#"
   xmlns:rdf="http://www.w3.org/1999/02/22-rdf-syntax-ns#"
   xmlns:svg="http://www.w3.org/2000/svg"
   xmlns="http://www.w3.org/2000/svg"
   id="svg5105"
   version="1.1"
   viewBox="0 0 138 138"
   height="138"
   width="138">
  <defs
     id="defs5099" />
  <metadata
     id="metadata5102">
    <rdf:RDF>
      <cc:Work
         rdf:about="">
        <dc:format>image/svg+xml</dc:format>
        <dc:type
           rdf:resource="http://purl.org/dc/dcmitype/StillImage" />
        <dc:title></dc:title>
      </cc:Work>
    </rdf:RDF>
  </metadata>
  <g
     transform="translate(-26.038429,-10.000418)"
     id="layer1">
    <path
       d="m 155.06999,50.482411 c -3.80534,-4.346653 -8.97998,-7.398653 -14.61736,-8.627986 -0.028,-0.0067 -0.0507,-0.028 -0.0587,-0.056 -4.93995,-17.216 -20.80795,-29.200013 -38.74936,-29.200013 h -0.004 c -13.585281,0 -26.104001,6.730666 -33.595947,18.032 -0.01733,0.028 -0.05067,0.04133 -0.084,0.03333 -4.01464,-0.963987 -8.316,-0.330667 -11.886627,1.761333 -3.59604,2.108013 -6.262706,5.589347 -7.370693,9.601347 -0.0067,0.02667 -0.028,0.048 -0.056,0.05467 -8.94132,2.296 -16.003986,8.863987 -18.945319,17.645333 -2.98396,8.921333 -1.190667,18.58 4.795986,25.838666 l 0.423987,0.514667 4.360026,-3.601333 c 0.036,-0.02933 0.04133,-0.08133 0.012,-0.117334 -3.721266,-4.508 -5.725253,-10.289333 -5.14664,-16.106666 1.12272,-11.309333 10.65072,-19.288 21.250653,-19.288 0.64672,0 1.301347,0.02933 1.945387,0.088 l 0.663986,0.06 0.513347,-5.716013 -0.664067,-0.06 c -0.874586,-0.07867 -1.777266,-0.12 -2.667973,-0.109333 1.955974,-3.493347 5.748053,-5.53068 9.743987,-5.24936 0.05867,0.004 0.09467,0.06933 0.07067,0.122667 -0.404053,0.874666 -0.760013,1.724 -1.08268,2.578666 l -0.236013,0.624 5.369307,2.024 0.236,-0.622653 C 75.188626,25.071706 91.408599,15.90504 107.84065,18.898386 c 16.43733,2.996 28.37068,17.298666 28.37466,34.007999 v 0.666667 h 5.73731 v -0.666667 c 0,-1.541333 -0.0907,-3.092 -0.26668,-4.62532 -0.007,-0.06133 0.0547,-0.109333 0.11333,-0.08933 8.52931,3.035987 14.20264,10.98532 14.236,20.131986 0.009,4.421333 -1.33333,8.666667 -3.88134,12.277333 l -0.38534,0.545334 4.69336,3.304 0.38396,-0.545334 c 7.20402,-10.249333 6.47339,-23.993333 -1.77596,-33.422679 z"
       style="fill:#ffffff;fill-opacity:1;fill-rule:nonzero;stroke:none;stroke-width:1.33333"
       id="path2237" />
    <path
       d="m 50.992676,107.96376 c 0,1.21467 -0.986733,2.20133 -2.201333,2.20133 -1.216067,0 -2.20272,-0.98666 -2.20272,-2.20133 0,-1.21601 0.986653,-2.20267 2.20272,-2.20267 1.2146,0 2.201333,0.98666 2.201333,2.20267 z"
       style="fill:#ffffff;fill-opacity:1;fill-rule:nonzero;stroke:none;stroke-width:1.33333"
       id="path2239" />
    <path
       d="m 57.59929,107.96376 c 0,1.21467 -0.985267,2.20133 -2.201334,2.20133 -1.215986,0 -2.20264,-0.98666 -2.20264,-2.20133 0,-1.21601 0.986654,-2.20267 2.20264,-2.20267 1.216067,0 2.201334,0.98666 2.201334,2.20267 z"
       style="fill:#ffffff;fill-opacity:1;fill-rule:nonzero;stroke:none;stroke-width:1.33333"
       id="path2241" />
    <path
       d="m 64.207276,107.96376 c 0,1.21467 -0.986653,2.20133 -2.20264,2.20133 -1.215973,0 -2.202627,-0.98666 -2.202627,-2.20133 0,-1.21601 0.986654,-2.20267 2.202627,-2.20267 1.215987,0 2.20264,0.98666 2.20264,2.20267 z"
       style="fill:#ffffff;fill-opacity:1;fill-rule:nonzero;stroke:none;stroke-width:1.33333"
       id="path2243" />
    <path
       d="m 68.611337,105.76102 h 13.213592 v 4.40453 H 68.611337 Z"
       style="fill:#ffffff;fill-opacity:1;fill-rule:nonzero;stroke:none;stroke-width:1.33333"
       id="path2247" />
    <path
       d="m 50.992676,90.34509 c 0,1.216 -0.986733,2.202672 -2.201333,2.202672 -1.216067,0 -2.20272,-0.986672 -2.20272,-2.202672 0,-1.216 0.986653,-2.202667 2.20272,-2.202667 1.2146,0 2.201333,0.986667 2.201333,2.202667 z"
       style="fill:#ffffff;fill-opacity:1;fill-rule:nonzero;stroke:none;stroke-width:1.33333"
       id="path2251" />
    <path
       d="m 57.59929,90.34509 c 0,1.216 -0.985267,2.202672 -2.201334,2.202672 -1.215986,0 -2.20264,-0.986672 -2.20264,-2.202672 0,-1.216 0.986654,-2.202667 2.20264,-2.202667 1.216067,0 2.201334,0.986667 2.201334,2.202667 z"
       style="fill:#ffffff;fill-opacity:1;fill-rule:nonzero;stroke:none;stroke-width:1.33333"
       id="path2253" />
    <path
       d="m 64.207276,90.34509 c 0,1.216 -0.986653,2.202672 -2.20264,2.202672 -1.215973,0 -2.202627,-0.986672 -2.202627,-2.202672 0,-1.216 0.986654,-2.202667 2.202627,-2.202667 1.215987,0 2.20264,0.986667 2.20264,2.202667 z"
       style="fill:#ffffff;fill-opacity:1;fill-rule:nonzero;stroke:none;stroke-width:1.33333"
       id="path2255" />
    <path
       d="m 68.611337,88.143025 h 13.213592 v 4.404531 H 68.611337 Z"
       style="fill:#ffffff;fill-opacity:1;fill-rule:nonzero;stroke:none;stroke-width:1.33333"
       id="path2259" />
    <path
       d="M 81.824622,61.715757 H 48.791343 c -4.864013,0.0053 -8.80404,3.945334 -8.80932,8.809334 v 4.403999 c 0,2.530667 1.089267,4.938667 2.991934,6.606667 -1.902667,1.669333 -2.991934,4.076 -2.991934,6.606666 v 4.405339 c 0,2.53066 1.089267,4.937327 2.991934,6.606658 -1.902667,1.66933 -2.991934,4.076 -2.991934,6.60667 v 4.404 c 0.0053,4.864 3.945307,8.804 8.80932,8.80934 h 33.033279 c 4.864013,-0.005 8.80404,-3.94534 8.809333,-8.80934 v -4.404 c 0,-2.53067 -1.08928,-4.93734 -2.991946,-6.60667 1.902666,-1.669331 2.991946,-4.075998 2.991946,-6.606658 v -4.405339 c 0,-2.530666 -1.08928,-4.937333 -2.991946,-6.606666 1.902666,-1.668 2.991946,-4.076 2.991946,-6.606667 v -4.403999 c -0.0053,-4.864 -3.94532,-8.804 -8.809333,-8.809334 z m 4.40536,44.045333 v 4.404 c -0.004,2.432 -1.973306,4.40267 -4.40536,4.40534 H 48.791343 c -2.43204,-0.003 -4.402667,-1.97334 -4.40536,-4.40534 v -4.404 c 0.0027,-2.432 1.97332,-4.40134 4.40536,-4.404 h 33.033279 c 2.432054,0.003 4.401373,1.972 4.40536,4.404 z m 0,-17.618667 v 4.405339 c -0.004,2.431996 -1.973306,4.401327 -4.40536,4.403991 H 48.791343 c -2.43204,-0.0027 -4.402667,-1.971995 -4.40536,-4.403991 v -4.405339 c 0.0027,-2.430666 1.97332,-4.401333 4.40536,-4.403999 h 33.033279 c 2.432054,0.0027 4.401373,1.973333 4.40536,4.403999 z M 48.791343,79.334424 c -2.43204,-0.004 -4.402667,-1.973334 -4.40536,-4.405334 v -4.403999 c 0.0027,-2.432 1.97332,-4.401334 4.40536,-4.405334 h 33.033279 c 2.432054,0.004 4.401373,1.973334 4.40536,4.405334 v 4.403999 c -0.004,2.432 -1.973306,4.401334 -4.40536,4.405334 z"
       style="fill:#ffffff;fill-opacity:1;fill-rule:nonzero;stroke:none;stroke-width:1.33333"
       id="path2263" />
    <path
       d="m 50.992676,72.726424 c 0,1.216 -0.986733,2.202666 -2.201333,2.202666 -1.216067,0 -2.20272,-0.986666 -2.20272,-2.202666 0,-1.214667 0.986653,-2.201333 2.20272,-2.201333 1.2146,0 2.201333,0.986666 2.201333,2.201333 z"
       style="fill:#ffffff;fill-opacity:1;fill-rule:nonzero;stroke:none;stroke-width:1.33333"
       id="path2265" />
    <path
       d="m 57.59929,72.726424 c 0,1.216 -0.985267,2.202666 -2.201334,2.202666 -1.215986,0 -2.20264,-0.986666 -2.20264,-2.202666 0,-1.214667 0.986654,-2.201333 2.20264,-2.201333 1.216067,0 2.201334,0.986666 2.201334,2.201333 z"
       style="fill:#ffffff;fill-opacity:1;fill-rule:nonzero;stroke:none;stroke-width:1.33333"
       id="path2267" />
    <path
       d="m 64.207276,72.726424 c 0,1.216 -0.986653,2.202666 -2.20264,2.202666 -1.215973,0 -2.202627,-0.986666 -2.202627,-2.202666 0,-1.214667 0.986654,-2.201333 2.202627,-2.201333 1.215987,0 2.20264,0.986666 2.20264,2.201333 z"
       style="fill:#ffffff;fill-opacity:1;fill-rule:nonzero;stroke:none;stroke-width:1.33333"
       id="path2269" />
    <path
       d="M 68.611337,70.524859 H 81.824929 V 74.92939 H 68.611337 Z"
       style="fill:#ffffff;fill-opacity:1;fill-rule:nonzero;stroke:none;stroke-width:1.33333"
       id="path2273" />
    <path
       d="m 141.28597,72.726424 h -17.61866 c -4.8627,0.0067 -8.80265,3.946666 -8.80801,8.809333 v 13.213329 c 0.005,4.864004 3.94531,8.804004 8.80801,8.809334 h 17.61866 c 4.86401,-0.005 8.80265,-3.94533 8.80933,-8.809334 V 81.535757 c -0.007,-4.862667 -3.94532,-8.802667 -8.80933,-8.809333 z m 4.40397,8.809333 v 1.185333 c -1.33732,-0.777333 -2.85725,-1.186666 -4.40397,-1.185333 h -4.72534 c -1.67065,0.0067 -3.19734,-0.938667 -3.93994,-2.434667 l -0.75334,-1.505333 c -0.0787,-0.158667 -0.16406,-0.312 -0.25204,-0.464 h 9.67066 c 2.43205,0.0027 4.40137,1.973333 4.40397,4.404 z m 0,13.213329 c -0.003,2.432007 -1.97192,4.402669 -4.40397,4.405334 h -17.61866 c -2.43065,-0.0027 -4.40136,-1.973327 -4.40397,-4.405334 V 81.535757 c 0.003,-2.430667 1.97332,-4.401333 4.40397,-4.404 h 0.3213 c 1.67073,-0.0067 3.19734,0.938667 3.94002,2.434667 l 0.75334,1.505333 c 1.48266,2.992 4.53865,4.88 7.87866,4.869333 h 4.72534 c 2.43205,0.0027 4.40137,1.972 4.40397,4.404 z"
       style="fill:#ffffff;fill-opacity:1;fill-rule:nonzero;stroke:none;stroke-width:1.33333"
       id="path2277" />
    <path
       d="m 141.28597,114.57043 h -17.61866 c -4.8627,0.005 -8.80265,3.94533 -8.80801,8.80932 v 13.21334 c 0.005,4.86267 3.94531,8.80267 8.80801,8.80933 h 17.61866 c 4.86401,-0.007 8.80265,-3.94666 8.80933,-8.80933 v -13.21334 c -0.007,-4.86399 -3.94532,-8.80399 -8.80933,-8.80932 z m 4.40397,8.80932 v 1.18534 c -1.33732,-0.77867 -2.85725,-1.188 -4.40397,-1.18534 h -4.72534 c -1.67065,0.005 -3.19734,-0.93999 -3.93994,-2.43466 l -0.75334,-1.50533 c -0.0787,-0.16 -0.16406,-0.31333 -0.25204,-0.46533 h 9.67066 c 2.43205,0.003 4.40137,1.97332 4.40397,4.40532 z m 0,13.21334 c -0.003,2.432 -1.97192,4.40133 -4.40397,4.404 h -17.61866 c -2.43065,-0.003 -4.40136,-1.972 -4.40397,-4.404 v -13.21334 c 0.003,-2.432 1.97332,-4.40266 4.40397,-4.40532 h 0.3213 c 1.67073,-0.005 3.19734,0.93999 3.94002,2.43466 l 0.75334,1.50533 c 1.48266,2.992 4.53865,4.88134 7.87866,4.86933 h 4.72534 c 2.43205,0.003 4.40137,1.97334 4.40397,4.404 z"
       style="fill:#ffffff;fill-opacity:1;fill-rule:nonzero;stroke:none;stroke-width:1.33333"
       id="path2279" />
    <path
       d="m 92.836675,85.94109 v 4.404 h 6.6066 v 41.84266 c 0,1.21601 0.986735,2.20267 2.201335,2.20267 h 8.80941 v -4.404 h -6.60669 V 90.34509 h 6.60669 v -4.404 z"
       style="fill:#ffffff;fill-opacity:1;fill-rule:nonzero;stroke:none;stroke-width:1.33333"
       id="path2281" />
  </g>
</svg>
