<?xml version="1.0" encoding="UTF-8" standalone="no"?>
<svg
   xmlns:dc="http://purl.org/dc/elements/1.1/"
   xmlns:cc="http://creativecommons.org/ns#"
   xmlns:rdf="http://www.w3.org/1999/02/22-rdf-syntax-ns#"
   xmlns:svg="http://www.w3.org/2000/svg"
   xmlns="http://www.w3.org/2000/svg"
   id="svg5105"
   version="1.1"
   viewBox="0 0 138 138"
   height="138"
   width="138">
  <defs
     id="defs5099" />
  <metadata
     id="metadata5102">
    <rdf:RDF>
      <cc:Work
         rdf:about="">
        <dc:format>image/svg+xml</dc:format>
        <dc:type
           rdf:resource="http://purl.org/dc/dcmitype/StillImage" />
        <dc:title></dc:title>
      </cc:Work>
    </rdf:RDF>
  </metadata>
  <g
     transform="translate(-26.038429,-10.000418)"
     id="layer1">
    <path
       d="m 47.140365,31.647088 c -1.025306,0 -1.85196,-0.836 -1.85196,-1.858666 0,-1.02532 0.826654,-1.853334 1.85196,-1.853334 h 34.370693 c 1.022706,0 1.852053,0.828014 1.852053,1.853334 0,1.022666 -0.829347,1.858666 -1.852053,1.858666 z"
       style="fill:#ffffff;fill-opacity:1;fill-rule:nonzero;stroke:none;stroke-width:1.33333"
       id="path2285" />
    <path
       d="m 47.140365,51.183074 c -1.025306,0 -1.85196,-0.836 -1.85196,-1.859986 0,-1.02532 0.826654,-1.86 1.85196,-1.86 h 17.185387 c 1.025306,0 1.85864,0.83468 1.85864,1.86 0,1.023986 -0.833334,1.859986 -1.85864,1.859986 z"
       style="fill:#ffffff;fill-opacity:1;fill-rule:nonzero;stroke:none;stroke-width:1.33333"
       id="path2287" />
    <path
       d="m 47.140365,41.415088 c -1.025306,0 -1.85196,-0.835987 -1.85196,-1.86 0,-1.024013 0.826654,-1.851987 1.85196,-1.851987 h 34.370693 c 1.022706,0 1.852053,0.827974 1.852053,1.851987 0,1.024013 -0.829347,1.86 -1.852053,1.86 z"
       style="fill:#ffffff;fill-opacity:1;fill-rule:nonzero;stroke:none;stroke-width:1.33333"
       id="path2289" />
    <path
       d="m 134.16307,34.864408 h -0.001 c -1.78671,-1.786653 -4.15471,-2.76932 -6.66936,-2.76932 H 96.457751 v -2.938666 c 0,-3.129334 -1.22404,-6.078667 -3.45068,-8.303987 -2.22664,-2.226693 -5.176027,-3.452013 -8.30404,-3.452013 H 43.948392 c -3.129306,0 -6.078693,1.22532 -8.303946,3.452013 -2.226734,2.22532 -3.452067,5.174653 -3.452067,8.303987 v 20.797332 c 0,3.13732 1.225333,6.086667 3.45068,8.304 1.640053,1.648 3.687987,2.754667 5.944013,3.214667 v 6.838666 c 0,1.297334 1.058667,2.352 2.36132,2.352 0.632,0 1.228027,-0.246666 1.673347,-0.694666 l 8.258706,-8.26 h 25.281333 c 0.42,1.649333 1.26928,3.149333 2.46932,4.358666 1.781333,1.796 4.15332,2.785334 6.67732,2.785334 h 29.253332 l 8.26669,8.267999 c 0.45866,0.458667 1.06266,0.689334 1.66528,0.689334 0.60271,-0.0013 1.20671,-0.230667 1.66667,-0.689334 0.44132,-0.441333 0.68539,-1.033333 0.68539,-1.665333 v -6.901333 c 1.6293,-0.42 3.11466,-1.269333 4.31729,-2.470667 1.78532,-1.788 2.76937,-4.156 2.76937,-6.670666 V 41.535088 c 0,-2.514667 -0.98405,-4.882667 -2.76937,-6.67068 z M 43.948392,56.997754 c -1.873293,0 -3.638666,-0.734653 -4.973306,-2.069333 -1.33472,-1.336 -2.07072,-3.102667 -2.07072,-4.973333 V 29.156422 c 0,-1.872 0.734706,-3.638667 2.069333,-4.973347 1.337413,-1.334653 3.102707,-2.070653 4.974693,-2.070653 h 40.754639 c 1.870693,0 3.637373,0.736 4.973387,2.070653 1.33464,1.33468 2.069346,3.101347 2.069346,4.973347 v 20.797332 c 0,1.870667 -0.734706,3.63732 -2.07072,4.973347 -1.333333,1.334653 -3.099946,2.070653 -4.972013,2.070653 H 52.901765 c -0.62532,0 -1.217373,0.245334 -1.66536,0.693334 l -4.937346,4.930666 v -3.264 c 0,-1.301333 -1.05468,-2.36 -2.350667,-2.36 z M 132.22175,41.535088 v 17.877333 c 0,1.256 -0.49333,2.441333 -1.39071,3.338666 -0.896,0.896 -2.0826,1.390667 -3.33862,1.390667 -1.30135,0 -2.35872,1.058667 -2.35872,2.358667 v 3.262666 l -4.91863,-4.917333 c -0.44669,-0.454667 -1.04133,-0.704 -1.67464,-0.704 H 88.308418 c -1.264,0 -2.451987,-0.493333 -3.343987,-1.390667 -0.305347,-0.306666 -0.56804,-0.658666 -0.78004,-1.041333 h 0.51864 c 3.136067,0 6.085373,-1.225333 8.30404,-3.450666 2.22664,-2.218667 3.45068,-5.168014 3.45068,-8.304 v -13.148 h 31.034669 c 1.25602,0 2.44262,0.493347 3.33862,1.389333 0.89738,0.898667 1.39071,2.084014 1.39071,3.338667 z"
       style="fill:#ffffff;fill-opacity:1;fill-rule:nonzero;stroke:none;stroke-width:1.33333"
       id="path2291" />
    <path
       d="m 38.447099,93.62842 c 0.41332,1.121337 1.06664,2.131999 1.899973,2.960001 1.481374,1.481334 3.51604,2.401338 5.76132,2.401338 2.23868,0 4.281333,-0.920004 5.761307,-2.401338 1.480066,-1.48 2.400066,-3.522668 2.400066,-5.760001 v -4.54 c -1.718666,0.146667 -3.228026,-0.224 -4.406653,-0.716 -0.105333,0.512 -0.225347,1.010667 -0.378747,1.501334 -0.5826,1.894666 -1.5586,3.621333 -3.102626,4.863999 -1.56404,1.262667 -3.639974,1.992 -6.392,1.852 -0.49064,-0.02267 -1.003987,-0.07733 -1.54264,-0.161333 z m 48.094639,-12.16 H 102.86311 V 76.337754 H 90.295071 c -1.03068,0 -1.972,0.428 -2.652013,1.109333 -0.680014,0.68 -1.10132,1.613333 -1.10132,2.645333 z m 16.319982,3.712 H 86.541738 v 5.648 c 0,2.237333 0.918706,4.280001 2.39868,5.760001 1.479986,1.481334 3.522626,2.401338 5.76132,2.401338 2.245359,0 4.287999,-0.920004 5.761302,-2.401338 1.48007,-1.48 2.39868,-3.522668 2.39868,-5.760001 z m 50.87468,12.390668 c 0.99602,0.526661 1.87338,1.242665 2.59732,2.092 1.29738,1.529322 2.07602,3.501332 2.07602,5.641342 v 23.46533 c 0,1.02533 -0.82666,1.85333 -1.85198,1.85333 -1.024,0 -1.86002,-0.828 -1.86002,-1.85333 v -23.46533 c 0,-1.23601 -0.4493,-2.37201 -1.19198,-3.24934 -0.65998,-0.77867 -1.55069,-1.35334 -2.56802,-1.62667 -1.95867,1.43066 -4.36532,2.27333 -6.96135,2.27333 -2.68799,0 -5.17196,-0.89867 -7.17196,-2.42133 -0.37867,0.0427 -0.74405,0.148 -1.09472,0.30933 -0.47729,0.224 -0.91195,0.56801 -1.264,1.03067 l -9.97063,13.20667 c -0.35066,0.46267 -0.89737,0.744 -1.47997,0.744 h -12.77873 c -0.94662,0 -1.80266,0.37866 -2.42,0.99467 -0.61727,0.62532 -1.0026,1.48133 -1.0026,2.42132 0,0.94801 0.38533,1.80401 1.0026,2.42134 0.61734,0.61867 1.47338,1.004 2.42,1.004 h 15.26269 c 0.61068,0 1.08,-0.064 1.66399,-0.35867 1.08,-0.54 2.09065,-2.18133 2.82665,-3.164 l 6.60401,-8.736 c 0.61735,-0.82133 1.77466,-0.98267 2.59464,-0.36533 0.8147,0.61733 0.97608,1.78133 0.35872,2.59733 l -6.28002,8.32 v 16.18267 h 21.45068 v -10.65867 c 0,-1.02533 0.83602,-1.85333 1.86002,-1.85333 1.02532,0 1.85198,0.828 1.85198,1.85333 v 12.51733 c 0,1.02534 -0.82666,1.85333 -1.85198,1.85333 H 33.527086 c -1.024,0 -1.860027,-0.82799 -1.860027,-1.85333 v -12.51733 c 0,-1.02533 0.836027,-1.85333 1.860027,-1.85333 1.024013,0 1.851973,0.828 1.851973,1.85333 v 10.65867 h 21.460039 v -16.18267 l -6.287999,-8.32 c -0.617347,-0.816 -0.45736,-1.98 0.364013,-2.59733 0.814613,-0.61734 1.9786,-0.456 2.597333,0.36533 l 6.454587,8.54667 c 0.58936,0.77867 1.180013,1.56533 1.768066,2.35067 0.33732,0.44133 0.751947,0.77866 1.208014,1.00266 0.51196,0.26 0.989333,0.35867 1.550613,0.35867 h 15.37468 c 0.940013,0 1.795973,-0.38533 2.421293,-1.004 0.61736,-0.61733 0.99472,-1.47333 0.99472,-2.42134 0,-0.93999 -0.37736,-1.796 -0.99472,-2.42132 -0.62532,-0.61601 -1.48128,-0.99467 -2.421293,-0.99467 h -12.78532 c -0.56136,0 -1.114667,-0.26 -1.479987,-0.744 l -9.972,-13.20667 c -0.568039,-0.74933 -1.417319,-1.23467 -2.357346,-1.34 -1.99332,1.516 -4.477373,2.42133 -7.16536,2.42133 -2.594653,0 -5.00928,-0.84267 -6.96664,-2.26666 -0.997306,0.26 -1.881346,0.82666 -2.54004,1.58533 -0.758626,0.884 -1.222653,2.028 -1.222653,3.28401 v 23.70399 c 0,1.024 -0.82796,1.852 -1.850667,1.852 -1.025306,0 -1.861333,-0.828 -1.861333,-1.852 v -23.70399 c 0,-2.16935 0.808027,-4.16801 2.134693,-5.704015 0.71468,-0.82133 1.577307,-1.515991 2.548014,-2.027995 -1.38404,-1.986664 -2.11336,-4.329333 -2.11336,-6.744 v -10.736 c 0,-2.056 0.834626,-3.922666 2.18936,-5.276 1.354666,-1.347999 3.213306,-2.189333 5.27068,-2.189333 h 8.818599 c 2.057374,0 3.922694,0.841334 5.277347,2.189333 1.354653,1.353334 2.189373,3.22 2.189373,5.276 v 10.736 c 0,2.378667 -0.7094,4.603996 -1.924,6.462669 1.005293,0.50533 1.85328,1.200002 2.534667,2.098663 l 9.410653,12.461338 h 7.42936 v -7.528 c 0,-2.13334 1.130613,-4.064 2.961266,-5.698667 1.418694,-1.263998 3.284014,-2.364004 5.34668,-3.234671 -0.58936,-1.410665 -0.910653,-2.947999 -0.910653,-4.561332 v -10.736 c 0,-2.057333 0.841306,-3.922666 2.189293,-5.276 1.354733,-1.347999 3.220053,-2.190666 5.27604,-2.190666 h 14.427989 c 1.024,0 1.85872,0.836 1.85872,1.86 V 90.82842 c 0,1.522667 -0.29338,2.982667 -0.82138,4.329337 2.21738,0.870667 4.22535,1.993327 5.7413,3.297334 1.9427,1.671999 3.14404,3.662659 3.14404,5.866659 v 7.52934 h 7.42936 l 9.41065,-12.461338 c 0.69465,-0.913329 1.56535,-1.614664 2.53996,-2.092 -1.22128,-1.865336 -1.93067,-4.090665 -1.93067,-6.469332 v -10.736 c 0,-2.057333 0.84399,-3.922666 2.19067,-5.276 1.35465,-1.347999 3.22136,-2.190666 5.27604,-2.190666 h 8.82129 c 2.05599,0 3.9227,0.841333 5.27735,2.190666 1.34668,1.353334 2.18937,3.22 2.18937,5.276 v 10.736 c -0.001,2.413333 -0.73738,4.757336 -2.11336,6.742668 z m -2.1053,-3.942668 c -0.53199,0.084 -1.052,0.138667 -1.54274,0.161333 -2.74397,0.14 -4.82128,-0.589333 -6.38662,-1.852 -1.55071,-1.242666 -2.52532,-2.969333 -3.108,-4.863999 -0.14664,-0.490667 -0.27336,-0.989334 -0.37199,-1.501334 -1.18539,0.492 -2.68799,0.862667 -4.41333,0.716 v 4.54 c 0,2.237333 0.91862,4.280001 2.39998,5.760001 1.47999,1.481334 3.52271,2.401338 5.76668,2.401338 2.23999,0 4.28134,-0.920004 5.76262,-2.401338 0.82674,-0.828002 1.48006,-1.838664 1.8934,-2.960001 z m -15.82268,-11.06 c 2.47729,0.350667 4.28801,-1.086666 4.60929,-1.368 0.3654,-0.308 0.7094,-0.497333 1.20671,-0.518666 1.0253,-0.04933 1.88802,0.737333 1.93733,1.761333 0.0627,1.206667 0.23203,2.428 0.57463,3.544 0.37866,1.241333 0.976,2.336 1.88134,3.065333 0.89071,0.716 2.14804,1.124 3.89471,1.038667 0.67333,-0.03467 1.41064,-0.14 2.22395,-0.322667 v -9.676 c 0,-1.032 -0.42798,-1.965333 -1.10799,-2.645333 -0.68132,-0.681333 -1.61467,-1.109333 -2.64665,-1.109333 h -8.81999 c -1.03068,0 -1.96532,0.428 -2.64533,1.109333 -0.68132,0.68 -1.108,1.613333 -1.108,2.645333 z m -81.538655,0 v -2.476 c 0,-1.032 -0.421386,-1.965333 -1.1014,-2.645333 -0.68132,-0.681333 -1.621253,-1.109333 -2.65332,-1.109333 h -8.819986 c -1.024013,0 -1.965333,0.428 -2.646653,1.109333 -0.678707,0.68 -1.101307,1.613333 -1.101307,2.645333 v 9.676 c 0.807933,0.182667 1.543947,0.288 2.218667,0.324 1.746666,0.084 3.003986,-0.324 3.894613,-1.04 0.905346,-0.729333 1.501373,-1.824 1.888013,-3.065333 0.342693,-1.116 0.510667,-2.336 0.56804,-3.544 0.04933,-1.024 0.918613,-1.810667 1.935947,-1.761333 0.477386,0.02133 0.842693,0.197333 1.19336,0.505333 0.258626,0.232 2.097333,1.74 4.624026,1.381333 z m 31.457279,16.013328 c -1.93596,0.752004 -3.647946,1.705342 -4.869306,2.800012 -1.059973,0.93999 -1.713293,1.95066 -1.713293,2.93999 v 7.52934 h 0.72396 c 1.964026,0 3.753333,0.79999 5.044026,2.092 1.291987,1.29067 2.091947,3.07333 2.091947,5.04399 0,1.24134 -0.322667,2.408 -0.877267,3.42534 h 17.823969 c -0.55469,-1.01734 -0.87069,-2.184 -0.87069,-3.42534 0,-1.97066 0.79867,-3.75332 2.09065,-5.04399 1.292,-1.29201 3.07472,-2.092 5.04534,-2.092 h 0.71737 v -7.52934 c 0,-1.024 -0.70264,-2.07733 -1.83871,-3.05199 -1.33464,-1.14267 -3.1853,-2.133344 -5.25065,-2.884005 -0.23869,0.287994 -0.49064,0.569336 -0.75065,0.828002 -2.15332,2.154663 -5.121336,3.487993 -8.392002,3.487993 -3.262707,0 -6.238694,-1.33333 -8.385347,-3.487993 -0.202627,-0.204 -0.39868,-0.414673 -0.589347,-0.632009 z M 129.53507,126.12442 H 60.551098 v 10.764 h 68.983972 z"
       style="fill:#ffffff;fill-opacity:1;fill-rule:nonzero;stroke:none;stroke-width:1.33333"
       id="path2293" />
  </g>
</svg>
