<?xml version="1.0" encoding="UTF-8" standalone="no"?>
<svg
   xmlns:dc="http://purl.org/dc/elements/1.1/"
   xmlns:cc="http://creativecommons.org/ns#"
   xmlns:rdf="http://www.w3.org/1999/02/22-rdf-syntax-ns#"
   xmlns:svg="http://www.w3.org/2000/svg"
   xmlns="http://www.w3.org/2000/svg"
   id="svg5105"
   version="1.1"
   viewBox="0 0 138 138"
   height="138"
   width="138">
  <defs
     id="defs5099" />
  <metadata
     id="metadata5102">
    <rdf:RDF>
      <cc:Work
         rdf:about="">
        <dc:format>image/svg+xml</dc:format>
        <dc:type
           rdf:resource="http://purl.org/dc/dcmitype/StillImage" />
        <dc:title></dc:title>
      </cc:Work>
    </rdf:RDF>
  </metadata>
  <path
     id="path2231"
     style="fill:#ffffff;fill-opacity:1;fill-rule:nonzero;stroke:none;stroke-width:1.33333"
     d="m 82.829309,85.87133 v -0.0013 c -1.246666,-1.245331 -2.89868,-1.931996 -4.646653,-1.931996 h -18.35864 c -1.746666,0 -3.398679,0.686665 -4.646719,1.933329 -1.247974,1.245331 -1.93328,2.895996 -1.93328,4.645334 v 25.585323 c 0,1.74801 0.685306,3.39867 1.93328,4.64667 1.24536,1.24133 2.894693,1.92533 4.646719,1.92533 h 18.35864 c 1.753347,0 3.40536,-0.684 4.646653,-1.92666 1.24268,-1.24267 1.92668,-2.89334 1.92668,-4.64534 V 90.516664 c 0,-1.753336 -0.684,-3.402669 -1.92668,-4.645334 z m -3.421306,4.645334 v 25.585326 c 0,0.32134 -0.130667,0.628 -0.368,0.864 -0.23072,0.23068 -0.536054,0.35867 -0.857347,0.35867 h -18.35864 c -0.326653,0 -0.633386,-0.12666 -0.860026,-0.35333 -0.234693,-0.23866 -0.364013,-0.548 -0.364013,-0.86934 V 90.516664 c 0,-0.32667 0.128,-0.63333 0.360026,-0.864004 0.232014,-0.231994 0.538653,-0.359994 0.864013,-0.359994 h 18.35864 c 0.319987,0 0.625333,0.129333 0.864013,0.366668 0.23332,0.226664 0.361334,0.531993 0.361334,0.85733 z" />
  <path
     id="path2233"
     style="fill:#ffffff;fill-opacity:1;fill-rule:nonzero;stroke:none;stroke-width:1.33333"
     d="m 83.041309,25.335345 c 0,2.293306 -0.554693,4.462666 -1.541346,6.376 3.028,0.569333 5.753333,2.05732 7.856039,4.158639 2.72396,2.733347 4.41732,6.49068 4.41732,10.62668 v 13.365333 h 7.262698 c 2.26928,0 4.32528,0.925334 5.8133,2.413333 1.49602,1.496 2.42131,3.552 2.42131,5.822667 0,2.26 -0.92529,4.325333 -2.42131,5.812 -1.48802,1.496 -3.54402,2.422666 -5.8133,2.422666 h -5.122724 v 14.654664 h 35.725334 c 0.51604,0 0.99472,-0.211996 1.33602,-0.553335 0.34131,-0.341329 0.55468,-0.819997 0.55468,-1.335998 V 24.136678 c 0,-0.522667 -0.21337,-0.99468 -0.55468,-1.336 -0.3413,-0.340013 -0.81998,-0.553347 -1.33602,-0.553347 H 83.041309 Z m -4.01596,-3.924013 c -3.164053,0.502666 -8.553386,0.556013 -12.970693,-3.428 -1.517346,0.910666 -4.022626,1.988 -7.073333,1.66 v 5.692013 c 0,2.74932 1.12264,5.261333 2.94532,7.074666 1.813307,1.813334 4.317373,2.943987 7.07332,2.943987 2.756027,0 5.260013,-1.130653 7.081373,-2.943987 1.814627,-1.813333 2.944013,-4.325346 2.944013,-7.074666 z M 58.981323,15.605998 c 2.156013,0.372 4.364013,-0.334666 5.996013,-1.75332 0.83464,-0.720013 2.102627,-0.629333 2.82268,0.20532 3.682614,4.226667 8.819987,3.801334 11.22664,3.29468 v -4.912013 c 0,-1.296 -0.531987,-2.4813465 -1.38932,-3.3386665 C 76.779989,8.2446652 75.595989,7.7126652 74.297323,7.7126652 H 63.701296 c -1.29728,0 -2.473306,0.532 -3.330653,1.3893333 -0.857333,0.85732 -1.38932,2.0426665 -1.38932,3.3386665 z M 91.898642,76.332663 H 73.545296 c -1.108,0 -2.003986,-0.904 -2.003986,-2.011999 0,-1.108 0.895986,-2.010667 2.003986,-2.010667 h 27.490724 c 1.16129,0 2.2093,-0.472 2.97461,-1.237333 0.76668,-0.768 1.24536,-1.821334 1.24536,-2.976 0,-1.16 -0.47868,-2.216 -1.24536,-2.982667 -0.76531,-0.758667 -1.81332,-1.237333 -2.97461,-1.237333 H 36.96399 c -1.156,0 -2.209306,0.478666 -2.975986,1.237333 -0.76668,0.766667 -1.237307,1.822667 -1.237307,2.982667 0,1.154666 0.470627,2.208 1.237307,2.976 0.76668,0.765333 1.82128,1.237333 2.975986,1.237333 h 38.182706 c 1.107987,0 2.010653,0.902667 2.010653,2.010667 0,1.107999 -0.902666,2.011999 -2.010653,2.011999 H 46.10795 v 52.065327 c 0,0.51467 0.213387,0.98667 0.554693,1.33467 0.341307,0.34267 0.819987,0.55467 1.336014,0.55467 h 28.462652 c 1.10668,0 2.010654,0.90266 2.010654,2.012 0,1.10667 -0.903974,2.00267 -2.010654,2.00267 H 47.998657 c -1.62532,0 -3.104,-0.66001 -4.17464,-1.73067 -1.07072,-1.06934 -1.730707,-2.54934 -1.730707,-4.17334 V 95.001995 H 6.3599912 c -1.62264,0 -3.104,-0.660003 -4.1666666,-1.730661 C 1.1239913,92.201998 0.45601797,90.721996 0.45601797,89.097994 V 24.136678 c 0,-1.632 0.66797333,-3.104013 1.73730663,-4.173346 1.0626666,-1.070654 2.5440266,-1.738667 4.1666666,-1.738667 H 54.958617 v -5.784 c 0,-2.405333 0.986733,-4.5906798 2.572026,-6.1773198 1.578694,-1.5786799 3.765387,-2.5653466 6.170653,-2.5653466 h 10.596027 c 2.40536,0 4.590666,0.9866667 6.178626,2.5653466 1.5774,1.58664 2.56536,3.7719868 2.56536,6.1773198 v 5.784 h 48.596021 c 1.62532,0 3.104,0.669333 4.17603,1.738667 1.06933,1.069333 1.73063,2.541346 1.73063,4.173346 v 64.961316 c 0,1.624002 -0.66,3.104004 -1.73063,4.17334 -1.06935,1.070658 -2.55071,1.730661 -4.17473,1.730661 H 95.913296 v 33.395995 c 0,1.624 -0.667974,3.104 -1.737307,4.17467 -1.063973,1.06933 -2.54264,1.72934 -4.167973,1.72934 h -16.46272 c -1.106613,0 -2.001306,-0.896 -2.001306,-2.00267 0,-1.10934 0.894693,-2.012 2.001306,-2.012 h 16.46272 c 0.515946,0 0.98796,-0.212 1.329266,-0.55467 0.34936,-0.348 0.562747,-0.82 0.562747,-1.33467 V 76.332663 h -0.0013 z m -49.805332,0 h -5.12932 c -2.262693,0 -4.319986,-0.928 -5.814693,-2.422666 -1.48796,-1.486667 -2.413333,-3.552 -2.413333,-5.813333 0,-2.269334 0.925373,-4.325334 2.413333,-5.821334 1.494707,-1.487999 3.552,-2.413333 5.814693,-2.413333 h 7.270667 V 46.496664 c 0,-4.136 1.684013,-7.893333 4.416026,-10.62668 2.102614,-2.101319 4.819987,-3.589306 7.855947,-4.158639 -0.986653,-1.913334 -1.548013,-4.082694 -1.548013,-6.376 V 22.247331 H 6.3599912 c -0.5160267,0 -0.9853467,0.213334 -1.32796,0.553347 -0.3493733,0.34132 -0.56136,0.813333 -0.56136,1.336 v 64.961316 c 0,0.516001 0.2119867,0.994669 0.56136,1.334665 0.3426133,0.34134 0.8119333,0.554668 1.32796,0.554668 H 42.09331 Z m 30.837319,-37.523999 3.416014,10.078667 c 0.265373,0.789333 0.01467,1.64 -0.585294,2.156 l -5.394693,5.016 c -0.774653,0.721333 -1.966626,0.713333 -2.733306,0 l -5.441334,-5.062667 c -0.600013,-0.553333 -0.781333,-1.389333 -0.538733,-2.109333 l 3.422693,-10.078667 c -2.185306,-0.638666 -4.158613,-1.798666 -5.761319,-3.333333 -3.005374,0.03867 -5.691974,1.1 -7.823974,3.241333 -2.004066,1.997334 -3.241373,4.75068 -3.241373,7.78 v 13.365333 h 6.10132 V 45.919331 c 0,-1.114667 0.896,-2.010667 2.003987,-2.010667 1.10808,0 2.01204,0.896 2.01204,2.010667 V 59.861997 H 79.640016 V 45.919331 c 0,-1.114667 0.896,-2.010667 2.003987,-2.010667 1.108,0 2.01196,0.896 2.01196,2.010667 v 13.942666 h 6.101319 V 46.496664 c 0,-3.02932 -1.243973,-5.782666 -3.241293,-7.78 -2.138666,-2.138666 -4.81868,-3.202666 -7.823973,-3.241333 -1.609373,1.534667 -3.574707,2.694667 -5.761387,3.333333 z m -0.795986,10.14 -3.13468,-9.244 -3.1346,9.244 3.1346,2.905333 z" />
</svg>
