<?xml version="1.0" encoding="UTF-8" standalone="no"?>
<svg
   xmlns:dc="http://purl.org/dc/elements/1.1/"
   xmlns:cc="http://creativecommons.org/ns#"
   xmlns:rdf="http://www.w3.org/1999/02/22-rdf-syntax-ns#"
   xmlns:svg="http://www.w3.org/2000/svg"
   xmlns="http://www.w3.org/2000/svg"
   id="svg5105"
   version="1.1"
   viewBox="0 0 138 138"
   height="138"
   width="138">
  <defs
     id="defs5099" />
  <metadata
     id="metadata5102">
    <rdf:RDF>
      <cc:Work
         rdf:about="">
        <dc:format>image/svg+xml</dc:format>
        <dc:type
           rdf:resource="http://purl.org/dc/dcmitype/StillImage" />
        <dc:title></dc:title>
      </cc:Work>
    </rdf:RDF>
  </metadata>
  <g
     transform="translate(-26.038429,-10.000418)"
     id="layer1">
    <path
       d="m 73.995075,43.040435 c -1.074667,-0.924014 -2.505333,-1.766694 -4.15332,-2.448 0.348013,-1 0.524,-2.040027 0.524,-3.094694 V 25.000435 c 0,-0.996013 -0.810667,-1.805347 -1.805333,-1.805347 H 57.528435 c -1.618693,0 -3.148026,0.634667 -4.30668,1.786667 -1.152013,1.158667 -1.786666,2.686667 -1.786666,4.305333 v 8.210653 c 0,1.13068 0.198653,2.23468 0.58932,3.284027 -1.525307,0.67864 -2.851973,1.50132 -3.853307,2.39332 -1.564013,1.39732 -2.392013,3.002666 -2.392013,4.642666 v 10.697333 c 0,0.993334 0.807987,1.801334 1.801347,1.801334 0.99464,0 1.802653,-0.808 1.802653,-1.801334 V 47.816434 c 0,-0.59736 0.408,-1.276 1.182667,-1.962666 0.813346,-0.72936 1.971999,-1.409347 3.361319,-1.972013 0.09333,0.101333 0.189334,0.201333 0.286667,0.298666 1.786667,1.792 4.160027,2.779987 6.684,2.779987 2.52136,0 4.896,-0.986654 6.688026,-2.779987 0.144,-0.142653 0.28532,-0.29468 0.421307,-0.450666 1.485347,0.563986 2.74268,1.267986 3.648027,2.042666 0.833333,0.714667 1.27332,1.422667 1.27332,2.044013 v 10.698653 c 0,0.993334 0.807986,1.801334 1.801346,1.801334 0.993334,0 1.80132,-0.808 1.80132,-1.801334 V 47.816434 c 0,-1.697346 -0.87732,-3.349346 -2.536013,-4.775999 z m -7.238653,-9.48 v 3.937306 c 0,1.554667 -0.612014,3.024014 -1.724,4.136014 -1.105347,1.11068 -2.574667,1.72268 -4.13468,1.72268 -1.555987,0 -3.023973,-0.612 -4.135987,-1.724 -1.11068,-1.11068 -1.722653,-2.580027 -1.722653,-4.134694 v -3.937306 z m 0,-6.76268 v 3.158667 h -11.71732 v -0.669334 c 0,-0.658666 0.26,-1.28132 0.731973,-1.753333 0.473347,-0.474667 1.097334,-0.736 1.75736,-0.736 z"
       style="fill:#ffffff;fill-opacity:1;fill-rule:nonzero;stroke:none;stroke-width:1.33333"
       id="path2199" />
    <path
       d="m 61.155102,66.203087 c -15.304026,0 -27.756013,-12.450666 -27.756013,-27.755999 0,-15.304 12.451987,-27.755999 27.756013,-27.755999 15.305306,0 27.755986,12.451999 27.755986,27.755999 0,15.305333 -12.45068,27.755999 -27.755986,27.755999 z m 0,-50.178665 c -12.364013,0 -22.422679,10.058666 -22.422679,22.422666 0,12.363986 10.058666,22.422666 22.422679,22.422666 12.363973,0 22.422653,-10.05868 22.422653,-22.422666 0,-12.364 -10.05868,-22.422666 -22.422653,-22.422666 z"
       style="fill:#ffffff;fill-opacity:1;fill-rule:nonzero;stroke:none;stroke-width:1.33333"
       id="path2201" />
    <path
       d="m 141.76041,81.629754 c -1.07332,-0.925334 -2.50399,-1.768 -4.15198,-2.449334 0.34799,-1 0.524,-2.038666 0.524,-3.094666 V 63.588421 c 0,-0.996 -0.81066,-1.805334 -1.80533,-1.805334 h -11.03336 c -1.61732,0 -3.14665,0.634667 -4.30664,1.788 -1.15068,1.157334 -1.78536,2.686667 -1.78536,4.304 v 8.210667 c 0,1.132 0.19735,2.234666 0.58801,3.285333 -1.52532,0.677333 -2.85066,1.5 -3.85201,2.392 -1.56531,1.397333 -2.39197,3.002667 -2.39197,4.642666 v 10.697338 c 0,0.993326 0.80798,1.80133 1.80132,1.80133 0.99332,0 1.80134,-0.808004 1.80134,-1.80133 V 86.405753 c 0,-0.598666 0.40935,-1.277333 1.184,-1.963999 0.81331,-0.729334 1.972,-1.408 3.36132,-1.972 0.0933,0.101333 0.18934,0.201333 0.28667,0.298666 1.78532,1.793334 4.16,2.78 6.684,2.78 2.51999,0 4.896,-0.986666 6.68799,-2.778666 0.14266,-0.144 0.28402,-0.296 0.42134,-0.452 1.48532,0.564 2.74268,1.268 3.64799,2.044 0.832,0.714666 1.27336,1.421333 1.27336,2.043999 v 10.697338 c 0,0.993326 0.80799,1.80133 1.80131,1.80133 0.99333,0 1.80136,-0.808004 1.80136,-1.80133 V 86.405753 c 0,-1.697333 -0.87736,-3.349333 -2.53736,-4.775999 z m -7.23864,-9.481334 v 3.937334 c 0,1.554666 -0.61203,3.024 -1.72267,4.136 -1.10535,1.110666 -2.57465,1.722666 -4.13603,1.722666 -1.55598,0 -3.024,-0.612 -4.13464,-1.724 -1.11068,-1.110666 -1.72269,-2.58 -1.72269,-4.134666 V 72.14842 Z m 0.001,-6.761333 v 3.158667 h -11.71736 v -0.670667 c 0,-0.658666 0.25867,-1.281333 0.73067,-1.752 0.47334,-0.474666 1.09733,-0.736 1.75733,-0.736 z"
       style="fill:#ffffff;fill-opacity:1;fill-rule:nonzero;stroke:none;stroke-width:1.33333"
       id="path2203" />
    <path
       d="m 128.92174,104.79109 c -15.30533,0 -27.75597,-12.450674 -27.75597,-27.756003 0,-15.304 12.45064,-27.755986 27.75597,-27.755986 15.304,0 27.75603,12.451986 27.75603,27.755986 0,15.305329 -12.45203,27.756003 -27.75603,27.756003 z m 0,-50.178669 c -12.36396,0 -22.42264,10.058666 -22.42264,22.422666 0,12.364 10.05868,22.422669 22.42264,22.422669 12.36403,0 22.42269,-10.058669 22.42269,-22.422669 0,-12.364 -10.05866,-22.422666 -22.42269,-22.422666 z"
       style="fill:#ffffff;fill-opacity:1;fill-rule:nonzero;stroke:none;stroke-width:1.33333"
       id="path2205" />
    <path
       d="m 73.995075,124.14709 c -1.074667,-0.924 -2.505333,-1.76667 -4.15332,-2.448 0.348013,-1.00133 0.524,-2.04 0.524,-3.096 v -12.49733 c 0,-0.99467 -0.810667,-1.80401 -1.805333,-1.80401 H 57.528435 c -1.618693,0 -3.148026,0.63467 -4.30668,1.78667 -1.152013,1.15866 -1.786666,2.68667 -1.786666,4.30533 v 8.20934 c 0,1.132 0.198653,2.23599 0.58932,3.28533 -1.525307,0.67734 -2.851973,1.50133 -3.853307,2.39333 -1.564013,1.39734 -2.392013,3.00267 -2.392013,4.64267 v 10.69734 c 0,0.99332 0.807987,1.80133 1.801347,1.80133 0.99464,0 1.802653,-0.80801 1.802653,-1.80133 v -10.69867 c 0,-0.59867 0.408,-1.27734 1.182667,-1.96267 0.813346,-0.73067 1.971999,-1.40933 3.361319,-1.97334 0.09333,0.10267 0.189334,0.20267 0.286667,0.30001 1.786667,1.79199 4.160027,2.78 6.684,2.78 2.52136,0 4.896,-0.98801 6.688026,-2.78 0.144,-0.14267 0.28532,-0.29467 0.421307,-0.45201 1.485347,0.56534 2.74268,1.26934 3.648027,2.044 0.833333,0.71467 1.27332,1.42134 1.27332,2.04401 v 10.69867 c 0,0.99332 0.807986,1.80133 1.801346,1.80133 0.993334,0 1.80132,-0.80801 1.80132,-1.80133 v -10.69867 c 0,-1.69734 -0.87732,-3.34934 -2.536013,-4.776 z m -7.238653,-9.48 v 3.936 c 0,1.556 -0.612014,3.02533 -1.724,4.136 -1.105347,1.112 -2.574667,1.724 -4.13468,1.724 -1.555987,0 -3.023973,-0.612 -4.135987,-1.724 -1.11068,-1.11067 -1.722653,-2.58 -1.722653,-4.136 v -3.936 z m 0,-6.76267 v 3.15866 h -11.71732 v -0.66933 c 0,-0.65999 0.26,-1.28133 0.731973,-1.75333 0.473347,-0.47467 1.097334,-0.736 1.75736,-0.736 z"
       style="fill:#ffffff;fill-opacity:1;fill-rule:nonzero;stroke:none;stroke-width:1.33333"
       id="path2207" />
    <path
       d="m 61.155102,147.30975 c -15.304026,0 -27.756013,-12.452 -27.756013,-27.756 0,-15.30533 12.451987,-27.755998 27.756013,-27.755998 15.305306,0 27.755986,12.450668 27.755986,27.755998 0,15.304 -12.45068,27.756 -27.755986,27.756 z m 0,-50.178665 c -12.364013,0 -22.422679,10.058665 -22.422679,22.422665 0,12.36401 10.058666,22.42267 22.422679,22.42267 12.363973,0 22.422653,-10.05866 22.422653,-22.42267 0,-12.364 -10.05868,-22.422665 -22.422653,-22.422665 z"
       style="fill:#ffffff;fill-opacity:1;fill-rule:nonzero;stroke:none;stroke-width:1.33333"
       id="path2209" />
    <path
       d="m 83.539718,48.538774 2.890036,-4.482613 24.020186,15.486328 -2.89004,4.482612 z"
       style="fill:#ffffff;fill-opacity:1;fill-rule:nonzero;stroke:none;stroke-width:1.33333"
       id="path2213" />
    <path
       d="m 83.538885,106.78342 24.022355,-15.482312 2.88932,4.483072 -24.022352,15.48231 z"
       style="fill:#ffffff;fill-opacity:1;fill-rule:nonzero;stroke:none;stroke-width:1.33333"
       id="path2217" />
    <path
       d="m 58.488619,63.536317 h 5.333333 v 30.927734 h -5.333333 z"
       style="fill:#ffffff;fill-opacity:1;fill-rule:nonzero;stroke:none;stroke-width:1.33333"
       id="path2221" />
  </g>
</svg>
