<svg xmlns="http://www.w3.org/2000/svg" width="2048pt" height="1054.572" preserveAspectRatio="xMidYMid" version="1.0" viewBox="0 0 2048 790.929"><g style="fill:#fff;fill-opacity:1"><path d="M3975 8133c-767-66-1434-334-2040-817-133-107-430-405-534-537-176-224-329-463-439-684-189-383-323-858-361-1282-26-290-9-707 40-983 53-301 170-670 297-933l37-77 300 230c484 371 458 349 449 368-30 65-127 378-148 477-75 360-75 773-1 1143 58 283 216 667 375 911 39 60 58 97 52 105-197 257-422 556-422 560 0 3 220 6 489 6h488l68 52c186 140 504 310 727 387 149 51 369 105 523 128 170 25 601 25 770 0 446-66 861-234 1222-494l102-73 636 2 636 3-107 135c-133 167-408 443-575 576-376 301-817 531-1262 658-374 108-658 147-1052 144-126-1-248-3-270-5" style="display:inline;fill:#fff;fill-opacity:1" transform="matrix(.1058 0 0 -.1058 -25.602 860.985)"/><path d="M1881 6373c62-82 136-177 164-213s298-389 600-785 577-757 612-801l63-81-338-259c-185-142-490-376-677-519s-443-339-570-435c-126-96-338-257-470-359s-415-320-630-484c-214-165-391-303-393-308s517-9 1227-9h1231l93 73c231 184 1422 1090 1433 1091 7 0 191-233 409-519 219-286 419-548 446-583l49-62h985c542 0 985 3 985 7 0 8-153 210-715 943-501 653-888 1166-889 1178-1 13 658 526 1264 984 130 99 498 380 1244 953 194 149 370 284 392 302l39 32-1233 1H5969l-696-532c-382-293-698-533-702-532-7 0-61 70-511 662l-305 401-993 1h-993z" style="display:inline;fill:#fff;fill-opacity:1" transform="matrix(.1058 0 0 -.1058 -25.602 860.985)"/><path d="M7290 5514c-212-162-384-298-384-302 1-4 14-59 29-123l27-116 85 84c180 178 425 340 673 444 30 12 57 24 59 25 5 5-91 284-98 284-3 0-179-133-391-296m1400 105c-281-23-587-85-805-163-225-82-479-226-646-369-292-249-509-615-574-966-48-263 20-490 210-689 290-306 845-462 1640-462 426 0 865 45 1148 116 485 122 791 339 862 609 8 33 15 70 15 82v23H8985l-30-57c-47-91-144-187-233-231-76-37-77-37-201-37-147 0-235 22-311 78-56 41-103 127-121 215-12 63-8 268 7 305 6 16 87 17 1259 17h1253l20 78c40 151 46 198 46 352 1 158-8 220-46 340-129 403-512 656-1118 739-219 30-580 39-820 20m350-575c78-26 162-111 184-184 19-62 21-167 5-240l-11-50h-928v28c0 45 27 137 59 201 63 124 175 214 311 251 97 26 294 23 380-6m4600 556c-348-59-693-213-1007-450-27-19-43-27-43-18 0 7 14 87 30 176 17 90 30 171 30 180 0 16-57 17-742 14l-743-2-68-318c-38-174-99-459-137-632s-103-475-145-670c-114-531-164-762-170-787l-5-23h780c429 0 780 1 780 3 0 15 260 1389 266 1410 9 29 183 205 249 252 144 103 287 146 420 127 177-24 245-107 245-296 0-120-13-204-114-761-47-259-92-513-101-565s-18-103-21-112c-5-17 36-18 755-18h761l5 23c2 12 36 189 75 392 39 204 91 471 115 595 61 315 79 478 72 670-9 228-43 359-129 492-118 183-322 291-618 327-132 17-418 12-540-9M6736 3285c-26-56-74-146-106-200l-58-98 100-131c55-72 187-244 292-383s194-252 198-253c12 0 154 202 236 338 68 111 212 380 212 395 0 2-33 12-72 22-246 59-511 195-686 351l-68 62zm8319-377c-10-44-65-321-65-330 0-4 113-7 252-6l252 3 32 169c18 93 31 173 28 178-3 4-115 8-249 8h-245zm-4468-145c-33-168-156-800-236-1213-44-228-83-430-87-447l-6-33h246c135 0 246 1 246 3s23 115 50 252c28 137 50 250 50 252s75 3 168 3c227 0 365 23 512 85 216 90 384 282 438 500 87 344-35 568-357 658-71 20-104 21-541 25l-466 3zm807-353c67-34 89-67 94-139 6-84-19-153-78-211-72-73-131-91-322-97-147-6-158-5-158 12 0 18 78 429 86 454 3 10 37 12 167 10 150-4 166-6 211-29m7442 221c-16-88-32-164-35-170-4-6-42-11-86-13l-80-3-36-190-35-190 78-3c55-2 78-7 78-16 0-7-27-151-61-322-51-261-60-322-57-389 7-145 69-223 212-268 136-42 369-22 494 42l36 18 33 169c18 93 33 176 33 185 0 14-6 14-57-4-73-24-172-27-206-5-41 28-40 62 8 311 25 128 47 242 50 255 5 22 8 22 165 22 88 0 160 1 160 3 0 1 16 82 35 181 19 98 35 185 35 192 0 11-30 14-155 14-123 0-155 3-155 13 0 8 14 81 30 162 17 81 30 152 30 157 0 4-109 8-243 8h-242zm-4944-162c-139-17-313-88-437-179-75-56-171-156-225-237-82-123-140-305-140-442 0-77 32-198 72-274 70-135 229-248 398-283 103-22 297-14 399 16 395 114 682 464 681 832 0 157-52 280-165 394-76 76-172 132-275 158-75 19-220 26-308 15m155-439c36-21 61-44 80-77 25-43 28-57 28-138-1-76-5-99-27-147-56-121-170-206-291-215-74-6-118 6-176 47-64 47-86 98-86 200 1 104 28 172 102 251 69 75 146 109 243 109 65 0 82-4 127-30m2220 439c-88-12-174-41-267-91-288-154-470-455-473-778-1-164 42-280 145-387 108-112 272-173 467-173 232 0 404 65 599 229l53 44-112 113-113 113-35-28c-152-118-345-147-462-68-42 28-77 89-81 142l-3 40 460 5 460 5 13 60c23 106 27 292 8 378-44 197-174 333-361 380-80 20-214 28-298 16m129-368c65-29 104-101 104-187v-44h-480l15 36c29 70 99 155 150 181 71 37 149 42 211 14m-3396 358c-109-21-251-125-325-238-16-23-29-40-30-39-2 2 8 57 21 123 12 66 23 126 24 133 0 9-54 12-240 12h-240l-5-22c-3-13-61-313-130-668s-127-655-130-667l-5-23h486l51 263c56 282 73 336 139 437 78 118 176 173 339 188l78 7 49 245c26 135 48 248 48 253 0 9-72 7-130-4m4780-3c-249-56-468-215-596-432-88-151-118-269-112-437 9-230 105-384 299-481 110-56 194-71 349-63 134 7 207 25 309 75 81 39 231 150 275 203 27 32 28 34 9 49-10 8-71 59-135 113-63 53-119 97-122 97-4 0-30-18-58-41-100-79-195-108-287-88-197 42-227 325-54 510 66 71 140 104 228 103s144-27 187-89c18-25 35-45 39-45 6 0 356 224 367 235s-59 113-114 165c-71 68-155 112-249 129-76 14-265 12-335-3m-2803-13c-3-5-46-219-96-478-154-790-170-867-189-899-24-42-93-76-157-76h-51l-30-155c-19-97-27-158-21-162 5-3 71-8 146-10 294-10 458 71 560 277 38 78 47 113 111 435 165 836 207 1060 203 1068-2 4-109 7-238 7s-236-3-238-7M2795 2073l-48-38-616-5-616-5 110-114c336-347 758-637 1205-826 839-356 1784-385 2658-80 385 134 792 365 1116 634 102 84 396 369 396 383 0 5-332 8-739 8h-738l-94-44c-603-281-1275-335-1929-155-156 44-403 146-559 232-46 26-87 47-91 47s-28-17-55-37" style="display:inline;fill:#fff;fill-opacity:1" transform="matrix(.1058 0 0 -.1058 -25.602 860.985)"/></g></svg>