<svg version="1.0" xmlns="http://www.w3.org/2000/svg" xmlns:xlink="http://www.w3.org/1999/xlink" x="0" y="0" width="2400" height="649.4726218551723" viewBox="45.529400939941404 91.31656372070313 248.9412286376953 67.36688018798829" preserveAspectRatio="xMidYMid meet" color-interpolation-filters="sRGB"><g><defs><linearGradient id="92" x1="0%" y1="0%" x2="100%" y2="0%"><stop offset="0%" stop-color="#fa71cd"></stop> <stop offset="100%" stop-color="#9b59b6"></stop></linearGradient><linearGradient id="93" x1="0%" y1="0%" x2="100%" y2="0%"><stop offset="0%" stop-color="#f9d423"></stop> <stop offset="100%" stop-color="#f83600"></stop></linearGradient><linearGradient id="94" x1="0%" y1="0%" x2="100%" y2="0%"><stop offset="0%" stop-color="#0064d2"></stop> <stop offset="100%" stop-color="#1cb0f6"></stop></linearGradient><linearGradient id="95" x1="0%" y1="0%" x2="100%" y2="0%"><stop offset="0%" stop-color="#f00978"></stop> <stop offset="100%" stop-color="#3f51b1"></stop></linearGradient><linearGradient id="96" x1="0%" y1="0%" x2="100%" y2="0%"><stop offset="0%" stop-color="#7873f5"></stop> <stop offset="100%" stop-color="#ec77ab"></stop></linearGradient><linearGradient id="97" x1="0%" y1="0%" x2="100%" y2="0%"><stop offset="0%" stop-color="#f9d423"></stop> <stop offset="100%" stop-color="#e14fad"></stop></linearGradient><linearGradient id="98" x1="0%" y1="0%" x2="100%" y2="0%"><stop offset="0%" stop-color="#009efd"></stop> <stop offset="100%" stop-color="#2af598"></stop></linearGradient><linearGradient id="99" x1="0%" y1="0%" x2="100%" y2="0%"><stop offset="0%" stop-color="#ffcc00"></stop> <stop offset="100%" stop-color="#00b140"></stop></linearGradient><linearGradient id="100" x1="0%" y1="0%" x2="100%" y2="0%"><stop offset="0%" stop-color="#d51007"></stop> <stop offset="100%" stop-color="#ff8177"></stop></linearGradient><linearGradient id="102" x1="0%" y1="0%" x2="100%" y2="0%"><stop offset="0%" stop-color="#a2b6df"></stop> <stop offset="100%" stop-color="#0c3483"></stop></linearGradient><linearGradient id="103" x1="0%" y1="0%" x2="100%" y2="0%"><stop offset="0%" stop-color="#7ac5d8"></stop> <stop offset="100%" stop-color="#eea2a2"></stop></linearGradient><linearGradient id="104" x1="0%" y1="0%" x2="100%" y2="0%"><stop offset="0%" stop-color="#00ecbc"></stop> <stop offset="100%" stop-color="#007adf"></stop></linearGradient><linearGradient id="105" x1="0%" y1="0%" x2="100%" y2="0%"><stop offset="0%" stop-color="#b88746"></stop> <stop offset="100%" stop-color="#fdf5a6"></stop></linearGradient></defs><g fill="#343c3e" class="icon-text-wrapper icon-svg-group iconsvg" transform="translate(47.970001220703125,93.75716018676758)"><g class="iconsvg-imagesvg" transform="translate(0,0)"><g><rect fill="#343c3e" fill-opacity="0" stroke-width="2" x="0" y="0" width="60" height="62.48568036491638" class="image-rect"></rect> <svg x="0" y="0" width="60" height="62.48568036491638" filtersec="colorsb3767763029" class="image-svg-svg primary" style="overflow: visible;"><svg xmlns="http://www.w3.org/2000/svg" viewBox="0.004101276397705078 -0.013424873352050781 52.50967788696289 54.68487548828125"><g><g fill-rule="evenodd"><path d="M21.28 44.39l6.08 8.36c2.68 3.69 9 1.7 9-2.87V39.51l-15.08 4.88zm6.1-42.5l-6.1 8.4 15.05 4.89V4.85c0-4.56-6.26-6.65-8.95-3zM6.46 8.73c-4.33-1.41-8.26 3.9-5.58 7.6l8 11-8 11C-1.77 42 2.07 47.4 6.41 46l42.83-13.93c4.34-1.41 4.39-8 0-9.42L6.46 8.73z" fill="#41B883"></path></g></g></svg></svg> </g></g> <g transform="translate(67.00000381469727,8.052839279174805)"><g fill-rule="" class="tp-name iconsvg-namesvg"><g transform="scale(1)"><g><path d="M28.14-32.58L28.14-30.54C25.38-32.16 22.02-33.24 18.6-33.24 8.4-33.24 2.4-25.08 2.4-16.38 2.4-7.74 8.4 0.48 18.6 0.48 22.2 0.48 25.44-0.6 28.14-2.4L28.14 0 36.48 0 36.48-32.58ZM28.14-9.78C26.1-8.04 23.28-7.02 20.1-7.02 14.22-7.02 10.44-11.46 10.44-16.38 10.44-21.24 14.16-25.68 20.1-25.68 23.22-25.68 26.1-24.6 28.14-22.86ZM63.3-25.68L63.3-32.58 54.18-32.58 54.18-45.24 45.78-45.24 45.78-32.58 41.16-32.58 41.16-25.68 45.78-25.68 45.78-9.78C45.78-2.94 50.16 0.48 55.62 0.48 60.3 0.48 62.82-0.6 63.18-0.72L63.18-6.96C62.04-6.84 60.78-6.66 59.34-6.66 55.14-6.66 54.18-8.34 54.18-14.16L54.18-25.68ZM92.34-32.58L83.52-14.1 74.64-32.58 65.88-32.58 81.54 0 85.5 0 101.1-32.58ZM128.4-32.58L128.4-30.54C125.64-32.16 122.28-33.24 118.86-33.24 108.66-33.24 102.66-25.08 102.66-16.38 102.66-7.74 108.66 0.48 118.86 0.48 122.46 0.48 125.7-0.6 128.4-2.4L128.4 0 136.74 0 136.74-32.58ZM128.4-9.78C126.36-8.04 123.54-7.02 120.36-7.02 114.48-7.02 110.7-11.46 110.7-16.38 110.7-21.24 114.42-25.68 120.36-25.68 123.48-25.68 126.36-24.6 128.4-22.86ZM152.64-32.58L144.24-32.58 144.24 0 152.64 0 152.64-15.72C152.64-19.98 154.92-24.24 160.92-24.24 162.66-24.24 164.94-23.76 164.94-23.76L164.94-32.82C164.28-33.06 163.5-33.18 162.9-33.18 158.28-33.12 154.86-31.08 152.64-28.02ZM170.58 0L178.92 0 178.92-32.58 170.58-32.58ZM174.72-36.12C177.36-36.12 179.46-38.28 179.46-40.98 179.46-43.68 177.36-45.9 174.72-45.9 172.08-45.9 169.92-43.68 169.92-40.98 169.92-38.28 172.08-36.12 174.72-36.12Z" transform="translate(-2.4000000953674316, 45.900001525878906)"></path></g> </g></g> </g></g><defs v-gra="od"></defs></g></svg>