<?xml version="1.0" encoding="UTF-8"?>
<svg xmlns="http://www.w3.org/2000/svg" xmlns:xlink="http://www.w3.org/1999/xlink" viewBox="0 0 155.91 184.25">
  <defs>
    <style>
      .cls-1 {
        fill: url(#Neues_Verlaufsfeld_1-3);
      }

      .cls-2 {
        fill: url(#Neues_Verlaufsfeld_1-2);
      }

      .cls-3 {
        fill: url(#Neues_Verlaufsfeld_1);
      }
    </style>
    <linearGradient id="Neues_Verlaufsfeld_1" data-name="Neues Verlaufsfeld 1" x1="22.27" y1="161.6" x2="133.64" y2="161.6" gradientUnits="userSpaceOnUse">
      <stop offset="0" stop-color="#5d4193"/>
      <stop offset="0" stop-color="#534092"/>
      <stop offset=".04" stop-color="#5e4091"/>
      <stop offset=".11" stop-color="#7b4191"/>
      <stop offset=".19" stop-color="#883c8c"/>
      <stop offset=".33" stop-color="#ac3080"/>
      <stop offset=".36" stop-color="#b42e7e"/>
      <stop offset=".45" stop-color="#cf3a5b"/>
      <stop offset=".54" stop-color="#e7443e"/>
      <stop offset=".8" stop-color="#f6a200"/>
    </linearGradient>
    <linearGradient id="Neues_Verlaufsfeld_1-2" data-name="Neues Verlaufsfeld 1" x1="39.35" y1="29.37" x2="112.22" y2="102.24" xlink:href="#Neues_Verlaufsfeld_1"/>
    <linearGradient id="Neues_Verlaufsfeld_1-3" data-name="Neues Verlaufsfeld 1" x1="41.39" y1="98.86" x2="115.54" y2="24.7" xlink:href="#Neues_Verlaufsfeld_1"/>
  </defs>
  <g id="Ebene_7" data-name="Ebene 7">
    <path class="cls-3" d="M68.96,164.69c-.28-.51-.53-.9-.9-1.21,2.33-.79,3.68-2.75,3.68-5.68,0-3.88-2.39-6.18-6.29-6.18h-7.78c-.7,0-.96.25-.96.96v18.04c0,.7.25.96.96.96h1.6c.73,0,.96-.25.96-.96v-6.63h2.08c1.94,0,2.61.42,3.37,1.97l2.33,4.78c.34.7.73.84,1.94.84h1.6c.7,0,.79-.42.48-.96l-3.06-5.93ZM65.14,160.7h-4.89v-5.79h4.89c1.88,0,2.95,1.04,2.95,2.89s-1.07,2.89-2.95,2.89M126.53,159.83c3.32.37,7.11,1.24,7.11,5.93,0,3.74-2.84,6.21-8.01,6.21-4.36,0-6.55-1.63-7.7-4.67-.25-.7-.08-1.01.59-1.24l1.52-.56c.67-.22.96-.08,1.24.59.7,1.66,2.19,2.61,4.36,2.61,2.92,0,4.47-.9,4.47-2.92s-2.05-2.36-4.44-2.61c-3.4-.37-7.61-.96-7.61-5.87,0-3.57,2.64-6.07,7.7-6.07,4.02,0,6.04,1.43,7.39,4.22.31.65.14.98-.53,1.29l-1.55.67c-.62.28-.9.17-1.24-.48-.76-1.49-1.85-2.36-4.08-2.36-2.75,0-4.07.84-4.07,2.58,0,2.02,2.3,2.39,4.86,2.67M53.43,151.63c.73,0,.96.25.96.96v1.38c0,.7-.22.96-.96.96h-4.83v15.71c0,.7-.25.96-.96.96h-1.63c-.7,0-.95-.25-.95-.96v-15.71h-4.83c-.7,0-.96-.25-.96-.96v-1.38c0-.7.25-.96.96-.96h13.21M37.35,166.01c.67.25.84.56.59,1.24-1.04,3.03-3.48,4.72-7.64,4.72-5.17,0-8.04-2.81-8.04-7.33v-6.1c0-4.5,2.87-7.31,8.04-7.31,4.13,0,6.57,1.66,7.64,4.69.22.67.06.98-.59,1.24l-1.55.53c-.7.2-.96.11-1.21-.59-.65-1.71-1.97-2.58-4.3-2.58-2.92,0-4.5,1.4-4.5,3.99v6.15c0,2.58,1.6,4.02,4.5,4.02,2.36,0,3.68-.9,4.3-2.61.25-.7.56-.84,1.24-.59l1.52.53M86.58,168.29c.73,0,.96.25.96.96v1.38c0,.7-.22.96-.96.96h-10.62c-.7,0-.96-.25-.96-.96v-18.04c0-.7.25-.96.96-.96h1.6c.73,0,.96.25.96.96v15.71h8.06M107.46,151.23c5.14,0,8.01,2.81,8.01,7.33v6.07c0,4.52-2.87,7.33-8.01,7.33s-8.04-2.81-8.04-7.33v-6.07c0-1.44.29-2.71.86-3.76,1.13.48,2.33.81,3.55,1.07-.56.66-.86,1.55-.86,2.67v6.13c0,2.61,1.63,4.02,4.5,4.02s4.5-1.4,4.5-4.02v-6.13c0-2.61-1.6-4.02-4.5-4.02-1.58,0-2.78.43-3.54,1.25-.15-.1-.3-.2-.44-.31-.82-.6-1.57-1.26-2.26-1.95,1.36-1.45,3.47-2.27,6.25-2.27M95.17,160.03c.7,0,.96.25.96.96v1.24c0,.73-.25.96-.96.96h-6.46c-.7,0-.96-.22-.96-.96v-1.24c0-.7.25-.96.96-.96h6.46"/>
  </g>
  <g id="Ebene_5" data-name="Ebene 5">
    <g>
      <path class="cls-2" d="M120.6,43.41c-.55-.04-.97-.2-1.6-.61-.24-.15-.49-.35-.73-.59-.64-.62-1.71-1.55-3.1-2.47l1.35-2.33c1.5,1.89,2.87,3.9,4.08,6ZM39.32,98.45l15.96-27.65c-.13-.18-.25-.36-.36-.53-1.91-.41-5.68-1.55-6.39-4.24-2.78-.58-4.95-1.62-6.56-3.16l-12.97-.06c-.18,1.69-.27,3.41-.27,5.15s.09,3.35.25,4.99l13.36.06-9.06,15.63c1.63,3.51,3.66,6.8,6.04,9.8ZM123.72,86.09h-18.06c-2.52,2.49-5.67,4.34-9.2,5.17-.55.13-5.49,5.42-6.54,7.46l8.11,14.19c3.11-1.39,6.05-3.09,8.78-5.07l-6.66-11.65,18.12.03c2.2-3.13,4.04-6.52,5.47-10.13ZM113.37,59.99l-.02.02c-.97,1.17-1.45,2.68-1.36,4.28.05.85.08,1.73.08,2.6,0,1.24-.06,2.52-.16,3.79-.07.77-.16,1.53-.27,2.29l15.28.07c.17-1.66.26-3.34.26-5.05s-.09-3.42-.26-5.09l-13.4-.06,3.63-6.26c-1.33,1.04-2.59,2.18-3.77,3.43ZM50.57,23.77c7.95-4.94,17.33-7.8,27.38-7.8,19.74,0,36.92,11,45.72,27.21,1.27-.12,2.61-.24,3.98-.34-9.18-18.13-27.98-30.56-49.7-30.56-11.41,0-22.02,3.44-30.85,9.33,1.13.7,2.29,1.42,3.47,2.16ZM83.25,46.38l-3.89-6.74h-4.82c.21.14.43.29.64.44,2.12,1.5,5.23,3.85,8.07,6.29ZM91.31,34.56l-8.97-15.6c-1.44-.13-2.9-.2-4.38-.2-2.42,0-4.8.18-7.13.52l20.22,35.03c0-.09.01-.18.01-.27,0-.4-.01-.82-.05-1.29-.08-1.21-.04-2.29.12-3.33.37-2.27,1.27-4.46,2.62-6.33,1.88-2.62,4.5-4.5,7.51-5.48l5.54-9.5c-2.73-1.98-5.67-3.68-8.78-5.07l-6.72,11.52ZM64.05,118.07c-21.96-6.08-38.1-26.2-38.1-50.1,0-4.83.67-9.49,1.9-13.93-1.13-.46-2.28-1.04-3.34-1.77-1.46,4.98-2.26,10.24-2.26,15.7,0,26.51,18.53,48.67,43.33,54.3-.57-1.36-1.08-2.76-1.54-4.19ZM127.17,51.21c1.79,5.26,2.78,10.89,2.78,16.76,0,26.21-19.39,47.87-44.6,51.46.22,1.21.52,2.41.88,3.61,26.83-4,47.41-27.13,47.41-55.07,0-6.2-1.03-12.15-2.89-17.72-1.21.26-2.41.58-3.57.96ZM57.8,112.87l3.83-6.57c-.22-2.11-.34-4.25-.34-6.43,0-5.95.98-12.02,3.08-19.11l-1.55-2.69s-.05,0-.07-.01c-.19-.05-.37-.12-.54-.21-1.61-.82-3.06-2.54-3.73-3.8-.02-.04-.11-.23-.11-.23-.03-.07-.06-.14-.09-.22-.09-.07-.22-.15-.32-.22-.2-.13-.42-.29-.66-.47l-4.56,7.9,5.97,10.39-9.67,16.58c2.72,1.98,5.66,3.69,8.77,5.09ZM53.21,25.43c3.15,2,6.4,4.08,9.6,6.19l-4.92-8.6c-1.61.72-3.17,1.53-4.68,2.41Z"/>
      <path class="cls-1" d="M60.06,67.77c-.74-1.14-1.64-2.19-2.14-3.55-.53-1.09-1.92-1.41-2.74-2.18-1-.8-2.01-1.71-2.48-2.94-.17-.46-.14-.91-.49-1.26-2.01-1.28-3.92-2.39-5.2-4.41-.44-.56-.52-1.35-.98-1.87-3.1-1.64-6.8-3.45-8.55-7.07-.52-.83-.21-2.02-1.13-2.56-2.6-1.72-5.04-3.92-6.05-6.98-.21-1.77-1.08-2.26-2.69-2.67-5.35-1.64-12.5-3.77-14.16-3.95-1.23-.2-3.03-.61-3.48-.08-.17.21-.15.51-.06.77.55,1.49,1.74,2.68,2.93,3.72.27.29.13.38-.32.51-.75.19-.49.97-.19,1.46,1.37,2.29,3.89,3.75,6.27,4.84.16.1.1.14-.18.14-.56,0-1.66-.14-2.04.34-.18.26-.03.67.12.96,1.6,2.68,4.81,4.17,7.64,5.17.31.13.23.21-.07.34-.79.25-.47,1.05-.07,1.54,2.57,3.3,7.54,4.42,10.71,5.03.29.07.08.11-.49.18-1.06.1-2.43.41-1.44,1.57,3.24,3.74,9.87,4.06,12.69,4.27-.51.14-2.9.49-1.58,1.77,2.19,2.08,5.61,2.69,8.49,2.88.41.02.49.13-.15.41-3.4,1.51,2.59,3.46,3.97,3.55.33.03.51.15.69.44.37.69.89,1.44,1.49,2.02.82.98,2.18,1.21,2.5,2.47l.05.11c.48.9,1.56,2.13,2.54,2.63.11.03.16-.01.17-.13-.18-.73-.3-1.85-.8-2.5-1.32-1.38-2.18-3.19-2.75-4.97ZM97.94,143.72c.5.36,1,.71,1.5,1.05-8.27-1.62-16.31-4.74-20.51-14.04-5.73-15.27-.36-31.77,12.45-37.74-.09.1-.18.2-.28.29-.17.16-.35.33-.53.49-.01.01-.02.02-.03.03-.04.04-.09.09-.13.13-1.06,1.04-2.04,2.17-2.95,3.4-10.19,13.92-5.51,34.68,10.46,46.38ZM145.92,44.75c-3.65.1-15.63.48-23.68,1.38-2.09.23-3.25-.03-4.74-.99-.42-.27-.8-.58-1.15-.92-1.28-1.23-5.49-4.84-10.47-4.58-.63.03-1.25.05-1.85.14-.02,0-.05,0-.07.01-.03,0-.05,0-.08.01-.02,0-.04,0-.06,0-3.21.55-5.99,2.35-7.81,4.89-1.08,1.49-1.82,3.25-2.13,5.15-.14.89-.16,1.8-.09,2.69.03.5.05,1,.05,1.5,0,.72-.13,1.45-.47,2.09-.63,1.2-1.79,2.07-3.17,2.32l.02.08c-.57.45-1.07-.72-1.29-1.15-.47-1.05-1.34-2.27-1.95-3.31-2.32-3.31-9.24-8.76-13.41-11.72C56.31,29.98,31.04,14.98,27.77,13.51c-1.05-.35-2.95-1.67-3.93-1.08-.17.21-.2.52-.16.82.21,1.59,1.19,2.99,2,4.34.04.19-.19.21-.51.23-.28.01-.51.11-.59.35-.05,2.91,2.68,5.3,4.77,7.06.82.64-.91-.06-1.22-.04-.84-.16-1.23.3-.98,1.08.9,2.98,3.64,5.19,6.13,6.83.27.2.17.26-.15.31-.29.04-.58.16-.62.44-.06.32.05.71.18,1.03,1.69,3.81,6.22,6.09,9.12,7.44.26.13.05.13-.51.05-1.16-.19-2.52-.13-1.7,1.32,2.25,4.21,8.42,6.18,11.02,6.99.57.14-1.1-.04-1.54.17-.67.17-.55.85-.2,1.34,1.63,2.41,4.61,3.79,7.29,4.65.73.22.48.29-.44.49-3.18.83,2.59,4.1,3.67,4.52.57,1.5,1.21,3.26,2.46,4.38.52.53.42,1.24.67,1.9.45,1.3,1.32,2.45,2.31,3.4.76,1.1.51,2.61,1.26,3.8.46.96,1.13,1.8,1.89,2.54.2.22.02.6-.03.78-.36,1.12-.64,1.92-.92,2.85-1.67,5.61-2.98,11.78-2.98,18.38,0,14.96,5.5,28.06,13.73,35.31-.26-.52-.5-1.06-.74-1.6-7.56-17.4-1.39-36.83,13.77-43.42,1.34-.58,2.7-1.04,4.08-1.39.05-.01.11-.03.17-.04,0,0,.02,0,.03-.01.22-.05.45-.1.67-.15,5.43-1.35,9.83-5.28,11.85-10.41.44-1.39.81-2.89,1.09-4.46.18-1.06.33-2.15.42-3.27.1-1.16.15-2.34.15-3.55,0-.82-.02-1.63-.07-2.43-.13-2.28.57-4.55,2.06-6.29l.07-.08c5.22-5.51,12.04-9.26,19.49-10.69,5.76-1.1,11.01-1.48,12.35-1.56.22-.01.44-.06.66-.12l2.12-.67c.17-.05.13-.31-.05-.3ZM109.37,47.14c-.22.99-1.01,1.78-2,2-1.96.43-3.66-1.27-3.23-3.23.22-.99,1.01-1.78,2-2,1.96-.43,3.66,1.27,3.23,3.23Z"/>
    </g>
  </g>
</svg>