<?xml version="1.0" encoding="utf-8"?>
<!-- Generator: Adobe Illustrator 25.2.1, SVG Export Plug-In . SVG Version: 6.00 Build 0)  -->
<svg version="1.1" id="Layer_1" xmlns="http://www.w3.org/2000/svg" xmlns:xlink="http://www.w3.org/1999/xlink" x="0px" y="0px"
	 viewBox="0 0 600 600" style="enable-background:new 0 0 600 600;" xml:space="preserve">
<style type="text/css">
	.st0{fill:#1F1953;}
	.st1{fill:url(#SVGID_1_);}
	.st2{fill:url(#SVGID_2_);}
	.st3{fill:url(#SVGID_3_);}
</style>
<g>
	<g>
		<path class="st0" d="M112.81,328.37c4.19,4.34,6.28,10.55,6.28,18.62s-2.09,14.28-6.28,18.62c-4.19,4.34-10.22,6.51-18.09,6.51
			H73.39v-50.27h21.33C102.59,321.86,108.62,324.03,112.81,328.37z M102.71,358.42c1.98-2.54,2.97-6.35,2.97-11.43
			c0-5.08-0.99-8.89-2.97-11.43c-1.98-2.54-5.08-3.81-9.29-3.81h-6.93v30.47h6.93C97.63,362.23,100.73,360.96,102.71,358.42z"/>
		<path class="st0" d="M163.03,356.83h-25.97c0.41,2.39,1.28,4.14,2.63,5.26c1.35,1.12,3.14,1.68,5.37,1.68
			c1.88,0,3.41-0.36,4.61-1.07c1.19-0.71,1.99-1.75,2.4-3.12l10.51,3.35c-1.07,3.25-3.14,5.73-6.21,7.43
			c-3.07,1.7-6.84,2.55-11.31,2.55c-6.65,0-11.74-1.72-15.27-5.18c-3.53-3.45-5.29-8.33-5.29-14.63c0-6.29,1.73-11.17,5.18-14.62
			c3.45-3.45,8.35-5.18,14.7-5.18c6.14,0,10.85,1.69,14.13,5.07c3.28,3.38,4.91,8.11,4.91,14.21
			C163.41,354.29,163.29,355.71,163.03,356.83z M136.98,349.82h14.32c-0.61-4.98-2.95-7.46-7.01-7.46
			C140.18,342.35,137.74,344.84,136.98,349.82z"/>
		<path class="st0" d="M197.87,370c-1.27,0.86-2.88,1.56-4.84,2.09c-1.96,0.53-3.92,0.8-5.9,0.8c-4.52,0-7.97-0.96-10.36-2.9
			c-2.39-1.93-3.61-5.03-3.66-9.29v-17.44h-6.55v-9.22h6.55v-8.53l12.95-3.58v12.11h11.43v9.22h-11.43v15.31
			c0,3.4,1.68,5.1,5.03,5.1c2.08,0,3.91-0.56,5.48-1.68L197.87,370z"/>
		<path class="st0" d="M239.64,356.83h-25.97c0.41,2.39,1.28,4.14,2.63,5.26c1.34,1.12,3.14,1.68,5.37,1.68
			c1.88,0,3.41-0.36,4.61-1.07c1.19-0.71,1.99-1.75,2.4-3.12l10.51,3.35c-1.07,3.25-3.14,5.73-6.21,7.43
			c-3.07,1.7-6.84,2.55-11.31,2.55c-6.65,0-11.74-1.72-15.27-5.18c-3.53-3.45-5.29-8.33-5.29-14.63c0-6.29,1.73-11.17,5.18-14.62
			s8.35-5.18,14.7-5.18c6.14,0,10.85,1.69,14.13,5.07c3.28,3.38,4.91,8.11,4.91,14.21C240.03,354.29,239.9,355.71,239.64,356.83z
			 M213.59,349.82h14.32c-0.61-4.98-2.95-7.46-7.01-7.46C216.79,342.35,214.36,344.84,213.59,349.82z"/>
		<path class="st0" d="M274.2,334.12l-1.37,10.97c-0.51-0.31-1.19-0.57-2.06-0.8c-0.86-0.23-1.78-0.34-2.74-0.34
			c-2.44,0-4.47,0.77-6.09,2.32c-1.63,1.55-2.44,3.77-2.44,6.66v19.2h-12.95v-38.09h11.43l0.53,8.23c0.91-2.9,2.35-5.11,4.3-6.66
			c1.95-1.55,4.38-2.32,7.27-2.32C271.82,333.29,273.19,333.57,274.2,334.12z"/>
		<path class="st0" d="M337.68,336.79c2.41,2.34,3.62,5.66,3.62,9.98v25.36h-12.95v-22.39c0-4.37-1.73-6.55-5.18-6.55
			c-2.03,0-3.66,0.74-4.87,2.21c-1.22,1.47-1.83,3.6-1.83,6.4v20.34h-12.95v-22.39c0-4.37-1.73-6.55-5.18-6.55
			c-1.93,0-3.53,0.74-4.8,2.21c-1.27,1.47-1.9,3.68-1.9,6.63v20.11h-12.95v-38.09h11.58l0.38,7.31c1.22-2.64,2.92-4.65,5.1-6.02
			c2.18-1.37,4.75-2.06,7.69-2.06c2.89,0,5.4,0.66,7.5,1.98c2.11,1.32,3.62,3.23,4.53,5.71c1.22-2.49,2.96-4.39,5.22-5.71
			c2.26-1.32,4.78-1.98,7.58-1.98C332.13,333.29,335.27,334.46,337.68,336.79z"/>
		<path class="st0" d="M350.16,328.15c-1.19-0.99-1.79-2.55-1.79-4.68c0-2.18,0.6-3.77,1.79-4.76c1.19-0.99,3.11-1.49,5.75-1.49
			c2.64,0,4.56,0.49,5.75,1.49c1.19,0.99,1.79,2.58,1.79,4.76c0,2.13-0.6,3.69-1.79,4.68c-1.19,0.99-3.11,1.49-5.75,1.49
			C353.27,329.63,351.36,329.13,350.16,328.15z M362.39,372.13h-12.95v-38.09h12.95V372.13z"/>
		<path class="st0" d="M405.37,336.79c2.39,2.34,3.58,5.66,3.58,9.98v25.36H396v-21.79c0-2.59-0.47-4.43-1.41-5.52
			c-0.94-1.09-2.27-1.64-4-1.64c-2.03,0-3.68,0.72-4.95,2.17c-1.27,1.45-1.9,3.67-1.9,6.66v20.11h-12.95v-38.09h11.58l0.38,7.31
			c1.22-2.69,2.95-4.71,5.18-6.06c2.23-1.35,4.85-2.02,7.84-2.02C399.78,333.29,402.98,334.46,405.37,336.79z"/>
		<path class="st0" d="M456.53,364.44l-0.99,7.24c-1.47,0.81-3.2,1.22-5.18,1.22c-5.48,0-8.76-1.95-9.83-5.86
			c-2.28,3.91-6.81,5.86-13.56,5.86c-3.81,0-6.73-0.81-8.76-2.44c-2.03-1.62-3.05-3.99-3.05-7.08c0-3.25,1.15-5.88,3.47-7.88
			c2.31-2.01,6.11-3.54,11.39-4.61l8.61-1.67v-1.37c0-1.72-0.48-3.1-1.45-4.11c-0.97-1.02-2.28-1.52-3.96-1.52
			c-1.93,0-3.5,0.46-4.72,1.37c-1.22,0.91-2.01,2.41-2.36,4.5l-10.51-3.05c0.66-3.71,2.49-6.59,5.48-8.65
			c3-2.06,7.03-3.09,12.11-3.09c5.94,0,10.46,1.22,13.56,3.66c3.1,2.44,4.65,6.09,4.65,10.97v13.86c0,1.98,0.91,2.97,2.74,2.97
			C455.14,364.75,455.93,364.65,456.53,364.44z M436.5,363.03c1.42-0.99,2.13-2.3,2.13-3.92v-3.28l-6.17,1.45
			c-1.62,0.41-2.78,0.9-3.47,1.49c-0.69,0.59-1.03,1.41-1.03,2.47c0,1.07,0.33,1.88,0.99,2.44c0.66,0.56,1.57,0.84,2.74,0.84
			C433.48,364.52,435.08,364.02,436.5,363.03z"/>
		<path class="st0" d="M487.89,370c-1.27,0.86-2.88,1.56-4.84,2.09c-1.95,0.53-3.92,0.8-5.9,0.8c-4.52,0-7.97-0.96-10.36-2.9
			c-2.39-1.93-3.6-5.03-3.66-9.29v-17.44h-6.55v-9.22h6.55v-8.53l12.95-3.58v12.11h11.43v9.22h-11.43v15.31c0,3.4,1.67,5.1,5.03,5.1
			c2.08,0,3.91-0.56,5.48-1.68L487.89,370z"/>
		<path class="st0" d="M529.66,356.83h-25.97c0.4,2.39,1.28,4.14,2.63,5.26c1.35,1.12,3.13,1.68,5.37,1.68
			c1.88,0,3.41-0.36,4.61-1.07c1.19-0.71,1.99-1.75,2.4-3.12l10.51,3.35c-1.07,3.25-3.14,5.73-6.21,7.43
			c-3.07,1.7-6.84,2.55-11.31,2.55c-6.65,0-11.74-1.72-15.27-5.18c-3.53-3.45-5.29-8.33-5.29-14.63c0-6.29,1.73-11.17,5.18-14.62
			c3.45-3.45,8.35-5.18,14.7-5.18c6.14,0,10.85,1.69,14.13,5.07c3.28,3.38,4.91,8.11,4.91,14.21
			C530.04,354.29,529.91,355.71,529.66,356.83z M503.61,349.82h14.32c-0.61-4.98-2.95-7.46-7.01-7.46
			C506.81,342.35,504.37,344.84,503.61,349.82z"/>
		<path class="st0" d="M105.26,389.11c3.38,1.42,6.51,3.73,9.41,6.93l-7.39,8.53c-1.68-2.54-3.64-4.4-5.9-5.6
			c-2.26-1.19-4.96-1.79-8.11-1.79c-2.64,0-4.67,0.46-6.09,1.37c-1.42,0.91-2.13,2.13-2.13,3.66c0,1.27,0.75,2.3,2.25,3.08
			c1.5,0.79,4.05,1.51,7.65,2.17c6.96,1.27,11.92,3.12,14.89,5.56c2.97,2.44,4.46,5.86,4.46,10.28c0,3.2-0.91,5.97-2.74,8.3
			c-1.83,2.34-4.35,4.11-7.58,5.33c-3.23,1.22-6.87,1.83-10.93,1.83c-5.69,0-10.31-0.7-13.86-2.09c-3.56-1.4-6.63-3.54-9.22-6.44
			l6.7-9.14c1.98,2.74,4.21,4.67,6.7,5.79c2.49,1.12,5.48,1.67,8.99,1.67c2.79,0,4.89-0.39,6.28-1.18c1.4-0.79,2.09-1.92,2.09-3.39
			c0-1.17-0.75-2.12-2.25-2.86c-1.5-0.74-4-1.43-7.5-2.09c-4.32-0.86-7.88-1.89-10.7-3.08c-2.82-1.19-5-2.81-6.55-4.84
			c-1.55-2.03-2.32-4.62-2.32-7.77c0-3.15,0.85-5.97,2.55-8.45c1.7-2.49,4.19-4.43,7.46-5.83c3.28-1.4,7.15-2.09,11.62-2.09
			C97.81,386.98,101.89,387.69,105.26,389.11z"/>
		<path class="st0" d="M145.77,438.01c-1.42,4.06-2.97,7.29-4.65,9.67c-1.68,2.39-3.66,4.1-5.94,5.14c-2.28,1.04-5.05,1.56-8.3,1.56
			c-4.32,0-7.77-0.94-10.36-2.82l2.74-8.68c0.81,0.76,1.71,1.28,2.7,1.56c0.99,0.28,2.27,0.42,3.85,0.42c1.57,0,2.82-0.27,3.73-0.8
			c0.91-0.53,1.65-1.48,2.21-2.85l0.91-2.36l-4.42-10.36l-11.35-28.56h14.24l5.87,21.71l1.83,8.07l2.06-8.38l5.86-21.41h12.95
			L145.77,438.01z"/>
		<path class="st0" d="M160.48,432.07l6.7-7.31c2.18,3.6,5.94,5.41,11.27,5.41c1.78,0,3.17-0.24,4.19-0.72
			c1.02-0.48,1.52-1.13,1.52-1.94c0-0.71-0.52-1.33-1.56-1.87c-1.04-0.53-2.83-1.05-5.37-1.56c-5.69-1.12-9.74-2.64-12.15-4.57
			c-2.41-1.93-3.62-4.49-3.62-7.69c0-2.18,0.69-4.24,2.06-6.17c1.37-1.93,3.44-3.49,6.21-4.68c2.77-1.19,6.13-1.79,10.09-1.79
			c4.37,0,7.93,0.6,10.7,1.79c2.77,1.19,5.01,2.98,6.74,5.37l-6.7,6.55c-1.22-1.78-2.67-3.07-4.34-3.88
			c-1.68-0.81-3.68-1.22-6.02-1.22c-1.83,0-3.25,0.28-4.27,0.84c-1.02,0.56-1.52,1.25-1.52,2.06c0,0.76,0.52,1.41,1.56,1.94
			c1.04,0.53,2.86,1.05,5.45,1.56c5.59,0.97,9.61,2.4,12.07,4.3c2.46,1.9,3.69,4.51,3.69,7.81c0,3.71-1.55,6.72-4.65,9.03
			c-3.1,2.31-7.59,3.47-13.48,3.47C170.33,438.78,164.14,436.54,160.48,432.07z"/>
		<path class="st0" d="M232.04,435.88c-1.27,0.86-2.88,1.56-4.84,2.09c-1.96,0.53-3.92,0.8-5.9,0.8c-4.52,0-7.97-0.96-10.36-2.9
			c-2.39-1.93-3.61-5.03-3.66-9.29v-17.44h-6.55v-9.22h6.55v-8.53l12.95-3.58v12.11h11.43v9.22h-11.43v15.31
			c0,3.4,1.68,5.1,5.03,5.1c2.08,0,3.91-0.56,5.48-1.68L232.04,435.88z"/>
		<path class="st0" d="M273.8,422.7h-25.97c0.41,2.39,1.28,4.14,2.63,5.26c1.35,1.12,3.14,1.68,5.37,1.68
			c1.88,0,3.41-0.36,4.61-1.07c1.19-0.71,1.99-1.75,2.4-3.12l10.51,3.35c-1.07,3.25-3.14,5.73-6.21,7.43
			c-3.07,1.7-6.84,2.55-11.31,2.55c-6.65,0-11.74-1.72-15.27-5.18c-3.53-3.45-5.29-8.33-5.29-14.63c0-6.29,1.73-11.17,5.18-14.62
			c3.45-3.45,8.35-5.18,14.7-5.18c6.14,0,10.85,1.69,14.13,5.07c3.28,3.38,4.91,8.11,4.91,14.21
			C274.18,420.16,274.06,421.59,273.8,422.7z M247.75,415.7h14.32c-0.61-4.98-2.95-7.46-7.01-7.46
			C250.95,408.23,248.51,410.72,247.75,415.7z"/>
		<path class="st0" d="M339.7,402.67c2.41,2.34,3.62,5.66,3.62,9.98v25.36h-12.95v-22.39c0-4.37-1.73-6.55-5.18-6.55
			c-2.03,0-3.66,0.74-4.88,2.21c-1.22,1.47-1.83,3.6-1.83,6.4v20.34h-12.95v-22.39c0-4.37-1.73-6.55-5.18-6.55
			c-1.93,0-3.53,0.74-4.8,2.21c-1.27,1.47-1.9,3.68-1.9,6.63v20.11h-12.95v-38.09h11.58l0.38,7.31c1.22-2.64,2.92-4.65,5.1-6.02
			c2.18-1.37,4.75-2.06,7.69-2.06c2.89,0,5.4,0.66,7.5,1.98c2.11,1.32,3.62,3.23,4.53,5.71c1.22-2.49,2.96-4.39,5.22-5.71
			c2.26-1.32,4.79-1.98,7.58-1.98C334.16,399.17,337.29,400.34,339.7,402.67z"/>
		<path class="st0" d="M348.65,432.07l6.7-7.31c2.18,3.6,5.94,5.41,11.27,5.41c1.78,0,3.17-0.24,4.19-0.72
			c1.02-0.48,1.52-1.13,1.52-1.94c0-0.71-0.52-1.33-1.56-1.87c-1.04-0.53-2.83-1.05-5.37-1.56c-5.69-1.12-9.74-2.64-12.15-4.57
			c-2.41-1.93-3.62-4.49-3.62-7.69c0-2.18,0.69-4.24,2.06-6.17c1.37-1.93,3.44-3.49,6.21-4.68c2.77-1.19,6.13-1.79,10.09-1.79
			c4.37,0,7.93,0.6,10.7,1.79c2.77,1.19,5.01,2.98,6.74,5.37l-6.7,6.55c-1.22-1.78-2.67-3.07-4.34-3.88
			c-1.68-0.81-3.68-1.22-6.02-1.22c-1.83,0-3.25,0.28-4.27,0.84c-1.02,0.56-1.52,1.25-1.52,2.06c0,0.76,0.52,1.41,1.56,1.94
			c1.04,0.53,2.86,1.05,5.45,1.56c5.59,0.97,9.61,2.4,12.07,4.3s3.7,4.51,3.7,7.81c0,3.71-1.55,6.72-4.65,9.03
			c-3.1,2.31-7.59,3.47-13.48,3.47C358.5,438.78,352.3,436.54,348.65,432.07z"/>
	</g>
</g>
<g>
	<linearGradient id="SVGID_1_" gradientUnits="userSpaceOnUse" x1="279.2834" y1="128.5414" x2="193.3869" y2="214.4379">
		<stop  offset="0.1143" style="stop-color:#F8A51C"/>
		<stop  offset="0.2067" style="stop-color:#F68E28"/>
		<stop  offset="0.3968" style="stop-color:#F2643E"/>
		<stop  offset="0.5687" style="stop-color:#EF454E"/>
		<stop  offset="0.7149" style="stop-color:#ED3358"/>
		<stop  offset="0.818" style="stop-color:#EC2C5B"/>
	</linearGradient>
	<polygon class="st1" points="290.79,202.93 290.79,140.05 236.34,108.61 181.88,140.05 181.88,202.93 236.34,234.37 	"/>
	<linearGradient id="SVGID_2_" gradientUnits="userSpaceOnUse" x1="174.8651" y1="194.5631" x2="79.99" y2="274.1727">
		<stop  offset="0.0778" style="stop-color:#0D4D9C"/>
		<stop  offset="0.2579" style="stop-color:#1162AC;stop-opacity:0.7735"/>
		<stop  offset="0.628" style="stop-color:#1C98D4;stop-opacity:0.3078"/>
		<stop  offset="0.6754" style="stop-color:#1E9FD9;stop-opacity:0.2483"/>
		<stop  offset="0.903" style="stop-color:#28AAE1;stop-opacity:0.1"/>
	</linearGradient>
	<polygon class="st2" points="181.88,265.81 181.88,202.93 127.43,171.49 72.97,202.93 72.97,265.81 127.43,297.25 	"/>
	<linearGradient id="SVGID_3_" gradientUnits="userSpaceOnUse" x1="224.8317" y1="159.9787" x2="138.9352" y2="245.8752">
		<stop  offset="0.1187" style="stop-color:#CD1E8B;stop-opacity:0.9"/>
		<stop  offset="0.2234" style="stop-color:#B52790;stop-opacity:0.8852"/>
		<stop  offset="0.4445" style="stop-color:#783E9C;stop-opacity:0.8539"/>
		<stop  offset="0.7616" style="stop-color:#1762AF;stop-opacity:0.8091"/>
		<stop  offset="0.8257" style="stop-color:#036AB3;stop-opacity:0.8"/>
	</linearGradient>
	<polygon class="st3" points="236.34,234.37 236.34,171.49 181.88,140.05 127.43,171.49 127.43,234.37 181.88,265.81 	"/>
</g>
</svg>
