<?xml version="1.0" encoding="UTF-8"?><svg id="Ebene_2" xmlns="http://www.w3.org/2000/svg" xmlns:xlink="http://www.w3.org/1999/xlink" viewBox="0 0 127.55 83.79"><defs><style>.cls-1{fill:#304673;}.cls-2,.cls-3{fill:#5277c3;}.cls-4{fill:url(#Unbenannter_Verlauf_5);}.cls-4,.cls-3,.cls-5{fill-rule:evenodd;}.cls-5{fill:#7ebae4;}</style><linearGradient id="Unbenannter_Verlauf_5" x1="453.73" y1="-2211.55" x2="466.85" y2="-2234.24" gradientTransform="translate(-318.58 -1740.65) scale(.8 -.8)" gradientUnits="userSpaceOnUse"><stop offset="0" stop-color="#699ad7"/><stop offset=".24" stop-color="#7eb1dd"/><stop offset="1" stop-color="#7ebae4"/></linearGradient></defs><g id="LOGO"><g id="NixCademy_vertical_color"><g id="NIXSnowflake"><path id="path3336-6" class="cls-4" d="m51.77,26.15l14.33,24.82-6.59.06-3.83-6.67-3.85,6.63h-3.27s-1.68-2.9-1.68-2.9l5.49-9.44-3.9-6.78,3.29-5.73Z"/><g id="use3439-6"><path id="path3336-6-2" class="cls-5" d="m56.95,15.92l-14.33,24.82-3.35-5.67,3.86-6.65-7.67-.02-1.64-2.83,1.67-2.9,10.92.03,3.92-6.77,6.61-.02Z"/></g><g id="use3445-0"><path id="path3336-6-3" class="cls-5" d="m58.05,35.76h28.66s-3.24,5.74-3.24,5.74l-7.69-.02,3.82,6.65-1.64,2.83h-3.35s-5.43-9.47-5.43-9.47l-7.82-.02-3.32-5.72Z"/></g><g id="use3449-5"><path id="path3336-6-4" class="cls-5" d="m74.73,24.89L60.4.06l6.59-.06,3.83,6.67L74.66.04h3.27s1.68,2.9,1.68,2.9l-5.49,9.44,3.9,6.78-3.29,5.73Z"/></g><path id="path4260-0" class="cls-3" d="m51.77,26.15l14.33,24.82-6.59.06-3.83-6.67-3.85,6.63h-3.27s-1.68-2.9-1.68-2.9l5.49-9.44-3.9-6.78,3.29-5.73Z"/><g id="use4354-5"><path id="path4260-0-2" class="cls-3" d="m68.4,15.21h-28.66s3.24-5.74,3.24-5.74l7.69.02-3.82-6.65L48.48,0h3.35s5.43,9.47,5.43,9.47l7.82.02,3.32,5.72Z"/></g><g id="use4362-2"><path id="path4260-0-3" class="cls-3" d="m69.53,35.11l14.33-24.82,3.35,5.67-3.86,6.65,7.67.02,1.64,2.83-1.67,2.9-10.92-.03-3.92,6.77-6.61.02Z"/></g></g><path class="cls-1" d="m2.04,60.43h3.49l4.48,7.13,1.08-7.13h3.68l-2.04,13.48h-3.28l-4.65-7.4-1.12,7.4H0l2.04-13.48Z"/><path class="cls-1" d="m17.95,60.43h3.76l-2.04,13.48h-3.76l2.04-13.48Z"/><path class="cls-1" d="m27.14,67.05l-3.43-6.63h4.3l1.81,3.79,2.98-3.79h4.2l-5.43,6.59,3.58,6.89h-4.3l-1.97-4.06-3.21,4.06h-4.2l5.66-6.86Z"/><path class="cls-2" d="m42.86,74.18c-.96,0-1.84-.17-2.64-.52-.8-.35-1.46-.83-1.99-1.46-.53-.62-.91-1.36-1.15-2.21-.24-.85-.28-1.78-.13-2.78v-.04c.15-.97.47-1.89.96-2.74.49-.85,1.09-1.6,1.82-2.23.72-.64,1.55-1.13,2.47-1.49.92-.36,1.9-.54,2.92-.54.69,0,1.31.07,1.86.2.54.13,1.03.33,1.46.58s.81.55,1.14.9c.33.35.61.72.84,1.13l-3.14,2.18c-.31-.49-.68-.87-1.1-1.16s-.96-.42-1.61-.42c-.47,0-.92.09-1.34.28-.42.19-.8.44-1.13.76-.33.32-.61.7-.84,1.14-.23.44-.38.9-.45,1.38v.04c-.08.5-.07.97.02,1.42.09.44.26.83.49,1.15s.53.57.9.76c.36.19.78.28,1.26.28.35,0,.67-.04.97-.12.3-.08.58-.19.84-.34s.51-.32.75-.52c.24-.2.48-.42.73-.66l2.51,2c-.39.44-.8.84-1.23,1.21-.43.37-.91.69-1.44.96-.52.27-1.09.48-1.71.64-.62.15-1.3.23-2.05.23Z"/><path class="cls-2" d="m57.49,60.33h3.6l3.69,13.58h-4.01l-.62-2.41h-5.2l-1.33,2.41h-3.93l7.79-13.58Zm2.02,8.28l-.92-3.83-2.1,3.83h3.02Z"/><path class="cls-2" d="m68.56,60.43h5.2c1.21,0,2.26.17,3.15.49.89.33,1.62.79,2.18,1.38.56.59.95,1.29,1.16,2.11.22.82.25,1.71.1,2.69v.04c-.15.98-.46,1.88-.93,2.71-.47.83-1.08,1.54-1.83,2.15-.75.6-1.62,1.07-2.63,1.41-1.01.34-2.12.51-3.32.51h-5.12l2.04-13.48Zm3.73,10.17c1.12,0,2.07-.3,2.84-.89s1.24-1.43,1.41-2.52v-.04c.17-1.08-.05-1.92-.64-2.51-.59-.6-1.45-.89-2.57-.89h-1.53l-1.04,6.86h1.53Z"/><path class="cls-2" d="m83.86,60.43h10.83l-.48,3.18h-7.15l-.31,2.04h6.47l-.45,2.95h-6.47l-.32,2.14h7.24l-.48,3.18h-10.92l2.04-13.48Z"/><path class="cls-2" d="m97.55,60.43h3.95l2.43,5.22,4.01-5.22h3.95l-2.04,13.48h-3.72l1.17-7.74-4.24,5.28h-.08l-2.63-5.24-1.17,7.71h-3.68l2.04-13.48Z"/><path class="cls-2" d="m117.39,68.87l-3.85-8.44h4.26l2.03,4.91,3.54-4.91h4.18l-6.39,8.38-.77,5.1h-3.76l.76-5.05Z"/><path class="cls-2" d="m26.98,78.55h3.72v.52h-3.14v1.77h2.81v.52h-2.81v1.81h3.18v.52h-3.76v-5.15Z"/><path class="cls-2" d="m33.93,81.07l-1.91-2.52h.68l1.58,2.11,1.57-2.11h.68l-1.91,2.52,1.98,2.63h-.69l-1.65-2.21-1.65,2.21h-.67l1.98-2.63Z"/><path class="cls-2" d="m37.96,78.55h1.93c.29,0,.55.04.79.12.24.08.44.18.61.32.17.14.3.31.39.51s.14.43.14.69h0c0,.29-.05.54-.16.75-.11.21-.25.38-.44.53-.18.14-.4.25-.64.32-.25.07-.5.11-.78.11h-1.25v1.82h-.58v-5.15Zm1.86,2.81c.21,0,.4-.03.58-.08s.32-.13.45-.23c.12-.1.22-.22.29-.36.07-.14.1-.29.1-.46h0c0-.38-.13-.66-.38-.85-.25-.19-.59-.29-1.01-.29h-1.31v2.27h1.28Z"/><path class="cls-2" d="m43.21,78.55h3.72v.52h-3.14v1.77h2.81v.52h-2.81v1.81h3.18v.52h-3.76v-5.15Z"/><path class="cls-2" d="m48.42,78.55h2.21c.32,0,.6.05.85.14.25.09.45.22.61.38.13.13.23.28.29.45s.1.36.1.57h0c0,.23-.04.42-.1.59-.07.17-.17.32-.29.44-.12.12-.27.23-.44.31-.17.08-.36.14-.56.17l1.58,2.1h-.71l-1.49-2h-1.47v2h-.58v-5.15Zm2.17,2.63c.19,0,.37-.02.53-.07.16-.05.3-.12.42-.21.12-.09.21-.2.28-.33.07-.13.1-.28.1-.45v-.02c0-.32-.12-.57-.35-.75-.23-.18-.56-.27-.97-.27h-1.59v2.09h1.59Z"/><path class="cls-2" d="m55.36,79.09h-1.73v-.54h4.04v.54h-1.73v4.61h-.58v-4.61Z"/><path class="cls-2" d="m61.08,78.55h3.72v.52h-3.14v1.77h2.81v.52h-2.81v1.81h3.18v.52h-3.76v-5.15Z"/><path class="cls-2" d="m66.29,78.55h1.79c.4,0,.77.07,1.11.2.34.13.63.31.87.54.24.23.43.5.56.81.13.31.2.65.2,1.01v.02c0,.36-.07.7-.2,1.02-.13.31-.32.59-.56.82-.24.23-.53.41-.87.54-.34.13-.71.2-1.11.2h-1.79v-5.15Zm1.79,4.61c.32,0,.62-.05.88-.15.26-.1.49-.24.67-.43s.33-.4.43-.64.15-.51.15-.8h0c0-.3-.05-.56-.15-.81s-.24-.46-.43-.65c-.18-.19-.41-.33-.67-.44-.27-.11-.56-.16-.88-.16h-1.21v4.08h1.21Z"/><path class="cls-2" d="m74.45,83.78c-.32,0-.61-.05-.87-.14-.26-.1-.49-.24-.68-.43-.19-.19-.33-.42-.44-.7-.1-.28-.15-.6-.15-.96v-3h.58v2.96c0,.56.14.99.42,1.29.28.3.66.45,1.16.45s.85-.14,1.13-.43c.28-.28.42-.71.42-1.27v-3h.58v2.95c0,.38-.05.71-.15.99-.1.29-.25.52-.44.71-.19.19-.42.33-.68.43-.26.1-.56.14-.88.14Z"/><path class="cls-2" d="m80.7,83.79c-.37,0-.72-.07-1.03-.21-.31-.14-.59-.32-.82-.56s-.41-.52-.54-.84c-.13-.32-.2-.67-.2-1.04h0c0-.38.07-.72.2-1.04.13-.32.31-.61.54-.85.23-.24.5-.43.82-.57.32-.14.67-.21,1.04-.21.24,0,.45.02.64.06.19.04.36.1.53.17.16.07.31.16.45.26s.27.21.4.33l-.4.43c-.22-.21-.46-.38-.71-.51s-.56-.2-.91-.2c-.29,0-.55.05-.79.16-.24.11-.45.26-.63.45s-.32.42-.42.67c-.1.26-.15.53-.15.83v.02c0,.3.05.58.15.83.1.26.24.48.42.67s.39.34.63.45c.24.11.51.16.79.16.35,0,.66-.06.91-.19.25-.13.5-.31.75-.55l.38.38c-.13.14-.27.26-.42.37-.14.11-.3.21-.47.28-.17.08-.35.14-.54.19-.19.04-.4.06-.64.06Z"/><path class="cls-2" d="m86.06,78.52h.54l2.35,5.19h-.63l-.6-1.36h-2.8l-.61,1.36h-.6l2.35-5.19Zm1.43,3.3l-1.17-2.63-1.18,2.63h2.35Z"/><path class="cls-2" d="m91.02,79.09h-1.73v-.54h4.04v.54h-1.73v4.61h-.58v-4.61Z"/><path class="cls-2" d="m94.73,78.55h.58v5.15h-.58v-5.15Z"/><path class="cls-2" d="m99.56,83.79c-.39,0-.75-.07-1.07-.21s-.6-.33-.83-.58c-.23-.24-.41-.53-.53-.85-.12-.32-.19-.66-.19-1.01h0c0-.37.06-.71.19-1.03.13-.32.31-.61.54-.85s.51-.44.83-.58c.32-.14.68-.22,1.07-.22s.75.07,1.07.21c.32.14.6.34.83.58s.41.53.53.85c.12.32.19.66.19,1.01,0,0,0,0,0,.02,0,.35-.06.69-.19,1.02-.13.32-.31.61-.54.85-.23.24-.51.44-.83.58-.32.14-.68.22-1.07.22Zm.01-.54c.29,0,.57-.05.81-.16.25-.11.46-.26.64-.45.18-.19.31-.41.42-.67.1-.25.15-.53.15-.82h0c0-.31-.05-.58-.15-.84s-.24-.48-.42-.67-.4-.34-.64-.46c-.25-.11-.52-.17-.81-.17s-.57.05-.81.17c-.25.11-.46.26-.64.45s-.32.41-.42.67c-.1.26-.15.53-.15.82v.02c0,.29.05.57.15.83.1.26.24.48.42.67.18.19.4.34.64.46.25.11.52.17.81.17Z"/><path class="cls-2" d="m103.78,78.55h.54l3.25,4.13v-4.13h.57v5.15h-.46l-3.33-4.22v4.22h-.57v-5.15Z"/></g></g></svg>