<svg width="215" height="17" viewBox="0 0 215 17" fill="none" xmlns="http://www.w3.org/2000/svg">
<path d="M7.36815 14.5928C4.23429 14.5928 2.05734 11.746 2.05734 7.65522C2.05734 3.97115 4.09076 1.43535 7.05716 1.43535C10.2867 1.43535 12.5115 4.28214 12.5115 8.3729C12.5115 12.057 10.4063 14.5928 7.36815 14.5928ZM6.62655 15.8128C11.1479 15.8128 14.6406 12.1287 14.6406 7.36815C14.6406 3.01424 11.8656 0 7.87052 0C3.44485 0 0 3.68408 0 8.42074C0 12.7986 2.70325 15.8128 6.62655 15.8128V15.8128Z" fill="black"/>
<path d="M19.698 15.5257C20.918 15.5257 21.8749 15.765 22.9275 15.765C25.9418 15.765 28.5493 13.6359 28.5493 11.1479C28.5493 9.37764 27.1618 8.01406 24.8413 7.51168C26.6116 6.74616 27.6164 5.4065 27.6164 3.82761C27.6164 1.48319 25.9418 0.191376 22.9036 0.191376C22.9036 0.191376 20.9659 0.287066 20.0808 0.287066C19.1717 0.287066 17.4254 0.215298 17.4254 0.215298L17.2579 1.26789L17.3057 1.36358C17.3057 1.36358 17.832 1.31574 18.1191 1.31574C18.8368 1.31574 19.0042 1.57888 19.0042 2.60756L18.9803 12.655C18.9803 13.9947 18.5976 14.4253 17.1144 14.7124L16.9708 15.8128C16.9708 15.8128 18.5019 15.5257 19.698 15.5257V15.5257ZM23.2625 8.34897C25.3916 8.73173 26.492 9.85609 26.492 11.5785C26.492 13.3966 25.3198 14.5449 23.406 14.5449C21.4204 14.5449 20.6788 14.0904 20.6788 12.8703L20.7745 8.39682L23.2625 8.34897ZM20.8224 7.12892C20.8702 5.14335 20.942 3.32523 21.0377 1.77027C21.0616 1.33966 21.1334 1.22005 21.4683 1.22005C24.339 1.22005 25.6786 2.17695 25.6786 4.23429C25.6786 6.79401 23.4299 7.3203 23.4299 7.3203C23.0711 7.3203 20.8224 7.12892 20.8224 7.12892V7.12892Z" fill="black"/>
<path d="M35.1198 15.8128C38.5886 15.8128 41.0287 13.8751 41.0287 11.1479C41.0287 8.97096 38.6843 7.87053 36.603 6.79401C34.9045 5.90887 33.3496 5.02374 33.3496 3.58839C33.3496 2.27264 34.6175 1.29182 36.3638 1.29182C38.5168 1.29182 39.2106 1.84204 39.2106 3.51662C39.2106 4.25822 39.1388 4.76059 39.1388 4.76059L39.2824 4.8802L40.2153 4.78452C40.3589 2.58364 40.7416 0.7416 40.7416 0.7416L40.6699 0.598065C40.6699 0.598065 39.1388 0 37.0097 0C33.8998 0 31.5075 1.93773 31.5075 4.4496C31.5075 6.53086 33.4931 7.6313 35.4069 8.63605C37.2489 9.59295 39.0431 10.4542 39.0431 12.0091C39.0431 13.6359 37.7035 14.6406 35.7179 14.6406C33.1343 14.6406 32.608 13.9229 32.608 10.4781L31.5314 10.5977C31.5314 12.9182 31.2444 14.7602 31.2444 14.7602L31.364 14.9995C31.364 14.9995 32.8711 15.8128 35.1198 15.8128V15.8128Z" fill="black"/>
<path d="M47.9734 2.51186C48.0212 1.60281 48.3561 1.31574 49.6958 1.14828L49.7915 0.0717621C49.7915 0.0717621 48.1408 0.287065 47.0404 0.287065C46.0596 0.287065 44.1936 0.215298 44.1936 0.215298L44.0261 1.26789L44.074 1.36358C44.074 1.36358 44.7199 1.31574 45.0787 1.31574C45.7964 1.31574 45.9639 1.60281 45.9639 2.60755L45.9399 12.655C45.9399 13.9947 45.5333 14.4253 44.0261 14.7124L43.8826 15.8128C43.8826 15.8128 45.4376 15.5257 46.6576 15.5257C47.782 15.5257 49.7915 15.5975 49.7915 15.5975L50.0068 14.4971L49.9589 14.4014C49.9589 14.4014 49.2652 14.4731 48.691 14.4731C47.8537 14.4731 47.6384 14.1382 47.6384 12.8464C47.6384 10.8608 47.8059 5.98064 47.9734 2.51186V2.51186Z" fill="black"/>
<path d="M58.7703 15.8128C63.4113 15.8128 67.0475 12.1048 67.0475 7.34422C67.0475 3.08601 63.8419 0.191376 59.177 0.191376C59.177 0.191376 56.6412 0.287066 55.5407 0.287066C54.6317 0.287066 53.0289 0.215298 53.0289 0.215298L52.8614 1.26789L52.9092 1.36358C52.9092 1.36358 53.4355 1.31574 53.7226 1.31574C54.4403 1.31574 54.6077 1.57888 54.6077 2.60756L54.5838 12.655C54.5838 13.9947 54.2011 14.4253 52.7179 14.7124L52.5743 15.8128C52.5743 15.8128 54.1293 15.5257 55.3254 15.5257C56.5455 15.5257 58.7703 15.8128 58.7703 15.8128V15.8128ZM57.5263 1.36358C62.2391 1.36358 64.8705 3.70799 64.8705 7.91837C64.8705 12.057 62.7654 14.5928 59.3205 14.5928C56.9043 14.5928 56.3063 14.1382 56.3063 12.3919C56.3063 11.3154 56.4498 7.41599 56.6651 1.88988C56.689 1.45927 56.8565 1.36358 57.5263 1.36358V1.36358Z" fill="black"/>
<path d="M73.4378 2.51186C73.4856 1.60281 73.8206 1.31574 75.1602 1.14828L75.2559 0.0717621C75.2559 0.0717621 73.6053 0.287065 72.5048 0.287065C71.524 0.287065 69.658 0.215298 69.658 0.215298L69.4906 1.26789L69.5384 1.36358C69.5384 1.36358 70.1843 1.31574 70.5432 1.31574C71.2608 1.31574 71.4283 1.60281 71.4283 2.60755L71.4044 12.655C71.4044 13.9947 70.9977 14.4253 69.4906 14.7124L69.347 15.8128C69.347 15.8128 70.902 15.5257 72.1221 15.5257C73.2464 15.5257 75.2559 15.5975 75.2559 15.5975L75.4712 14.4971L75.4234 14.4014C75.4234 14.4014 74.7296 14.4731 74.1555 14.4731C73.3182 14.4731 73.1029 14.1382 73.1029 12.8464C73.1029 10.8608 73.2703 5.98064 73.4378 2.51186V2.51186Z" fill="black"/>
<path d="M88.4451 12.8225C86.6509 7.43992 84.6414 0 84.6414 0H84.45L82.9429 0.406684L78.278 12.6311C77.7517 13.9708 77.2972 14.3775 76.4121 14.4732L76.2207 15.5975C76.2207 15.5975 77.7039 15.5257 78.8522 15.5257C80.431 15.5257 82.1774 15.6932 82.1774 15.6932L82.3209 14.6645L82.2731 14.5688H80.9095C79.9048 14.5688 79.4741 14.2818 79.4741 13.588C79.4741 13.3727 79.5459 13.0856 79.6894 12.655L80.5746 10.1671C81.1248 10.0953 82.2492 9.97571 83.1821 9.97571C83.852 9.97571 85.0959 9.97571 85.6701 9.99963L86.4595 12.6072C86.6031 13.0617 86.6748 13.4445 86.6748 13.7555C86.6748 14.3296 86.1964 14.5449 84.5457 14.6645L84.45 15.5975L84.5218 15.765C84.5218 15.765 86.2442 15.5257 88.0863 15.5257C88.8996 15.5257 90.6221 15.5975 90.6221 15.5975L90.7895 14.6167L90.7417 14.521C89.3542 14.4014 88.8279 14.0186 88.4451 12.8225ZM83.2778 2.60756H83.4453L85.3352 8.87527C84.7849 8.92312 83.7563 8.99489 83.1104 8.99489H81.0052L83.2778 2.60756Z" fill="black"/>
<path d="M103.663 12.057C103.663 12.057 99.596 6.3634 95.6249 0.191378C95.6249 0.191378 94.8115 0.287068 94.0221 0.287068C93.3522 0.287068 91.9647 0.167455 91.9647 0.167455L91.7733 1.05259L91.8451 1.1722C93.4479 1.33966 93.9264 1.67458 93.9264 2.6554L93.6154 13.1096C93.5915 14.0904 93.113 14.4971 92.1322 14.6167L92.0126 15.7171C92.0126 15.7171 93.2805 15.5257 94.2374 15.5257C95.266 15.5257 96.7732 15.6214 96.7732 15.6214L96.9885 14.5449L96.9406 14.4492C96.9406 14.4492 95.9598 14.4732 95.7206 14.4732C95.1704 14.4732 94.979 14.2339 94.979 13.5162L95.0986 3.30131H95.2182C95.2182 3.30131 99.4525 9.21019 104.117 16.4826L104.811 16.1477L105.146 2.70325C105.17 1.77027 105.672 1.33966 106.773 1.19613L106.892 0.0956879C106.892 0.0956879 105.529 0.287068 104.524 0.287068C103.711 0.287068 102.251 0.191378 102.251 0.191378L102.036 1.26789L102.084 1.36358C102.084 1.36358 102.562 1.33966 102.993 1.33966C103.519 1.33966 103.782 1.67458 103.782 2.36833V12.057H103.663Z" fill="black"/>
<path d="M112.843 15.8128C113.776 15.8128 114.35 15.143 114.35 14.3296C114.35 13.588 113.872 12.966 112.987 12.966C112.078 12.966 111.503 13.6359 111.503 14.4492C111.503 15.143 111.934 15.8128 112.843 15.8128Z" fill="black" fill-opacity="0.2"/>
<path d="M123.4 15.8128C126.869 15.8128 129.309 13.8751 129.309 11.1479C129.309 8.97096 126.964 7.87053 124.883 6.79401C123.184 5.90887 121.629 5.02374 121.629 3.58839C121.629 2.27264 122.897 1.29182 124.644 1.29182C126.797 1.29182 127.491 1.84204 127.491 3.51662C127.491 4.25822 127.419 4.76059 127.419 4.76059L127.562 4.8802L128.495 4.78452C128.639 2.58364 129.022 0.7416 129.022 0.7416L128.95 0.598065C128.95 0.598065 127.419 0 125.29 0C122.18 0 119.787 1.93773 119.787 4.4496C119.787 6.53086 121.773 7.6313 123.687 8.63605C125.529 9.59295 127.323 10.4542 127.323 12.0091C127.323 13.6359 125.983 14.6406 123.998 14.6406C121.414 14.6406 120.888 13.9229 120.888 10.4781L119.811 10.5977C119.811 12.9182 119.524 14.7602 119.524 14.7602L119.644 14.9995C119.644 14.9995 121.151 15.8128 123.4 15.8128V15.8128Z" fill="black"/>
<path d="M134.722 1.96165C134.722 1.41143 135.105 1.22005 136.54 1.10044L136.612 0.263145L136.54 0.0956879C136.54 0.0956879 134.483 0.287068 133.143 0.287068C132.043 0.287068 130.512 0.215301 130.512 0.215301L130.368 1.14828L130.416 1.24397C132.282 1.41143 132.473 2.03341 133.43 3.99507L135.583 8.3729C136.158 9.52118 136.277 10.1432 136.277 11.0761V12.1287C136.277 13.899 136.134 14.3775 134.411 14.7124L134.268 15.8128C134.268 15.8128 135.799 15.5257 136.995 15.5257C138.047 15.5257 140.033 15.5975 140.033 15.5975L140.248 14.4971L140.2 14.4014C140.2 14.4014 139.507 14.4732 139.028 14.4732C138.191 14.4732 137.952 14.0665 137.976 12.8464C138.024 10.2389 138 9.42549 138.502 8.56428L140.894 4.3539C142.186 2.08126 142.377 1.55496 144.028 1.24397L144.172 0.358836L144.076 0.191378C144.076 0.191378 142.808 0.287068 141.875 0.287068C140.99 0.287068 139.22 0.11961 139.22 0.11961L139.076 1.05259L139.124 1.14828C140.153 1.22005 140.631 1.45927 140.631 1.86596C140.631 2.20087 140.488 2.63148 140.248 3.06209L137.521 8.13367H137.402C137.378 8.13367 134.722 2.6554 134.722 1.96165V1.96165Z" fill="black"/>
<path d="M148.911 15.8128C152.38 15.8128 154.82 13.8751 154.82 11.1479C154.82 8.97096 152.475 7.87053 150.394 6.79401C148.696 5.90887 147.141 5.02374 147.141 3.58839C147.141 2.27264 148.409 1.29182 150.155 1.29182C152.308 1.29182 153.002 1.84204 153.002 3.51662C153.002 4.25822 152.93 4.76059 152.93 4.76059L153.073 4.8802L154.006 4.78452C154.15 2.58364 154.533 0.7416 154.533 0.7416L154.461 0.598065C154.461 0.598065 152.93 0 150.801 0C147.691 0 145.299 1.93773 145.299 4.4496C145.299 6.53086 147.284 7.6313 149.198 8.63605C151.04 9.59295 152.834 10.4542 152.834 12.0091C152.834 13.6359 151.495 14.6406 149.509 14.6406C146.925 14.6406 146.399 13.9229 146.399 10.4781L145.323 10.5977C145.323 12.9182 145.035 14.7602 145.035 14.7602L145.155 14.9995C145.155 14.9995 146.662 15.8128 148.911 15.8128V15.8128Z" fill="black"/>
<path d="M161.908 11.6503C161.908 14.1861 161.74 14.4014 159.516 14.5928L159.324 15.6214C159.324 15.6214 161.43 15.5257 162.602 15.5257C163.726 15.5257 166.118 15.5975 166.118 15.5975L166.334 14.4971L166.262 14.4014C166.262 14.4014 165.783 14.4732 164.946 14.4732C163.965 14.4732 163.583 14.0186 163.583 12.8464C163.583 8.97096 163.774 3.13386 163.965 1.22005C167.434 1.38751 167.53 1.45928 168.008 4.32999L169.133 4.2343C169.133 4.2343 168.846 2.2248 168.774 0.191381L168.558 0L166.525 0.263148H159.109L157.123 0L156.908 0.191381C156.836 2.2248 156.549 4.32999 156.549 4.32999L157.674 4.2343C158.08 1.43536 158.152 1.38751 161.908 1.22005V11.6503Z" fill="black"/>
<path d="M174.512 13.0139C174.512 12.2244 174.536 11.0283 174.608 8.44467C175.015 8.3729 175.732 8.27721 176.45 8.27721C177.742 8.27721 179.799 8.34898 179.799 8.34898L180.134 6.93755L180.038 6.81793C180.038 6.81793 177.981 7.08108 177.12 7.08108C176.402 7.08108 175.182 7.05716 174.656 7.05716L174.847 2.41618C174.871 1.53104 174.967 1.4832 176.522 1.4832C179.895 1.4832 180.182 1.62674 180.182 3.1817C180.182 3.51662 180.134 4.21037 180.134 4.21037L181.282 4.11468C181.426 1.91381 181.832 0.143535 181.832 0.143535L181.761 0C180.182 0.215303 178.388 0.287071 174.584 0.287071C173.149 0.287071 171.259 0.215304 171.259 0.215304L171.091 1.2679L171.139 1.36359C171.139 1.36359 171.665 1.31574 171.952 1.31574C172.67 1.31574 172.838 1.57889 172.838 2.60756L172.814 12.655C172.814 14.0186 172.383 14.4732 170.948 14.6645L170.804 15.765C170.804 15.765 172.311 15.5257 174.129 15.5257C176.402 15.5257 181.378 15.6932 181.378 15.6932L181.498 15.5497C181.713 13.5163 182.143 11.5307 182.143 11.5307L182.072 11.4111L181.019 11.5307C180.636 14.1622 180.182 14.4492 176.402 14.4492C174.68 14.4492 174.512 14.3057 174.512 13.0139V13.0139Z" fill="black"/>
<path d="M193.645 15.8128L198.262 3.08602H198.382C198.382 3.08602 199.195 12.6072 199.195 13.4206C199.195 14.1382 198.765 14.4971 197.784 14.6167L197.688 15.7171C197.688 15.7171 199.148 15.5258 200.176 15.5258C201.037 15.5258 202.449 15.5975 202.449 15.5975L202.664 14.521L202.616 14.4253C202.616 14.4253 202.234 14.4732 201.947 14.4732C201.181 14.4732 200.99 14.0665 200.774 12.2005C200.511 8.85136 200.152 3.13386 200.152 2.44011C200.152 1.65066 200.655 1.29182 202.042 1.12437L202.162 0.239229L202.114 0.143539C202.114 0.143539 200.248 0.287075 199.53 0.287075C199.052 0.287075 197.951 0.215307 197.951 0.239229C195.679 7.10501 193.813 12.057 193.813 12.057H193.693C193.693 12.057 191.803 7.15285 189.65 0.191385C189.65 0.191385 188.717 0.287075 188.024 0.287075C187.258 0.287075 185.416 0.167462 185.416 0.167462L185.225 1.00475L185.296 1.12437C186.756 1.22006 187.378 1.60282 187.378 2.44011C187.378 3.15778 186.516 11.0283 186.325 12.7747C186.182 14.0665 185.799 14.4971 184.794 14.6167L184.674 15.7171C184.674 15.7171 185.775 15.5258 186.732 15.5258C187.521 15.5258 189.052 15.6214 189.052 15.6214L189.268 14.5449L189.22 14.4492C189.22 14.4492 188.478 14.4732 188.239 14.4732C187.736 14.4732 187.497 14.2339 187.497 13.7316C187.497 13.1096 188.311 3.08602 188.311 3.08602H188.43L193.071 15.9803L193.645 15.8128Z" fill="black"/>
<path d="M209.091 15.8128C212.56 15.8128 215 13.8751 215 11.1479C215 8.97096 212.656 7.87053 210.574 6.79401C208.876 5.90887 207.321 5.02374 207.321 3.58839C207.321 2.27264 208.589 1.29182 210.335 1.29182C212.488 1.29182 213.182 1.84204 213.182 3.51662C213.182 4.25822 213.11 4.76059 213.11 4.76059L213.254 4.8802L214.187 4.78452C214.33 2.58364 214.713 0.7416 214.713 0.7416L214.641 0.598065C214.641 0.598065 213.11 0 210.981 0C207.871 0 205.479 1.93773 205.479 4.4496C205.479 6.53086 207.464 7.6313 209.378 8.63605C211.22 9.59295 213.014 10.4542 213.014 12.0091C213.014 13.6359 211.675 14.6406 209.689 14.6406C207.106 14.6406 206.579 13.9229 206.579 10.4781L205.503 10.5977C205.503 12.9182 205.216 14.7602 205.216 14.7602L205.335 14.9995C205.335 14.9995 206.842 15.8128 209.091 15.8128V15.8128Z" fill="black"/>
</svg>
