<?xml version="1.0" encoding="UTF-8" standalone="no"?>
<svg
   xmlns:dc="http://purl.org/dc/elements/1.1/"
   xmlns:cc="http://creativecommons.org/ns#"
   xmlns:rdf="http://www.w3.org/1999/02/22-rdf-syntax-ns#"
   xmlns:svg="http://www.w3.org/2000/svg"
   xmlns="http://www.w3.org/2000/svg"
   xmlns:sodipodi="http://sodipodi.sourceforge.net/DTD/sodipodi-0.dtd"
   xmlns:inkscape="http://www.inkscape.org/namespaces/inkscape"
   version="1.1"
   id="svg4263"
   xml:space="preserve"
   width="613.24847"
   height="550.27081"
   viewBox="0 0 613.24848 550.27082"
   sodipodi:docname="gfx-explore-disaster.svg"
   inkscape:version="1.0.1 (3bc2e813f5, 2020-09-07)"><metadata
     id="metadata4269"><rdf:RDF><cc:Work
         rdf:about=""><dc:format>image/svg+xml</dc:format><dc:type
           rdf:resource="http://purl.org/dc/dcmitype/StillImage" /><dc:title></dc:title></cc:Work></rdf:RDF></metadata><defs
     id="defs4267"><clipPath
       clipPathUnits="userSpaceOnUse"
       id="clipPath4279"><path
         d="M 0,500 H 500 V 0 H 0 Z"
         id="path4277" /></clipPath><linearGradient
       x1="0"
       y1="0"
       x2="1"
       y2="0"
       gradientUnits="userSpaceOnUse"
       gradientTransform="matrix(344.1615,0,0,-344.1615,78.131844,70.123733)"
       spreadMethod="pad"
       id="linearGradient4535"><stop
         style="stop-opacity:1;stop-color:#415e9a"
         offset="0"
         id="stop4529" /><stop
         style="stop-opacity:1;stop-color:#4a6baf"
         offset="0.276"
         id="stop4531" /><stop
         style="stop-opacity:1;stop-color:#5277c3"
         offset="1"
         id="stop4533" /></linearGradient><clipPath
       clipPathUnits="userSpaceOnUse"
       id="clipPath4545"><path
         d="M 0,500 H 500 V 0 H 0 Z"
         id="path4543" /></clipPath><linearGradient
       x1="0"
       y1="0"
       x2="1"
       y2="0"
       gradientUnits="userSpaceOnUse"
       gradientTransform="matrix(74.700661,0,0,-74.700661,206.61151,280.36594)"
       spreadMethod="pad"
       id="linearGradient4767"><stop
         style="stop-opacity:1;stop-color:#415e9a"
         offset="0"
         id="stop4761" /><stop
         style="stop-opacity:1;stop-color:#4a6baf"
         offset="0.276"
         id="stop4763" /><stop
         style="stop-opacity:1;stop-color:#5277c3"
         offset="1"
         id="stop4765" /></linearGradient><linearGradient
       x1="0"
       y1="0"
       x2="1"
       y2="0"
       gradientUnits="userSpaceOnUse"
       gradientTransform="matrix(12.472075,0,0,-12.472075,285.09528,280.36597)"
       spreadMethod="pad"
       id="linearGradient4789"><stop
         style="stop-opacity:1;stop-color:#415e9a"
         offset="0"
         id="stop4783" /><stop
         style="stop-opacity:1;stop-color:#4a6baf"
         offset="0.276"
         id="stop4785" /><stop
         style="stop-opacity:1;stop-color:#5277c3"
         offset="1"
         id="stop4787" /></linearGradient><linearGradient
       x1="0"
       y1="0"
       x2="1"
       y2="0"
       gradientUnits="userSpaceOnUse"
       gradientTransform="matrix(74.700661,0,0,-74.700661,206.61151,256.44333)"
       spreadMethod="pad"
       id="linearGradient4811"><stop
         style="stop-opacity:1;stop-color:#415e9a"
         offset="0"
         id="stop4805" /><stop
         style="stop-opacity:1;stop-color:#4a6baf"
         offset="0.276"
         id="stop4807" /><stop
         style="stop-opacity:1;stop-color:#5277c3"
         offset="1"
         id="stop4809" /></linearGradient><linearGradient
       x1="0"
       y1="0"
       x2="1"
       y2="0"
       gradientUnits="userSpaceOnUse"
       gradientTransform="matrix(12.472075,0,0,-12.472075,285.09528,256.4433)"
       spreadMethod="pad"
       id="linearGradient4833"><stop
         style="stop-opacity:1;stop-color:#415e9a"
         offset="0"
         id="stop4827" /><stop
         style="stop-opacity:1;stop-color:#4a6baf"
         offset="0.276"
         id="stop4829" /><stop
         style="stop-opacity:1;stop-color:#5277c3"
         offset="1"
         id="stop4831" /></linearGradient><linearGradient
       x1="0"
       y1="0"
       x2="1"
       y2="0"
       gradientUnits="userSpaceOnUse"
       gradientTransform="matrix(74.700661,0,0,-74.700661,206.61151,232.52071)"
       spreadMethod="pad"
       id="linearGradient4855"><stop
         style="stop-opacity:1;stop-color:#415e9a"
         offset="0"
         id="stop4849" /><stop
         style="stop-opacity:1;stop-color:#4a6baf"
         offset="0.276"
         id="stop4851" /><stop
         style="stop-opacity:1;stop-color:#5277c3"
         offset="1"
         id="stop4853" /></linearGradient><linearGradient
       x1="0"
       y1="0"
       x2="1"
       y2="0"
       gradientUnits="userSpaceOnUse"
       gradientTransform="matrix(12.472075,0,0,-12.472075,285.09528,232.52071)"
       spreadMethod="pad"
       id="linearGradient4877"><stop
         style="stop-opacity:1;stop-color:#415e9a"
         offset="0"
         id="stop4871" /><stop
         style="stop-opacity:1;stop-color:#4a6baf"
         offset="0.276"
         id="stop4873" /><stop
         style="stop-opacity:1;stop-color:#5277c3"
         offset="1"
         id="stop4875" /></linearGradient><linearGradient
       x1="0"
       y1="0"
       x2="1"
       y2="0"
       gradientUnits="userSpaceOnUse"
       gradientTransform="matrix(74.700661,0,0,-74.700661,206.61151,208.59807)"
       spreadMethod="pad"
       id="linearGradient4899"><stop
         style="stop-opacity:1;stop-color:#415e9a"
         offset="0"
         id="stop4893" /><stop
         style="stop-opacity:1;stop-color:#4a6baf"
         offset="0.276"
         id="stop4895" /><stop
         style="stop-opacity:1;stop-color:#5277c3"
         offset="1"
         id="stop4897" /></linearGradient><linearGradient
       x1="0"
       y1="0"
       x2="1"
       y2="0"
       gradientUnits="userSpaceOnUse"
       gradientTransform="matrix(12.472075,0,0,-12.472075,285.09528,208.59807)"
       spreadMethod="pad"
       id="linearGradient4921"><stop
         style="stop-opacity:1;stop-color:#415e9a"
         offset="0"
         id="stop4915" /><stop
         style="stop-opacity:1;stop-color:#4a6baf"
         offset="0.276"
         id="stop4917" /><stop
         style="stop-opacity:1;stop-color:#5277c3"
         offset="1"
         id="stop4919" /></linearGradient><linearGradient
       x1="0"
       y1="0"
       x2="1"
       y2="0"
       gradientUnits="userSpaceOnUse"
       gradientTransform="matrix(74.700661,0,0,-74.700661,206.61151,184.67545)"
       spreadMethod="pad"
       id="linearGradient4943"><stop
         style="stop-opacity:1;stop-color:#415e9a"
         offset="0"
         id="stop4937" /><stop
         style="stop-opacity:1;stop-color:#4a6baf"
         offset="0.276"
         id="stop4939" /><stop
         style="stop-opacity:1;stop-color:#5277c3"
         offset="1"
         id="stop4941" /></linearGradient><linearGradient
       x1="0"
       y1="0"
       x2="1"
       y2="0"
       gradientUnits="userSpaceOnUse"
       gradientTransform="matrix(12.472075,0,0,-12.472075,285.09528,184.67545)"
       spreadMethod="pad"
       id="linearGradient4965"><stop
         style="stop-opacity:1;stop-color:#415e9a"
         offset="0"
         id="stop4959" /><stop
         style="stop-opacity:1;stop-color:#4a6baf"
         offset="0.276"
         id="stop4961" /><stop
         style="stop-opacity:1;stop-color:#5277c3"
         offset="1"
         id="stop4963" /></linearGradient><linearGradient
       x1="0"
       y1="0"
       x2="1"
       y2="0"
       gradientUnits="userSpaceOnUse"
       gradientTransform="matrix(74.700661,0,0,-74.700661,206.61151,160.75284)"
       spreadMethod="pad"
       id="linearGradient4987"><stop
         style="stop-opacity:1;stop-color:#415e9a"
         offset="0"
         id="stop4981" /><stop
         style="stop-opacity:1;stop-color:#4a6baf"
         offset="0.276"
         id="stop4983" /><stop
         style="stop-opacity:1;stop-color:#5277c3"
         offset="1"
         id="stop4985" /></linearGradient><linearGradient
       x1="0"
       y1="0"
       x2="1"
       y2="0"
       gradientUnits="userSpaceOnUse"
       gradientTransform="matrix(12.472075,0,0,-12.472075,285.09528,160.75284)"
       spreadMethod="pad"
       id="linearGradient5009"><stop
         style="stop-opacity:1;stop-color:#415e9a"
         offset="0"
         id="stop5003" /><stop
         style="stop-opacity:1;stop-color:#4a6baf"
         offset="0.276"
         id="stop5005" /><stop
         style="stop-opacity:1;stop-color:#5277c3"
         offset="1"
         id="stop5007" /></linearGradient><linearGradient
       x1="0"
       y1="0"
       x2="1"
       y2="0"
       gradientUnits="userSpaceOnUse"
       gradientTransform="matrix(74.700661,0,0,-74.700661,206.61151,136.8302)"
       spreadMethod="pad"
       id="linearGradient5031"><stop
         style="stop-opacity:1;stop-color:#415e9a"
         offset="0"
         id="stop5025" /><stop
         style="stop-opacity:1;stop-color:#4a6baf"
         offset="0.276"
         id="stop5027" /><stop
         style="stop-opacity:1;stop-color:#5277c3"
         offset="1"
         id="stop5029" /></linearGradient><linearGradient
       x1="0"
       y1="0"
       x2="1"
       y2="0"
       gradientUnits="userSpaceOnUse"
       gradientTransform="matrix(12.472075,0,0,-12.472075,285.09528,136.8302)"
       spreadMethod="pad"
       id="linearGradient5053"><stop
         style="stop-opacity:1;stop-color:#415e9a"
         offset="0"
         id="stop5047" /><stop
         style="stop-opacity:1;stop-color:#4a6baf"
         offset="0.276"
         id="stop5049" /><stop
         style="stop-opacity:1;stop-color:#5277c3"
         offset="1"
         id="stop5051" /></linearGradient><linearGradient
       x1="0"
       y1="0"
       x2="1"
       y2="0"
       gradientUnits="userSpaceOnUse"
       gradientTransform="matrix(74.700661,0,0,-74.700661,206.61151,112.90758)"
       spreadMethod="pad"
       id="linearGradient5075"><stop
         style="stop-opacity:1;stop-color:#415e9a"
         offset="0"
         id="stop5069" /><stop
         style="stop-opacity:1;stop-color:#4a6baf"
         offset="0.276"
         id="stop5071" /><stop
         style="stop-opacity:1;stop-color:#5277c3"
         offset="1"
         id="stop5073" /></linearGradient><linearGradient
       x1="0"
       y1="0"
       x2="1"
       y2="0"
       gradientUnits="userSpaceOnUse"
       gradientTransform="matrix(12.472075,0,0,-12.472075,285.09528,112.90759)"
       spreadMethod="pad"
       id="linearGradient5097"><stop
         style="stop-opacity:1;stop-color:#415e9a"
         offset="0"
         id="stop5091" /><stop
         style="stop-opacity:1;stop-color:#4a6baf"
         offset="0.276"
         id="stop5093" /><stop
         style="stop-opacity:1;stop-color:#5277c3"
         offset="1"
         id="stop5095" /></linearGradient><clipPath
       clipPathUnits="userSpaceOnUse"
       id="clipPath5107"><path
         d="M 0,500 H 500 V 0 H 0 Z"
         id="path5105" /></clipPath><linearGradient
       x1="0"
       y1="0"
       x2="1"
       y2="0"
       gradientUnits="userSpaceOnUse"
       gradientTransform="matrix(-11.413874,-9.8369913,9.1656857,-12.24984,249.14601,322.34515)"
       spreadMethod="pad"
       id="linearGradient5139"><stop
         style="stop-opacity:1;stop-color:#699ad7"
         offset="0"
         id="stop5133" /><stop
         style="stop-opacity:1;stop-color:#7eb1dd"
         offset="0.243"
         id="stop5135" /><stop
         style="stop-opacity:1;stop-color:#7ebae4"
         offset="1"
         id="stop5137" /></linearGradient><linearGradient
       x1="0"
       y1="0"
       x2="1"
       y2="0"
       gradientUnits="userSpaceOnUse"
       gradientTransform="matrix(14.451407,-4.6840625,8.8331165,7.663353,249.05377,311.55832)"
       spreadMethod="pad"
       id="linearGradient5161"><stop
         style="stop-opacity:1;stop-color:#699ad7"
         offset="0"
         id="stop5155" /><stop
         style="stop-opacity:1;stop-color:#7eb1dd"
         offset="0.243"
         id="stop5157" /><stop
         style="stop-opacity:1;stop-color:#7ebae4"
         offset="1"
         id="stop5159" /></linearGradient><linearGradient
       x1="0"
       y1="0"
       x2="1"
       y2="0"
       gradientUnits="userSpaceOnUse"
       gradientTransform="matrix(-2.2467659,13.610137,-10.505423,-2.9107623,257.82681,317.2182)"
       spreadMethod="pad"
       id="linearGradient5183"><stop
         style="stop-opacity:1;stop-color:#699ad7"
         offset="0"
         id="stop5177" /><stop
         style="stop-opacity:1;stop-color:#7eb1dd"
         offset="0.243"
         id="stop5179" /><stop
         style="stop-opacity:1;stop-color:#7ebae4"
         offset="1"
         id="stop5181" /></linearGradient><clipPath
       clipPathUnits="userSpaceOnUse"
       id="clipPath5193"><path
         d="M 0,500 H 500 V 0 H 0 Z"
         id="path5191" /></clipPath><linearGradient
       x1="0"
       y1="0"
       x2="1"
       y2="0"
       gradientUnits="userSpaceOnUse"
       gradientTransform="matrix(-14.374859,6.1539421,-11.603984,-7.6234217,255.08879,321.38794)"
       spreadMethod="pad"
       id="linearGradient5217"><stop
         style="stop-opacity:1;stop-color:#415e9a"
         offset="0"
         id="stop5211" /><stop
         style="stop-opacity:1;stop-color:#4a6baf"
         offset="0.276"
         id="stop5213" /><stop
         style="stop-opacity:1;stop-color:#5277c3"
         offset="1"
         id="stop5215" /></linearGradient><linearGradient
       x1="0"
       y1="0"
       x2="1"
       y2="0"
       gradientUnits="userSpaceOnUse"
       gradientTransform="matrix(12.052102,8.9487486,-8.3352137,12.939228,254.60808,312.64496)"
       spreadMethod="pad"
       id="linearGradient5239"><stop
         style="stop-opacity:1;stop-color:#415e9a"
         offset="0"
         id="stop5233" /><stop
         style="stop-opacity:1;stop-color:#4a6baf"
         offset="0.232"
         id="stop5235" /><stop
         style="stop-opacity:1;stop-color:#5277c3"
         offset="1"
         id="stop5237" /></linearGradient><linearGradient
       x1="0"
       y1="0"
       x2="1"
       y2="0"
       gradientUnits="userSpaceOnUse"
       gradientTransform="matrix(2.4834104,-14.513932,11.206136,3.2164569,246.34477,317.01932)"
       spreadMethod="pad"
       id="linearGradient5261"><stop
         style="stop-opacity:1;stop-color:#415e9a"
         offset="0"
         id="stop5255" /><stop
         style="stop-opacity:1;stop-color:#4a6baf"
         offset="0.276"
         id="stop5257" /><stop
         style="stop-opacity:1;stop-color:#5277c3"
         offset="1"
         id="stop5259" /></linearGradient><linearGradient
       x1="0"
       y1="0"
       x2="1"
       y2="0"
       gradientUnits="userSpaceOnUse"
       gradientTransform="matrix(2.4832411,-14.527224,11.215629,3.2164578,247.31647,317.19125)"
       spreadMethod="pad"
       id="linearGradient5283"><stop
         style="stop-opacity:1;stop-color:#415e9a"
         offset="0"
         id="stop5277" /><stop
         style="stop-opacity:1;stop-color:#4a6baf"
         offset="0.276"
         id="stop5279" /><stop
         style="stop-opacity:1;stop-color:#5277c3"
         offset="1"
         id="stop5281" /></linearGradient><clipPath
       clipPathUnits="userSpaceOnUse"
       id="clipPath5293"><path
         d="M 0,500 H 500 V 0 H 0 Z"
         id="path5291" /></clipPath></defs><sodipodi:namedview
     pagecolor="#ffffff"
     bordercolor="#666666"
     borderopacity="1"
     objecttolerance="10"
     gridtolerance="10"
     guidetolerance="10"
     inkscape:pageopacity="0"
     inkscape:pageshadow="2"
     inkscape:window-width="1917"
     inkscape:window-height="1025"
     id="namedview4265"
     showgrid="false"
     inkscape:zoom="1.3245"
     inkscape:cx="305.0553"
     inkscape:cy="347.43361"
     inkscape:window-x="0"
     inkscape:window-y="24"
     inkscape:window-maximized="0"
     inkscape:current-layer="g4271" /><g
     id="g4271"
     inkscape:groupmode="layer"
     inkscape:label="Grafika_explore(1)"
     transform="matrix(1.3333333,0,0,-1.3333333,-28.278047,604.69612)"><g
       id="g4273"><g
         id="g4275"
         clip-path="url(#clipPath4279)"><g
           id="g4281"
           transform="translate(38.5518,282.0928)"><path
             d="m 0,0 c 0,0 27.638,48.699 102.662,34.22 75.025,-14.478 97.396,-78.97 159.259,-77.654 61.863,1.317 138.199,26.323 168.472,-11.845 30.272,-38.169 5.265,-114.508 -86.869,-109.243 -92.133,5.263 -93.449,40.801 -144.78,27.637 -51.33,-13.164 -82.92,-40.8 -159.259,-15.793 C -36.854,-127.671 -21.059,-31.587 0,0"
             style="fill:#f2f8fd;fill-opacity:1;fill-rule:nonzero;stroke:none"
             id="path4283" /></g><g
           id="g4285"
           transform="translate(230.5391,330.9902)"><path
             d="m 0,0 -103.809,92.604 35.826,9.205 65.449,-85.101 z"
             style="fill:#f2f8fd;fill-opacity:1;fill-rule:nonzero;stroke:none"
             id="path4287" /></g><g
           id="g4289"
           transform="translate(229.7793,349.3408)"><path
             d="M 0,0 C -0.155,0.606 -50.119,87.853 -50.119,87.853 L -21.252,95.269 6.735,1.73 Z"
             style="fill:#f2f8fd;fill-opacity:1;fill-rule:nonzero;stroke:none"
             id="path4291" /></g><g
           id="g4293"
           transform="translate(241.7881,352.9092)"><path
             d="M 0,0 -21.592,94.698 -0.929,100.007 3.966,0.536 Z"
             style="fill:#f2f8fd;fill-opacity:1;fill-rule:nonzero;stroke:none"
             id="path4295" /></g><g
           id="g4297"
           transform="translate(268.4404,330.1895)"><path
             d="M 0,0 108.291,87.32 72.968,98.297 3.363,16.561 Z"
             style="fill:#f2f8fd;fill-opacity:1;fill-rule:nonzero;stroke:none"
             id="path4299" /></g><g
           id="g4301"
           transform="translate(269.7402,348.8945)"><path
             d="M 0,0 C 0.186,0.597 54.431,85.248 54.431,85.248 L 25.969,94.092 -6.642,2.064 Z"
             style="fill:#f2f8fd;fill-opacity:1;fill-rule:nonzero;stroke:none"
             id="path4303" /></g><g
           id="g4305"
           transform="translate(255.9004,353.6851)"><path
             d="M 0,0 26.28,93.506 5.907,99.837 -3.934,0.732 Z"
             style="fill:#f2f8fd;fill-opacity:1;fill-rule:nonzero;stroke:none"
             id="path4307" /></g><g
           id="g4309"
           transform="translate(375.1758,326.48)"><path
             d="m 0,0 c -23.302,18.43 5.059,39.116 5.059,39.116 0,0 -6.582,-13.658 -2.621,-15.012 3.963,-1.354 8.425,6.485 6.643,21.602 -1.781,15.117 9.206,19.829 9.206,19.829 0,0 -7.521,-10.179 -1.652,-19.6 5.869,-9.422 9.028,-12.846 6,-25.135 C 19.606,8.512 36.482,20.373 30.827,29.757 22.088,44.26 28.062,51.896 28.65,54.003 29.238,56.11 25.522,47.478 34.796,38.567 44.069,29.656 52.562,15.446 39.697,0.807 34.538,-5.064 17.678,-5.074 10.815,-3.876 4.293,-2.738 0,0 0,0"
             style="fill:#fc0001;fill-opacity:1;fill-rule:nonzero;stroke:none"
             id="path4311" /></g><g
           id="g4313"
           transform="translate(400.623,324.6934)"><path
             d="M 0,0 C 21.562,15.708 20.534,26.595 11.602,34.762 2.669,42.928 3.409,45.12 3.409,45.12 c 0,0 -1.336,-4.588 4.018,-11.773 C 12.78,26.163 6.652,11.518 -3.891,9.429 -14.434,7.34 -15.545,1.998 -15.251,2.661 c 0.295,0.663 10.207,12.23 10.984,22.012 0.897,11.273 -1.073,12.777 -8.154,22.852 -2.433,3.46 -2.807,7.454 -2.807,7.454 0,0 -2.209,-1.4 3.126,-14.831 4.85,-12.211 -11.096,-21.635 -13.158,-15.025 -2.06,6.609 -0.16,9.314 -0.16,9.314 0,0 -10.652,-8.856 -10.206,-18.577 C -35.18,6.139 -26.33,-1.477 -18.463,-1.421 -10.596,-1.365 -5.934,-4.322 0,0"
             style="fill:#fb6d01;fill-opacity:1;fill-rule:nonzero;stroke:none"
             id="path4315" /></g><g
           id="g4317"
           transform="translate(383.5244,323.9268)"><path
             d="m 0,0 c -13.775,-1.167 -19.94,9.552 -19.944,16.695 -0.003,7.144 6.826,11.488 6.826,11.488 0,0 -1.842,-6.465 3.807,-8.879 3.788,-1.618 10.715,1.281 14.565,9.78 2.324,5.13 4.172,8.558 4.172,8.558 0,0 4.939,-19.791 3.782,-27.447 -1.157,-7.655 -3.162,-8.912 -3.162,-8.912 0,0 2.131,1.573 8.623,4.388 7.341,3.183 8.823,4.483 11.513,11.741 2.362,6.374 -1.468,16.15 -1.468,16.15 0,0 9.946,-6.449 6.227,-21.624 C 29.359,-10.837 0,0 0,0"
             style="fill:#efa204;fill-opacity:1;fill-rule:nonzero;stroke:none"
             id="path4319" /></g><g
           id="g4321"
           transform="translate(368.0303,347.7026)"><path
             d="m 0,0 c -3.52,-14.029 2.571,-23.127 12.661,-23.638 10.09,-0.511 13.315,6.712 14.415,13.02 1.754,10.051 -2.717,19.224 -2.717,19.224 0,0 -4.946,-19.137 -13.476,-18.898 C 2.353,-10.054 0,0 0,0"
             style="fill:#facf67;fill-opacity:1;fill-rule:nonzero;stroke:none"
             id="path4323" /></g><g
           id="g4325"
           transform="translate(390.7949,321.5869)"><path
             d="m 0,0 c 1.542,8.838 11.408,13.188 18.252,15.565 6.844,2.377 7.622,5.813 7.622,5.813 0,0 1.596,-3.136 -2.22,-6.577 -3.814,-3.442 -11.615,-6.188 -7.26,-7.841 4.354,-1.652 7.41,4.601 7.41,4.601 0,0 -1.271,-7.279 -4.618,-10.088 C 15.839,-1.335 0,0 0,0"
             style="fill:#facf67;fill-opacity:1;fill-rule:nonzero;stroke:none"
             id="path4327" /></g><g
           id="g4329"
           transform="translate(398.6475,323.6094)"><path
             d="m 0,0 c -10.867,-2.925 -18.295,1.585 -13.121,8.718 5.173,7.134 14.66,7.263 14.66,7.263 0,0 -8.768,-8.291 -2.568,-10.623 C 5.172,3.026 0,0 0,0"
             style="fill:#fce8b3;fill-opacity:1;fill-rule:nonzero;stroke:none"
             id="path4331" /></g><g
           id="g4333"
           transform="translate(383.0869,323.4678)"><path
             d="m 0,0 c 1.74,12.018 -6.278,11.096 -11.235,13.389 -4.957,2.294 -5.686,5.278 -5.686,5.278 0,0 -3.614,-7.405 1.417,-11.319 C -10.472,3.435 0,0 0,0"
             style="fill:#fce8b3;fill-opacity:1;fill-rule:nonzero;stroke:none"
             id="path4335" /></g><g
           id="g4337"
           transform="translate(384.1562,334.71)"><path
             d="m 0,0 c -7.161,9.107 -4.655,15.277 0.9,19.486 5.556,4.209 2.079,10.888 2.079,10.888 0,0 5.618,-6.695 0.444,-13.829 C -1.751,9.413 0,0 0,0"
             style="fill:#fce8b3;fill-opacity:1;fill-rule:nonzero;stroke:none"
             id="path4339" /></g><g
           id="g4341"
           transform="translate(368.7969,357.2119)"><path
             d="M 0,0 C 0.577,7.399 5.663,6.869 3.919,13.245 3.063,16.374 3.789,11.482 0.932,8.409 -3.946,3.164 0,0 0,0"
             style="fill:#fc0001;fill-opacity:1;fill-rule:nonzero;stroke:none"
             id="path4343" /></g><g
           id="g4345"
           transform="translate(412.3633,377.645)"><path
             d="M 0,0 C 5.543,-5.074 -0.293,-11.913 1.132,-10.912 1.775,-10.459 4.713,-7.787 4.3,-5.036 3.887,-2.285 0,0 0,0"
             style="fill:#fc0001;fill-opacity:1;fill-rule:nonzero;stroke:none"
             id="path4347" /></g><g
           id="g4349"
           transform="translate(394.6152,321.9912)"><path
             d="m 0,0 c 1.355,10.835 11.175,12.872 11.175,12.872 0,0 -4.637,-5.084 0.095,-6.624 4.731,-1.54 6.02,0.735 6.02,0.735 L 15.464,2.659 Z"
             style="fill:#fce8b3;fill-opacity:1;fill-rule:nonzero;stroke:none"
             id="path4351" /></g><g
           id="g4353"
           transform="translate(382.3555,322.3452)"><path
             d="m 0,0 c 0,0 -9.245,1.256 -14.849,5.984 -5.603,4.728 -0.402,7.928 5.639,3.659 6.041,-4.268 5.817,0.592 5.817,0.592 0,0 1.695,-1.546 2.333,-5.05 0.639,-3.504 5.945,-1.752 5.622,1.519 -0.322,3.271 5.95,6.462 5.95,6.462 0,0 -3.612,-3.299 -1.851,-7.535 1.761,-4.235 8.484,-2.551 9.012,-1.572 0.528,0.979 1.679,-3.686 5.823,-2.445 4.146,1.241 5.216,1.233 5.961,0.388 0.745,-0.844 0.127,-2.343 0.127,-2.343 0,0 -8.788,-3.288 -9.278,-3.024 C 19.816,-3.101 0,0 0,0"
             style="fill:#ffffff;fill-opacity:1;fill-rule:nonzero;stroke:none"
             id="path4355" /></g><g
           id="g4357"
           transform="translate(411.3174,354.2559)"><path
             d="m 0,0 c -4.758,-5.777 -2.101,-9.991 -4.325,-13.531 -2.226,-3.54 5.548,3.139 4.359,6.561 C -1.155,-3.548 0,0 0,0"
             style="fill:#fce8b3;fill-opacity:1;fill-rule:nonzero;stroke:none"
             id="path4359" /></g><g
           id="g4361"
           transform="translate(363.7373,332.5581)"><path
             d="m 0,0 c 23.302,18.431 -5.058,39.116 -5.058,39.116 0,0 6.582,-13.658 2.62,-15.012 -3.962,-1.354 -8.424,6.485 -6.643,21.602 1.781,15.117 -9.206,19.829 -9.206,19.829 0,0 7.522,-10.178 1.652,-19.6 -5.869,-9.422 -9.028,-12.846 -6,-25.135 3.029,-12.288 -13.847,-0.427 -8.192,8.957 8.739,14.503 2.765,22.139 2.178,24.246 -0.589,2.108 3.127,-6.525 -6.146,-15.436 -9.273,-8.911 -17.767,-23.121 -4.902,-37.76 5.159,-5.871 22.02,-5.881 28.883,-4.683 C -4.292,-2.738 0,0 0,0"
             style="fill:#fc0001;fill-opacity:1;fill-rule:nonzero;stroke:none"
             id="path4363" /></g><g
           id="g4365"
           transform="translate(338.291,330.7715)"><path
             d="m 0,0 c -21.562,15.708 -20.535,26.596 -11.603,34.762 8.933,8.166 8.193,10.358 8.193,10.358 0,0 1.337,-4.588 -4.017,-11.772 C -12.78,26.163 -6.653,11.518 3.89,9.429 14.434,7.34 15.544,1.999 15.25,2.661 14.955,3.324 5.043,14.891 4.266,24.673 3.37,35.946 5.339,37.45 12.421,47.525 c 2.432,3.461 2.806,7.454 2.806,7.454 0,0 2.209,-1.4 -3.126,-14.831 -4.85,-12.211 11.097,-21.635 13.158,-15.025 2.06,6.609 0.16,9.314 0.16,9.314 0,0 10.653,-8.856 10.206,-18.577 C 35.179,6.139 26.329,-1.477 18.462,-1.421 10.596,-1.365 5.933,-4.322 0,0"
             style="fill:#fb6d01;fill-opacity:1;fill-rule:nonzero;stroke:none"
             id="path4367" /></g><g
           id="g4369"
           transform="translate(355.3887,330.0054)"><path
             d="m 0,0 c 13.775,-1.167 19.941,9.551 19.944,16.695 0.003,7.143 -6.826,11.487 -6.826,11.487 0,0 1.843,-6.464 -3.807,-8.879 -3.788,-1.618 -10.715,1.281 -14.565,9.78 -2.323,5.131 -4.172,8.558 -4.172,8.558 0,0 -4.939,-19.79 -3.782,-27.446 1.158,-7.655 3.163,-8.912 3.163,-8.912 0,0 -2.131,1.573 -8.623,4.388 -7.342,3.183 -8.823,4.483 -11.514,11.741 -2.362,6.373 1.468,16.149 1.468,16.149 0,0 -9.945,-6.448 -6.226,-21.623 C -29.359,-10.838 0,0 0,0"
             style="fill:#efa204;fill-opacity:1;fill-rule:nonzero;stroke:none"
             id="path4371" /></g><g
           id="g4373"
           transform="translate(370.8828,353.7808)"><path
             d="m 0,0 c 3.52,-14.029 -2.571,-23.127 -12.66,-23.638 -10.09,-0.511 -13.315,6.712 -14.416,13.02 -1.754,10.051 2.717,19.224 2.717,19.224 0,0 4.947,-19.137 13.476,-18.898 C -2.353,-10.053 0,0 0,0"
             style="fill:#facf67;fill-opacity:1;fill-rule:nonzero;stroke:none"
             id="path4375" /></g><g
           id="g4377"
           transform="translate(348.1182,327.665)"><path
             d="m 0,0 c -1.542,8.838 -11.408,13.188 -18.252,15.565 -6.844,2.377 -7.621,5.813 -7.621,5.813 0,0 -1.596,-3.136 2.219,-6.577 3.815,-3.442 11.615,-6.188 7.26,-7.84 -4.354,-1.653 -7.409,4.6 -7.409,4.6 0,0 1.27,-7.279 4.617,-10.088 C -15.838,-1.335 0,0 0,0"
             style="fill:#facf67;fill-opacity:1;fill-rule:nonzero;stroke:none"
             id="path4379" /></g><g
           id="g4381"
           transform="translate(340.2656,329.6875)"><path
             d="m 0,0 c 10.868,-2.925 18.295,1.585 13.121,8.719 -5.173,7.133 -14.66,7.263 -14.66,7.263 0,0 8.768,-8.292 2.568,-10.624 C -5.171,3.026 0,0 0,0"
             style="fill:#fce8b3;fill-opacity:1;fill-rule:nonzero;stroke:none"
             id="path4383" /></g><g
           id="g4385"
           transform="translate(355.8262,329.5459)"><path
             d="m 0,0 c -1.74,12.018 6.278,11.096 11.235,13.389 4.957,2.294 5.687,5.278 5.687,5.278 0,0 3.613,-7.405 -1.418,-11.318 C 10.473,3.435 0,0 0,0"
             style="fill:#fce8b3;fill-opacity:1;fill-rule:nonzero;stroke:none"
             id="path4387" /></g><g
           id="g4389"
           transform="translate(354.7578,340.7881)"><path
             d="m 0,0 c 7.16,9.107 4.655,15.277 -0.901,19.486 -5.556,4.209 -2.078,10.888 -2.078,10.888 0,0 -5.618,-6.695 -0.445,-13.828 C 1.75,9.413 0,0 0,0"
             style="fill:#fce8b3;fill-opacity:1;fill-rule:nonzero;stroke:none"
             id="path4391" /></g><g
           id="g4393"
           transform="translate(370.1162,363.29)"><path
             d="m 0,0 c -0.577,7.399 -5.663,6.869 -3.918,13.245 0.855,3.129 0.129,-1.763 2.986,-4.836 C 3.946,3.164 0,0 0,0"
             style="fill:#fc0001;fill-opacity:1;fill-rule:nonzero;stroke:none"
             id="path4395" /></g><g
           id="g4397"
           transform="translate(326.5498,383.7236)"><path
             d="M 0,0 C -5.543,-5.075 0.293,-11.914 -1.132,-10.912 -1.775,-10.459 -4.713,-7.787 -4.3,-5.036 -3.887,-2.286 0,0 0,0"
             style="fill:#fc0001;fill-opacity:1;fill-rule:nonzero;stroke:none"
             id="path4399" /></g><g
           id="g4401"
           transform="translate(344.2979,328.0698)"><path
             d="m 0,0 c -1.354,10.835 -11.175,12.872 -11.175,12.872 0,0 4.637,-5.084 -0.094,-6.624 C -16,4.708 -17.29,6.983 -17.29,6.983 l 1.826,-4.324 z"
             style="fill:#fce8b3;fill-opacity:1;fill-rule:nonzero;stroke:none"
             id="path4403" /></g><g
           id="g4405"
           transform="translate(356.5576,328.4233)"><path
             d="m 0,0 c 0,0 9.245,1.256 14.849,5.984 5.604,4.728 0.402,7.928 -5.638,3.659 -6.042,-4.268 -5.818,0.592 -5.818,0.592 0,0 -1.695,-1.546 -2.333,-5.05 -0.639,-3.504 -5.945,-1.751 -5.622,1.519 0.322,3.271 -5.95,6.462 -5.95,6.462 0,0 3.612,-3.298 1.851,-7.534 -1.761,-4.236 -8.484,-2.552 -9.012,-1.573 -0.527,0.979 -1.678,-3.686 -5.823,-2.445 -4.146,1.241 -5.215,1.233 -5.961,0.388 -0.745,-0.844 -0.127,-2.343 -0.127,-2.343 0,0 8.789,-3.288 9.278,-3.024 C -19.816,-3.101 0,0 0,0"
             style="fill:#ffffff;fill-opacity:1;fill-rule:nonzero;stroke:none"
             id="path4407" /></g><g
           id="g4409"
           transform="translate(327.5957,360.334)"><path
             d="m 0,0 c 4.759,-5.777 2.101,-9.991 4.326,-13.531 2.225,-3.54 -5.548,3.139 -4.359,6.561 C 1.155,-3.548 0,0 0,0"
             style="fill:#fce8b3;fill-opacity:1;fill-rule:nonzero;stroke:none"
             id="path4411" /></g><g
           id="g4413"
           transform="translate(139.7168,311.7344)"><path
             d="m 0,0 c -25.483,17.442 2.442,40.924 2.442,40.924 0,0 -5.846,-14.634 -1.64,-15.754 4.206,-1.121 8.27,7.329 5.34,22.876 -2.931,15.549 8.125,21.223 8.125,21.223 0,0 -7.071,-11.095 -0.309,-20.444 6.762,-9.349 10.283,-12.674 8.023,-25.634 -2.259,-12.96 14.39,0.55 7.854,9.875 -10.103,14.413 -4.455,22.76 -3.996,24.987 0.46,2.227 -2.776,-6.991 7.479,-15.567 C 43.573,33.911 53.398,19.784 41.107,3.682 36.178,-2.776 18.695,-3.994 11.493,-3.244 4.647,-2.532 0,0 0,0"
             style="fill:#fc0001;fill-opacity:1;fill-rule:nonzero;stroke:none"
             id="path4415" /></g><g
           id="g4417"
           transform="translate(166.2324,311.7056)"><path
             d="m 0,0 c 21.234,17.833 19.388,29.05 9.54,36.878 -9.848,7.828 -9.238,10.154 -9.238,10.154 0,0 -1.057,-4.853 5.01,-11.92 C 11.378,28.046 6.073,12.42 -4.71,9.499 -15.493,6.577 -16.262,0.958 -16.004,1.667 c 0.257,0.708 9.707,13.413 9.813,23.613 0.121,11.753 -2.03,13.171 -10.095,23.112 -2.77,3.414 -3.444,7.528 -3.444,7.528 0,0 -2.19,-1.61 4.304,-15.155 5.905,-12.314 -9.956,-23.23 -12.567,-16.524 -2.611,6.706 -0.834,9.647 -0.834,9.647 0,0 -10.411,-9.947 -9.252,-19.995 1.16,-10.048 10.883,-17.311 19.036,-16.69 C -10.889,-2.175 -5.842,-4.907 0,0"
             style="fill:#fb6d01;fill-opacity:1;fill-rule:nonzero;stroke:none"
             id="path4419" /></g><g
           id="g4421"
           transform="translate(148.5576,309.6855)"><path
             d="m 0,0 c -14.201,-2.198 -21.362,8.475 -21.878,15.883 -0.516,7.407 6.255,12.401 6.255,12.401 0,0 -1.447,-6.835 4.585,-8.934 4.043,-1.407 11.018,2.096 14.401,11.185 2.042,5.486 3.713,9.173 3.713,9.173 0,0 6.54,-20.168 5.889,-28.189 C 12.313,3.498 10.324,2.05 10.324,2.05 c 0,0 2.098,1.784 8.628,5.168 7.385,3.827 8.828,5.282 11.097,13.001 1.993,6.778 -2.679,16.64 -2.679,16.64 0,0 10.776,-5.973 8.007,-21.975 C 31.221,-9.134 0,0 0,0"
             style="fill:#efa204;fill-opacity:1;fill-rule:nonzero;stroke:none"
             id="path4423" /></g><g
           id="g4425"
           transform="translate(130.7861,333.2295)"><path
             d="m 0,0 c -2.644,-14.8 4.324,-23.798 14.823,-23.604 10.499,0.193 13.325,7.914 14.015,14.534 1.099,10.549 -4.194,19.74 -4.194,19.74 0,0 -3.758,-20.199 -12.621,-20.563 C 3.16,-10.256 0,0 0,0"
             style="fill:#facf67;fill-opacity:1;fill-rule:nonzero;stroke:none"
             id="path4427" /></g><g
           id="g4429"
           transform="translate(156.2637,307.7798)"><path
             d="m 0,0 c 0.967,9.275 10.886,14.493 17.812,17.449 6.926,2.955 7.487,6.573 7.487,6.573 0,0 1.879,-3.137 -1.83,-6.979 -3.709,-3.842 -11.602,-7.248 -6.968,-8.65 4.634,-1.402 7.354,5.301 7.354,5.301 0,0 -0.795,-7.639 -4.065,-10.791 C 16.521,-0.25 0,0 0,0"
             style="fill:#facf67;fill-opacity:1;fill-rule:nonzero;stroke:none"
             id="path4431" /></g><g
           id="g4433"
           transform="translate(164.2627,310.4399)"><path
             d="m 0,0 c -11.06,-3.812 -19.085,0.333 -14.231,8.101 4.853,7.767 14.681,8.582 14.681,8.582 0,0 -8.498,-9.226 -1.901,-11.201 C 5.146,3.509 0,0 0,0"
             style="fill:#fce8b3;fill-opacity:1;fill-rule:nonzero;stroke:none"
             id="path4435" /></g><g
           id="g4437"
           transform="translate(148.1367,309.1777)"><path
             d="m 0,0 c 0.943,12.587 -7.306,11.056 -12.61,13.079 -5.305,2.024 -6.275,5.066 -6.275,5.066 0,0 -3.217,-7.938 2.281,-11.636 C -11.105,2.811 0,0 0,0"
             style="fill:#fce8b3;fill-opacity:1;fill-rule:nonzero;stroke:none"
             id="path4439" /></g><g
           id="g4441"
           transform="translate(148.4395,320.9121)"><path
             d="m 0,0 c -8.078,8.93 -5.923,15.508 -0.463,20.271 5.46,4.763 1.375,11.439 1.375,11.439 0,0 6.306,-6.54 1.452,-14.307 C -2.489,9.635 0,0 0,0"
             style="fill:#fce8b3;fill-opacity:1;fill-rule:nonzero;stroke:none"
             id="path4443" /></g><g
           id="g4445"
           transform="translate(130.8994,343.145)"><path
             d="M 0,0 C 0.068,7.714 5.381,7.529 3.114,14.016 2.003,17.199 3.107,12.178 0.364,8.787 -4.318,2.998 0,0 0,0"
             style="fill:#fc0001;fill-opacity:1;fill-rule:nonzero;stroke:none"
             id="path4447" /></g><g
           id="g4449"
           transform="translate(174.6123,367.4565)"><path
             d="m 0,0 c 6.111,-4.865 0.55,-12.375 1.955,-11.234 0.636,0.515 3.49,3.497 2.864,6.319 C 4.194,-2.092 0,0 0,0"
             style="fill:#fc0001;fill-opacity:1;fill-rule:nonzero;stroke:none"
             id="path4451" /></g><g
           id="g4453"
           transform="translate(160.1973,308.4731)"><path
             d="m 0,0 c 0.628,11.333 10.665,14.148 10.665,14.148 0,0 -4.444,-5.604 0.572,-6.861 5.017,-1.258 6.192,1.193 6.192,1.193 L 15.845,3.865 Z"
             style="fill:#fce8b3;fill-opacity:1;fill-rule:nonzero;stroke:none"
             id="path4455" /></g><g
           id="g4457"
           transform="translate(147.459,307.9614)"><path
             d="m 0,0 c 0,0 -9.678,0.64 -15.827,5.141 -6.15,4.502 -0.985,8.192 5.585,4.198 6.57,-3.993 5.99,1.031 5.99,1.031 0,0 1.868,-1.481 2.781,-5.069 0.913,-3.589 6.29,-1.391 5.722,1.978 -0.568,3.368 5.706,7.127 5.706,7.127 0,0 -3.509,-3.679 -1.379,-7.946 2.129,-4.266 8.98,-2.038 9.457,-0.984 0.477,1.053 2.004,-3.702 6.214,-2.118 4.209,1.583 5.319,1.652 6.153,0.829 0.833,-0.822 0.299,-2.42 0.299,-2.42 0,0 -8.877,-4.04 -9.404,-3.801 C 20.771,-1.795 0,0 0,0"
             style="fill:#ffffff;fill-opacity:1;fill-rule:nonzero;stroke:none"
             id="path4459" /></g><g
           id="g4461"
           transform="translate(175.2041,343.1274)"><path
             d="m 0,0 c -4.521,-6.332 -1.462,-10.511 -3.516,-14.341 -2.053,-3.831 5.529,3.653 4.05,7.115 C -0.943,-3.763 0,0 0,0"
             style="fill:#fce8b3;fill-opacity:1;fill-rule:nonzero;stroke:none"
             id="path4463" /></g><g
           id="g4465"
           transform="translate(101.2871,305.0854)"><path
             d="m 0,0 c -21.859,6.565 -7.462,29.367 -7.462,29.367 0,0 -0.834,-11.617 2.38,-11.463 3.213,0.155 4.18,7.017 -1.372,17.309 -5.553,10.291 0.961,16.767 0.961,16.767 0,0 -2.49,-9.398 4.368,-14.465 6.859,-5.068 10.085,-6.619 11.401,-16.252 1.317,-9.634 10.011,3.615 3.316,8.716 C 3.244,37.862 5.349,45.007 5.172,46.679 4.996,48.35 4.786,41.132 13.932,37.394 23.077,33.656 33.165,25.912 28.122,11.815 26.1,6.161 14.062,1.381 8.821,0.293 3.841,-0.74 0,0 0,0"
             style="fill:#fc0001;fill-opacity:1;fill-rule:nonzero;stroke:none"
             id="path4467" /></g><g
           id="g4469"
           transform="translate(119.9668,311.0137)"><path
             d="m 0,0 c 10.952,17.322 7.135,24.807 -1.556,28.11 -8.691,3.303 -8.784,5.078 -8.784,5.078 0,0 0.345,-3.655 6.202,-7.27 5.858,-3.615 5.628,-15.809 -1.31,-20.286 -6.939,-4.476 -6.219,-8.606 -6.198,-8.049 0.024,0.557 3.829,11.624 1.614,18.83 -2.552,8.304 -4.384,8.821 -12.294,14.011 -2.716,1.783 -4.114,4.53 -4.114,4.53 0,0 -1.181,-1.626 6.431,-9.707 6.92,-7.348 -1.8,-18.594 -5.143,-14.456 -3.343,4.137 -2.751,6.606 -2.751,6.606 0,0 -5.101,-9.34 -2.031,-16.156 3.072,-6.816 11.548,-9.75 17.151,-7.483 C -7.181,-3.975 -3.014,-4.766 0,0"
             style="fill:#fb6d01;fill-opacity:1;fill-rule:nonzero;stroke:none"
             id="path4471" /></g><g
           id="g4473"
           transform="translate(107.9727,305.6255)"><path
             d="m 0,0 c -9.508,-4.733 -16.945,1.176 -18.971,6.277 -2.024,5.1 1.623,10.137 1.623,10.137 0,0 0.515,-5.139 5.234,-5.264 3.162,-0.083 7.289,3.949 7.632,11.108 0.208,4.322 0.556,7.293 0.556,7.293 0,0 9.131,-12.736 10.472,-18.53 C 7.887,5.226 6.811,3.76 6.811,3.76 c 0,0 1.076,1.727 4.916,5.575 4.341,4.352 5.032,5.7 4.898,11.645 -0.117,5.221 -5.62,11.118 -5.62,11.118 0,0 8.929,-1.789 10.568,-13.68 C 24.035,0.572 0,0 0,0"
             style="fill:#efa204;fill-opacity:1;fill-rule:nonzero;stroke:none"
             id="path4475" /></g><g
           id="g4477"
           transform="translate(90.1758,318.2187)"><path
             d="m 0,0 c 1.458,-11.015 8.384,-15.789 15.734,-13.297 7.351,2.491 7.609,8.563 6.609,13.38 -1.593,7.674 -7.383,12.96 -7.383,12.96 0,0 1.885,-15.067 -4.274,-17.312 C 4.526,-6.514 0,0 0,0"
             style="fill:#facf67;fill-opacity:1;fill-rule:nonzero;stroke:none"
             id="path4479" /></g><g
           id="g4481"
           transform="translate(113.8271,306.0127)"><path
             d="m 0,0 c -1.4,6.749 4.414,12.648 8.628,16.284 4.215,3.634 3.798,6.309 3.798,6.309 0,0 2.027,-1.788 0.277,-5.326 -1.75,-3.538 -6.544,-7.707 -2.966,-7.655 3.577,0.053 3.99,5.383 3.99,5.383 0,0 1.153,-5.557 -0.442,-8.511 C 11.689,3.53 0,0 0,0"
             style="fill:#facf67;fill-opacity:1;fill-rule:nonzero;stroke:none"
             id="path4483" /></g><g
           id="g4485"
           transform="translate(118.8633,309.6802)"><path
             d="m 0,0 c -6.934,-5.166 -13.515,-4.047 -11.84,2.512 1.676,6.559 8.414,9.338 8.414,9.338 0,0 -3.915,-8.404 1.173,-8.314 C 2.836,3.625 0,0 0,0"
             style="fill:#fce8b3;fill-opacity:1;fill-rule:nonzero;stroke:none"
             id="path4487" /></g><g
           id="g4489"
           transform="translate(107.79,305.1738)"><path
             d="m 0,0 c -2.159,9.075 -7.625,6.147 -11.814,6.381 -4.19,0.235 -5.555,2.16 -5.555,2.16 0,0 -0.485,-6.312 4.217,-7.682 C -8.451,-0.512 0,0 0,0"
             style="fill:#fce8b3;fill-opacity:1;fill-rule:nonzero;stroke:none"
             id="path4491" /></g><g
           id="g4493"
           transform="translate(105.3711,313.5054)"><path
             d="m 0,0 c -7.692,4.477 -7.65,9.592 -4.874,14.171 2.776,4.579 -1.598,8.364 -1.598,8.364 0,0 5.908,-3.191 4.232,-9.749 C -3.915,6.227 0,0 0,0"
             style="fill:#fce8b3;fill-opacity:1;fill-rule:nonzero;stroke:none"
             id="path4495" /></g><g
           id="g4497"
           transform="translate(88.0313,325.2271)"><path
             d="M 0,0 C -1.683,5.448 2.1,6.509 -0.951,10.569 -2.448,12.561 -0.545,9.273 -1.716,6.269 -3.714,1.142 0,0 0,0"
             style="fill:#fc0001;fill-opacity:1;fill-rule:nonzero;stroke:none"
             id="path4499" /></g><g
           id="g4501"
           transform="translate(113.3604,352.1543)"><path
             d="m 0,0 c 5.395,-2.055 3.163,-8.591 3.896,-7.473 0.333,0.506 1.673,3.246 0.6,5.094 C 3.423,-0.532 0,0 0,0"
             style="fill:#fc0001;fill-opacity:1;fill-rule:nonzero;stroke:none"
             id="path4503" /></g><g
           id="g4505"
           transform="translate(116.4414,307.3833)"><path
             d="m 0,0 c -2.101,8.122 4.336,12.356 4.336,12.356 0,0 -1.872,-4.943 1.942,-4.704 3.816,0.24 4.093,2.23 4.093,2.23 l -0.08,-3.605 z"
             style="fill:#fce8b3;fill-opacity:1;fill-rule:nonzero;stroke:none"
             id="path4507" /></g><g
           id="g4509"
           transform="translate(107.585,304.165)"><path
             d="m 0,0 c 0,0 -6.958,-1.72 -12.299,0.07 -5.34,1.79 -2.531,5.548 2.991,4.209 5.524,-1.338 3.988,2.07 3.988,2.07 0,0 1.647,-0.624 3.095,-2.946 1.449,-2.322 4.742,0.432 3.586,2.677 -1.156,2.244 2.419,6.299 2.419,6.299 0,0 -1.645,-3.379 0.812,-5.905 2.457,-2.527 6.781,0.579 6.881,1.428 0.099,0.849 2.242,-2.157 4.851,-0.097 2.609,2.06 3.375,2.357 4.147,1.965 0.771,-0.392 0.754,-1.638 0.754,-1.638 0,0 -5.346,-4.836 -5.77,-4.786 C 15.03,3.396 0,0 0,0"
             style="fill:#ffffff;fill-opacity:1;fill-rule:nonzero;stroke:none"
             id="path4511" /></g><g
           id="g4513"
           transform="translate(119.2344,335.1543)"><path
             d="M 0,0 C -1.763,-5.473 1.328,-7.73 0.742,-10.888 0.155,-14.046 3.815,-7.076 1.998,-4.969 0.18,-2.861 0,0 0,0"
             style="fill:#fce8b3;fill-opacity:1;fill-rule:nonzero;stroke:none"
             id="path4515" /></g></g></g><g
       id="g4517"><g
         id="g4519"><g
           id="g4525"><g
             id="g4527"><path
               d="M 78.132,99.429 V 67.337 h 0.632 C 86.277,52.482 160.166,40.819 250.213,40.819 v 0 c 90.045,0 163.935,11.663 171.449,26.518 v 0 h 0.33 v 0.779 c 0.198,0.568 0.301,1.142 0.301,1.719 v 0 c 0,0.578 -0.103,1.152 -0.301,1.721 v 0 27.873 z"
               style="fill:url(#linearGradient4535);stroke:none"
               id="path4537" /></g></g></g></g><g
       id="g4539"><g
         id="g4541"
         clip-path="url(#clipPath4545)"><g
           id="g4547"
           transform="translate(422.293,98.8525)"><path
             d="m 0,0 c 0,-16.025 -77.043,-29.017 -172.08,-29.017 -95.038,0 -172.081,12.992 -172.081,29.017 0,16.026 77.043,29.018 172.081,29.018 C -77.043,29.018 0,16.026 0,0"
             style="fill:#c9e8f9;fill-opacity:1;fill-rule:nonzero;stroke:none"
             id="path4549" /></g><g
           id="g4551"
           transform="translate(335.6885,334.1919)"><path
             d="m 0,0 v -248.916 l -56.121,20.111 3.962,210.041 z"
             style="fill:#282828;fill-opacity:1;fill-rule:nonzero;stroke:none"
             id="path4553" /></g><g
           id="g4555"
           transform="translate(401.7139,100.4629)"><path
             d="m 0,0 c -22.009,-5.062 -44.017,-10.124 -66.025,-15.187 v 248.916 c 11.02,0.699 25.221,0.459 41.306,-2.78 9.407,-1.895 17.686,-4.46 24.719,-7.124 z"
             style="fill:#5e5e5e;fill-opacity:1;fill-rule:nonzero;stroke:none"
             id="path4557" /></g><g
           id="g4559"
           transform="translate(397.7529,117.6289)"><path
             d="m 0,0 c -18.928,-2.86 -37.854,-5.722 -56.782,-8.583 v 215.902 c 9.45,-0.03 20.367,-0.708 32.352,-2.641 8.751,-1.41 16.702,-3.269 23.769,-5.282 C -0.44,132.931 -0.221,66.466 0,0"
             style="fill:#f2f8fc;fill-opacity:1;fill-rule:nonzero;stroke:none"
             id="path4561" /></g><g
           id="g4563"
           transform="translate(387.9824,284.9966)"><path
             d="m 0,0 -40.077,3.224 v 7.918 L 0,7.651 Z"
             style="fill:#3a3a3a;fill-opacity:1;fill-rule:nonzero;stroke:none"
             id="path4565" /></g><g
           id="g4567"
           transform="translate(387.8994,267.6187)"><path
             d="m 0,0 -39.911,2.609 v 8.699 L 0,8.408 Z"
             style="fill:#3a3a3a;fill-opacity:1;fill-rule:nonzero;stroke:none"
             id="path4569" /></g><g
           id="g4571"
           transform="translate(387.8994,250.9893)"><path
             d="m 0,0 -39.911,2.033 v 8.61 L 0,8.322 Z"
             style="fill:#3a3a3a;fill-opacity:1;fill-rule:nonzero;stroke:none"
             id="path4573" /></g><g
           id="g4575"
           transform="translate(387.8994,234.3604)"><path
             d="m 0,0 -39.911,1.457 v 8.687 L 0,8.396 Z"
             style="fill:#3a3a3a;fill-opacity:1;fill-rule:nonzero;stroke:none"
             id="path4577" /></g><g
           id="g4579"
           transform="translate(387.8994,217.8965)"><path
             d="M 0,0 -39.911,0.888 V 9.479 L 0,8.304 Z"
             style="fill:#3a3a3a;fill-opacity:1;fill-rule:nonzero;stroke:none"
             id="path4581" /></g><g
           id="g4583"
           transform="translate(387.8994,201.2676)"><path
             d="M 0,0 -39.911,0.312 V 8.813 L 0,8.217 Z"
             style="fill:#3a3a3a;fill-opacity:1;fill-rule:nonzero;stroke:none"
             id="path4585" /></g><g
           id="g4587"
           transform="translate(387.8994,184.1387)"><path
             d="M 0,0 -39.911,-0.28 V 8.814 L 0,8.791 Z"
             style="fill:#3a3a3a;fill-opacity:1;fill-rule:nonzero;stroke:none"
             id="path4589" /></g><g
           id="g4591"
           transform="translate(387.8994,168.0088)"><path
             d="M 0,0 -39.911,-0.84 V 7.649 L 0,8.205 Z"
             style="fill:#3a3a3a;fill-opacity:1;fill-rule:nonzero;stroke:none"
             id="path4593" /></g><g
           id="g4595"
           transform="translate(387.8994,151.3789)"><path
             d="M 0,0 -39.911,-1.415 V 7.15 L 0,8.279 Z"
             style="fill:#3a3a3a;fill-opacity:1;fill-rule:nonzero;stroke:none"
             id="path4597" /></g><g
           id="g4599"
           transform="translate(387.8994,134.75)"><path
             d="M 0,0 -39.911,-1.991 V 6.651 L 0,8.354 Z"
             style="fill:#3a3a3a;fill-opacity:1;fill-rule:nonzero;stroke:none"
             id="path4601" /></g><g
           id="g4603"
           transform="translate(395.2227,139.2891)"><path
             d="M 0,0 C 0,-1.884 -1.336,-3.484 -2.989,-3.575 -4.649,-3.665 -6,-2.2 -6,-0.303 -6,1.595 -4.649,3.196 -2.989,3.273 -1.336,3.351 0,1.885 0,0"
             style="fill:#282828;fill-opacity:1;fill-rule:nonzero;stroke:none"
             id="path4605" /></g><g
           id="g4607"
           transform="translate(395.1553,155.8311)"><path
             d="m 0,0 c 0,-1.816 -1.288,-3.341 -2.883,-3.405 -1.6,-0.064 -2.903,1.367 -2.903,3.196 0,1.829 1.303,3.354 2.903,3.405 C -1.288,3.247 0,1.816 0,0"
             style="fill:#282828;fill-opacity:1;fill-rule:nonzero;stroke:none"
             id="path4609" /></g><g
           id="g4611"
           transform="translate(394.7334,172.4248)"><path
             d="m 0,0 c 0,-1.819 -1.292,-3.325 -2.891,-3.365 -1.604,-0.04 -2.91,1.412 -2.91,3.243 0,1.831 1.306,3.339 2.91,3.366 C -1.292,3.271 0,1.818 0,0"
             style="fill:#282828;fill-opacity:1;fill-rule:nonzero;stroke:none"
             id="path4613" /></g><g
           id="g4615"
           transform="translate(394.8994,189.0537)"><path
             d="m 0,0 c 0,-1.818 -1.291,-3.325 -2.89,-3.365 -1.605,-0.04 -2.911,1.412 -2.911,3.244 0,1.831 1.306,3.338 2.911,3.365 C -1.291,3.271 0,1.819 0,0"
             style="fill:#282828;fill-opacity:1;fill-rule:nonzero;stroke:none"
             id="path4617" /></g><g
           id="g4619"
           transform="translate(394.5674,205.3506)"><path
             d="m 0,0 c 0,-1.818 -1.292,-3.325 -2.891,-3.365 -1.604,-0.04 -2.91,1.412 -2.91,3.244 0,1.831 1.306,3.338 2.91,3.365 C -1.292,3.271 0,1.819 0,0"
             style="fill:#282828;fill-opacity:1;fill-rule:nonzero;stroke:none"
             id="path4621" /></g><g
           id="g4623"
           transform="translate(394.5674,221.9805)"><path
             d="m 0,0 c 0,-1.819 -1.292,-3.325 -2.891,-3.365 -1.604,-0.04 -2.91,1.412 -2.91,3.243 0,1.831 1.306,3.339 2.91,3.366 C -1.292,3.271 0,1.818 0,0"
             style="fill:#282828;fill-opacity:1;fill-rule:nonzero;stroke:none"
             id="path4625" /></g><g
           id="g4627"
           transform="translate(394.5674,238.7764)"><path
             d="m 0,0 c 0,-1.819 -1.292,-3.326 -2.891,-3.365 -1.604,-0.041 -2.91,1.411 -2.91,3.243 0,1.831 1.306,3.338 2.91,3.365 C -1.292,3.271 0,1.818 0,0"
             style="fill:#282828;fill-opacity:1;fill-rule:nonzero;stroke:none"
             id="path4629" /></g><g
           id="g4631"
           transform="translate(394.5674,255.4053)"><path
             d="m 0,0 c 0,-1.819 -1.292,-3.325 -2.891,-3.365 -1.604,-0.04 -2.91,1.412 -2.91,3.243 0,1.832 1.306,3.339 2.91,3.366 C -1.292,3.271 0,1.819 0,0"
             style="fill:#282828;fill-opacity:1;fill-rule:nonzero;stroke:none"
             id="path4633" /></g><g
           id="g4635"
           transform="translate(394.5674,271.7021)"><path
             d="m 0,0 c 0,-1.819 -1.292,-3.325 -2.891,-3.365 -1.604,-0.04 -2.91,1.412 -2.91,3.243 0,1.832 1.306,3.339 2.91,3.366 C -1.292,3.271 0,1.819 0,0"
             style="fill:#282828;fill-opacity:1;fill-rule:nonzero;stroke:none"
             id="path4637" /></g><g
           id="g4639"
           transform="translate(394.5752,288.3589)"><path
             d="m 0,0 c 0,-1.82 -1.293,-3.309 -2.895,-3.324 -1.607,-0.016 -2.914,1.457 -2.914,3.29 0,1.832 1.307,3.321 2.914,3.324 C -1.293,3.293 0,1.82 0,0"
             style="fill:#282828;fill-opacity:1;fill-rule:nonzero;stroke:none"
             id="path4641" /></g><g
           id="g4643"
           transform="translate(99.9785,305.8013)"><path
             d="m 0,0 v -205.999 c 20.248,-4.841 40.496,-9.684 60.743,-14.526 V 9.243 C 51.378,9.942 39.104,9.902 25.09,7.263 15.281,5.415 6.856,2.715 0,0"
             style="fill:#5e5e5e;fill-opacity:1;fill-rule:nonzero;stroke:none"
             id="path4645" /></g><g
           id="g4647"
           transform="translate(217.5039,107.0654)"><path
             d="M 0,0 C -18.928,-7.263 -37.854,-14.525 -56.782,-21.789 V 207.979 C -37.854,199.396 -18.928,190.812 0,182.229 Z"
             style="fill:#282828;fill-opacity:1;fill-rule:nonzero;stroke:none"
             id="path4649" /></g><g
           id="g4651"
           transform="translate(154.5596,105.5244)"><path
             d="m 0,0 c -6.121,-0.334 -14.335,-0.176 -23.77,1.761 -9.162,1.881 -16.591,4.846 -22.007,7.483 v 185.751 c 6.003,1.618 13.099,3.096 21.128,3.961 9.356,1.008 17.7,0.938 24.649,0.44 z"
             style="fill:#f2f8fc;fill-opacity:1;fill-rule:nonzero;stroke:none"
             id="path4653" /></g><g
           id="g4655"
           transform="translate(151.6025,278.6958)"><path
             d="m 0,0 c 0,-2.077 -1.196,-3.871 -2.668,-4.007 -1.468,-0.136 -2.653,1.428 -2.653,3.493 0,2.065 1.185,3.858 2.653,4.005 C -1.196,3.64 0,2.077 0,0"
             style="fill:#282828;fill-opacity:1;fill-rule:nonzero;stroke:none"
             id="path4657" /></g><g
           id="g4659"
           transform="translate(151.6025,265.2261)"><path
             d="m 0,0 c 0,-2.077 -1.196,-3.871 -2.668,-4.007 -1.468,-0.136 -2.653,1.428 -2.653,3.493 0,2.064 1.185,3.858 2.653,4.005 C -1.196,3.64 0,2.077 0,0"
             style="fill:#282828;fill-opacity:1;fill-rule:nonzero;stroke:none"
             id="path4661" /></g><g
           id="g4663"
           transform="translate(151.6025,250.7583)"><path
             d="m 0,0 c 0,-2.077 -1.196,-3.871 -2.668,-4.006 -1.468,-0.136 -2.653,1.427 -2.653,3.492 0,2.065 1.185,3.858 2.653,4.005 C -1.196,3.64 0,2.077 0,0"
             style="fill:#282828;fill-opacity:1;fill-rule:nonzero;stroke:none"
             id="path4665" /></g><g
           id="g4667"
           transform="translate(151.6025,236.291)"><path
             d="m 0,0 c 0,-2.077 -1.196,-3.871 -2.668,-4.007 -1.468,-0.136 -2.653,1.428 -2.653,3.492 0,2.066 1.185,3.859 2.653,4.006 C -1.196,3.64 0,2.076 0,0"
             style="fill:#282828;fill-opacity:1;fill-rule:nonzero;stroke:none"
             id="path4669" /></g><g
           id="g4671"
           transform="translate(151.6025,222.8213)"><path
             d="m 0,0 c 0,-2.077 -1.196,-3.871 -2.668,-4.007 -1.468,-0.136 -2.653,1.428 -2.653,3.492 0,2.065 1.185,3.859 2.653,4.006 C -1.196,3.639 0,2.076 0,0"
             style="fill:#282828;fill-opacity:1;fill-rule:nonzero;stroke:none"
             id="path4673" /></g><g
           id="g4675"
           transform="translate(151.6025,208.1865)"><path
             d="m 0,0 c 0,-2.076 -1.196,-3.87 -2.668,-4.007 -1.468,-0.135 -2.653,1.429 -2.653,3.493 0,2.065 1.185,3.858 2.653,4.006 C -1.196,3.64 0,2.077 0,0"
             style="fill:#282828;fill-opacity:1;fill-rule:nonzero;stroke:none"
             id="path4677" /></g><g
           id="g4679"
           transform="translate(151.6025,194.5508)"><path
             d="m 0,0 c 0,-2.076 -1.196,-3.871 -2.668,-4.007 -1.468,-0.136 -2.653,1.429 -2.653,3.493 0,2.065 1.185,3.858 2.653,4.005 C -1.196,3.64 0,2.076 0,0"
             style="fill:#282828;fill-opacity:1;fill-rule:nonzero;stroke:none"
             id="path4681" /></g><g
           id="g4683"
           transform="translate(151.6025,180.416)"><path
             d="m 0,0 c 0,-2.077 -1.196,-3.871 -2.668,-4.007 -1.468,-0.136 -2.653,1.428 -2.653,3.493 0,2.065 1.185,3.858 2.653,4.005 C -1.196,3.64 0,2.076 0,0"
             style="fill:#282828;fill-opacity:1;fill-rule:nonzero;stroke:none"
             id="path4685" /></g><g
           id="g4687"
           transform="translate(151.6025,166.2812)"><path
             d="m 0,0 c 0,-2.077 -1.196,-3.871 -2.668,-4.007 -1.468,-0.136 -2.653,1.428 -2.653,3.492 0,2.065 1.185,3.859 2.653,4.006 C -1.196,3.639 0,2.076 0,0"
             style="fill:#282828;fill-opacity:1;fill-rule:nonzero;stroke:none"
             id="path4689" /></g><g
           id="g4691"
           transform="translate(151.6025,152.1455)"><path
             d="m 0,0 c 0,-2.076 -1.196,-3.87 -2.668,-4.007 -1.468,-0.136 -2.653,1.429 -2.653,3.493 0,2.065 1.185,3.858 2.653,4.005 C -1.196,3.64 0,2.077 0,0"
             style="fill:#282828;fill-opacity:1;fill-rule:nonzero;stroke:none"
             id="path4693" /></g><g
           id="g4695"
           transform="translate(151.6025,138.0107)"><path
             d="m 0,0 c 0,-2.076 -1.196,-3.871 -2.668,-4.007 -1.468,-0.136 -2.653,1.429 -2.653,3.493 0,2.065 1.185,3.858 2.653,4.005 C -1.196,3.64 0,2.076 0,0"
             style="fill:#282828;fill-opacity:1;fill-rule:nonzero;stroke:none"
             id="path4697" /></g><g
           id="g4699"
           transform="translate(144.21,275.7671)"><path
             d="M 0,0 -32.594,-3.017 V 1.497 L 0,4.681 Z"
             style="fill:#3a3a3a;fill-opacity:1;fill-rule:nonzero;stroke:none"
             id="path4701" /></g><g
           id="g4703"
           transform="translate(144.21,261.7983)"><path
             d="M 0,0 -32.594,-2.518 V 1.996 L 0,4.681 Z"
             style="fill:#3a3a3a;fill-opacity:1;fill-rule:nonzero;stroke:none"
             id="path4705" /></g><g
           id="g4707"
           transform="translate(144.21,247.8301)"><path
             d="M 0,0 -32.594,-2.02 V 2.494 L 0,4.681 Z"
             style="fill:#3a3a3a;fill-opacity:1;fill-rule:nonzero;stroke:none"
             id="path4709" /></g><g
           id="g4711"
           transform="translate(144.21,233.8613)"><path
             d="M 0,0 -32.594,-1.521 V 2.993 L 0,4.681 Z"
             style="fill:#3a3a3a;fill-opacity:1;fill-rule:nonzero;stroke:none"
             id="path4713" /></g><g
           id="g4715"
           transform="translate(144.21,219.8926)"><path
             d="M 0,0 -32.594,-1.022 V 3.492 L 0,4.682 Z"
             style="fill:#3a3a3a;fill-opacity:1;fill-rule:nonzero;stroke:none"
             id="path4717" /></g><g
           id="g4719"
           transform="translate(144.21,205.9238)"><path
             d="M 0,0 -32.594,-0.523 V 3.991 L 0,4.682 Z"
             style="fill:#3a3a3a;fill-opacity:1;fill-rule:nonzero;stroke:none"
             id="path4721" /></g><g
           id="g4723"
           transform="translate(144.21,191.9551)"><path
             d="M 0,0 -32.594,-0.025 V 4.49 L 0,4.682 Z"
             style="fill:#3a3a3a;fill-opacity:1;fill-rule:nonzero;stroke:none"
             id="path4725" /></g><g
           id="g4727"
           transform="translate(145.208,177.4873)"><path
             d="M 0,0 -33.592,0.506 V 5.487 L 0,5.172 Z"
             style="fill:#3a3a3a;fill-opacity:1;fill-rule:nonzero;stroke:none"
             id="path4729" /></g><g
           id="g4731"
           transform="translate(145.208,164.5166)"><path
             d="M 0,0 -33.592,0.982 V 4.988 L 0,4.158 Z"
             style="fill:#3a3a3a;fill-opacity:1;fill-rule:nonzero;stroke:none"
             id="path4733" /></g><g
           id="g4735"
           transform="translate(145.208,150.0488)"><path
             d="M 0,0 -33.592,1.515 V 5.986 L 0,4.643 Z"
             style="fill:#3a3a3a;fill-opacity:1;fill-rule:nonzero;stroke:none"
             id="path4737" /></g><g
           id="g4739"
           transform="translate(145.208,136.0801)"><path
             d="M 0,0 -33.592,2.027 V 6.485 L 0,4.628 Z"
             style="fill:#3a3a3a;fill-opacity:1;fill-rule:nonzero;stroke:none"
             id="path4741" /></g><path
           d="M 310.818,87.918 H 193.294 v 270.263 h 117.524 z"
           style="fill:#7fb9e3;fill-opacity:1;fill-rule:nonzero;stroke:none"
           id="path4743" /><g
           id="g4745"
           transform="translate(302.4561,99.3623)"><path
             d="M 0,0 C -15.72,-1.761 -33.354,-2.916 -52.6,-2.861 -70.804,-2.809 -87.543,-1.682 -102.559,0 v 246.934 c 15.205,1.834 32.408,3.081 51.28,3.081 15.313,0 32.543,-0.821 51.279,-3.081 z"
             style="fill:#f2f8fc;fill-opacity:1;fill-rule:nonzero;stroke:none"
             id="path4747" /></g></g></g><g
       id="g4749"><g
         id="g4751"><g
           id="g4757"><g
             id="g4759"><path
               d="m 206.611,275.211 h 74.701 v 10.31 h -74.701 z"
               style="fill:url(#linearGradient4767);stroke:none"
               id="path4769" /></g></g></g></g><g
       id="g4771"><g
         id="g4773"><g
           id="g4779"><g
             id="g4781"><path
               d="m 285.096,280.365 c 0,-3.443 2.791,-6.235 6.235,-6.235 v 0 c 3.444,0 6.236,2.792 6.236,6.235 v 0 c 0,3.445 -2.792,6.237 -6.236,6.237 v 0 c -3.444,0 -6.235,-2.792 -6.235,-6.237"
               style="fill:url(#linearGradient4789);stroke:none"
               id="path4791" /></g></g></g></g><g
       id="g4793"><g
         id="g4795"><g
           id="g4801"><g
             id="g4803"><path
               d="m 206.611,251.288 h 74.701 v 10.31 h -74.701 z"
               style="fill:url(#linearGradient4811);stroke:none"
               id="path4813" /></g></g></g></g><g
       id="g4815"><g
         id="g4817"><g
           id="g4823"><g
             id="g4825"><path
               d="m 285.096,256.443 c 0,-3.444 2.791,-6.236 6.235,-6.236 v 0 c 3.444,0 6.236,2.792 6.236,6.236 v 0 c 0,3.445 -2.792,6.236 -6.236,6.236 v 0 c -3.444,0 -6.235,-2.791 -6.235,-6.236"
               style="fill:url(#linearGradient4833);stroke:none"
               id="path4835" /></g></g></g></g><g
       id="g4837"><g
         id="g4839"><g
           id="g4845"><g
             id="g4847"><path
               d="m 206.611,227.365 h 74.701 v 10.31 h -74.701 z"
               style="fill:url(#linearGradient4855);stroke:none"
               id="path4857" /></g></g></g></g><g
       id="g4859"><g
         id="g4861"><g
           id="g4867"><g
             id="g4869"><path
               d="m 285.096,232.52 c 0,-3.444 2.791,-6.236 6.235,-6.236 v 0 c 3.444,0 6.236,2.792 6.236,6.236 v 0 c 0,3.445 -2.792,6.237 -6.236,6.237 v 0 c -3.444,0 -6.235,-2.792 -6.235,-6.237"
               style="fill:url(#linearGradient4877);stroke:none"
               id="path4879" /></g></g></g></g><g
       id="g4881"><g
         id="g4883"><g
           id="g4889"><g
             id="g4891"><path
               d="m 206.611,203.443 h 74.701 v 10.31 h -74.701 z"
               style="fill:url(#linearGradient4899);stroke:none"
               id="path4901" /></g></g></g></g><g
       id="g4903"><g
         id="g4905"><g
           id="g4911"><g
             id="g4913"><path
               d="m 285.096,208.598 c 0,-3.444 2.791,-6.236 6.235,-6.236 v 0 c 3.444,0 6.236,2.792 6.236,6.236 v 0 c 0,3.444 -2.792,6.236 -6.236,6.236 v 0 c -3.444,0 -6.235,-2.792 -6.235,-6.236"
               style="fill:url(#linearGradient4921);stroke:none"
               id="path4923" /></g></g></g></g><g
       id="g4925"><g
         id="g4927"><g
           id="g4933"><g
             id="g4935"><path
               d="m 206.611,179.52 h 74.701 v 10.31 h -74.701 z"
               style="fill:url(#linearGradient4943);stroke:none"
               id="path4945" /></g></g></g></g><g
       id="g4947"><g
         id="g4949"><g
           id="g4955"><g
             id="g4957"><path
               d="m 285.096,184.675 c 0,-3.444 2.791,-6.236 6.235,-6.236 v 0 c 3.444,0 6.236,2.792 6.236,6.236 v 0 c 0,3.444 -2.792,6.236 -6.236,6.236 v 0 c -3.444,0 -6.235,-2.792 -6.235,-6.236"
               style="fill:url(#linearGradient4965);stroke:none"
               id="path4967" /></g></g></g></g><g
       id="g4969"><g
         id="g4971"><g
           id="g4977"><g
             id="g4979"><path
               d="m 206.611,155.597 h 74.701 v 10.31 h -74.701 z"
               style="fill:url(#linearGradient4987);stroke:none"
               id="path4989" /></g></g></g></g><g
       id="g4991"><g
         id="g4993"><g
           id="g4999"><g
             id="g5001"><path
               d="m 285.096,160.753 c 0,-3.445 2.791,-6.237 6.235,-6.237 v 0 c 3.444,0 6.236,2.792 6.236,6.237 v 0 c 0,3.444 -2.792,6.237 -6.236,6.237 v 0 c -3.444,0 -6.235,-2.793 -6.235,-6.237"
               style="fill:url(#linearGradient5009);stroke:none"
               id="path5011" /></g></g></g></g><g
       id="g5013"><g
         id="g5015"><g
           id="g5021"><g
             id="g5023"><path
               d="m 206.611,131.674 h 74.701 v 10.31 h -74.701 z"
               style="fill:url(#linearGradient5031);stroke:none"
               id="path5033" /></g></g></g></g><g
       id="g5035"><g
         id="g5037"><g
           id="g5043"><g
             id="g5045"><path
               d="m 285.096,136.83 c 0,-3.445 2.791,-6.236 6.235,-6.236 v 0 c 3.444,0 6.236,2.791 6.236,6.236 v 0 c 0,3.444 -2.792,6.237 -6.236,6.237 v 0 c -3.444,0 -6.235,-2.793 -6.235,-6.237"
               style="fill:url(#linearGradient5053);stroke:none"
               id="path5055" /></g></g></g></g><g
       id="g5057"><g
         id="g5059"><g
           id="g5065"><g
             id="g5067"><path
               d="m 206.611,107.753 h 74.701 v 10.31 h -74.701 z"
               style="fill:url(#linearGradient5075);stroke:none"
               id="path5077" /></g></g></g></g><g
       id="g5079"><g
         id="g5081"><g
           id="g5087"><g
             id="g5089"><path
               d="m 285.096,112.907 c 0,-3.443 2.791,-6.235 6.235,-6.235 v 0 c 3.444,0 6.236,2.792 6.236,6.235 v 0 c 0,3.445 -2.792,6.237 -6.236,6.237 v 0 c -3.444,0 -6.235,-2.792 -6.235,-6.237"
               style="fill:url(#linearGradient5097);stroke:none"
               id="path5099" /></g></g></g></g><g
       id="g5101"><g
         id="g5103"
         clip-path="url(#clipPath5107)"><g
           id="g5109"
           transform="translate(252.1201,293.6655)"><path
             d="m 0,0 c -12.912,0 -23.417,10.505 -23.417,23.417 0,12.911 10.505,23.416 23.417,23.416 12.911,0 23.416,-10.505 23.416,-23.416 C 23.416,10.505 12.911,0 0,0"
             style="fill:#ffffff;fill-opacity:1;fill-rule:nonzero;stroke:none"
             id="path5111" /></g><g
           id="g5113"
           transform="translate(252.1201,296.9976)"><path
             d="m 0,0 c -11.075,0 -20.085,9.01 -20.085,20.084 0,11.075 9.01,20.085 20.085,20.085 11.074,0 20.084,-9.01 20.084,-20.085 C 20.084,9.01 11.074,0 0,0"
             style="fill:#c9e8f9;fill-opacity:1;fill-rule:nonzero;stroke:none"
             id="path5115" /></g><g
           id="g5117"
           transform="translate(245.9961,316.7441)"><path
             d="M 0,0 7.653,-13.258 4.139,-13.291 2.095,-9.729 0.037,-13.272 H -1.71 l -0.894,1.546 2.931,5.041 -2.081,3.622 z"
             style="fill:#5277c3;fill-opacity:1;fill-rule:evenodd;stroke:none"
             id="path5119" /></g></g></g><g
       id="g5121"><g
         id="g5123"><g
           id="g5129"><g
             id="g5131"><path
               d="m 245.228,322.195 -2.095,-3.614 -5.835,0.019 -0.892,-1.547 0.877,-1.514 4.097,-0.01 -2.064,-3.551 1.788,-3.03 7.655,13.257 z"
               style="fill:url(#linearGradient5139);stroke:none"
               id="path5141" /></g></g></g></g><g
       id="g5143"><g
         id="g5145"><g
           id="g5151"><g
             id="g5153"><path
               d="m 249.346,311.607 1.772,-3.047 4.177,-0.009 2.901,-5.061 h 1.786 l 0.874,1.513 -2.038,3.553 4.106,-0.011 1.73,3.062 z"
               style="fill:url(#linearGradient5161);stroke:none"
               id="path5163" /></g></g></g></g><g
       id="g5165"><g
         id="g5167"><g
           id="g5173"><g
             id="g5175"><path
               d="m 250.602,330.675 7.654,-13.258 1.755,3.062 -2.081,3.622 2.931,5.042 -0.894,1.546 h -1.748 l -2.058,-3.543 -2.044,3.562 z"
               style="fill:url(#linearGradient5183);stroke:none"
               id="path5185" /></g></g></g></g><g
       id="g5187"><g
         id="g5189"
         clip-path="url(#clipPath5193)"><g
           id="g5195"
           transform="translate(245.9961,316.7441)"><path
             d="M 0,0 7.653,-13.258 4.139,-13.291 2.095,-9.729 0.037,-13.272 H -1.71 l -0.894,1.546 2.931,5.041 -2.081,3.622 z"
             style="fill:#5277c3;fill-opacity:1;fill-rule:evenodd;stroke:none"
             id="path5197" /></g></g></g><g
       id="g5199"><g
         id="g5201"><g
           id="g5207"><g
             id="g5209"><path
               d="m 244.249,330.706 -0.874,-1.514 2.039,-3.554 -4.108,0.012 -1.729,-3.063 h 15.308 l -1.771,3.048 -4.178,0.009 -2.9,5.062 z"
               style="fill:url(#linearGradient5217);stroke:none"
               id="path5219" /></g></g></g></g><g
       id="g5221"><g
         id="g5223"><g
           id="g5229"><g
             id="g5231"><path
               d="m 255.483,311.959 3.527,0.01 2.095,3.613 5.835,-0.018 0.891,1.547 -0.873,1.513 -4.097,0.011 2.064,3.551 -1.788,3.03 z"
               style="fill:url(#linearGradient5239);stroke:none"
               id="path5241" /></g></g></g></g><g
       id="g5243"><g
         id="g5245"><g
           id="g5251"><g
             id="g5253"><path
               d="m 244.247,313.69 2.082,-3.621 -2.932,-5.041 0.895,-1.546 h 1.747 l 2.061,3.541 2.043,-3.562 3.517,0.033 -7.655,13.258 z"
               style="fill:url(#linearGradient5261);stroke:none"
               id="path5263" /></g></g></g></g><g
       id="g5265"><g
         id="g5267"><g
           id="g5273"><g
             id="g5275"><path
               d="m 244.247,313.69 2.082,-3.621 -2.932,-5.041 0.895,-1.546 h 1.747 l 2.061,3.541 2.043,-3.562 3.515,0.033 v 0.003 l -7.653,13.255 z"
               style="fill:url(#linearGradient5283);stroke:none"
               id="path5285" /></g></g></g></g><g
       id="g5287"><g
         id="g5289"
         clip-path="url(#clipPath5293)"><g
           id="g5295"
           transform="translate(115.0332,86.292)"><path
             d="m 0,0 c -32.721,0.52 -36.435,26.382 -34.766,39.36 2.524,19.638 20.823,29.732 23.573,35.701 2.749,5.968 0.234,14.754 0.234,14.754 0,0 18.774,-15.603 10.119,-31.317 C -9.495,42.785 5.238,23.42 8.517,34.846 11.795,46.272 9.28,55.058 9.28,55.058 c 0,0 10.997,-4.001 12.445,-24.248 C 23.172,10.563 4.423,-0.07 0,0"
             style="fill:#fc0001;fill-opacity:1;fill-rule:nonzero;stroke:none"
             id="path5297" /></g><g
           id="g5299"
           transform="translate(140.8447,179.3486)"><path
             d="m 0,0 c -16.813,-11.293 -11.023,-25.515 -1.909,-36.592 11.244,-13.665 15.366,-35.225 -9.55,-44.122 -19.233,-6.867 -11.274,-13.485 -11.274,-13.485 0,0 43.327,-12.177 59.163,20.376 13.719,28.205 -10.128,58.646 -10.128,58.646 0,0 2.749,-21.907 -10.494,-20.056 C 4.405,-33.64 4.35,-20.479 9.591,-8.898 16.469,6.297 4.258,17.423 4.258,17.423 4.258,17.423 7.154,4.806 0,0"
             style="fill:#fc0001;fill-opacity:1;fill-rule:nonzero;stroke:none"
             id="path5301" /></g><g
           id="g5303"
           transform="translate(109.0518,155.2578)"><path
             d="m 0,0 c -36.139,-19.104 -33.243,-59.597 -12.604,-69.217 20.64,-9.621 37.248,5.42 37.924,20.167 0.678,14.747 -3.155,24.101 -3.155,24.101 0,0 -6.592,-25.039 -18.776,-12.274 C -8.795,-24.457 0,0 0,0"
             style="fill:#fb6d01;fill-opacity:1;fill-rule:nonzero;stroke:none"
             id="path5305" /></g><g
           id="g5307"
           transform="translate(146.9805,140.9893)"><path
             d="m 0,0 c -16.242,7.911 -15.277,26.048 -11.346,30.653 5.409,6.336 8.1,5.185 10.641,8.44 3.161,4.049 1.516,11.864 1.516,11.864 0,0 7.79,-10.919 1.02,-19.283 C -4.006,24.46 -5.593,9.928 0,0"
             style="fill:#fb6d01;fill-opacity:1;fill-rule:nonzero;stroke:none"
             id="path5309" /></g><g
           id="g5311"
           transform="translate(169.6367,158.4844)"><path
             d="m 0,0 c 22.552,-28.508 9.445,-64.466 -7.249,-71.033 -16.694,-6.567 -19.344,-6.251 -25.688,-1.778 -6.343,4.474 2.13,22.65 13.903,25.743 11.772,3.091 6.075,6.462 0.668,14.2 -5.406,7.738 -3.108,22.46 -3.108,22.46 0,0 8.293,-11.701 16.326,-7.365 C 2.511,-13.639 0,0 0,0"
             style="fill:#fb6d01;fill-opacity:1;fill-rule:nonzero;stroke:none"
             id="path5313" /></g><g
           id="g5315"
           transform="translate(153.2266,137.3369)"><path
             d="m 0,0 c -4.471,-16.873 17.149,-20.496 14.065,-33.565 -3.083,-13.07 -24.143,-16.014 -24.143,-16.014 0,0 25.645,-6.618 33.839,13.673 6.908,17.108 -5.124,25.498 -13.515,26.451 C 0.319,-8.327 0,0 0,0"
             style="fill:#efa204;fill-opacity:1;fill-rule:nonzero;stroke:none"
             id="path5317" /></g><g
           id="g5319"
           transform="translate(172.2744,152.7939)"><path
             d="M 0,0 C 14.671,-23.281 4.609,-37.956 -1.517,-30.493 -7.644,-23.031 3.849,-12.997 0,0"
             style="fill:#efa204;fill-opacity:1;fill-rule:nonzero;stroke:none"
             id="path5321" /></g><g
           id="g5323"
           transform="translate(101.8447,147.1729)"><path
             d="M 0,0 C -24.448,-21.201 -22.957,-43.362 -11.207,-55.574 0.544,-67.786 20.819,-67.835 25.915,-53.432 31.011,-39.027 23.31,-36.445 8.774,-32.389 -5.76,-28.331 0,0 0,0"
             style="fill:#efa204;fill-opacity:1;fill-rule:nonzero;stroke:none"
             id="path5325" /></g><g
           id="g5327"
           transform="translate(142.5342,132.5879)"><path
             d="m 0,0 c 11.542,-11.389 15.327,-23.747 10.73,-34.605 -4.596,-10.86 -24.126,-14.922 -20.826,-2.129 3.3,12.792 12.849,15.1 13,24.663 C 3.057,-2.508 0,0 0,0"
             style="fill:#efa204;fill-opacity:1;fill-rule:nonzero;stroke:none"
             id="path5329" /></g><g
           id="g5331"
           transform="translate(95.2705,137.166)"><path
             d="m 0,0 c -16.495,-21.875 -9.075,-46.771 1.045,-50.212 10.12,-3.441 25.417,3.33 26.644,10.963 1.227,7.633 -0.481,11.486 -0.481,11.486 0,0 2.372,-3.863 -6.118,-9.194 -8.49,-5.331 -10.238,-3.937 -10.238,-3.937 0,0 4.544,7.58 -5.199,20.853 C -4.089,-6.768 0,0 0,0"
             style="fill:#facf67;fill-opacity:1;fill-rule:nonzero;stroke:none"
             id="path5333" /></g><g
           id="g5335"
           transform="translate(128.7715,129.5273)"><path
             d="m 0,0 c 6.668,-11.857 2.496,-23.816 2.496,-23.816 0,0 0.074,4.644 -3.169,9.342 C -3.916,-9.776 0,0 0,0"
             style="fill:#facf67;fill-opacity:1;fill-rule:nonzero;stroke:none"
             id="path5337" /></g><g
           id="g5339"
           transform="translate(168.9443,96.3662)"><path
             d="m 0,0 c 10.925,10.461 7.861,21.465 -0.463,26.517 -8.325,5.051 -9.011,3.696 -9.011,3.696 0,0 6.485,-8.984 8.195,-13.248 C 1.7,9.538 -0.442,0.007 -8.261,-4.788 -16.079,-9.583 -5.615,-5.377 0,0"
             style="fill:#facf67;fill-opacity:1;fill-rule:nonzero;stroke:none"
             id="path5341" /></g><g
           id="g5343"
           transform="translate(145.2236,176.5459)"><path
             d="m 0,0 c -8.503,-6.15 -13.654,-10.168 -11.82,-20.036 2.343,-12.613 11.307,-12.205 11.307,-12.205 0,0 -5.64,6.923 -4.842,15.382 C -4.558,-8.399 0,0 0,0"
             style="fill:#facf67;fill-opacity:1;fill-rule:nonzero;stroke:none"
             id="path5345" /></g><g
           id="g5347"
           transform="translate(157.8711,151.2012)"><path
             d="m 0,0 c 6.986,8.088 1.928,11.579 0.95,18.022 -0.733,4.84 2.148,9.805 2.148,9.805 0,0 -7.296,-8.634 -4.431,-14.323 C 3.384,4.137 0,0 0,0"
             style="fill:#fc0001;fill-opacity:1;fill-rule:nonzero;stroke:none"
             id="path5349" /></g><g
           id="g5351"
           transform="translate(94.0254,174.8096)"><path
             d="M 0,0 C 5.611,-8.835 1.037,-18.236 1.037,-18.236 Z"
             style="fill:#fc0001;fill-opacity:1;fill-rule:nonzero;stroke:none"
             id="path5353" /></g><g
           id="g5355"
           transform="translate(187.3877,157.291)"><path
             d="M 0,0 C -6.906,-7.725 -4.73,-19.237 -3.672,-17.614 -2.614,-15.991 0,0 0,0"
             style="fill:#fc0001;fill-opacity:1;fill-rule:nonzero;stroke:none"
             id="path5357" /></g><g
           id="g5359"
           transform="translate(114.6162,171.3848)"><path
             d="m 0,0 c 1.665,-6.586 1.524,-9.973 -2.61,-15.81 -8.297,-11.711 -2.085,-19.827 -2.224,-19.278 -0.139,0.549 -0.61,11.63 4.539,16.508 C 6.892,-11.771 0,0 0,0"
             style="fill:#fce8b3;fill-opacity:1;fill-rule:nonzero;stroke:none"
             id="path5361" /></g><g
           id="g5363"
           transform="translate(118.4629,135.0664)"><path
             d="M 0,0 C -2.917,-7.242 -0.472,-11.106 -0.472,-11.106 Z"
             style="fill:#fc0001;fill-opacity:1;fill-rule:nonzero;stroke:none"
             id="path5365" /></g><g
           id="g5367"
           transform="translate(91.9082,125.1025)"><path
             d="m 0,0 c -6.068,-19.944 -6.092,-30.694 2.676,-35.753 8.767,-5.059 11.516,14.347 6.204,19.215 C -1.439,-7.082 0,0 0,0"
             style="fill:#fce8b3;fill-opacity:1;fill-rule:nonzero;stroke:none"
             id="path5369" /></g><g
           id="g5371"
           transform="translate(104.959,92.6465)"><path
             d="m 0,0 c 13.289,1.064 21.689,10.04 21.689,10.04 0,0 1.916,-9.322 -6.418,-14.109 C 6.937,-8.855 0,0 0,0"
             style="fill:#fce8b3;fill-opacity:1;fill-rule:nonzero;stroke:none"
             id="path5373" /></g><g
           id="g5375"
           transform="translate(147.4463,84.501)"><path
             d="m 0,0 c -17.165,-3.735 -18.394,2.479 -20.237,7.062 -1.845,4.585 8.47,16.176 19.654,11.896 17.882,-6.844 12.734,12.551 12.734,12.551 0,0 8.935,-3.786 5.024,-17.935 C 13.607,0.669 3.345,0.728 0,0"
             style="fill:#fce8b3;fill-opacity:1;fill-rule:nonzero;stroke:none"
             id="path5377" /></g><g
           id="g5379"
           transform="translate(142.6465,125.7539)"><path
             d="m 0,0 c -5.221,-8.39 -4.648,-14.138 -2.537,-20.457 2.111,-6.319 -2.394,-11.44 -1.731,-11.451 0.664,-0.011 8.759,8.333 5.373,17.952 C -2.281,-4.337 0,0 0,0"
             style="fill:#fb6d01;fill-opacity:1;fill-rule:nonzero;stroke:none"
             id="path5381" /></g><g
           id="g5383"
           transform="translate(111.1299,81.9805)"><path
             d="m 0,0 c -19.156,0.852 -26.282,16.452 -19.199,16.703 7.082,0.252 13.693,-10.602 13.693,-10.602 0,0 16.139,4.116 17.83,8.462 -0.466,-1.451 1.387,-5.489 -4.4,-7.765 -5.787,-2.277 2.723,-4.963 5.93,1.91 3.206,6.872 8.446,11.891 8.807,6.783 C 23.022,10.384 19.987,4.967 19.987,4.967 l -5.53,-4.65 z"
             style="fill:#ffffff;fill-opacity:1;fill-rule:nonzero;stroke:none"
             id="path5385" /></g><g
           id="g5387"
           transform="translate(130.293,81.4941)"><path
             d="m 0,0 c 0,0 -7.114,-2.256 -6.768,1.019 0.348,3.274 11.663,10.017 17.386,8.287 5.724,-1.732 11.338,8.2 11.338,8.2 0,0 0.922,-6.938 -0.591,-9.282 L 19.854,5.879 c 0,0 8.767,4.233 11.332,7.837 2.564,3.602 2.209,9.074 2.209,9.074 0,0 3.793,-2.611 3.706,-8.075 C 37.014,9.25 33.383,3.478 33.383,3.478 c 0,0 -25.292,-4.7 -25.882,-4.691 C 6.912,-1.203 0,0 0,0"
             style="fill:#ffffff;fill-opacity:1;fill-rule:nonzero;stroke:none"
             id="path5389" /></g><g
           id="g5391"
           transform="translate(175.0029,138.9043)"><path
             d="m 0,0 c 6.501,-8.484 7.7,-16.521 2.052,-28.638 0.827,5.635 -3.677,9.897 -3.677,9.897 0,0 4.377,4.483 4.27,8.86 C 2.556,-6.235 0,0 0,0"
             style="fill:#fce8b3;fill-opacity:1;fill-rule:nonzero;stroke:none"
             id="path5393" /></g><g
           id="g5395"
           transform="translate(172.0225,123.0088)"><path
             d="m 0,0 c 3.021,9.153 -2.307,12.608 -6.383,15.953 -4.075,3.345 -3.643,11.992 -3.643,11.992 0,0 -5.333,-6.201 -2.384,-15.449 C -10.248,5.719 0,0 0,0"
             style="fill:#facf67;fill-opacity:1;fill-rule:nonzero;stroke:none"
             id="path5397" /></g><g
           id="g5399"
           transform="translate(387.8027,88.0811)"><path
             d="m 0,0 c 39.581,24.944 -1.351,62.095 -1.351,62.095 0,0 8.012,-22.49 1.58,-23.945 -6.43,-1.455 -12.1,11.57 -6.772,34.94 5.328,23.37 -11.084,32.594 -11.084,32.594 0,0 10.067,-17.201 -0.704,-30.967 -10.773,-13.767 -16.295,-18.598 -13.616,-38.348 2.677,-19.75 -21.754,1.656 -11.324,15.401 16.12,21.24 8.049,34.2 7.481,37.598 -0.567,3.398 3.802,-10.743 -12.215,-23.138 C -64.021,53.835 -79.705,33.012 -62.021,7.93 -54.929,-2.13 -28.53,-4.977 -17.585,-4.254 -7.181,-3.566 0,0 0,0"
             style="fill:#fc0001;fill-opacity:1;fill-rule:nonzero;stroke:none"
             id="path5401" /></g><g
           id="g5403"
           transform="translate(347.6592,89.5566)"><path
             d="M 0,0 C -31.124,28.216 -27.686,45.091 -12.328,56.377 3.029,67.663 2.238,71.22 2.238,71.22 c 0,0 1.323,-7.408 -8.266,-17.758 C -15.617,43.111 -8.482,19.151 7.675,14.11 23.832,9.069 24.674,0.519 24.325,1.605 23.976,2.693 10.396,22.469 10.823,37.916 c 0.49,17.801 3.826,19.825 16.607,34.412 4.388,5.009 5.645,11.2 5.645,11.2 0,0 3.224,-2.563 -7.385,-22.698 -9.645,-18.304 13.742,-35.739 18.079,-25.736 4.336,10.004 1.815,14.556 1.815,14.556 0,0 15.192,-15.654 12.861,-30.799 C 56.113,3.704 40.978,-6.734 28.669,-5.325 16.36,-3.917 8.563,-7.764 0,0"
             style="fill:#fb6d01;fill-opacity:1;fill-rule:nonzero;stroke:none"
             id="path5405" /></g><g
           id="g5407"
           transform="translate(374.3027,85.4854)"><path
             d="m 0,0 c 21.372,-4.142 32.826,11.606 34.031,22.791 1.205,11.185 -8.759,19.133 -8.759,19.133 0,0 1.799,-10.431 -7.454,-13.263 -6.2,-1.897 -16.56,3.806 -21.161,17.76 -2.777,8.423 -5.095,14.1 -5.095,14.1 0,0 -11.057,-30.159 -10.531,-42.339 0.527,-12.181 3.455,-14.487 3.455,-14.487 0,0 -3.072,2.822 -12.764,8.32 -10.961,6.216 -13.063,8.501 -16.056,20.317 -2.629,10.376 5.01,25.039 5.01,25.039 0,0 -16.655,-8.426 -13.381,-32.81 C -47.79,-12.039 0,0 0,0"
             style="fill:#efa204;fill-opacity:1;fill-rule:nonzero;stroke:none"
             id="path5409" /></g><g
           id="g5411"
           transform="translate(402.5557,120.1104)"><path
             d="m 0,0 c 3.154,-22.557 -7.91,-35.78 -23.794,-34.886 -15.884,0.895 -19.72,12.746 -20.385,22.808 -1.057,16.032 7.483,29.644 7.483,29.644 0,0 4.531,-30.795 17.927,-31.853 C -5.373,-15.347 0,0 0,0"
             style="fill:#facf67;fill-opacity:1;fill-rule:nonzero;stroke:none"
             id="path5413" /></g><g
           id="g5415"
           transform="translate(362.5254,83.042)"><path
             d="m 0,0 c -0.931,14.098 -15.648,22.565 -25.965,27.437 -10.315,4.872 -10.957,10.381 -10.957,10.381 0,0 -3.025,-4.641 2.37,-10.671 5.396,-6.029 17.149,-11.638 10.053,-13.495 -7.096,-1.856 -10.83,8.447 -10.83,8.447 0,0 0.766,-11.61 5.536,-16.57 C -25.023,0.569 0,0 0,0"
             style="fill:#facf67;fill-opacity:1;fill-rule:nonzero;stroke:none"
             id="path5417" /></g><g
           id="g5419"
           transform="translate(350.5693,87.5273)"><path
             d="M 0,0 C 16.525,-6.404 28.912,-0.59 22.01,11.448 15.107,23.485 0.274,25.282 0.274,25.282 c 0,0 12.337,-14.455 2.237,-17.064 C -7.589,5.607 0,0 0,0"
             style="fill:#fce8b3;fill-opacity:1;fill-rule:nonzero;stroke:none"
             id="path5421" /></g><g
           id="g5423"
           transform="translate(374.9102,84.6924)"><path
             d="m 0,0 c -0.707,19.109 11.693,16.319 19.84,19.078 8.146,2.759 9.79,7.31 9.79,7.31 0,0 4.414,-12.202 -4.121,-17.486 C 16.974,3.619 0,0 0,0"
             style="fill:#fce8b3;fill-opacity:1;fill-rule:nonzero;stroke:none"
             id="path5425" /></g><g
           id="g5427"
           transform="translate(375.124,102.4746)"><path
             d="m 0,0 c 12.741,13.057 9.855,23.139 1.862,30.662 -7.992,7.524 -1.425,17.397 -1.425,17.397 0,0 -9.92,-9.539 -3.018,-21.578 C 4.321,14.444 0,0 0,0"
             style="fill:#fce8b3;fill-opacity:1;fill-rule:nonzero;stroke:none"
             id="path5429" /></g><g
           id="g5431"
           transform="translate(402.9521,135.1289)"><path
             d="m 0,0 c 0.339,11.683 -7.714,11.706 -3.911,21.396 1.865,4.755 -0.095,-2.783 3.864,-8.074 C 6.71,4.29 0,0 0,0"
             style="fill:#fc0001;fill-opacity:1;fill-rule:nonzero;stroke:none"
             id="path5433" /></g><g
           id="g5435"
           transform="translate(338.1689,174.4385)"><path
             d="m 0,0 c -9.532,-7.015 -1.542,-18.702 -3.604,-16.895 -0.932,0.816 -5.083,5.495 -3.975,9.732 C -6.471,-2.926 0,0 0,0"
             style="fill:#fc0001;fill-opacity:1;fill-rule:nonzero;stroke:none"
             id="path5437" /></g><g
           id="g5439"
           transform="translate(356.6113,84.3174)"><path
             d="m 0,0 c -0.302,17.193 -15.336,22.03 -15.336,22.03 0,0 6.407,-8.738 -1.26,-10.354 -7.667,-1.617 -9.304,2.161 -9.304,2.161 l 2.133,-7.077 z"
             style="fill:#fce8b3;fill-opacity:1;fill-rule:nonzero;stroke:none"
             id="path5441" /></g><g
           id="g5443"
           transform="translate(375.8672,82.8125)"><path
             d="m 0,0 c 0,0 14.687,0.414 24.255,6.876 9.567,6.462 1.961,12.345 -8.215,6.676 -10.176,-5.669 -9.01,1.904 -9.01,1.904 0,0 -2.913,-2.136 -4.501,-7.516 -1.588,-5.379 -9.601,-1.744 -8.548,3.323 1.054,5.067 -8.23,11.117 -8.23,11.117 0,0 5.101,-5.772 1.633,-12.108 -3.469,-6.336 -13.712,-2.571 -14.374,-0.949 -0.662,1.622 -3.247,-5.489 -9.53,-2.85 -6.281,2.639 -7.958,2.806 -9.267,1.609 -1.309,-1.196 -0.592,-3.648 -0.592,-3.648 0,0 13.208,-6.623 14.019,-6.292 C -31.549,-1.527 0,0 0,0"
             style="fill:#ffffff;fill-opacity:1;fill-rule:nonzero;stroke:none"
             id="path5445" /></g><g
           id="g5447"
           transform="translate(335.8779,137.6406)"><path
             d="m 0,0 c 6.48,-9.844 1.611,-15.995 4.501,-21.912 2.889,-5.917 -8.16,5.847 -5.724,11.004 C 1.213,-5.75 0,0 0,0"
             style="fill:#fce8b3;fill-opacity:1;fill-rule:nonzero;stroke:none"
             id="path5449" /></g></g></g></g></svg>
