<?xml version="1.0" encoding="UTF-8" standalone="no"?>
<!-- Uploaded to: SVG Repo, www.svgrepo.com, Generator: SVG Repo Mixer Tools -->

<svg
   fill="#000000"
   width="800px"
   height="800px"
   viewBox="0 0 32 32"
   version="1.1"
   id="svg1"
   sodipodi:docname="rss.svg"
   inkscape:version="1.3.2 (091e20ef0f, 2023-11-25)"
   xmlns:inkscape="http://www.inkscape.org/namespaces/inkscape"
   xmlns:sodipodi="http://sodipodi.sourceforge.net/DTD/sodipodi-0.dtd"
   xmlns="http://www.w3.org/2000/svg"
   xmlns:svg="http://www.w3.org/2000/svg">
  <defs
     id="defs1" />
  <sodipodi:namedview
     id="namedview1"
     pagecolor="#ffffff"
     bordercolor="#000000"
     borderopacity="0.25"
     inkscape:showpageshadow="2"
     inkscape:pageopacity="0.0"
     inkscape:pagecheckerboard="0"
     inkscape:deskcolor="#d1d1d1"
     inkscape:zoom="0.059896882"
     inkscape:cx="509.20848"
     inkscape:cy="-509.20848"
     inkscape:window-width="1648"
     inkscape:window-height="961"
     inkscape:window-x="0"
     inkscape:window-y="0"
     inkscape:window-maximized="1"
     inkscape:current-layer="svg1" />
  <path
     d="M 5 5 L 5 9 C 14.93 9 23 17.07 23 27 L 27 27 C 27 14.85 17.15 5 5 5 z M 5 12 L 5 16 C 11.07 16 16 20.93 16 27 L 20 27 C 20 18.72 13.28 12 5 12 z M 8 21 A 3 3 0 0 0 8 27 A 3 3 0 0 0 8 21 z"
     id="path1" />
  <path
     style="fill:#5277c3;stroke-width:1.12202;fill-opacity:1"
     d="m 400.55717,668.4432 c -0.0196,-30.11596 -10.11411,-75.34079 -23.3538,-104.62833 -43.45901,-96.13569 -133.40069,-158.147 -237.79243,-163.9487 l -13.74474,-0.76388 v -49.37518 -49.37518 l 15.98878,0.71091 c 50.46982,2.24404 98.92644,14.38797 144.17144,36.13144 40.42708,19.42811 71.9332,41.75467 103.57891,73.40039 66.67138,66.67138 105.46704,154.4134 109.5443,247.75035 l 0.69845,15.98878 h -49.54354 -49.54353 z"
     id="path2"
     transform="scale(0.04)" />
  <path
     style="fill:#5277c3;fill-opacity:1;stroke-width:1.12202"
     d="m 575.59151,666.76017 c -0.0145,-24.03909 -5.20566,-65.50894 -11.76972,-94.02273 -4.68594,-20.35537 -15.78336,-54.66713 -23.53694,-72.77312 C 504.87689,417.28053 446.75568,347.43575 373.10974,299.06851 303.09984,253.08926 227.146,228.61075 142.777,224.83657 l -17.1108,-0.76544 V 174.86866 125.6662 l 10.37868,0.003 c 34.5225,0.009 80.43108,6.15361 121.5183,16.26438 88.97513,21.89506 170.40779,65.91798 240.50726,130.0195 106.12855,97.04782 170.34126,236.6996 175.85975,382.46515 l 0.75398,19.91585 h -49.54404 -49.54406 z"
     id="path3"
     transform="scale(0.04)" />
  <path
     style="fill:#5277c3;fill-opacity:1"
     d="m 184.09202,672.5913 c -15.49786,-3.36093 -32.99224,-14.38924 -42.26387,-26.64279 -18.21051,-24.06733 -21.0594,-52.38944 -7.9796,-79.32859 8.75507,-18.03195 27.84936,-33.47309 47.91863,-38.75077 9.63074,-2.53262 26.39104,-2.57957 35.90463,-0.10058 33.17958,8.64575 56.34802,37.94399 56.45365,71.38992 0.0411,12.99256 -1.85592,21.10144 -7.85669,33.58486 -9.60735,19.98618 -28.66795,35.01325 -50.50148,39.81457 -9.73401,2.14057 -21.89955,2.15338 -31.67527,0.0334 z"
     id="path4"
     transform="scale(0.04)" />
  <path
     style="fill:#5277c3;fill-opacity:1;stroke-width:1.12202"
     d="m 400.54045,663.39411 c -0.0248,-13.19968 -2.15469,-28.88808 -6.65375,-49.01041 -8.87728,-39.70413 -24.46065,-73.4061 -49.30213,-106.62508 -9.40104,-12.57143 -35.71134,-39.55846 -47.91129,-49.14363 -41.82157,-32.85806 -93.70208,-53.63168 -145.11346,-58.10528 -7.76183,-0.6754 -16.76319,-1.4814 -20.00302,-1.79111 l -5.8906,-0.5631 V 349.33265 300.5098 l 8.13464,0.626 c 4.47405,0.3443 12.93128,0.92628 18.79383,1.29329 36.63358,2.29337 78.56345,12.17407 113.88499,26.83679 14.58201,6.0533 43.08143,20.66749 56.10099,28.76797 81.76913,50.87496 143.03017,135.58209 165.45771,228.78242 5.96135,24.77309 8.60214,43.8284 10.69037,77.13885 l 0.65064,10.37868 h -49.40918 -49.40918 z"
     id="path5"
     transform="scale(0.04)" />
  <path
     style="fill:#5277c3;fill-opacity:1;stroke-width:1.12202"
     d="m 575.58406,661.15007 c -0.0215,-23.60092 -5.60865,-65.43949 -12.47379,-93.40813 -4.32348,-17.61393 -15.97444,-53.1234 -22.27273,-67.88219 -34.78455,-81.51072 -92.43241,-151.25054 -164.96096,-199.56241 -67.36252,-44.87075 -145.61144,-71.2548 -223.28191,-75.28645 -7.09677,-0.36838 -16.05891,-0.94828 -19.91585,-1.28868 l -7.01262,-0.61891 v -48.71855 c 0,-38.23758 0.30173,-48.71422 1.40252,-48.6984 14.04883,0.20187 49.33127,2.68602 63.11361,4.44368 118.89968,15.16323 221.50678,63.2114 310.79944,145.53908 92.95266,85.70219 154.85494,209.68305 169.3577,339.19765 1.27326,11.37079 3.93255,50.45805 3.98856,58.62553 0.003,0.46283 -22.21022,0.84151 -49.36309,0.84151 h -49.36887 z"
     id="path6"
     transform="scale(0.04)" />
  <path
     style="fill:#5277c3;fill-opacity:1;stroke-width:1.12202"
     d="m 181.20617,671.11092 c -14.37234,-4.1438 -29.80267,-14.45203 -38.9977,-26.05243 -5.3904,-6.80049 -11.42445,-18.98957 -13.63761,-27.54864 -4.07286,-15.75114 -1.33009,-36.66907 6.86403,-52.3491 7.89873,-15.11475 25.45577,-29.68615 42.96623,-35.65966 9.8017,-3.34374 30.90531,-3.66658 40.89506,-0.6256 27.21434,8.28432 47.67936,30.46629 52.80007,57.22981 3.26659,17.07296 1.36186,29.97337 -6.89523,46.70018 -9.40702,19.0563 -27.26935,33.44868 -48.04545,38.71212 -9.06473,2.29647 -27.28885,2.09031 -35.9494,-0.40668 z"
     id="path7"
     transform="scale(0.04)" />
</svg>
