<svg xmlns:dc="http://purl.org/dc/elements/1.1/" xmlns:cc="http://creativecommons.org/ns#" xmlns:rdf="http://www.w3.org/1999/02/22-rdf-syntax-ns#" xmlns:svg="http://www.w3.org/2000/svg" xmlns="http://www.w3.org/2000/svg" xmlns:sodipodi="http://sodipodi.sourceforge.net/DTD/sodipodi-0.dtd" xmlns:inkscape="http://www.inkscape.org/namespaces/inkscape" width="28.101105mm" height="27.722517mm" viewBox="0 0 28.101105 27.722517" version="1.1" id="svg1470" inkscape:version="1.0.1 (3bc2e813f5, 2020-09-07)" sodipodi:docname="gfx-landing-reliable.svg">
    <defs id="defs1464">
      <clipPath clipPathUnits="userSpaceOnUse" id="clipPath81">
        <path d="M 0,313.233 H 500 V 0 H 0 Z" id="path79"></path>
      </clipPath>
      <clipPath clipPathUnits="userSpaceOnUse" id="clipPath93">
        <path d="m 357.032,172.142 3.262,-5.676 -4.596,-7.902 1.404,-2.423 h 2.742 l 3.226,5.553 3.203,-5.584 5.514,0.053 -11.998,20.776 z" id="path91"></path>
      </clipPath>
    </defs>
    <sodipodi:namedview id="base" pagecolor="#ffffff" bordercolor="#666666" borderopacity="1.0" inkscape:pageopacity="0.0" inkscape:pageshadow="2" inkscape:zoom="0.35" inkscape:cx="-1349.7527" inkscape:cy="-213.32528" inkscape:document-units="mm" inkscape:current-layer="layer1" inkscape:document-rotation="0" showgrid="false" inkscape:window-width="1917" inkscape:window-height="1025" inkscape:window-x="0" inkscape:window-y="24" inkscape:window-maximized="1"></sodipodi:namedview>
    <metadata id="metadata1467">
      <rdf:rdf>
        <cc:work rdf:about="">
          <dc:format>image/svg+xml</dc:format>
          <dc:type rdf:resource="http://purl.org/dc/dcmitype/StillImage"></dc:type>
          <dc:title></dc:title>
        </cc:work>
      </rdf:rdf>
    </metadata>
    <g inkscape:label="Layer 1" inkscape:groupmode="layer" id="layer1" transform="translate(-462.9554,-204.60898)">
      <g id="g75" transform="matrix(0.35277777,0,0,-0.35277777,343.65947,278.22915)">
        <g id="g77" clip-path="url(#clipPath81)">
          <g id="g83" transform="translate(351.5117,206.4621)">
            <path d="m 0,0 c -6.134,0 -11.125,-4.991 -11.125,-11.125 v -35.742 c 0,-6.134 4.991,-11.124 11.125,-11.124 h 35.741 c 6.134,0 11.125,4.99 11.125,11.124 v 35.742 C 46.866,-4.991 41.875,0 35.741,0 Z M 35.741,-60.216 H 0 c -7.361,0 -13.35,5.988 -13.35,13.349 v 35.742 c 0,7.361 5.989,13.35 13.35,13.35 h 35.741 c 7.362,0 13.35,-5.989 13.35,-13.35 v -35.742 c 0,-7.361 -5.988,-13.349 -13.35,-13.349" style="fill:#66abde;fill-opacity:1;fill-rule:nonzero;stroke:none" id="path85"></path>
          </g>
        </g>
      </g>
      <g id="g87" transform="matrix(0.35277777,0,0,-0.35277777,343.65947,278.22915)">
        <g id="g89" clip-path="url(#clipPath93)">
          <path d="m 355.698,176.939 h 16.089 v -20.828 h -16.089 z" style="fill:#4c88c7;fill-opacity:1;fill-rule:nonzero;stroke:none" id="path95"></path>
        </g>
      </g>
      <g id="g105" transform="matrix(0.35277777,0,0,-0.35277777,472.11294,212.78934)">
        <path d="m 0,0 -12.001,-20.78 -2.801,4.748 3.234,5.563 -6.423,0.017 -1.369,2.373 1.397,2.427 9.142,-0.028 3.284,5.664 z" style="fill:#66abde;fill-opacity:1;fill-rule:evenodd;stroke:none" id="path107"></path>
      </g>
      <g id="g109" transform="matrix(0.35277777,0,0,-0.35277777,472.43715,218.64908)">
        <path d="m 0,0 h 23.996 l -2.712,-4.8 -6.435,0.018 3.195,-5.57 -1.37,-2.372 H 13.873 L 9.33,-4.792 2.783,-4.778 Z" style="fill:#66abde;fill-opacity:1;fill-rule:evenodd;stroke:none" id="path111"></path>
      </g>
      <g id="g113" transform="matrix(0.35277777,0,0,-0.35277777,477.36432,215.43704)">
        <path d="m 0,0 -11.998,20.776 5.514,0.053 3.202,-5.584 3.225,5.553 h 2.74 L 4.086,18.374 -0.51,10.472 2.752,4.795 Z" style="fill:#66abde;fill-opacity:1;fill-rule:evenodd;stroke:none" id="path115"></path>
      </g>
      <g id="g117" transform="matrix(0.35277777,0,0,-0.35277777,470.58506,215.80911)">
        <path d="m 0,0 11.998,-20.776 -5.514,-0.052 -3.203,5.583 -3.225,-5.553 h -2.744 l -1.403,2.423 4.596,7.902 -3.262,5.677 z" style="fill:#3665ad;fill-opacity:1;fill-rule:evenodd;stroke:none" id="path119"></path>
      </g>
      <g id="g121" transform="matrix(0.35277777,0,0,-0.35277777,475.49432,212.58003)">
        <path d="m 0,0 h -23.994 l 2.712,4.795 6.436,-0.018 -3.197,5.581 1.37,2.372 h 2.801 l 4.543,-7.931 6.547,-0.014 z" style="fill:#3665ad;fill-opacity:1;fill-rule:evenodd;stroke:none" id="path123"></path>
      </g>
      <g id="g125" transform="matrix(0.35277777,0,0,-0.35277777,475.82678,218.45565)">
        <path d="M 0,0 11.998,20.776 14.799,16.027 11.566,10.464 17.988,10.447 19.357,8.074 17.96,5.647 8.819,5.675 5.534,0.011 Z" style="fill:#3665ad;fill-opacity:1;fill-rule:evenodd;stroke:none" id="path127"></path>
      </g>
      <g id="g129" transform="matrix(0.35277777,0,0,-0.35277777,490.8653,220.19559)">
        <path d="m 0,0 c -0.2,0.252 -5.045,6.169 -17.739,6.169 -12.694,0 -17.538,-5.917 -17.739,-6.169 -0.35,-0.442 -0.542,-0.99 -0.542,-1.555 0,-19.426 16.087,-31.822 16.772,-32.34 0.446,-0.337 0.977,-0.506 1.509,-0.506 0.531,0 1.062,0.169 1.509,0.506 0.684,0.518 16.772,12.914 16.772,32.34 C 0.542,-0.99 0.351,-0.442 0,0" style="fill:#ffffff;fill-opacity:1;fill-rule:nonzero;stroke:none" id="path131"></path>
      </g>
      <g id="g133" transform="matrix(0.35277777,0,0,-0.35277777,484.60763,218.90124)">
        <path d="M 0,0 C -11.632,0 -15.781,-5.224 -15.781,-5.224 -15.781,-23.63 0,-35.57 0,-35.57 c 0,0 15.781,11.94 15.781,30.346 C 15.781,-5.224 11.632,0 0,0" style="fill:#3167ae;fill-opacity:1;fill-rule:nonzero;stroke:none" id="path135"></path>
      </g>
      <g id="g137" transform="matrix(0.35277777,0,0,-0.35277777,484.60763,220.21972)">
        <path d="M 0,0 C -8.848,0 -12.004,-3.973 -12.004,-3.973 -12.004,-17.974 0,-27.056 0,-27.056 c 0,0 12.004,9.082 12.004,23.083 C 12.004,-3.973 8.848,0 0,0" style="fill:#66abde;fill-opacity:1;fill-rule:nonzero;stroke:none" id="path139"></path>
      </g>
      <g id="g141" transform="matrix(0.35277777,0,0,-0.35277777,480.54966,221.68868)">
        <path d="M 0,0 C 0.099,-12.255 9.667,-20.736 11.503,-22.25 13.339,-20.734 22.907,-12.243 23.006,0 22.386,0.649 19.091,3.664 11.503,3.664 3.915,3.664 0.62,0.649 0,0 m 11.503,-23.519 -0.302,0.228 c -0.122,0.093 -12.202,9.395 -12.202,23.482 v 0.174 l 0.108,0.137 c 0.135,0.17 3.411,4.162 12.396,4.162 8.985,0 12.261,-3.992 12.395,-4.162 L 24.007,0.365 V 0.191 c 0,-14.087 -12.08,-23.389 -12.202,-23.482 z" style="fill:#ffffff;fill-opacity:1;fill-rule:nonzero;stroke:none" id="path143"></path>
      </g>
      <g id="g145" transform="matrix(0.35277777,0,0,-0.35277777,487.12738,223.99243)">
        <path d="m 0,0 -0.901,0.901 -0.873,0.873 c -0.198,0.198 -0.563,0.198 -0.761,0 L -3.436,0.873 -4.309,0 c -0.197,-0.197 -0.14,-0.366 0.169,-0.366 h 1.042 c 0,-2.253 -1.83,-4.083 -4.084,-4.083 -1.126,0 -2.139,0.45 -2.9,1.182 l -1.352,-1.351 c 1.099,-1.098 2.591,-1.775 4.252,-1.775 3.325,0 5.999,2.705 5.999,6.027 h 1.014 C 0.112,-0.366 0.197,-0.197 0,0" style="fill:#ffffff;fill-opacity:1;fill-rule:evenodd;stroke:none" id="path147"></path>
      </g>
      <g id="g149" transform="matrix(0.35277777,0,0,-0.35277777,483.61061,224.33021)">
        <path d="m 0,0 c 0.197,0.197 0.141,0.395 -0.169,0.395 h -1.042 c 0,2.252 1.83,4.083 4.083,4.083 1.127,0 2.141,-0.479 2.873,-1.212 l 1.38,1.381 C 6.026,5.717 4.533,6.393 2.872,6.393 -0.451,6.393 -3.126,3.69 -3.126,0.395 H -4.14 C -4.449,0.395 -4.506,0.197 -4.309,0 l 0.873,-0.873 0.901,-0.902 c 0.198,-0.196 0.563,-0.196 0.761,0 l 0.873,0.902 z" style="fill:#ffffff;fill-opacity:1;fill-rule:evenodd;stroke:none" id="path151"></path>
      </g>
    </g>
  </svg>