<svg xmlns:dc="http://purl.org/dc/elements/1.1/" xmlns:cc="http://creativecommons.org/ns#" xmlns:rdf="http://www.w3.org/1999/02/22-rdf-syntax-ns#" xmlns:svg="http://www.w3.org/2000/svg" xmlns="http://www.w3.org/2000/svg" xmlns:sodipodi="http://sodipodi.sourceforge.net/DTD/sodipodi-0.dtd" xmlns:inkscape="http://www.inkscape.org/namespaces/inkscape" width="29.993341mm" height="28.372507mm" viewBox="0 0 29.993341 28.372507" version="1.1" id="svg687" inkscape:version="1.0.1 (3bc2e813f5, 2020-09-07)" sodipodi:docname="gfx-landing-reproducible.svg">
    <defs id="defs681">
      <clipPath clipPathUnits="userSpaceOnUse" id="clipPath243">
        <path d="m 99.518,157.078 2.447,-4.258 -3.447,-5.928 1.053,-1.818 h 2.057 l 2.42,4.166 2.404,-4.189 4.136,0.039 -9.001,15.587 z" id="path241"></path>
      </clipPath>
      <clipPath clipPathUnits="userSpaceOnUse" id="clipPath253">
        <path d="M 0,313.233 H 500 V 0 H 0 Z" id="path251"></path>
      </clipPath>
      <clipPath clipPathUnits="userSpaceOnUse" id="clipPath289">
        <path d="m 133.401,200.311 1.556,-2.707 -2.192,-3.768 0.669,-1.156 h 1.309 l 1.538,2.648 1.528,-2.662 2.629,0.025 -5.722,9.907 z" id="path287"></path>
      </clipPath>
      <clipPath clipPathUnits="userSpaceOnUse" id="clipPath299">
        <path d="M 0,313.233 H 500 V 0 H 0 Z" id="path297"></path>
      </clipPath>
      <clipPath clipPathUnits="userSpaceOnUse" id="clipPath335">
        <path d="m 150.812,159.542 1.556,-2.707 -2.191,-3.769 0.668,-1.156 h 1.309 l 1.538,2.649 1.527,-2.662 2.63,0.024 -5.722,9.908 z" id="path333"></path>
      </clipPath>
      <clipPath clipPathUnits="userSpaceOnUse" id="clipPath345">
        <path d="M 0,313.233 H 500 V 0 H 0 Z" id="path343"></path>
      </clipPath>
      <linearGradient x1="0" y1="0" x2="1" y2="0" gradientUnits="userSpaceOnUse" gradientTransform="matrix(12.256165,0,0,-12.256165,129.46619,160.49985)" spreadMethod="pad" id="linearGradient409">
        <stop style="stop-opacity:1;stop-color:#3167ae" offset="0" id="stop399"></stop>
        <stop style="stop-opacity:1;stop-color:#3167ae" offset="0.284758" id="stop401"></stop>
        <stop style="stop-opacity:1;stop-color:#3167ae" offset="0.2897863" id="stop403"></stop>
        <stop style="stop-opacity:1;stop-color:#66abde" offset="0.822445" id="stop405"></stop>
        <stop style="stop-opacity:1;stop-color:#66abde" offset="1" id="stop407"></stop>
      </linearGradient>
      <linearGradient x1="0" y1="0" x2="1" y2="0" gradientUnits="userSpaceOnUse" gradientTransform="matrix(10.920388,0,0,-10.920388,130.87221,161.27824)" spreadMethod="pad" id="linearGradient435">
        <stop style="stop-opacity:1;stop-color:#3167ae" offset="0" id="stop425"></stop>
        <stop style="stop-opacity:1;stop-color:#3167ae" offset="0.284758" id="stop427"></stop>
        <stop style="stop-opacity:1;stop-color:#3167ae" offset="0.2897863" id="stop429"></stop>
        <stop style="stop-opacity:1;stop-color:#66abde" offset="0.822445" id="stop431"></stop>
        <stop style="stop-opacity:1;stop-color:#66abde" offset="1" id="stop433"></stop>
      </linearGradient>
    </defs>
    <sodipodi:namedview id="base" pagecolor="#ffffff" bordercolor="#666666" borderopacity="1.0" inkscape:pageopacity="0.0" inkscape:pageshadow="2" inkscape:zoom="0.35" inkscape:cx="470.96604" inkscape:cy="-132.09694" inkscape:document-units="mm" inkscape:current-layer="layer1" inkscape:document-rotation="0" showgrid="false" inkscape:window-width="1917" inkscape:window-height="1025" inkscape:window-x="0" inkscape:window-y="24" inkscape:window-maximized="1"></sodipodi:namedview>
    <metadata id="metadata684">
      <rdf:rdf>
        <cc:work rdf:about="">
          <dc:format>image/svg+xml</dc:format>
          <dc:type rdf:resource="http://purl.org/dc/dcmitype/StillImage"></dc:type>
          <dc:title></dc:title>
        </cc:work>
      </rdf:rdf>
    </metadata>
    <g inkscape:label="Layer 1" inkscape:groupmode="layer" id="layer1" transform="translate(18.776433,-183.11732)">
      <g id="g229" transform="matrix(0.35277777,0,0,-0.35277777,-1.2675769,202.02723)">
        <path d="m 0,0 c 0,0 3.731,-1.702 5.183,-0.314 v -6.343 c 0,0 -2.146,0.914 -5.079,-1.206 z" style="fill:#66abde;fill-opacity:1;fill-rule:nonzero;stroke:none" id="path231"></path>
      </g>
      <g id="g233" transform="matrix(0.35277777,0,0,-0.35277777,-10.47028,195.46207)">
        <path d="m 0,0 c -12.069,0 -21.887,-9.819 -21.887,-21.888 0,-12.068 9.818,-21.887 21.887,-21.887 12.069,0 21.888,9.819 21.888,21.887 C 21.888,-9.819 12.069,0 0,0 m 0,-45.433 c -12.982,0 -23.545,10.562 -23.545,23.545 0,12.983 10.563,23.546 23.545,23.546 12.983,0 23.545,-10.563 23.545,-23.546 0,-12.983 -10.562,-23.545 -23.545,-23.545" style="fill:#3665ad;fill-opacity:1;fill-rule:nonzero;stroke:none" id="path235"></path>
      </g>
      <g id="g237" transform="matrix(0.35277777,0,0,-0.35277777,-48.846752,260.00636)">
        <g id="g239" clip-path="url(#clipPath243)">
          <path d="m 98.518,160.677 h 12.07 v -15.626 h -12.07 z" style="fill:#4c88c7;fill-opacity:1;fill-rule:nonzero;stroke:none" id="path245"></path>
        </g>
      </g>
      <g id="g247" transform="matrix(0.35277777,0,0,-0.35277777,-48.846752,260.00636)">
        <g id="g249" clip-path="url(#clipPath253)">
          <g id="g255" transform="translate(104.8359,167.0988)">
            <path d="m 0,0 -9.004,-15.59 -2.101,3.563 2.426,4.173 -4.819,0.013 -1.027,1.78 1.049,1.821 6.858,-0.022 2.464,4.25 z" style="fill:#66abde;fill-opacity:1;fill-rule:evenodd;stroke:none" id="path257"></path>
          </g>
          <g id="g259" transform="translate(105.5254,154.6374)">
            <path d="m 0,0 h 18.003 l -2.035,-3.602 -4.828,0.014 2.397,-4.179 -1.028,-1.779 H 10.408 L 7,-3.596 2.088,-3.585 Z" style="fill:#66abde;fill-opacity:1;fill-rule:evenodd;stroke:none" id="path261"></path>
          </g>
          <g id="g263" transform="translate(116.0039,161.468)">
            <path d="m 0,0 -9.001,15.587 4.136,0.039 2.403,-4.189 2.42,4.166 H 2.013 L 3.065,13.785 -0.383,7.856 2.064,3.598 Z" style="fill:#66abde;fill-opacity:1;fill-rule:evenodd;stroke:none" id="path265"></path>
          </g>
          <g id="g267" transform="translate(101.5864,160.677)">
            <path d="m 0,0 9.001,-15.587 -4.136,-0.039 -2.404,4.188 -2.419,-4.166 h -2.058 l -1.053,1.819 3.448,5.928 -2.447,4.258 z" style="fill:#3665ad;fill-opacity:1;fill-rule:evenodd;stroke:none" id="path269"></path>
          </g>
          <g id="g271" transform="translate(112.0273,167.5437)">
            <path d="m 0,0 h -18.002 l 2.035,3.598 4.829,-0.014 -2.399,4.187 1.028,1.78 h 2.101 L -7,3.601 -2.087,3.59 Z" style="fill:#3665ad;fill-opacity:1;fill-rule:evenodd;stroke:none" id="path273"></path>
          </g>
          <g id="g275" transform="translate(112.7344,155.0486)">
            <path d="M 0,0 9.001,15.587 11.103,12.024 8.677,7.851 13.495,7.838 14.522,6.058 13.474,4.236 6.616,4.258 4.151,0.008 Z" style="fill:#3665ad;fill-opacity:1;fill-rule:evenodd;stroke:none" id="path277"></path>
          </g>
          <g id="g279" transform="translate(139.291,216.6272)">
            <path d="m 0,0 c -7.597,0 -13.777,-6.181 -13.777,-13.777 0,-7.597 6.18,-13.777 13.777,-13.777 7.597,0 13.777,6.18 13.777,13.777 C 13.777,-6.181 7.597,0 0,0 m 0,-28.88 c -8.328,0 -15.103,6.775 -15.103,15.103 0,8.328 6.775,15.103 15.103,15.103 8.328,0 15.103,-6.775 15.103,-15.103 C 15.103,-22.105 8.328,-28.88 0,-28.88" style="fill:#66abde;fill-opacity:1;fill-rule:nonzero;stroke:none" id="path281"></path>
          </g>
        </g>
      </g>
      <g id="g283" transform="matrix(0.35277777,0,0,-0.35277777,-48.846752,260.00636)">
        <g id="g285" clip-path="url(#clipPath289)">
          <path d="m 132.765,202.598 h 7.672 v -9.933 h -7.672 z" style="fill:#4c88c7;fill-opacity:1;fill-rule:nonzero;stroke:none" id="path291"></path>
        </g>
      </g>
      <g id="g293" transform="matrix(0.35277777,0,0,-0.35277777,-48.846752,260.00636)">
        <g id="g295" clip-path="url(#clipPath299)">
          <g id="g301" transform="translate(136.7812,206.6809)">
            <path d="m 0,0 -5.723,-9.91 -1.336,2.264 1.542,2.653 -3.063,0.009 -0.653,1.131 0.667,1.158 4.359,-0.014 1.566,2.701 z" style="fill:#66abde;fill-opacity:1;fill-rule:evenodd;stroke:none" id="path303"></path>
          </g>
          <g id="g305" transform="translate(137.2197,198.7595)">
            <path d="M 0,0 H 11.444 L 10.15,-2.29 7.081,-2.281 8.605,-4.937 7.952,-6.068 H 6.616 L 4.45,-2.286 1.327,-2.279 Z" style="fill:#66abde;fill-opacity:1;fill-rule:evenodd;stroke:none" id="path307"></path>
          </g>
          <g id="g309" transform="translate(143.8804,203.1018)">
            <path d="m 0,0 -5.722,9.908 2.63,0.025 1.527,-2.663 1.538,2.648 H 1.279 L 1.949,8.762 -0.243,4.994 1.312,2.287 Z" style="fill:#66abde;fill-opacity:1;fill-rule:evenodd;stroke:none" id="path311"></path>
          </g>
          <g id="g313" transform="translate(134.7158,202.5984)">
            <path d="M 0,0 5.722,-9.908 3.093,-9.933 1.564,-7.27 0.026,-9.918 h -1.308 l -0.669,1.155 2.192,3.769 -1.556,2.707 z" style="fill:#3665ad;fill-opacity:1;fill-rule:evenodd;stroke:none" id="path315"></path>
          </g>
          <g id="g317" transform="translate(141.3525,206.9636)">
            <path d="m 0,0 h -11.443 l 1.294,2.287 3.069,-0.009 -1.524,2.662 0.653,1.131 h 1.335 l 2.167,-3.782 3.122,-0.007 z" style="fill:#3665ad;fill-opacity:1;fill-rule:evenodd;stroke:none" id="path319"></path>
          </g>
          <g id="g321" transform="translate(141.8022,199.0207)">
            <path d="M 0,0 5.722,9.908 7.057,7.644 5.516,4.99 8.578,4.982 9.231,3.851 8.564,2.693 4.205,2.707 2.639,0.005 Z" style="fill:#3665ad;fill-opacity:1;fill-rule:evenodd;stroke:none" id="path323"></path>
          </g>
          <g id="g325" transform="translate(155.1562,175.8576)">
            <path d="m 0,0 c -7.597,0 -13.777,-6.181 -13.777,-13.777 0,-7.597 6.18,-13.777 13.777,-13.777 7.597,0 13.777,6.18 13.777,13.777 C 13.777,-6.181 7.597,0 0,0 m 0,-28.88 c -8.328,0 -15.103,6.775 -15.103,15.103 0,8.328 6.775,15.103 15.103,15.103 8.328,0 15.103,-6.775 15.103,-15.103 C 15.103,-22.105 8.328,-28.88 0,-28.88" style="fill:#66abde;fill-opacity:1;fill-rule:nonzero;stroke:none" id="path327"></path>
          </g>
        </g>
      </g>
      <g id="g329" transform="matrix(0.35277777,0,0,-0.35277777,-48.846752,260.00636)">
        <g id="g331" clip-path="url(#clipPath335)">
          <path d="m 150.176,161.829 h 7.673 v -9.933 h -7.673 z" style="fill:#4c88c7;fill-opacity:1;fill-rule:nonzero;stroke:none" id="path337"></path>
        </g>
      </g>
      <g id="g339" transform="matrix(0.35277777,0,0,-0.35277777,-48.846752,260.00636)">
        <g id="g341" clip-path="url(#clipPath345)">
          <g id="g347" transform="translate(154.1929,165.9113)">
            <path d="m 0,0 -5.724,-9.91 -1.335,2.264 1.542,2.653 -3.063,0.009 -0.653,1.131 0.667,1.158 4.359,-0.014 1.566,2.701 z" style="fill:#66abde;fill-opacity:1;fill-rule:evenodd;stroke:none" id="path349"></path>
          </g>
          <g id="g351" transform="translate(154.6313,157.99)">
            <path d="M 0,0 H 11.443 L 10.15,-2.29 7.081,-2.281 8.604,-4.937 7.951,-6.068 H 6.616 l -2.167,3.782 -3.122,0.007 z" style="fill:#66abde;fill-opacity:1;fill-rule:evenodd;stroke:none" id="path353"></path>
          </g>
          <g id="g355" transform="translate(161.292,162.3322)">
            <path d="m 0,0 -5.722,9.908 2.629,0.025 1.528,-2.663 1.538,2.648 H 1.279 L 1.948,8.762 -0.244,4.994 1.312,2.287 Z" style="fill:#66abde;fill-opacity:1;fill-rule:evenodd;stroke:none" id="path357"></path>
          </g>
          <g id="g359" transform="translate(152.127,161.8288)">
            <path d="M 0,0 5.722,-9.908 3.093,-9.933 1.565,-7.27 0.027,-9.918 h -1.308 l -0.67,1.155 2.192,3.769 -1.555,2.707 z" style="fill:#3665ad;fill-opacity:1;fill-rule:evenodd;stroke:none" id="path361"></path>
          </g>
          <g id="g363" transform="translate(158.7642,166.1941)">
            <path d="m 0,0 h -11.443 l 1.293,2.287 3.069,-0.009 -1.524,2.662 0.653,1.131 h 1.336 l 2.167,-3.782 3.122,-0.007 z" style="fill:#3665ad;fill-opacity:1;fill-rule:evenodd;stroke:none" id="path365"></path>
          </g>
          <g id="g367" transform="translate(159.2134,158.2512)">
            <path d="M 0,0 5.722,9.908 7.058,7.644 5.516,4.99 8.579,4.982 9.231,3.851 8.565,2.693 4.206,2.707 2.639,0.005 Z" style="fill:#3665ad;fill-opacity:1;fill-rule:evenodd;stroke:none" id="path369"></path>
          </g>
          <g id="g371" transform="translate(126.1177,184.799)">
            <path d="M 0,0 0.005,0.007 C -0.047,0.046 -0.099,0.076 -0.151,0.112 -0.178,0.131 -0.2,0.151 -0.228,0.169 L -0.229,0.166 c -2.27,1.523 -4.556,0.05 -4.556,0.05 -2.348,-2.091 -7.135,-1.586 -7.135,-1.586 l 8.377,-3.372 0.036,0.049 -0.035,-0.053 5.944,-6.797 c 0,0 -2.054,4.353 -0.853,7.259 0,0 0.638,2.644 -1.549,4.284" style="fill:#3167ae;fill-opacity:1;fill-rule:nonzero;stroke:none" id="path373"></path>
          </g>
          <g id="g375" transform="translate(128.4746,187.9011)">
            <path d="M 0,0 -0.003,-0.003 C 0.026,-0.026 0.056,-0.043 0.085,-0.064 0.1,-0.075 0.113,-0.087 0.128,-0.097 l 0.001,0.002 C 1.412,-0.975 2.72,-0.15 2.72,-0.15 4.067,1.027 6.787,0.712 6.787,0.712 L 2.042,2.678 2.021,2.65 2.041,2.68 -1.301,6.579 c 0,0 1.144,-2.487 0.444,-4.133 0,0 -0.377,-1.501 0.857,-2.446" style="fill:#66abde;fill-opacity:1;fill-rule:nonzero;stroke:none" id="path377"></path>
          </g>
          <g id="g379" transform="translate(136.915,160.6052)">
            <path d="m 0,0 h -0.004 c 0,-0.038 0.005,-0.071 0.007,-0.107 0.001,-0.019 0,-0.036 0.001,-0.054 h 0.003 c 0.118,-1.55 1.58,-2.053 1.58,-2.053 1.761,-0.313 3.22,-2.631 3.22,-2.631 L 3.366,0.085 3.332,0.084 3.368,0.087 4.313,5.136 C 4.313,5.136 3.091,2.686 1.37,2.2 1.37,2.2 -0.037,1.554 0,0" style="fill:#66abde;fill-opacity:1;fill-rule:nonzero;stroke:none" id="path381"></path>
          </g>
          <g id="g383" transform="translate(137.6904,160.1672)">
            <path d="m 0,0 h 0.008 c 0.004,0.065 -0.001,0.125 10e-4,0.188 0,0.033 0.004,0.062 0.004,0.095 H 0.009 C 0.002,3.016 -2.498,4.087 -2.498,4.087 -5.545,4.863 -7.804,9.114 -7.804,9.114 l 1.891,-8.83 0.06,-0.003 h -0.063 l -2.308,-8.73 c 0,0 2.459,4.139 5.539,4.769 0,0 2.549,0.951 2.685,3.68" style="fill:#3167ae;fill-opacity:1;fill-rule:nonzero;stroke:none" id="path385"></path>
          </g>
        </g>
      </g>
      <g id="g387" transform="matrix(0.35277777,0,0,-0.35277777,-48.846752,260.00636)">
        <g id="g389">
          <g id="g395">
            <g id="g397">
              <path d="m 131.777,160.451 0.061,-0.003 h -0.063 l -2.309,-8.73 c 0,0 2.46,4.139 5.54,4.769 v 0 c 0,0 0.582,0.22 1.204,0.745 v 0 c 1.824,0.896 3.187,0.657 3.659,0.522 v 0 c 1.086,-0.79 1.853,-1.994 1.853,-1.994 v 0 l -1.441,4.93 h -0.034 l 0.035,0.002 0.946,5.049 c 0,0 -0.449,-0.895 -1.183,-1.711 v 0 c -1.09,-1.029 -3.448,-0.338 -4.564,0.075 v 0 c -0.174,0.099 -0.288,0.15 -0.288,0.15 v 0 c -3.048,0.775 -5.307,5.026 -5.307,5.026 v 0 z" style="fill:url(#linearGradient409);stroke:none" id="path411"></path>
            </g>
          </g>
        </g>
      </g>
      <g id="g413" transform="matrix(0.35277777,0,0,-0.35277777,-48.846752,260.00636)">
        <g id="g415">
          <g id="g421">
            <g id="g423">
              <path d="m 131.917,157.596 -0.897,-4.269 c 0,0 5.451,6.682 10.772,1.721 v 0 l -1.036,11.591 c 0,0 -2.704,-6.957 -9.884,2.591 v 0 z" style="fill:url(#linearGradient435);stroke:none" id="path437"></path>
            </g>
          </g>
        </g>
      </g>
    </g>
  </svg>