<svg version="1.1" id="Vrstva_1" xmlns="http://www.w3.org/2000/svg" xmlns:xlink="http://www.w3.org/1999/xlink" x="0" y="0" viewBox="0 0 976.3 846.8" xml:space="preserve"><style>.st0{fill:none}.st1{fill:#333131}.st2{fill:#5277c3}.st3{fill:#7ebae4}.st14{fill:#fff;stroke:#333131;stroke-width:1.1908}</style><pattern y="846.8" width="90.1" height="90.8" patternUnits="userSpaceOnUse" id="SVGID_1_" viewBox="0 -90.8 90.1 90.8" overflow="visible"><path class="st0" d="M0-90.8h90.1V0H0z"/><path class="st0" d="M0-90.8h90.1V0H0z"/></pattern><pattern y="846.8" width="90.1" height="90.8" patternUnits="userSpaceOnUse" id="SVGID_2_" viewBox="0 -90.8 90.1 90.8" overflow="visible"><path class="st0" d="M0-90.8h90.1V0H0z"/><path class="st0" d="M0-90.8h90.1V0H0z"/></pattern><pattern y="846.8" width="90.1" height="90.8" patternUnits="userSpaceOnUse" id="SVGID_3_" viewBox="0 -90.8 90.1 90.8" overflow="visible"><path class="st0" d="M0-90.8h90.1V0H0z"/><path class="st0" d="M0-90.8h90.1V0H0z"/></pattern><pattern y="846.8" width="90.1" height="90.8" patternUnits="userSpaceOnUse" id="SVGID_4_" viewBox="0 -90.8 90.1 90.8" overflow="visible"><path class="st0" d="M0-90.8h90.1V0H0z"/><path class="st0" d="M0-90.8h90.1V0H0z"/></pattern><pattern y="846.8" width="90.1" height="90.8" patternUnits="userSpaceOnUse" id="SVGID_5_" viewBox="0 -90.8 90.1 90.8" overflow="visible"><path class="st0" d="M0-90.8h90.1V0H0z"/><path class="st0" d="M0-90.8h90.1V0H0z"/></pattern><pattern y="846.8" width="90.1" height="90.8" patternUnits="userSpaceOnUse" id="SVGID_6_" viewBox="0 -90.8 90.1 90.8" overflow="visible"><path class="st0" d="M0-90.8h90.1V0H0z"/><path class="st0" d="M0-90.8h90.1V0H0z"/></pattern><pattern y="846.8" width="90.1" height="90.8" patternUnits="userSpaceOnUse" id="SVGID_7_" viewBox="0 -90.8 90.1 90.8" overflow="visible"><path class="st0" d="M0-90.8h90.1V0H0z"/><path class="st0" d="M0-90.8h90.1V0H0z"/></pattern><pattern y="846.8" width="90.1" height="90.8" patternUnits="userSpaceOnUse" id="SVGID_8_" viewBox="0 -90.8 90.1 90.8" overflow="visible"><path class="st0" d="M0-90.8h90.1V0H0z"/><path class="st0" d="M0-90.8h90.1V0H0z"/></pattern><pattern y="846.8" width="90.1" height="90.8" patternUnits="userSpaceOnUse" id="SVGID_9_" viewBox="0 -90.8 90.1 90.8" overflow="visible"><path class="st0" d="M0-90.8h90.1V0H0z"/><path class="st0" d="M0-90.8h90.1V0H0z"/></pattern><path class="st2" d="M592.6 583.5l237.8-411.9 55.5 94.1L821.8 376l127.3.3 27.1 47-27.7 48.1-181.1-.4-65.1 112.3-109.7.2z"/><path class="st3" d="M401.9 594.4h475.6l-53.8 95.2-127.6-.4 63.4 110.4-27.2 47-55.5.1-90.1-157.2-129.7-.2-55.1-94.9z"/><path class="st2" d="M297.9 434.8l237.8 411.9-109.3 1L362.9 737 299 847.2h-54.3l-27.8-48L308 642.6 243.3 530l54.6-95.2z"/><path class="st3" d="M383.7 265.2L145.9 677.1 90.4 583l64.1-110.3-127.3-.3L0 425.3l27.7-48.1 181.2.6L274 265.4z"/><path class="st2" d="M574.1 253.3H98.5l53.8-95.2 127.6.4-63.5-110.4 27.2-47 55.5-.1 90.1 157.2 129.8.3 55.1 94.8z"/><path class="st3" d="M678.8 413.9L441 2l109.3-1 63.5 110.7L677.7 1.6H732l27.8 48-91.1 156.6 64.7 112.5z"/><path d="M445.9 461.5c-1.1-14.7-13.3-10.7-21.3-14.3-10.1 4.8-21.5 9.2-21.1 17.4l-20.8-2.6c-24.3-.1-37-5.5-48-11.7-25.6.6-27.5-8.1-38.9-13-12.9-14.3 3.1-15.3 6.5-22 5.8-11.7 12.7-21.1 23.4-22l22.4-18.1c10.7-3.6 21.7-5.9 34.8 1.3 15.2 7.7 28.2 15.7 33.7 24.7l44.1-10.4 24.7-24.7 31.1-1.3c4.9-23.8 15.6-47.7 33.9-71.5 11.3-12.6 21-25 44.1-38.8 1-8.5 6.5-17.1 13.7-25.6 7.2-7.9 17.2-12.9 30.4-14.6l32.5 10.4 15.6-9.1 7.8-15.6c-8.5-12.3-20.4-10.8-31.1-14.2l-64.9 2.6-48 11.7-48 10.4-57.1 45.4-74 6.5-45.4-14.2-58-13.8c-13.2-11.1-15.8-20.2-15.8-31.3l19.4 1.2 6.4-17.4 27 13.3 8.3-18.8c11.7 1.6 23.3 7.6 34.9 16.5l-3.7-26.1c6.8 4 5.4 5.7 36.2 16.5l-11.5-28.9 46.4 14.2-11-28c12 3.3 16.6 3.2 40.8 12l-12.9-25.2 12 .9 31.6 11.5-17.4-26.8c9.5.8 13.8-1.2 29.8 2.8l18.8 17.9c2.2-11.7-4.9-23.3-16.1-34.9l11.5.5c10.3 3.6 20.9 6.5 27.5 18.4 5.4-10.6 3.2-19.9 1.4-29.3 9.7 1.9 19.5 3.5 28 13.8 3.6-6.5 7.1-13 2.3-26.6 8.1 1.9 17.2 11.4 26.1 22.9 3.2-5.8 4.2-13.1 3.7-26.1C601.8 75.6 603 88.5 622 98c3.4-9.2 2.9-18.4 2.8-27.5 12.9 2.6 23.7 14.4 33 26.6l9.2-16.5L692.8 96l7.4-16.1c12.9-2.1 15.9 8.5 20.6 17 6.2-.7 9.3-13.2 15.6-12.9 11.8 2.6 13.2 12.2 14.2 22l19.3-13.8c17.9 3.8 12.4 11.7 16.1 22 6-5.2 12.2-12 17-5.5 4.9 9 5.2 17 4.1 24.7l17 1.8c16.7 20.9 17.7 49.4 20.2 60.5 2.6 17.5 10.9 36.8 2.3 50.9 7.9 13.3 21.8 13.2 34.4 16.1 8.1 7.2 15.2 14.7 16.1 24.3l-5.5 36.2c10-3.3 22.5 3.1 34.9 6.9 12.3 11 12.2 17.2 18.4 27-21.2-6.3-28.9-8.3-34.4-9.7l4.6 11c2.6 12 3.3 21.8-1.4 25.2-9.2-.1-14.4-8.4-20.2-15.6l-5.5 26.6c-11.1-10.6-14.7-15.6-16.1-18.8-.9 13.1-.2 27.7-6.9 36.2l-30 35.3 35.7 30.5c16.1 25.4 11.4 56.1 8.7 86.3-16.5 50.3-27.1 41.8-40.4 59.6l14.2 14.2 30.3 13.8c8.6 9.7 19.5 19.8 18.8 28.4l-21.1-7.8-12 2.8c12.7 15.1 18.4 30.2 23.8 45.4l-16.1-8.7-17-2.8 3.2 14.2c3.3 13.8-.1 22.5-2.8 31.6-11.3-11.3-24.9-22.6-29.3-33.9-10.2-7-20.5-19-30.7-18.4-8.9 10-7.4 16.5-9.7 24.3-7.2 22.6-19.1 31.3-29.8 43.6l-8.7-27c-.8-15.3 1.7-33.9 3.2-51.4-5.1-2.1-19.5 9.7-33.1 11.9-10.6 1.7-13.3 5.2-26.1 12-3.6-17.5 2.4-27.7 8.3-38.1l36.2-31.6c8.1-16.4 8.8-36.5 9.7-56.4 7.4-10.3 22.5-24.4 21.1-30.3-1.2-7.4-5.8-4.4-9.2-5.1-43 26.8-38.2 16.1-50 18.4-20.5 19.6-40.7 39.8-68.3 48.7l-52.3-1.4c-12-1.6-25.9 11.7-39 18.8-30.7 10.1-60.3 13.2-88.6 8.7-30-1.1-35.8 3.8-52.8 6-25.2 19.3-48.8 5.4-72.9 2.3-17.1-9.3-19.1-20.3-26.1-30.7 1.7-10.6 4.4-19.1 9.7-22.5 10.8-10.4 20.2-20.6 36.7-32.1l53.7-50c-13.2-6.1-24.6.2-36.7 1.8 3.3-5.8 6.7-11.6 18.4-19.7l-32 2.3c4.7-6.4 14.9-11.6 30.7-15.6l-15.2-4.1c5.3-4.5 9-11.3 20.2-7.8 12.2-.5 25.3-1.8 35.3 0 4.4-5.3 14.5-11.9 12.9-16z" fill="#4d4d4d"/><pattern id="SVGID_10_" xlink:href="#SVGID_1_" patternTransform="matrix(-2.8363 0 0 2.8363 -57199.031 40814.984)"/><path d="M592.8 543.1c-3.4 11.6-7.4 20.2-11.7 26.1-4.4 4.9-10.6 4.8-16 6.7l-6.7 13.9c-13.6 13-28.9 18.3-42.1 20.6l-24.5 3.4-15.2 12.7-13.1 2.5c-4.6 6-14.5 12.8-13.1 17.7l32.9 4.2 68.7-12.7 40.9-19.4 54.4 2.1c22.8-11.2 45.3-25.7 67-49.3 6.5 1.5 15.5 1.2 28.7-8.3 12.4-8.8 26.5-9.7 32.4-7.3 5.8-3.4 7-10 12.4-17.2-10.1-6.7-38.4-11.7-54.1-6.7-2.9-2.9-9.7-19.9-8.9-25-2.5 1.1-.6 11.6-3.3 20.9-1.7 5.8-7 9.9-10.6 14.9-34.5 18.8-58.2-11.3-87.2-38.8-5.6 19.3-14.2 34.4-30.9 39z" fill="url(#SVGID_10_)"/><pattern id="SVGID_11_" xlink:href="#SVGID_2_" patternTransform="matrix(-2.8363 0 0 2.8363 -57199.031 40814.984)"/><path d="M384.1 624c13.8-2.2 18.4-10.1 21.1-19 8.1-2.4 17-3.9 26.1-5.1l15.2-.8c10.1-8.1 19.5-17.4 38.4-11.4l16.9-9.2c9.3-12.3 13.9-25.4 41.3-34.5l25-32.9 9.7-24.5-4.2-19.8c-16.3 2.2-34.7-.8-54.4-7.6-8.2 6-16.8 11.7-37.1 11-1.8 15.8-1 41.2-7.6 48.9-17.8 7.6-18.8 12-28.6 18.6l-52.7 38c-21.4 16.8-28.4 29.3-34.5 41.7 6.5 6.2 14.3 10.3 25.4 6.6z" fill="url(#SVGID_11_)"/><pattern id="SVGID_12_" xlink:href="#SVGID_3_" patternTransform="matrix(-2.8363 0 0 2.8363 -57199.031 40814.984)"/><path d="M451.3 488.1c-7.6 15.2-18.9 24.7-32.8 30.4-13.8 1.2-22.7-.6-43.5 4.8 1.8-10.8 13.4-14.2 20.9-20.9l-37 3c12.1-12.4 26.3-12.7 39.9-16.1-6.7-1.1-13.2-2.2-24.5-1.8 6.2-3.5 5-7.2 19.7-10.7l39.3-.6 17.3-17.3.7 29.2z" fill="url(#SVGID_12_)"/><pattern id="SVGID_13_" xlink:href="#SVGID_4_" patternTransform="matrix(-2.8363 0 0 2.8363 -57199.031 40814.984)"/><path d="M791.7 438.7l41.8 9.1c7.2-5.7 14.8-10.6 20.5-19.3 7.6-7.2 12.3-18.5 16-31.2-2.7-10.2-1.7-28.1-2.5-42.1l-15.4-30.4c.6 8.2-3.1 16.5-7.1 24.7l-.9 33.9c-7.9 13.9-17.9 24.8-30.5 33.2-29.1 18.9-39.8 16.9-59 24.5 12-.9 18.8-4.8 37.1-2.4z" fill="url(#SVGID_13_)"/><pattern id="SVGID_14_" xlink:href="#SVGID_5_" patternTransform="matrix(-2.8363 0 0 2.8363 -57199.031 40814.984)"/><path d="M647.3 186.4c11.3-3.3 24.3-3.3 43.5 7.7 8.1 8.8 1.5 10.3 1.2 14.9 9.2 1 15.4-9.1 21.5-19v-10.1l9.5-25c-1.7-9.4-2.5-20.6-11.9-13.1-17.4 39-66.2 26.4-97.2 41.7l33.4 2.9z" fill="url(#SVGID_14_)"/><pattern id="SVGID_15_" xlink:href="#SVGID_6_" patternTransform="matrix(-2.8363 0 0 2.8363 -57199.031 40814.984)"/><path d="M531.1 123.1c5.1 9.3 10.3 12.4 15.6 15.5l7.2-19.7c12.9.5 24.7 6.6 37 10.7-1.5-4.6-5.2-9.1-8.1-13.7 4.2-2.2 9.6-2.5 17 0l21.5 11.3-1.2-15.5c3.5-3.6 7.2-2.5 10.7-2.4 9.9 3.8 18.4 10.4 26.8 17.3l5.4-13.7c8-.9 17.4 12.6 26.2 19l7.7-9c7 7.9 9.8 22.6 17.5 16.2 21.9 12.3 18.1-9.9 30.5-12.2 15.6-7.4 21.8-11.7 3.2-17.1-8.3-2.7-12.4-19.6-25-7.2-5.5-2.6-15.6-12.5-16.4-7.7-.5 4.4-7.2 4.9-14 5.4-8-2.3-19.3-12-24.1-6.9-1.3 5.3-5.4 7.2-9.8 8.6-7.9-5.3-12.5-14.5-23.6-15.8-4.6 10.3-7.6 11.1-12.2 15.8-8.3-3.5-16.7-12.4-25-10.4-.8 11.1-4.7 11.3-9 17-6.1-3.2-8.7-9.3-18.5-9.5-.6 6.4-5.8 8.1-10.1 10.7-6.3-1.5-11.8-7.3-19-4.4-2.5 10.5-6.4 14.3-10.3 17.7z" fill="url(#SVGID_15_)"/><pattern id="SVGID_16_" xlink:href="#SVGID_7_" patternTransform="matrix(-2.8363 0 0 2.8363 -57199.031 40814.984)"/><path d="M827.3 205.1c1.5-5.8 1.9-21.3.6-27.1l7.2-20.9c4.5 10.8 8 24.9 10.1 42.9 1.6 15.2 9.1 33 3 44.7l-21.5 6.9c3.9-18.3 10.3-38.2.6-46.5z" fill="url(#SVGID_16_)"/><pattern id="SVGID_17_" xlink:href="#SVGID_8_" patternTransform="matrix(-2.8363 0 0 2.8363 -57199.031 40814.984)"/><path d="M514.4 362.1s37.7-7.4 54.8-17.2c14.7-8.5 39.3-32.2 39.3-32.2l-13.7 15.5 1.2 23.2c-15.1.7-12.7 7.3-14.3 12.5-16.9-9.4-25.9-3-33.4 6.5-13.6-10.1-27.5-1.4-33.9-8.3z" fill="url(#SVGID_17_)"/><pattern id="SVGID_18_" xlink:href="#SVGID_9_" patternTransform="matrix(-2.8363 0 0 2.8363 -57199.031 40814.984)"/><path d="M599.6 240.4s26.5 2.8 40.5-1.2c8.3-2.3 26.2-13.7 26.2-13.7l-6 16.7c-8.1 1.9-20 1.5-20.9 7.7-8.1-2.3-26.6-.9-44 4.4 1.6-7.5 1.2-8.7 4.2-13.9z" fill="url(#SVGID_18_)"/><path class="st1" d="M823.9 312.2c2.8 4.9 4.7 9.1 4.7 13.1 0 2.1-4.2 6.9-8.1 8.5 2.5 5.8 4 10.3 3 14.5-2.5 10-5.8 9.8-18.6 8.3 4 8.1 1.1 16-.7 18.6-1.7 2.4-8.8 3.7-12.1 3.7-1.2 4.1-.6 7.2-3.9 10.6-4.9 5.1-11.6 6.4-18.1 7.1-1.9 2.8-1.1 9.1-5.2 10.6-6.7 2.4-9.9 3.5-25-2.4 5.6-2 11.8-.4 17.5-2.1 5.1-1.5 5.3-7.7 5.6-12.2 4.4-1.7 12.7-.8 17-2.8 3.1-1.3 5.1-9.3 7.3-14.9 3.4.3 10.4.6 11.4-3.8 1.1-5.1.8-10.6 2.1-15.7 3.8-.8 11.5-.9 14.2-3.6 3.8-3.8 1.7-11.8 1.7-18.7 9.4-2.5 8.6-11.7 7.2-18.8z"/><g><path class="st1" d="M609.5 498.1c-.6 6.3-4.7 10.1-10.8 13.6-1 5.5-1.3 14.7-4.6 20.9-3.5 6.9-10.2 10.6-15.2 12 4.5 12.1-1.3 24.1-5.1 35.3-2 6-4.5 12.8-7.5 18.3-3.3 5.9-8.1 12-14.2 9.9-2.9 14.9-12.9 26.8-25.9 28.7 5.1-4 11.2-8.9 15.6-16.3 3.1-5.2 6.1-10.1 6.3-17.2 9.6 1.1 17.6-12.2 19.5-21.9 1.1-5.4 6.2-14.7 7.5-21.2 1.4-6.8-1-10.9-2-18.6 2-1.7 9.6-4.9 14.5-12.4 3.3-5.1 4.4-13.4 4.9-19.5 3.7-4.4 10.3-9.1 10-15.4-.6-12.9-12.9-22.7-21.7-30.9 18.4 9.5 29.6 23.3 28.7 34.7zM513.4 473.5c6.3-3.1 14.2-.5 20.2.3 6.1.8 10.9-.1 16.2.6-5.8 6.7-17.2 2.2-29.2 5-6 1.5-8.2 3-10.6 4-5.8 2.2-19.1 1.1-26.1-5.9 2.8.6 5.7 1.1 8.5 1.4 7.4.7 14.4-2.1 21-5.4z" transform="translate(-3.556 -86.592) scale(1.0886)"/></g><path class="st1" d="M559 392.1c8.1.6 16.8 3.3 22 10 .7 1 3.7 2.8 6 1.9 1.9-.8 6.8-1.5 8.8-.1 7.2 6.1 11.2 9.7 19 14.8-9 1.2-13.2-5.8-21.1-9.7-1.7-.8-7.4-.1-13.1 2.6-6 2.8-16.5 11.7-28.5 12.5-7.2.5-13.8-3.5-18.1-9-6.5 4.2-16.1 7.4-23.6 9 6-7 10.8-6.1 19-15 4.4-4.9 9.5-9.1 15.2-12.3 4.3-2.4 9.1-5.1 14.4-4.7zm-1.6 5.7c-6.7 1.1-11.9 7-17.8 12.1 2.9 4.3 8 9.1 13.3 8.3 7.9-1.3 18.9-8 26-11.6-4.6-4.2-14.4-10-21.5-8.8zM321.9 415.2c6.9-12.2 9.4-13.3 19-8-2.4 1.6-8.1 1.7-10.8 4.4-2.4 2.3-1.8 7.3-3.4 9.2-4.8 1.6-12.4 17.4-9.5 21.5-3.1-1.5-6.6-4-6.9-9 .2-3.7 3.1-5.1 5.1-8.2 4.2-5.9.6-5.8 6.5-9.9z"/><g><path class="st1" d="M490.5 547.5c-7.6.8-11.4 1.3-19.8 4-7.4 2.3-10.4 5.8-14.8 11.5-5.5 7.2-10.4 15-16.7 21.6-5.5 5.7-22 17.5-30.9 13.3 4.2-2.2 8.5-4.4 12.5-7 11.5-7.3 19.7-18.5 27.4-29.5 5.4-7.7 12.7-15.4 22.5-16.8 6.8-1.1 13.2 1.6 19.8 2.9zM468 569.5c5-3.7 9.2-1 19 .3-5.2 1.2-10.8.6-15.5 3.4-3.6 2.1-8.2 9.7-11.3 12.4-7.6 6.7-12 9.2-18.9 17.6 1.6-6.3 10.3-14.9 14.5-19.9 4.1-4.9 7-10 12.2-13.8z" transform="translate(-3.556 -86.592) scale(1.0886)"/></g><g><path class="st1" d="M484.9 443.4c6.1-6.5 12-14.2 17.3-16 5.4-1.7 7.4-1.9 9.3-1.9 10.8.8 20.9 6 30.3 11.1 6.3-2.1 13.3-3.2 19.8-1.5 4.4 1.1 9 2.2 12.8 4.7 7.9 5.2 16.8 11.2 27 18-6-1.4-11.9-2.9-17.7-5.1-6.9-2.6-12.9-6.7-19.7-9.6-7.3-3.1-15.1-1.7-22.2.8-3.5 1.3-6.9-3.2-10.4-4.4-7.7-2.8-16-8.8-24-6.3-8.9 2.8-14.3 11.8-20.4 18.7-2.2 2.4-8.9-1.3-12.1-1.5-8.9-.5-12.9 7.7-21.3 8.1-2.6.1-9.2-.6-9-2.4.5-2.8 16.1-6 25.9-11.1 4.5-2.4 11.1 2.1 14.4-1.6zM663.1 177.9c3.9-.2 6.8 2.9 6.6 8.1 5.9-2.3 13.4-1.3 18.1 1.7 3.3 2 5.2 5.1 4.2 8.5.3 3.2 7.2 2.2 11.1 5.1 2.8 2.1 3.6 6.3 2.5 10.7 2.6 1.8 8 2 8.5 5.4.5 2.7-2.1 7.4-4.5 11 4.6 1.2 8.2 6.3 7.6 7.9-1.1 3-6.1 6.9-6.7 8.5-1.3 3.6 4.4 9.7 3.1 13.1-7.2 3.9-11.3 5-15.5 9.5-3.6 3.8-3.2 10.9-2.2 16.1-2.5 2.8-12.7-1.2-17.5 1.1-6.8 3.3-3.3 6-8 10.2-3.1-.2-12.2 2.6-13.8 3.6-3.3 2.2-4 6.7-4.9 11.5-3.5.1-12.7 1.5-15.1 3.8-3.8 3.6-3.9 10.3-4.5 15.1-5.1.8-11.8-.4-15.4 5.9-3.5 6.2-2.6 8.9-5 15.6-3.8 1.4-14 3.3-17.1 6-3.1 2.8-2.1 10.6-.1 15.6-4.7 2.6-9.3 6.7-12.9 11.3-4.8 6.1-1.7 10.1-1.4 20.3-4.4-6.8-6.2-17-4.4-21.2 3.6-8.1 6.5-10 11.9-13.8-.7-4.4-.8-12.7 1.7-15.6 3.2-3.6 12.3-5.6 16.7-7.2 1.3-4.9 2.2-11.5 6.4-16 2.2-2.2 10.6-5.4 14.9-6.1.6-3.7.7-10.1 6.3-14.1 2.9-2.1 10.2-2.6 13.6-3.5 3-6.3 2.7-9 6-11.9 1-.9 11.3-3.3 13.1-4.2 3.3-5.4 2.4-7.8 10.8-11.2 3-1.2 9.5-.1 10.5-1.2 2.7-2.6.4-12 5.1-15.4 4.7-3.5 13-3.3 14.8-8.1.8-2.2-4-8.8-3.6-12.1.6-4.4 5.1-4.8 6.3-6.7.6-.9-5.4-6.9-6.7-8.2 2.6-1.2 6.2-5.6 4.4-8.6-3.3-1.7-6.2-.1-7.7-2.7-.8-1.4.3-5.1 1-7.7-7.2-7.1-9-5.4-16.4-9.3 3.8-5.8-1-6.7-4.2-7.6-4.2-1.3-10.1-1-13.7.3-.2-3.2-2.5-9-5.2-9.7-3-.8-6-.1-10.5 2.8-.3-5.3 5.3-8.1 11.8-6.6z" transform="translate(-3.556 -86.592) scale(1.0886)"/><path class="st1" d="M731.8 215.4c-3.3-5.4-6.7-8.1-15.2-9.7 3.1-.4 14.6-8.6 23.3 20.5 4.3 2.5 5.8 5.4 5.8 8.2-.1 4.7-4.3 9.4-7.2 12.3 4.2 1.9 6.7 6.5 7.9 16.7.8 7.4-3.5 9.6-7.9 14.2-4.3 4.6-9.9 3.9-12.2 7.9-3.1 5.4-2.4 8.9.8 15.5-4.2 2.3-12.2.8-14.8 4.5-1.7 2.5-2.5 11.8 1 15.8-4.2 0-13.1 1.5-14.7 4.4-1.9 3.3-.4 7.9-.9 11.6-8.7 4.2-12.1.8-16 6.4-2.4 3.5 1.5 14.2-2.8 14-4.2-1.3-12-1.3-14.5 2.2-2.2 3 .6 9-.1 12.4-4.9.4-6.9 2.8-12.9 4.7-8.9 1.5-6.7 13.1-7.4 20.6-5.8-.6-15.8-5.8-19.9-.6-3.3 4.2-4.9 7.2-7.2 14.5-3.1-5.9-1.9-16.1 4.1-20.4 5.1-3.6 15.5.9 19.3 1.6-1.9-6.4-2.7-13.9 3.7-20.4 7.2-7.3 11.4-5.6 16.6-4-1.9-5.7-4.6-8.8.6-13.9 7.3-7.1 12.1-2.4 16-.5-1.5-4.2-6.9-10.8-.7-17.4 7.8-8.4 11.1-1.5 16.9-1.8-2-4-3.9-7.8-.1-14 4.9-8 8.5-2.6 14.6-3.6-2.8-4.6-3.1-10.8-.6-15.7 3.1-5.9 9.9-3.6 14.8-3.1-2.4-5.8-7-10.6-1.3-18 4.1-5.4 18.1-6.6 18.8-18.4.4-8.1-4.8-10.9-8.9-15.8 4.7-2.4 8.5-5 7.4-9.5-.5-1.8-2.8-5.6-4.5-7.2-1.8-1.9.5-10.2-1.8-14zM545.4 334.3c4.2-3.9 10-3.8 14.9-3.9-.6-4.7 0-10.8 5.4-13.7 3.4-1.9 8.5-4.7 14.1.6-1.7-1.2-6.5-.5-9.5 1.3-5.3 3.1-7 8.5-7.6 14.7-3.8 1.2-10.7 1.9-13.8 5.3-3.4 3.8-4.6 8.9-3.9 14.9-3.8 2.4-9 3.3-11.5 7.2-3.2 4.8-2 11.8-1.3 17.2-3.8 1.6-12.7 1.4-14.3 7.9-1.3 5.1.5 10.3 2 19-4.2-8-7.2-14.7-5.6-20.8 1.7-6.8 9.5-6.4 14.9-7.9-1.3-6.5-2.6-13.6-1.3-16.4 2.6-5.6 8.9-6.2 14.2-8.1.3-6-1.1-13.3 3.3-17.3zM595 408.5c4.9-.1 9.8 1.3 13.8 3.7-7-1-6-1.6-14.9 1.7-2.2.8-5.4 5.8-7.6 6-3.6.4-8.9-4.4-12.5-4.7-5.1-.6-6.2 6.3-10.4 8.4-3.4 1.8-6.5-2.2-10.2-3-3.8-.8-8.7.7-16 4.8 2.1-3.4 4.8-6.4 8.3-8.3 4.8-2.6 10.4.4 15.4-.8 3.6-.8 5.8-4.6 9.3-5.8 5.1-1.9 10.1 1.7 15.4 1.7 3.4 0 5.9-3.6 9.4-3.7zM781.1 405.1c-1.2 13.1 1.9 27.7-2.4 35-7.5 12.8-20.3 22-39 26.3l14.8-11.2c5.3-4 15.5-11.4 21-23.9 5.5-12.5-3.5-25.3 6.7-39.1l-1.1 12.9z" transform="translate(-3.556 -86.592) scale(1.0886)"/></g><path class="st1" d="M356.8 394.5c1.1-4 3.1-5.6 7-6.2 7.5-1 13.3-2.8 19.9 2 5 3.7 8.6 9.2 7.9 15.6-.6 5.6-1 9.9-7.7 9.2-10-1-13.3-2.2-19.6-8.9-4.1-4.2-9.1-5.8-7.5-11.7zm8.9 1.4c-1.2 3.1 1.6 5.3 4 7.4 4.1 3.5 6.1 6.5 11.2 4 2.7-1.4 4.2-2.3 2.9-5.1-2.2-5-4.6-7.4-9.9-7.4-3.3 0-7.1-2.2-8.2 1.1z"/><path class="st1" d="M621.4 63.3c13.7-.9 29.7 19.3 35.9 27 2.5-5.2 2.8-15.6 10.1-16.1 6.2-.5 19.1 7.6 23.6 16.7 2.1-6.8 1.5-17 9-17.9 8.5-1 20.2 8.6 22.5 19.7 1.3-8 10.4-15.1 17.5-13.4 7.2 1.7 15.2 9.8 15.8 18.6 3.3-9.7 13.3-12.2 17.4-10.8 7.6 2.6 15.6 11.3 13.8 21.9 7.8-6.5 13.3-7.7 18.3-3.5 5.7 4.8 8.6 8.8 6.4 24.2 5.9 1.4 12.4-.4 16.1 3.3 14.2 14.6 16.9 45.8 21.1 65.3 3.6 16.8 9.4 32.8 4.8 49.1 22 6.7 44.9 16.1 47.5 42.7.8 9.2-2.4 21.3-4.1 29.3 12-.3 32.9 5.6 40 14.3 3.9 4.8 13.6 19.1 12.4 28.1-10-2.4-20.5-7.7-33.9-8.2 3.7 10.4 6.9 32.5 2.1 34.7-3.5 1.7-17.9-5.2-23.1-12.9-2.4 15.2-2.6 17-4.4 24-2.3 1.2-9.5-5.3-13.6-12.4-.3 23.3-9.3 48.2-31.2 58.9 15.6 11.3 42.1 28.8 39.7 57.3 10.8 33.2 3.6 69.6-16.5 97.7-9.6 14.9-30 26.5-5.8 38.2 20.5 3.3 41.2 23 43.8 45-3.6-.1-15.4-6.7-21.2-7.6-5.6-.8-7.2-.2-10.4 1.7 11 7.6 22.6 30.4 22.1 47.1-13.6-3.8-16.9-11.7-31.5-12.9.1 5.7 6.7 29.5-3.9 47.1-8.2-7.9-25.8-26.6-33.2-33.6-9-11.9-12.6-12.3-26.5-19.6-3.3 7.4-4.9 24.3-13.1 37.5-8.3 13.3-23.6 28.2-28.6 34.8-3.1-13.9-10.4-27-12-46.4 1.5-17 .7-19.3 4.3-36.1-5.7 2.3-13.9 7.9-22.5 10.4-12.4 3.6-25.6 4.9-33.3 15.9-17.7-18.6 8.8-57.3 26.3-70.6 7.8-5.5 15-10.6 17.7-18.1 5.5-15.4.9-35.7 8.8-53.5 6.3-8.1 29.3-19.8 12.7-21.7-2.8-.3-31.9 25.2-45.7 18.1-25.8 18-47.5 55-84 51.8-32.1-2.8-51.2-3.8-75.3 15.9-28.9 5.2-57.9 18.1-87.9 10.4-31-7.3-56.9 12.9-87.4 14.2-18.5 1-37.3-2-51.6-13.1-8.5-6.5-14.9-17.9-19.9-27.7-7.2-32.5 28-47.4 48.7-65.5 14.8-12.9 24.7-28.8 41.4-39.4-10.6 1.3-23.6 3.1-30.8 5.1-1.5-5.5 9.7-17.4 13.7-20.7-1.9.1-20.4 1-30.4 1.5 4.9-12 22.9-16.9 33-19.3-2.6-1.1-13.3-.5-16-1.2 4.5-9.1 14-12.2 22.5-14.3 4.9-.8 12.9.9 17.8 1 1.5 0 4.2-1.3 5.4-2.8 4.7-3.9 10.3-.8 15.8.3 3.3-3.3 3.8-8.6 8.3-13.6-.2-2.4-5.8-4.2-12.9-1.6-8.6 3.1-22.1 13.8-31.3 11.6-22.2-5.4-49.3 6.6-63.8-7.9-6.9-4.4-22.9-8.5-32.7-14.8-9.5-6.2-20.7-22-.8-35.7 7.2-10.4 7.9-18.6 31.2-27 5.2-9.2 16.5-16.5 29.5-17.2 17.9-1 36.1 7.8 38 10.6 16.1 22.3 60.2 18.1 72.8-5.2 4.1-7.5 10.1-10.3 16.4-11.3 9.4-1.4 19.4 1.3 24.3-1.6 2-1.1 5.5-12.2 6.7-15.6 5.7-16.9 10.8-24.7 20.3-40.3 12.5-20.6 28.6-38.6 51.4-49.1 5.1-14.6 15.4-32.9 32.9-39.9 13.6-5.4 33.3-2.6 46.5 5.9 14.3-5 22.7-12.9 21.8-16.9-1.9-9-40-15.4-57.6-10-35.3-5.7-63.7 14.2-99 15.2-38.5.8-56.4 47.1-91.7 51.9-35.8 4.9-75.4 13.6-107.5-2.8-19.5-10-47.8-9-65.3-17.2-8.7-4-24.5-22.9-21.7-45.5 11.1 2 12.5 5.6 19.3 3.3 1.8-.6 6-16.6 5.7-19.7 12.4-.3 27.4 13.3 31.2 14.4 3.2-10.7 7.4-8.9 7-15.6 9.5-1 29.2 7.4 34.1 12.9-2.2-6.3-3.2-17.4-9.4-23.3 7.5-5.1 29.1 14.3 40 16.5.1-1.5-13.5-23.7-16-27.3 16.8-5 41.8 10.5 49.4 9-3.3-8.4-9.2-14.3-16.9-23.1 6.1-9.2 35.7 5.8 46.9 8.1-1-5.3-15.1-13.6-17.9-21.6 8.7-5.3 44.1 3.1 47.5 10.3-8.1-10.7-9.8-16.6-14.8-22.9 7.2-6 39.8-4.2 50.9 14.7-.1-7.2-16.1-22.5-18.9-28.6 5.3-6.4 36.4 1.4 43.5 12-2.7-7.9-1.5-21.3-6.7-29.5 4.5-2.1 28.4 11.3 36.8 17.1-.8-6.3 2.1-20.4-1.9-28.2 2.4-2.5 20.6 10.7 30.4 23.6 2.4-7.2-.1-16 1.3-27 14.8-1.4 23.8 18.4 30 22.2 3.9-3.5 1.2-18.8 2.5-28.8zm9.6 14.1c.5 10.8-.3 18.6-7 26.3-15.5-7.2-22-20.2-27.7-20.2-3.7 1.7-.3 23.1-9.2 25.9-6.7-6.5-12.6-20.5-20.2-22.7 1.7 5.4 2.8 21.7-8.1 24.6-6-6.7-14.5-13.3-23.2-12.5 3.1 8.3 4.6 19.9-.4 25.4 2.7 1.9 7.2 9.7 10.1 10.6 1.1-1.5 4.6-10 5-17.4 12-.8 21.1 2.8 32 7.4 7.9 4.9 1.1-5.9-2.3-8.7-4.2-2.4 9-4.6 12.7-4 10.6 1.5 16.1 5.1 25 11.1-.5-2.8.4-5.4-.3-9.5-1.9-5.1 7.3-7 11.1-6.3 9.2 1.7 17 7.8 24.7 12.9 7.4 5.9-.1-7.9 5.4-10 7.1-4 13.9 3 18.8 7.4 3.4 2 11.1 14.4 9 5.3-2-4.2 1.3-4.1 4.7-4 10.2-.1 16.4 9.7 19 18.4 2.8-2.9 4.6-6.7 6.8-10.1 5.1 10.3 11.9 21.3 9.5 33.3-1.1 4-2.2 5.7-3.7 9.9-2.1 5.1-5.3 9.7-3.6 15.5-5.1 11.9-13.9 21.1-24.4 27.9-10.6 6.8-20.3 11.4-25.1 17.5-6 3.1-7 10.1-6.3 14.6-5.4.3-10.9.8-15.9 3.1-5.5 3.4-6.3 11-8.1 16.8-3.4 3.5-10.2 4.7-13.3 9.2-3.2 4.7-2.2 11.1-2.3 16.5-2.4 3-9.2 3.3-11.6 7.5-2.8 5-.7 10.6-.3 16.1-1.9 4-9.9 6.7-11.8 11.5-3.1 7.4-.8 21.2.3 27-3.1.1-9.7.3-12.2 2.4-2.6 2.3-2.9 7.8-3.3 11.7-4-.6-13.8-5.4-21.2-4-7 1.4-10.8 5.8-14.2 10.5-4.7-3.7-13.2-5.2-19.5-4.6-6.5.6-12.6 2.6-18.3 7-8.5-6.8-14.6-7.6-19.5-5.4-12.9 5.7-18.2 31.7-38.9 25.8-13.6 7.3-35.4 11.7-49.1 6.3-4.7-23.4-32.7-22.7-51.2-22.8-12.5 10.1-34.5 16.7-39.6 34.6-5.6 5.6-15.2 9.5-14.5 12.9 1.9 9.5 23.8 18.2 37.8 17.7 18.1 15.2 38.6 8.7 63.8 11.8 11-16.4 37.4-14.1 50.7-4.7 4.3.6 13.1 1 16.6 1.5 4.9 1.5 13.8 8.7 15.6 10.7 6.7 5.2 9.3 1.8 16.5-.8 6-3.1 12.9-8 18.8-11.4 7.2 3.5 17.4 8.8 25.6 8.6 11-1 11.2 2.2 26.1-.8 6.8 1.6 15.2.7 20.2-3.8 5.1-4.7 7.4-14.4 15.8-13.2 8.5 1.2 15.2 4.3 19.3 7.5 3.4 2.6 8 8.4 8.9 16-9.9-7.3-13.1-10.6-17-12.5-4.9-2.4-8.5-4.2-11.7-3.1-6.3 2.1-9.5 10-16 15.2-3.1 2.5-7.2 5.8-11.1 6.4 2.1 3.5 2.5 4.9 1.9 8.5 3.7-2.6 8.2-2.4 11-4.3 10.6-2.2 22.1-3 29.3 1.5-6.3-.1-19.4 1.5-23.6 6-7.5 4-12.4 1.2-17.4 9.7-.3 6.2-2.4 20.5-9.2 22.5-12.4 6.5-15.9 20.5-23.4 31.3-15.9 1.9-23.8 15.7-33.4 27-7 7.9-15.9 14.5-26.8 16.1-9.7 3.6-20.9-5.1-28.2 5.6-3.8 8.3-12.8 6.1-19.4 6.9-6.6 10.4-22.2-1.4-30 4.7-5.7 9.3-5.9 13.6-12 22-7-4.9-16.9-3.7-18.5 5.1-9.5-4.4-19.2-9.7-29.4-12.3-6-4-11.1 5.5-15-1.7-3.2-2.2-7.3-9.5-9.2-14.2-6.8 10.2-.9 30.9 10.8 37.3 21.8 12 51.2 20.5 72-1.7 12.5 4.5 23.9 1.8 35.1-.6 9.5-1.9 12.5-14.1 21.7-16.1 7.7-1.7 12.6-8.3 19.2-11.9 10.1-5.4 24.7-4.8 35.8-8.1 14.2-4.2 25.3-9.2 36.5-19.2 3.6-2.5 4.4-8.1 6.8-13.1 5.8-2.9 11.7-3 16.9-8.8 6-6.7 11.1-19.4 12.2-26.7 5.5 8-3.1 22.9-9.1 33.2-4.2 4.9-15.1 5.3-15.1 5.3s-3.1 12.7-14.5 21.5c-9 7.1-23.8 12.4-31.7 14.7-7.4 2.2-16.7.4-24 2.8-6.3 2.1-12.1 6.1-16.7 11-4.2 4.4-13.1 2.7-16.1 4.9-2.8 2-5.2 5.1-7.6 8.1 5.9-.5 12-.1 18.1 2.6 31.4 3.5 64.9-5.4 92.5-19.4 21.5-23.6 51.2-3.3 77.6-9.5 26.6-6.3 39.7-27.8 60.3-40.1-.9-7.4 6.5-15.5 7-18.7 1-7.4-5-10.4-2.6-17.2 1.4-4 5.3-6.5 7.5-10.1 3.7-6 .3-13.1 2.2-19.3 1.3-4.2 5.6-7.4 6.7-11.8 2.3-8.8-4.9-16.2-4.9-24.8 7.6 10.3 12.8 11.4 12.6 24.5-.1 5.5-5.8 9.6-6.7 14.8-1.3 7.4-.9 15.3-4.9 21.9-2.2 3.8-6 7-4.1 12 2.5 6.6 1.5 13.8-.3 20.5 11.9 2.8 21.5-4.3 30.5-9.9-6.7-4.5-14-9.2-17.9-17.4-2-6.9 1.9-21.2 2.2-27.3 2.8 9.6 2.2 21.3 4.6 26.1 2.8 6 6.6 6.5 13 9.2 1.7.1.7-7.6.3-10.2-.6-4.3 1.5-8.3.1-12.2-2.8-7.6-10.7-16.7-5.2-23.8.6-.7 4.8-10.6 5.6-10.1 1.4 1.3-.9 13.3-2 16.3-2.2 5.9 6.1 11.3 6.8 17.2 1 9.1 1.5 18.1 3.3 27 4.7-1.2 9.3-.5 14.2 3.6 3.1-4.2 6.2-8.4 9.7-12.3 4.5-5.1 22-20.8 36.1-14.2-3.2 1.1-18 6.5-21.1 9-10.1 8.3-19.5 16-26.3 28.9-6.8 12.9-28.9 33.4-17 57.6-13.8 13.8-3.8 34.9-27 38.8.3 4.1-5.3 8.4-8.6 11.3 4 4 12.2 17.3 12.2 23.1 13.3-5.4 18.8-11.1 29.3-11.9-3.5 7.6-6.3 23.8-2.8 27.6 4.2-2.4 11.4-4.6 16.8-3.4 6.5 1.5 9.9 7 12.2 12.8 3.3-5.8 5.7-12 6-19.1 12.8-9.7 25.5 4.9 39.1 14.2.3-7.2 7.9-13.3 14.7-15.8-1.7-2.6-7.4-6.8-9.8-9.5-3.1-3.4-5.6-3.8-9.3-6.3-1.7-1.2-2.8-3.1-4-4.8-4.2-5.7-6-12.6-9-18.9 7.4 7 9.3 13.3 14.9 17.8 1.7 1.3 4.2.6 6 1.7 6.1 3.5 10.9 9 14.7 15.1 2.3 1 5.1 7.8 7.6 9.1.5-1.7 2.8-6.6 4.1-10.6 1.6-5.1 3.9-5.6 9-6.4-1.9-3.4-5-9.1-6.7-11.9-5.3-4.1-15.4-3.8-22-7.2-1.1-2.6-1.7-10.7-4.2-12.2-2.1-.9-7-3-8.7-4.5 8.3-4 16.5.8 16.7 13.8 3.2 1.3 17.7 3.3 20.6 5.1-6.6-6.1-4.7-19-2.9-22.7-15.4-2.8-20.5-16.5-35-21.5-9.5-3.3-20.3-7.9-30.4-8.9-12.1-1.3-23.8 2.6-35 9.5 14.3-16.8 21.3-14.1 33.6-16 11.1-1.7 23 6.5 33.9 9.5 20.4-15.9 36.4-37.5 42.4-63 6.7-28.8.1-63.4-17.4-87.3-5-6.9-16.8-11.5-24.3-14.9-12.8-5.8-26.8-8.2-40.4-11.3-13.2-3.1-27.9-.1-40.3 5.8-4-5.7-14.7-8.5-22.8-8.3-4.1 1.7-9.5 6.6-10.8 16.9-2.3-10.5-3.8-14.1 1.2-19.3 1.1-1.5 2.5-2.6 4-3.5-4.2-5.9-8.6-11.7-13.7-17-4.7-4.8-10.1-8.6-16.1-11.8-10-5.2-21.7-4.9-33.8-3.2 15.4-9.2 22-7.2 32.5-5.3 6.4 1.1 12.2 4.6 17 8.9 8.5 7.7 15.6 16.8 22.2 26.2 6.6 1 12.6 2.5 19.4 5.8 7.2-3 20.7-5.6 28.5-5.8 19.7-.7 32.8 3.1 51.6 7.9 10.1-21.3 35.7-26.7 32.4-55.3-.7-6.2 2-12.4 2.3-17 .3-4.7-2.2-9.2-3.5-13.8-2.4-8.5-4.6-17.2-9.3-24.7-6.7-10.5-18.6-22.2-27.1-31.3 8.5 4.9 17.9 10.2 20.9 12.9 4.9 4.3 5.7 7.2 9.3 12.6 3.1 2.4 8.5 7.6 12.9 7.6l8.1.1c-1.7 4-12.2 6.5-17.2 1.1 8.4 9.1 13.9 23.6 11.9 33-.2.9-.1 2 .1 3.2 2.8-4.5 7-8.3 12.3-7.2 1.7.3 3.3 1.5 4.7 2.9.5-1.8-6-8.2-7.1-11.1.6-1.6 1.3-2.2 3.6-.9 1.2 2.8 7.6 6.9 7.6 6.7 1.3-6 6.8-10.9 13-11.3-.1-.6-2.5-2.5-4.7-4.3-1.9-1.6-5.3-1.9-7.3-5.4.3-1.5 13.3 2.3 17.2 4.9.2-3.2 1.1-6.4 2.4-9.4.6-1.6 1.7-2.8 3-3.8-8.9-3.2-19.4-4-29.6-1-3.2-4 14.5-34.5-.3-47-1.5-25.6-27.9-11.1-39.7-29-3.5.4-8.8 2.7-10.1 2.4-5.7-1-6.2.1-11.8 1.8-2.7.8-4.8 4.8-6.2 7.3-3.2 5.7.8 11.1-4.4 18.8-.3-9.8-6.3-21.8 1.9-29.4 5.6-5.3 15.8-10.6 24.5-9.9 3-6.5 7.1-10.4 2.6-18.8-8-15 .6-41-9-57.1-2.4 4.9-3.6 15.4-2.6 18.8 2.8 9.6 1.7 23.8-6.7 30-7 5.1-7.9 12.8-7.4 21.1.3 6-9.8 9-11.3 14.9-2 7.9 2.2 15-3.2 22.5-2.8 3.9-1.8 9-5 12.4-5 5.4-2.6 10-.3 14.8-5.8.1-14.7-3.7-18.2 4-2.4 5.4-.3 7.2 2.8 14.9-9.2-2.4-12.6-1.9-15.2 3.2-1.6 3.1-2.5 11.1.5 18.8-5.7-1.8-14.3-.1-19.1 3.4-3.5 5.7-8.9 13.1-9.2 20.2-6.1-3.5-11-6.8-15.2-3.1-4 3.5-8 14-10.1 18.1-4.6-4.2-7.8-10.6-14-8-6.1 2.5-9.3 5.5-12.7 12.2-7.8-4.5-12.1-9.5-19.9-8.3-8.5 1.3-14 5.3-21.4 11.4 2.7-6.3 11.3-15.6 18.9-17.4 7.5-1.9 14.2 3.7 19.9 5.2 5-7 7.4-10.1 13.1-10.1 7.1-.1 7.9 2.4 14.2 5.9 1.5-4.5 3.4-11.5 7.8-14.6 4-2.8 10.4-1.8 14.7-.1 2.2-4.6 2.8-11.8 7.8-16.8 3.4-3.4 10.1-6 15.8-5.1.2-4.4-.8-12 2.7-17.1 2.2-3.1 9-4.2 14.1-3.8-2.6-4-2.8-8.9-1.2-13.2 1.5-3.8 9.6-7.5 14.9-7.4 1.3-5.3 2.2-11.8 3.6-15.6 2.2-5.5 6.3-7 7.6-12.2 2.4-9.3-.5-17.5 4.9-22.5 8.6-8-.5-22.2 9.7-29.3 8.5-5.8 12.7-17.2 9.5-26.6-2.2-6.8-1.3-15.9 1.7-21.6 1.9-11.9.4-21.3-4.4-26.4-4.1-4.3-10.6-5.4-19.5-2 2.6-11.7 1.4-24.7-2.5-27.6-4.7-3.5-11.1 4.8-15.4 7-.8-13.3-4.2-16.8-13.3-20.4-5.1-2-13.7 15.5-23.6 10.3-.5-8.5-6.3-20.2-9.9-20.2-5.2-.1-9.2 8.9-15.6 13-4.2-.6-8.9-17.6-16.6-17.1-5.8.3-6.7 10.5-10.6 14.9-7.7.6-14.2-11.1-25.4-10.7-5.8.2-4.3 8.9-10.5 14.9-5.7-7.2-16.8-22.5-27.3-26.6zm-133.8 28.9c12.4 8.9 15.9 22.8 14.7 30.4-1.3 7.6 4.7 13.6 9.7 19.9 2.2 2.8 2.5 6.7 3.3 10.2 2.4 10.6 1.3 21.5-1.5 31.8 16.3-1.5 33-3.8 48.6-8.5-.7-2.7-2.1-5.1-3.1-7.7-3.1-8.1 4-14.7 4.4-23.1.1-3.8-1.6-14.4.5-17.2 4.2-5.8 10.2-6.1 16.1-9.7-6.6-2.7-27.3-9.7-34.5-10.4.8 5.4-2.2 13.1-5.7 19.7-9.6-1.7-15.7-10-22-16.5-8.1-8.4-17.6-14.8-30.5-18.9zm130.3 5.7c-.9-.1-1.8.1-2.3.4-3.1 1.9-1 6.7.2 10.2-.7 6.4-.6 6-1.9 9.5-6.8-3.1-24.9-17.8-37.4-14.4.9 2.9 3.8 4.6 5.6 6.3 3.5 3.1 3.7 3.8 4.9 8.5-1.4 3-17.4 11.1-18.6 12.4-1.5 1.7-.1 7.4.8 13.8.8 6-4.9 10-4.5 16.1.3 4.7 3.5 8.4 4.7 12.9 5-1.9 9.9-4 14.5-6.5 15.6 3.1 30.9.9 46.2-.3-.6-.8-1-1.7-1.4-2.7-2.7-5.8-1.5-12.6 1.5-18 1.3-2.6 3.1-4.7 4.9-6.8 5.3-6.7 9.5-15 9.3-23.8-7.4-4.3-10.8-11.3-18.8-14.6-1.5-.7-4.9-2.7-7.7-3zm38.2 6c-2.5.3-.5 10-4.4 12.9-.1 10.1-4.9 19.6-11.1 27.4-.4.6-2.6 3.1-2.2 2.6-2.4 3.5-4.9 7.6-4 12 .7 2.9 2.4 5.4 4 7.8 12.2-.5 24.3.4 36.4 6 11.1 4 15.4 9.2 15.6 14.6 1.7-1.9 3.3-4 4.8-6.1 5.4-5.9 6.1-12.9 7.1-20.2 2.2-4.2 2.6-5.1 4.3-9.8 2.8-5.7 3.9-12.4.8-18.3-1.3-9-5.5 3.3-10.8-1.4-5-4.7-4-14.8-11.6-17 1.6 5.6-4.7 11.2-9.7 7.2-6.9-5.2-11.7-13.1-19.2-17.7zm-189.1 3.8c-2.1.1-4.2.8-7.8.9 4 10.3 15.8 21.9 11.9 31-6.3-6.9-33.2-17.2-40.4-15.2 3.9 6.8 9.6 20.5 15.7 25.4 6.1 4.9 12.1 12.8 12.4 21 .3 8.1-3.5 16.4-1.8 24.5.9 4 2.4 7.8 4 11.5.6 1.5 1.5 3.3 2.6 4.6 12.8-10.5 25.9-20.8 41.8-25.3 3.1-10.1 5.4-19.2 2.2-31.8-.2-.6-1.9-7.1-4.7-10.4-2.8-3.3-7.5-13.1-11.7-20.1-5.9-7.7-9.6-11.5-16.8-14.5-3.4-1.5-5.4-1.8-7.4-1.6zm-63.5 29.9c5.3 7.2 10.2 20.6 11.1 27-15.7-1.7-36.2-11.6-47.8-12.8 5.6 12.4 10.6 20.2 7.7 26.2-2.2 6.9-5.4 13.9-2.4 21.5 2 5.1 4.7 10.2 4.9 15.8.3 5.6-3.7 16.9-6.1 21.9 20.8 1.7 44.3-.3 64.4-5.1 8.8-2.1 15.2-10.2 22.5-16.1-4.2-5.3-6-12-7.9-18.2-2.6-8.5 1.1-17.7 1.3-26.4.1-4.4-3.1-8.3-6.1-11.5-2.8-3.1-8.2-12.2-13.8-14.9s-23.4-7.2-27.8-7.4zm-60.5 26.6c2 9.7.8 19.9-.3 25.4-13.2-6.9-24.1-11.5-35-17.5-1.7 10.8-1.5 19-8.9 20.8-5.4 1.3-19.5-13.4-26-12.5-4.1.6-4.5 9.2-5.1 15.6-.2 1.8-17.7-4.2-19.3-.5-4.3 10.1 10.9 18.6 19.3 20.3 20.4 4.2 35 6.7 50.5 12.6 11.6 4.4 23.1 8.5 37.5 7.6 3.8-2.6 10.1-4.4 11.7-10.1 1.8-6.1 3.3-14-.7-20.9-1.9-3.2-3-6.7-3.1-10.4-.3-6 1.6-11.7 3.5-17.4-5.6-1.1-19-6.3-24.1-13zM638.4 221c-8.3.3-21.7 7.4-27.5 14.1-3.3 3.8-8.1 9.9-9.9 15.2 9.7-5.7 25.5-6.1 38-4.6 2.3-2.8 14.7-4.2 18.8-4.8 1.7-7.9 3.2-9.8 6.5-15-7.1-1.5-16.9-5.3-25.9-4.9zm-10.5 32.3c-8.3-.2-27.4 2.8-37.5 8.5-14.6 8.4-37.7 23.6-43.6 50.7-12.6 13.2-15.1 32.9-23.2 48 10.1-3.8 20.2.3 24.5 7.1 8.3-8.8 7.4-10.8 15.2-12 5.3-.8 10.8.8 15.5 3.3 1-3.5 3.2-6.3 6-8.2 2.3-1.5 5-2.4 8-2.4-1.2-8-1.8-16.9 1.5-24.3 1-2.2 3-7.2 10-11.3-.1-5.4-1.3-11.9 1.1-16 2.9-5.1 6.9-8.2 11.4-10-1.4-4.6-.1-12.3 1.5-14.8 3.1-4.8 8.6-8.2 13.8-10.6.6-2.4 1.2-4.8 2.1-7.2-1.3-.5-3.5-.7-6.3-.8zm289.8 83.9c-1 2.2-2 5.1-2.4 7.6 8.3 1.6 18.9 5.4 21.8 7.4.9-3-4.7-11-7.4-13.3-1.9-1.7-4.2-3.2-6.5-4.5-.3 0-.5-.1-.8-.1-1.9-.1-4.2.4-4.7 2.9zm-13.2 16.3c-2.5 1.3-3.1 1.9-4.1 2.6-3 2-4.4 7.7-3.9 11.3 4 7.9 13.2 14 16.7 11.7.7-9.3.1-16.1-2.7-20.6-1.3-3.2-4.8-5.6-6-5zm-17.4 18.4c-2.3-1.8-3.6-5.4-8.1-4.4-4.8 1.1-4.4 5.1-4.9 8.6 2.7 4.7 7.6 11.4 10.5 12.4 1.7-3.6 1.5-11.1 2.5-16.6zm-427.3 92.3c1.4 20.2-13.9 40.5-34.5 52.3-2.7 6.7-34.9 30.2-41.9 38.9-11.9 14.7-26.3 20.9-38.5 35.4-5.1 6-11.1 10.1-12.8 11 2.2 3.7 2.3 8.9 7.9 11.7 4.1-1.4 9.2-3.7 13.1-2.9 1 .2 1.9.5 2.8.8.8-2.4 2.2-4.7 3.1-6.3 10.6-18.8 28.6-32.1 46.3-44.1 16.4-11.1 30.9-25.1 48.4-34.5 5.3-2.8 12.6-7.2 18.1-9.7 5.1-2.3 5.4-14.5 7.4-16.7 4.9 17.6-4.7 25.3-13.8 29.7-19.8 9.7-32.7 21.5-50.5 34.3-10.9 7.9-22 17.3-31.6 26.9-7.3 7.4-16.7 14.2-20.2 24 3.3 2.2 6.5 4.7 9.9 6.3 5.4 0 12.7-9.6 20.5-3.6.9-5.7 5.4-18.7 11.5-18.9s11-3.1 12.8-2.4c10.9 4.4 18.2-6.5 29.1-2.8 9.9-11.3 23.5-14.9 34.5-12.2 9.7-.2 19-11.3 22.9-14.9 9.5-11.8 20.1-24.5 35.5-28 5.4-9 9-19.7 17.6-26.4 5.4-1.9 8.5-8.9 9.7-16.2.4-3.3 1-6.7 2.6-9.8 3.1-6 4-2.2 3.4-7.1-1.1-3.5-3.2-3.6-3.5-6.1-5.1-.3-10.4-3.8-14.8-.8-7.4-.3-15.2.9-22.3-1.9-4.4-.1-8.8-6-12.8-3.1-4.7 2.6-9.1 6.1-14.2 8.1-9.5 3.8-21.2 5.4-29.7-1.5-4.4-4.6-9.6-8.9-16-9.5zM449 468c-4.7 1.3-12.2 9.2-15.6 12.5-6.5-3.6-12.4-3.3-18.6.3-11.2-2.1-21-1.6-29.7 3.8 6.4 2.6 20.6 4.1 28.4 4.4-4.4.6-35.8 4.4-42.2 13.3 10.4-4.2 28-2.8 37.1-3.6-7.4 5.2-17 11.1-23.7 18.1 8.6-1.8 23.5-2.1 32.3-2.7 14.3-11.6 37.8-31.8 32-46.1zm423.6 202.8c3.5-1.3 14.2-1.3 24 3.9-2.9-13.6-17.5-22.8-26.4-24.3-2.6 4.8-2.8 17.3 2.4 20.4zm-169.9 38.9c4.9-7.8 17.9-9.9 22.7-11.5.7-5.1-6.8-17-10.7-20.1-8.9 5.7-21.1 26.1-12 31.6zm171.4-18.9c-7.9 1-12 13-10 17 3.5 2 13.3-3.2 22.5 5.8-.9-10.8-4.9-18.3-12.5-22.8zm-38.3 30.4c6.9 14 20.6 24.6 22.4 26.6 7.5-10.6-1.7-36.6-7.8-42.7-5.1 0-17.3 8-14.6 16.1zm-67.2-6.7c-3.6.3-7.4 1.7-10.4 4.4-3.8 10.3 2.9 31.8 5.8 40.9 5.4-5.8 18.4-25.2 20.8-33.3-1.5-3.8-4.8-9-8.7-10.8-1.1-.6-2.5-.9-4-1.1-1.1-.1-2.3-.1-3.5-.1z"/><g><path class="st14" d="M293.7 633.6c4 8.3 4.9 10.1 11.9 8.9 4.7-4.9-1.3-17.1-4.2-25-4.1 2.7-8.2 5.7-7.7 16.1zM317 622.8c8.2.3 12.8-3.1 13.1-10.7 0 0-4.5-6.7-9-11.9-3.8-4.4-4.4-17.4-11.3-17.3-8.4 5.4-1.2 18.8-1.2 25 .9 8.8 1.3 13.8 8.4 14.9zM466 511.7c.6 5-3 13.4-8.3 20.9-7.8-5.4-7.8-13.4-6.5-19.7l14.8-1.2zM433.8 505c.4 6.5.1 14.1-4.2 19-6.9-3.9-8.8-12.4-7.7-22.7l11.9 3.7zM294.9 493.3s7.6-.6 14.2 1.7c5.4 11.1-2.1 14.9-7.7 20.3-5-8.1-6.8-10.6-6.5-22zM320.6 503.4c5.8-.9 11.5-4.7 17.2 1.8 0 11.2-5.1 12.7-7.7 18.5-5.7-6-9.3-13.6-9.5-20.3zM402.9 494.2c-7.1 20.9-10.8 37.3-16.1 37.5-5.6-1.7-8.1-18-6-30.4-.7-2.9 15.7-10.8 22.1-7.1zM288.4 487.8c-4.2 7.3-7 32-10.7 30.4-12-7.9-8.5-27.2-1.2-36.4l11.9 6zM325.4 656.9c1.3-6.3-.5-13.8-7.2-23.2-9 5.6-8.7 11.1-8.3 16.7 3.9 11 11.5 7.2 15.5 6.5zM350.4 660.8c2.7-10.8.3-16.2-9.5-23.8-6.4 8.3-8.6 15.7-7.2 20.9 3.9 5.8 11.2 5.6 16.7 2.9zM360.5 657.2c10.4 3.5 12.7-1.1 15.5-5.4-1.8-6.7-7.1-11.3-13.7-14.9-2.6 7.3-5.3 14.6-1.8 20.3zM491.1 506c3.2 9.1 1.5 14.1-4.8 20.9-5.7-7.3-6.7-13.8-8.3-22l13.1 1.1zM518.5 507.4c-.3 8.4 1.5 13.5-9 19-1.9-2.6-7.5-9.9-5.4-19h14.4zM427.8 634.2c4.4 1.6 8.8.2 13.1-3-.6-6.8-2.6-12.7-12.5-13.1-6.1 10.4-3.5 13.3-.6 16.1zM377.8 635.6c4.3 7.9 7.8 12.4 14.2 10.1 8.8-2 7.6-4.8 9-8.3 1-2.7-4.9-8.4-8.3-12-4.7-5.1-6.6-18.7-14.3-21.3-9.4 8.1-3.6 26.2-.6 31.5zM347.1 506.1c5.8-.9 11.5-4.7 17.3 1.8 0 11.1-1.5 13.2-10.1 17.9-5.1-8.4-7-12.9-7.2-19.7zM464.8 622.8c4.6.8 8.6-1.4 12.3-5.4-1.7-6.5-11.3-22.7-21.2-21.3-4.1 11.3 5.5 24.4 8.9 26.7zM493.4 606.6c4.6.5 8.5-2 12-6.2-2.2-6.4-5.6-11.5-15.4-9.5-3.4 11.5-.1 13.6 3.4 15.7zM516.2 588.4c4.7-.3 8.1-3.3 10.9-7.9-3.2-6-7.3-10.6-16.7-7.1-1.5 12 2 13.6 5.8 15zM534.6 561.4c4.7-.6 7.9-3.8 10.4-8.5-3.5-5.8-7.9-10.1-17-6.2-.9 12.1 2.8 13.6 6.6 14.7zM354 596.6c-2.1-6.5-5.4-11.7-15.2-9.9-3.5 11.5-.3 13.7 3.1 15.8 4.6.6 8.5-1.8 12.1-5.9zM377.8 576.2c-2.2-6.4-10.9-19.9-20.7-17.9-3.4 11.5 5.2 22 8.8 24 4.6.5 8.5-2 11.9-6.1zM389.2 563.5c4.7.4 8.5-2.2 11.9-6.3-2.3-6.4-5.8-11.5-15.5-9.4-3.2 11.6.1 13.7 3.6 15.7zM423.7 536.3c-2.2-6.4-5.6-11.5-15.4-9.5-3.3 11.6 0 13.8 3.5 15.7 4.7.5 8.5-2 11.9-6.2z" transform="translate(-3.556 -86.592) scale(1.0886)"/></g><g><path d="M540 409.4c2.9 4.4 8 9.4 13.3 8.5 7.9-1.3 18.9-8.3 26-12-4.7-4.3-14.5-10.3-21.5-9-6.7 1.2-11.8 7.2-17.8 12.5z" fill="#fff"/><path class="st1" d="M566.5 419.1H539c3.8 2.9 8.4 4.6 13.3 4.3 5.1-.4 10-2.2 14.2-4.3zM581.1 401.3v9.4c5.6-2.6 11.2-3.2 12.8-2.4 7.9 3.8 12.1 10.8 21.1 9.7-7.8-5.1-11.7-8.7-19-14.8-1.9-1.3-6.8-.6-8.8.1-2.4.8-5.4-1.1-6.1-2zM510.6 423.3c7.6-1.7 17.2-4.9 23.6-9 1.1 1.5 2.4 2.8 3.8 4v-17.7c-3 2.3-5.8 4.9-8.4 7.6-8.1 8.9-13 8.2-19 15.1zM538 400.4v17.4c.3.3.7.6 1 .8h27.5c5.8-2.8 10.8-6.5 14.2-8.1.1-.1.2-.1.3-.1v-9.2c-5-6.7-13.6-9.3-21.8-9.9h-2c-4.4.3-8.6 2.6-12.4 4.7-2.3 1.2-4.6 2.8-6.8 4.4zm1.9 8.4c6-5 11.2-10.8 17.9-12 7.1-1.2 16.9 4.6 21.5 8.7-7.1 3.5-18.1 10.1-26 11.4-5.3.8-10.4-3.9-13.4-8.1z"/></g><path class="st1" d="M566.8 407.3c-3.7-2.2-7.4-.3-11 .8.7-2.7.2-5.1 8.1-7.6-3.3-3.1-8.2-3.5-11.9-1s-5.1 7.3-3.3 11.4c1.8 4.2 6.2 6.5 10.6 5.6s7.5-4.7 7.5-9.2z"/><path class="st3" d="M563.6 214.3L441 2l109.3-1 63.5 110.7L677.7 1.6H732l27.8 48-91.1 156.6z"/></svg>