<svg xmlns="http://www.w3.org/2000/svg" width="976.309" height="846.778" viewBox="0 0 258.315 224.043"><path d="M101.518 69.893l-62.927 108.98L23.9 153.97l16.959-29.187-33.68-.089L0 112.25l7.33-12.73 47.941.152 17.23-29.704zm78.073 39.365L116.675.27 145.589 0l16.797 29.28L179.303.157l14.366.006 7.358 12.712-24.101 41.443 17.109 29.773z" style="isolation:auto;mix-blend-mode:normal" color="#000" overflow="visible" fill="#7ebae4" fill-rule="evenodd"/><path style="isolation:auto;mix-blend-mode:normal" d="M151.887 66.758l-125.843-.006 14.222-25.176 33.756.093L57.26 12.457 64.447.018 79.135.002l23.84 41.594 34.338.07z" color="#000" overflow="visible" fill="#5277c3" fill-rule="evenodd"/><path fill="#fff" d="M121.708 41.859h15.605v18.328h-15.605zM110.743 70.01h34.125v18.328h-34.125zm-.428 59.069h34.125v18.328h-34.125zm-3.023-37.797h46.22v37.675h-46.22z"/><path d="M134.87 117.747c-.53 0-1.065-.162-1.527-.497l-5.715-4.16a2.597 2.597 0 0 1-1.068-2.1V99.028a2.596 2.596 0 0 1 2.598-2.598 2.596 2.596 0 0 1 2.597 2.598v10.638l4.647 3.384a2.596 2.596 0 0 1-1.532 4.697zm22.858-27.148v34.212a5.182 5.182 0 0 1-1.522 3.673l-3.672 3.672v91.605h-46.752v-91.605l-3.673-3.026c-1.063-.875-1.522-2.298-1.522-3.672V91.246a5.193 5.193 0 0 1 5.194-5.194V77.59c0-1.268.295-2.516.863-3.652l9.527-19.054V46.33c0-1.208.269-2.405.786-3.496l11.25-23.73c.174-.376.552-.584.966-.584.414 0 .791.208.966.583l11.222 23.731a8.182 8.182 0 0 1 .784 3.496v8.553l9.527 19.054a8.159 8.159 0 0 1 .862 3.652v8.462c2.868 0 5.194 1.676 5.194 4.547zm-18.181-4.907c0 .197.16.36.36.36h1.877c.2 0 .36-.163.36-.36V76.96c0-.72-.581-1.299-1.299-1.299s-1.299.579-1.299 1.299zm-7.792-31.168c0 .197.16.36.36.36h1.877c.2 0 .36-.163.36-.36v-8.73c0-.721-.581-1.3-1.299-1.3s-1.299.579-1.299 1.3zm-3.896 31.168c0 .197.16.36.36.36h1.877c.2 0 .36-.163.36-.36V76.96c0-.72-.58-1.299-1.299-1.299-.717 0-1.298.579-1.298 1.299zm-3.896-31.168c0 .197.16.36.36.36h1.877c.2 0 .36-.163.36-.36v-8.73c0-.721-.58-1.3-1.299-1.3-.717 0-1.298.579-1.298 1.3zm-7.792 31.168c0 .197.16.36.36.36h1.877c.2 0 .36-.163.36-.36V76.96c0-.72-.58-1.299-1.299-1.299-.717 0-1.298.579-1.298 1.299zm2.597 48.41c0-.72-.58-1.299-1.298-1.299-.718 0-1.299.579-1.299 1.3v8.73c0 .197.16.36.36.36h1.877c.2 0 .36-.163.36-.36zm11.688 0c0-.72-.58-1.299-1.298-1.299-.718 0-1.299.579-1.299 1.3v8.73c0 .197.16.36.36.36h1.877c.2 0 .36-.163.36-.36zm11.688 0c0-.72-.58-1.299-1.298-1.299-.718 0-1.299.579-1.299 1.3v8.73c0 .197.16.36.36.36h1.877c.2 0 .36-.163.36-.36zm5.195-24.675c0-10.039-8.14-18.18-18.181-18.18-10.042 0-18.182 8.141-18.182 18.18 0 10.04 8.14 18.182 18.182 18.182 10.042 0 18.181-8.142 18.181-18.182z" fill="#4d4d4d"/><path style="isolation:auto;mix-blend-mode:normal" d="M156.797 154.127l62.927-108.98 14.691 24.904-16.959 29.187 33.681.089 7.178 12.444-7.33 12.729-47.94-.152-17.23 29.704z" color="#000" overflow="visible" fill="#5277c3" fill-rule="evenodd"/><path d="M106.346 157.01l125.843.005-14.222 25.176-33.756-.093 16.763 29.212-7.188 12.439-14.688.015-23.84-41.594-34.338-.07z" style="isolation:auto;mix-blend-mode:normal" color="#000" overflow="visible" fill="#7ebae4" fill-rule="evenodd"/><path style="isolation:auto;mix-blend-mode:normal" d="M78.81 114.786l62.916 108.986-28.914.271-16.797-29.28-16.917 29.124-14.367-.005-7.358-12.712 24.102-41.443-17.11-29.773z" color="#000" overflow="visible" fill="#5277c3" fill-rule="evenodd"/></svg>