<?xml version="1.0" encoding="UTF-8"?>
<svg xmlns="http://www.w3.org/2000/svg" viewBox="0 0 302.33 119.14" width="302.33" height="119.14">
  <defs>
    <style>.cls-1{fill:#a2a2a2;}.cls-2{fill:#f49120;}</style>
  </defs>
  <title>Asset 1</title>
  <g id="Layer_2" data-name="Layer 2">
    <g id="Layer_1-2" data-name="Layer 1">
      <path class="cls-1" d="M286.81,119.14a15.52,15.52,0,1,1,15.52-15.51A15.61,15.61,0,0,1,286.81,119.14Z"></path>
      <path class="cls-2" d="M65.15,113.34c0,2.82-.5,3.32-3.33,3.32H47.36c-2.82,0-3.32-.5-3.32-3.32V91.9H3.49C.5,91.9,0,91.4,0,88.58V71.13l41.38-69C42.05,1,42.71,0,43.54,0a6.21,6.21,0,0,1,2.33.66l10,4.16c1.33.5,2.49,1,2.49,2.33a4.7,4.7,0,0,1-1,2.32L18.61,75.28H44L46.7,48.53c.16-2.66.66-3.33,3.49-3.33H61.82c2.83,0,3.33.5,3.33,3.49V75.28h9.3c3,0,3.49.17,3.49,4v9.31c0,2.82-.5,3.32-3.49,3.32h-9.3Z"></path>
      <path class="cls-2" d="M130.41,112.52c0,3-.67,3.47-3.48,3.47H111.54c-2.82,0-3.48-.49-3.48-3.47v-90H86.38c-2.32,0-2.82-.49-2.82-2.81V5.42c0-2.31.5-2.81,2.82-2.81h68.19c3.31,0,4.14.33,4.14,1.82a7.08,7.08,0,0,1-.5,2.32l-3.47,13.07c-.66,2.65-2.48,2.65-3.81,2.65H130.41Z"></path>
      <path class="cls-2" d="M250,77.67c0,24.76-8.64,41.38-40,41.38s-40.05-16.62-40.05-41.38V5.87c0-3,.66-3.49,3.49-3.49h15.45c2.83,0,3.49.5,3.49,3.49v71.8c0,12,.83,23.43,17.62,23.43S227.6,89.63,227.6,77.67V5.87c0-3,.67-3.49,3.49-3.49h15.46c2.82,0,3.49.5,3.49,3.49Z"></path>
    </g>
  </g>
</svg>
