<?xml version="1.0" encoding="UTF-8" standalone="no"?>
<svg
   viewBox="0 0 583.22 338.81"
   version="1.1"
   id="svg31"
   width="583.22"
   height="338.81"
   sodipodi:docname="tii-logo-black.svg"
   inkscape:version="1.4.2 (ebf0e940d0, 2025-05-08)"
   xmlns:inkscape="http://www.inkscape.org/namespaces/inkscape"
   xmlns:sodipodi="http://sodipodi.sourceforge.net/DTD/sodipodi-0.dtd"
   xmlns="http://www.w3.org/2000/svg"
   xmlns:svg="http://www.w3.org/2000/svg">
  <sodipodi:namedview
     id="namedview31"
     pagecolor="#ffffff"
     bordercolor="#000000"
     borderopacity="0.25"
     inkscape:showpageshadow="2"
     inkscape:pageopacity="0.0"
     inkscape:pagecheckerboard="0"
     inkscape:deskcolor="#d1d1d1"
     inkscape:zoom="1.7177769"
     inkscape:cx="291.65604"
     inkscape:cy="169.405"
     inkscape:window-width="1463"
     inkscape:window-height="842"
     inkscape:window-x="0"
     inkscape:window-y="0"
     inkscape:window-maximized="1"
     inkscape:current-layer="svg31" />
  <defs
     id="defs1">
    <style
       id="style1">.cls-1{fill:#fff;}</style>
  </defs>
  <g
     id="Layer_2"
     data-name="Layer 2"
     style="fill:#233746;fill-opacity:1">
    <g
       id="Layer_1-2"
       data-name="Layer 1"
       style="fill:#233746;fill-opacity:1">
      <polygon
         class="cls-1"
         points="89.61 106.76 0 106.76 0 137.93 24.99 137.93 24.99 232.05 64.62 232.05 64.62 137.93 89.61 137.93 89.61 106.76"
         id="polygon1"
         style="fill:#233746;fill-opacity:1" />
      <rect
         class="cls-1"
         x="102.42"
         y="106.76"
         width="39.63"
         height="125.29"
         id="rect1"
         style="fill:#233746;fill-opacity:1" />
      <rect
         class="cls-1"
         x="167.65"
         y="106.76"
         width="39.63"
         height="125.29"
         id="rect2"
         style="fill:#233746;fill-opacity:1" />
      <path
         class="cls-1"
         d="M303.15,101H290.56V97H320V101H307.43v33.59h-4.28Z"
         id="path2"
         style="fill:#233746;fill-opacity:1" />
      <path
         class="cls-1"
         d="M331.61,131.59a11.45,11.45,0,0,0,8.73-3.91l2.57,2.31a14.32,14.32,0,0,1-11.41,5.19c-7.61,0-13.82-5.84-13.82-14.46,0-8,5.62-14.47,13.28-14.47,8.2,0,12.92,6.54,12.92,14.68a14,14,0,0,1-.06,1.45h-22C322.44,128.22,326.73,131.59,331.61,131.59Zm8.09-12.53c-.49-5-3.38-9.33-8.84-9.33-4.77,0-8.42,4-9,9.33Z"
         id="path3"
         style="fill:#233746;fill-opacity:1" />
      <path
         class="cls-1"
         d="M348.33,120.82v-.1a14.43,14.43,0,0,1,25.29-9.54l-2.73,2.89c-2.2-2.3-4.66-4.17-8.41-4.17-5.63,0-9.92,4.76-9.92,10.71v.11c0,6,4.4,10.77,10.18,10.77,3.54,0,6.27-1.77,8.47-4.13l2.62,2.47c-2.78,3.1-6.1,5.35-11.3,5.35A14.22,14.22,0,0,1,348.33,120.82Z"
         id="path4"
         style="fill:#233746;fill-opacity:1" />
      <path
         class="cls-1"
         d="M379.58,97h4.12v14.62a10.49,10.49,0,0,1,9.48-5.41c6.7,0,10.61,4.5,10.61,11.09v17.2h-4.12V118.36c0-5.14-2.79-8.36-7.66-8.36s-8.31,3.48-8.31,8.68v15.86h-4.12Z"
         id="path5"
         style="fill:#233746;fill-opacity:1" />
      <path
         class="cls-1"
         d="M411.52,106.84h4.12v4.82a10.49,10.49,0,0,1,9.48-5.41c6.7,0,10.61,4.5,10.61,11.09v17.2h-4.12V118.36c0-5.14-2.79-8.36-7.66-8.36s-8.31,3.48-8.31,8.68v15.86h-4.12Z"
         id="path6"
         style="fill:#233746;fill-opacity:1" />
      <path
         class="cls-1"
         d="M441.74,120.82v-.1a14.44,14.44,0,0,1,28.88-.11v.11a14.38,14.38,0,0,1-14.52,14.46A14.19,14.19,0,0,1,441.74,120.82Zm24.65,0v-.1c0-6-4.45-10.82-10.29-10.82-6,0-10.13,4.87-10.13,10.71v.11c0,5.94,4.4,10.77,10.24,10.77C462.21,131.49,466.39,126.66,466.39,120.82Z"
         id="path7"
         style="fill:#233746;fill-opacity:1" />
      <path
         class="cls-1"
         d="M477.38,97h4.13v37.5h-4.13Z"
         id="path8"
         style="fill:#233746;fill-opacity:1" />
      <path
         class="cls-1"
         d="M488.31,120.82v-.1a14.44,14.44,0,0,1,28.88-.11v.11a14.38,14.38,0,0,1-14.52,14.46A14.19,14.19,0,0,1,488.31,120.82Zm24.65,0v-.1c0-6-4.45-10.82-10.29-10.82-6,0-10.12,4.87-10.12,10.71v.11c0,5.94,4.39,10.77,10.23,10.77C508.78,131.49,513,126.66,513,120.82Z"
         id="path9"
         style="fill:#233746;fill-opacity:1" />
      <path
         class="cls-1"
         d="M523.26,139.36l1.87-3.21a17.72,17.72,0,0,0,10.66,3.53c6.11,0,10.08-3.37,10.08-9.85v-3.27c-2.42,3.21-5.79,5.84-10.88,5.84a12.82,12.82,0,0,1-13-13v-.1a13.11,13.11,0,0,1,23.84-7.51v-5h4.13v22.88c0,4.28-1.29,7.55-3.54,9.8-2.46,2.47-6.16,3.7-10.55,3.7A21.71,21.71,0,0,1,523.26,139.36Zm22.71-20v-.11c0-5.68-4.93-9.37-10.18-9.37s-9.59,3.64-9.59,9.32v.11a9.37,9.37,0,0,0,9.59,9.42C541,128.75,546,125,546,119.38Z"
         id="path10"
         style="fill:#233746;fill-opacity:1" />
      <path
         class="cls-1"
         d="M556.48,141.88l1.39-3.27a8.65,8.65,0,0,0,4.34,1c2.47,0,4-1.29,5.68-5.2L555.3,106.84h4.56l10.07,23.09,8.89-23.09h4.4l-11.63,28.61c-2.36,5.73-5,7.82-9.21,7.82A12.62,12.62,0,0,1,556.48,141.88Z"
         id="path11"
         style="fill:#233746;fill-opacity:1" />
      <path
         class="cls-1"
         d="M302.6,145.76h4.23v37.5H302.6Z"
         id="path12"
         style="fill:#233746;fill-opacity:1" />
      <path
         class="cls-1"
         d="M316.05,155.56h4.13v4.82a10.48,10.48,0,0,1,9.48-5.41c6.7,0,10.61,4.5,10.61,11.09v17.2h-4.13V167.08c0-5.14-2.78-8.36-7.66-8.36s-8.3,3.48-8.3,8.68v15.86h-4.13Z"
         id="path13"
         style="fill:#233746;fill-opacity:1" />
      <path
         class="cls-1"
         d="M348,155.56h4.13v4.82A10.48,10.48,0,0,1,361.6,155c6.7,0,10.61,4.5,10.61,11.09v17.2h-4.13V167.08c0-5.14-2.78-8.36-7.66-8.36s-8.3,3.48-8.3,8.68v15.86H348Z"
         id="path14"
         style="fill:#233746;fill-opacity:1" />
      <path
         class="cls-1"
         d="M378.22,169.55v-.11a14.44,14.44,0,0,1,28.88-.11v.11a14.38,14.38,0,0,1-14.52,14.46A14.19,14.19,0,0,1,378.22,169.55Zm24.65,0v-.11c0-5.95-4.45-10.82-10.29-10.82-6,0-10.13,4.87-10.13,10.71v.11c0,5.94,4.4,10.77,10.24,10.77C398.69,180.21,402.87,175.38,402.87,169.55Z"
         id="path15"
         style="fill:#233746;fill-opacity:1" />
      <path
         class="cls-1"
         d="M409.14,155.56h4.56l9.32,23,9.38-23h4.44l-12,27.92h-3.65Z"
         id="path16"
         style="fill:#233746;fill-opacity:1" />
      <path
         class="cls-1"
         d="M438.84,175.22v-.1c0-6,4.82-9.06,11.84-9.06a28.82,28.82,0,0,1,8.46,1.18v-.86c0-4.92-3-7.5-8.19-7.5a19.31,19.31,0,0,0-8.42,2l-1.23-3.38a22.77,22.77,0,0,1,10.08-2.36c3.91,0,7,1.07,8.94,3.06s2.9,4.6,2.9,8.14v16.93h-4.08v-4.12a12.15,12.15,0,0,1-10,4.71C444,183.85,438.84,180.9,438.84,175.22Zm20.36-2.14v-2.57a28.5,28.5,0,0,0-8.09-1.18c-5.15,0-8.09,2.25-8.09,5.57V175c0,3.48,3.21,5.52,7,5.52C455.07,180.53,459.2,177.47,459.2,173.08Z"
         id="path17"
         style="fill:#233746;fill-opacity:1" />
      <path
         class="cls-1"
         d="M472.07,175.92V159.21h-3.86v-3.65h3.86V147.2h4.12v8.36H485v3.65h-8.79v16.17c0,3.38,1.88,4.61,4.67,4.61a8.71,8.71,0,0,0,4-1v3.53a10.35,10.35,0,0,1-5,1.18C475.45,183.74,472.07,181.55,472.07,175.92Z"
         id="path18"
         style="fill:#233746;fill-opacity:1" />
      <path
         class="cls-1"
         d="M491.31,147.53H496v4.56h-4.71Zm.27,8h4.12v27.7h-4.12Z"
         id="path19"
         style="fill:#233746;fill-opacity:1" />
      <path
         class="cls-1"
         d="M502.51,169.55v-.11a14.44,14.44,0,0,1,28.88-.11v.11a14.38,14.38,0,0,1-14.52,14.46A14.18,14.18,0,0,1,502.51,169.55Zm24.65,0v-.11c0-5.95-4.45-10.82-10.29-10.82-6,0-10.13,4.87-10.13,10.71v.11c0,5.94,4.39,10.77,10.24,10.77S527.16,175.38,527.16,169.55Z"
         id="path20"
         style="fill:#233746;fill-opacity:1" />
      <path
         class="cls-1"
         d="M537.77,155.56h4.13v4.82a10.48,10.48,0,0,1,9.48-5.41c6.7,0,10.61,4.5,10.61,11.09v17.2h-4.13V167.08c0-5.14-2.78-8.36-7.66-8.36s-8.3,3.48-8.3,8.68v15.86h-4.13Z"
         id="path21"
         style="fill:#233746;fill-opacity:1" />
      <path
         class="cls-1"
         d="M302.6,194.48h4.23V232H302.6Z"
         id="path22"
         style="fill:#233746;fill-opacity:1" />
      <path
         class="cls-1"
         d="M316.05,204.28h4.13v4.82a10.48,10.48,0,0,1,9.48-5.41c6.7,0,10.61,4.5,10.61,11.09V232h-4.13V215.8c0-5.14-2.78-8.36-7.66-8.36s-8.3,3.48-8.3,8.68V232h-4.13Z"
         id="path23"
         style="fill:#233746;fill-opacity:1" />
      <path
         class="cls-1"
         d="M345.69,228.44l2.09-2.94a16.18,16.18,0,0,0,9.59,3.53c3.32,0,5.73-1.71,5.73-4.39v-.11c0-2.78-3.26-3.85-6.91-4.87-4.34-1.23-9.16-2.73-9.16-7.82v-.11c0-4.77,4-7.93,9.43-7.93a19,19,0,0,1,10,3L364.55,210a15.67,15.67,0,0,0-8.2-2.68c-3.26,0-5.35,1.72-5.35,4v.11c0,2.62,3.42,3.64,7.12,4.77,4.29,1.28,8.89,2.94,8.89,7.92v.11c0,5.25-4.34,8.31-9.85,8.31A19.05,19.05,0,0,1,345.69,228.44Z"
         id="path24"
         style="fill:#233746;fill-opacity:1" />
      <path
         class="cls-1"
         d="M374.52,224.64V207.93h-3.86v-3.65h3.86v-8.36h4.13v8.36h8.78v3.65h-8.78V224.1c0,3.38,1.87,4.61,4.66,4.61a8.77,8.77,0,0,0,4-1v3.54a10.54,10.54,0,0,1-5,1.17C377.9,232.46,374.52,230.27,374.52,224.64Z"
         id="path25"
         style="fill:#233746;fill-opacity:1" />
      <path
         class="cls-1"
         d="M393.76,195.92h4.72v4.56h-4.72Zm.27,8.36h4.12V232H394Z"
         id="path26"
         style="fill:#233746;fill-opacity:1" />
      <path
         class="cls-1"
         d="M408.12,224.64V207.93h-3.85v-3.65h3.85v-8.36h4.13v8.36H421v3.65h-8.79V224.1c0,3.38,1.87,4.61,4.66,4.61a8.77,8.77,0,0,0,4-1v3.54a10.51,10.51,0,0,1-5,1.17C411.5,232.46,408.12,230.27,408.12,224.64Z"
         id="path27"
         style="fill:#233746;fill-opacity:1" />
      <path
         class="cls-1"
         d="M426.83,221.48v-17.2H431v16.18c0,5.15,2.79,8.36,7.66,8.36,4.72,0,8.31-3.48,8.31-8.68V204.28H451V232h-4.07v-4.82a10.57,10.57,0,0,1-9.49,5.41C430.74,232.57,426.83,228.07,426.83,221.48Z"
         id="path28"
         style="fill:#233746;fill-opacity:1" />
      <path
         class="cls-1"
         d="M460.64,224.64V207.93h-3.85v-3.65h3.85v-8.36h4.13v8.36h8.79v3.65h-8.79V224.1c0,3.38,1.87,4.61,4.66,4.61a8.77,8.77,0,0,0,4-1v3.54a10.51,10.51,0,0,1-5,1.17C464,232.46,460.64,230.27,460.64,224.64Z"
         id="path29"
         style="fill:#233746;fill-opacity:1" />
      <path
         class="cls-1"
         d="M491.19,229a11.46,11.46,0,0,0,8.74-3.91l2.57,2.31a14.32,14.32,0,0,1-11.41,5.19c-7.61,0-13.83-5.84-13.83-14.46,0-8,5.63-14.47,13.29-14.47,8.2,0,12.91,6.54,12.91,14.68,0,.38,0,.81,0,1.45h-22C482,225.66,486.32,229,491.19,229Zm8.09-12.53c-.48-5-3.37-9.32-8.84-9.32-4.77,0-8.41,4-9,9.32Z"
         id="path30"
         style="fill:#233746;fill-opacity:1" />
      <path
         class="cls-1"
         d="M102.36,338.81V323.92c42.49,0,79.23-15.23,109.21-45.29s45.3-66.74,45.3-109.22S241.63,90.25,211.58,60.19s-66.81-45.3-109.22-45.3V0c46.5,0,86.79,16.71,119.74,49.66s49.65,73.24,49.65,119.75-16.7,86.88-49.66,119.75S148.94,338.81,102.36,338.81Z"
         id="path31"
         style="fill:#233746;fill-opacity:1" />
    </g>
  </g>
</svg>
