<?xml version="1.0" encoding="UTF-8" standalone="no"?>
<!-- Created with Inkscape (http://www.inkscape.org/) -->

<svg
   width="1920"
   height="1080"
   viewBox="0 0 1920 1080"
   version="1.1"
   id="svg1"
   inkscape:version="1.4.3 (0d15f75042, 2025-12-25)"
   sodipodi:docname="comparison-full.svg"
   xmlns:inkscape="http://www.inkscape.org/namespaces/inkscape"
   xmlns:sodipodi="http://sodipodi.sourceforge.net/DTD/sodipodi-0.dtd"
   xmlns="http://www.w3.org/2000/svg"
   xmlns:svg="http://www.w3.org/2000/svg">
  <sodipodi:namedview
     id="namedview1"
     pagecolor="#505050"
     bordercolor="#eeeeee"
     borderopacity="1"
     inkscape:showpageshadow="0"
     inkscape:pageopacity="0"
     inkscape:pagecheckerboard="0"
     inkscape:deskcolor="#505050"
     inkscape:document-units="px"
     inkscape:zoom="0.96313018"
     inkscape:cx="794.80429"
     inkscape:cy="391.43203"
     inkscape:window-width="2752"
     inkscape:window-height="1124"
     inkscape:window-x="0"
     inkscape:window-y="0"
     inkscape:window-maximized="1"
     inkscape:current-layer="layer1" />
  <defs
     id="defs1" />
  <g
     inkscape:label="Layer 1"
     inkscape:groupmode="layer"
     id="layer1">
    <path
       id="rect1-3-6-5"
       style="fill:#28395f;stroke-width:0.829198"
       d="m 1113.9955,538.51166 493.3561,-67.8434 v 67.8434 z"
       sodipodi:nodetypes="ccccc"
       inkscape:export-filename="integrate-infra.svg"
       inkscape:export-xdpi="96"
       inkscape:export-ydpi="96" />
    <rect
       style="fill:#15213a;fill-opacity:1;stroke-width:0.829198"
       id="rect1-9-2-4-0-7"
       width="493.35614"
       height="67.843407"
       x="1113.9954"
       y="674.19855"
       ry="0" />
    <rect
       style="fill:#28395f;stroke-width:0.829198"
       id="rect1-9-2-4-0-6"
       width="493.35614"
       height="67.843407"
       x="1113.9954"
       y="538.51172"
       ry="0" />
    <path
       fill="currentColor"
       d="m 1587.4469,484.83272 6.3783,-6.3783 c -11.162,-11.16202 -25.5132,-16.74303 -39.8643,-16.74303 -14.3512,0 -28.7024,5.58101 -39.8644,16.74303 l 6.3783,6.3783 c 9.5674,-8.77016 21.5267,-13.55388 33.4861,-13.55388 11.9593,0 23.9186,4.78372 33.486,13.55388 m -7.1756,6.3783 c -7.1756,-7.17558 -16.743,-11.16202 -26.3104,-11.16202 -9.5675,0 -19.1349,3.98644 -26.3105,11.16202 l 6.3783,6.3783 c 5.581,-5.58101 12.7566,-7.97287 19.9322,-7.97287 7.1755,0 14.3511,2.39186 19.9321,7.97287 z m -2.3918,50.2291 h -15.9458 v -31.89149 h -15.9457 v 31.89149 h -79.7288 a 15.945747,15.945747 0 0 0 -15.9457,15.94575 v 31.89149 a 15.945747,15.945747 0 0 0 15.9457,15.94575 h 111.6203 a 15.945747,15.945747 0 0 0 15.9457,-15.94575 v -31.89149 a 15.945747,15.945747 0 0 0 -15.9457,-15.94575 m -87.7016,39.86437 h -15.9458 v -15.94575 h 15.9458 z m 27.905,0 h -15.9457 v -15.94575 h 15.9457 z m 27.9051,0 h -15.9458 v -15.94575 h 15.9458 z"
       id="path1-1"
       style="fill:#e8effc;fill-opacity:1;stroke-width:7.97287" />
    <path
       fill="currentColor"
       d="m 1316.4896,460.77975 c -8.1741,0 -14.728,6.55395 -14.728,14.72799 v 58.91194 c 0,8.17403 6.5539,14.72798 14.728,14.72798 h 88.3679 c 8.174,0 14.728,-6.55395 14.728,-14.72798 v -58.91194 c 0,-8.17404 -6.554,-14.72799 -14.728,-14.72799 z m 0,14.72799 h 88.3679 v 58.91194 h -88.3679 z m -14.728,81.00392 c -8.174,0 -14.728,6.55395 -14.728,14.72798 v 22.09198 c 0,8.17404 6.554,14.72799 14.728,14.72799 h 117.8239 c 8.174,0 14.728,-6.55395 14.728,-14.72799 v -22.09198 c 0,-8.17403 -6.554,-14.72798 -14.728,-14.72798 z m 29.4559,14.72798 h 88.368 v 22.09198 h -88.368 z m 7.3641,5.52299 v 11.046 h 29.4559 v -11.046 z m 44.1839,0 v 11.046 h 29.4559 v -11.046 z"
       id="path1-0"
       style="fill:#e8effc;fill-opacity:1;stroke-width:7.36399" />
    <rect
       style="fill:#15213a;stroke-width:0.829198;fill-opacity:1"
       id="rect1"
       width="493.35614"
       height="67.843407"
       x="620.63928"
       y="606.35504"
       ry="0"
       inkscape:export-filename="integrate-os.svg.svg"
       inkscape:export-xdpi="96"
       inkscape:export-ydpi="96" />
    <rect
       style="fill:#050b18;stroke-width:0.829198;fill-opacity:1"
       id="rect1-9-2"
       width="493.35614"
       height="67.843407"
       x="620.63928"
       y="674.19843"
       ry="0" />
    <path
       id="rect1-3-6"
       style="fill:#15213a;stroke-width:0.829198;fill-opacity:1"
       d="m 620.63931,606.35504 493.35609,-67.8434 v 67.84341 H 620.63931 Z"
       sodipodi:nodetypes="ccccc" />
    <path
       fill="currentColor"
       d="m 836.81503,591.49504 v -30.90698 l 35.32224,-7.77091 v 38.14804 z m 100.07974,-52.9834 v 51.51165 l -58.87044,0.88307 v -39.38434 z m -100.07974,58.87043 35.32224,0.52987 v 40.09074 l -35.32224,-6.77012 z m 100.07974,1.47179 v 51.51163 L 878.02433,639.12124 V 597.9708 Z"
       id="path1-9"
       style="fill:#e8effc;fill-opacity:1;stroke-width:5.88704" />
    <path
       fill="currentColor"
       d="m 1044.679,582.6019 c -2.8177,1.8785 -11.7407,6.9773 -13.0825,7.98365 -2.6164,2.07977 -5.0316,1.94559 -7.6482,-0.0671 -1.3418,-1.07344 -10.2646,-6.17224 -13.0823,-7.98365 -3.2203,-2.07978 -3.0192,-4.69627 0.5366,-6.17224 11.0028,-4.62917 22.0054,-4.29373 32.941,0.20127 3.2874,1.40888 3.4215,4.02536 0.3354,6.03806 m 48.4387,48.84117 c -6.2394,-14.02171 -14.7597,-26.76872 -25.7625,-37.97267 a 28.848494,28.848494 0 0 1 -7.1115,-12.61283 c -0.6708,-2.21396 -1.1404,-4.495 -1.61,-6.77605 -1.3418,-5.90388 -1.9457,-11.94193 -4.6963,-17.51036 -4.8976,-10.60014 -13.4179,-16.10149 -25.7623,-16.57111 -12.1433,0.33544 -21.2003,5.43426 -26.5004,16.10149 -1.409,2.88484 -2.41529,5.90387 -3.08617,8.98999 -1.14049,5.09881 -2.14683,10.39887 -3.35445,15.56478 -1.00634,4.3608 -3.01901,8.11782 -6.44059,11.4723 -10.80151,10.53305 -19.45606,22.60917 -26.0308,35.89289 -0.9392,1.9456 -1.87852,3.89119 -2.48227,5.90388 -1.27476,4.4279 1.94553,7.51402 6.64188,6.44059 2.95187,-0.6038 5.90386,-1.2076 8.72157,-2.07977 2.7507,-1.00635 3.82417,-0.33545 4.49506,2.34814 4.36079,14.42424 13.88752,24.55476 28.44597,30.19027 27.6408,10.46597 59.9109,-4.42791 66.8883,-30.727 0.4696,-1.81141 1.1405,-2.4823 3.1531,-1.81141 3.0862,0.93925 6.2393,1.61014 9.3926,2.34814 3.2873,0.6038 5.7026,-1.07344 6.1722,-4.29374 0.2013,-1.74432 -0.4025,-3.28738 -1.0734,-4.89753"
       id="path1-8"
       style="stroke-width:6.70895;fill:#e8effc;fill-opacity:1" />
    <path
       fill="currentColor"
       d="m 796.12102,630.48624 c -4.74078,7.0826 -9.76714,13.99385 -17.42092,14.10808 -7.65378,0.17137 -10.10983,-4.5123 -18.79173,-4.5123 -8.73901,0 -11.42356,4.39807 -18.6775,4.68367 -7.48243,0.28559 -13.13709,-7.53955 -17.93496,-14.45079 -9.76714,-14.10808 -17.24956,-40.09665 -7.19685,-57.57469 4.96924,-8.6819 13.87962,-14.16518 23.53251,-14.33655 7.31107,-0.1143 14.27944,4.96924 18.79174,4.96924 4.45518,0 12.9086,-6.11159 21.76184,-5.1977 3.71267,0.17137 14.1081,1.48506 20.79088,11.30931 -0.51407,0.34271 -12.39456,7.31107 -12.28032,21.76186 0.17137,17.24955 15.1362,23.01843 15.30755,23.07555 -0.17136,0.39983 -2.39895,8.22497 -7.88224,16.16432 m -32.61424,-91.38838 c 4.16961,-4.74076 11.08085,-8.33917 16.79262,-8.56765 0.74254,6.68278 -1.94201,13.42267 -5.94024,18.22057 -3.94112,4.855 -10.45255,8.62476 -16.84974,8.11071 -0.85675,-6.56855 2.34184,-13.42267 5.99736,-17.76363"
       id="path1"
       style="fill:#e8effc;fill-opacity:1;stroke-width:5.71177" />
    <path
       fill="currentColor"
       d="m 1164.9729,461.84686 h 92.1627 a 5.7601698,5.7601698 0 0 1 5.7602,5.76017 v 23.04068 a 5.7601698,5.7601698 0 0 1 -5.7602,5.76017 h -92.1627 a 5.7601698,5.7601698 0 0 1 -5.7602,-5.76017 v -23.04068 a 5.7601698,5.7601698 0 0 1 5.7602,-5.76017 m 0,46.08136 h 92.1627 a 5.7601698,5.7601698 0 0 1 5.7602,5.76017 v 23.04068 a 5.7601698,5.7601698 0 0 1 -5.7602,5.76017 h -92.1627 a 5.7601698,5.7601698 0 0 1 -5.7602,-5.76017 v -23.04068 a 5.7601698,5.7601698 0 0 1 5.7602,-5.76017 m 0,46.08136 h 92.1627 a 5.7601698,5.7601698 0 0 1 5.7602,5.76017 v 23.04068 a 5.7601698,5.7601698 0 0 1 -5.7602,5.76017 h -92.1627 a 5.7601698,5.7601698 0 0 1 -5.7602,-5.76017 v -23.04068 a 5.7601698,5.7601698 0 0 1 5.7602,-5.76017 m 28.8008,-69.12204 h 5.7602 V 473.3672 h -5.7602 z m 0,46.08136 h 5.7602 v -11.52034 h -5.7602 z m 0,46.08136 h 5.7602 v -11.52034 h -5.7602 z M 1170.733,473.3672 v 11.52034 h 11.5204 V 473.3672 Z m 0,46.08136 v 11.52034 h 11.5204 v -11.52034 z m 0,46.08136 v 11.52034 h 11.5204 v -11.52034 z"
       id="path1-6"
       style="fill:#e8effc;fill-opacity:1;stroke-width:5.76017" />
    <path
       id="rect1-3-6-4"
       style="fill:#15213a;fill-opacity:1;stroke-width:0.829198"
       d="m 1607.3515,606.35509 -493.3561,-67.8434 v 67.84341 h 493.3561 z"
       sodipodi:nodetypes="ccccc" />
    <g
       id="g1"
       style="fill:#050b18;fill-opacity:1">
      <rect
         style="fill:#050b18;stroke-width:0.829198;fill-opacity:1"
         id="rect1-9"
         width="493.35614"
         height="67.843407"
         x="127.28313"
         y="674.19843"
         ry="0"
         inkscape:export-filename="integrate-code.svg"
         inkscape:export-xdpi="96"
         inkscape:export-ydpi="96" />
      <path
         id="rect1-3-6-2"
         style="fill:#050b18;stroke-width:0.829198;fill-opacity:1"
         d="m 127.28318,674.19844 493.3561,-67.8434 v 67.8434 z"
         sodipodi:nodetypes="ccccc" />
      <path
         id="rect1-3-6-2-1"
         style="fill:#050b18;fill-opacity:1;stroke-width:0.829198"
         d="m 1113.9954,674.19844 -493.35612,-67.8434 v 67.8434 z"
         sodipodi:nodetypes="ccccc" />
      <path
         id="rect1-3-6-2-1-6"
         style="fill:#050b18;fill-opacity:1;stroke-width:0.829198"
         d="m 1607.3515,742.04191 -493.3561,-67.8434 v 67.8434 z"
         sodipodi:nodetypes="ccccc" />
      <path
         id="rect1-3-6-2-1-2"
         style="fill:#050b18;fill-opacity:1;stroke-width:0.829198"
         d="m 620.63923,742.04182 -493.3561,-67.8434 v 67.8434 z"
         sodipodi:nodetypes="ccccc" />
    </g>
    <path
       d="m 342.819,516.31221 3.85571,11.27052 q -11.76485,3.65798 -16.21374,13.14895 -4.44889,9.3921 -4.44889,21.55241 v 20.4649 q 0,9.88642 -4.05344,17.99329 -3.95457,8.00801 -12.65462,12.75349 -8.60119,4.74549 -22.63992,4.74549 v -12.06144 q 11.17166,0 16.01601,-6.32732 4.94322,-6.32731 4.94322,-17.10351 v -20.4649 q 0,-10.38075 3.16365,-19.3774 3.26252,-9.09551 10.87507,-15.91714 7.71141,-6.9205 21.15695,-10.67734 z m 3.85571,182.70114 -3.85571,11.36939 q -13.44554,-3.8557 -21.15695,-10.67734 -7.61255,-6.82163 -10.87507,-15.91714 -3.16365,-8.99665 -3.16365,-19.3774 v -20.36603 q 0,-7.21709 -2.17502,-12.4569 -2.17501,-5.23981 -6.82163,-8.10687 -4.54776,-2.96593 -11.96258,-2.96593 v -12.06144 q 14.03873,0 22.63992,4.74549 8.70005,4.74548 12.65462,12.85235 4.05344,8.00801 4.05344,17.9933 v 20.36603 q 0,8.10687 1.87842,15.02737 1.97728,6.9205 6.42618,11.96258 4.54775,5.14094 12.35803,7.61254 z m 54.37534,-171.43062 3.85571,-11.27052 q 13.5444,3.75684 21.15695,10.67734 7.71141,6.82163 10.87507,15.91714 3.16365,8.99665 3.16365,19.3774 v 20.4649 q 0,7.11822 2.17502,12.45689 2.17501,5.23981 6.72277,8.10687 4.64662,2.86707 12.06144,2.86707 v 11.17166 q -13.93986,0 -22.63992,-4.44889 -8.70005,-4.54776 -12.75349,-12.35804 -3.95457,-7.90914 -3.95457,-17.79556 v -20.4649 q 0,-8.10687 -1.87842,-15.02737 -1.87842,-7.01936 -6.42617,-12.06144 -4.4489,-5.14094 -12.35804,-7.61255 z m 3.85571,182.80001 -3.85571,-11.36939 q 7.81028,-2.4716 12.25917,-7.61254 4.54776,-5.04208 6.42618,-11.96258 1.97728,-6.9205 1.97728,-15.02737 v -20.36603 q 0,-9.98529 3.95457,-17.79557 4.05344,-7.81028 12.75349,-12.25917 8.70006,-4.54775 22.63992,-4.54775 v 11.07279 q -11.0728,0 -16.01601,6.42618 -4.94322,6.32731 -4.94322,17.10352 v 20.36603 q 0,10.38075 -3.16365,19.3774 -3.16366,9.09551 -10.87507,15.91714 -7.61255,6.82164 -21.15695,10.67734 z"
       id="text3"
       style="font-size:202.474px;font-family:Roboto;-inkscape-font-specification:Roboto;text-align:center;text-anchor:middle;fill:#e8effc;stroke-width:3.16365"
       aria-label="{ }" />
    <rect
       style="fill:#15213a;stroke-width:0.829198;fill-opacity:1"
       id="rect1-9-2-4-0"
       width="493.35614"
       height="67.843407"
       x="1113.9954"
       y="606.3551"
       ry="0" />
  </g>
</svg>
