<?xml version="1.0" encoding="UTF-8" standalone="no"?>
<!-- Uploaded to: SVG Repo, www.svgrepo.com, Generator: SVG Repo Mixer Tools -->

<svg
   width="800"
   height="700"
   viewBox="0 0 1024 896"
   class="icon"
   version="1.1"
   id="svg2"
   sodipodi:docname="globe.svg"
   inkscape:version="1.4.3 (0d15f75042, 2025-12-25)"
   xmlns:inkscape="http://www.inkscape.org/namespaces/inkscape"
   xmlns:sodipodi="http://sodipodi.sourceforge.net/DTD/sodipodi-0.dtd"
   xmlns="http://www.w3.org/2000/svg"
   xmlns:svg="http://www.w3.org/2000/svg">
  <defs
     id="defs2" />
  <sodipodi:namedview
     id="namedview2"
     pagecolor="#505050"
     bordercolor="#eeeeee"
     borderopacity="1"
     inkscape:showpageshadow="0"
     inkscape:pageopacity="0"
     inkscape:pagecheckerboard="0"
     inkscape:deskcolor="#505050"
     inkscape:zoom="1.5416543"
     inkscape:cx="135.89298"
     inkscape:cy="209.83953"
     inkscape:window-width="2752"
     inkscape:window-height="1124"
     inkscape:window-x="0"
     inkscape:window-y="0"
     inkscape:window-maximized="1"
     inkscape:current-layer="svg2" />
  <g
     id="g2"
     transform="translate(0,130.56)">
    <path
       d="m 960,610.56 c 0,249.408 -203.2,448 -448,448 -244.77867,0 -448,-198.592 -448,-448 C 64,402.2147 202.58251,229.33008 393.60375,178.04993 431.25205,167.94314 470.9373,162.56 512,162.56 c 249.408,0 448,198.592 448,448"
       fill="#2196F3"
       id="path1"
       style="fill:#698dd8;fill-opacity:1"
       sodipodi:nodetypes="cssssc" />
    <path
       d="m 507.52,816.64 c 0,-8.96 -4.48,-13.44 -13.44,-17.92 -26.88,-8.96 -53.76,-8.96 -76.16,-31.38133 -4.48,-8.96 -4.48,-17.92 -8.96,-26.88 -8.96,-8.96 -31.36,-13.44 -44.8,-17.92 h -89.6 c -13.44,-4.48 -22.4,-22.4 -31.36,-35.84 0,-4.48 0,-13.46134 -8.96,-13.46134 -8.96,-4.45866 -17.92,4.50134 -26.88,0 -4.48,-4.45866 -4.48,-8.96 -4.48,-13.41866 0,-13.46134 8.96,-26.90134 17.92,-35.86134 13.44,-8.96 26.88,4.48 40.32,4.48 4.48,0 4.48,0 8.96,4.48 13.44,4.48 17.92,22.4 17.92,35.86134 v 8.96 c 0,4.48 4.48,4.48 8.96,4.48 4.48,-22.4 4.48,-44.82134 8.96,-67.2 0,-26.88 26.88,-53.78134 49.28,-62.72 8.96,-4.45867 13.44,4.50133 22.4,0 26.88,-8.96 94.08,-35.84 80.64,-71.65867 -8.96,-31.38133 -35.84,-62.69867 -71.68,-58.24 -8.96,4.50133 -13.44,8.96 -22.4,13.46133 -13.44,8.96 -40.32,35.84 -53.76,35.84 -22.4,-4.48 -22.4,-35.84 -17.92,-49.30133 4.48,-17.92 44.8,-76.13867 71.68,-67.17867 l 17.92,17.92 c 8.96,4.48 22.4,4.48 35.84,4.48 4.48,0 8.96,0 13.44,-4.48 4.48,-4.48 4.48,-4.48 4.48,-8.96 0,-13.44 -13.44,-26.90133 -22.4,-35.86133 -8.96,-8.96 -22.4,-17.92 -35.84,-22.37867 -44.8,-13.46133 -116.48,4.45867 -152.32,35.84 -35.84,31.36 -62.72,85.12 -80.64,129.92 -8.96,26.88 -17.92,62.69867 -22.4,94.08 -4.48,22.4 -8.96,40.32 4.48,62.69867 13.44,26.88 40.32,53.78133 67.2,71.68 17.92,13.44 53.76,13.44 71.68,35.84 13.44,17.94133 8.96,40.32 8.96,62.72 0,26.88 17.92,49.28 26.88,71.65867 4.48,13.46133 8.96,31.38133 13.44,44.82133 0,4.48 4.48,31.36 4.48,35.84 26.88,13.44 49.28,26.9013 80.64,35.8613 4.48,0 22.4,-26.9013 22.4,-31.3813 13.44,-13.44 22.4,-31.36 35.84,-40.32 8.96,-4.48 17.92,-8.96 26.88,-17.9413 8.96,-8.96003 13.44,-26.88003 17.92,-40.32003 C 507.52,848 512,830.08 507.52,816.64 m 8.96,-412.16 c 4.48,0 8.96,-4.48 17.92,-8.96 13.44,-8.96 26.90133,-22.4 40.32,-31.36 13.46133,-8.96 26.90133,-22.4 35.86133,-31.36 13.44,-8.96 22.4,-26.88 26.88,-40.34133 4.48,-8.96 17.94134,-26.88 13.44,-40.32 -4.48,-8.96 -26.88,-13.44 -35.84,-17.92 C 579.2,225.25867 547.84,220.8 512,220.8 c -13.44,0 -31.36,4.45867 -35.84,17.92 -4.48,22.4 13.44,17.92 31.36,22.4 0,0 4.48,35.84 4.48,40.32 4.48,22.42133 -8.96,35.84 -8.96,58.24 0,13.44 0,35.84 8.96,44.8 z m 376.32,313.6 c 4.50133,-8.96 4.50133,-22.4 8.96,-31.36 4.50133,-22.42133 4.50133,-44.8 4.50133,-67.2 0,-44.8 -4.50133,-89.57867 -17.92,-129.92 C 879.38133,476.16 874.88,462.72 870.4,449.25867 861.44,426.88 848,404.45867 830.08,386.56 c -17.92,-22.4 -40.34133,-85.12 -80.64,-67.2 -13.44,4.50133 -22.4,22.42133 -31.36,31.38133 l -26.88,40.32 c -4.50133,4.48 -8.96,13.44 -4.50133,17.92 0,4.48 4.50133,4.48 8.96,4.48 8.96,4.50134 13.46133,4.50134 22.42133,8.96 4.48,0 8.96,4.50134 4.48,8.96 0,0 0,4.50134 -4.48,4.50134 -22.42133,22.4 -44.8,40.32 -67.2,62.69866 -4.48,4.48 -8.96,13.44 -8.96,17.92 0,4.48 4.48,4.48 4.48,8.96 0,4.50134 -4.48,4.50134 -8.96,8.96 -8.96,4.50134 -17.92,8.96 -22.4,13.46134 -4.48,8.96 0,22.4 -4.48,31.36 -4.48,22.4 -17.94133,40.32 -26.90133,62.72 -8.96,13.41866 -13.41867,26.88 -22.37867,40.32 0,17.92 -4.50133,31.36 4.45867,44.8 22.42133,31.36 62.72,13.44 94.08,26.90133 8.96,4.45867 17.92,4.45867 22.42133,13.41867 13.41867,13.46133 13.41867,35.86133 17.92,49.30133 4.45867,17.92 8.96,35.84 17.92,53.76 4.48,22.4213 13.44,44.8213 17.92,62.72 40.34133,-31.36 76.16,-67.17867 103.04,-112 26.88,-31.424 40.34133,-67.24267 53.76,-103.104"
       fill="#CDDC39"
       id="path2"
       style="fill:#506fb2;fill-opacity:1" />
  </g>
  <circle
     style="fill:#b7cefd;fill-opacity:1;stroke-width:1.28"
     id="path3"
     cx="246.70256"
     cy="614.42181"
     r="37.423252" />
  <circle
     style="fill:#b7cefd;fill-opacity:1;stroke-width:1.28"
     id="path3-0"
     cx="395.36954"
     cy="615.90527"
     r="37.423252" />
  <circle
     style="fill:#b7cefd;fill-opacity:1;stroke-width:1.28"
     id="path3-0-2"
     cx="187.79948"
     cy="714.18213"
     r="37.423252" />
  <circle
     style="fill:#b7cefd;fill-opacity:1;stroke-width:1.28"
     id="path3-0-2-4-4"
     cx="671.44269"
     cy="800.9201"
     r="37.423252" />
  <circle
     style="fill:#b7cefd;fill-opacity:1;stroke-width:1.28"
     id="path3-0-2-4-4-9"
     cx="719.60992"
     cy="687.13733"
     r="37.423252" />
  <circle
     style="fill:#b7cefd;fill-opacity:1;stroke-width:1.28"
     id="path3-0-2-4-4-9-2"
     cx="801.2785"
     cy="875.5199"
     r="37.423252" />
  <circle
     style="fill:#b7cefd;fill-opacity:1;stroke-width:1.28"
     id="path3-0-2-4-4-9-2-7"
     cx="866.38727"
     cy="696.5354"
     r="37.423252" />
  <circle
     style="fill:#b7cefd;fill-opacity:1;stroke-width:1.28"
     id="path3-0-2-4-4-9-2-7-5"
     cx="600.03809"
     cy="423.01855"
     r="37.423252" />
  <path
     id="path4"
     style="fill:#e8effc;fill-opacity:1;stroke-width:0.655693"
     d="m 329.31637,509.82568 c -48.94904,1.9e-4 -93.26343,62.06018 -89.33949,109.50811 3.9478,-47.76794 52.06181,-89.61829 89.33949,-89.61878 37.27767,4.9e-4 74.16459,42.55253 78.11239,90.32047 3.92385,-47.44689 -29.16262,-110.20961 -78.11239,-110.2098 z"
     sodipodi:nodetypes="ccccc" />
  <path
     id="path4-06"
     style="fill:#e8effc;fill-opacity:1;stroke-width:0.655687"
     d="m 792.57903,604.65466 c -48.94798,1.9e-4 -75.18973,40.37417 -71.26585,87.8221 3.94772,-47.76794 33.98897,-67.93228 71.26585,-67.93277 37.27687,4.9e-4 74.88584,28.81806 78.83356,76.586 3.92376,-47.44689 -29.88485,-96.47514 -78.83356,-96.47533 z"
     sodipodi:nodetypes="ccccc" />
  <path
     id="path4-06-62"
     style="fill:#e8effc;fill-opacity:1;stroke-width:0.655687"
     d="m 916.91036,625.70417 c -48.94798,1.9e-4 -48.72749,19.32466 -44.80361,66.77259 3.94772,-47.76794 7.52673,-46.88277 44.80361,-46.88326 37.27687,4.9e-4 37.46388,8.24222 41.41168,56.01016 3.9237,-47.44689 7.53703,-75.8993 -41.41168,-75.89949 z"
     sodipodi:nodetypes="ccccc" />
  <path
     id="path4-06-6"
     style="fill:#e8effc;fill-opacity:1;stroke-width:0.655687"
     d="m 773.30646,755.49052 c -44.81776,-19.67926 -85.07747,6.73747 -100.56103,51.75926 22.8196,-42.15004 58.43296,-48.53486 92.56457,-33.54822 34.1312,14.98754 56.98062,56.49405 41.39023,101.81844 22.66859,-41.86572 11.4245,-100.34958 -33.39377,-120.02948 z"
     sodipodi:nodetypes="ccccc" />
  <path
     id="path4-06-6-5"
     style="fill:#e8effc;fill-opacity:1;stroke-width:0.529071"
     d="m 630.64789,723.00791 c -13.83797,38.79233 7.35884,72.35244 42.09754,84.24187 -32.74014,-18.22899 -38.53892,-48.41163 -28.0007,-77.95448 10.5389,-29.54253 41.5962,-50.23862 76.56845,-38.26692 -32.51936,-18.10852 -76.82686,-6.81326 -90.66529,31.97953 z"
     sodipodi:nodetypes="ccccc" />
  <path
     id="path4-8"
     style="fill:#e8effc;fill-opacity:1;stroke-width:0.655693"
     d="m 127.1939,622.7842 c -48.94904,1.9e-4 -66.745371,52.2193 -62.821431,99.66723 3.9478,-47.76794 25.543751,-79.77741 62.821431,-79.7779 37.27767,4.9e-4 51.59855,26.0487 55.54635,73.81664 3.92385,-47.44689 -6.59658,-93.70578 -55.54635,-93.70597 z"
     sodipodi:nodetypes="ccccc" />
  <path
     id="path4-0"
     style="fill:#e8effc;fill-opacity:1;stroke-width:0.655693"
     d="m 549.92024,548.52719 c -75.10492,-8.84666 -145.85778,23.35867 -141.93384,70.8066 3.59371,-48.08984 94.93642,-59.75291 141.93384,-50.91727 64.37429,5.71172 167.44514,76.2923 171.39294,124.06024 3.92385,-47.44689 -84.35179,-131.47577 -171.39294,-143.94957 z"
     sodipodi:nodetypes="ccccc" />
  <path
     id="path4-9"
     style="fill:#e8effc;fill-opacity:1;stroke-width:0.655693"
     d="M 368.82654,418.65162 C 285.73018,477.19412 220.48057,579.18417 244.93205,620.03548 227.40391,575.42465 299.4749,486.73777 377.6,436.50133 458.77107,390.19673 575.1683,382.23517 599.78235,423.36314 582.37434,379.051 432.65492,377.34949 368.82654,418.65162 Z"
     sodipodi:nodetypes="ccccc" />
  <path
     id="path4-9-4"
     style="fill:#e8effc;fill-opacity:1;stroke-width:0.655693"
     d="m 681.52965,311.50428 c -55.97053,5.70365 -106.19878,71.00755 -81.7473,111.85886 -17.52814,-44.61083 37.82612,-85.87426 90.52076,-94.00915 83.34017,6.84533 113.60015,52.10259 138.2142,93.23056 C 811.1093,378.27241 787.45704,312.30116 681.52965,311.50428 Z"
     sodipodi:nodetypes="ccccc" />
  <path
     id="path4-9-4-2"
     style="fill:#e8effc;fill-opacity:1;stroke-width:0.655693"
     d="M 780.17137,464.51368 C 759.01117,401.2715 601.9042,375.80053 599.78235,423.36314 c 13.83662,-47.22864 155.24464,14.53234 155.29972,41.13221 34.53002,74.2477 -31.63014,180.09836 -33.76889,227.98141 9.90621,-46.56685 80.96998,-139.74873 58.85819,-227.96308 z"
     sodipodi:nodetypes="ccccc" />
  <path
     id="path4-9-1"
     style="fill:#e8effc;fill-opacity:1;stroke-width:0.655693"
     d="M 425.98657,271.18623 C 324.70622,262.55374 233.90566,347.65803 226.34754,394.66419 241.6248,349.23329 329.09033,278.70237 421.2214,290.4963 513.15528,307.25998 607.39397,376.04058 599.78235,423.36314 614.95945,378.2382 501.42437,280.62372 425.98657,271.18623 Z"
     sodipodi:nodetypes="ccccc" />
  <path
     id="path4-2"
     style="fill:#e8effc;fill-opacity:1;stroke-width:0.655693"
     d="m 132.2847,586.67505 c -38.358806,30.40742 17.90579,95.0701 50.45555,129.81512 C 156.16038,676.60443 115.42764,625.4187 144.64,602.26133 c 29.21295,-23.1566 67.52479,-17.20682 100.29205,17.77415 -26.3992,-39.61927 -74.28774,-63.76799 -112.64735,-33.36043 z"
     sodipodi:nodetypes="ccccc" />
  <path
     id="path4-2-5"
     style="fill:#e8effc;fill-opacity:1;stroke-width:0.655693"
     d="m 319.03477,730.6258 c -36.8002,-32.27622 -107.95799,-52.39455 -136.29452,-14.13563 34.46554,-33.30899 95.15393,4.50845 123.17975,29.0885 28.02517,24.58078 39.68952,122.04436 11.15993,160.55961 34.23584,-33.08341 38.75532,-143.23549 1.95484,-175.51248 z"
     sodipodi:nodetypes="ccccc" />
  <circle
     style="fill:#28395f;fill-opacity:1;stroke-width:1.28"
     id="path5"
     cx="175.83234"
     cy="154.78442"
     r="115.79202" />
  <circle
     style="fill:#506fb2;fill-opacity:1;stroke-width:0.352665"
     id="path5-0"
     cx="145.50189"
     cy="104.82092"
     r="31.902985" />
  <circle
     style="fill:#506fb2;fill-opacity:1;stroke-width:0.352665"
     id="path5-0-2"
     cx="232.53967"
     cy="148.86133"
     r="31.902985" />
  <circle
     style="fill:#506fb2;fill-opacity:1;stroke-width:0.178281"
     id="path5-0-2-9"
     cx="130.54095"
     cy="181.94704"
     r="16.127722" />
  <circle
     style="fill:#506fb2;fill-opacity:1;stroke-width:0.178281"
     id="path5-0-2-9-8"
     cx="184.50897"
     cy="220.26514"
     r="16.127722" />
  <circle
     style="fill:#e8effc;fill-opacity:1;stroke-width:0.178281"
     id="path5-0-2-9-8-3"
     cx="415.73166"
     cy="76.14814"
     r="16.127722" />
  <circle
     style="fill:#e8effc;fill-opacity:1;stroke-width:0.178281"
     id="path5-0-2-9-8-3-1"
     cx="576.0423"
     cy="166.85707"
     r="16.127722" />
  <circle
     style="fill:#e8effc;fill-opacity:1;stroke-width:0.178281"
     id="path5-0-2-9-8-3-1-9"
     cx="133.88773"
     cy="335.23227"
     r="16.127722" />
  <circle
     style="fill:#e8effc;fill-opacity:1;stroke-width:0.178281"
     id="path5-0-2-9-8-3-1-3"
     cx="693.07562"
     cy="54.180893"
     r="16.127722" />
  <circle
     style="fill:#e8effc;fill-opacity:1;stroke-width:0.178281"
     id="path5-0-2-9-8-3-1-3-0"
     cx="826.26489"
     cy="208.30176"
     r="16.127722" />
  <circle
     style="fill:#e8effc;fill-opacity:1;stroke-width:0.178281"
     id="path5-0-2-9-8-3-1-3-0-9"
     cx="891.2677"
     cy="100.33005"
     r="16.127722" />
  <circle
     style="fill:#e8effc;fill-opacity:1;stroke-width:0.178281"
     id="path5-0-2-9-8-3-1-3-0-9-9"
     cx="943.87225"
     cy="323.53647"
     r="16.127722" />
</svg>
