<?xml version="1.0" encoding="UTF-8" standalone="no"?>
<!-- Created with Inkscape (http://www.inkscape.org/) -->

<svg
   width="1920"
   height="1080"
   viewBox="0 0 1920 1080"
   version="1.1"
   id="svg1"
   inkscape:version="1.4.3 (0d15f75042, 2025-12-25)"
   sodipodi:docname="hero-bg-path.svg"
   xmlns:inkscape="http://www.inkscape.org/namespaces/inkscape"
   xmlns:sodipodi="http://sodipodi.sourceforge.net/DTD/sodipodi-0.dtd"
   xmlns="http://www.w3.org/2000/svg"
   xmlns:svg="http://www.w3.org/2000/svg">
  <sodipodi:namedview
     id="namedview1"
     pagecolor="#505050"
     bordercolor="#eeeeee"
     borderopacity="1"
     inkscape:showpageshadow="0"
     inkscape:pageopacity="0"
     inkscape:pagecheckerboard="0"
     inkscape:deskcolor="#505050"
     inkscape:document-units="px"
     inkscape:zoom="0.57581006"
     inkscape:cx="962.99116"
     inkscape:cy="362.96691"
     inkscape:window-width="2752"
     inkscape:window-height="1124"
     inkscape:window-x="0"
     inkscape:window-y="0"
     inkscape:window-maximized="1"
     inkscape:current-layer="layer1" />
  <defs
     id="defs1" />
  <g
     inkscape:label="Layer 1"
     inkscape:groupmode="layer"
     id="layer1">
    <path
       style="font-weight:500;font-size:85.3901px;font-family:Roboto;-inkscape-font-specification:'Roboto Medium';text-align:center;text-anchor:middle;fill:#e8effc;stroke-width:1.33422"
       d="m 137.11994,267.29347 v 60.70702 h -10.46529 v -60.70702 z m 24.76647,26.55932 v 8.29718 H 134.4515 v -8.29718 z m 3.46063,-26.55932 v 8.33887 H 134.4515 v -8.33887 z m 18.09537,-3.33556 v 64.04258 h -10.09005 v -64.04258 z m 36.44088,54.9949 V 297.4385 q 0,-2.41827 -0.87558,-4.16943 -0.87558,-1.75117 -2.66844,-2.71014 -1.75116,-0.95897 -4.4196,-0.95897 -2.45997,0 -4.25283,0.83389 -1.79286,0.83389 -2.79352,2.25149 -1.00067,1.41761 -1.00067,3.21047 H 193.866 q 0,-2.66844 1.29252,-5.1701 1.29253,-2.50166 3.7525,-4.4613 2.45997,-1.95964 5.87891,-3.08538 3.41894,-1.12575 7.67176,-1.12575 5.08672,0 9.00599,1.70947 3.96097,1.70947 6.21246,5.1701 2.29319,3.41894 2.29319,8.58904 v 20.055 q 0,3.08539 0.41695,5.54536 0.45864,2.41827 1.29252,4.21113 v 0.66711 h -10.29851 q -0.7088,-1.62608 -1.12575,-4.12775 -0.37525,-2.54335 -0.37525,-4.91993 z m 1.45931,-18.38723 0.0834,6.21247 h -7.21313 q -2.79353,0 -4.91994,0.54202 -2.12641,0.50034 -3.54402,1.501 -1.41761,1.00067 -2.12642,2.41828 -0.7088,1.4176 -0.7088,3.21046 0,1.79286 0.83389,3.29386 0.83388,1.4593 2.41827,2.29319 1.62608,0.83389 3.91927,0.83389 3.08539,0 5.37858,-1.25083 2.33488,-1.29253 3.6691,-3.12708 1.33422,-1.87625 1.41761,-3.54402 l 3.25217,4.46129 q -0.50034,1.70947 -1.70947,3.66911 -1.20914,1.95964 -3.16878,3.7525 -1.91794,1.75116 -4.62807,2.87691 -2.66844,1.12575 -6.17077,1.12575 -4.41961,0 -7.88024,-1.75117 -3.46064,-1.79286 -5.42027,-4.79485 -1.95964,-3.04369 -1.95964,-6.87958 0,-3.58571 1.33422,-6.33754 1.37592,-2.79353 4.00266,-4.66977 2.66844,-1.87625 6.50433,-2.83522 3.83588,-1.00067 8.75582,-1.00067 z m 29.26946,-36.60767 v 64.04258 h -10.09004 v -64.04258 z m 28.01863,18.92925 -19.63806,21.76447 -10.75715,11.00732 -2.62674,-8.50565 8.1304,-10.04835 12.75848,-14.21779 z m -9.96496,45.11333 -14.63473,-21.18075 6.33755,-7.04635 19.92992,28.2271 z m 35.39853,0.83389 q -5.00333,0 -9.04768,-1.62609 -4.00266,-1.66777 -6.83788,-4.62807 -2.79353,-2.9603 -4.29452,-6.96296 -1.501,-4.00266 -1.501,-8.63074 v -1.66778 q 0,-5.29518 1.54269,-9.5897 1.54269,-4.29453 4.29452,-7.33822 2.75183,-3.08538 6.50433,-4.71146 3.75249,-1.62608 8.1304,-1.62608 4.83655,0 8.46396,1.62608 3.62741,1.62608 6.00399,4.58638 2.41828,2.91861 3.58572,6.96296 1.20914,4.04436 1.20914,8.9226 v 4.29452 h -34.85651 v -7.21313 h 24.93324 v -0.79219 q -0.0834,-2.71013 -1.08405,-5.08671 -0.95897,-2.37658 -2.9603,-3.83589 -2.00133,-1.4593 -5.33688,-1.4593 -2.50167,0 -4.4613,1.08405 -1.91794,1.04236 -3.21047,3.04369 -1.29253,2.00133 -2.00133,4.83655 -0.66711,2.79353 -0.66711,6.29585 v 1.66778 q 0,2.9603 0.79219,5.50366 0.83389,2.50166 2.41828,4.37791 1.58438,1.87625 3.83588,2.9603 2.2515,1.04236 5.12841,1.04236 3.62741,0 6.46263,-1.4593 2.83522,-1.45931 4.91994,-4.12775 l 5.29518,5.12841 q -1.4593,2.12641 -3.79419,4.08605 -2.33488,1.91794 -5.71213,3.12708 -3.33555,1.20914 -7.75515,1.20914 z m 51.15901,-13.05035 q 0,-1.50099 -0.7505,-2.71013 -0.7505,-1.25083 -2.87691,-2.2515 -2.08472,-1.00066 -6.17077,-1.83455 -3.58572,-0.79219 -6.58772,-1.87625 -2.9603,-1.12575 -5.08671,-2.71013 -2.12641,-1.58439 -3.29386,-3.7525 -1.16744,-2.16811 -1.16744,-5.00332 0,-2.75183 1.20914,-5.2118 1.20914,-2.45997 3.46063,-4.33622 2.2515,-1.87624 5.46197,-2.9603 3.25216,-1.08405 7.25482,-1.08405 5.67044,0 9.71479,1.91794 4.08605,1.87625 6.25416,5.12841 2.16811,3.21047 2.16811,7.25482 h -10.04835 q 0,-1.79286 -0.91728,-3.33555 -0.87558,-1.58439 -2.66844,-2.54336 -1.79286,-1.00066 -4.50299,-1.00066 -2.58505,0 -4.29452,0.83389 -1.66778,0.79219 -2.50167,2.08471 -0.79219,1.29253 -0.79219,2.83522 0,1.12575 0.41694,2.04303 0.45864,0.87558 1.501,1.62608 1.04236,0.7088 2.83522,1.33422 1.83455,0.62541 4.58638,1.20914 5.17011,1.08405 8.88091,2.79352 3.75249,1.66777 5.75382,4.33622 2.00133,2.62674 2.00133,6.6711 0,3.00199 -1.29252,5.50366 -1.25084,2.45996 -3.66911,4.29452 -2.41827,1.79286 -5.79552,2.79352 -3.33555,1.00067 -7.50499,1.00067 -6.12907,0 -10.3819,-2.16811 -4.25283,-2.2098 -6.46263,-5.62874 -2.16811,-3.46064 -2.16811,-7.17144 h 9.71479 q 0.16678,2.79353 1.5427,4.4613 1.41761,1.62608 3.50233,2.37658 2.12641,0.70881 4.37791,0.70881 2.71013,0 4.54468,-0.70881 1.83456,-0.7505 2.79353,-2.00133 0.95897,-1.29253 0.95897,-2.91861 z"
       id="text1"
       aria-label="Flakes" />
    <path
       style="font-weight:500;font-size:95.2424px;font-family:Roboto;-inkscape-font-specification:'Roboto Medium';text-align:center;text-anchor:middle;fill:#e8effc;stroke-width:1.48816"
       d="m 236.92049,493.86008 h -14.46308 l 0.093,-9.25451 h 14.37007 q 6.27818,0 10.51014,-2.7438 4.27847,-2.7438 6.4177,-7.85936 2.18574,-5.11556 2.18574,-12.18433 v -3.6739 q 0,-5.4876 -1.25563,-9.71956 -1.20914,-4.23197 -3.6274,-7.11528 -2.37176,-2.88332 -5.85964,-4.37148 -3.44138,-1.48816 -7.95237,-1.48816 h -15.16065 v -9.30102 h 15.16065 q 6.74324,0 12.32385,2.27875 5.58061,2.23224 9.62655,6.46421 4.09244,4.23196 6.27818,10.1381 2.18574,5.90615 2.18574,13.20745 v 3.58089 q 0,7.3013 -2.18574,13.20744 -2.18574,5.90615 -6.27818,10.13811 -4.09245,4.18545 -9.76607,6.4642 -5.62711,2.23225 -12.60287,2.23225 z m -7.99888,-67.7114 v 67.7114 h -11.67277 v -67.7114 z m 71.57132,68.6415 q -5.58061,0 -10.0916,-1.8137 -4.46449,-1.8602 -7.62684,-5.16206 -3.11584,-3.30186 -4.79002,-7.76635 -1.67418,-4.46449 -1.67418,-9.62655 v -1.86021 q 0,-5.90614 1.72069,-10.69616 1.72068,-4.79003 4.79002,-8.1849 3.06933,-3.44137 7.25479,-5.25507 4.18546,-1.8137 9.06849,-1.8137 5.39459,0 9.44053,1.8137 4.04594,1.8137 6.69673,5.11556 2.6973,3.25535 3.99944,7.76635 1.34865,4.51099 1.34865,9.95208 v 4.79003 h -38.87825 v -8.04538 h 27.81004 v -0.8836 q -0.093,-3.02283 -1.20913,-5.67362 -1.06962,-2.65079 -3.30186,-4.27847 -2.23225,-1.62767 -5.95265,-1.62767 -2.79031,0 -4.97605,1.20913 -2.13923,1.16262 -3.58089,3.39487 -1.44165,2.23224 -2.23224,5.39459 -0.74408,3.11584 -0.74408,7.02226 v 1.86021 q 0,3.30186 0.88359,6.13867 0.93011,2.7903 2.6973,4.88303 1.76719,2.09273 4.27847,3.30186 2.51127,1.16263 5.72012,1.16263 4.04594,0 7.20829,-1.62768 3.16234,-1.62768 5.4876,-4.604 l 5.90614,5.72012 q -1.62768,2.37176 -4.23196,4.5575 -2.60428,2.13923 -6.3712,3.48788 -3.7204,1.34865 -8.64994,1.34865 z m 40.08737,-41.66855 v 40.73845 h -11.20772 v -50.3185 h 10.69617 z m 15.39318,-9.90558 -0.093,10.41713 q -1.02311,-0.18602 -2.23224,-0.27903 -1.16263,-0.093 -2.32525,-0.093 -2.88332,0 -5.06906,0.83709 -2.18574,0.79059 -3.6739,2.32526 -1.44166,1.48816 -2.23224,3.62739 -0.79059,2.13924 -0.9301,4.79003 l -2.55778,0.18602 q 0,-4.74352 0.9301,-8.78946 0.9301,-4.04594 2.7903,-7.11528 1.90671,-3.06933 4.74352,-4.79002 2.88332,-1.72069 6.65023,-1.72069 1.02311,0 2.18574,0.18602 1.20913,0.18602 1.81369,0.41855 z m 19.02058,0.32553 v 50.3185 h -11.25423 v -50.3185 z m -11.99831,-13.20744 q 0,-2.55778 1.67418,-4.23196 1.72069,-1.72069 4.74352,-1.72069 2.97633,0 4.69702,1.72069 1.72068,1.67418 1.72068,4.23196 0,2.51127 -1.72068,4.18546 -1.72069,1.67418 -4.69702,1.67418 -3.02283,0 -4.74352,-1.67418 -1.67418,-1.67419 -1.67418,-4.18546 z m 40.64544,54.64347 12.32385,-41.43603 h 11.62627 l -17.48591,50.3185 h -7.2548 z m -9.44053,-41.43603 12.55637,41.62205 0.60457,8.69645 h -7.2548 l -17.57892,-50.3185 z m 67.99043,40.22689 v -23.99662 q 0,-2.69729 -0.97661,-4.6505 -0.9766,-1.95322 -2.97632,-3.02283 -1.95321,-1.06962 -4.92954,-1.06962 -2.7438,0 -4.74352,0.9301 -1.99972,0.9301 -3.11584,2.51128 -1.11612,1.58117 -1.11612,3.58089 h -11.16122 q 0,-2.97633 1.44166,-5.76663 1.44166,-2.79031 4.18546,-4.97605 2.7438,-2.18574 6.55721,-3.44137 3.81342,-1.25564 8.55694,-1.25564 5.67362,0 10.04509,1.90671 4.41799,1.90671 6.92926,5.76663 2.55778,3.81341 2.55778,9.58004 v 22.36895 q 0,3.44137 0.46505,6.18517 0.51156,2.6973 1.44166,4.69702 v 0.74408 h -11.48676 q -0.79058,-1.8137 -1.25563,-4.60401 -0.41855,-2.83681 -0.41855,-5.4876 z m 1.62768,-20.50873 0.093,6.92925 h -8.04538 q -3.11584,0 -5.4876,0.60457 -2.37176,0.55806 -3.95293,1.67418 -1.58117,1.11612 -2.37176,2.6973 -0.79059,1.58117 -0.79059,3.58089 0,1.99971 0.9301,3.6739 0.93011,1.62768 2.6973,2.55778 1.8137,0.9301 4.37148,0.9301 3.44137,0 5.99915,-1.39515 2.60429,-1.44166 4.09245,-3.48788 1.48816,-2.09273 1.58117,-3.95294 l 3.6274,4.97605 q -0.55806,1.90671 -1.90671,4.09244 -1.34865,2.18574 -3.53439,4.18546 -2.13923,1.95321 -5.16206,3.20885 -2.97633,1.25564 -6.88275,1.25564 -4.92954,0 -8.78946,-1.95321 -3.85992,-1.99972 -6.04566,-5.34809 -2.18574,-3.39487 -2.18574,-7.67334 0,-3.99943 1.48816,-7.06877 1.53467,-3.11584 4.46449,-5.20857 2.97632,-2.09273 7.25479,-3.16234 4.27847,-1.11612 9.76607,-1.11612 z m 44.41235,-19.71816 v 8.1849 h -28.36809 v -8.1849 z m -20.1832,-12.32384 h 11.20772 v 48.73732 q 0,2.32525 0.65108,3.58089 0.69757,1.20913 1.9067,1.62768 1.20914,0.41854 2.83681,0.41854 1.16263,0 2.23225,-0.13951 1.06961,-0.13952 1.72069,-0.27903 l 0.0465,8.55693 q -1.39515,0.41855 -3.25535,0.74408 -1.8137,0.32554 -4.18546,0.32554 -3.85992,0 -6.83625,-1.34865 -2.97632,-1.39515 -4.65051,-4.51099 -1.67418,-3.11584 -1.67418,-8.27791 z m 40.83146,12.32384 v 50.3185 h -11.25423 v -50.3185 z m -11.99831,-13.20744 q 0,-2.55778 1.67418,-4.23196 1.72069,-1.72069 4.74352,-1.72069 2.97632,0 4.69701,1.72069 1.72069,1.67418 1.72069,4.23196 0,2.51127 -1.72069,4.18546 -1.72069,1.67418 -4.69701,1.67418 -3.02283,0 -4.74352,-1.67418 -1.67418,-1.67419 -1.67418,-4.18546 z m 22.1364,38.92475 v -1.06962 q 0,-5.44109 1.58117,-10.0916 1.58117,-4.69701 4.5575,-8.13839 3.02283,-3.48788 7.3478,-5.39459 4.37148,-1.95321 9.85908,-1.95321 5.5341,0 9.85907,1.95321 4.37148,1.90671 7.39431,5.39459 3.02283,3.44138 4.604,8.13839 1.58118,4.65051 1.58118,10.0916 v 1.06962 q 0,5.44109 -1.58118,10.0916 -1.58117,4.65051 -4.604,8.13839 -3.02283,3.44138 -7.3478,5.39459 -4.32497,1.90671 -9.81257,1.90671 -5.53411,0 -9.90558,-1.90671 -4.32498,-1.95321 -7.34781,-5.39459 -3.02283,-3.48788 -4.604,-8.13839 -1.58117,-4.65051 -1.58117,-10.0916 z m 11.20772,-1.06962 v 1.06962 q 0,3.39487 0.69758,6.4177 0.69757,3.02283 2.18574,5.30158 1.48816,2.27875 3.81341,3.58089 2.32526,1.30214 5.53411,1.30214 3.11584,0 5.39459,-1.30214 2.32525,-1.30214 3.81341,-3.58089 1.48817,-2.27875 2.18574,-5.30158 0.74408,-3.02283 0.74408,-6.4177 v -1.06962 q 0,-3.34836 -0.74408,-6.32469 -0.69757,-3.02283 -2.23224,-5.34808 -1.48816,-2.32526 -3.81342,-3.6274 -2.27875,-1.34864 -5.44109,-1.34864 -3.16235,0 -5.4876,1.34864 -2.27875,1.30214 -3.76691,3.6274 -1.48817,2.32525 -2.18574,5.34808 -0.69758,2.97633 -0.69758,6.32469 z m 56.08514,-13.90502 v 39.57583 H 595.1026 v -50.3185 h 10.55665 z m -1.99972,12.55638 -3.6274,-0.0465 q 0.0465,-5.34808 1.48816,-9.81257 1.48817,-4.46449 4.09245,-7.67334 2.65079,-3.20885 6.32469,-4.92954 3.6739,-1.76719 8.1849,-1.76719 3.62739,0 6.55721,1.02311 2.97633,0.97661 5.06905,3.20885 2.13924,2.23225 3.25536,5.81314 1.11612,3.53438 1.11612,8.69645 v 32.50705 h -11.25423 v -32.55356 q 0,-3.62739 -1.06961,-5.72012 -1.02312,-2.13924 -3.02283,-3.02283 -1.95322,-0.9301 -4.88304,-0.9301 -2.88331,0 -5.16206,1.20913 -2.27875,1.20913 -3.85992,3.30186 -1.53467,2.09273 -2.37176,4.83653 -0.83709,2.7438 -0.83709,5.85964 z m 72.12936,13.39346 q 0,-1.67418 -0.83709,-3.02283 -0.83709,-1.39515 -3.20885,-2.51128 -2.32525,-1.11612 -6.88275,-2.04622 -3.99944,-0.8836 -7.3478,-2.09273 -3.30186,-1.25563 -5.67362,-3.02283 -2.37176,-1.76719 -3.6739,-4.18545 -1.30215,-2.41827 -1.30215,-5.58061 0,-3.06934 1.34865,-5.81314 1.34865,-2.7438 3.85992,-4.83653 2.51128,-2.09273 6.09217,-3.30186 3.62739,-1.20913 8.09188,-1.20913 6.32469,0 10.83568,2.13923 4.5575,2.09273 6.97577,5.72013 2.41826,3.58089 2.41826,8.09188 h -11.20772 q 0,-1.99972 -1.02312,-3.7204 -0.9766,-1.7672 -2.97632,-2.83681 -1.99972,-1.11613 -5.02255,-1.11613 -2.88331,0 -4.79002,0.93011 -1.86021,0.88359 -2.79031,2.32525 -0.88359,1.44166 -0.88359,3.16235 0,1.25563 0.46505,2.27874 0.51155,0.97661 1.67418,1.8137 1.16263,0.79059 3.16235,1.48816 2.04622,0.69758 5.11555,1.34865 5.76663,1.20913 9.90559,3.11584 4.18545,1.86021 6.4177,4.83653 2.23224,2.92982 2.23224,7.44081 0,3.34837 -1.44166,6.13867 -1.39515,2.7438 -4.09244,4.79003 -2.6973,1.99971 -6.46421,3.11584 -3.72041,1.11612 -8.37091,1.11612 -6.83625,0 -11.57977,-2.41827 -4.74352,-2.46476 -7.20829,-6.27818 -2.41826,-3.85992 -2.41826,-7.99887 h 10.83568 q 0.18602,3.11584 1.72069,4.97604 1.58117,1.8137 3.90643,2.65079 2.37176,0.79058 4.88303,0.79058 3.02283,0 5.06906,-0.79058 2.04622,-0.83709 3.11584,-2.23225 1.06961,-1.44165 1.06961,-3.25535 z"
       id="text2"
       aria-label="Derivations" />
    <path
       style="font-weight:500;font-size:91.6455px;font-family:Roboto;-inkscape-font-specification:'Roboto Medium';text-align:center;text-anchor:middle;fill:#e8effc;stroke-width:1.43196"
       d="m 87.35025,596.32057 v 65.15422 H 76.207804 v -65.15422 z m 20.45019,0 v 8.94976 H 55.936607 v -8.94976 z m 15.15515,25.95429 v 39.19993 h -10.78445 v -48.41818 h 10.29222 z m 14.81185,-9.53149 -0.0895,10.02373 q -0.98447,-0.179 -2.14794,-0.26849 -1.11872,-0.0895 -2.23744,-0.0895 -2.77442,0 -4.87761,0.80548 -2.1032,0.76073 -3.53516,2.23744 -1.38721,1.43196 -2.14794,3.4904 -0.76073,2.05844 -0.89498,4.60912 l -2.46118,0.179 q 0,-4.56438 0.89498,-8.45752 0.89497,-3.89314 2.68492,-6.84656 1.8347,-2.95342 4.56438,-4.60913 2.77442,-1.6557 6.39908,-1.6557 0.98447,0 2.10319,0.17899 1.16347,0.179 1.7452,0.40274 z m 18.30226,0.31324 v 48.41818 h -10.82921 v -48.41818 z m -11.54519,-12.70865 q 0,-2.46118 1.61096,-4.07214 1.6557,-1.6557 4.56437,-1.6557 2.86392,0 4.51963,1.6557 1.6557,1.61096 1.6557,4.07214 0,2.41643 -1.6557,4.02739 -1.65571,1.61096 -4.51963,1.61096 -2.90867,0 -4.56437,-1.61096 -1.61096,-1.61096 -1.61096,-4.02739 z m 39.11043,52.57982 11.85842,-39.87117 h 11.1872 l -16.82554,48.41818 h -6.98081 z m -9.08401,-39.87117 12.08218,40.05016 0.58173,8.36802 h -6.98081 l -16.91504,-48.41818 z m 50.34239,0 v 48.41818 h -10.82921 v -48.41818 z m -11.54519,-12.70865 q 0,-2.46118 1.61096,-4.07214 1.6557,-1.6557 4.56438,-1.6557 2.86392,0 4.51962,1.6557 1.65571,1.61096 1.65571,4.07214 0,2.41643 -1.65571,4.02739 -1.6557,1.61096 -4.51962,1.61096 -2.90868,0 -4.56438,-1.61096 -1.61096,-1.61096 -1.61096,-4.02739 z m 50.65562,51.41635 v -23.09037 q 0,-2.59543 -0.93973,-4.47488 -0.93972,-1.87945 -2.86392,-2.90867 -1.87945,-1.02922 -4.74337,-1.02922 -2.64018,0 -4.56438,0.89497 -1.92419,0.89498 -2.99816,2.41644 -1.07398,1.52145 -1.07398,3.44565 h -10.7397 q 0,-2.86392 1.38721,-5.54885 1.38721,-2.68492 4.02739,-4.78812 2.64018,-2.10319 6.30958,-3.31141 3.6694,-1.20821 8.23377,-1.20821 5.45935,0 9.66574,1.8347 4.25113,1.8347 6.66757,5.54885 2.46118,3.6694 2.46118,9.21824 v 21.52417 q 0,3.31141 0.44749,5.95159 0.49223,2.59542 1.38721,4.51962 v 0.71598 H 265.6147 q -0.76073,-1.7452 -1.20822,-4.43013 -0.40273,-2.72967 -0.40273,-5.28035 z m 1.5662,-19.73421 0.0895,6.66756 h -7.74154 q -2.99817,0 -5.28035,0.58174 -2.28219,0.53698 -3.80365,1.61095 -1.52146,1.07397 -2.28219,2.59543 -0.76073,1.52146 -0.76073,3.44566 0,1.9242 0.89498,3.53515 0.89497,1.56621 2.59543,2.46119 1.7452,0.89497 4.20638,0.89497 3.31141,0 5.7726,-1.34246 2.50593,-1.38721 3.93789,-3.35616 1.43196,-2.0137 1.52146,-3.80365 l 3.4904,4.78812 q -0.53698,1.8347 -1.8347,3.9379 -1.29771,2.10319 -3.40091,4.02739 -2.05844,1.87944 -4.96711,3.08766 -2.86392,1.20822 -6.62282,1.20822 -4.74337,0 -8.45752,-1.87945 -3.71415,-1.9242 -5.81734,-5.14611 -2.10319,-3.26666 -2.10319,-7.38355 0,-3.84839 1.43196,-6.80181 1.47671,-2.99817 4.29588,-5.01187 2.86392,-2.01369 6.98081,-3.04291 4.11689,-1.07397 9.39724,-1.07397 z m 32.08487,-39.28943 v 68.73412 h -10.8292 v -68.73412 z m 60.09761,39.28943 h -16.6018 l -0.0895,-8.18903 h 14.4986 q 3.6694,0 6.22008,-1.07397 2.59543,-1.11872 3.93789,-3.17717 1.34247,-2.10319 1.34247,-5.05661 0,-3.26666 -1.25297,-5.3251 -1.25297,-2.05845 -3.84839,-2.99817 -2.55069,-0.93972 -6.53333,-0.93972 h -10.87395 v 56.20446 H 333.3196 v -65.15422 h 22.10589 q 5.36986,0 9.57624,1.02922 4.25114,1.02922 7.20456,3.22191 2.99816,2.14795 4.51962,5.45935 1.56621,3.31141 1.56621,7.87579 0,4.02739 -1.9242,7.38355 -1.9242,3.31141 -5.68309,5.4146 -3.7589,2.10319 -9.3525,2.50593 z m -0.49224,29.44469 h -19.64471 l 5.05661,-8.905 h 14.5881 q 3.80365,0 6.35433,-1.25297 2.55068,-1.29772 3.80365,-3.53515 1.29771,-2.28219 1.29771,-5.32511 0,-3.17716 -1.11872,-5.5041 -1.11872,-2.37168 -3.53515,-3.62465 -2.41644,-1.29771 -6.30958,-1.29771 h -12.61916 l 0.0895,-8.18903 h 16.4228 l 2.55068,3.08766 q 5.36986,0.179 8.81551,2.37169 3.49041,2.19269 5.19086,5.6831 1.70046,3.4904 1.70046,7.51779 0,6.22008 -2.72968,10.42647 -2.68493,4.20638 -7.74154,6.39907 -5.05661,2.14794 -12.17167,2.14794 z m 61.97706,-11.41094 v -37.00724 h 10.8292 v 48.41818 h -10.20272 z m 1.52146,-10.06847 3.62465,-0.0895 q 0,4.87762 -1.07397,8.99451 -1.07397,4.07213 -3.31141,7.11505 -2.23744,2.99817 -5.72785,4.69862 -3.4904,1.65571 -8.36802,1.65571 -3.53515,0 -6.48857,-1.02922 -2.95342,-1.02923 -5.10136,-3.17717 -2.10319,-2.14794 -3.26666,-5.59359 -1.16347,-3.44566 -1.16347,-8.23378 v -31.2794 h 10.78446 v 31.3689 q 0,2.64018 0.62648,4.43013 0.62648,1.7452 1.70045,2.81917 1.07397,1.07397 2.50593,1.52146 1.43197,0.44749 3.04292,0.44749 4.60913,0 7.2493,-1.78996 2.68493,-1.8347 3.80365,-4.92236 1.16347,-3.08767 1.16347,-6.93606 z m 31.86114,-26.93877 v 48.41818 h -10.8292 v -48.41818 z m -11.54518,-12.70865 q 0,-2.46118 1.61095,-4.07214 1.65571,-1.6557 4.56438,-1.6557 2.86392,0 4.51962,1.6557 1.65571,1.61096 1.65571,4.07214 0,2.41643 -1.65571,4.02739 -1.6557,1.61096 -4.51962,1.61096 -2.90867,0 -4.56438,-1.61096 -1.61095,-1.61096 -1.61095,-4.02739 z m 34.90404,-7.60729 v 68.73412 H 465.1495 v -68.73412 z m 41.34786,58.7104 v -58.7104 h 10.82921 v 68.73412 h -9.79999 z m -31.50314,-13.64838 v -0.93973 q 0,-5.5041 1.29772,-10.02372 1.29771,-4.56438 3.75889,-7.83104 2.46119,-3.31141 5.99634,-5.05661 3.53515,-1.78995 7.96528,-1.78995 4.38538,0 7.69679,1.70045 3.31141,1.70045 5.63835,4.87762 2.32694,3.13241 3.71415,7.51779 1.38721,4.34063 1.96894,9.66574 v 2.99817 q -0.58173,5.19086 -1.96894,9.48674 -1.38721,4.29588 -3.71415,7.4283 -2.32694,3.13241 -5.6831,4.83286 -3.3114,1.70046 -7.74153,1.70046 -4.38538,0 -7.92054,-1.8347 -3.4904,-1.8347 -5.95159,-5.14611 -2.46118,-3.31141 -3.75889,-7.78629 -1.29772,-4.51963 -1.29772,-9.79998 z m 10.78446,-0.93973 v 0.93973 q 0,3.31141 0.58173,6.17533 0.62649,2.86392 1.9242,5.05661 1.29771,2.14794 3.35616,3.40091 2.10319,1.20822 5.01186,1.20822 3.6694,0 6.04109,-1.61096 2.37168,-1.61096 3.71415,-4.34063 1.38721,-2.77443 1.87944,-6.17533 v -8.09953 q -0.26849,-2.64018 -1.11872,-4.92237 -0.80547,-2.28219 -2.19269,-3.98264 -1.38721,-1.7452 -3.44565,-2.68493 -2.0137,-0.98447 -4.78812,-0.98447 -2.95342,0 -5.01186,1.25297 -2.05845,1.25296 -3.40091,3.44565 -1.29772,2.19269 -1.9242,5.10136 -0.62648,2.90867 -0.62648,6.22008 z m 64.16976,25.50681 q -5.36985,0 -9.71048,-1.7452 -4.29589,-1.78996 -7.3388,-4.96712 -2.99817,-3.17716 -4.60913,-7.47304 -1.61095,-4.29589 -1.61095,-9.263 v -1.78995 q 0,-5.6831 1.6557,-10.29222 1.65571,-4.60913 4.60913,-7.87579 2.95342,-3.31141 6.98081,-5.05661 4.02739,-1.7452 8.72601,-1.7452 5.19086,0 9.084,1.7452 3.89314,1.7452 6.44382,4.92237 2.59543,3.13241 3.8484,7.47304 1.29771,4.34063 1.29771,9.57624 v 4.60912 h -37.40998 v -7.74153 h 26.75977 v -0.85023 q -0.0895,-2.90867 -1.16346,-5.45935 -1.02923,-2.55068 -3.17717,-4.11689 -2.14794,-1.56621 -5.72784,-1.56621 -2.68493,0 -4.78812,1.16347 -2.05844,1.11872 -3.44566,3.26666 -1.38721,2.14794 -2.14794,5.19086 -0.71598,2.99817 -0.71598,6.75707 v 1.78995 q 0,3.17716 0.85023,5.90684 0.89497,2.68492 2.59543,4.69862 1.70045,2.01369 4.11689,3.17716 2.41643,1.11872 5.5041,1.11872 3.89314,0 6.93606,-1.56621 3.04291,-1.5662 5.28035,-4.43013 l 5.6831,5.5041 q -1.56621,2.28219 -4.07214,4.38539 -2.50593,2.05844 -6.13058,3.35615 -3.57991,1.29772 -8.32328,1.29772 z m 38.57343,-40.09491 v 39.19993 h -10.78446 v -48.41818 h 10.29222 z m 14.81184,-9.53149 -0.0895,10.02373 q -0.98447,-0.179 -2.14794,-0.26849 -1.11872,-0.0895 -2.23744,-0.0895 -2.77442,0 -4.87761,0.80548 -2.1032,0.76073 -3.53516,2.23744 -1.38721,1.43196 -2.14794,3.4904 -0.76073,2.05844 -0.89497,4.60912 l -2.46119,0.179 q 0,-4.56438 0.89498,-8.45752 0.89497,-3.89314 2.68493,-6.84656 1.8347,-2.95342 4.56437,-4.60913 2.77443,-1.6557 6.39908,-1.6557 0.98447,0 2.10319,0.17899 1.16347,0.179 1.7452,0.40274 z m 33.91959,35.62003 q 0,-1.61096 -0.80548,-2.90867 -0.80547,-1.34246 -3.08766,-2.41643 -2.23744,-1.07398 -6.62282,-1.96895 -3.8484,-0.85023 -7.07031,-2.0137 -3.17716,-1.20821 -5.45935,-2.90867 -2.28219,-1.70045 -3.53515,-4.02739 -1.25297,-2.32693 -1.25297,-5.36985 0,-2.95342 1.29772,-5.5936 1.29771,-2.64018 3.71414,-4.65387 2.41644,-2.0137 5.86209,-3.17716 3.49041,-1.16347 7.78629,-1.16347 6.08584,0 10.42647,2.05844 4.38538,2.0137 6.71231,5.5041 2.32694,3.44566 2.32694,7.78629 h -10.78445 q 0,-1.9242 -0.98448,-3.5799 -0.93972,-1.70046 -2.86392,-2.72968 -1.9242,-1.07397 -4.83287,-1.07397 -2.77442,0 -4.60912,0.89498 -1.78995,0.85022 -2.68493,2.23743 -0.85023,1.38722 -0.85023,3.04292 0,1.20822 0.44749,2.19269 0.49224,0.93973 1.61096,1.7452 1.11872,0.76073 3.04292,1.43197 1.96894,0.67123 4.92236,1.29771 5.54885,1.16347 9.53149,2.99817 4.02739,1.78995 6.17533,4.65387 2.14794,2.81917 2.14794,7.15981 0,3.22191 -1.38721,5.90683 -1.34246,2.64018 -3.93789,4.60913 -2.59543,1.9242 -6.22008,2.99817 -3.5799,1.07397 -8.05478,1.07397 -6.57807,0 -11.14245,-2.32694 -4.56437,-2.37168 -6.93606,-6.04108 -2.32693,-3.71415 -2.32693,-7.69679 h 10.42646 q 0.179,2.99816 1.65571,4.78812 1.52145,1.7452 3.75889,2.55068 2.28219,0.76073 4.69862,0.76073 2.90868,0 4.87762,-0.76073 1.96895,-0.80548 2.99817,-2.14795 1.02922,-1.38721 1.02922,-3.13241 z"
       id="text2-9"
       aria-label="Trivial Builders" />
    <path
       style="font-weight:500;font-size:91.1577px;font-family:Roboto;-inkscape-font-specification:'Roboto Medium';text-align:center;text-anchor:middle;fill:#e8effc;stroke-width:1.42434"
       d="m 147.40965,764.99805 h 22.92296 q 7.38876,0 12.5965,2.22553 5.20774,2.22553 7.96739,6.58757 2.80417,4.31753 2.80417,10.68254 0,4.85166 -1.78042,8.54604 -1.78043,3.69438 -5.0297,6.23148 -3.24927,2.4926 -7.74484,3.87242 l -3.38281,1.6469 h -20.60841 l -0.089,-8.85761 h 15.44518 q 4.00595,0 6.67659,-1.42434 2.67064,-1.42434 4.00595,-3.87242 1.37983,-2.4926 1.37983,-5.60834 0,-3.3828 -1.33532,-5.8754 -1.2908,-2.5371 -4.00595,-3.87242 -2.71515,-1.37983 -6.89914,-1.37983 h -11.7508 v 55.90531 h -11.17216 z m 36.98831,64.80743 -15.22263,-29.10993 11.70629,-0.0445 15.44518,28.5758 v 0.57864 z m 40.54915,0.89021 q -5.34127,0 -9.6588,-1.73591 -4.27302,-1.78042 -7.29974,-4.94068 -2.98221,-3.16025 -4.58459,-7.43327 -1.60238,-4.27301 -1.60238,-9.21369 v -1.78042 q 0,-5.65285 1.64689,-10.23744 1.64689,-4.58459 4.58459,-7.83386 2.9377,-3.29379 6.94365,-5.0297 4.00596,-1.73592 8.67957,-1.73592 5.16323,0 9.03565,1.73592 3.87242,1.73591 6.40953,4.89616 2.58161,3.11575 3.82791,7.43327 1.29081,4.31753 1.29081,9.52527 v 4.58459 h -37.21086 v -7.70033 h 26.61733 v -0.8457 q -0.089,-2.89319 -1.15727,-5.4303 -1.02375,-2.5371 -3.16025,-4.09497 -2.13651,-1.55787 -5.69736,-1.55787 -2.67064,0 -4.76263,1.15727 -2.04749,1.11277 -3.42732,3.24928 -1.37983,2.13651 -2.13651,5.16323 -0.71217,2.98221 -0.71217,6.7211 v 1.78042 q 0,3.16025 0.8457,5.8754 0.89022,2.67064 2.58162,4.67361 1.6914,2.00298 4.09497,3.16025 2.40358,1.11277 5.47481,1.11277 3.87242,0 6.89914,-1.55787 3.02672,-1.55787 5.25225,-4.40655 l 5.65284,5.4748 q -1.55787,2.27004 -4.05046,4.36204 -2.49259,2.04749 -6.09795,3.3383 -3.56085,1.2908 -8.27897,1.2908 z m 38.36814,-39.79247 v 57.41867 h -10.72706 v -66.67687 h 9.88136 z m 31.37997,14.37692 v 0.93473 q 0,5.25225 -1.2463,9.74782 -1.20179,4.45106 -3.60536,7.78935 -2.35906,3.29378 -5.83089,5.11872 -3.47182,1.82493 -8.0119,1.82493 -4.49557,0 -7.87838,-1.64689 -3.33829,-1.6914 -5.65284,-4.76263 -2.31456,-3.07123 -3.73889,-7.21072 -1.37983,-4.184 -1.95847,-9.16918 v -3.60536 q 0.57864,-5.29676 1.95847,-9.61429 1.42433,-4.31753 3.73889,-7.43327 2.31455,-3.11574 5.65284,-4.80714 3.3383,-1.69141 7.78936,-1.69141 4.54008,0 8.05641,1.78043 3.51634,1.73591 5.91991,4.98519 2.40357,3.20476 3.60536,7.74484 1.20179,4.49557 1.20179,10.01488 z m -10.72706,0.93473 v -0.93473 q 0,-3.33829 -0.62315,-6.18697 -0.62314,-2.89319 -1.95846,-5.07421 -1.33532,-2.18102 -3.42732,-3.3828 -2.04748,-1.2463 -4.94067,-1.2463 -2.84868,0 -4.89617,0.97923 -2.04749,0.93473 -3.42731,2.62613 -1.37983,1.6914 -2.13651,3.96144 -0.75668,2.22553 -1.06826,4.85166 v 8.63505 q 0.53413,3.20476 1.82494,5.8754 1.2908,2.67064 3.64987,4.27302 2.40357,1.55787 6.14246,1.55787 2.89319,0 4.94067,-1.2463 2.04749,-1.24629 3.3383,-3.42731 1.33532,-2.22553 1.95846,-5.11872 0.62315,-2.89319 0.62315,-6.14246 z m 30.57878,-15.40067 v 38.99128 h -10.72706 v -48.16046 h 10.23744 z m 14.733,-9.48076 -0.089,9.97038 q -0.97923,-0.17805 -2.13651,-0.26707 -1.11276,-0.089 -2.22553,-0.089 -2.75965,0 -4.85165,0.80119 -2.092,0.75668 -3.51634,2.22553 -1.37983,1.42434 -2.13651,3.47183 -0.75668,2.04749 -0.89021,4.58459 l -2.44808,0.17804 q 0,-4.54008 0.89021,-8.4125 0.89021,-3.87242 2.67064,-6.81012 1.82493,-2.9377 4.54008,-4.58459 2.75965,-1.6469 6.36501,-1.6469 0.97924,0 2.092,0.17805 1.15728,0.17804 1.73591,0.40059 z m 3.52174,24.92594 v -1.02375 q 0,-5.20774 1.51336,-9.6588 1.51336,-4.49557 4.36203,-7.78935 2.89319,-3.3383 7.03268,-5.16323 4.18399,-1.86945 9.43625,-1.86945 5.29676,0 9.43624,1.86945 4.184,1.82493 7.07719,5.16323 2.89318,3.29378 4.40654,7.78935 1.51337,4.45106 1.51337,9.6588 v 1.02375 q 0,5.20774 -1.51337,9.6588 -1.51336,4.45105 -4.40654,7.78935 -2.89319,3.29378 -7.03268,5.16323 -4.13948,1.82493 -9.39173,1.82493 -5.29676,0 -9.48076,-1.82493 -4.13949,-1.86945 -7.03267,-5.16323 -2.89319,-3.3383 -4.40655,-7.78935 -1.51336,-4.45106 -1.51336,-9.6588 z m 10.72705,-1.02375 v 1.02375 q 0,3.24927 0.66766,6.14246 0.66766,2.89319 2.092,5.07421 1.42434,2.18102 3.64987,3.42731 2.22553,1.2463 5.29676,1.2463 2.98221,0 5.16323,-1.2463 2.22553,-1.24629 3.64986,-3.42731 1.42434,-2.18102 2.092,-5.07421 0.71217,-2.89319 0.71217,-6.14246 v -1.02375 q 0,-3.20476 -0.71217,-6.05344 -0.66766,-2.89319 -2.13651,-5.11872 -1.42434,-2.22553 -3.64987,-3.47182 -2.18101,-1.29081 -5.20773,-1.29081 -3.02673,0 -5.25226,1.29081 -2.18101,1.24629 -3.60535,3.47182 -1.42434,2.22553 -2.092,5.11872 -0.66766,2.84868 -0.66766,6.05344 z m 72.41874,14.59948 v -58.3979 h 10.77156 v 68.36827 h -9.74782 z m -31.33546,-13.57573 v -0.93473 q 0,-5.4748 1.29081,-9.97037 1.29081,-4.54008 3.73889,-7.78935 2.44808,-3.29379 5.96442,-5.0297 3.51633,-1.78043 7.92288,-1.78043 4.36204,0 7.65583,1.69141 3.29378,1.6914 5.60833,4.85165 2.31455,3.11574 3.69438,7.47778 1.37983,4.31753 1.95847,9.61429 v 2.98221 q -0.57864,5.16323 -1.95847,9.43625 -1.37983,4.27301 -3.69438,7.38876 -2.31455,3.11574 -5.65284,4.80714 -3.29379,1.6914 -7.70034,1.6914 -4.36204,0 -7.87837,-1.82493 -3.47183,-1.82494 -5.91991,-5.11872 -2.44808,-3.29378 -3.73889,-7.74484 -1.29081,-4.49557 -1.29081,-9.74782 z m 10.72705,-0.93473 v 0.93473 q 0,3.29378 0.57864,6.14246 0.62315,2.84868 1.91396,5.0297 1.2908,2.1365 3.33829,3.3828 2.092,1.20179 4.98519,1.20179 3.64987,0 6.00893,-1.60238 2.35906,-1.60239 3.69438,-4.31753 1.37983,-2.75966 1.86944,-6.14246 v -8.05642 q -0.26706,-2.62613 -1.11276,-4.89617 -0.80119,-2.27004 -2.18102,-3.96144 -1.37983,-1.73591 -3.42732,-2.67064 -2.00297,-0.97923 -4.76263,-0.97923 -2.9377,0 -4.98519,1.2463 -2.04748,1.24629 -3.3828,3.42731 -1.29081,2.18102 -1.91396,5.07421 -0.62315,2.89319 -0.62315,6.18697 z m 71.57303,13.13063 v -36.81026 h 10.77157 v 48.16046 h -10.14842 z m 1.51336,-10.01488 3.60536,-0.089 q 0,4.85166 -1.06825,8.94663 -1.06826,4.05047 -3.29379,7.07719 -2.22553,2.98221 -5.69735,4.67361 -3.47183,1.64689 -8.32348,1.64689 -3.51634,0 -6.45404,-1.02374 -2.9377,-1.02374 -5.07421,-3.16025 -2.092,-2.13651 -3.24927,-5.56383 -1.15728,-3.42731 -1.15728,-8.18995 v -31.1129 h 10.72706 v 31.20192 q 0,2.62613 0.62314,4.40655 0.62315,1.73592 1.69141,2.80417 1.06825,1.06825 2.49259,1.51336 1.42434,0.44511 3.02672,0.44511 4.58459,0 7.21072,-1.78043 2.67063,-1.82493 3.7834,-4.89616 1.15727,-3.07123 1.15727,-6.89914 z m 39.8815,13.70926 q 2.62613,0 4.71812,-1.02375 2.13651,-1.06825 3.42732,-2.93769 1.33532,-1.86945 1.46885,-4.31753 h 10.1039 q -0.089,4.67361 -2.75965,8.50152 -2.67064,3.82791 -7.07719,6.09795 -4.40655,2.22553 -9.74782,2.22553 -5.51931,0 -9.61429,-1.86944 -4.09497,-1.91396 -6.81012,-5.25225 -2.71514,-3.3383 -4.09497,-7.70034 -1.33532,-4.36203 -1.33532,-9.34722 v -1.55787 q 0,-4.98519 1.33532,-9.34723 1.37983,-4.40655 4.09497,-7.74484 2.71515,-3.33829 6.81012,-5.20774 4.09498,-1.91396 9.56978,-1.91396 5.78638,0 10.14842,2.31456 4.36204,2.27004 6.85463,6.36501 2.5371,4.05047 2.62612,9.43625 h -10.1039 q -0.13353,-2.67064 -1.33532,-4.80715 -1.15727,-2.18102 -3.29378,-3.47182 -2.092,-1.29081 -5.0297,-1.29081 -3.24927,0 -5.38578,1.33532 -2.13651,1.2908 -3.3383,3.56084 -1.20178,2.22553 -1.73591,5.0297 -0.48962,2.75966 -0.48962,5.74187 v 1.55787 q 0,2.98221 0.48962,5.78638 0.48962,2.80416 1.6914,5.02969 1.2463,2.18102 3.38281,3.51634 2.13651,1.29081 5.43029,1.29081 z m 55.0596,-2.00298 v -22.96747 q 0,-2.58161 -0.93472,-4.45106 -0.93473,-1.86944 -2.84868,-2.89318 -1.86945,-1.02375 -4.71813,-1.02375 -2.62612,0 -4.54008,0.89021 -1.91395,0.89022 -2.98221,2.40358 -1.06825,1.51336 -1.06825,3.42731 h -10.68254 q 0,-2.84868 1.37982,-5.51931 1.37983,-2.67064 4.00596,-4.76264 2.62612,-2.09199 6.27599,-3.29378 3.64987,-1.20179 8.18995,-1.20179 5.43029,0 9.61429,1.82494 4.22851,1.82493 6.63208,5.51931 2.44808,3.64987 2.44808,9.16919 v 21.40959 q 0,3.29379 0.44511,5.91991 0.48961,2.58162 1.37983,4.49557 v 0.71217 h -10.99412 q -0.75668,-1.73591 -1.20179,-4.40655 -0.40059,-2.71514 -0.40059,-5.25225 z m 1.55787,-19.62917 0.089,6.63208 h -7.70033 q -2.98221,0 -5.25225,0.57864 -2.27004,0.53412 -3.7834,1.60238 -1.51336,1.06825 -2.27004,2.58161 -0.75668,1.51336 -0.75668,3.42732 0,1.91395 0.89021,3.51633 0.89021,1.55788 2.58161,2.44809 1.73592,0.89021 4.184,0.89021 3.29378,0 5.74186,-1.33532 2.4926,-1.37983 3.91694,-3.33829 1.42434,-2.00298 1.51336,-3.7834 l 3.47182,4.76263 q -0.53412,1.82493 -1.82493,3.91693 -1.29081,2.092 -3.38281,4.00596 -2.04748,1.86944 -4.94067,3.07123 -2.84868,1.20178 -6.58757,1.20178 -4.71812,0 -8.4125,-1.86944 -3.69438,-1.91396 -5.78638,-5.11872 -2.092,-3.24927 -2.092,-7.34425 0,-3.82791 1.42434,-6.76561 1.46885,-2.98221 4.27302,-4.98519 2.84868,-2.00297 6.94365,-3.02672 4.09498,-1.06825 9.34723,-1.06825 z m 20.47488,-39.0803 h 10.72706 v 58.08632 l -1.02375,10.28195 h -9.70331 z m 42.15154,43.84293 v 0.93473 q 0,5.34127 -1.20179,9.83684 -1.15727,4.45106 -3.56085,7.74484 -2.35906,3.29378 -5.87539,5.11872 -3.47183,1.78042 -8.05642,1.78042 -4.49557,0 -7.83387,-1.6914 -3.33829,-1.6914 -5.60833,-4.80714 -2.22553,-3.11575 -3.60536,-7.43327 -1.37983,-4.31753 -1.95847,-9.52527 v -2.98221 q 0.57864,-5.25225 1.95847,-9.52527 1.37983,-4.31753 3.60536,-7.43327 2.27004,-3.16025 5.56382,-4.85165 3.3383,-1.69141 7.78936,-1.69141 4.6291,0 8.14544,1.78043 3.56084,1.78042 5.91991,5.07421 2.35906,3.24927 3.51633,7.74484 1.20179,4.49557 1.20179,9.92586 z m -10.72705,0.93473 v -0.93473 q 0,-3.24927 -0.53413,-6.09795 -0.53413,-2.89319 -1.78043,-5.07421 -1.20178,-2.18102 -3.29378,-3.42731 -2.04749,-1.29081 -5.11872,-1.29081 -2.84868,0 -4.89616,0.97923 -2.04749,0.97924 -3.42732,2.67064 -1.37983,1.6914 -2.18102,3.91693 -0.75668,2.22553 -1.02374,4.80715 v 8.05641 q 0.40059,3.3383 1.6914,6.14247 1.33532,2.75965 3.73889,4.45106 2.40357,1.64689 6.18697,1.64689 2.98221,0 5.0297,-1.20179 2.04749,-1.20178 3.24927,-3.33829 1.2463,-2.18102 1.78043,-5.07421 0.57864,-2.89319 0.57864,-6.23148 z m 31.24643,-24.56985 v 48.16046 h -10.77157 v -48.16046 z m -11.48374,-12.64101 q 0,-2.44809 1.60238,-4.05047 1.6469,-1.64689 4.54009,-1.64689 2.84867,0 4.49557,1.64689 1.64689,1.60238 1.64689,4.05047 0,2.40357 -1.64689,4.00595 -1.6469,1.60238 -4.49557,1.60238 -2.89319,0 -4.54009,-1.60238 -1.60238,-1.60238 -1.60238,-4.00595 z m 34.71826,-7.5668 v 68.36827 h -10.77156 v -68.36827 z m 23.23456,20.20781 v 48.16046 h -10.77156 v -48.16046 z m -11.48373,-12.64101 q 0,-2.44809 1.60238,-4.05047 1.64689,-1.64689 4.54008,-1.64689 2.84868,0 4.49557,1.64689 1.64689,1.60238 1.64689,4.05047 0,2.40357 -1.64689,4.00595 -1.64689,1.60238 -4.49557,1.60238 -2.89319,0 -4.54008,-1.60238 -1.60238,-1.60238 -1.60238,-4.00595 z m 45.31175,12.64101 v 7.83386 h -27.15146 v -7.83386 z m -19.3176,-11.79531 h 10.72706 v 46.6471 q 0,2.22553 0.62315,3.42732 0.66765,1.15727 1.82493,1.55787 1.15727,0.40059 2.71515,0.40059 1.11276,0 2.1365,-0.13353 1.02375,-0.13353 1.6469,-0.26706 l 0.0445,8.18995 q -1.33532,0.40059 -3.11574,0.71217 -1.73592,0.31157 -4.00596,0.31157 -3.69438,0 -6.54306,-1.2908 -2.84867,-1.33532 -4.45106,-4.31753 -1.60238,-2.98221 -1.60238,-7.92289 z m 41.57294,54.70352 13.08611,-42.90821 h 11.48373 l -19.31759,55.50471 q -0.66766,1.78042 -1.73592,3.87242 -1.06825,2.092 -2.80417,3.96144 -1.6914,1.91396 -4.2285,3.07124 -2.53711,1.20178 -6.14246,1.20178 -1.42434,0 -2.75966,-0.26706 -1.29081,-0.22256 -2.44808,-0.48962 l -0.0445,-8.18995 q 0.4451,0.0445 1.06825,0.089 0.66766,0.0445 1.06825,0.0445 2.67064,0 4.45106,-0.66766 1.78043,-0.62314 2.89319,-2.04748 1.15728,-1.42434 1.95847,-3.82791 z m -7.38876,-42.90821 11.43922,36.05358 1.91396,11.30569 -7.43327,1.91396 -17.49267,-49.27323 z"
       id="text2-9-1"
       aria-label="Reproducability" />
    <path
       style="font-weight:500;font-size:103.352px;font-family:Roboto, Meidum;-inkscape-font-specification:'Roboto, Meidum Medium';text-align:center;text-anchor:middle;fill:#e8effc;stroke-width:1.61488"
       d="m 809.36933,685.49931 v 10.0425 h -39.00932 v -10.0425 z M 773.94301,622.065 v 73.47681 H 761.27634 V 622.065 Z m 30.32937,30.68262 v 9.89111 h -33.91237 v -9.89111 z m 4.84463,-30.68262 v 10.09297 h -38.757 V 622.065 Z m 18.62152,18.87385 10.39576,18.11688 10.59762,-18.11688 h 13.37318 l -16.55247,26.79683 17.20851,27.80613 h -13.37318 l -11.10227,-18.87385 -11.10226,18.87385 h -13.42365 l 17.15805,-27.80613 -16.50201,-26.79683 z m 54.90575,10.49669 v 65.09964 h -12.16203 v -75.59633 h 11.2032 z m 35.57771,16.30014 v 1.05976 q 0,5.95485 -1.41301,11.0518 -1.36255,5.04649 -4.08766,8.83135 -2.67463,3.7344 -6.61089,5.80346 -3.93626,2.06906 -9.08367,2.06906 -5.09695,0 -8.93228,-1.8672 -3.78486,-1.91767 -6.40903,-5.39974 -2.62418,-3.48208 -4.23905,-8.17531 -1.56441,-4.74369 -2.22045,-10.39575 v -4.08766 q 0.65604,-6.00531 2.22045,-10.9004 1.61487,-4.89509 4.23905,-8.42763 2.62417,-3.53254 6.40903,-5.4502 3.78486,-1.91767 8.83135,-1.91767 5.14741,0 9.13414,2.0186 3.98672,1.96813 6.71182,5.65206 2.7251,3.63347 4.08765,8.78088 1.36255,5.09695 1.36255,11.35459 z m -12.16202,1.05976 v -1.05976 q 0,-3.78486 -0.70651,-7.01461 -0.70651,-3.28022 -2.22046,-5.75299 -1.51394,-2.47278 -3.88579,-3.83533 -2.32138,-1.41302 -5.6016,-1.41302 -3.22975,0 -5.55113,1.11023 -2.32138,1.05976 -3.88579,2.97742 -1.56441,1.91767 -2.42231,4.49138 -0.85791,2.52324 -1.21116,5.50066 v 9.79018 q 0.60558,3.63347 2.06906,6.66136 1.46348,3.02789 4.13812,4.84463 2.7251,1.76627 6.96414,1.76627 3.28022,0 5.6016,-1.41302 2.32138,-1.41302 3.78486,-3.88579 1.51395,-2.52324 2.22046,-5.80346 0.70651,-3.28021 0.70651,-6.96415 z m 34.66935,-17.46083 v 44.2072 h -12.16203 v -54.60296 h 11.60691 z m 16.70386,-10.74901 -0.10093,11.30412 q -1.11023,-0.20186 -2.42231,-0.30279 -1.26162,-0.10093 -2.52325,-0.10093 -3.12882,0 -5.50066,0.90837 -2.37185,0.8579 -3.98673,2.52324 -1.56441,1.61488 -2.42231,3.93626 -0.8579,2.32138 -1.0093,5.19788 l -2.77556,0.20186 q 0,-5.14742 1.0093,-9.53786 1.00929,-4.39044 3.02789,-7.72112 2.06905,-3.33068 5.14741,-5.19788 3.12882,-1.8672 7.21647,-1.8672 1.11023,0 2.37185,0.20186 1.31209,0.20186 1.96813,0.45419 z m 30.73309,55.96551 q -6.05578,0 -10.95087,-1.96813 -4.84463,-2.0186 -8.27624,-5.6016 -3.38114,-3.583 -5.19788,-8.42763 -1.81673,-4.84462 -1.81673,-10.44622 v -2.0186 q 0,-6.40903 1.8672,-11.60691 1.8672,-5.19788 5.19788,-8.88181 3.33068,-3.7344 7.87251,-5.70253 4.54184,-1.96813 9.84065,-1.96813 5.85392,0 10.24436,1.96813 4.39045,1.96813 7.26695,5.55113 2.9269,3.53254 4.34,8.42763 1.4634,4.89509 1.4634,10.79948 v 5.19788 h -42.18856 v -8.73042 h 30.17797 v -0.95883 q -0.10093,-3.28022 -1.31209,-6.15671 -1.16069,-2.8765 -3.583,-4.64277 -2.42231,-1.76627 -6.4595,-1.76627 -3.02789,0 -5.39974,1.31209 -2.32138,1.26162 -3.88579,3.68393 -1.56441,2.42231 -2.42231,5.85392 -0.80744,3.38115 -0.80744,7.62019 v 2.0186 q 0,3.583 0.95883,6.66136 1.0093,3.02789 2.92696,5.29881 1.91767,2.27091 4.64277,3.583 2.7251,1.26162 6.20717,1.26162 4.39045,0 7.82205,-1.76627 3.43158,-1.76627 5.95488,-4.99602 l 6.409,6.20718 q -1.7663,2.5737 -4.5923,4.94555 -2.826,2.32139 -6.91367,3.78487 -4.03719,1.46348 -9.38646,1.46348 z m 61.92033,-15.7955 q 0,-1.81673 -0.9083,-3.28021 -0.9084,-1.51395 -3.4821,-2.72511 -2.5233,-1.21115 -7.4688,-2.22045 -4.34,-0.95883 -7.9735,-2.27092 -3.583,-1.36255 -6.1567,-3.28021 -2.5737,-1.91767 -3.9867,-4.54184 -1.413,-2.62417 -1.413,-6.05578 0,-3.33068 1.4635,-6.3081 1.4634,-2.97743 4.1886,-5.24835 2.7251,-2.27092 6.6108,-3.583 3.9363,-1.31209 8.7809,-1.31209 6.8632,0 11.7583,2.32139 4.9456,2.27091 7.5698,6.20717 2.6241,3.88579 2.6241,8.78088 h -12.162 q 0,-2.16998 -1.1102,-4.03718 -1.0598,-1.91767 -3.2298,-3.07836 -2.17,-1.21116 -5.4502,-1.21116 -3.1288,0 -5.1979,1.0093 -2.0185,0.95883 -3.0278,2.52324 -0.9589,1.56441 -0.9589,3.43161 0,1.36255 0.5047,2.47278 0.5551,1.05976 1.8167,1.96813 1.2616,0.8579 3.4316,1.61487 2.2205,0.75698 5.5512,1.46348 6.2576,1.31209 10.749,3.38115 4.5418,2.01859 6.9641,5.24834 2.4223,3.17929 2.4223,8.07438 0,3.63347 -1.5644,6.66136 -1.5139,2.97742 -4.4409,5.19788 -2.927,2.16998 -7.0146,3.38114 -4.0372,1.21116 -9.0837,1.21116 -7.4183,0 -12.5657,-2.62418 -5.1474,-2.67463 -7.8221,-6.81275 -2.6241,-4.18858 -2.6241,-8.67995 h 11.7583 q 0.2018,3.38114 1.8672,5.39974 1.7158,1.96812 4.239,2.87649 2.5737,0.8579 5.2988,0.8579 3.2802,0 5.5007,-0.8579 2.2204,-0.90837 3.3811,-2.42231 1.1607,-1.56441 1.1607,-3.53254 z m 53.19,0 q 0,-1.81673 -0.9084,-3.28021 -0.9084,-1.51395 -3.4821,-2.72511 -2.5232,-1.21115 -7.4688,-2.22045 -4.34,-0.95883 -7.9734,-2.27092 -3.583,-1.36255 -6.1567,-3.28021 -2.5737,-1.91767 -3.9868,-4.54184 -1.413,-2.62417 -1.413,-6.05578 0,-3.33068 1.4635,-6.3081 1.4635,-2.97743 4.1886,-5.24835 2.7251,-2.27092 6.6109,-3.583 3.9362,-1.31209 8.7809,-1.31209 6.8632,0 11.7583,2.32139 4.9455,2.27091 7.5697,6.20717 2.6242,3.88579 2.6242,8.78088 h -12.1621 q 0,-2.16998 -1.1102,-4.03718 -1.0597,-1.91767 -3.2297,-3.07836 -2.17,-1.21116 -5.4502,-1.21116 -3.1289,0 -5.1979,1.0093 -2.0186,0.95883 -3.0279,2.52324 -0.9588,1.56441 -0.9588,3.43161 0,1.36255 0.5046,2.47278 0.5551,1.05976 1.8168,1.96813 1.2616,0.8579 3.4316,1.61487 2.2204,0.75698 5.5511,1.46348 6.2576,1.31209 10.749,3.38115 4.5418,2.01859 6.9642,5.24834 2.4223,3.17929 2.4223,8.07438 0,3.63347 -1.5644,6.66136 -1.514,2.97742 -4.441,5.19788 -2.9269,2.16998 -7.0146,3.38114 -4.0372,1.21116 -9.0836,1.21116 -7.4184,0 -12.5658,-2.62418 -5.1474,-2.67463 -7.822,-6.81275 -2.6242,-4.18858 -2.6242,-8.67995 h 11.7583 q 0.2019,3.38114 1.8672,5.39974 1.7158,1.96812 4.239,2.87649 2.5738,0.8579 5.2989,0.8579 3.2802,0 5.5006,-0.8579 2.2205,-0.90837 3.3812,-2.42231 1.1607,-1.56441 1.1607,-3.53254 z m 35.5777,-39.81676 v 54.60296 h -12.2125 v -54.60296 z m -13.02,-14.33202 q 0,-2.77556 1.8168,-4.5923 1.8672,-1.8672 5.1474,-1.8672 3.2297,0 5.0969,1.8672 1.8672,1.81674 1.8672,4.5923 0,2.72511 -1.8672,4.54184 -1.8672,1.81673 -5.0969,1.81673 -3.2802,0 -5.1474,-1.81673 -1.8168,-1.81673 -1.8168,-4.54184 z m 24.0213,42.23908 v -1.16069 q 0,-5.90439 1.7158,-10.95087 1.7158,-5.09695 4.9456,-8.83135 3.2802,-3.78487 7.9734,-5.85392 4.7437,-2.11953 10.6986,-2.11953 6.0053,0 10.6985,2.11953 4.7437,2.06905 8.0239,5.85392 3.2802,3.7344 4.996,8.83135 1.7158,5.04648 1.7158,10.95087 v 1.16069 q 0,5.90438 -1.7158,10.95087 -1.7158,5.04648 -4.996,8.83135 -3.2802,3.73439 -7.9734,5.85392 -4.6933,2.06906 -10.6481,2.06906 -6.0053,0 -10.749,-2.06906 -4.6932,-2.11953 -7.9735,-5.85392 -3.2802,-3.78487 -4.996,-8.83135 -1.7158,-5.04649 -1.7158,-10.95087 z m 12.162,-1.16069 v 1.16069 q 0,3.68393 0.757,6.96415 0.757,3.28021 2.3719,5.75299 1.6148,2.47277 4.1381,3.88579 2.5232,1.41302 6.0053,1.41302 3.3811,0 5.8539,-1.41302 2.5233,-1.41302 4.1381,-3.88579 1.6149,-2.47278 2.3719,-5.75299 0.8074,-3.28022 0.8074,-6.96415 v -1.16069 q 0,-3.63347 -0.8074,-6.86322 -0.757,-3.28022 -2.4223,-5.80346 -1.6149,-2.52324 -4.1382,-3.93626 -2.4727,-1.46348 -5.9043,-1.46348 -3.4316,0 -5.9549,1.46348 -2.4728,1.41302 -4.0876,3.93626 -1.6149,2.52324 -2.3719,5.80346 -0.757,3.22975 -0.757,6.86322 z m 60.8607,-15.08899 v 42.94558 h -12.1621 v -54.60296 h 11.4556 z m -2.17,13.62551 -3.9363,-0.0505 q 0.051,-5.80346 1.6149,-10.64808 1.6149,-4.84463 4.4409,-8.3267 2.8765,-3.48207 6.8632,-5.34927 3.9867,-1.91767 8.8818,-1.91767 3.9363,0 7.1156,1.11023 3.2297,1.05976 5.5006,3.48207 2.3214,2.42232 3.5326,6.30811 1.2111,3.83533 1.2111,9.43692 v 35.27493 h -12.2125 v -35.32539 q 0,-3.93626 -1.1607,-6.20718 -1.1102,-2.32138 -3.2802,-3.28021 -2.1195,-1.0093 -5.2988,-1.0093 -3.1288,0 -5.6016,1.31209 -2.4727,1.31208 -4.1886,3.583 -1.6653,2.27092 -2.5737,5.24835 -0.9083,2.97742 -0.9083,6.35857 z m 78.2709,14.53387 q 0,-1.81673 -0.9083,-3.28021 -0.9084,-1.51395 -3.4821,-2.72511 -2.5233,-1.21115 -7.4688,-2.22045 -4.34,-0.95883 -7.9735,-2.27092 -3.583,-1.36255 -6.1567,-3.28021 -2.5737,-1.91767 -3.9867,-4.54184 -1.413,-2.62417 -1.413,-6.05578 0,-3.33068 1.4635,-6.3081 1.4635,-2.97743 4.1886,-5.24835 2.7251,-2.27092 6.6109,-3.583 3.9362,-1.31209 8.7808,-1.31209 6.8633,0 11.7583,2.32139 4.9456,2.27091 7.5698,6.20717 2.6241,3.88579 2.6241,8.78088 h -12.162 q 0,-2.16998 -1.1102,-4.03718 -1.0598,-1.91767 -3.2298,-3.07836 -2.1699,-1.21116 -5.4502,-1.21116 -3.1288,0 -5.1978,1.0093 -2.0186,0.95883 -3.0279,2.52324 -0.9589,1.56441 -0.9589,3.43161 0,1.36255 0.5047,2.47278 0.5551,1.05976 1.8167,1.96813 1.2616,0.8579 3.4316,1.61487 2.2205,0.75698 5.5512,1.46348 6.2576,1.31209 10.749,3.38115 4.5418,2.01859 6.9641,5.24834 2.4223,3.17929 2.4223,8.07438 0,3.63347 -1.5644,6.66136 -1.5139,2.97742 -4.4409,5.19788 -2.9269,2.16998 -7.0146,3.38114 -4.0372,1.21116 -9.0837,1.21116 -7.4183,0 -12.5657,-2.62418 -5.1474,-2.67463 -7.8221,-6.81275 -2.6241,-4.18858 -2.6241,-8.67995 h 11.7583 q 0.2018,3.38114 1.8672,5.39974 1.7158,1.96812 4.239,2.87649 2.5737,0.8579 5.2988,0.8579 3.2802,0 5.5007,-0.8579 2.2204,-0.90837 3.3811,-2.42231 1.1607,-1.56441 1.1607,-3.53254 z"
       id="text2-9-1-6"
       aria-label="Expressions" />
    <path
       style="font-weight:500;font-size:110.213px;font-family:Roboto;-inkscape-font-specification:'Roboto Medium';text-align:center;text-anchor:middle;fill:#e8effc;stroke-width:1.72208"
       d="m 972.17751,841.80548 v 45.79651 h -12.9694 v -58.22777 h 12.21599 z m -2.31404,14.53003 -4.19757,-0.0538 q 0.0538,-6.18871 1.72208,-11.35495 1.72208,-5.16623 4.73571,-8.87946 3.06746,-3.71323 7.31884,-5.70439 4.25138,-2.04496 9.47143,-2.04496 4.19756,0 7.5879,1.18392 3.44416,1.13012 5.86584,3.71324 2.4755,2.58311 3.767,6.72686 1.2916,4.08994 1.2916,10.0634 v 37.61664 h -13.02322 v -37.67046 q 0,-4.19756 -1.23774,-6.61924 -1.18393,-2.47548 -3.49798,-3.49797 -2.26022,-1.0763 -5.65056,-1.0763 -3.33653,0 -5.97346,1.39919 -2.63693,1.39919 -4.46664,3.82086 -1.7759,2.42168 -2.74456,5.59676 -0.96867,3.17508 -0.96867,6.78068 z m 64.68553,-26.96129 v 58.22777 h -13.0232 v -58.22777 z m -13.8842,-15.28344 q 0,-2.95982 1.9373,-4.89716 1.9912,-1.99115 5.4891,-1.99115 3.4442,0 5.4353,1.99115 1.9912,1.93734 1.9912,4.89716 0,2.90601 -1.9912,4.84335 -1.9911,1.93733 -5.4353,1.93733 -3.4979,0 -5.4891,-1.93733 -1.9373,-1.93734 -1.9373,-4.84335 z m 37.9933,15.28344 11.0859,19.31957 11.3011,-19.31957 h 14.261 l -17.6513,28.57574 18.3509,29.65203 h -14.261 l -11.8393,-20.12679 -11.8392,20.12679 h -14.3148 l 18.2971,-29.65203 -17.5975,-28.57574 z m 58.5507,11.19351 V 909.989 h -12.9694 v -80.61478 h 11.9469 z m 37.9395,17.38223 v 1.13011 q 0,6.35016 -1.5068,11.78547 -1.453,5.3815 -4.359,9.41762 -2.8522,3.9823 -7.0498,6.18872 -4.1975,2.20641 -9.6867,2.20641 -5.4353,0 -9.5252,-1.99115 -4.0361,-2.04497 -6.8345,-5.7582 -2.7984,-3.71323 -4.5205,-8.71802 -1.6682,-5.05861 -2.3678,-11.08588 v -4.35901 q 0.6996,-6.40398 2.3678,-11.62403 1.7221,-5.22005 4.5205,-8.98709 2.7984,-3.76705 6.8345,-5.81202 4.0361,-2.04496 9.4176,-2.04496 5.4891,0 9.7405,2.15259 4.2514,2.09879 7.1574,6.02728 2.906,3.87467 4.359,9.3638 1.453,5.43531 1.453,12.10836 z m -12.9694,1.13011 v -1.13011 q 0,-4.03612 -0.7534,-7.48028 -0.7534,-3.49797 -2.3679,-6.1349 -1.6144,-2.63693 -4.1437,-4.08994 -2.4755,-1.50682 -5.9735,-1.50682 -3.4441,0 -5.9196,1.18393 -2.4755,1.13012 -4.1438,3.17508 -1.6682,2.04497 -2.5831,4.78953 -0.9148,2.69075 -1.2915,5.86583 v 10.4401 q 0.6457,3.87468 2.2064,7.10357 1.5606,3.2289 4.4128,5.16624 2.906,1.88352 7.4265,1.88352 3.4979,0 5.9734,-1.50682 2.4755,-1.50682 4.0361,-4.14375 1.6145,-2.69075 2.3679,-6.18872 0.7534,-3.49797 0.7534,-7.42646 z m 37.0247,-54.13783 v 82.65975 h -13.0232 v -82.65975 z m 36.1636,24.43198 -25.3468,28.0914 -13.8843,14.20715 -3.3903,-10.97825 10.4939,-12.9694 16.4674,-18.3509 z m -12.8617,58.22777 -18.8891,-27.33799 8.1799,-9.09472 25.7235,36.43271 z m 57.3129,-58.22777 h 11.7854 v 56.61332 q 0,7.85698 -3.3365,13.34611 -3.3365,5.48912 -9.31,8.34131 -5.9734,2.90601 -13.8304,2.90601 -3.3366,0 -7.4265,-0.96867 -4.0361,-0.96867 -7.857,-3.12127 -3.767,-2.09878 -6.2963,-5.54294 l 6.0811,-7.64172 q 3.1212,3.71323 6.8883,5.43531 3.767,1.72208 7.9108,1.72208 4.4666,0 7.5879,-1.66826 3.1751,-1.61445 4.8971,-4.78953 1.7221,-3.17508 1.7221,-7.74935 v -43.69774 z m -39.554,29.75967 v -1.13012 q 0,-6.61923 1.6144,-12.05454 1.6145,-5.48913 4.6281,-9.41762 3.0136,-3.9823 7.3188,-6.08109 4.3052,-2.15259 9.7405,-2.15259 5.6506,0 9.6329,2.04496 4.0361,2.04497 6.7269,5.86583 2.6907,3.76705 4.1975,9.04091 1.5607,5.22005 2.3141,11.62403 v 3.6056 q -0.6996,6.24253 -2.3679,11.40877 -1.6682,5.16623 -4.4128,8.93328 -2.7446,3.76704 -6.7807,5.81201 -3.9823,2.04497 -9.4176,2.04497 -5.3277,0 -9.6329,-2.20641 -4.2513,-2.20642 -7.3188,-6.18872 -3.0136,-3.98231 -4.6281,-9.3638 -1.6144,-5.43531 -1.6144,-11.78547 z m 12.9694,-1.13012 v 1.13012 q 0,3.9823 0.7534,7.42646 0.8072,3.44415 2.4217,6.08109 1.6682,2.58311 4.1975,4.08993 2.5831,1.45301 6.0811,1.45301 4.5743,0 7.4803,-1.93734 2.9598,-1.93734 4.5204,-5.22005 1.6145,-3.33653 2.2603,-7.42646 v -9.74051 q -0.3229,-3.17508 -1.3454,-5.91964 -0.9687,-2.74456 -2.6369,-4.78953 -1.6683,-2.09878 -4.1976,-3.2289 -2.5293,-1.18393 -5.9735,-1.18393 -3.4979,0 -6.081,1.50682 -2.5832,1.50682 -4.2514,4.14375 -1.6145,2.63693 -2.4217,6.13491 -0.8072,3.49797 -0.8072,7.48027 z m 84.4356,13.83044 q 0,-1.93734 -0.9686,-3.49797 -0.9687,-1.61445 -3.7133,-2.90601 -2.6907,-1.29155 -7.9646,-2.36785 -4.6281,-1.02249 -8.5027,-2.42168 -3.8209,-1.453 -6.5655,-3.49797 -2.7445,-2.04496 -4.2513,-4.84334 -1.5069,-2.79838 -1.5069,-6.45779 0,-3.55179 1.5607,-6.72687 1.5606,-3.17508 4.4666,-5.59676 2.906,-2.42167 7.0498,-3.82086 4.1975,-1.39918 9.3638,-1.39918 7.3188,0 12.5388,2.47548 5.2739,2.42168 8.0723,6.61924 2.7984,4.14375 2.7984,9.3638 h -12.9694 q 0,-2.31404 -1.184,-4.3052 -1.1301,-2.04496 -3.4441,-3.28271 -2.3141,-1.29155 -5.812,-1.29155 -3.3366,0 -5.543,1.07629 -2.1526,1.02249 -3.2289,2.69075 -1.0225,1.66826 -1.0225,3.65942 0,1.453 0.5382,2.63693 0.592,1.13011 1.9373,2.09878 1.3454,0.91486 3.6594,1.72208 2.3679,0.80722 5.9197,1.56063 6.673,1.39919 11.4626,3.6056 4.8433,2.1526 7.4264,5.59676 2.5832,3.39034 2.5832,8.61039 0,3.87467 -1.6683,7.10357 -1.6145,3.17508 -4.7357,5.54294 -3.1213,2.31404 -7.4803,3.6056 -4.3052,1.29156 -9.6867,1.29156 -7.9108,0 -13.3999,-2.79838 -5.4891,-2.85219 -8.3413,-7.26502 -2.7984,-4.46664 -2.7984,-9.25616 h 12.5389 q 0.2152,3.6056 1.9911,5.75819 1.8297,2.09879 4.5205,3.06746 2.7445,0.91485 5.6506,0.91485 3.4979,0 5.8658,-0.91485 2.3678,-0.96867 3.6056,-2.58312 1.2377,-1.66827 1.2377,-3.76705 z"
       id="text2-9-1-6-9"
       aria-label="nixpkgs" />
    <path
       style="font-weight:500;font-size:101.708px;font-family:Roboto;-inkscape-font-specification:'Roboto Medium';text-align:center;text-anchor:middle;fill:#e8effc;stroke-width:1.58919"
       d="m 1374.3283,547.11586 h 12.4155 q -0.5959,7.10168 -3.973,12.66384 -3.377,5.51249 -9.4854,8.69087 -6.1085,3.17837 -14.849,3.17837 -6.7044,0 -12.0679,-2.38378 -5.3635,-2.43344 -9.1875,-6.85337 -3.824,-4.46959 -5.8601,-10.77668 -1.9865,-6.30709 -1.9865,-14.10404 v -6.00911 q 0,-7.79695 2.0362,-14.10404 2.0858,-6.30709 5.9594,-10.77668 3.8737,-4.51925 9.2868,-6.90303 5.4629,-2.38378 12.2666,-2.38378 8.6412,0 14.6006,3.17837 5.9595,3.17838 9.2372,8.7902 3.3273,5.61181 4.0723,12.86248 h -12.4155 q -0.4967,-4.66824 -2.1852,-7.9956 -1.6388,-3.32736 -4.8669,-5.06553 -3.228,-1.78784 -8.4425,-1.78784 -4.271,0 -7.4493,1.58919 -3.1784,1.58919 -5.3139,4.66824 -2.1355,3.07905 -3.228,7.5983 -1.0429,4.46959 -1.0429,10.23039 v 6.10844 q 0,5.46284 0.9435,9.93243 0.9933,4.41992 2.9798,7.5983 2.0361,3.17837 5.1648,4.91655 3.1287,1.73817 7.499,1.73817 5.3139,0 8.5916,-1.68851 3.3273,-1.68851 5.0158,-4.91655 1.7382,-3.2777 2.2845,-7.9956 z m 34.3165,-52.74116 v 76.281 h -11.9189 v -76.281 z m -2.0858,47.42732 -3.8736,-0.0497 q 0.05,-5.56215 1.5395,-10.28005 1.5395,-4.7179 4.2709,-8.19425 2.7811,-3.52601 6.6547,-5.41317 3.8737,-1.93682 8.5916,-1.93682 3.973,0 7.1513,1.09256 3.2281,1.09257 5.5622,3.52601 2.3341,2.38378 3.526,6.25743 1.2415,3.82398 1.2415,9.33647 v 34.51517 h -12.0182 v -34.61449 q 0,-3.87364 -1.1422,-6.1581 -1.0926,-2.28446 -3.228,-3.2777 -2.1355,-1.0429 -5.2146,-1.0429 -3.228,0 -5.7111,1.29121 -2.4335,1.29121 -4.0723,3.52601 -1.6389,2.23479 -2.4831,5.16486 -0.7946,2.93006 -0.7946,6.25743 z m 77.0756,18.077 v -25.62565 q 0,-2.8804 -1.0429,-4.96621 -1.0429,-2.08581 -3.1784,-3.22803 -2.0858,-1.14223 -5.2642,-1.14223 -2.93,0 -5.0655,0.99324 -2.1355,0.99324 -3.3274,2.68175 -1.1919,1.68852 -1.1919,3.82399 h -11.9189 q 0,-3.17838 1.5396,-6.15811 1.5395,-2.97972 4.4695,-5.31384 2.9301,-2.33412 7.0024,-3.675 4.0723,-1.34087 9.1378,-1.34087 6.0588,0 10.7271,2.03614 4.7179,2.03615 7.3996,6.1581 2.7314,4.0723 2.7314,10.2304 v 23.88747 q 0,3.675 0.4966,6.60506 0.5463,2.88041 1.5396,5.01588 v 0.79459 h -12.2666 q -0.8442,-1.93682 -1.3409,-4.91655 -0.4469,-3.02939 -0.4469,-5.86013 z m 1.7382,-21.90099 0.099,7.39966 h -8.5916 q -3.3273,0 -5.8601,0.6456 -2.5328,0.59595 -4.2213,1.78784 -1.6885,1.19189 -2.5327,2.8804 -0.8443,1.68851 -0.8443,3.82399 0,2.13547 0.9933,3.9233 0.9932,1.73818 2.8804,2.73142 1.9368,0.99324 4.6682,0.99324 3.675,0 6.4064,-1.48986 2.7811,-1.53953 4.3703,-3.72466 1.5892,-2.2348 1.6885,-4.22128 l 3.8736,5.31384 q -0.5959,2.03615 -2.0361,4.37027 -1.4402,2.33412 -3.7743,4.46959 -2.2845,2.08581 -5.5125,3.42669 -3.1784,1.34087 -7.35,1.34087 -5.2642,0 -9.3862,-2.08581 -4.1219,-2.13547 -6.456,-5.71114 -2.3342,-3.62533 -2.3342,-8.19425 0,-4.27094 1.5892,-7.54864 1.6389,-3.32736 4.7676,-5.56215 3.1784,-2.2348 7.7473,-3.37703 4.5689,-1.19189 10.429,-1.19189 z m 34.6641,-9.58478 v 42.26245 h -11.9685 v -53.7344 h 11.2733 z m -2.1355,13.40877 -3.8736,-0.0497 q 0.05,-5.71114 1.5892,-10.4787 1.5892,-4.76756 4.3703,-8.19425 2.8307,-3.42669 6.754,-5.26418 3.9233,-1.88716 8.7405,-1.88716 3.8737,0 7.0024,1.09256 3.1784,1.04291 5.4132,3.42669 2.2844,2.38378 3.4763,6.20776 1.1919,3.77432 1.1919,9.28682 v 34.71381 h -12.0182 v -34.76348 q 0,-3.87364 -1.1423,-6.10844 -1.0925,-2.28445 -3.228,-3.22803 -2.0858,-0.99324 -5.2145,-0.99324 -3.0791,0 -5.5125,1.29121 -2.4335,1.29121 -4.122,3.52601 -1.6388,2.23479 -2.5327,5.16486 -0.894,2.93006 -0.894,6.25743 z m 58.7503,-13.40877 v 42.26245 h -11.9685 v -53.7344 h 11.2733 z m -2.1354,13.40877 -3.8737,-0.0497 q 0.05,-5.71114 1.5892,-10.4787 1.5892,-4.76756 4.3703,-8.19425 2.8307,-3.42669 6.754,-5.26418 3.9233,-1.88716 8.7405,-1.88716 3.8737,0 7.0024,1.09256 3.1784,1.04291 5.4132,3.42669 2.2844,2.38378 3.4763,6.20776 1.1919,3.77432 1.1919,9.28682 v 34.71381 h -12.0182 v -34.76348 q 0,-3.87364 -1.1422,-6.10844 -1.0926,-2.28445 -3.2281,-3.22803 -2.0858,-0.99324 -5.2145,-0.99324 -3.0791,0 -5.5125,1.29121 -2.4334,1.29121 -4.122,3.52601 -1.6388,2.23479 -2.5327,5.16486 -0.8939,2.93006 -0.8939,6.25743 z m 70.5698,29.84692 q -5.9594,0 -10.7767,-1.93682 -4.7675,-1.98648 -8.1445,-5.51249 -3.3274,-3.52601 -5.1152,-8.29358 -1.7879,-4.76756 -1.7879,-10.28005 v -1.98649 q 0,-6.30708 1.8375,-11.42228 1.8375,-5.1152 5.1152,-8.74053 3.2777,-3.675 7.7473,-5.61182 4.4696,-1.93682 9.6841,-1.93682 5.7608,0 10.0814,1.93682 4.3206,1.93682 7.1514,5.46283 2.8804,3.47635 4.2709,8.29357 1.4402,4.81723 1.4402,10.62769 v 5.1152 h -41.5175 v -8.59154 h 29.6979 v -0.94358 q -0.099,-3.22804 -1.2912,-6.05878 -1.1422,-2.83074 -3.526,-4.56892 -2.3838,-1.73817 -6.3567,-1.73817 -2.9798,0 -5.3139,1.29122 -2.2844,1.24155 -3.824,3.62533 -1.5395,2.38378 -2.3838,5.7608 -0.7945,3.32737 -0.7945,7.49898 v 1.98649 q 0,3.52601 0.9435,6.5554 0.9933,2.97972 2.8804,5.21452 1.8872,2.23479 4.5689,3.52601 2.6818,1.24155 6.1085,1.24155 4.3206,0 7.6976,-1.73817 3.377,-1.73818 5.8601,-4.91655 l 6.3071,6.10844 q -1.7381,2.53276 -4.5192,4.86688 -2.7811,2.28446 -6.8037,3.72466 -3.973,1.4402 -9.2372,1.4402 z m 43.6034,-77.27424 v 76.281 h -12.0183 v -76.281 z m 43.2556,61.73 q 0,-1.78783 -0.8939,-3.22803 -0.8939,-1.48987 -3.4267,-2.68176 -2.4831,-1.19189 -7.35,-2.18513 -4.2709,-0.94358 -7.8466,-2.2348 -3.526,-1.34087 -6.0587,-3.22803 -2.5328,-1.88716 -3.9233,-4.46959 -1.3906,-2.58243 -1.3906,-5.95946 0,-3.2777 1.4402,-6.20776 1.4402,-2.93006 4.122,-5.16486 2.6817,-2.23479 6.5057,-3.52601 3.8736,-1.29121 8.6412,-1.29121 6.7541,0 11.5713,2.28445 4.8669,2.2348 7.4493,6.10844 2.5824,3.82398 2.5824,8.64121 h -11.9685 q 0,-2.13547 -1.0926,-3.97297 -1.0429,-1.88716 -3.1784,-3.02939 -2.1355,-1.19189 -5.3635,-1.19189 -3.079,0 -5.1152,0.99324 -1.9865,0.94358 -2.9797,2.48311 -0.9436,1.53952 -0.9436,3.37702 0,1.34088 0.4966,2.43345 0.5463,1.0429 1.7879,1.93682 1.2415,0.84425 3.377,1.58919 2.1851,0.74493 5.4628,1.4402 6.1581,1.29121 10.5781,3.32736 4.4695,1.98648 6.8533,5.16486 2.3838,3.12871 2.3838,7.94594 0,3.57567 -1.5395,6.55539 -1.4899,2.93007 -4.3703,5.1152 -2.8804,2.13547 -6.903,3.32736 -3.973,1.19189 -8.9392,1.19189 -7.3003,0 -12.3659,-2.58243 -5.0655,-2.63209 -7.6976,-6.70438 -2.5824,-4.12196 -2.5824,-8.54188 h 11.5712 q 0.1987,3.32736 1.8375,5.31384 1.6886,1.93682 4.1717,2.83074 2.5327,0.84426 5.2145,0.84426 3.228,0 5.4132,-0.84426 2.1851,-0.89392 3.3273,-2.38378 1.1422,-1.53953 1.1422,-3.47635 z"
       id="text2-9-1-6-9-5"
       aria-label="Channels" />
    <path
       style="font-weight:500;font-size:102.215px;font-family:Roboto;-inkscape-font-specification:'Roboto Medium';text-align:center;text-anchor:middle;fill:#e8effc;stroke-width:1.59711"
       d="m 1266.3634,302.60045 h 25.7035 q 8.285,0 14.1245,2.49548 5.8394,2.49548 8.9338,7.38663 3.1443,4.84124 3.1443,11.97832 0,5.44015 -1.9964,9.58266 -1.9964,4.1425 -5.6398,6.98735 -3.6434,2.79494 -8.6843,4.34214 l -3.7931,1.84666 h -23.1082 l -0.1,-9.93203 h 17.3187 q 4.4918,0 7.4864,-1.5971 2.9946,-1.59711 4.4919,-4.34215 1.5472,-2.79494 1.5472,-6.28861 0,-3.79314 -1.4973,-6.58808 -1.4474,-2.84485 -4.4919,-4.34214 -3.0445,-1.5472 -7.736,-1.5472 h -13.1761 v 62.68654 h -12.5274 z m 41.475,72.66847 -17.0691,-32.64092 13.1262,-0.0499 17.3187,32.04201 v 0.64882 z m 45.4677,0.99819 q -5.9892,0 -10.8304,-1.94647 -4.7914,-1.99639 -8.1852,-5.53998 -3.344,-3.54358 -5.1407,-8.33491 -1.7968,-4.79133 -1.7968,-10.3313 v -1.99639 q 0,-6.33853 1.8467,-11.47922 1.8467,-5.1407 5.1407,-8.7841 3.294,-3.69332 7.7859,-5.63979 4.4919,-1.94648 9.7324,-1.94648 5.7895,0 10.1317,1.94648 4.3421,1.94647 7.1869,5.49006 2.8948,3.49368 4.2923,8.33491 1.4474,4.84124 1.4474,10.68067 v 5.1407 h -41.7245 v -8.63437 h 29.846 v -0.94829 q -0.1,-3.24413 -1.2977,-6.08898 -1.1479,-2.84485 -3.5436,-4.59169 -2.3956,-1.74684 -6.3884,-1.74684 -2.9946,0 -5.3403,1.29766 -2.2959,1.24774 -3.8431,3.6434 -1.5472,2.39567 -2.3957,5.78952 -0.7985,3.34395 -0.7985,7.53636 v 1.99639 q 0,3.54359 0.9483,6.58808 0.9982,2.99458 2.8947,5.24051 1.8966,2.24594 4.5917,3.54359 2.6951,1.24774 6.1389,1.24774 4.3422,0 7.736,-1.74684 3.3939,-1.74684 5.8893,-4.94106 l 6.3386,6.13889 q -1.7469,2.54539 -4.5418,4.89115 -2.7949,2.29584 -6.8376,3.74322 -3.9928,1.44738 -9.2832,1.44738 z M 1384.3,298.60767 h 12.0282 v 65.13212 l -1.1479,11.52913 H 1384.3 Z m 47.2644,49.16102 v 1.04811 q 0,5.98916 -1.3475,11.03003 -1.2977,4.99097 -3.9928,8.68429 -2.6452,3.69331 -6.5881,5.73961 -3.8929,1.99638 -9.0336,1.99638 -5.0409,0 -8.7841,-1.89656 -3.7433,-1.89657 -6.2887,-5.39025 -2.4954,-3.49367 -4.0426,-8.33491 -1.5472,-4.84124 -2.1961,-10.68067 v -3.34395 q 0.6489,-5.88934 2.1961,-10.68067 1.5472,-4.84123 4.0426,-8.33491 2.5454,-3.54359 6.2388,-5.44015 3.7432,-1.89657 8.7341,-1.89657 5.1907,0 9.1335,1.99639 3.9928,1.99638 6.638,5.6897 2.6452,3.6434 3.9429,8.68428 1.3475,5.04088 1.3475,11.12985 z m -12.0282,1.04811 v -1.04811 q 0,-3.6434 -0.5989,-6.83762 -0.5989,-3.24413 -1.9964,-5.6897 -1.3476,-2.44558 -3.6933,-3.84305 -2.2959,-1.44738 -5.7396,-1.44738 -3.1942,0 -5.4901,1.09802 -2.2958,1.09801 -3.843,2.99458 -1.5472,1.89656 -2.4456,4.39205 -0.8485,2.49548 -1.1479,5.39024 v 9.03365 q 0.4492,3.74323 1.8965,6.88753 1.4973,3.0944 4.1924,4.99097 2.6952,1.84666 6.9375,1.84666 3.3439,0 5.6398,-1.34756 2.2958,-1.34756 3.6434,-3.74323 1.3975,-2.44557 1.9964,-5.6897 0.6488,-3.24413 0.6488,-6.98735 z m 54.6511,13.72516 v -41.2753 h 12.0781 v 54.00226 h -11.3794 z m 1.6969,-11.22968 4.0427,-0.0998 q 0,5.44016 -1.1978,10.03184 -1.1979,4.54178 -3.6933,7.93564 -2.4955,3.34395 -6.3885,5.24052 -3.8929,1.84665 -9.3331,1.84665 -3.9429,0 -7.2369,-1.14792 -3.294,-1.14792 -5.6897,-3.54358 -2.3458,-2.39567 -3.6434,-6.23871 -1.2977,-3.84305 -1.2977,-9.18338 v -34.88686 h 12.0283 v 34.98668 q 0,2.94467 0.6987,4.94106 0.6987,1.94647 1.8966,3.1443 1.1978,1.19784 2.7949,1.69693 1.5971,0.4991 3.3939,0.4991 5.1407,0 8.0853,-1.99639 2.9946,-2.04629 4.2424,-5.49006 1.2976,-3.44377 1.2976,-7.736 z m 35.5357,-30.04562 v 54.00226 h -12.0781 v -54.00226 z m -12.8767,-14.17434 q 0,-2.74503 1.7967,-4.54178 1.8467,-1.84666 5.0908,-1.84666 3.1943,0 5.0409,1.84666 1.8467,1.79675 1.8467,4.54178 0,2.69512 -1.8467,4.49187 -1.8466,1.79674 -5.0409,1.79674 -3.2441,0 -5.0908,-1.79674 -1.7967,-1.79675 -1.7967,-4.49187 z m 38.9296,-8.48465 v 76.66125 h -12.0782 v -76.66125 z m 46.1165,65.48149 v -65.48149 h 12.0781 v 76.66125 h -10.9302 z m -35.1364,-15.22245 v -1.04811 q 0,-6.13888 1.4473,-11.17976 1.4474,-5.09079 4.1925,-8.73419 2.745,-3.69332 6.6878,-5.63979 3.9429,-1.99639 8.884,-1.99639 4.8911,0 8.5844,1.89657 3.6933,1.89656 6.2886,5.44015 2.5953,3.49368 4.1425,8.38482 1.5472,4.84124 2.1961,10.78049 v 3.34395 q -0.6489,5.78952 -2.1961,10.58085 -1.5472,4.79133 -4.1425,8.285 -2.5953,3.49368 -6.3385,5.39025 -3.6933,1.89656 -8.6344,1.89656 -4.8911,0 -8.834,-2.04629 -3.8929,-2.0463 -6.6379,-5.73961 -2.7451,-3.69332 -4.1925,-8.68429 -1.4473,-5.04087 -1.4473,-10.93021 z m 12.0282,-1.04811 v 1.04811 q 0,3.69331 0.6488,6.88753 0.6987,3.19422 2.1461,5.63979 1.4474,2.39567 3.7433,3.79314 2.3457,1.34756 5.5898,1.34756 4.0926,0 6.7378,-1.79675 2.6453,-1.79675 4.1425,-4.84124 1.5472,-3.0944 2.0963,-6.88753 v -9.03365 q -0.2995,-2.94467 -1.2478,-5.49006 -0.8984,-2.5454 -2.4456,-4.44196 -1.5472,-1.94648 -3.843,-2.99458 -2.2459,-1.09802 -5.3403,-1.09802 -3.2941,0 -5.5899,1.39747 -2.2959,1.39748 -3.7932,3.84305 -1.4473,2.44557 -2.1461,5.6897 -0.6987,3.24413 -0.6987,6.93744 z m 78.0587,12.82679 q 0,-1.79675 -0.8984,-3.24413 -0.8983,-1.49729 -3.4437,-2.69512 -2.4955,-1.19783 -7.3867,-2.19603 -4.2922,-0.94828 -7.8857,-2.24593 -3.5436,-1.34756 -6.089,-3.24413 -2.5454,-1.89657 -3.9428,-4.49187 -1.3975,-2.5953 -1.3975,-5.98916 0,-3.29404 1.4474,-6.23871 1.4474,-2.94467 4.1425,-5.1906 2.6951,-2.24594 6.5382,-3.54359 3.8929,-1.29765 8.6842,-1.29765 6.7877,0 11.629,2.29584 4.8911,2.24594 7.4864,6.13889 2.5953,3.84305 2.5953,8.68428 h -12.0282 q 0,-2.14611 -1.098,-3.99277 -1.0481,-1.89657 -3.1942,-3.04449 -2.1461,-1.19783 -5.3903,-1.19783 -3.0944,0 -5.1407,0.99819 -1.9963,0.94829 -2.9945,2.49549 -0.9483,1.5472 -0.9483,3.39385 0,1.34756 0.4991,2.44558 0.549,1.0481 1.7967,1.94647 1.2478,0.84847 3.3939,1.59711 2.196,0.74865 5.49,1.44738 6.1888,1.29765 10.6308,3.34395 4.4919,1.99639 6.8875,5.19061 2.3957,3.14431 2.3957,7.98554 0,3.5935 -1.5472,6.58808 -1.4973,2.94467 -4.3921,5.14069 -2.8947,2.14612 -6.9374,3.34395 -3.9928,1.19783 -8.9837,1.19783 -7.3368,0 -12.4275,-2.5953 -5.0908,-2.64521 -7.736,-6.7378 -2.5953,-4.14251 -2.5953,-8.58447 h 11.6289 q 0.1996,3.34395 1.8467,5.34034 1.6969,1.94648 4.1924,2.84485 2.5454,0.84846 5.2405,0.84846 3.2441,0 5.4401,-0.84846 2.1961,-0.89837 3.344,-2.39566 1.1479,-1.5472 1.1479,-3.49368 z"
       id="text2-9-1-6-9-5-5"
       aria-label="Rebuilds" />
    <path
       style="font-weight:500;font-size:80.8185px;font-family:Roboto;-inkscape-font-specification:'Roboto Medium';text-align:center;text-anchor:middle;fill:#e8effc;stroke-width:1.26279"
       d="m 1444.0809,733.10213 v 21.94096 q -1.2234,1.61795 -3.8279,3.55159 -2.565,1.89419 -6.8269,3.27536 -4.2619,1.38118 -10.6153,1.38118 -5.4064,0 -9.905,-1.81526 -4.4987,-1.85472 -7.7741,-5.40632 -3.2359,-3.55159 -5.0117,-8.64221 -1.7758,-5.13008 -1.7758,-11.6808 v -3.98567 q 0,-6.51126 1.618,-11.60188 1.6574,-5.13008 4.7354,-8.68167 3.0781,-3.5516 7.4189,-5.36686 4.3803,-1.85472 9.905,-1.85472 7.0637,0 11.6808,2.36773 4.6565,2.32827 7.1821,6.4718 2.5256,4.14352 3.1965,9.47091 h -9.7077 q -0.4736,-2.99912 -1.8548,-5.36685 -1.3417,-2.36773 -3.8672,-3.70944 -2.4862,-1.38118 -6.4718,-1.38118 -3.4332,0 -6.0377,1.30225 -2.6046,1.30225 -4.3409,3.82783 -1.6969,2.52558 -2.565,6.1561 -0.8682,3.63052 -0.8682,8.28705 v 4.0646 q 0,4.73546 0.9866,8.40544 1.026,3.66998 2.9202,6.19556 1.9336,2.52558 4.696,3.82783 2.7623,1.26279 6.235,1.26279 3.3937,0 5.5641,-0.55247 2.1705,-0.59193 3.4332,-1.38118 1.3023,-0.8287 2.0126,-1.57848 v -11.40457 h -11.957 v -7.37942 z m 28.8073,30.14909 q -4.7354,0 -8.5633,-1.53903 -3.7883,-1.57848 -6.4717,-4.3803 -2.644,-2.80181 -4.0647,-6.59018 -1.4206,-3.78836 -1.4206,-8.16866 v -1.57849 q 0,-5.01169 1.4601,-9.07629 1.4601,-4.06461 4.0646,-6.94534 2.6045,-2.9202 6.1561,-4.45923 3.5516,-1.53902 7.6951,-1.53902 4.5776,0 8.0108,1.53902 3.4333,1.53903 5.6826,4.34084 2.2888,2.76235 3.3937,6.59018 1.1444,3.82783 1.1444,8.4449 v 4.0646 h -32.9903 v -6.82695 h 23.5984 v -0.74978 q -0.079,-2.56504 -1.0261,-4.81438 -0.9076,-2.24935 -2.8018,-3.63052 -1.8942,-1.38118 -5.0511,-1.38118 -2.3678,0 -4.2225,1.02602 -1.8152,0.98655 -3.0386,2.88074 -1.2233,1.89418 -1.8942,4.57761 -0.6313,2.64396 -0.6313,5.95878 v 1.57849 q 0,2.80181 0.7497,5.209 0.7893,2.36773 2.2888,4.14353 1.4996,1.7758 3.6306,2.80181 2.1309,0.98656 4.8538,0.98656 3.4332,0 6.1166,-1.38118 2.6835,-1.38117 4.6566,-3.90675 l 5.0117,4.85384 q -1.3812,2.01257 -3.5911,3.86729 -2.2099,1.81526 -5.4063,2.95967 -3.157,1.1444 -7.34,1.1444 z m 33.898,-34.37154 v 33.5823 h -9.5104 v -42.69806 h 8.958 z m -1.6969,10.65478 -3.078,-0.0395 q 0.04,-4.53815 1.2628,-8.32652 1.2628,-3.78836 3.4727,-6.51125 2.2493,-2.72289 5.3668,-4.18299 3.1175,-1.49956 6.9454,-1.49956 3.078,0 5.5641,0.86817 2.5256,0.8287 4.3014,2.72288 1.8152,1.89419 2.7623,4.93277 0.9471,2.99913 0.9471,7.37943 v 27.58405 h -9.5498 v -27.62351 q 0,-3.07805 -0.9076,-4.85385 -0.8682,-1.81526 -2.5651,-2.56504 -1.6574,-0.78924 -4.1435,-0.78924 -2.4467,0 -4.3803,1.02601 -1.9336,1.02602 -3.2754,2.80182 -1.3022,1.77579 -2.0125,4.10406 -0.7104,2.32827 -0.7104,4.97223 z m 56.0758,23.71676 q -4.7355,0 -8.5633,-1.53903 -3.7884,-1.57848 -6.4718,-4.3803 -2.644,-2.80181 -4.0646,-6.59018 -1.4206,-3.78836 -1.4206,-8.16866 v -1.57849 q 0,-5.01169 1.4601,-9.07629 1.4601,-4.06461 4.0646,-6.94534 2.6045,-2.9202 6.1561,-4.45923 3.5515,-1.53902 7.6951,-1.53902 4.5776,0 8.0108,1.53902 3.4332,1.53903 5.6825,4.34084 2.2888,2.76235 3.3938,6.59018 1.1444,3.82783 1.1444,8.4449 v 4.0646 h -32.9904 v -6.82695 h 23.5984 v -0.74978 q -0.079,-2.56504 -1.026,-4.81438 -0.9076,-2.24935 -2.8018,-3.63052 -1.8942,-1.38118 -5.0512,-1.38118 -2.3677,0 -4.2224,1.02602 -1.8153,0.98655 -3.0386,2.88074 -1.2234,1.89418 -1.8942,4.57761 -0.6314,2.64396 -0.6314,5.95878 v 1.57849 q 0,2.80181 0.7498,5.209 0.7892,2.36773 2.2888,4.14353 1.4995,1.7758 3.6305,2.80181 2.131,0.98656 4.8538,0.98656 3.4333,0 6.1167,-1.38118 2.6834,-1.38117 4.6565,-3.90675 l 5.0117,4.85384 q -1.3812,2.01257 -3.591,3.86729 -2.2099,1.81526 -5.4064,2.95967 -3.1569,1.1444 -7.3399,1.1444 z m 34.0164,-35.35809 v 34.56885 h -9.5104 v -42.69806 h 9.0763 z m 13.0619,-8.40544 -0.079,8.83952 q -0.8682,-0.15785 -1.8942,-0.23677 -0.9865,-0.0789 -1.9731,-0.0789 -2.4466,0 -4.3014,0.71032 -1.8547,0.67086 -3.1175,1.97311 -1.2233,1.26279 -1.8941,3.07805 -0.6709,1.81526 -0.7893,4.0646 l -2.1704,0.15785 q 0,-4.02514 0.7892,-7.45835 0.7893,-3.43321 2.3678,-6.03771 1.6179,-2.6045 4.0251,-4.0646 2.4467,-1.4601 5.6431,-1.4601 0.8682,0 1.8547,0.15785 1.026,0.15785 1.539,0.35516 z m 28.5971,34.411 v -20.36248 q 0,-2.2888 -0.8287,-3.94621 -0.8287,-1.65741 -2.5255,-2.56504 -1.6574,-0.90763 -4.183,-0.90763 -2.3283,0 -4.0252,0.78924 -1.6968,0.78925 -2.6439,2.13096 -0.9471,1.34171 -0.9471,3.03858 h -9.4709 q 0,-2.52557 1.2233,-4.8933 1.2233,-2.36773 3.5516,-4.22245 2.3282,-1.85473 5.5641,-2.9202 3.2359,-1.06548 7.2611,-1.06548 4.8144,0 8.5238,1.61795 3.7489,1.61795 5.8799,4.8933 2.1704,3.2359 2.1704,8.12921 v 18.9813 q 0,2.9202 0.3946,5.24846 0.4341,2.28881 1.2233,3.98568 v 0.6314 h -9.7471 q -0.6709,-1.53903 -1.0655,-3.90676 -0.3552,-2.40719 -0.3552,-4.65653 z m 1.3812,-17.40281 0.079,5.87986 h -6.8269 q -2.644,0 -4.6565,0.51301 -2.0126,0.47354 -3.3543,1.42063 -1.3417,0.94709 -2.0126,2.28881 -0.6709,1.34171 -0.6709,3.03858 0,1.69688 0.7893,3.11751 0.7892,1.38118 2.2888,2.17042 1.539,0.78925 3.7094,0.78925 2.9202,0 5.0907,-1.18387 2.2098,-1.22333 3.4726,-2.95966 1.2628,-1.7758 1.3417,-3.35428 l 3.0781,4.22245 q -0.4736,1.61795 -1.618,3.47267 -1.1444,1.85472 -2.9991,3.55159 -1.8152,1.65741 -4.3803,2.72289 -2.5256,1.06548 -5.8404,1.06548 -4.183,0 -7.4583,-1.65741 -3.2754,-1.69688 -5.1301,-4.53815 -1.8547,-2.88074 -1.8547,-6.51126 0,-3.39374 1.2628,-5.99824 1.3022,-2.64397 3.7883,-4.41977 2.5256,-1.77579 6.1561,-2.68342 3.6305,-0.94709 8.2871,-0.94709 z m 37.6864,-16.73196 v 6.94534 h -24.0719 v -6.94534 z m -17.1266,-10.45747 h 9.5104 v 41.35634 q 0,1.97311 0.5524,3.03859 0.592,1.02601 1.618,1.38117 1.026,0.35516 2.4072,0.35516 0.9865,0 1.8942,-0.11839 0.9076,-0.11838 1.4601,-0.23677 l 0.039,7.26104 q -1.1838,0.35516 -2.7623,0.63139 -1.539,0.27624 -3.5516,0.27624 -3.2754,0 -5.801,-1.1444 -2.5255,-1.18387 -3.9462,-3.82783 -1.4206,-2.64397 -1.4206,-7.02427 z m 34.6478,10.45747 v 42.69806 h -9.5499 v -42.69806 z m -10.1813,-11.20725 q 0,-2.17042 1.4207,-3.59106 1.4601,-1.4601 4.0251,-1.4601 2.5256,0 3.9857,1.4601 1.4601,1.42064 1.4601,3.59106 0,2.13096 -1.4601,3.55159 -1.4601,1.42064 -3.9857,1.42064 -2.565,0 -4.0251,-1.42064 -1.4207,-1.42063 -1.4207,-3.55159 z m 18.784,33.02982 v -0.90763 q 0,-4.61707 1.3417,-8.56328 1.3418,-3.98568 3.8673,-6.90588 2.5651,-2.95966 6.2351,-4.57761 3.7094,-1.65741 8.3659,-1.65741 4.696,0 8.366,1.65741 3.7095,1.61795 6.2745,4.57761 2.565,2.9202 3.9067,6.90588 1.3418,3.94621 1.3418,8.56328 v 0.90763 q 0,4.61708 -1.3418,8.56329 -1.3417,3.94622 -3.9067,6.90588 -2.565,2.9202 -6.235,4.57761 -3.67,1.61795 -8.3265,1.61795 -4.696,0 -8.4055,-1.61795 -3.67,-1.65741 -6.235,-4.57761 -2.565,-2.95966 -3.9068,-6.90588 -1.3417,-3.94621 -1.3417,-8.56329 z m 9.5104,-0.90763 v 0.90763 q 0,2.88074 0.5919,5.44578 0.592,2.56504 1.8548,4.49869 1.2628,1.93364 3.2359,3.03858 1.9731,1.10494 4.696,1.10494 2.6439,0 4.5776,-1.10494 1.9731,-1.10494 3.2359,-3.03858 1.2628,-1.93365 1.8547,-4.49869 0.6314,-2.56504 0.6314,-5.44578 v -0.90763 q 0,-2.84127 -0.6314,-5.36685 -0.5919,-2.56504 -1.8942,-4.53815 -1.2628,-1.9731 -3.2359,-3.07804 -1.9336,-1.14441 -4.6171,-1.14441 -2.6834,0 -4.6565,1.14441 -1.9336,1.10494 -3.1964,3.07804 -1.2628,1.97311 -1.8548,4.53815 -0.5919,2.52558 -0.5919,5.36685 z m 47.5914,-11.79918 v 33.5823 h -9.5104 v -42.69806 h 8.9579 z m -1.6969,10.65478 -3.0781,-0.0395 q 0.04,-4.53815 1.2628,-8.32652 1.2628,-3.78836 3.4727,-6.51125 2.2493,-2.72289 5.3668,-4.18299 3.1176,-1.49956 6.9454,-1.49956 3.078,0 5.5641,0.86817 2.5256,0.8287 4.3014,2.72288 1.8153,1.89419 2.7624,4.93277 0.9471,2.99913 0.9471,7.37943 v 27.58405 h -9.5499 v -27.62351 q 0,-3.07805 -0.9076,-4.85385 -0.8682,-1.81526 -2.565,-2.56504 -1.6575,-0.78924 -4.1436,-0.78924 -2.4466,0 -4.3803,1.02601 -1.9336,1.02602 -3.2753,2.80182 -1.3023,1.77579 -2.0126,4.10406 -0.7103,2.32827 -0.7103,4.97223 z m 61.2058,11.3651 q 0,-1.42063 -0.7103,-2.56504 -0.7103,-1.18386 -2.7229,-2.13095 -1.9731,-0.9471 -5.8404,-1.73634 -3.3937,-0.74978 -6.235,-1.7758 -2.8018,-1.06547 -4.8144,-2.56504 -2.0126,-1.49956 -3.1175,-3.55159 -1.105,-2.05203 -1.105,-4.73546 0,-2.6045 1.1444,-4.93277 1.1444,-2.32827 3.2754,-4.10406 2.131,-1.7758 5.1695,-2.80182 3.0781,-1.02601 6.8665,-1.02601 5.3668,0 9.1946,1.81526 3.8673,1.77579 5.9194,4.85384 2.052,3.03859 2.052,6.86642 h -9.5104 q 0,-1.69687 -0.8681,-3.15697 -0.8288,-1.49957 -2.5256,-2.4072 -1.6969,-0.94709 -4.2619,-0.94709 -2.4467,0 -4.0646,0.78925 -1.5785,0.74978 -2.3678,1.9731 -0.7497,1.22333 -0.7497,2.68343 0,1.06548 0.3946,1.93365 0.4341,0.8287 1.4206,1.53902 0.9866,0.67086 2.6834,1.26279 1.7364,0.59193 4.3409,1.1444 4.8933,1.02602 8.4054,2.64397 3.5516,1.57848 5.4458,4.10406 1.8942,2.48612 1.8942,6.31395 0,2.84127 -1.2234,5.209 -1.1838,2.32827 -3.4726,4.0646 -2.2888,1.69687 -5.4853,2.64397 -3.1569,0.94709 -7.1031,0.94709 -5.801,0 -9.8261,-2.05203 -4.0252,-2.0915 -6.1167,-5.3274 -2.052,-3.27535 -2.052,-6.78749 h 9.1947 q 0.1578,2.64397 1.4601,4.22245 1.3417,1.53903 3.3148,2.24935 2.0126,0.67085 4.1435,0.67085 2.5651,0 4.3014,-0.67085 1.7363,-0.71032 2.644,-1.89419 0.9076,-1.22332 0.9076,-2.76235 z"
       id="text2-9-1-6-9-5-5-8"
       aria-label="Generations" />
    <path
       style="font-weight:500;font-size:82.1128px;font-family:Roboto;-inkscape-font-specification:'Roboto Medium';text-align:center;text-anchor:middle;fill:#e8effc;stroke-width:1.28301"
       d="m 889.98947,472.03711 v 3.20753 q 0,6.61553 -1.72405,11.86786 -1.72405,5.25234 -4.93158,8.941 -3.16744,3.68866 -7.61789,5.65327 -4.45045,1.92452 -9.86316,1.92452 -5.37261,0 -9.82306,-1.92452 -4.41036,-1.96461 -7.65798,-5.65327 -3.24763,-3.68866 -5.05186,-8.941 -1.76415,-5.25233 -1.76415,-11.86786 v -3.20753 q 0,-6.61554 1.76415,-11.82778 1.76414,-5.25233 4.97167,-8.94099 3.24762,-3.72875 7.65798,-5.65327 4.45045,-1.96462 9.82306,-1.96462 5.41271,0 9.86316,1.96462 4.45045,1.92452 7.65798,5.65327 3.20753,3.68866 4.93158,8.94099 1.76415,5.21224 1.76415,11.82778 z m -10.06363,3.20753 v -3.28772 q 0,-4.89149 -0.96226,-8.62024 -0.92217,-3.76885 -2.7665,-6.29478 -1.80424,-2.56603 -4.45045,-3.84904 -2.64621,-1.32311 -5.97403,-1.32311 -3.32781,0 -5.93393,1.32311 -2.60612,1.28301 -4.45045,3.84904 -1.80423,2.52593 -2.76649,6.29478 -0.96226,3.72875 -0.96226,8.62024 v 3.28772 q 0,4.89148 0.96226,8.66033 0.96226,3.76885 2.80659,6.37497 1.88442,2.56603 4.49054,3.88913 2.60612,1.28301 5.93393,1.28301 3.36791,0 5.97403,-1.28301 2.60612,-1.3231 4.41035,-3.88913 1.80424,-2.60612 2.72641,-6.37497 0.96226,-3.76885 0.96226,-8.66033 z m 33.23804,19.92679 10.62495,-35.72388 h 10.02353 l -15.07539,43.38186 h -6.25469 z m -8.13911,-35.72388 10.82542,35.88425 0.52122,7.49761 h -6.25469 l -15.15558,-43.38186 z m 53.36531,44.18374 q -4.8113,0 -8.70043,-1.56367 -3.84904,-1.60377 -6.57544,-4.45045 -2.68631,-2.84669 -4.1297,-6.69572 -1.44339,-3.84904 -1.44339,-8.29949 v -1.60377 q 0,-5.09195 1.48349,-9.22165 1.48348,-4.12969 4.12969,-7.05657 2.64621,-2.96696 6.25469,-4.53064 3.60847,-1.56367 7.81836,-1.56367 4.65092,0 8.13911,1.56367 3.48819,1.56368 5.77355,4.41036 2.32546,2.80659 3.4481,6.69572 1.16273,3.88913 1.16273,8.58015 v 4.12969 h -33.5187 v -6.93628 h 23.97629 v -0.76179 q -0.0802,-2.60612 -1.04244,-4.89149 -0.92217,-2.28536 -2.84669,-3.68866 -1.92452,-1.40329 -5.13205,-1.40329 -2.40565,0 -4.29007,1.04245 -1.84433,1.00235 -3.08725,2.92687 -1.24292,1.92452 -1.92452,4.65092 -0.64151,2.68631 -0.64151,6.05421 v 1.60377 q 0,2.84668 0.76179,5.29243 0.80189,2.40564 2.32546,4.20988 1.52358,1.80424 3.68866,2.84669 2.16509,1.00235 4.93158,1.00235 3.48819,0 6.2146,-1.4033 2.7264,-1.40329 4.7311,-3.96932 l 5.09196,4.93158 q -1.4033,2.0448 -3.64857,3.92923 -2.24527,1.84433 -5.49289,3.00706 -3.20754,1.16273 -7.45751,1.16273 z m 34.56115,-35.92435 v 35.12247 h -9.66269 v -43.38186 h 9.22165 z m 13.27117,-8.54005 -0.08,8.98108 q -0.8821,-0.16037 -1.9245,-0.24056 -1.0024,-0.0802 -2.0047,-0.0802 -2.48586,0 -4.37029,0.7217 -1.88442,0.6816 -3.16743,2.0047 -1.24292,1.28302 -1.92452,3.12735 -0.6816,1.84433 -0.80189,4.12969 l -2.20517,0.16038 q 0,-4.0896 0.80188,-7.57779 0.80188,-3.48819 2.40565,-6.13441 1.64386,-2.64621 4.0896,-4.12969 2.48584,-1.48349 5.73347,-1.48349 0.8821,0 1.8844,0.16038 1.0425,0.16038 1.5637,0.36085 z m 16.3985,-17.92208 v 61.5846 h -9.7028 v -61.5846 z m 35.0423,52.88417 V 473.4404 q 0,-2.32546 -0.842,-4.00941 -0.842,-1.68396 -2.566,-2.60612 -1.684,-0.92217 -4.25,-0.92217 -2.3656,0 -4.0896,0.80189 -1.7241,0.80188 -2.6863,2.16508 -0.9623,1.3632 -0.9623,3.08725 h -9.6226 q 0,-2.56603 1.2429,-4.97168 1.243,-2.40564 3.6085,-4.29007 2.3656,-1.88442 5.6533,-2.96696 3.2877,-1.08255 7.3773,-1.08255 4.8915,0 8.6603,1.64386 3.809,1.64386 5.9741,4.97168 2.2051,3.28772 2.2051,8.25939 v 19.28528 q 0,2.96697 0.401,5.33252 0.441,2.32546 1.2429,4.04951 v 0.64151 h -9.9032 q -0.6816,-1.56367 -1.0826,-3.96932 -0.3608,-2.44575 -0.3608,-4.73111 z m 1.4033,-17.68152 0.08,5.97403 h -6.9362 q -2.6863,0 -4.7311,0.52122 -2.0448,0.48113 -3.4081,1.44339 -1.3632,0.96226 -2.0448,2.32546 -0.6816,1.3632 -0.6816,3.08725 0,1.72405 0.8019,3.16744 0.8019,1.40329 2.3255,2.20518 1.5637,0.80188 3.7688,0.80188 2.967,0 5.1722,-1.20283 2.2453,-1.24291 3.5283,-3.00706 1.283,-1.80423 1.3632,-3.408 l 3.1273,4.29007 q -0.4811,1.64386 -1.6438,3.52829 -1.1628,1.88442 -3.0472,3.60847 -1.8443,1.68396 -4.4505,2.7665 -2.566,1.08254 -5.9339,1.08254 -4.25,0 -7.5778,-1.68395 -3.3278,-1.72405 -5.2122,-4.61083 -1.8844,-2.92687 -1.8844,-6.61553 0,-3.4481 1.283,-6.09431 1.3231,-2.68631 3.849,-4.49055 2.566,-1.80423 6.2547,-2.7264 3.6887,-0.96226 8.4198,-0.96226 z m 30.3913,21.65084 11.7877,-38.65075 h 10.3443 l -17.4009,49.99739 q -0.6014,1.60377 -1.5636,3.48819 -0.9623,1.88442 -2.526,3.56838 -1.5236,1.72405 -3.8089,2.76649 -2.2854,1.08255 -5.533,1.08255 -1.283,0 -2.4858,-0.24057 -1.1628,-0.20047 -2.2052,-0.44103 l -0.04,-7.37733 q 0.4009,0.0401 0.9622,0.0802 0.6015,0.0401 0.9623,0.0401 2.4056,0 4.0094,-0.60142 1.6038,-0.56131 2.6061,-1.84433 1.0425,-1.28301 1.7642,-3.44809 z m -6.6556,-38.65075 10.3042,32.47625 1.724,10.18391 -6.6957,1.72405 -15.757,-44.38421 z m 58.6176,31.63427 q 0,-1.44339 -0.7217,-2.60612 -0.7217,-1.20282 -2.7665,-2.16508 -2.0047,-0.96226 -5.9339,-1.76414 -3.4481,-0.76179 -6.3349,-1.80424 -2.8467,-1.08254 -4.8915,-2.60612 -2.0448,-1.52357 -3.1674,-3.60847 -1.1226,-2.0849 -1.1226,-4.8113 0,-2.64621 1.1627,-5.01176 1.1627,-2.36556 3.3278,-4.16979 2.1651,-1.80424 5.2523,-2.84669 3.1274,-1.04245 6.9764,-1.04245 5.4528,0 9.342,1.84433 3.9292,1.80424 6.0141,4.93158 2.0849,3.08725 2.0849,6.97638 h -9.6627 q 0,-1.72404 -0.8821,-3.20753 -0.842,-1.52357 -2.566,-2.44574 -1.7241,-0.96226 -4.3302,-0.96226 -2.4858,0 -4.1297,0.80188 -1.6037,0.76179 -2.4056,2.00471 -0.7618,1.24292 -0.7618,2.7264 0,1.08254 0.4009,1.96461 0.4411,0.84198 1.4434,1.56368 1.0024,0.6816 2.7264,1.28301 1.7642,0.60141 4.4104,1.16273 4.9716,1.04245 8.54,2.68631 3.6085,1.60376 5.533,4.16979 1.9245,2.52593 1.9245,6.41506 0,2.88678 -1.2429,5.29243 -1.2028,2.36555 -3.5283,4.12969 -2.3254,1.72405 -5.5731,2.68631 -3.2075,0.96226 -7.2169,0.96226 -5.8938,0 -9.9834,-2.0849 -4.0896,-2.12499 -6.2146,-5.4127 -2.0849,-3.32782 -2.0849,-6.8962 h 9.3419 q 0.1604,2.68631 1.4835,4.29008 1.3632,1.56367 3.3679,2.28536 2.0448,0.6816 4.2099,0.6816 2.6061,0 4.3702,-0.6816 1.7642,-0.72169 2.6864,-1.92452 0.9221,-1.24292 0.9221,-2.80659 z"
       id="text2-9-1-6-9-5-5-8-0"
       inkscape:transform-center-x="5.1820203"
       inkscape:transform-center-y="10.364013"
       aria-label="Overlays" />
    <path
       style="font-weight:500;font-size:110.627px;font-family:Roboto;-inkscape-font-specification:'Roboto Medium';text-align:center;text-anchor:middle;fill:#e8effc;stroke-width:1.72855"
       d="m 637.26853,259.67045 v 78.64889 h -13.55828 l -35.27316,-56.33983 v 56.33983 H 574.8788 v -78.64889 h 13.55829 l 35.38119,56.44786 v -56.44786 z m 28.7371,20.2024 v 58.44649 h -13.07214 v -58.44649 z m -13.93641,-15.34086 q 0,-2.97094 1.94461,-4.91555 1.99864,-1.99864 5.50975,-1.99864 3.45709,0 5.45572,1.99864 1.99863,1.94461 1.99863,4.91555 0,2.91692 -1.99863,4.86154 -1.99863,1.94462 -5.45572,1.94462 -3.51111,0 -5.50975,-1.94462 -1.94461,-1.94462 -1.94461,-4.86154 z m 38.13606,15.34086 11.12753,19.39213 11.34358,-19.39213 h 14.31453 l -17.7176,28.68307 18.41982,29.76342 h -14.31452 l -11.88376,-20.2024 -11.88376,20.2024 h -14.36855 l 18.36581,-29.76342 -17.66359,-28.68307 z m 71.89674,19.66222 v 10.37128 h -28.57504 v -10.37128 z m 54.07112,18.52786 q 0,-2.43077 -0.75624,-4.32137 -0.70222,-1.8906 -2.5388,-3.45709 -1.83658,-1.5665 -5.18564,-3.02496 -3.29505,-1.51248 -8.42667,-3.07897 -5.61778,-1.72855 -10.37128,-3.83522 -4.69949,-2.16068 -8.2106,-4.96957 -3.51111,-2.86291 -5.45573,-6.53607 -1.94461,-3.72718 -1.94461,-8.58872 0,-4.80752 1.99863,-8.75076 2.05265,-3.94325 5.77983,-6.80616 3.7812,-2.91692 8.91282,-4.48342 5.13162,-1.62051 11.34359,-1.62051 8.75077,0 15.07077,3.24103 6.37401,3.24102 9.77709,8.69675 3.45709,5.45572 3.45709,12.04581 h -13.45025 q 0,-3.88923 -1.67453,-6.86017 -1.62051,-3.02496 -4.96957,-4.7535 -3.29505,-1.72855 -8.37265,-1.72855 -4.80752,0 -7.99453,1.45846 -3.18701,1.45846 -4.75351,3.94325 -1.56649,2.48478 -1.56649,5.61777 0,2.21471 1.02632,4.05129 1.02633,1.78256 3.13299,3.34906 2.10667,1.51247 5.29368,2.8629 3.18701,1.35043 7.50838,2.59282 6.53606,1.94462 11.3976,4.32137 4.86154,2.32273 8.10256,5.29367 3.24103,2.97094 4.86154,6.75214 1.62052,3.72718 1.62052,8.48068 0,4.96958 -1.99864,8.96684 -1.99863,3.94325 -5.72581,6.75214 -3.67316,2.75487 -8.8588,4.26735 -5.13162,1.45846 -11.45162,1.45846 -5.6718,0 -11.18154,-1.51248 -5.45573,-1.51248 -9.93915,-4.59145 -4.48341,-3.13299 -7.13025,-7.77846 -2.64684,-4.69949 -2.64684,-10.96547 h 13.55829 q 0,3.83521 1.29641,6.53606 1.35043,2.70086 3.72718,4.42941 2.37675,1.67453 5.50974,2.48478 3.18701,0.81026 6.80616,0.81026 4.7535,0 7.94051,-1.35043 3.24102,-1.35043 4.86154,-3.7812 1.62051,-2.43076 1.62051,-5.61777 z m 51.10016,-38.19008 v 9.507 h -32.95042 v -9.507 z M 843.82988,265.55832 H 856.848 v 56.60991 q 0,2.70085 0.75624,4.15931 0.81026,1.40445 2.2147,1.8906 1.40445,0.48615 3.29504,0.48615 1.35043,0 2.59282,-0.16205 1.2424,-0.16205 1.99864,-0.3241 l 0.054,9.93914 q -1.62051,0.48616 -3.78119,0.86428 -2.10667,0.37812 -4.86154,0.37812 -4.48342,0 -7.94051,-1.5665 -3.4571,-1.62051 -5.40171,-5.23966 -1.94462,-3.61914 -1.94462,-9.61504 z m 29.72713,44.18598 v -1.2424 q 0,-6.32 1.83658,-11.72171 1.83658,-5.45572 5.29368,-9.45299 3.51111,-4.05128 8.5347,-6.26598 5.0776,-2.26872 11.45162,-2.26872 6.42803,0 11.45162,2.26872 5.07761,2.2147 8.58872,6.26598 3.51111,3.99727 5.34769,9.45299 1.83658,5.40171 1.83658,11.72171 v 1.2424 q 0,6.32 -1.83658,11.7217 -1.83658,5.40171 -5.34769,9.45299 -3.51111,3.99727 -8.5347,6.26599 -5.02359,2.2147 -11.39761,2.2147 -6.42803,0 -11.50564,-2.2147 -5.02358,-2.26872 -8.5347,-6.26599 -3.51111,-4.05128 -5.34769,-9.45299 -1.83658,-5.4017 -1.83658,-11.7217 z m 13.01812,-1.2424 v 1.2424 q 0,3.94324 0.81026,7.45435 0.81025,3.51111 2.5388,6.15795 1.72855,2.64684 4.4294,4.15932 2.70086,1.51248 6.42803,1.51248 3.61915,0 6.26599,-1.51248 2.70085,-1.51248 4.4294,-4.15932 1.72855,-2.64684 2.5388,-6.15795 0.86428,-3.51111 0.86428,-7.45435 v -1.2424 q 0,-3.88923 -0.86428,-7.34632 -0.81025,-3.51111 -2.59282,-6.21197 -1.72855,-2.70085 -4.4294,-4.21333 -2.64684,-1.5665 -6.32,-1.5665 -3.67316,0 -6.37402,1.5665 -2.64683,1.51248 -4.37538,4.21333 -1.72855,2.70086 -2.5388,6.21197 -0.81026,3.45709 -0.81026,7.34632 z m 65.30666,-17.50153 v 47.31897 h -13.01812 v -58.44649 h 12.42393 z m 17.87965,-11.50564 -0.10803,12.09982 q -1.18838,-0.21606 -2.59282,-0.3241 -1.35043,-0.10803 -2.70086,-0.10803 -3.34906,0 -5.88786,0.9723 -2.5388,0.9183 -4.26735,2.70086 -1.67453,1.72855 -2.59282,4.21333 -0.91829,2.48479 -1.08034,5.56376 l -2.97094,0.21607 q 0,-5.50974 1.08034,-10.20923 1.08034,-4.69949 3.24103,-8.26461 2.2147,-3.56513 5.50974,-5.56376 3.34906,-1.99864 7.72444,-1.99864 1.18838,0 2.53881,0.21607 1.40444,0.21607 2.10666,0.48616 z m 32.89646,59.90495 q -6.48209,0 -11.72174,-2.10667 -5.18564,-2.16068 -8.85881,-5.9959 -3.61914,-3.83521 -5.56376,-9.02085 -1.94461,-5.18564 -1.94461,-11.18154 v -2.16068 q 0,-6.86017 1.99863,-12.42393 1.99863,-5.56376 5.56376,-9.50701 3.56513,-3.99726 8.42667,-6.10393 4.86153,-2.10667 10.53336,-2.10667 6.266,0 10.9654,2.10667 4.6995,2.10667 7.7785,5.94188 3.133,3.7812 4.6455,9.02085 1.5665,5.23966 1.5665,11.55966 v 5.56376 h -45.15832 v -9.34496 h 32.30222 v -1.02632 q -0.108,-3.51111 -1.4044,-6.59008 -1.2424,-3.07898 -3.8353,-4.96958 -2.5928,-1.8906 -6.9141,-1.8906 -3.24107,0 -5.77988,1.40445 -2.48478,1.35043 -4.15931,3.94325 -1.67453,2.59282 -2.59282,6.26598 -0.86428,3.61914 -0.86428,8.15658 v 2.16068 q 0,3.83522 1.02633,7.13026 1.08034,3.24102 3.13299,5.67179 2.05265,2.43077 4.96957,3.83522 2.91692,1.35042 6.6441,1.35042 4.6995,0 8.3727,-1.89059 3.6731,-1.8906 6.374,-5.3477 l 6.8601,6.64411 q -1.8906,2.75487 -4.9155,5.29367 -3.025,2.48479 -7.4004,4.05128 -4.3213,1.5665 -10.0471,1.5665 z"
       id="text2-9-1-6-3"
       aria-label="Nix-Store" />
  </g>
</svg>
