<?xml version="1.0" encoding="UTF-8" standalone="no"?>
<!-- Created with Inkscape (http://www.inkscape.org/) -->

<svg
   width="493.35608"
   height="211.5116"
   viewBox="0 0 493.35608 211.5116"
   version="1.1"
   id="svg1"
   sodipodi:docname="integrate-os.svg"
   inkscape:version="1.4.3 (0d15f75042, 2025-12-25)"
   xmlns:inkscape="http://www.inkscape.org/namespaces/inkscape"
   xmlns:sodipodi="http://sodipodi.sourceforge.net/DTD/sodipodi-0.dtd"
   xmlns="http://www.w3.org/2000/svg"
   xmlns:svg="http://www.w3.org/2000/svg">
  <sodipodi:namedview
     id="namedview1"
     pagecolor="#505050"
     bordercolor="#eeeeee"
     borderopacity="1"
     inkscape:showpageshadow="0"
     inkscape:pageopacity="0"
     inkscape:pagecheckerboard="0"
     inkscape:deskcolor="#505050"
     inkscape:zoom="1.5687759"
     inkscape:cx="139.91801"
     inkscape:cy="-24.222707"
     inkscape:window-width="2752"
     inkscape:window-height="1124"
     inkscape:window-x="0"
     inkscape:window-y="0"
     inkscape:window-maximized="1"
     inkscape:current-layer="layer1" />
  <defs
     id="defs1" />
  <g
     id="layer1"
     transform="translate(-620.63928,-530.5302)">
    <path
       id="rect1"
       style="fill:#28395f;fill-opacity:1;stroke-width:0.829198"
       d="M 1113.9947 538.51067 L 620.63928 606.35442 L 620.63928 674.19817 L 1113.9947 674.19817 L 1113.9947 606.35442 L 1113.9947 538.51067 z " />
    <path
       fill="currentColor"
       d="m 836.81503,591.49504 v -30.90698 l 35.32224,-7.77091 v 38.14804 z m 100.07974,-52.9834 v 51.51165 l -58.87044,0.88307 v -39.38434 z m -100.07974,58.87043 35.32224,0.52987 v 40.09074 l -35.32224,-6.77012 z m 100.07974,1.47179 v 51.51163 L 878.02433,639.12124 V 597.9708 Z"
       id="path1-9"
       style="fill:#e8effc;fill-opacity:1;stroke-width:5.88704" />
    <path
       fill="currentColor"
       d="m 1044.679,582.6019 c -2.8177,1.8785 -11.7407,6.9773 -13.0825,7.98365 -2.6164,2.07977 -5.0316,1.94559 -7.6482,-0.0671 -1.3418,-1.07344 -10.2646,-6.17224 -13.0823,-7.98365 -3.2203,-2.07978 -3.0192,-4.69627 0.5366,-6.17224 11.0028,-4.62917 22.0054,-4.29373 32.941,0.20127 3.2874,1.40888 3.4215,4.02536 0.3354,6.03806 m 48.4387,48.84117 c -6.2394,-14.02171 -14.7597,-26.76872 -25.7625,-37.97267 a 28.848494,28.848494 0 0 1 -7.1115,-12.61283 c -0.6708,-2.21396 -1.1404,-4.495 -1.61,-6.77605 -1.3418,-5.90388 -1.9457,-11.94193 -4.6963,-17.51036 -4.8976,-10.60014 -13.4179,-16.10149 -25.7623,-16.57111 -12.1433,0.33544 -21.2003,5.43426 -26.5004,16.10149 -1.409,2.88484 -2.41529,5.90387 -3.08617,8.98999 -1.14049,5.09881 -2.14683,10.39887 -3.35445,15.56478 -1.00634,4.3608 -3.01901,8.11782 -6.44059,11.4723 -10.80151,10.53305 -19.45606,22.60917 -26.0308,35.89289 -0.9392,1.9456 -1.87852,3.89119 -2.48227,5.90388 -1.27476,4.4279 1.94553,7.51402 6.64188,6.44059 2.95187,-0.6038 5.90386,-1.2076 8.72157,-2.07977 2.7507,-1.00635 3.82417,-0.33545 4.49506,2.34814 4.36079,14.42424 13.88752,24.55476 28.44597,30.19027 27.6408,10.46597 59.9109,-4.42791 66.8883,-30.727 0.4696,-1.81141 1.1405,-2.4823 3.1531,-1.81141 3.0862,0.93925 6.2393,1.61014 9.3926,2.34814 3.2873,0.6038 5.7026,-1.07344 6.1722,-4.29374 0.2013,-1.74432 -0.4025,-3.28738 -1.0734,-4.89753"
       id="path1-8"
       style="fill:#e8effc;fill-opacity:1;stroke-width:6.70895" />
    <path
       fill="currentColor"
       d="m 796.12102,630.48624 c -4.74078,7.0826 -9.76714,13.99385 -17.42092,14.10808 -7.65378,0.17137 -10.10983,-4.5123 -18.79173,-4.5123 -8.73901,0 -11.42356,4.39807 -18.6775,4.68367 -7.48243,0.28559 -13.13709,-7.53955 -17.93496,-14.45079 -9.76714,-14.10808 -17.24956,-40.09665 -7.19685,-57.57469 4.96924,-8.6819 13.87962,-14.16518 23.53251,-14.33655 7.31107,-0.1143 14.27944,4.96924 18.79174,4.96924 4.45518,0 12.9086,-6.11159 21.76184,-5.1977 3.71267,0.17137 14.1081,1.48506 20.79088,11.30931 -0.51407,0.34271 -12.39456,7.31107 -12.28032,21.76186 0.17137,17.24955 15.1362,23.01843 15.30755,23.07555 -0.17136,0.39983 -2.39895,8.22497 -7.88224,16.16432 m -32.61424,-91.38838 c 4.16961,-4.74076 11.08085,-8.33917 16.79262,-8.56765 0.74254,6.68278 -1.94201,13.42267 -5.94024,18.22057 -3.94112,4.855 -10.45255,8.62476 -16.84974,8.11071 -0.85675,-6.56855 2.34184,-13.42267 5.99736,-17.76363"
       id="path1"
       style="fill:#e8effc;fill-opacity:1;stroke-width:5.71177" />
    <path
       id="rect1-9-2"
       style="fill:#15213a;fill-opacity:1;stroke-width:0.829198"
       d="M 620.63928 606.35442 L 620.63928 674.19817 L 620.63928 742.04192 L 1113.9947 742.04192 L 1113.9947 674.19817 L 620.63928 606.35442 z " />
  </g>
</svg>
