<?xml version="1.0" encoding="UTF-8" standalone="no"?>
<!-- Created with Inkscape (http://www.inkscape.org/) -->

<svg
   width="493.35617"
   height="225.72961"
   viewBox="0 0 493.35617 225.72961"
   version="1.1"
   id="svg1"
   sodipodi:docname="integrate-code.svg"
   inkscape:version="1.4.3 (0d15f75042, 2025-12-25)"
   xmlns:inkscape="http://www.inkscape.org/namespaces/inkscape"
   xmlns:sodipodi="http://sodipodi.sourceforge.net/DTD/sodipodi-0.dtd"
   xmlns="http://www.w3.org/2000/svg"
   xmlns:svg="http://www.w3.org/2000/svg">
  <sodipodi:namedview
     id="namedview1"
     pagecolor="#505050"
     bordercolor="#eeeeee"
     borderopacity="1"
     inkscape:showpageshadow="0"
     inkscape:pageopacity="0"
     inkscape:pagecheckerboard="0"
     inkscape:deskcolor="#505050"
     inkscape:zoom="1.1000741"
     inkscape:cx="264.07311"
     inkscape:cy="14.544474"
     inkscape:window-width="2752"
     inkscape:window-height="1124"
     inkscape:window-x="0"
     inkscape:window-y="0"
     inkscape:window-maximized="1"
     inkscape:current-layer="layer1" />
  <defs
     id="defs1" />
  <g
     id="layer1"
     transform="translate(-127.28313,-516.3122)">
    <g
       id="g1"
       style="fill:#15213a;fill-opacity:1" />
    <path
       id="rect1-9"
       style="fill:#15213a;fill-opacity:1;stroke-width:0.829198"
       d="M 620.6386 606.35517 L 127.28313 674.19892 L 127.28313 742.04267 L 620.6386 742.04267 L 620.6386 674.19892 L 620.6386 606.35517 z " />
    <path
       id="rect1-3-6-2-1-2"
       style="fill:#15213a;fill-opacity:1;stroke-width:0.829198"
       d="m 620.63923,742.04182 -493.3561,-67.8434 v 67.8434 z" />
    <path
       d="m 345.95445,534.3913 3.85571,11.27052 q -11.76485,3.65798 -16.21374,13.14895 -4.44889,9.3921 -4.44889,21.55241 v 20.4649 q 0,9.88642 -4.05344,17.99329 -3.95457,8.00801 -12.65462,12.75349 -8.60119,4.74549 -22.63992,4.74549 v -12.06144 q 11.17166,0 16.01601,-6.32732 4.94322,-6.32731 4.94322,-17.10351 v -20.4649 q 0,-10.38075 3.16365,-19.3774 3.26252,-9.09551 10.87507,-15.91714 7.71141,-6.9205 21.15695,-10.67734 z m 3.85571,182.70114 -3.85571,11.36939 q -13.44554,-3.8557 -21.15695,-10.67734 -7.61255,-6.82163 -10.87507,-15.91714 -3.16365,-8.99665 -3.16365,-19.3774 v -20.36603 q 0,-7.21709 -2.17502,-12.4569 -2.17501,-5.23981 -6.82163,-8.10687 -4.54776,-2.96593 -11.96258,-2.96593 v -12.06144 q 14.03873,0 22.63992,4.74549 8.70005,4.74548 12.65462,12.85235 4.05344,8.00801 4.05344,17.9933 v 20.36603 q 0,8.10687 1.87842,15.02737 1.97728,6.9205 6.42618,11.96258 4.54775,5.14094 12.35803,7.61254 z m 54.37534,-171.43062 3.85571,-11.27052 q 13.5444,3.75684 21.15695,10.67734 7.71141,6.82163 10.87507,15.91714 3.16365,8.99665 3.16365,19.3774 v 20.4649 q 0,7.11822 2.17502,12.45689 2.17501,5.23981 6.72277,8.10687 4.64662,2.86707 12.06144,2.86707 v 11.17166 q -13.93986,0 -22.63992,-4.44889 -8.70005,-4.54776 -12.75349,-12.35804 -3.95457,-7.90914 -3.95457,-17.79556 v -20.4649 q 0,-8.10687 -1.87842,-15.02737 -1.87842,-7.01936 -6.42617,-12.06144 -4.4489,-5.14094 -12.35804,-7.61255 z m 3.85571,182.80001 -3.85571,-11.36939 q 7.81028,-2.4716 12.25917,-7.61254 4.54776,-5.04208 6.42618,-11.96258 1.97728,-6.9205 1.97728,-15.02737 v -20.36603 q 0,-9.98529 3.95457,-17.79557 4.05344,-7.81028 12.75349,-12.25917 8.70006,-4.54775 22.63992,-4.54775 v 11.07279 q -11.0728,0 -16.01601,6.42618 -4.94322,6.32731 -4.94322,17.10352 v 20.36603 q 0,10.38075 -3.16365,19.3774 -3.16366,9.09551 -10.87507,15.91714 -7.61255,6.82164 -21.15695,10.67734 z"
       id="text3"
       style="font-size:202.474px;font-family:Roboto;-inkscape-font-specification:Roboto;text-align:center;text-anchor:middle;fill:#e8effc;stroke-width:3.16365"
       aria-label="{ }" />
    <path
       id="rect1-3-6-2-0"
       style="fill:#050b18;fill-opacity:1;stroke-width:0.829198"
       d="m 620.63923,742.04182 -493.3561,-67.8434 v 67.8434 z" />
  </g>
</svg>
