<?xml version="1.0" encoding="UTF-8" standalone="no"?>
<!-- Created with Inkscape (http://www.inkscape.org/) -->

<svg
   width="493.3562"
   height="281.26218"
   viewBox="0 0 493.3562 281.26218"
   version="1.1"
   id="svg1"
   sodipodi:docname="integrate-infra.svg"
   inkscape:version="1.4.3 (0d15f75042, 2025-12-25)"
   xmlns:inkscape="http://www.inkscape.org/namespaces/inkscape"
   xmlns:sodipodi="http://sodipodi.sourceforge.net/DTD/sodipodi-0.dtd"
   xmlns="http://www.w3.org/2000/svg"
   xmlns:svg="http://www.w3.org/2000/svg">
  <sodipodi:namedview
     id="namedview1"
     pagecolor="#505050"
     bordercolor="#eeeeee"
     borderopacity="1"
     inkscape:showpageshadow="0"
     inkscape:pageopacity="0"
     inkscape:pagecheckerboard="0"
     inkscape:deskcolor="#505050"
     inkscape:zoom="1.2485736"
     inkscape:cx="158.1805"
     inkscape:cy="218.6495"
     inkscape:window-width="2752"
     inkscape:window-height="1124"
     inkscape:window-x="0"
     inkscape:window-y="0"
     inkscape:window-maximized="1"
     inkscape:current-layer="layer1" />
  <defs
     id="defs1" />
  <g
     id="layer1"
     transform="translate(-1113.9954,-460.77974)">
    <path
       id="rect1-3-6-5"
       style="fill:#3b5487;stroke-width:0.829198;fill-opacity:1"
       d="M 1607.3509 470.66841 L 1113.9954 538.51216 L 1113.9954 606.35591 L 1607.3509 606.35591 L 1607.3509 538.51216 L 1607.3509 470.66841 z " />
    <path
       fill="currentColor"
       d="m 1587.4469,484.83272 6.3783,-6.3783 c -11.162,-11.16202 -25.5132,-16.74303 -39.8643,-16.74303 -14.3512,0 -28.7024,5.58101 -39.8644,16.74303 l 6.3783,6.3783 c 9.5674,-8.77016 21.5267,-13.55388 33.4861,-13.55388 11.9593,0 23.9186,4.78372 33.486,13.55388 m -7.1756,6.3783 c -7.1756,-7.17558 -16.743,-11.16202 -26.3104,-11.16202 -9.5675,0 -19.1349,3.98644 -26.3105,11.16202 l 6.3783,6.3783 c 5.581,-5.58101 12.7566,-7.97287 19.9322,-7.97287 7.1755,0 14.3511,2.39186 19.9321,7.97287 z m -2.3918,50.2291 h -15.9458 v -31.89149 h -15.9457 v 31.89149 h -79.7288 a 15.945747,15.945747 0 0 0 -15.9457,15.94575 v 31.89149 a 15.945747,15.945747 0 0 0 15.9457,15.94575 h 111.6203 a 15.945747,15.945747 0 0 0 15.9457,-15.94575 v -31.89149 a 15.945747,15.945747 0 0 0 -15.9457,-15.94575 m -87.7016,39.86437 h -15.9458 v -15.94575 h 15.9458 z m 27.905,0 h -15.9457 v -15.94575 h 15.9457 z m 27.9051,0 h -15.9458 v -15.94575 h 15.9458 z"
       id="path1-1"
       style="fill:#e8effc;fill-opacity:1;stroke-width:7.97287" />
    <path
       fill="currentColor"
       d="m 1316.4896,460.77975 c -8.1741,0 -14.728,6.55395 -14.728,14.72799 v 58.91194 c 0,8.17403 6.5539,14.72798 14.728,14.72798 h 88.3679 c 8.174,0 14.728,-6.55395 14.728,-14.72798 v -58.91194 c 0,-8.17404 -6.554,-14.72799 -14.728,-14.72799 z m 0,14.72799 h 88.3679 v 58.91194 h -88.3679 z m -14.728,81.00392 c -8.174,0 -14.728,6.55395 -14.728,14.72798 v 22.09198 c 0,8.17404 6.554,14.72799 14.728,14.72799 h 117.8239 c 8.174,0 14.728,-6.55395 14.728,-14.72799 v -22.09198 c 0,-8.17403 -6.554,-14.72798 -14.728,-14.72798 z m 29.4559,14.72798 h 88.368 v 22.09198 h -88.368 z m 7.3641,5.52299 v 11.046 h 29.4559 v -11.046 z m 44.1839,0 v 11.046 h 29.4559 v -11.046 z"
       id="path1-0"
       style="fill:#e8effc;fill-opacity:1;stroke-width:7.36399" />
    <path
       fill="currentColor"
       d="m 1164.9729,461.84686 h 92.1627 a 5.7601698,5.7601698 0 0 1 5.7602,5.76017 v 23.04068 a 5.7601698,5.7601698 0 0 1 -5.7602,5.76017 h -92.1627 a 5.7601698,5.7601698 0 0 1 -5.7602,-5.76017 v -23.04068 a 5.7601698,5.7601698 0 0 1 5.7602,-5.76017 m 0,46.08136 h 92.1627 a 5.7601698,5.7601698 0 0 1 5.7602,5.76017 v 23.04068 a 5.7601698,5.7601698 0 0 1 -5.7602,5.76017 h -92.1627 a 5.7601698,5.7601698 0 0 1 -5.7602,-5.76017 v -23.04068 a 5.7601698,5.7601698 0 0 1 5.7602,-5.76017 m 0,46.08136 h 92.1627 a 5.7601698,5.7601698 0 0 1 5.7602,5.76017 v 23.04068 a 5.7601698,5.7601698 0 0 1 -5.7602,5.76017 h -92.1627 a 5.7601698,5.7601698 0 0 1 -5.7602,-5.76017 v -23.04068 a 5.7601698,5.7601698 0 0 1 5.7602,-5.76017 m 28.8008,-69.12204 h 5.7602 V 473.3672 h -5.7602 z m 0,46.08136 h 5.7602 v -11.52034 h -5.7602 z m 0,46.08136 h 5.7602 v -11.52034 h -5.7602 z M 1170.733,473.3672 v 11.52034 h 11.5204 V 473.3672 Z m 0,46.08136 v 11.52034 h 11.5204 v -11.52034 z m 0,46.08136 v 11.52034 h 11.5204 v -11.52034 z"
       id="path1-6"
       style="fill:#e8effc;fill-opacity:1;stroke-width:5.76017" />
    <path
       id="rect1-3-6-4"
       style="fill:#28395f;fill-opacity:1;stroke-width:0.829198"
       d="m 1113.9954,538.51216 v 67.84375 l 7e-4,135.68601 h 493.3555 l -7e-4,-135.68601 z"
       sodipodi:nodetypes="cccccc" />
    <path
       id="rect1-9-2-4-0-7"
       style="fill:#15213a;fill-opacity:1;stroke-width:0.829198"
       d="m 1113.9961,674.19817 v 67.84375 0 h 493.3574 z"
       sodipodi:nodetypes="ccccc" />
  </g>
</svg>
