<?xml version="1.0" encoding="UTF-8" standalone="no"?>
<!-- Created with Inkscape (http://www.inkscape.org/) -->

<svg
   width="1920"
   height="550"
   viewBox="0 0 1920 550"
   version="1.1"
   id="svg1"
   inkscape:version="1.4.3 (0d15f75042, 2025-12-25)"
   sodipodi:docname="money-bg.svg"
   xmlns:inkscape="http://www.inkscape.org/namespaces/inkscape"
   xmlns:sodipodi="http://sodipodi.sourceforge.net/DTD/sodipodi-0.dtd"
   xmlns="http://www.w3.org/2000/svg"
   xmlns:svg="http://www.w3.org/2000/svg">
  <sodipodi:namedview
     id="namedview1"
     pagecolor="#505050"
     bordercolor="#eeeeee"
     borderopacity="1"
     inkscape:showpageshadow="0"
     inkscape:pageopacity="0"
     inkscape:pagecheckerboard="0"
     inkscape:deskcolor="#505050"
     inkscape:document-units="px"
     inkscape:zoom="0.76432989"
     inkscape:cx="786.96386"
     inkscape:cy="291.75884"
     inkscape:window-width="2752"
     inkscape:window-height="1124"
     inkscape:window-x="0"
     inkscape:window-y="0"
     inkscape:window-maximized="1"
     inkscape:current-layer="g3" />
  <defs
     id="defs1" />
  <g
     inkscape:label="Layer 1"
     inkscape:groupmode="layer"
     id="layer1">
    <g
       id="g3"
       transform="matrix(0.69241103,-0.1653839,0.1653839,0.69241103,627.52917,409.37593)">
      <path
         id="rect5"
         style="fill:#e8effc;fill-opacity:1;stroke-width:1.22121"
         d="m 128.16182,-529.1377 c 257.76423,126.17021 262.35838,43.07703 452.40865,141.39106 l -63.3924,114.0289 C 315.5063,-412.75141 378.01147,-331.50852 64.769427,-415.10879 Z"
         sodipodi:nodetypes="ccccc" />
      <path
         id="rect5-4"
         style="fill:#e8effc;fill-opacity:1;stroke-width:1.22121"
         d="m -230.90704,-421.44575 c -248.34911,-143.8195 -258.72035,-61.24821 -441.46044,-172.56223 l 71.18164,-109.33601 c 191.49684,152.74431 134.80285,67.3447 441.46042,172.5622 z"
         sodipodi:nodetypes="ccccc" />
      <path
         id="rect5-1"
         style="fill:#e8effc;fill-opacity:1;stroke-width:1.22121"
         d="m 376.90933,-242.0499 c 304.51646,49.26712 288.57306,95.8461 483.53251,37.13615 l -4.27308,130.395238 C 613.24978,-106.01817 689.45938,-180.44943 372.63624,-111.65465 Z"
         sodipodi:nodetypes="ccccc" />
      <path
         id="rect5-1-9"
         style="fill:#e8effc;fill-opacity:1;stroke-width:1.22121"
         d="m -364.98926,-410.96953 c 288.473121,109.27396 313.098217,151.63947 515.86697,133.17714 l -30.30928,126.89576 c -231.68388,-79.52652 -191.684661,-137.10619 -515.86704,-133.17716 z"
         sodipodi:nodetypes="ccccc" />
      <path
         id="rect5-1-2"
         style="fill:#e8effc;fill-opacity:1;stroke-width:1.22121"
         d="M 427.9044,35.704181 C 716.3775,144.97821 766.54752,303.89429 969.31631,285.43196 L 939.007,412.32772 C 707.32317,332.8012 721.7774,158.67095 397.59507,162.6 Z"
         sodipodi:nodetypes="ccccc" />
      <path
         id="rect5-1-2-2"
         style="fill:#e8effc;fill-opacity:1;stroke-width:1.22121"
         d="m 1132.0349,274.12306 c 288.4733,109.27398 377.9944,192.36189 580.7632,173.89956 l -30.3093,126.8958 C 1450.8049,495.39187 1425.9081,397.08978 1101.7256,401.01882 Z"
         sodipodi:nodetypes="ccccc" />
      <path
         id="rect5-1-2-5"
         style="fill:#e8effc;fill-opacity:1;stroke-width:1.22121"
         d="M 829.94653,35.265886 C 1118.4204,144.53991 1117.8793,105.76237 1320.648,87.30006 L 1290.3388,214.1958 C 1058.6549,134.66931 1123.8202,158.23265 799.63722,162.16168 Z"
         sodipodi:nodetypes="ccccc" />
      <path
         id="rect5-1-3"
         style="fill:#e8effc;fill-opacity:1;stroke-width:1.22121"
         d="m -775.03912,-296.82056 c 288.47307,109.27395 243.85352,98.04963 475.94238,129.56747 l -22.82617,134.955202 C -553.60676,-111.82438 -579.83416,-132.87989 -805.34852,-169.92484 Z"
         sodipodi:nodetypes="ccccc" />
      <path
         id="rect5-1-3-0"
         style="fill:#e8effc;fill-opacity:1;stroke-width:1.22121"
         d="m -157.52671,-166.11202 c 288.47316,109.273921 331.52918,95.972092 475.94245,129.567447 L 295.58955,98.410706 C 63.905776,18.884152 37.678374,-2.1713886 -187.83602,-39.216334 Z"
         sodipodi:nodetypes="ccccc" />
      <path
         id="rect5-1-3-6"
         style="fill:#e8effc;fill-opacity:1;stroke-width:1.22121"
         d="m 1152.3212,-227.59866 c 260.4925,165.230713 371.7005,174.609413 592.6569,252.306712 L 1689.6889,142.8787 c -210.8733,-124.636956 -64.211,-20.43291 -592.657,-252.30679 z"
         sodipodi:nodetypes="ccccc" />
      <ellipse
         style="fill:#ffffff;fill-opacity:1;stroke-width:1.22121"
         id="path6"
         cx="-550.48834"
         cy="-441.01544"
         transform="rotate(13.433535)"
         rx="38.178955"
         ry="31.208364" />
      <ellipse
         style="fill:#ffffff;fill-opacity:1;stroke-width:1.22121"
         id="path6-6"
         cx="-581.5296"
         cy="-33.473888"
         transform="rotate(13.433535)"
         rx="38.178955"
         ry="31.208364" />
      <ellipse
         style="fill:#ffffff;fill-opacity:1;stroke-width:0.85322"
         id="path6-6-1"
         cx="-178.24553"
         cy="-249.63461"
         transform="rotate(13.433535)"
         rx="38.178955"
         ry="15.234167" />
      <ellipse
         style="fill:#ffffff;fill-opacity:1;stroke-width:1.24727"
         id="path6-6-1-6"
         cx="68.72657"
         cy="-48.961742"
         transform="rotate(13.433535)"
         rx="38.178955"
         ry="32.555313" />
      <ellipse
         style="fill:#ffffff;fill-opacity:1;stroke-width:0.783574"
         id="path6-6-1-6-0"
         cx="687.18823"
         cy="-197.1389"
         transform="rotate(33.022546)"
         rx="38.178955"
         ry="12.848719" />
      <ellipse
         style="fill:#ffffff;fill-opacity:1;stroke-width:0.92194"
         id="path6-6-1-6-0-9"
         transform="matrix(0.91929567,0.39356761,-0.41310192,0.9106848,0,0)"
         ry="14.696196"
         rx="46.208614"
         cy="-170.5463"
         cx="1469.4459" />
      <ellipse
         style="fill:#ffffff;fill-opacity:1;stroke-width:1.30666"
         id="path6-6-1-6-7"
         cx="230.22194"
         cy="-477.69052"
         transform="rotate(13.433535)"
         rx="47.817684"
         ry="28.527185" />
      <ellipse
         style="fill:#ffffff;fill-opacity:1;stroke-width:1.57411"
         id="path6-6-1-6-7-9"
         cx="1339.5081"
         cy="-496.65497"
         transform="rotate(19.206503)"
         rx="57.605114"
         ry="34.366196" />
      <ellipse
         style="fill:#ffffff;fill-opacity:1;stroke-width:1.10577"
         id="path6-6-1-6-7-4"
         cx="616.91132"
         cy="-198.62491"
         transform="rotate(3.3348739)"
         rx="47.817684"
         ry="20.430008" />
      <ellipse
         style="fill:#ffffff;fill-opacity:1;stroke-width:1.10577"
         id="path6-6-1-6-7-4-8"
         cx="1057.6998"
         cy="67.675514"
         transform="rotate(3.3348739)"
         rx="47.817684"
         ry="20.430008" />
    </g>
  </g>
</svg>
