<?xml version="1.0" encoding="UTF-8" standalone="no"?>
<!-- Created with Inkscape (http://www.inkscape.org/) -->

<svg
   width="1920"
   height="400"
   viewBox="0 0 1920 400"
   version="1.1"
   id="svg1"
   inkscape:version="1.4.3 (0d15f75042, 2025-12-25)"
   sodipodi:docname="seatbelt-bg.svg"
   xmlns:inkscape="http://www.inkscape.org/namespaces/inkscape"
   xmlns:sodipodi="http://sodipodi.sourceforge.net/DTD/sodipodi-0.dtd"
   xmlns="http://www.w3.org/2000/svg"
   xmlns:svg="http://www.w3.org/2000/svg">
  <sodipodi:namedview
     id="namedview1"
     pagecolor="#505050"
     bordercolor="#eeeeee"
     borderopacity="1"
     inkscape:showpageshadow="0"
     inkscape:pageopacity="0"
     inkscape:pagecheckerboard="0"
     inkscape:deskcolor="#505050"
     inkscape:document-units="px"
     inkscape:zoom="0.88775317"
     inkscape:cx="290.0581"
     inkscape:cy="421.28827"
     inkscape:window-width="2752"
     inkscape:window-height="1124"
     inkscape:window-x="0"
     inkscape:window-y="0"
     inkscape:window-maximized="1"
     inkscape:current-layer="layer1" />
  <defs
     id="defs1" />
  <g
     inkscape:label="Layer 1"
     inkscape:groupmode="layer"
     id="layer1">
    <path
       id="rect1"
       style="fill:#050b18;fill-opacity:1;stroke-width:1.30482"
       d="m 1765.1918,0 c -67.9373,2.742067 -131.2999,50.281183 -299.6879,55.152483 -114.7495,3.31959 -258.9136,29.775913 -405.1758,62.894717 l 25.687,107.64162 c 147.1283,-32.14952 285.3013,-58.76069 378.548,-63.85395 C 1648.1217,151.80866 1870.7494,56.894097 1876.5465,0 c 0.8325,-8.1707791 -57.7578,-2.163259 -111.3547,0 z M 664.48723,214.1118 C 526.90191,248.73267 467.77948,263.55725 403.12934,265.83145 260.37984,276.02566 112.48688,294.29163 0,400 c 0,0 89.170443,0 136.1647,0 l 276.81266,-40.05533 c 64.25419,0 131.24847,-12.1394 275.70922,-44.42453 z"
       sodipodi:nodetypes="ssccsssccccccc" />
    <g
       id="g3"
       transform="matrix(0.69241103,-0.1653839,0.1653839,0.69241103,627.52917,409.37593)">
      <path
         id="rect2"
         style="fill:#28395f;fill-opacity:1;stroke-width:0.861616"
         d="M 393.72237,-270.6249 V -87.51936 H 576.8262 V -270.6249 Z m 23.08024,23.08025 h 136.94336 v 136.94503 H 416.80261 Z"
         sodipodi:nodetypes="cccccccccc" />
      <rect
         style="fill:#15213a;fill-opacity:1;stroke-width:0.627574"
         id="rect3"
         width="109.5553"
         height="272.07001"
         x="576.82678"
         y="-315.10687" />
    </g>
    <rect
       style="fill:#15213a;fill-opacity:1;stroke-width:0.861616"
       id="rect4"
       width="244.84729"
       height="191.90735"
       x="452.82962"
       y="317.37817"
       transform="rotate(-13.442002)" />
  </g>
</svg>
