<?xml version="1.0" encoding="UTF-8" standalone="no"?>
<!-- Created with Inkscape (http://www.inkscape.org/) -->

<svg
   width="1920"
   height="400"
   viewBox="0 0 1920 400"
   version="1.1"
   id="svg1"
   inkscape:version="1.4.3 (0d15f75042, 2025-12-25)"
   sodipodi:docname="whatisnix-bg.svg"
   xmlns:inkscape="http://www.inkscape.org/namespaces/inkscape"
   xmlns:sodipodi="http://sodipodi.sourceforge.net/DTD/sodipodi-0.dtd"
   xmlns="http://www.w3.org/2000/svg"
   xmlns:svg="http://www.w3.org/2000/svg">
  <sodipodi:namedview
     id="namedview1"
     pagecolor="#505050"
     bordercolor="#eeeeee"
     borderopacity="1"
     inkscape:showpageshadow="0"
     inkscape:pageopacity="0"
     inkscape:pagecheckerboard="0"
     inkscape:deskcolor="#505050"
     inkscape:document-units="px"
     inkscape:zoom="0.29659201"
     inkscape:cx="1805.5105"
     inkscape:cy="660.84046"
     inkscape:window-width="2752"
     inkscape:window-height="1124"
     inkscape:window-x="0"
     inkscape:window-y="0"
     inkscape:window-maximized="1"
     inkscape:current-layer="layer1"
     showguides="false" />
  <defs
     id="defs1">
    <rect
       x="122.80209"
       y="142.45042"
       width="331.56564"
       height="221.04376"
       id="rect1" />
    <rect
       x="122.80209"
       y="142.45042"
       width="331.56564"
       height="221.04376"
       id="rect1-7" />
    <rect
       x="122.80209"
       y="142.45042"
       width="331.56564"
       height="221.04376"
       id="rect1-7-9" />
  </defs>
  <g
     inkscape:label="Layer 1"
     inkscape:groupmode="layer"
     id="layer1">
    <path
       style="font-weight:900;font-size:64px;font-family:Roboto;-inkscape-font-specification:'Roboto Heavy';text-align:center;text-anchor:middle;white-space:pre;fill:#28395f;stroke-width:4.36078;fill-opacity:1"
       d="m 199.21463,282.48468 -37.778,10.12259 q -3.10378,-11.58349 -3.88734,-20.82599 -0.68719,-9.4094 1.48877,-17.61084 2.17594,-8.20144 7.52995,-16.12579 4.81108,-6.79129 8.0168,-12.72919 3.2057,-5.9379 4.27007,-11.4431 1.06435,-5.5052 -0.41701,-11.03369 -1.83406,-6.8448 -4.97244,-10.65955 -3.00675,-3.85003 -7.38837,-4.93328 -4.28525,-1.25015 -9.94537,0.26647 -4.60708,1.23447 -8.08803,4.56557 -3.34933,3.29582 -4.58058,8.70467 -1.26652,5.27721 0.5159,12.98233 l -44.622807,11.95665 q -4.8606,-19.71874 0.152201,-34.18249 5.108956,-14.63058 17.545186,-24.02935 12.53259,-9.56568 29.90784,-14.22137 19.21808,-5.14946 34.62647,-2.92946 15.40839,2.22 25.91877,11.95999 10.47511,9.60836 15.02499,26.58872 3.03325,11.32024 0.94672,20.90853 -1.99014,9.42138 -7.28997,18.60093 -5.20345,9.01266 -11.83595,19.53688 -5.83579,8.75884 -6.7307,16.47594 -0.93019,7.58547 1.5929,18.05483 z m -32.45268,51.58441 q -2.53947,-9.4774 2.61235,-17.62973 5.11654,-8.28397 16.04189,-11.21141 10.92534,-2.92744 19.49839,1.68842 8.53778,4.48421 11.07724,13.96162 2.53947,9.47741 -2.57708,17.76138 -5.15183,8.15233 -16.07717,11.07977 -10.92535,2.92744 -19.46312,-1.55678 -8.57304,-4.61586 -11.1125,-14.09327 z"
       id="text1"
       aria-label="?" />
    <path
       style="font-size:64px;font-family:Roboto;-inkscape-font-specification:Roboto;text-align:center;white-space:pre;fill:#28395f;stroke-width:3.8884;fill-opacity:1"
       d="m 339.30813,176.58843 -21.83118,-5.84965 q 3.13636,-11.23631 6.93294,-17.89274 3.94519,-6.74243 10.00927,-11.5333 6.06405,-4.79088 15.50273,-10.43873 6.87724,-4.0698 12.62683,-7.68695 5.89838,-3.70309 10.22489,-8.58215 4.35798,-4.99642 6.49655,-12.97772 2.17003,-8.098668 0.80822,-14.753508 -1.24444,-6.623393 -6.02916,-11.302028 -4.66733,-4.647177 -12.88338,-6.84866 -6.80756,-1.824071 -13.57135,-0.994647 -6.76379,0.829412 -11.90348,4.987394 -5.10823,4.040603 -7.42709,12.225183 l -21.71382,-5.81819 q 3.78857,-13.200137 12.67409,-21.008982 9.00287,-7.777387 21.27081,-9.899554 12.26794,-2.12218 25.7657,1.494539 14.90625,3.994119 23.90566,12.192259 9.11679,8.229586 11.9286,19.8017 2.84324,11.45476 -0.83637,25.187274 -2.83047,10.56348 -9.56342,18.3201 -6.58411,7.67072 -15.35,13.62463 -8.76588,5.95391 -18.16466,10.98346 -8.05939,4.25623 -12.30225,11.17049 -4.24285,6.91425 -6.57013,15.59978 z m -32.73972,31.10567 q 1.41524,-5.28174 5.67659,-8.03968 4.26136,-2.75795 10.48207,-1.09111 6.33809,1.69828 8.64957,6.21742 2.31147,4.51912 0.89624,9.80086 -1.35235,5.04699 -5.6137,7.80494 -4.26136,2.75792 -10.59945,1.05964 -6.22071,-1.66684 -8.53219,-6.18595 -2.31147,-4.51914 -0.95913,-9.56612 z"
       id="text1-5"
       aria-label="?" />
    <path
       style="font-weight:bold;font-size:64px;font-family:Roboto;-inkscape-font-specification:'Roboto Bold';text-align:center;white-space:pre;fill:#28395f;stroke-width:3.8262;fill-opacity:1"
       d="m 562.5336,241.5048 -29.45101,7.89139 q -2.66988,-10.42538 -3.1798,-18.33486 -0.42556,-8.05587 1.74559,-15.19829 2.28663,-7.17338 7.14508,-14.91209 4.12847,-6.30524 6.99481,-11.77715 2.86631,-5.47191 3.93834,-10.71061 1.04107,-5.35419 -0.50626,-11.1289 -1.79491,-6.69868 -5.04978,-10.5304 -3.1703,-3.97819 -7.83153,-5.20494 -4.54574,-1.25769 -10.55143,0.35153 -4.96625,1.3307 -8.65155,4.67011 -3.71624,3.22392 -5.31214,8.35542 -1.48041,5.10053 0.32279,12.29213 l -33.49331,8.97451 q -3.89339,-15.9155 0.28222,-28.05133 4.25995,-12.28222 14.70965,-20.40501 10.41875,-8.23829 25.08653,-12.16851 16.16917,-4.33253 29.14214,-2.11445 12.94202,2.10258 21.78649,10.6259 8.81355,8.40783 12.68187,22.8446 2.69235,10.04799 0.86992,18.95379 -1.85338,8.79028 -6.41067,17.19102 -4.55726,8.40072 -10.2612,17.60384 -5.00489,7.65416 -5.69726,14.7717 -0.57688,7.0866 1.69051,16.0106 z m -23.35335,44.50748 q -1.98058,-7.39162 1.80141,-13.60402 3.75104,-6.32791 12.29761,-8.61795 8.43108,-2.2591 14.84352,1.3455 6.49701,3.45816 8.47758,10.84977 1.91869,7.16066 -1.94786,13.5195 -3.75103,6.3279 -12.18211,8.587 -8.54657,2.29004 -14.95902,-1.31455 -6.41244,-3.60461 -8.33113,-10.76525 z"
       id="text1-5-7"
       aria-label="?" />
    <path
       style="font-weight:900;font-size:64px;font-family:Roboto;-inkscape-font-specification:'Roboto Heavy';text-align:center;text-anchor:middle;white-space:pre;fill:#28395f;stroke-width:4.17404;fill-opacity:1"
       d="m 679.82659,203.33727 -36.57239,-7.99389 q 2.45108,-11.21383 5.84641,-19.4174 3.55061,-8.30314 9.00502,-14.32091 5.4544,-6.01777 13.48945,-10.40332 7.07547,-3.66067 12.41081,-7.30113 5.33533,-3.64047 8.65966,-7.85402 3.32431,-4.21355 4.49414,-9.56561 1.44837,-6.62636 0.45608,-11.24934 -0.86486,-4.59513 -4.11469,-7.44175 -3.09453,-2.94621 -8.57401,-4.1439 -4.46004,-0.97486 -8.8839,0.328 -4.29638,1.3307 -7.72028,5.38897 -3.39603,3.93084 -5.26639,11.26607 l -43.19874,-9.44226 q 4.53222,-18.903541 15.15087,-28.999735 10.77373,-10.195803 25.47899,-12.72285 14.86055,-2.626614 31.6813,1.050018 18.60478,4.066579 30.73152,12.725525 12.12675,8.658947 16.78389,21.559992 4.68499,12.77362 1.09192,29.21208 -2.39538,10.95898 -8.38319,18.19533 -5.8325,7.13679 -14.37309,12.6135 -8.38529,5.37714 -18.65001,11.41164 -8.81146,4.88343 -12.9637,11.0523 -4.1244,6.04143 -6.57967,16.05269 z m -50.26442,29.60285 q 2.00543,-9.17496 9.96874,-13.84323 7.99117,-4.7957 18.56786,-2.48388 10.57668,2.31182 15.83823,10.00426 5.2894,7.56501 3.28397,16.73997 -2.00544,9.17496 -9.99661,13.97066 -7.96332,4.66827 -18.54,2.35645 -10.57669,-2.31183 -15.86609,-9.87684 -5.26154,-7.69244 -3.2561,-16.86739 z"
       id="text1-52"
       aria-label="?" />
    <path
       style="font-size:64px;font-family:Roboto;-inkscape-font-specification:Roboto;text-align:center;white-space:pre;fill:#28395f;stroke-width:2.83594;fill-opacity:1"
       d="m 826.89379,286.78473 h -16.48391 q 0.0885,-8.50782 1.5066,-13.91383 1.50658,-5.49465 4.87427,-10.01442 3.36768,-4.51978 8.95094,-10.28029 4.07666,-4.16529 7.44435,-7.79885 3.4563,-3.72217 5.58326,-7.97608 2.12696,-4.34253 2.12696,-10.36891 0,-6.115 -2.21559,-10.54616 -2.12695,-4.43116 -6.38087,-6.82399 -4.16528,-2.39282 -10.36891,-2.39282 -5.14014,0 -9.74855,1.86109 -4.6084,1.86108 -7.44435,5.7605 -2.83593,3.8108 -2.92456,10.01442 h -16.39529 q 0.17725,-10.01442 4.9629,-17.1929 4.87427,-7.17847 13.11623,-10.98927 8.24196,-3.8108 18.43362,-3.8108 11.25515,0 19.14261,4.07667 7.97609,4.07667 12.14138,11.69826 4.16528,7.53297 4.16528,17.90188 0,7.97609 -3.27905,14.71145 -3.19043,6.64674 -8.24196,12.49587 -5.05152,5.84913 -10.7234,11.16652 -4.87428,4.51978 -6.55812,10.19167 -1.68384,5.67188 -1.68384,12.22999 z m -17.1929,28.09356 q 0,-3.98805 2.48145,-6.73537 2.48145,-2.74732 7.17848,-2.74732 4.78565,0 7.2671,2.74732 2.48145,2.74732 2.48145,6.73537 0,3.81079 -2.48145,6.55811 -2.48145,2.74732 -7.2671,2.74732 -4.69703,0 -7.17848,-2.74732 -2.48145,-2.74732 -2.48145,-6.55811 z"
       id="text1-5-5"
       aria-label="?" />
    <path
       style="font-size:64px;font-family:Roboto;-inkscape-font-specification:Roboto;text-align:center;white-space:pre;fill:#28395f;stroke-width:1.44536;fill-opacity:1"
       d="m 92.765258,103.91876 h -8.40118 q 0.0451,-4.336088 0.76786,-7.091309 0.76784,-2.800398 2.48421,-5.103939 1.71637,-2.303546 4.56193,-5.239442 2.0777,-2.122877 3.79408,-3.974753 1.76153,-1.897037 2.84556,-4.06508 1.08402,-2.21321 1.08402,-5.284608 0,-3.116564 -1.1292,-5.374945 -1.08402,-2.25838 -3.25206,-3.477907 -2.12288,-1.219522 -5.28461,-1.219522 -2.61972,0 -4.96844,0.948521 -2.34871,0.948516 -3.79408,2.93589 -1.44535,1.942209 -1.49052,5.103939 h -8.35601 q 0.0903,-5.103939 2.52939,-8.762515 2.48421,-3.658572 6.6848,-5.60078 4.20059,-1.942208 9.39486,-1.942208 5.73629,0 9.7562,2.077711 4.065092,2.077712 6.187962,5.962123 2.12288,3.839245 2.12288,9.123853 0,4.065085 -1.6712,7.497822 -1.62603,3.38757 -4.20059,6.368632 -2.574552,2.981061 -5.465282,5.691116 -2.48422,2.303546 -3.3424,5.194276 -0.85818,2.890725 -0.85818,6.233125 z m -8.76252,14.31813 q 0,-2.03255 1.26469,-3.43274 1.2647,-1.4002 3.65858,-1.4002 2.43905,0 3.70374,1.4002 1.2647,1.40019 1.2647,3.43274 0,1.9422 -1.2647,3.3424 -1.26469,1.4002 -3.70374,1.4002 -2.39388,0 -3.65858,-1.4002 -1.26469,-1.4002 -1.26469,-3.3424 z"
       id="text1-5-5-7"
       aria-label="?" />
    <path
       style="font-size:64px;font-family:Roboto;-inkscape-font-specification:Roboto;text-align:center;white-space:pre;fill:#28395f;stroke-width:2.83594;fill-opacity:1"
       d="m 1427.4037,129.63383 h -16.4839 q 0.089,-8.50782 1.5066,-13.91383 1.5066,-5.49465 4.8742,-10.01442 3.3677,-4.51978 8.951,-10.28029 4.0766,-4.16529 7.4443,-7.79885 3.4563,-3.72217 5.5833,-7.97608 2.127,-4.34253 2.127,-10.36891 0,-6.115 -2.2156,-10.54616 -2.127,-4.43116 -6.3809,-6.82399 -4.1653,-2.39282 -10.3689,-2.39282 -5.1402,0 -9.7486,1.86109 -4.6084,1.86108 -7.4443,5.7605 -2.8359,3.8108 -2.9246,10.01442 h -16.3953 q 0.1773,-10.01442 4.9629,-17.1929 4.8743,-7.17847 13.1163,-10.98927 8.2419,-3.8108 18.4336,-3.8108 11.2551,0 19.1426,4.07667 7.9761,4.07667 12.1414,11.69826 4.1653,7.53297 4.1653,17.90188 0,7.97609 -3.2791,14.71145 -3.1904,6.64674 -8.242,12.49587 -5.0515,5.84913 -10.7234,11.16652 -4.8742,4.51978 -6.5581,10.19167 -1.6838,5.67188 -1.6838,12.22999 z m -17.1929,28.09356 q 0,-3.98805 2.4814,-6.73537 2.4815,-2.74732 7.1785,-2.74732 4.7857,0 7.2671,2.74732 2.4815,2.74732 2.4815,6.73537 0,3.81079 -2.4815,6.55811 -2.4814,2.74732 -7.2671,2.74732 -4.697,0 -7.1785,-2.74732 -2.4814,-2.74732 -2.4814,-6.55811 z"
       id="text1-5-5-0"
       aria-label="?" />
    <path
       style="font-size:64px;font-family:Roboto;-inkscape-font-specification:Roboto;text-align:center;white-space:pre;fill:#28395f;stroke-width:3.65628;fill-opacity:1"
       d="m 1841.5849,165.59289 -15.0276,15.02758 q -7.6749,-7.83731 -11.311,-14.058 -3.6356,-6.38273 -4.686,-13.57322 -1.0504,-7.19057 -1.2119,-17.53216 -0.081,-7.51369 -0.3232,-13.89639 -0.2424,-6.54419 -2.1814,-12.36135 -2.0197,-5.89796 -7.5137,-11.391893 -5.5747,-5.574726 -11.6342,-7.594532 -5.9788,-2.100558 -12.0382,-0.40392 -5.9788,1.615896 -11.6342,7.271336 -4.6861,4.686069 -7.1907,10.583999 -2.5045,5.89786 -1.535,12.03808 0.8887,6.0595 6.4634,11.79584 l -14.9467,14.94675 q -8.968,-9.29127 -11.1495,-20.19829 -2.1005,-10.98791 1.9392,-21.9758 4.0396,-10.987827 13.3308,-20.279069 10.2607,-10.260685 21.1677,-13.734767 10.9879,-3.554904 21.7334,-0.404003 10.6648,3.07011 20.1175,12.522903 7.2714,7.271384 10.4223,16.401023 3.151,8.968033 3.878,18.905693 0.7272,9.93752 0.404,19.95589 -0.3231,8.56398 3.3125,15.26988 3.6358,6.70574 9.6145,12.68442 z m 9.9376,41.2853 q -3.6357,-3.63569 -3.8782,-8.40239 -0.2424,-4.76683 4.0397,-9.04885 4.3629,-4.36292 9.1296,-4.12044 4.7668,0.24234 8.4025,3.87803 3.4741,3.4741 3.7164,8.24094 0.2425,4.76669 -4.1204,9.12961 -4.282,4.28203 -9.0489,4.03968 -4.7666,-0.24248 -8.2407,-3.71658 z"
       id="text1-5-5-8"
       aria-label="?"
       inkscape:transform-center-x="4.768212"
       inkscape:transform-center-y="-25.033113" />
    <path
       style="font-size:64px;font-family:Roboto;-inkscape-font-specification:Roboto;text-align:center;white-space:pre;fill:#28395f;stroke-width:2.83594;fill-opacity:1"
       d="m 1704.46,305.08006 h -16.4839 q 0.088,-8.50782 1.5066,-13.91383 1.5066,-5.49465 4.8742,-10.01442 3.3677,-4.51978 8.951,-10.28029 4.0766,-4.16529 7.4443,-7.79885 3.4563,-3.72217 5.5833,-7.97608 2.127,-4.34253 2.127,-10.36891 0,-6.115 -2.2156,-10.54616 -2.127,-4.43116 -6.3809,-6.82399 -4.1653,-2.39282 -10.3689,-2.39282 -5.1402,0 -9.7486,1.86109 -4.6084,1.86108 -7.4443,5.7605 -2.8359,3.8108 -2.9246,10.01442 h -16.3953 q 0.1773,-10.01442 4.9629,-17.1929 4.8743,-7.17847 13.1163,-10.98927 8.2419,-3.8108 18.4336,-3.8108 11.2551,0 19.1426,4.07667 7.9761,4.07667 12.1414,11.69826 4.1653,7.53297 4.1653,17.90188 0,7.97609 -3.2791,14.71145 -3.1904,6.64674 -8.242,12.49587 -5.0515,5.84913 -10.7234,11.16652 -4.8742,4.51978 -6.5581,10.19167 -1.6838,5.67188 -1.6838,12.22999 z m -17.1929,28.09356 q 0,-3.98805 2.4814,-6.73537 2.4815,-2.74732 7.1785,-2.74732 4.7857,0 7.2671,2.74732 2.4815,2.74732 2.4815,6.73537 0,3.81079 -2.4815,6.55811 -2.4814,2.74732 -7.2671,2.74732 -4.697,0 -7.1785,-2.74732 -2.4814,-2.74732 -2.4814,-6.55811 z"
       id="text1-5-5-4"
       aria-label="?" />
    <path
       style="font-weight:bold;font-size:64px;font-family:Roboto;-inkscape-font-specification:'Roboto Bold';text-align:center;white-space:pre;fill:#28395f;stroke-width:3.99125;fill-opacity:1"
       d="M 990.7214,191.76821 960,200 q -2.7851,-10.8751 -3.317,-19.12579 -0.4438,-8.40342 1.821,-15.85397 2.3852,-7.48281 7.4532,-15.55536 4.3065,-6.57724 7.2966,-12.28522 2.9899,-5.70797 4.1083,-11.17267 1.0858,-5.58514 -0.5282,-11.60897 -1.8724,-6.98764 -5.2677,-10.98467 -3.307,-4.149816 -8.1693,-5.429496 -4.7418,-1.311955 -11.0066,0.366693 -5.18058,1.388124 -9.02478,4.871573 -3.87658,3.36301 -5.54122,8.71584 -1.54429,5.32059 0.33669,12.82242 l -34.93821,9.36167 q -4.06135,-16.60208 0.29436,-29.26144 4.44376,-12.81207 15.3442,-21.285271 10.86827,-8.593704 26.16873,-12.693449 16.86673,-4.519421 30.39933,-2.205673 13.5003,2.193303 22.7262,11.084337 9.1938,8.770537 13.229,23.830096 2.8085,10.48146 0.9074,19.77146 -1.9332,9.16946 -6.6871,17.9326 -4.7538,8.76313 -10.7038,18.36323 -5.2209,7.98439 -5.9431,15.40897 -0.6018,7.39234 1.7634,16.7013 z m -24.3606,46.42748 q -2.0661,-7.71049 1.879,-14.19087 3.9129,-6.60091 12.8281,-8.98973 8.7948,-2.35655 15.4839,1.40355 6.7772,3.60736 8.8432,11.31785 2.0015,7.46956 -2.0318,14.1027 -3.9129,6.60089 -12.7076,8.95743 -8.9152,2.38883 -15.6044,-1.37125 -6.689,-3.76013 -8.6904,-11.22968 z"
       id="text1-5-7-4"
       aria-label="?" />
    <path
       style="font-weight:bold;font-size:64px;font-family:Roboto;-inkscape-font-specification:'Roboto Bold';text-align:center;white-space:pre;fill:#28395f;stroke-width:3.99125;fill-opacity:1"
       d="m 1610.9824,176.36371 -30.7214,8.23179 q -2.7851,-10.8751 -3.317,-19.12579 -0.4438,-8.40342 1.821,-15.85397 2.3852,-7.48281 7.4532,-15.55536 4.3065,-6.57724 7.2966,-12.28522 2.9899,-5.70797 4.1083,-11.17267 1.0858,-5.58514 -0.5282,-11.608975 -1.8724,-6.98764 -5.2677,-10.98467 -3.307,-4.14982 -8.1693,-5.4295 -4.7418,-1.31195 -11.0066,0.3667 -5.1806,1.38812 -9.0248,4.87157 -3.8766,3.36301 -5.5412,8.71584 -1.5443,5.320595 0.3367,12.822425 l -34.9383,9.36167 q -4.0613,-16.60208 0.2944,-29.261445 4.4438,-12.81207 15.3442,-21.28527 10.8683,-8.593704 26.1687,-12.693449 16.8668,-4.519421 30.3994,-2.205673 13.5003,2.193303 22.7262,11.084337 9.1938,8.770535 13.229,23.830095 2.8085,10.48146 0.9074,19.771465 -1.9332,9.16946 -6.6871,17.9326 -4.7538,8.76313 -10.7038,18.36323 -5.2209,7.98439 -5.9431,15.40897 -0.6018,7.39234 1.7634,16.7013 z m -24.3606,46.42748 q -2.0661,-7.71049 1.879,-14.19087 3.9129,-6.60091 12.8281,-8.98973 8.7948,-2.35655 15.4839,1.40355 6.7772,3.60736 8.8432,11.31785 2.0015,7.46956 -2.0318,14.1027 -3.9129,6.60089 -12.7076,8.95743 -8.9152,2.38883 -15.6044,-1.37125 -6.689,-3.76013 -8.6904,-11.22968 z"
       id="text1-5-7-4-8"
       aria-label="?" />
    <path
       style="font-weight:900;font-size:64px;font-family:Roboto;-inkscape-font-specification:'Roboto Heavy';text-align:center;text-anchor:middle;white-space:pre;fill:#28395f;stroke-width:4.17404;fill-opacity:1"
       d="m 1151.5888,251.46706 h -37.436 q 0,-11.47858 1.5653,-20.21796 1.6957,-8.86982 5.7393,-15.9135 4.0436,-7.04368 10.9569,-13.04385 6.1306,-5.0871 10.5654,-9.78288 4.4349,-4.69579 6.7828,-9.52202 2.3479,-4.82622 2.3479,-10.30463 0,-6.78281 -1.9565,-11.08727 -1.8262,-4.30447 -5.6089,-6.39148 -3.6523,-2.21746 -9.2612,-2.21746 -4.5653,0 -8.6088,2.21746 -3.9131,2.21744 -6.3915,6.91323 -2.4783,4.56535 -2.7392,12.13079 h -44.2187 q 0.3911,-19.43535 8.6089,-31.56613 8.3481,-12.26122 22.1746,-17.87008 13.9568,-5.73929 31.1747,-5.73929 19.0441,0 32.7402,5.86974 13.696,5.86974 21.0005,17.47876 7.3046,11.47859 7.3046,28.30515 0,11.21771 -4.3044,19.56577 -4.174,8.21763 -11.3483,15.39174 -7.0437,7.04368 -15.783,15.13088 -7.5654,6.65236 -10.3047,13.56559 -2.7392,6.78281 -2.9999,17.08744 z m -42.784,39.65331 q 0,-9.39157 6.7828,-15.65262 6.7829,-6.39149 17.6092,-6.39149 10.8265,0 17.6093,6.39149 6.7828,6.26105 6.7828,15.65262 0,9.39157 -6.7828,15.78306 -6.7828,6.26105 -17.6093,6.26105 -10.8263,0 -17.6092,-6.26105 -6.7828,-6.39149 -6.7828,-15.78306 z"
       id="text1-52-3"
       aria-label="?" />
    <path
       style="font-weight:900;font-size:64px;font-family:Roboto;-inkscape-font-specification:'Roboto Heavy';text-align:center;text-anchor:middle;white-space:pre;fill:#28395f;stroke-width:3.25402;fill-opacity:1"
       d="m 441.89589,325.99979 h -29.18458 q 0,-8.94853 1.2203,-15.76162 1.32194,-6.91479 4.47427,-12.40593 3.15235,-5.49117 8.54184,-10.16881 4.77934,-3.96583 8.23663,-7.62659 3.4574,-3.66077 5.28778,-7.42323 1.8304,-3.76246 1.8304,-8.03333 0,-5.2878 -1.52526,-8.64349 -1.42369,-3.3557 -4.37262,-4.98271 -2.84728,-1.72868 -7.2199,-1.72868 -3.55905,0 -6.71129,1.72868 -3.05061,1.72868 -4.98274,5.38947 -1.93205,3.55907 -2.13545,9.45698 h -34.47225 q 0.30489,-15.15152 6.71137,-24.60849 6.50807,-9.55868 17.28701,-13.93127 10.88051,-4.47427 24.30335,-4.47427 14.84652,0 25.52379,4.57597 10.67719,4.57596 16.37168,13.6262 5.69457,8.94853 5.69457,22.06627 0,8.74517 -3.35565,15.25321 -3.25399,6.40633 -8.84696,11.99917 -5.49117,5.49114 -12.30421,11.79582 -5.89788,5.18607 -8.03341,10.57555 -2.13542,5.28777 -2.33867,13.3211 z m -33.3538,30.91317 q 0,-7.32153 5.28777,-12.20256 5.28788,-4.98271 13.7279,-4.98271 8.44017,0 13.72795,4.98271 5.28777,4.88103 5.28777,12.20256 0,7.32152 -5.28777,12.30425 -5.28778,4.88101 -13.72795,4.88101 -8.44002,0 -13.7279,-4.88101 -5.28777,-4.98273 -5.28777,-12.30425 z"
       id="text1-52-3-4"
       aria-label="?" />
    <path
       style="font-weight:900;font-size:64px;font-family:Roboto;-inkscape-font-specification:'Roboto Heavy';text-align:center;text-anchor:middle;white-space:pre;fill:#28395f;stroke-width:1.94296;fill-opacity:1"
       d="m 1835.9874,332.58167 h -17.426 q 0,-5.34314 0.7286,-9.41121 0.7893,-4.1288 2.6716,-7.40754 1.8822,-3.27875 5.1003,-6.07175 2.8537,-2.36799 4.918,-4.55382 2.0644,-2.18583 3.1573,-4.43238 1.093,-2.24654 1.093,-4.79668 0,-3.15731 -0.9108,-5.16098 -0.85,-2.00368 -2.6108,-2.97516 -1.7001,-1.0322 -4.311,-1.0322 -2.1251,0 -4.0073,1.0322 -1.8215,1.03219 -2.9752,3.21802 -1.1536,2.12512 -1.275,5.64674 h -20.5833 q 0.1821,-9.04692 4.0073,-14.69365 3.886,-5.70745 10.322,-8.3183 6.4968,-2.67157 14.5115,-2.67157 8.8648,0 15.2401,2.73229 6.3754,2.73229 9.7755,8.13615 3.4002,5.34314 3.4002,13.1757 0,5.22171 -2.0036,9.10762 -1.943,3.82521 -5.2825,7.16467 -3.2788,3.27875 -7.3468,7.04324 -3.5216,3.09659 -4.7967,6.31461 -1.2751,3.15732 -1.3964,7.954 z m -19.9155,18.45813 q 0,-4.37166 3.1573,-7.28611 3.1574,-2.97516 8.1969,-2.97516 5.0396,0 8.1969,2.97516 3.1573,2.91445 3.1573,7.28611 0,4.37166 -3.1573,7.34682 -3.1573,2.91444 -8.1969,2.91444 -5.0395,0 -8.1969,-2.91444 -3.1573,-2.97516 -3.1573,-7.34682 z"
       id="text1-52-3-7"
       aria-label="?" />
    <path
       style="font-size:64px;font-family:Roboto;-inkscape-font-specification:Roboto;text-align:center;white-space:pre;fill:#28395f;stroke-width:3.9873;fill-opacity:1"
       d="m 1361.5767,201.80972 -20.0712,11.5881 q -5.8731,-10.42154 -7.9468,-18.0009 -2.0283,-7.74948 -1.1051,-15.6203 0.9231,-7.87082 3.6719,-18.80996 2.0356,-7.93754 3.5817,-14.72928 1.5919,-6.96198 1.1913,-13.63688 -0.4629,-6.78279 -4.6994,-14.12064 -4.2988,-7.44572 -10.1116,-11.28364 -5.705,-3.90021 -12.5667,-3.82332 -6.7539,0.0146 -14.3076,4.37576 -6.2588,3.6135 -10.5617,9.11925 -4.3029,5.50574 -5.0147,12.24739 -0.7741,6.63375 3.479,14.2497 l -19.9631,11.52575 q -6.8244,-12.3183 -6.0436,-24.4233 0.8886,-12.16719 8.2452,-22.60134 7.3566,-10.434148 19.7661,-17.598748 13.7044,-7.912254 26.1743,-8.49332 12.5777,-0.643276 23.0073,5.70876 10.3674,6.24409 17.6567,18.869468 5.6071,9.71184 6.3494,20.21809 0.7879,10.33605 -1.2511,21.00925 -2.0389,10.67316 -5.2071,21.13507 -2.7576,8.92992 -0.8206,17.01987 1.9371,8.08989 6.5474,16.07517 z m -1.1848,46.29368 q -2.8036,-4.85591 -1.7135,-9.9455 1.0901,-5.08965 6.8093,-8.39165 5.8271,-3.36425 10.7798,-1.76345 4.9529,1.60069 7.7565,6.4566 2.6789,4.64009 1.5887,9.72978 -1.09,5.08959 -6.9171,8.45384 -5.7192,3.302 -10.672,1.70126 -4.9528,-1.60079 -7.6317,-6.24088 z"
       id="text1-5-5-1"
       aria-label="?" />
    <path
       style="font-weight:bold;font-size:64px;font-family:Roboto;-inkscape-font-specification:'Roboto Bold';text-align:center;white-space:pre;fill:#28395f;stroke-width:3.31503;fill-opacity:1"
       d="m 1451.3661,314.94041 -22.8775,-13.2083 q 4.7513,-8.0227 9.2846,-13.18076 4.6747,-5.19602 10.3806,-8.24164 5.7955,-2.99383 13.5131,-4.75839 6.392,-1.3336 11.5004,-2.92989 5.1084,-1.59625 8.9745,-4.14896 3.918,-2.64239 6.5079,-7.12817 3.0042,-5.20351 3.3577,-9.54504 0.4949,-4.37946 -1.6092,-7.98667 -2.0144,-3.55541 -6.6796,-6.24886 -3.8578,-2.2273 -8.1614,-2.43921 -4.2518,-0.30161 -8.3733,1.86442 -4.0317,2.21789 -7.3328,7.72846 l -26.0176,-15.02125 q 7.3653,-12.13568 17.3583,-17.01247 10.1344,-4.91474 21.5126,-3.48921 11.4302,1.33586 22.824,7.91411 12.5602,7.2516 19.1491,16.55827 6.6406,9.2169 6.8374,19.85711 0.2485,10.55051 -6.2262,21.76495 -4.5063,7.80525 -11.0789,12.14482 -6.5207,4.24983 -14.4593,6.60449 -7.9386,2.35465 -17.0712,4.49841 -7.7555,1.62305 -12.5401,5.55936 -4.695,3.98813 -8.7731,10.84442 z m -41.5743,12.95991 q 3.3151,-5.7418 9.438,-7.2308 6.1748,-1.57867 12.8137,2.25433 6.5493,3.7812 8.2695,9.91807 1.8617,6.0989 -1.4534,11.8407 -3.2114,5.56236 -9.4758,7.08928 -6.1748,1.57867 -12.7241,-2.20253 -6.6389,-3.833 -8.3592,-9.96987 -1.7201,-6.13682 1.4913,-11.69918 z"
       id="text1-5-7-4-4"
       aria-label="?" />
  </g>
</svg>
