<?xml version="1.0" encoding="UTF-8"?>
<svg fill="none" viewBox="0 0 128 30" xmlns="http://www.w3.org/2000/svg" width="128" height="30">
<g clip-path="url(#a)">
<path d="M76.2514 0H75.9493V29.52H76.2514V0Z" fill="#707073"/>
<path d="m0 23.16v6.36h5.6796v-0.84h-4.7733v-2.04h3.0815v-0.84h-3.0815v-1.8h4.592v-0.84h-5.4983z" fill="#000"/>
<path d="m25.256 27c0 1.14-0.725 1.86-1.873 1.86-1.0876 0-1.7523-0.78-1.7523-1.86v-3.78h-0.9063v3.78c0 1.74 1.2689 2.64 2.6586 2.64 2.1147 0 2.7793-1.44 2.7793-2.64v-3.84h-0.9063v3.84z" fill="#000"/>
<path d="m32.204 23.16h-0.9063v6.3h0.9063v-6.3z" fill="#000"/>
<path d="m43.141 23.16v4.98l-4.5316-4.98h-0.9063v6.36h0.9063v-5.04l4.5316 5.04h0.9063v-6.36h-0.9063z" fill="#000"/>
<path d="m50.452 23.16h-0.9063v6.3h0.9063v-6.3z" fill="#000"/>
<path d="m60.904 23.16-2.1148 2.28-2.0543-2.28h-1.2084l2.5981 2.94-3.2023 3.42h1.148l2.6585-2.82 2.4773 2.82h1.2688l-3.0814-3.42 2.6585-2.94h-1.148z" fill="#000"/>
<path d="m12.628 22.92c-1.873 0-3.3836 1.44-3.3836 3.42s1.5106 3.36 3.3836 3.36c0.4834 0 1.0272-0.12 1.5106-0.36l0.5437 0.6h1.0876l-0.9063-1.02c0.7251-0.54 1.2084-1.5 1.2084-2.64-0.0604-1.98-1.5709-3.36-3.444-3.36zm2.4773 3.42c0 0.9-0.3021 1.5-0.8459 1.98l-0.4834-0.54h-1.0876l0.8459 1.02c-0.2416 0.12-0.6042 0.18-0.9063 0.18-1.3897 0-2.4772-1.08-2.4772-2.58s1.0271-2.58 2.4168-2.58c1.4501-0.12 2.5377 0.96 2.5377 2.52z" fill="#000"/>
<path d="m31.721 0-2.5981 0.9v13.5l-1.6918-0.6v-12.3l-5.1962 1.8v8.7l-1.7523-0.6v-7.5l-1.7522 0.6v8.16l5.1962 1.8v-9.96l1.7523-0.6v11.16l5.1962 1.8v-14.76l0.8459-0.3 0.9063 0.3v14.76l5.1358-1.8v-11.16l1.7522 0.6v9.96l5.1962-1.8v-8.16l-1.7522-0.6v7.5l-1.6918 0.6v-8.7l-5.1962-1.8v12.3l-1.7522 0.6v-13.5l-2.5981-0.9z" fill="#ED1C24"/>
<path d="m48.035 12.06c0.8458 0 1.5709-0.72 1.5709-1.56 0-0.83996-0.6646-1.56-1.5709-1.56-0.8459 0-1.571 0.72-1.571 1.56 0 0.9 0.6646 1.56 1.571 1.56zm0-0.18c-0.7855 0-1.3897-0.6-1.3897-1.38 0-0.77996 0.6042-1.38 1.3897-1.38 0.7854 0 1.3896 0.6 1.3896 1.38 0 0.78-0.6042 1.38-1.3896 1.38zm-0.6647-0.6h0.423v-0.48h0.2417l0.3625 0.48h0.4834l-0.423-0.6c0.2417-0.06 0.3625-0.24 0.3625-0.48 0-0.35996-0.3021-0.53996-0.6646-0.53996h-0.7855v1.62zm0.423-0.84v-0.42h0.3625c0.1813 0 0.3021 0.06 0.3021 0.24 0 0.12-0.1208 0.24-0.3021 0.24h-0.3625v-0.06z" fill="#ED1C24"/>
<path d="m88.517 11.58h1.3293l2.2356 3.24 2.1751-3.24h1.3293v6.84h-1.2689v-4.86l-2.296 3.24h-0.0604l-2.2356-3.18v4.86h-1.2688v-6.9h0.0604z" fill="#707073"/>
<path d="m98.124 11.58h5.3771v1.08h-4.0478v1.8h3.6248v1.08h-3.6248v1.8h4.1088v1.08h-5.3777l-0.0604-6.84z" fill="#707073"/>
<path d="m107.79 12.66h-2.296v-1.14h5.861v1.14h-2.296v5.7h-1.269v-5.7z" fill="#707073"/>
<path d="m115.04 11.52h1.208l3.142 6.84h-1.329l-0.725-1.62h-3.384l-0.725 1.62h-1.269l3.082-6.84zm1.812 4.14-1.268-2.7-1.209 2.7h2.477z" fill="#707073"/>
<path d="m121.51 11.58h1.269v5.7h3.806v1.08h-5.075v-6.78z" fill="#707073"/>
</g>
<defs>
<clipPath id="a">
<rect width="126.52" height="30" fill="#fff"/>
</clipPath>
</defs>
</svg>