<svg xmlns="http://www.w3.org/2000/svg" width="138" height="138">
    <path
        d="M153.384 19.654H36.694c-4.94 0-8.957 4.018-8.957 8.956v84.866c0 4.938 4.017 8.957 8.956 8.957h14.912v12.26a3.652 3.652 0 0 0 5.677 3.039l22.943-15.299h73.159c4.938 0 8.956-4.019 8.956-8.957V28.61c0-4.938-4.018-8.956-8.956-8.956zM55.257 115.13H36.693c-.91 0-1.652-.743-1.652-1.653V28.61c0-.91.741-1.652 1.652-1.652h116.69c.911 0 1.653.742 1.653 1.652v84.866c0 .91-.742 1.653-1.652 1.653H79.126c-.722 0-1.424.212-2.025.613l-18.19 12.128v-9.09a3.656 3.656 0 0 0-3.654-3.65z"
        style="fill-opacity:1;fill-rule:nonzero;stroke:none;stroke-width:1.33333"
        transform="translate(-26.038 -10)" />
    <path
        d="M77.165 67.697c-1.343-1.155-3.128-2.207-5.187-3.059a11.72 11.72 0 0 0 .654-3.865v-15.61a2.257 2.257 0 0 0-2.255-2.255h-13.78a7.583 7.583 0 0 0-5.38 2.233 7.578 7.578 0 0 0-2.23 5.376v10.256c0 1.413.246 2.792.734 4.103-1.905.846-3.561 1.874-4.812 2.99-1.955 1.744-2.988 3.75-2.988 5.798v24.05c0 1.242 1.01 2.251 2.25 2.251 1.242 0 2.251-1.01 2.251-2.25V73.663c0-.748.51-1.596 1.478-2.454 1.016-.91 2.464-1.76 4.198-2.464.118.128.238.252.36.375a11.71 11.71 0 0 0 8.347 3.472 11.743 11.743 0 0 0 8.881-4.036c1.856.705 3.427 1.584 4.558 2.553 1.04.892 1.59 1.776 1.59 2.554v24.05c0 1.242 1.008 2.251 2.25 2.251 1.24 0 2.25-1.01 2.25-2.25V73.663c0-2.122-1.096-4.184-3.169-5.967zm-9.041-11.841v4.917a7.265 7.265 0 0 1-2.154 5.165 7.237 7.237 0 0 1-5.165 2.154 7.257 7.257 0 0 1-5.165-2.154 7.264 7.264 0 0 1-2.152-5.165v-4.917zm0-8.447v3.945H53.488v-.837c0-.823.324-1.6.913-2.19a3.083 3.083 0 0 1 2.196-.918z"
        style="fill-opacity:1;fill-rule:nonzero;stroke:none;stroke-width:1.33333"
        transform="translate(-26.038 -10)" />
    <path
        d="M111.085 67.318c-1.341-1.156-3.128-2.208-5.187-3.058a11.73 11.73 0 0 0 .655-3.867v-15.61a2.258 2.258 0 0 0-2.256-2.255h-13.78c-2.021 0-3.93.793-5.38 2.233a7.587 7.587 0 0 0-2.23 5.377v10.255c0 1.413.246 2.792.735 4.104-1.906.847-3.562 1.875-4.813 2.988-1.955 1.745-2.988 3.752-2.988 5.8v24.05c0 1.24 1.01 2.25 2.25 2.25 1.242 0 2.251-1.01 2.251-2.25V73.285c0-.748.511-1.595 1.478-2.452 1.017-.912 2.464-1.76 4.2-2.464.116.126.236.252.357.373a11.715 11.715 0 0 0 8.35 3.472 11.741 11.741 0 0 0 8.88-4.035c1.855.706 3.426 1.584 4.557 2.552 1.04.894 1.59 1.776 1.59 2.554v24.052c0 1.24 1.008 2.25 2.25 2.25 1.241 0 2.25-1.01 2.25-2.25V73.284c0-2.12-1.096-4.184-3.169-5.966zm-9.041-11.842v4.917a7.269 7.269 0 0 1-2.152 5.167 7.242 7.242 0 0 1-5.167 2.152 7.26 7.26 0 0 1-5.165-2.154 7.27 7.27 0 0 1-2.152-5.165v-4.917zm0-8.447v3.945H87.409v-.836c0-.824.324-1.6.914-2.19a3.085 3.085 0 0 1 2.195-.919z"
        style="fill-opacity:1;fill-rule:nonzero;stroke:none;stroke-width:1.33333"
        transform="translate(-26.038 -10)" />
    <path
        d="M144.986 67.318c-1.34-1.156-3.128-2.208-5.186-3.058a11.73 11.73 0 0 0 .654-3.867v-15.61a2.258 2.258 0 0 0-2.256-2.255h-13.78c-2.02 0-3.93.793-5.38 2.233a7.587 7.587 0 0 0-2.23 5.377v10.255c0 1.413.248 2.792.736 4.104-1.906.847-3.563 1.875-4.814 2.988-1.954 1.745-2.988 3.752-2.988 5.8v24.05c0 1.24 1.01 2.25 2.251 2.25 1.241 0 2.25-1.01 2.25-2.25V73.285c0-.748.511-1.595 1.478-2.452 1.017-.912 2.464-1.76 4.2-2.464.117.126.236.252.359.373a11.71 11.71 0 0 0 8.348 3.472 11.746 11.746 0 0 0 8.88-4.035c1.856.706 3.426 1.584 4.557 2.552 1.04.894 1.59 1.776 1.59 2.554v24.052c0 1.24 1.009 2.25 2.25 2.25s2.25-1.01 2.25-2.25V73.284c0-2.12-1.095-4.184-3.169-5.966zm-9.04-11.842v4.917a7.269 7.269 0 0 1-2.153 5.167 7.242 7.242 0 0 1-5.167 2.152 7.26 7.26 0 0 1-5.165-2.154 7.27 7.27 0 0 1-2.152-5.165v-4.917zm0-8.447v3.945H121.31v-.836c0-.824.324-1.6.915-2.19a3.085 3.085 0 0 1 2.194-.919z"
        style="fill-opacity:1;fill-rule:nonzero;stroke:none;stroke-width:1.33333"
        transform="translate(-26.038 -10)" />
</svg>