<svg xmlns="http://www.w3.org/2000/svg" width="138" height="138">
    <path
        d="M82.83 85.871v-.001a6.54 6.54 0 0 0-4.647-1.932H59.824a6.54 6.54 0 0 0-4.647 1.933 6.523 6.523 0 0 0-1.933 4.646v25.585c0 1.748.685 3.399 1.933 4.647a6.541 6.541 0 0 0 4.647 1.925h18.359a6.528 6.528 0 0 0 4.646-1.927 6.53 6.53 0 0 0 1.927-4.645V90.517a6.527 6.527 0 0 0-1.927-4.646zm-3.422 4.646v25.585c0 .321-.13.628-.368.864-.23.23-.536.359-.857.359H59.824a1.21 1.21 0 0 1-.86-.354 1.238 1.238 0 0 1-.364-.869V90.517c0-.327.128-.634.36-.864.232-.232.539-.36.864-.36h18.359c.32 0 .625.129.864.366.233.227.361.532.361.858z"
        style="fill-opacity:1;fill-rule:nonzero;stroke:none;stroke-width:1.33333" />
    <path
        d="M83.041 25.335c0 2.294-.554 4.463-1.541 6.376a15.073 15.073 0 0 1 7.856 4.159c2.724 2.733 4.417 6.49 4.417 10.627v13.365h7.263c2.27 0 4.325.925 5.813 2.413a8.209 8.209 0 0 1 2.422 5.823c0 2.26-.926 4.325-2.422 5.812a8.176 8.176 0 0 1-5.813 2.423h-5.123v14.654h35.726a1.895 1.895 0 0 0 1.89-1.889V24.137c0-.523-.213-.995-.554-1.336a1.9 1.9 0 0 0-1.336-.554H83.04Zm-4.016-3.924c-3.164.503-8.553.556-12.97-3.428-1.518.911-4.023 1.988-7.074 1.66v5.692a9.965 9.965 0 0 0 2.946 7.075A9.988 9.988 0 0 0 69 35.354c2.756 0 5.26-1.13 7.081-2.944a9.997 9.997 0 0 0 2.944-7.075zm-20.044-5.805c2.156.372 4.364-.335 5.996-1.753a2.005 2.005 0 0 1 2.823.205c3.683 4.227 8.82 3.801 11.227 3.295V12.44a4.72 4.72 0 0 0-1.39-3.339 4.718 4.718 0 0 0-3.34-1.39H63.701a4.698 4.698 0 0 0-3.33 1.39 4.72 4.72 0 0 0-1.39 3.339zM91.9 76.333H73.545a2.01 2.01 0 0 1-2.004-2.012c0-1.108.896-2.011 2.004-2.011h27.491c1.161 0 2.21-.472 2.975-1.237a4.21 4.21 0 0 0 1.245-2.976c0-1.16-.479-2.216-1.245-2.983a4.217 4.217 0 0 0-2.975-1.237H36.964c-1.156 0-2.21.478-2.976 1.237a4.207 4.207 0 0 0 0 5.959 4.206 4.206 0 0 0 2.976 1.237h38.183c1.108 0 2.01.903 2.01 2.01a2.015 2.015 0 0 1-2.01 2.013h-29.04v52.065c.001.515.214.987.556 1.335.341.342.82.554 1.336.554H76.46c1.107 0 2.011.903 2.011 2.012a2.009 2.009 0 0 1-2.01 2.003H47.998a5.89 5.89 0 0 1-4.175-1.73 5.887 5.887 0 0 1-1.73-4.174V95.002H6.36a5.862 5.862 0 0 1-4.167-1.73 5.898 5.898 0 0 1-1.737-4.174V24.137c0-1.632.668-3.104 1.737-4.174a5.869 5.869 0 0 1 4.167-1.738h48.599V12.44c0-2.406.986-4.591 2.572-6.178a8.717 8.717 0 0 1 6.17-2.565h10.596c2.406 0 4.591.987 6.179 2.565a8.752 8.752 0 0 1 2.565 6.178v5.784h48.596c1.626 0 3.104.669 4.176 1.738a5.878 5.878 0 0 1 1.731 4.174v64.961c0 1.624-.66 3.104-1.73 4.173a5.89 5.89 0 0 1-4.175 1.731H95.913v33.396a5.904 5.904 0 0 1-1.737 4.175 5.867 5.867 0 0 1-4.168 1.729H73.545a2 2 0 0 1-2.001-2.003c0-1.109.895-2.012 2.001-2.012h16.463c.516 0 .988-.212 1.33-.554.349-.348.562-.82.562-1.335V76.333h-.001zm-49.806 0h-5.129a8.208 8.208 0 0 1-5.815-2.423 8.213 8.213 0 0 1-2.413-5.813c0-2.27.925-4.326 2.413-5.822a8.228 8.228 0 0 1 5.815-2.413h7.27V46.497c0-4.136 1.685-7.894 4.417-10.627a15.043 15.043 0 0 1 7.856-4.159 13.88 13.88 0 0 1-1.548-6.376v-3.088H6.36c-.516 0-.985.214-1.328.554-.35.341-.561.813-.561 1.336v64.961c0 .516.212.995.561 1.335a1.88 1.88 0 0 0 1.328.554h35.733Zm30.838-37.524 3.416 10.078c.265.79.014 1.64-.586 2.156l-5.394 5.016a2.005 2.005 0 0 1-2.734 0l-5.441-5.062a2.002 2.002 0 0 1-.539-2.11l3.423-10.078a14.036 14.036 0 0 1-5.761-3.334c-3.006.039-5.692 1.1-7.824 3.242a10.957 10.957 0 0 0-3.242 7.78v13.365h6.102V45.919c0-1.114.896-2.01 2.004-2.01a2.01 2.01 0 0 1 2.012 2.01v13.943H79.64V45.919c0-1.114.896-2.01 2.004-2.01a2.01 2.01 0 0 1 2.012 2.01v13.943h6.101V46.497c0-3.03-1.244-5.783-3.241-7.78-2.139-2.139-4.819-3.203-7.824-3.242a14.07 14.07 0 0 1-5.761 3.334zm-.796 10.14L69 39.705l-3.135 9.244L69 51.854z"
        style="fill-opacity:1;fill-rule:nonzero;stroke:none;stroke-width:1.33333" />
</svg>