<svg xmlns="http://www.w3.org/2000/svg" viewBox="-2048 -2048 4096 4096"><polygon stroke="green" stroke-width="8" points="-624.0 249.4153162899184 -496.0 27.712812921102 63.99999999999994 997.6612651596733 -192.00000000000006 997.6612651596733 -320.00000000000017 775.9587617908571 -448.00000000000034 997.6612651596732 -576.0000000000003 997.6612651596732 -640.0000000000003 886.8100134752651 -448.0000000000001 554.2562584220408" fill="transparent"/><polygon stroke="green" stroke-width="8" points="-528.0000000000001 -415.6921938165305 -272.0 -415.69219381653056 -832.0 554.2562584220408 -960.0 332.55375505322456 -832.0000000000001 110.85125168440817 -1088.0 110.85125168440794 -1152.0 -1.7053025658242404e-13 -1088.0 -110.85125168440834 -704.0000000000001 -110.85125168440811" fill="transparent"/><polygon stroke="green" stroke-width="8" points="95.99999999999983 -665.1075101064489 223.99999999999991 -443.4050067376326 -896.0000000000001 -443.40500673763245 -768.0000000000001 -665.1075101064487 -512.0000000000001 -665.1075101064489 -640.0 -886.8100134752652 -576.0 -997.6612651596733 -448.0 -997.6612651596733 -256.0000000000001 -665.1075101064489" fill="transparent"/><polygon stroke="green" stroke-width="8" points="624.0 -249.41531628991848 496.0 -27.71281292110206 -64.00000000000007 -997.6612651596733 191.99999999999994 -997.6612651596733 320.00000000000006 -775.9587617908571 448.0000000000002 -997.6612651596732 576.0000000000002 -997.6612651596733 640.0000000000002 -886.8100134752652 448.00000000000006 -554.2562584220408" fill="transparent"/><polygon stroke="green" stroke-width="8" points="528.0000000000002 415.6921938165302 272.00000000000017 415.69219381653045 831.9999999999998 -554.2562584220411 959.9999999999999 -332.5537550532249 832.0000000000001 -110.85125168440845 1088.0 -110.8512516844084 1152.0 -2.8421709430404007e-13 1088.0 110.85125168440794 704.0000000000001 110.85125168440788" fill="transparent"/><polygon stroke="green" stroke-width="8" points="-96.0 665.1075101064489 -224.00000000000009 443.40500673763256 896.0 443.4050067376328 768.0 665.107510106449 511.9999999999999 665.1075101064491 639.9999999999997 886.8100134752656 575.9999999999997 997.6612651596736 447.99999999999966 997.6612651596737 255.9999999999999 665.107510106449" fill="transparent"/><line stroke="black" x1="-2048" y1="0" x2="2048" y2="0"/><line stroke="black" x1="0" y1="-2048" x2="0" y2="2048"/><defs><marker id="dimension-arrow-head" refX="20" refY="5" markerWidth="20" markerHeight="20" orient="auto-start-reverse"><path d="M 0 0 v 10 L 20 5 Z " fill="red"/></marker></defs><circle stroke="blue" stroke-dasharray="4" stroke-width="4" cx="0" cy="0" r="512" fill="transparent"/><polygon stroke="blue" stroke-dasharray="4" stroke-width="4" points="512.0 0.0 256.00000000000006 443.40500673763256 -255.9999999999999 443.4050067376326 -512.0 6.270191611634448e-14 -256.0000000000002 -443.40500673763245 256.00000000000006 -443.40500673763256" fill="transparent"/><circle stroke="blue" stroke-dasharray="4" stroke-width="4" cx="0" cy="0" r="1152.0" fill="transparent"/><polygon stroke="blue" stroke-dasharray="4" stroke-width="4" points="1152.0 0.0 576.0000000000001 997.6612651596732 -575.9999999999998 997.6612651596733 -1152.0 1.410793112617751e-13 -576.0000000000005 -997.661265159673 576.0000000000001 -997.6612651596732" fill="transparent"/><polyline stroke="blue" stroke-dasharray="4" stroke-width="4" points="576.0000000000001 997.6612651596732 -576.0000000000005 -997.661265159673" fill="transparent"/><line stroke="red" stroke-width="2" x1="256.00000000000006" y1="443.40500673763256" x2="394.5640646055102" y2="363.4050067376325"/> <line stroke="red" stroke-width="2" x1="-256.0000000000002" y1="-443.40500673763245" x2="-117.43593539449009" y2="-523.4050067376324"/> <line stroke="red" stroke-width="2" x1="389.0215020212898" y1="366.6050067376325" x2="-122.9784979787105" y2="-520.2050067376325" marker-start="url(#dimension-arrow-head)" marker-end="url(#dimension-arrow-head)"/> <path id="dimension_path_512d923eaf5467afff13d8852c45dcae" d="M 390.1300145381339 365.9650067376325 L -121.8699854618664 -520.8450067376325"/> <text font-size="4rem"><textPath text-anchor="middle" startOffset="50%" href="#dimension_path_512d923eaf5467afff13d8852c45dcae" side="right">1</textPath></text><line stroke="red" stroke-width="2" x1="575.9999999999997" y1="997.6612651596736" x2="1823.0765814495917" y2="277.6612651596739"/> <line stroke="red" stroke-width="2" x1="-576.0" y1="-997.6612651596733" x2="671.0765814495919" y2="-1717.661265159673"/> <line stroke="red" stroke-width="2" x1="1773.1935181916078" y1="306.461265159674" x2="621.1935181916081" y2="-1688.861265159673" marker-start="url(#dimension-arrow-head)" marker-end="url(#dimension-arrow-head)"/> <path id="dimension_path_d9a25a559bb926385dbe25b982a6fad0" d="M 1783.1701308432048 300.7012651596739 L 631.170130843205 -1694.621265159673"/> <text font-size="4rem"><textPath text-anchor="middle" startOffset="50%" href="#dimension_path_d9a25a559bb926385dbe25b982a6fad0" side="right">9/4</textPath></text></svg>