<svg xmlns="http://www.w3.org/2000/svg" viewBox="-1024 -1024 2048 2048"><defs><linearGradient gradientUnits="userSpaceOnUse" id="linear-gradient-fe8007f03960d653a0f88aaeb7699e30" x1="-319.9999999999999" y1="-554.2562584220408" x2="127.99999999999996" y2="221.70250336881628"><stop offset="0%" stop-color="#43609e"/><stop offset="25%" stop-color="#4b6bb0"/><stop offset="100%" stop-color="#5377c3"/></linearGradient><linearGradient gradientUnits="userSpaceOnUse" id="linear-gradient-97cf99ea51a28ee27df23cfd5a6fad51" x1="-319.9999999999999" y1="-554.2562584220408" x2="127.99999999999996" y2="221.70250336881628"><stop offset="0%" stop-color="#739fbf"/><stop offset="25%" stop-color="#79add1"/><stop offset="100%" stop-color="#7ebae4"/></linearGradient></defs><line stroke="black" x1="-1024" y1="0" x2="1024" y2="0"/><line stroke="black" x1="0" y1="-1024" x2="0" y2="1024"/><defs><marker id="dimension-arrow-head" refX="20" refY="5" markerWidth="20" markerHeight="20" orient="auto-start-reverse"><path d="M 0 0 v 10 L 20 5 Z " fill="red"/></marker></defs><circle stroke="blue" stroke-dasharray="4" stroke-width="2" cx="0" cy="0" r="512" fill="transparent"/><polygon stroke="blue" stroke-dasharray="4" stroke-width="2" points="512.0 0.0 256.00000000000006 443.40500673763256 -255.9999999999999 443.4050067376326 -512.0 6.270191611634448e-14 -256.0000000000002 -443.40500673763245 256.00000000000006 -443.40500673763256" fill="transparent"/><polygon stroke="green" stroke-dasharray="4" stroke-width="4" points="-319.9999999999999 -332.55375505322445 -191.9999999999999 -554.2562584220408 384.00000000000006 443.40500673763256 128.00000000000006 443.40500673763256 -4.072608916703642e-14 221.70250336881628 -128.00000000000023 443.40500673763245 -256.0000000000002 443.40500673763245 -320.0000000000002 332.55375505322434 -128.0 0.0" fill="transparent"/><polygon stroke="green" stroke-width="4" points="-303.9999999999999 -304.8409421321224 -175.9999999999999 -526.5434455009388 384.00000000000006 443.40500673763256 128.00000000000006 443.40500673763256 -4.072608916703642e-14 221.70250336881628 -128.00000000000023 443.40500673763245 -256.0000000000002 443.40500673763245 -320.0000000000002 332.55375505322434 -128.0 0.0" fill="transparent"/><line stroke="blue" stroke-dasharray="4" stroke-width="2" x1="-319.9999999999999" y1="-554.2562584220408" x2="127.99999999999996" y2="221.70250336881628"/><circle cx="-319.9999999999999" cy="-554.2562584220408" r="4" fill="blue"/><circle cx="-207.99999999999994" cy="-360.2665679743265" r="4" fill="blue"/><circle cx="127.99999999999994" cy="221.70250336881634" r="4" fill="blue"/><text font-size="2rem" x="-319.9999999999999" y="-554.2562584220408" dx="5.12" dy="-5.12">0%</text><text font-size="2rem" x="-207.99999999999994" y="-360.2665679743265" dx="5.12" dy="-5.12">25%</text><text font-size="2rem" x="127.99999999999994" y="221.70250336881634" dx="5.12" dy="-5.12">100%</text><line stroke="red" stroke-width="1" x1="-319.9999999999999" y1="-332.55375505322445" x2="-319.9999999999999" y2="-332.55375505322445"/> <line stroke="red" stroke-width="1" x1="-319.9999999999999" y1="-554.2562584220408" x2="-319.9999999999999" y2="-554.2562584220408"/> <line stroke="red" stroke-width="1" x1="-319.9999999999999" y1="-332.55375505322445" x2="-319.9999999999999" y2="-554.2562584220408" marker-start="url(#dimension-arrow-head)" marker-end="url(#dimension-arrow-head)"/> <path id="dimension_path_f4e089c986e70163999dea6225b696a7" d="M -319.9999999999999 -332.55375505322445 L -319.9999999999999 -554.2562584220408"/> <text font-size="2rem"><textPath text-anchor="middle" startOffset="50%" href="#dimension_path_f4e089c986e70163999dea6225b696a7" side="left">V</textPath></text><line stroke="red" stroke-width="1" x1="-191.9999999999999" y1="-554.2562584220408" x2="-191.9999999999999" y2="-554.2562584220408"/> <line stroke="red" stroke-width="1" x1="-319.9999999999999" y1="-554.2562584220408" x2="-319.9999999999999" y2="-554.2562584220408"/> <line stroke="red" stroke-width="1" x1="-191.9999999999999" y1="-554.2562584220408" x2="-319.9999999999999" y2="-554.2562584220408" marker-start="url(#dimension-arrow-head)" marker-end="url(#dimension-arrow-head)"/> <path id="dimension_path_2c075730f4b8bb0fcdd0c78d2bf22515" d="M -191.9999999999999 -554.2562584220408 L -319.9999999999999 -554.2562584220408"/> <text font-size="2rem"><textPath text-anchor="middle" startOffset="50%" href="#dimension_path_2c075730f4b8bb0fcdd0c78d2bf22515" side="left">H</textPath></text><line stroke="red" stroke-width="1" x1="-4.072608916703642e-14" y1="221.70250336881628" x2="-4.072608916703642e-14" y2="221.70250336881628"/> <line stroke="red" stroke-width="1" x1="127.99999999999996" y1="221.70250336881628" x2="127.99999999999996" y2="221.70250336881628"/> <line stroke="red" stroke-width="1" x1="-4.072608916703642e-14" y1="221.70250336881628" x2="127.99999999999996" y2="221.70250336881628" marker-start="url(#dimension-arrow-head)" marker-end="url(#dimension-arrow-head)"/> <path id="dimension_path_51a927d3b09a5f271ef25165a72f46a9" d="M -4.072608916703642e-14 221.70250336881628 L 127.99999999999996 221.70250336881628"/> <text font-size="2rem"><textPath text-anchor="middle" startOffset="50%" href="#dimension_path_51a927d3b09a5f271ef25165a72f46a9" side="left">H</textPath></text></svg>