<svg xmlns="http://www.w3.org/2000/svg" viewBox="-1024 -1024 2048 2048"><line stroke="black" x1="-1024" y1="0" x2="1024" y2="0"/><line stroke="black" x1="0" y1="-1024" x2="0" y2="1024"/><defs><marker id="dimension-arrow-head" refX="20" refY="5" markerWidth="20" markerHeight="20" orient="auto-start-reverse"><path d="M 0 0 v 10 L 20 5 Z " fill="red"/></marker></defs><circle stroke="blue" stroke-dasharray="4" stroke-width="2" cx="0" cy="0" r="512" fill="transparent"/><polygon stroke="blue" stroke-dasharray="4" stroke-width="2" points="512.0 0.0 256.00000000000006 443.40500673763256 -255.9999999999999 443.4050067376326 -512.0 6.270191611634448e-14 -256.0000000000002 -443.40500673763245 256.00000000000006 -443.40500673763256" fill="transparent"/><polyline stroke="blue" stroke-dasharray="4" stroke-width="2" points="256.00000000000006 443.40500673763256 -256.0000000000002 -443.40500673763245" fill="transparent"/><polygon stroke="green" stroke-dasharray="4" stroke-width="4" points="-319.9999999999999 -332.55375505322445 -191.9999999999999 -554.2562584220408 384.00000000000006 443.40500673763256 128.00000000000006 443.40500673763256 -4.072608916703642e-14 221.70250336881628 -128.00000000000023 443.40500673763245 -256.0000000000002 443.40500673763245 -320.0000000000002 332.55375505322434 -128.0 0.0" fill="transparent"/><polygon stroke="green" stroke-width="4" points="-303.9999999999999 -304.8409421321224 -175.9999999999999 -526.5434455009388 384.00000000000006 443.40500673763256 128.00000000000006 443.40500673763256 -4.072608916703642e-14 221.70250336881628 -128.00000000000023 443.40500673763245 -256.0000000000002 443.40500673763245 -320.0000000000002 332.55375505322434 -128.0 0.0" fill="transparent"/><line stroke="red" stroke-width="1" x1="256.00000000000006" y1="443.40500673763256" x2="810.2562584220407" y2="123.40500673763239"/> <line stroke="red" stroke-width="1" x1="-256.0000000000002" y1="-443.40500673763245" x2="298.25625842204033" y2="-763.4050067376327"/> <line stroke="red" stroke-width="1" x1="788.0860080851589" y1="136.2050067376324" x2="276.0860080851587" y2="-750.6050067376326" marker-start="url(#dimension-arrow-head)" marker-end="url(#dimension-arrow-head)"/> <path id="dimension_path_1c255c4d6262fb02c5a394a065c0cee2" d="M 792.5200581525353 133.6450067376324 L 280.52005815253506 -753.1650067376327"/> <text font-size="2rem"><textPath text-anchor="middle" startOffset="50%" href="#dimension_path_1c255c4d6262fb02c5a394a065c0cee2" side="right">1</textPath></text><line stroke="red" stroke-width="1" x1="256.00000000000006" y1="443.40500673763256" x2="759.3772659497049" y2="152.78000673763262"/> <line stroke="red" stroke-width="1" x1="-239.9999999999999" y1="-415.69219381653056" x2="263.377265949705" y2="-706.3171938165306"/> <line stroke="red" stroke-width="1" x1="739.2421753117168" y1="164.40500673763262" x2="243.24217531171684" y2="-694.6921938165306" marker-start="url(#dimension-arrow-head)" marker-end="url(#dimension-arrow-head)"/> <path id="dimension_path_c70508ffb4986b1c316857f3223ba11b" d="M 743.2691934393144 162.08000673763263 L 247.26919343931445 -697.0171938165305"/> <text font-size="2rem"><textPath text-anchor="middle" startOffset="50%" href="#dimension_path_c70508ffb4986b1c316857f3223ba11b" side="right">31/32</textPath></text><line stroke="red" stroke-width="1" x1="384.00000000000006" y1="443.40500673763256" x2="914.4405598179687" y2="137.15500673763256"/> <line stroke="red" stroke-width="1" x1="-175.9999999999999" y1="-526.5434455009388" x2="354.44055981796885" y2="-832.7934455009388"/> <line stroke="red" stroke-width="1" x1="893.2229374252499" y1="149.40500673763256" x2="333.22293742525005" y2="-820.5434455009388" marker-start="url(#dimension-arrow-head)" marker-end="url(#dimension-arrow-head)"/> <path id="dimension_path_465e04230dcd60d72d5463e48d51e624" d="M 897.4664619037937 146.95500673763257 L 337.46646190379386 -822.9934455009388"/> <text font-size="2rem"><textPath text-anchor="middle" startOffset="50%" href="#dimension_path_465e04230dcd60d72d5463e48d51e624" side="right">35/32</textPath></text><line stroke="red" stroke-width="1" x1="-128.0" y1="0.0" x2="-80.36860279185588" y2="-27.499999999999986"/> <line stroke="red" stroke-width="1" x1="-303.9999999999999" y1="-304.8409421321224" x2="-256.3686027918558" y2="-332.3409421321224"/> <line stroke="red" stroke-width="1" x1="-82.27385868018165" y1="-26.399999999999984" x2="-258.27385868018155" y2="-331.24094213212237" marker-start="url(#dimension-arrow-head)" marker-end="url(#dimension-arrow-head)"/> <path id="dimension_path_370e008d79d7ec6051016118629a5460" d="M -81.89280750251649 -26.619999999999983 L -257.8928075025164 -331.4609421321224"/> <text font-size="2rem"><textPath text-anchor="middle" startOffset="50%" href="#dimension_path_370e008d79d7ec6051016118629a5460" side="right">11/32</textPath></text><line stroke="red" stroke-width="1" x1="-191.9999999999999" y1="-554.2562584220408" x2="-261.282032302755" y2="-594.2562584220408"/> <line stroke="red" stroke-width="1" x1="-319.9999999999999" y1="-332.55375505322445" x2="-389.282032302755" y2="-372.55375505322445"/> <line stroke="red" stroke-width="1" x1="-258.51075101064475" y1="-592.6562584220408" x2="-386.51075101064475" y2="-370.9537550532244" marker-start="url(#dimension-arrow-head)" marker-end="url(#dimension-arrow-head)"/> <path id="dimension_path_559cb51641c5b1a636a39e3b97cd6a61" d="M -259.0650072690668 -592.9762584220408 L -387.0650072690668 -371.2737550532245"/> <text font-size="2rem"><textPath text-anchor="middle" startOffset="50%" href="#dimension_path_559cb51641c5b1a636a39e3b97cd6a61" side="right">1/4</textPath></text><line stroke="red" stroke-width="1" x1="384.00000000000006" y1="443.40500673763256" x2="968.5671475544962" y2="105.90500673763256"/> <line stroke="red" stroke-width="1" x1="-191.9999999999999" y1="-554.2562584220408" x2="392.5671475544963" y2="-891.7562584220408"/> <line stroke="red" stroke-width="1" x1="945.1844616523163" y1="119.40500673763256" x2="369.1844616523164" y2="-878.2562584220408" marker-start="url(#dimension-arrow-head)" marker-end="url(#dimension-arrow-head)"/> <path id="dimension_path_c93ef71017d7e3e8122d0f2b66315ba1" d="M 949.8609988327523 116.70500673763257 L 373.86099883275233 -880.9562584220407"/> <text font-size="2rem"><textPath text-anchor="middle" startOffset="50%" href="#dimension_path_c93ef71017d7e3e8122d0f2b66315ba1" side="right">9/8</textPath></text><line stroke="red" stroke-width="1" x1="128.00000000000006" y1="443.40500673763256" x2="128.00000000000006" y2="523.4050067376326"/> <line stroke="red" stroke-width="1" x1="384.00000000000006" y1="443.40500673763256" x2="384.00000000000006" y2="523.4050067376326"/> <line stroke="red" stroke-width="1" x1="128.00000000000006" y1="520.2050067376325" x2="384.00000000000006" y2="520.2050067376325" marker-start="url(#dimension-arrow-head)" marker-end="url(#dimension-arrow-head)"/> <path id="dimension_path_5bb1cf8a9241dc685c75f27ad265223c" d="M 128.00000000000006 519.5650067376325 L 384.00000000000006 519.5650067376325"/> <text font-size="2rem"><textPath text-anchor="middle" startOffset="50%" href="#dimension_path_5bb1cf8a9241dc685c75f27ad265223c" side="left">1/4</textPath></text><line stroke="red" stroke-width="1" x1="128.00000000000006" y1="443.40500673763256" x2="197.28203230275514" y2="403.40500673763256"/> <line stroke="red" stroke-width="1" x1="-4.072608916703642e-14" y1="221.70250336881628" x2="69.28203230275504" y2="181.70250336881625"/> <line stroke="red" stroke-width="1" x1="194.51075101064492" y1="405.0050067376325" x2="66.51075101064484" y2="183.30250336881625" marker-start="url(#dimension-arrow-head)" marker-end="url(#dimension-arrow-head)"/> <path id="dimension_path_d6c0fb81337555a80c01427c6790b94f" d="M 195.065007269067 404.68500673763253 L 67.06500726906688 182.98250336881625"/> <text font-size="2rem"><textPath text-anchor="middle" startOffset="50%" href="#dimension_path_d6c0fb81337555a80c01427c6790b94f" side="right">1/4</textPath></text><line stroke="red" stroke-width="1" x1="-4.072608916703642e-14" y1="221.70250336881628" x2="-69.2820323027551" y2="181.70250336881622"/> <line stroke="red" stroke-width="1" x1="-128.00000000000023" y1="443.40500673763245" x2="-197.28203230275528" y2="403.4050067376324"/> <line stroke="red" stroke-width="1" x1="-66.51075101064488" y1="183.30250336881622" x2="-194.51075101064507" y2="405.00500673763236" marker-start="url(#dimension-arrow-head)" marker-end="url(#dimension-arrow-head)"/> <path id="dimension_path_889a96cc5c4f14d1b3a47e744fdaab12" d="M -67.06500726906692 182.98250336881623 L -195.0650072690671 404.68500673763236"/> <text font-size="2rem"><textPath text-anchor="middle" startOffset="50%" href="#dimension_path_889a96cc5c4f14d1b3a47e744fdaab12" side="right">1/4</textPath></text><line stroke="red" stroke-width="1" x1="-256.0000000000002" y1="443.40500673763245" x2="-256.0000000000002" y2="523.4050067376324"/> <line stroke="red" stroke-width="1" x1="-128.00000000000023" y1="443.40500673763245" x2="-128.00000000000023" y2="523.4050067376324"/> <line stroke="red" stroke-width="1" x1="-256.0000000000002" y1="520.2050067376324" x2="-128.00000000000023" y2="520.2050067376324" marker-start="url(#dimension-arrow-head)" marker-end="url(#dimension-arrow-head)"/> <path id="dimension_path_ffe99005c072abb8cd826c57c7ba5946" d="M -256.0000000000002 519.5650067376324 L -128.00000000000023 519.5650067376324"/> <text font-size="2rem"><textPath text-anchor="middle" startOffset="50%" href="#dimension_path_ffe99005c072abb8cd826c57c7ba5946" side="left">1/8</textPath></text><line stroke="red" stroke-width="1" x1="-320.0000000000002" y1="332.55375505322434" x2="-389.2820323027553" y2="372.55375505322434"/> <line stroke="red" stroke-width="1" x1="-256.0000000000002" y1="443.40500673763245" x2="-325.2820323027553" y2="483.40500673763245"/> <line stroke="red" stroke-width="1" x1="-386.5107510106451" y1="370.9537550532243" x2="-322.5107510106451" y2="481.8050067376324" marker-start="url(#dimension-arrow-head)" marker-end="url(#dimension-arrow-head)"/> <path id="dimension_path_f5fda62e05d24419906b8098778d8bda" d="M -385.9564947522231 370.6337550532243 L -321.9564947522231 481.48500673763243"/> <text font-size="2rem"><textPath text-anchor="middle" startOffset="50%" href="#dimension_path_f5fda62e05d24419906b8098778d8bda" side="left">1/8</textPath></text><line stroke="red" stroke-width="1" x1="-320.0000000000002" y1="332.55375505322434" x2="-268.0384757729339" y2="362.5537550532244"/> <line stroke="red" stroke-width="1" x1="-128.0" y1="0.0" x2="-76.0384757729337" y2="30.000000000000032"/> <line stroke="red" stroke-width="1" x1="-270.1169367420166" y1="361.35375505322435" x2="-78.11693674201635" y2="28.80000000000003" marker-start="url(#dimension-arrow-head)" marker-end="url(#dimension-arrow-head)"/> <path id="dimension_path_c839fc38354fa96574044fa18aea0233" d="M -270.5326289358331 361.1137550532244 L -78.53262893583289 28.56000000000003"/> <text font-size="2rem"><textPath text-anchor="middle" startOffset="50%" href="#dimension_path_c839fc38354fa96574044fa18aea0233" side="left">3/8</textPath></text><line stroke="red" stroke-width="1" x1="-319.9999999999999" y1="-332.55375505322445" x2="-423.9230484541325" y2="-272.5537550532245"/> <line stroke="red" stroke-width="1" x1="-128.0" y1="0.0" x2="-231.92304845413264" y2="59.999999999999964"/> <line stroke="red" stroke-width="1" x1="-419.76612651596724" y1="-274.9537550532245" x2="-227.76612651596733" y2="57.59999999999996" marker-start="url(#dimension-arrow-head)" marker-end="url(#dimension-arrow-head)"/> <path id="dimension_path_ab9676dea0dc16206aaf19ff74a7b3af" d="M -418.93474212833416 -275.4337550532245 L -226.93474212833428 57.11999999999996"/> <text font-size="2rem"><textPath text-anchor="middle" startOffset="50%" href="#dimension_path_ab9676dea0dc16206aaf19ff74a7b3af" side="left">3/8</textPath></text></svg>