<svg xmlns:dc="http://purl.org/dc/elements/1.1/" xmlns:cc="http://creativecommons.org/ns#" xmlns:rdf="http://www.w3.org/1999/02/22-rdf-syntax-ns#" xmlns:svg="http://www.w3.org/2000/svg" xmlns="http://www.w3.org/2000/svg" id="svg3297" version="1.1" viewBox="0 0 206 171" height="171" width="206">
    <defs id="defs3291">
      <linearGradient x1="-41.009003" y1="1076.8619" x2="-39.052826" y2="1079.474" gradientUnits="userSpaceOnUse" gradientTransform="matrix(1,0,0,-1,1212.9646,5671.5529)" spreadMethod="pad" id="linearGradient706">
        <stop style="stop-opacity:1;stop-color:#4e89c8" offset="0" id="stop700"></stop>
        <stop style="stop-opacity:1;stop-color:#65a4d7" offset="0.24299999" id="stop702"></stop>
        <stop style="stop-opacity:1;stop-color:#66addf" offset="1" id="stop704"></stop>
      </linearGradient>
      <linearGradient x1="-65.862793" y1="1059.7554" x2="-64.62439" y2="1061.4089" gradientUnits="userSpaceOnUse" gradientTransform="matrix(1,0,0,-1,3638.332,5628.8188)" spreadMethod="pad" id="linearGradient871">
        <stop style="stop-opacity:1;stop-color:#4e89c8" offset="0" id="stop865"></stop>
        <stop style="stop-opacity:1;stop-color:#65a4d7" offset="0.24299999" id="stop867"></stop>
        <stop style="stop-opacity:1;stop-color:#66addf" offset="1" id="stop869"></stop>
      </linearGradient>
    </defs>
    <metadata id="metadata3294">
      <rdf:rdf>
        <cc:work rdf:about="">
          <dc:format>image/svg+xml</dc:format>
          <dc:type rdf:resource="http://purl.org/dc/dcmitype/StillImage"></dc:type>
          <dc:title></dc:title>
        </cc:work>
      </rdf:rdf>
    </metadata>
    <g transform="translate(-77.673367,-125.89071)" id="layer1">
      <g style="stroke-width:0.265307" transform="matrix(0.3324239,0,0,0.3324239,-1288.0268,-699.73392)" id="g5465">
        <path d="m 4529.0767,2484.4944 h -393.9062 c -14.8368,0 -26.8613,12.0246 -26.8613,26.8566 v 322.2886 c 0,14.8326 12.0245,26.8567 26.8613,26.8567 h 393.9062 c 14.8318,0 26.8564,-12.0241 26.8564,-26.8567 V 2511.351 c 0,-14.832 -12.0246,-26.8566 -26.8564,-26.8566 z m -393.9062,17.9044 h 393.9062 c 4.9428,0 8.9521,4.0098 8.9521,8.9522 v 44.7611 h -411.8107 v -44.7611 c 0,-4.9424 4.01,-8.9522 8.9524,-8.9522 z m 393.9062,340.193 h -393.9062 c -4.9424,0 -8.9524,-4.0142 -8.9524,-8.9522 v -259.6232 h 411.8107 v 259.6232 c 0,4.938 -4.0093,8.9522 -8.9521,8.9522 z" style="fill:#3665ae;fill-opacity:1;fill-rule:nonzero;stroke:none;stroke-width:1.06123" id="path809"></path>
        <path d="m 4153.0748,2538.2078 h 8.9524 c 4.9424,0 8.9522,-4.0098 8.9522,-8.9522 0,-4.9425 -4.0098,-8.9524 -8.9522,-8.9524 h -8.9524 c -4.9422,0 -8.9521,4.0099 -8.9521,8.9524 0,4.9424 4.0099,8.9522 8.9521,8.9522 z" style="fill:#ff6f3a;fill-opacity:1;fill-rule:nonzero;stroke:none;stroke-width:1.06123" id="path813"></path>
        <path d="m 4197.8366,2538.2078 h 8.952 c 4.9425,0 8.9521,-4.0098 8.9521,-8.9522 0,-4.9425 -4.0096,-8.9524 -8.9521,-8.9524 h -8.952 c -4.9426,0 -8.9524,4.0099 -8.9524,8.9524 0,4.9424 4.0098,8.9522 8.9524,8.9522 z" style="fill:#ffac0d;fill-opacity:1;fill-rule:nonzero;stroke:none;stroke-width:1.06123" id="path817"></path>
        <path d="m 4242.5976,2538.2078 h 8.9523 c 4.9423,0 8.9524,-4.0098 8.9524,-8.9522 0,-4.9425 -4.0101,-8.9524 -8.9524,-8.9524 h -8.9523 c -4.9424,0 -8.9521,4.0099 -8.9521,8.9524 0,4.9424 4.0097,8.9522 8.9521,8.9522 z" style="fill:#6b6b6b;fill-opacity:1;fill-rule:nonzero;stroke:none;stroke-width:1.06123" id="path821"></path>
        <path d="m 4403.7422,2538.2078 h 107.4311 c 4.9427,0 8.9522,-4.0098 8.9522,-8.9522 0,-4.9425 -4.0095,-8.9524 -8.9522,-8.9524 h -107.4311 c -4.9426,0 -8.9523,4.0099 -8.9523,8.9524 0,4.9424 4.0097,8.9522 8.9523,8.9522 z" style="fill:#3665ae;fill-opacity:1;fill-rule:nonzero;stroke:none;stroke-width:1.06123" id="path825"></path>
        <path d="m 4191.5071,2696.729 c 3.5128,3.3897 9.099,3.3426 12.5503,-0.1136 3.4556,-3.4512 3.5032,-9.0325 0.1088,-12.5454 l -29.4793,-29.4795 29.4793,-29.4839 c 3.3945,-3.5127 3.3469,-9.094 -0.1088,-12.5452 -3.4513,-3.456 -9.0375,-3.5031 -12.5503,-0.1136 l -35.8087,35.8138 c -3.4987,3.4936 -3.4987,9.1604 0,12.6589 l 35.8087,35.8086 z" style="fill:#ffac0d;fill-opacity:1;fill-rule:nonzero;stroke:none;stroke-width:1.06123" id="path829"></path>
        <path d="m 4272.0765,2696.729 c 3.4985,3.4988 9.1653,3.4988 12.6592,0 l 35.8134,-35.8086 c 3.494,-3.4985 3.494,-9.1653 0,-12.6589 l -35.8134,-35.8137 c -3.5128,-3.3894 -9.0944,-3.3423 -12.5454,0.1136 -3.4561,3.4512 -3.5032,9.0324 -0.1136,12.5452 l 29.4841,29.4838 -29.4841,29.4795 c -3.4937,3.4985 -3.4937,9.1607 0,12.6589 z" style="fill:#ffac0d;fill-opacity:1;fill-rule:nonzero;stroke:none;stroke-width:1.06123" id="path833"></path>
        <path d="m 4221.5544,2698.7838 c 2.2202,0.8425 4.682,0.7528 6.8455,-0.2272 2.1635,-0.9847 3.8486,-2.7836 4.6819,-5.0039 l 26.8566,-71.6226 c 1.7279,-4.6297 -0.6248,-9.79 -5.2501,-11.5179 -4.6345,-1.7328 -9.7947,0.6202 -11.5228,5.2501 l -26.8566,71.6176 c -1.7233,4.6301 0.6203,9.776 5.2455,11.5039 z" style="fill:#ffac0d;fill-opacity:1;fill-rule:nonzero;stroke:none;stroke-width:1.06123" id="path837"></path>
        <path d="m 4502.2212,2686.1816 h -98.479 c -4.9426,0 -8.9523,4.0098 -8.9523,8.9524 0,4.9422 4.0097,8.9522 8.9523,8.9522 h 98.479 c 4.9424,0 8.9521,-4.01 8.9521,-8.9522 0,-4.9426 -4.0097,-8.9524 -8.9521,-8.9524 z" style="fill:#3665ae;fill-opacity:1;fill-rule:nonzero;stroke:none;stroke-width:1.06123" id="path841"></path>
        <path d="m 4502.2212,2739.8949 h -205.9057 c -4.9422,0 -8.9568,4.0099 -8.9568,8.9526 0,4.9424 4.0146,8.9522 8.9568,8.9522 h 205.9057 c 4.9424,0 8.9521,-4.0098 8.9521,-8.9522 0,-4.9427 -4.0097,-8.9526 -8.9521,-8.9526 z" style="fill:#3665ae;fill-opacity:1;fill-rule:nonzero;stroke:none;stroke-width:1.06123" id="path845"></path>
        <path d="m 4162.0279,2757.7997 h 98.4742 c 4.9422,0 8.952,-4.0098 8.952,-8.9522 0,-4.9427 -4.0098,-8.9526 -8.952,-8.9526 h -98.4742 c -4.9424,0 -8.9524,4.0099 -8.9524,8.9526 0,4.9424 4.01,8.9522 8.9524,8.9522 z" style="fill:#3665ae;fill-opacity:1;fill-rule:nonzero;stroke:none;stroke-width:1.06123" id="path849"></path>
        <path d="m 4502.2212,2788.874 h -98.479 c -4.9426,0 -8.9523,4.0147 -8.9523,8.9522 0,4.9426 4.0097,8.9526 8.9523,8.9526 h 98.479 c 4.9424,0 8.9521,-4.01 8.9521,-8.9526 0,-4.9375 -4.0097,-8.9522 -8.9521,-8.9522 z" style="fill:#3665ae;fill-opacity:1;fill-rule:nonzero;stroke:none;stroke-width:1.06123" id="path853"></path>
        <path d="m 4367.9331,2793.608 h -205.9052 c -4.9424,0 -8.9524,4.0147 -8.9524,8.9522 0,4.9426 4.01,8.9526 8.9524,8.9526 h 205.9052 c 4.9426,0 8.9522,-4.01 8.9522,-8.9526 0,-4.9375 -4.0096,-8.9522 -8.9522,-8.9522 z" style="fill:#3665ae;fill-opacity:1;fill-rule:nonzero;stroke:none;stroke-width:1.06123" id="path857"></path>
        <path d="m 4727.9998,2839.0653 -21.0147,-36.4197 -16.3847,-0.042 8.3745,-14.4108 -40.8316,-69.241 0.18,-0.3124 -21.3086,-36.8127 h -42.0483 l -8.2275,14.1597 -8.3038,-14.4722 -80.6076,0.7622 -0.3696,-0.6485 h -42.5405 l -21.0386,36.4099 8.1902,14.2925 -16.7067,-0.047 -39.8801,70.5146 h -0.048 l -21.218,36.8599 21.0098,36.4194 16.3895,0.043 -8.3793,14.4151 40.9263,69.3833 -0.099,0.1704 21.313,36.8125 h 42.0625 l 8.2278,-14.1646 8.3037,14.4722 80.4892,-0.7576 0.1708,0.2936 h 42.5406 l 21.0432,-36.4145 -8.157,-14.2166 16.6782,0.052 39.6907,-70.24 h 0.3456 l 21.2281,-36.8596 z m -166.5364,33.7923 h -32.3862 l -19.6558,-30.1282 -1.9599,-3.3946 19.5044,-33.7729 h 38.4458 l 19.4382,33.6643 -19.4244,33.6314 z" style="fill:#ffffff;fill-opacity:1;fill-rule:nonzero;stroke:none;stroke-width:1.06123" id="path861"></path>
        <path d="m 4484.8223,2842.7293 76.6406,132.7302 -35.2217,0.3312 -20.456,-35.6714 -20.6077,35.4772 h -17.521 l -8.9663,-15.485 29.3608,-50.48 -20.8396,-36.2632 17.6109,-30.6392 z" style="fill:url(#linearGradient871);fill-opacity:1;fill-rule:evenodd;stroke:none;stroke-width:1.06123" id="path873"></path>
        <path d="m 4512.4834,2788.0454 -76.6687,132.7491 -17.895,-30.3409 20.6597,-35.539 -41.0306,-0.1088 -8.7485,-15.1585 8.9285,-15.5044 58.4001,0.18 20.991,-36.1828 35.3635,-0.095 z" style="fill:#66addf;fill-opacity:1;fill-rule:evenodd;stroke:none;stroke-width:1.06123" id="path877"></path>
        <path d="m 4518.3679,2894.1606 h 153.2859 l -17.3269,30.6629 -41.1157,-0.114 20.4182,35.5817 -8.7532,15.149 h -17.895 l -29.0108,-50.6643 -41.8259,-0.09 -17.7766,-30.5254 z" style="fill:#66addf;fill-opacity:1;fill-rule:evenodd;stroke:none;stroke-width:1.06123" id="path881"></path>
        <path d="m 4607.5828,2835.9926 -76.6406,-132.7255 35.2216,-0.336 20.461,35.6715 20.603,-35.4727 h 17.5017 l 8.9619,15.4853 -29.3564,50.4752 20.8347,36.2678 -17.5869,30.6345 z" style="fill:#66addf;fill-opacity:1;fill-rule:evenodd;stroke:none;stroke-width:1.06123" id="path885"></path>
        <path d="m 4484.8223,2842.7293 76.6406,132.7302 -35.2217,0.3312 -20.456,-35.6714 -20.6077,35.4772 h -17.521 l -8.9663,-15.485 29.3608,-50.48 -20.8396,-36.2632 17.6109,-30.6392 z" style="fill:#3665ae;fill-opacity:1;fill-rule:evenodd;stroke:none;stroke-width:1.06123" id="path889"></path>
        <path d="m 4573.7288,2784.2582 h -153.2904 l 17.3268,-30.6343 41.1157,0.1136 -20.4228,-35.6525 8.7534,-15.154 h 17.8945 l 29.0107,50.6693 41.826,0.085 17.7861,30.5727 z" style="fill:#3665ae;fill-opacity:1;fill-rule:evenodd;stroke:none;stroke-width:1.06123" id="path893"></path>
        <path d="m 4579.7456,2890.6572 76.6499,-132.7253 17.8902,30.3359 -20.6546,35.5391 41.0303,0.1088 8.7439,15.1584 -8.9233,15.5088 -58.4007,-0.1844 -20.9907,36.1878 -35.345,0.071 z" style="fill:#3665ae;fill-opacity:1;fill-rule:evenodd;stroke:none;stroke-width:1.06123" id="path897"></path>
      </g>
    </g>
  </svg>