<svg xmlns:dc="http://purl.org/dc/elements/1.1/" xmlns:cc="http://creativecommons.org/ns#" xmlns:rdf="http://www.w3.org/1999/02/22-rdf-syntax-ns#" xmlns:svg="http://www.w3.org/2000/svg" xmlns="http://www.w3.org/2000/svg" xmlns:sodipodi="http://sodipodi.sourceforge.net/DTD/sodipodi-0.dtd" xmlns:inkscape="http://www.inkscape.org/namespaces/inkscape" width="58.102081mm" height="48.604347mm" viewBox="0 0 58.102081 48.604347" version="1.1" id="svg3721" inkscape:version="1.0.1 (3bc2e813f5, 2020-09-07)" sodipodi:docname="gfx-learn-how.svg">
    <defs id="defs3715">
      <linearGradient x1="-151.16895" y1="1123.6373" x2="-149.01208" y2="1126.5175" gradientUnits="userSpaceOnUse" gradientTransform="matrix(0.25,0,0,-0.25,337.56284,1313.1951)" spreadMethod="pad" id="linearGradient1023">
        <stop style="stop-opacity:1;stop-color:#4e89c8" offset="0" id="stop1017"></stop>
        <stop style="stop-opacity:1;stop-color:#65a4d7" offset="0.24299999" id="stop1019"></stop>
        <stop style="stop-opacity:1;stop-color:#66addf" offset="1" id="stop1021"></stop>
      </linearGradient>
    </defs>
    <sodipodi:namedview id="base" pagecolor="#ffffff" bordercolor="#666666" borderopacity="1.0" inkscape:pageopacity="0.0" inkscape:pageshadow="2" inkscape:zoom="0.35" inkscape:cx="-233.72775" inkscape:cy="184.69848" inkscape:document-units="mm" inkscape:current-layer="layer1" inkscape:document-rotation="0" showgrid="false" inkscape:window-width="1917" inkscape:window-height="1025" inkscape:window-x="0" inkscape:window-y="764" inkscape:window-maximized="1"></sodipodi:namedview>
    <metadata id="metadata3718">
      <rdf:rdf>
        <cc:work rdf:about="">
          <dc:format>image/svg+xml</dc:format>
          <dc:type rdf:resource="http://purl.org/dc/dcmitype/StillImage"></dc:type>
          <dc:title></dc:title>
        </cc:work>
      </rdf:rdf>
    </metadata>
    <g inkscape:label="Layer 1" inkscape:groupmode="layer" id="layer1" transform="translate(-65.242252,-99.298528)">
      <g id="g1015" transform="matrix(0.35277777,0,0,0.35277777,-154.43908,-52.486056)">
        <path d="m 692.23993,491.12704 33.37164,57.79276 -15.33642,0.14478 -8.909,-15.53162 -8.97113,15.44641 h -7.63074 l -3.9032,-6.7428 12.78382,-21.97986 -9.07318,-15.79013 z" style="fill:url(#linearGradient1023);fill-opacity:1;fill-rule:evenodd;stroke:none" id="path1025"></path>
      </g>
      <g id="g1027" transform="matrix(0.35277777,0,0,0.35277777,-156.86839,-54.386906)">
        <path d="m 711.17078,472.70404 -33.38324,57.80194 -7.79102,-13.21039 8.99426,-15.47479 -17.86584,-0.0478 -3.8089,-6.59936 3.88776,-6.75312 25.42938,0.0801 9.13904,-15.75653 15.39856,-0.04 z" style="fill:#66addf;fill-opacity:1;fill-rule:evenodd;stroke:none" id="path1029"></path>
      </g>
      <g id="g1031" transform="matrix(0.35277777,0,0,0.35277777,-152.3647,-50.698386)">
        <path d="m 700.96606,508.453 h 66.74451 l -7.54413,13.35254 -17.90332,-0.0504 8.89087,15.49286 -3.8128,6.59802 h -7.79102 l -12.63129,-22.06238 -18.21221,-0.0376 -7.74061,-13.29303 z" style="fill:#66addf;fill-opacity:1;fill-rule:evenodd;stroke:none" id="path1033"></path>
      </g>
      <g id="g1035" transform="matrix(0.35277777,0,0,0.35277777,-151.92754,-57.345396)">
        <path d="m 738.5733,501.96759 -33.37024,-57.79285 15.33515,-0.14471 8.90899,15.53162 8.97236,-15.44629 h 7.61908 l 3.90454,6.74279 -12.78382,21.97974 9.07318,15.79016 z" style="fill:#66addf;fill-opacity:1;fill-rule:evenodd;stroke:none" id="path1037"></path>
      </g>
      <g id="g1039" transform="matrix(0.35277777,0,0,0.35277777,-154.43908,-52.486056)">
        <path d="m 692.23993,491.12704 33.37164,57.79276 -15.33642,0.14478 -8.909,-15.53162 -8.97113,15.44641 h -7.63074 l -3.9032,-6.7428 12.78382,-21.97986 -9.07318,-15.79013 z" style="fill:#3665ae;fill-opacity:1;fill-rule:evenodd;stroke:none" id="path1041"></path>
      </g>
      <g id="g1043" transform="matrix(0.35277777,0,0,0.35277777,-155.76858,-57.345396)">
        <path d="m 734.7196,479.44116 h -66.74462 l 7.54419,-13.3396 17.90332,0.0504 -8.89344,-15.52515 3.8114,-6.59674 h 7.79114 l 12.63257,22.0625 18.21216,0.0375 7.74328,13.31116 z" style="fill:#3665ae;fill-opacity:1;fill-rule:evenodd;stroke:none" id="path1045"></path>
      </g>
      <g id="g1047" transform="matrix(0.35277777,0,0,0.35277777,-150.23119,-55.433636)">
        <path d="m 721.64404,520.35059 33.37421,-57.79157 7.79102,13.20905 -8.99305,15.47479 17.86451,0.0478 3.80896,6.59936 -3.88776,6.75318 -25.4281,-0.0801 -9.14032,15.75647 -15.38947,0.0311 z" style="fill:#3665ae;fill-opacity:1;fill-rule:evenodd;stroke:none" id="path1049"></path>
      </g>
      <g id="g1051" transform="matrix(0.35277777,0,0,0.35277777,-159.08055,-54.041986)">
        <path d="m 727.52789,499.27405 -0.11114,-0.21063 c -0.172,-0.32959 -0.35547,-0.65406 -0.539,-0.97974 l -0.17194,-0.30115 c -2.91449,-5.02508 -6.75183,-8.97882 -6.95477,-9.18432 -8.04431,-8.07404 -18.76923,-12.53174 -30.1947,-12.55115 h -0.0749 c -11.39704,0 -22.10645,4.41894 -30.16114,12.44781 -11.33886,11.29877 -15.3313,28.31928 -10.49359,43.40631 l -7.4989,7.50147 c -7.26758,7.27539 -7.26758,19.11438 -0.0116,26.38068 l 1.21228,1.21875 c 3.52069,3.50775 8.20331,5.44006 13.18323,5.44006 h 0.006 c 4.98633,0 9.67151,-1.93353 13.19995,-5.44904 l 7.48993,-7.48993 c 20.28784,6.60712 42.47705,-2.74517 51.77118,-22.42175 5.63001,-11.91919 5.38446,-26.05749 -0.65137,-37.80737 z m -74.19561,56.93335 -1.19684,-1.20459 c -1.32349,-1.32477 -1.32471,-3.48322 -0.005,-4.80408 l 12.64941,-12.64941 c 1.70087,2.24756 3.70417,4.27545 5.97632,6.00604 l -12.62872,12.6275 c -1.32861,1.32471 -3.48572,1.32733 -4.79504,0.0245 z m 20.89538,-41.46509 c 0.70441,-2.69995 2.11572,-5.17371 4.07904,-7.15765 2.98425,-3.01276 6.96124,-4.68396 11.17212,-4.70588 h 0.11377 c 4.20563,0 8.16968,1.63105 11.16046,4.59211 6.2193,6.156 6.27106,16.22442 0.11371,22.44506 -3.97046,4.01313 -9.82922,5.61835 -15.2951,4.18885 -8.46564,-2.21137 -13.55414,-10.89679 -11.344,-19.36249 z" style="fill:#ffffff;fill-opacity:1;fill-rule:nonzero;stroke:none" id="path1053"></path>
      </g>
      <g id="g1055" transform="matrix(0.35277777,0,0,0.35277777,-156.83245,-52.671246)">
        <path d="m 683.17981,540.40393 c -2.14551,0 -4.30396,-0.27136 -6.42615,-0.8258 -13.62524,-3.55958 -21.81567,-17.53882 -18.25744,-31.16538 1.13476,-4.34528 3.40441,-8.32867 6.56445,-11.51978 9.90808,-10.00891 26.11316,-10.09167 36.12451,-0.18225 10.01025,9.90808 10.09302,26.11435 0.18359,36.12461 -4.84936,4.89843 -11.44873,7.5686 -18.18896,7.5686 z m 0.0375,-47.01102 h -0.11109 c -5.73596,0.0298 -11.11658,2.29029 -15.15039,6.36676 -2.65735,2.68189 -4.56628,6.02936 -5.5188,9.68189 -2.99072,11.45383 3.89295,23.20492 15.3468,26.19577 7.38904,1.93225 15.31702,-0.23914 20.69117,-5.66748 8.32861,-8.41394 8.25891,-22.03531 -0.15516,-30.36527 -4.04931,-4.00799 -9.40918,-6.21167 -15.10253,-6.21167 z" style="fill:#415e9a;fill-opacity:1;fill-rule:nonzero;stroke:none" id="path1057"></path>
      </g>
      <g id="g1059" transform="matrix(0.35277777,0,0,0.35277777,-158.63365,-53.594876)">
        <path d="m 721.20239,500.42224 c -0.19128,-0.37091 -0.40204,-0.73151 -0.60614,-1.09595 -2.60052,-4.47973 -6.07855,-8.04309 -6.07855,-8.04309 -14.45239,-14.5028 -38.01025,-14.54156 -52.51184,-0.0892 -10.75848,10.72235 -13.86566,26.97388 -7.94611,40.86145 l -10.03607,10.03607 c -5.08838,5.09485 -5.08838,13.38477 -0.004,18.47589 l 1.19427,1.20069 c 2.5462,2.53839 5.89105,3.80761 9.23731,3.80633 3.34484,0 6.69238,-1.26916 9.23986,-3.8089 L 673.7272,551.7308 c 18.23675,7.77161 39.58191,-0.23266 48.12127,-18.3092 5.01087,-10.6073 4.60633,-22.77978 -0.57391,-32.86621 -0.0233,-0.0453 -0.0491,-0.0892 -0.0723,-0.13318 z m -3.03601,31.25977 c -7.78589,16.48285 -27.53222,23.5578 -44.01642,15.77325 l -1.29638,-0.61261 -12.03937,12.04071 c -3.50775,3.4961 -9.21655,3.4961 -12.71796,0.006 l -1.19165,-1.1969 c -3.5025,-3.50909 -3.5025,-9.21527 0,-12.72302 l 12.04199,-12.04199 -0.61261,-1.29633 c -5.96734,-12.61194 -3.33587,-27.70416 6.54633,-37.55273 6.24133,-6.21942 14.52612,-9.64313 23.33557,-9.64313 h 0.0582 c 8.60144,0.0155 16.69745,3.29187 22.87286,9.24371 l 0.47693,0.47565 c 9.86548,9.84473 12.49561,24.92529 6.54254,37.52692 z" style="fill:#415e9a;fill-opacity:1;fill-rule:nonzero;stroke:none" id="path1061"></path>
      </g>
      <g id="g1063" transform="matrix(0.35277777,0,0,0.35277777,77.544443,122.47928)">
        <path d="m 18.586939,0 c 0.608744,0 1.216024,0.02983373 1.821838,0.08950118 0.605814,0.05966746 1.207245,0.14888131 1.804293,0.26764157 0.59705,0.11876031 1.18684,0.26649516 1.769373,0.44320452 0.582533,0.17670929 1.155001,0.38154223 1.717407,0.61449893 0.562409,0.2329567 1.112045,0.4929154 1.648909,0.779876 0.536867,0.2869603 1.058376,0.5995409 1.564527,0.9377413 0.506153,0.338201 0.994513,0.7003934 1.46508,1.0865769 0.470564,0.3861842 0.921071,0.7944999 1.351519,1.2249474 0.430447,0.4304481 0.838764,0.8809553 1.224949,1.3515211 0.386185,0.4705662 0.748375,0.9589257 1.086575,1.4650778 0.338199,0.5061541 0.650779,1.0276633 0.93774,1.5645276 0.28696,0.5368657 0.546917,1.0865017 0.779873,1.6489097 0.23296,0.562407 0.437793,1.134878 0.614506,1.717411 0.176708,0.582533 0.324443,1.172323 0.443202,1.769371 0.118763,0.597049 0.207982,1.19848 0.267647,1.804294 0.05967,0.605814 0.0895,1.213093 0.0895,1.821839 4e-6,0.608744 -0.02983,1.216024 -0.0895,1.821838 -0.05967,0.605814 -0.148884,1.207245 -0.267647,1.804293 -0.118759,0.59705 -0.266494,1.18684 -0.443202,1.769373 -0.176713,0.582533 -0.381546,1.155001 -0.614502,1.717407 -0.232956,0.562409 -0.492913,1.112045 -0.779873,1.648909 -0.286961,0.536867 -0.599541,1.058376 -0.937744,1.564527 -0.3382,0.506153 -0.70039,0.994513 -1.086575,1.46508 -0.386185,0.470564 -0.794502,0.921071 -1.224947,1.351519 -0.430447,0.430447 -0.880953,0.838764 -1.351521,1.224949 -0.470567,0.386185 -0.958927,0.748375 -1.46508,1.086575 -0.506153,0.338199 -1.027662,0.650779 -1.564529,0.93774 -0.536864,0.28696 -1.0865,0.546917 -1.648909,0.779873 -0.562406,0.23296 -1.134876,0.437793 -1.717409,0.614506 -0.582533,0.176708 -1.172323,0.324443 -1.769371,0.443202 -0.597048,0.118763 -1.198477,0.207982 -1.804291,0.267647 -0.605814,0.05967 -1.213094,0.0895 -1.821838,0.0895 -0.608746,0 -1.216025,-0.02983 -1.821839,-0.0895 C 16.159286,37.024712 15.557855,36.935493 14.960806,36.81673 14.363758,36.697971 13.773968,36.550236 13.191435,36.373528 12.608902,36.196815 12.036431,35.991982 11.474024,35.759026 10.911616,35.52607 10.36198,35.266113 9.8251152,34.979153 9.28825,34.692192 8.7667408,34.379612 8.2605877,34.041409 7.7544351,33.703209 7.2660761,33.341019 6.7955098,32.954834 6.3249435,32.568649 5.8744359,32.160332 5.4439878,31.729887 5.0135403,31.29944 4.6052246,30.848934 4.2190404,30.378366 3.8328569,29.907799 3.4706645,29.419439 3.1324635,28.913286 2.7942631,28.407133 2.4816825,27.885624 2.1947222,27.348757 1.9077616,26.811893 1.6478029,26.262257 1.4148462,25.699848 1.1818895,25.137442 0.97705656,24.564972 0.80034727,23.982439 0.62363791,23.399906 0.47590306,22.810116 0.35714275,22.213068 0.23838249,21.61602 0.14916864,21.014591 0.08950118,20.408777 0.02983373,19.802963 0,19.195683 0,18.586939 0,17.978193 0.02983373,17.370914 0.08950118,16.7651 0.14916864,16.159286 0.23838249,15.557855 0.35714275,14.960806 0.47590306,14.363758 0.62363791,13.773968 0.80034727,13.191435 0.97705656,12.608902 1.1818895,12.036431 1.4148462,11.474024 1.6478029,10.911616 1.9077616,10.36198 2.1947222,9.8251152 2.4816825,9.28825 2.7942631,8.7667408 3.1324635,8.2605877 3.4706645,7.7544351 3.8328569,7.2660761 4.2190404,6.7955098 4.6052246,6.3249435 5.0135403,5.8744359 5.4439878,5.4439878 5.8744359,5.0135403 6.3249431,4.6052246 6.7955089,4.2190404 7.2660751,3.8328569 7.7544346,3.4706645 8.2605867,3.1324635 8.7667408,2.7942631 9.28825,2.4816825 9.8251143,2.1947222 10.36198,1.9077616 10.911616,1.6478029 11.474024,1.4148462 12.036431,1.1818895 12.608902,0.97705656 13.191435,0.80034727 13.773968,0.62363791 14.363758,0.47590306 14.960806,0.35714275 15.557855,0.23838249 16.159286,0.14916864 16.7651,0.08950118 17.370914,0.02983373 17.978193,0 18.586939,0 Z" style="fill:#ffffff;fill-opacity:1;fill-rule:nonzero;stroke:none" id="path1065"></path>
      </g>
      <g id="g1067" transform="matrix(0.35277777,0,0,0.35277777,-156.2822,-51.587286)">
        <path d="m 681.75714,523.75134 c -10.20019,0 -18.1864,-10.76758 -18.52112,-11.22644 -0.31799,-0.43554 -0.31799,-1.0249 0,-1.46051 0.33472,-0.45746 8.32093,-11.22632 18.52112,-11.22632 10.20014,0 18.18634,10.76886 18.52106,11.22766 0.31799,0.43427 0.31799,1.02491 0,1.45917 -0.33472,0.45886 -8.32092,11.22644 -18.52106,11.22644 z m -15.94653,-11.95666 c 1.92578,2.33551 8.43335,9.48291 15.94653,9.48291 7.52857,0 14.02326,-7.14356 15.94647,-9.48163 -1.92706,-2.33807 -8.43335,-9.48413 -15.94647,-9.48413 -7.52997,0 -14.02338,7.14349 -15.94653,9.48285 z" style="fill:#5277c3;fill-opacity:1;fill-rule:nonzero;stroke:none" id="path1069"></path>
      </g>
      <g id="g1071" transform="matrix(0.35277777,0,0,0.35277777,-155.37705,-51.225226)">
        <path d="m 679.19141,518.18982 c -4.09198,0 -7.42139,-3.32947 -7.42139,-7.42142 0,-4.09198 3.32941,-7.42138 7.42139,-7.42138 4.09192,0 7.42138,3.3294 7.42138,7.42138 0,4.09195 -3.32946,7.42142 -7.42138,7.42142 z m 0,-12.36899 c -2.72846,0 -4.94757,2.21918 -4.94757,4.94757 0,2.72843 2.21911,4.94754 4.94757,4.94754 2.72833,0 4.94757,-2.21911 4.94757,-4.94754 0,-2.72839 -2.21924,-4.94757 -4.94757,-4.94757 z" style="fill:#7ebae4;fill-opacity:1;fill-rule:nonzero;stroke:none" id="path1073"></path>
      </g>
    </g>
  </svg>