<svg xmlns:dc="http://purl.org/dc/elements/1.1/" xmlns:cc="http://creativecommons.org/ns#" xmlns:rdf="http://www.w3.org/1999/02/22-rdf-syntax-ns#" xmlns:svg="http://www.w3.org/2000/svg" xmlns="http://www.w3.org/2000/svg" id="svg3297" version="1.1" viewBox="0 0 206 171" height="171" width="206">
    <defs id="defs3291">
      <linearGradient x1="-41.009003" y1="1076.8619" x2="-39.052826" y2="1079.474" gradientUnits="userSpaceOnUse" gradientTransform="matrix(1,0,0,-1,1212.9646,5671.5529)" spreadMethod="pad" id="linearGradient706">
        <stop style="stop-opacity:1;stop-color:#4e89c8" offset="0" id="stop700"></stop>
        <stop style="stop-opacity:1;stop-color:#65a4d7" offset="0.24299999" id="stop702"></stop>
        <stop style="stop-opacity:1;stop-color:#66addf" offset="1" id="stop704"></stop>
      </linearGradient>
      <linearGradient x1="-65.862793" y1="1059.7554" x2="-64.62439" y2="1061.4089" gradientUnits="userSpaceOnUse" gradientTransform="matrix(1,0,0,-1,3638.332,5628.8188)" spreadMethod="pad" id="linearGradient871">
        <stop style="stop-opacity:1;stop-color:#4e89c8" offset="0" id="stop865"></stop>
        <stop style="stop-opacity:1;stop-color:#65a4d7" offset="0.24299999" id="stop867"></stop>
        <stop style="stop-opacity:1;stop-color:#66addf" offset="1" id="stop869"></stop>
      </linearGradient>
    </defs>
    <metadata id="metadata3294">
      <rdf:rdf>
        <cc:work rdf:about="">
          <dc:format>image/svg+xml</dc:format>
          <dc:type rdf:resource="http://purl.org/dc/dcmitype/StillImage"></dc:type>
          <dc:title></dc:title>
        </cc:work>
      </rdf:rdf>
    </metadata>
    <g id="layer2">
      <g id="g4577" transform="matrix(0.3324239,0,0,0.3324239,-439.10832,-819.83987)" style="stroke-width:0.265307">
        <path id="path708" style="fill:url(#linearGradient706);fill-opacity:1;fill-rule:evenodd;stroke:none;stroke-width:1.06123" d="m 1533.9722,2696.7407 121.063,209.6552 -55.6355,0.5244 -32.3181,-56.3408 -32.5468,56.0307 h -27.6794 l -14.1591,-24.4565 46.3723,-79.7393 -32.9142,-57.28 z"></path>
        <path id="path712" style="fill:#66addf;fill-opacity:1;fill-rule:evenodd;stroke:none;stroke-width:1.06123" d="m 1577.6654,2610.3603 -121.106,209.6839 -28.2611,-47.9216 32.6281,-56.136 -64.8079,-0.1716 -13.8158,-23.9419 14.1019,-24.4949 92.2441,0.2864 33.1572,-57.1562 55.8595,-0.148 z"></path>
        <path id="path716" style="fill:#66addf;fill-opacity:1;fill-rule:evenodd;stroke:none;stroke-width:1.06123" d="m 1586.957,2777.9768 h 242.1353 l -27.3694,48.4414 -64.9461,-0.186 32.2466,56.2074 -13.8255,23.9324 h -28.2658 l -45.8241,-80.0348 -66.0711,-0.1384 -28.0799,-48.2221 z"></path>
        <path id="path720" style="fill:#66addf;fill-opacity:1;fill-rule:evenodd;stroke:none;stroke-width:1.06123" d="m 1727.8853,2686.0952 -121.063,-209.6506 55.6352,-0.5291 32.3181,56.3457 32.5471,-56.0356 h 27.6461 l 14.1592,24.4611 -46.3772,79.7347 32.914,57.2847 z"></path>
        <path id="path724" style="fill:#3665ae;fill-opacity:1;fill-rule:evenodd;stroke:none;stroke-width:1.06123" d="m 1533.9722,2696.7407 121.063,209.6552 -55.6355,0.5244 -32.3181,-56.3408 -32.5468,56.0307 h -27.6794 l -14.1591,-24.4565 46.3723,-79.7393 -32.9142,-57.28 z"></path>
        <path id="path728" style="fill:#3665ae;fill-opacity:1;fill-rule:evenodd;stroke:none;stroke-width:1.06123" d="m 1674.4052,2604.3772 h -242.1307 l 27.3697,-48.3887 64.946,0.1812 -32.2608,-56.3218 13.8253,-23.9323 h 28.2658 l 45.8241,80.0349 66.0711,0.138 28.0895,48.2885 z"></path>
        <path id="path732" style="fill:#3665ae;fill-opacity:1;fill-rule:evenodd;stroke:none;stroke-width:1.06123" d="m 1683.9165,2772.4467 121.0724,-209.6552 28.2611,47.9219 -32.6279,56.1358 64.8077,0.1716 13.8159,23.9465 -14.1019,24.4949 -92.244,-0.2864 -33.1573,57.1563 -55.826,0.1144 z"></path>
        <path id="path736" style="fill:#818181;fill-opacity:1;fill-rule:nonzero;stroke:none;stroke-width:1.06123" d="m 1630.7688,2708.6592 h 0.01 z"></path>
        <path id="path740" style="fill:#6ad542;fill-opacity:1;fill-rule:nonzero;stroke:none;stroke-width:1.06123" d="m 1677.9184,2693.8564 c -3.4755,-3.4802 -9.0962,-3.5279 -12.6335,-0.1096 l -20.7287,20.7287 v -69.8327 c 0,-4.4766 -4.038,-8.1094 -9.0152,-8.1094 -4.977,0 -9.015,3.6328 -9.015,8.1094 v 69.7229 l -20.619,-20.6189 c -3.5183,-3.523 -9.2249,-3.523 -12.748,0 -3.5182,3.523 -3.5182,9.2249 0,12.7478 l 36.0651,36.0607 c 3.5186,3.5231 9.225,3.5231 12.7481,0 l 36.0605,-36.0607 c 3.4136,-3.5372 3.366,-9.1628 -0.1144,-12.6382 z"></path>
        <path id="path744" style="fill:#6ad542;fill-opacity:1;fill-rule:nonzero;stroke:none;stroke-width:1.06123" d="m 1860.843,2851.7284 c -6.8221,0 -12.3475,5.53 -12.3475,12.3474 v 43.2212 c 0,21.5386 -17.458,38.9971 -38.9923,38.9971 h -357.4586 c -21.5342,0 -38.9924,-17.4585 -38.9924,-38.9971 v -43.2212 c 0,-6.8174 -5.53,-12.3474 -12.3475,-12.3474 -6.8173,0 -12.3474,5.53 -12.3474,12.3474 v 43.2212 c 0,35.1738 28.5137,63.6875 63.6873,63.6875 h 357.4586 c 35.1737,0 63.6872,-28.5093 63.6872,-63.6829 v -43.2258 c 0,-6.8174 -5.5299,-12.3474 -12.3474,-12.3474 z"></path>
      </g>
    </g>
  </svg>